<?xml version="1.0" encoding="UTF-8"?>
<svg xmlns="http://www.w3.org/2000/svg" viewBox="0 0 1200 1200" width="1200" height="1200">
  <title>emoji_u1fa79</title>
  <path fill="#e0e1e0" d="M0 1000H100V1100H200V1200H400V1100H500V1000H600V900H700V800H800V700H900V600H1000V500H1100V300H1000V200H900V100H700V200H600V300H500V400H400V500H300V600H200V700H100V800H0ZM600 500V400H700V300H800V400H900V500H800V600H700V500ZM200 900V800H300V700H400V800H500V900H400V1000H300V900ZM700 500H800V400H700ZM300 900H400V800H300Z"/>
  <path fill="#bdbdbd" d="M1000 500H1100V300H1000ZM300 600H400V700H500V800H600V900H700V800H800V700H700V600H600V500H500V400H400V500H300ZM900 600H1000V500H900ZM800 700H900V600H800ZM500 1000H600V900H500ZM400 1100H500V1000H400ZM200 1200H400V1100H200Z"/>
</svg>
