<?xml version="1.0" encoding="UTF-8"?>
<svg xmlns="http://www.w3.org/2000/svg" viewBox="0 0 1200 1200" width="1200" height="1200">
  <title>emoji_u1f98a</title>
  <path fill="#575a5b" d="M100 500H300V400H500V300H400V200H300V100H100ZM600 400H800V500H1000V100H800V200H700V300H600Z"/>
  <path fill="#4a4a4c" d="M300 1200H800V1000H700V900H400V1000H300Z"/>
  <path fill="#ffffff" d="M0 1000H100V1100H400V800H100V900H0ZM700 1100H1000V1000H1100V900H1000V800H700Z"/>
  <path fill="#fee9c9" d="M200 1100H300V1200H400V1100H500V1000H600V1100H700V1200H800V1100H900V1000H800V900H900V800H600V900H500V800H200V900H300V1000H200Z"/>
  <path fill="#dfdfdf" d="M0 1000H200V900H400V1000H500V700H0ZM600 1000H700V900H900V1000H1100V700H600ZM200 1100H300V1000H200ZM800 1100H900V1000H800Z"/>
  <path fill="#ff6011" d="M0 900H100V800H400V1000H700V800H1000V900H1100V600H1000V400H900V200H800V300H300V200H200V400H100V600H0Z"/>
  <path fill="#ff9411" d="M200 400H300V200H200ZM800 400H900V200H800Z"/>
  <path fill="#2d2a25" d="M300 700H400V500H300ZM700 700H800V500H700ZM400 1000H700V900H400Z"/>
</svg>
