<?xml version="1.0" encoding="UTF-8"?>
<svg xmlns="http://www.w3.org/2000/svg" viewBox="0 0 1200 1200" width="1200" height="1200">
  <title>emoji_u1f91c_1f3ff</title>
  <path fill="#58382b" d="M0 700H200V800H300V900H400V1000H600V1100H900V800H1000V500H1100V300H1000V200H800V100H0V300H500V400H400V500H0Z"/>
  <path fill="#000000" d="M500 800H600V900H800V1100H900V1000H1100V400H1000V300H600V400H700V500H800V600H900V700H700V500H600V700H500ZM500 500H600V400H500ZM300 700H400V600H300ZM200 800H300V700H200ZM300 900H400V800H300ZM400 1000H500V900H400Z"/>
  <path fill="#70534a" d="M0 600H300V700H500V500H600V400H800V500H900V700H700V800H900V900H1000V300H800V200H0ZM500 800H600V700H500ZM600 900H700V800H600Z"/>
</svg>
