<?xml version="1.0" encoding="UTF-8"?>
<svg xmlns="http://www.w3.org/2000/svg" viewBox="0 0 1200 1200" width="1200" height="1200">
  <title>emoji_u1f1e7_1f1f6</title>
  <path fill="#f9d90f" d="M0 600H200V500H400V300H0Z"/>
  <path fill="#526ead" d="M900 500H1100V300H900Z"/>
  <path fill="#aebbd9" d="M0 1000H200V800H0Z"/>
  <path fill="#1b4093" d="M0 900H100V1000H300V800H0Z"/>
  <path fill="#e5e9f3" d="M800 500H1100V400H1000V300H800Z"/>
  <path fill="#fbe558" d="M200 500H500V300H300V400H200Z"/>
  <path fill="#fbe86e" d="M0 700H200V400H100V500H0Z"/>
  <path fill="#fefbe5" d="M300 500H600V300H400V400H300Z"/>
  <path fill="#ffffff" d="M400 700H700V600H800V500H1000V400H900V300H500V400H400ZM0 900H200V500H100V600H0Z"/>
  <path fill="#012a87" d="M100 900H200V1000H1100V400H700V500H600V600H400V700H300V800H100Z"/>
  <path fill="#fcfcfc" d="M300 600H500V400H300ZM100 900H300V600H100Z"/>
  <path fill="#032b88" d="M200 900H400V800H500V700H200Z"/>
  <path fill="#10378e" d="M800 500H1000V400H800Z"/>
  <path fill="#6881b8" d="M100 900H300V800H400V700H200V800H100Z"/>
  <path fill="#98a8ce" d="M700 600H800V500H900V400H700Z"/>
  <path fill="#bebebe" d="M100 700H200V800H300V500H100Z"/>
  <path fill="#c4c2b5" d="M100 600H200V700H300V400H100Z"/>
  <path fill="#c5bb78" d="M100 500H200V600H400V400H100Z"/>
  <path fill="#f0f2f8" d="M200 800H300V700H200ZM100 900H200V800H100Z"/>
  <path fill="#f8db25" d="M100 500H200V400H100ZM200 600H300V500H200Z"/>
  <path fill="#fdfefe" d="M600 600H800V400H700V500H600Z"/>
  <path fill="#c2c2c2" d="M200 600H300V700H600V600H500V500H400V400H300V500H200Z"/>
  <path fill="#244695" d="M300 800H500V700H600V600H300Z"/>
  <path fill="#3d5ca3" d="M600 700H700V600H800V500H600Z"/>
  <path fill="#858fa4" d="M200 800H400V700H500V600H200Z"/>
  <path fill="#c5c5c5" d="M200 800H300V700H400V600H200Z"/>
  <path fill="#d6ddec" d="M500 700H700V500H600V600H500Z"/>
  <path fill="#f0a7aa" d="M200 700H500V600H400V500H200Z"/>
  <path fill="#f0b1b3" d="M200 700H400V600H300V500H200Z"/>
  <path fill="#f1acae" d="M200 700H400V600H200Z"/>
  <path fill="#08308a" d="M500 700H700V600H500Z"/>
  <path fill="#8094c3" d="M400 700H600V600H400Z"/>
  <path fill="#b7b8ba" d="M300 700H500V600H300Z"/>
  <path fill="#f0a1a4" d="M300 700H400V600H300Z"/>
</svg>
