<?xml version="1.0" encoding="UTF-8"?>
<svg xmlns="http://www.w3.org/2000/svg" viewBox="0 0 1200 1200" width="1200" height="1200">
  <title>emoji_u1f91e_1f3fc</title>
  <path fill="#8d542e" d="M100 1000H200V1100H300V1200H800V1100H1000V500H900V400H1000V100H800V200H700V100H600V200H500V400H400V500H300V400H200V600H100Z"/>
  <path fill="#d19661" d="M800 400H900V100H800ZM500 400H600V500H700V600H800V400H700V200H500ZM100 1000H400V1100H700V1000H900V800H800V700H500V800H700V900H500V800H400V700H300V800H200V700H300V400H200V500H100ZM400 700H500V600H600V500H500V400H400Z"/>
  <path fill="#e0bb95" d="M600 400H700V200H600ZM800 300H900V200H800ZM700 600H800V700H900V500H800V400H700ZM200 700H300V500H200ZM400 600H500V500H400ZM500 800H800V700H500ZM200 1000H300V1100H800V1000H900V800H800V900H600V1000H500V900H300V800H200Z"/>
</svg>
