<?xml version="1.0" encoding="UTF-8"?>
<svg xmlns="http://www.w3.org/2000/svg" viewBox="0 0 1200 1200" width="1200" height="1200">
  <title>emoji_u1f390</title>
  <path fill="#a7d0d7" d="M200 1200H600V1100H700V1000H800V800H700V700H600V900H500V1000H300V1100H200Z"/>
  <path fill="#2cc7f4" d="M400 600H500V700H600V800H700V700H800V600H900V300H800V200H700V100H600V200H500V300H400Z"/>
  <path fill="#69a6ae" d="M500 400H800V300H700V100H600V300H500Z"/>
  <path fill="#6ba4ae" d="M500 1000H700V600H600V800H500Z"/>
  <path fill="#fbffff" d="M500 400H600V500H700V300H500ZM400 500H500V400H400ZM500 600H600V500H500Z"/>
  <path fill="#dbeff5" d="M300 1100H600V1000H700V900H600V800H500V900H400V1000H300Z"/>
  <path fill="#ffdce8" d="M500 600H600V700H700V400H800V300H600V500H500ZM800 500H900V400H800Z"/>
  <path fill="#00bfed" d="M600 700H700V300H600Z"/>
</svg>
