<?xml version="1.0" encoding="UTF-8"?>
<svg xmlns="http://www.w3.org/2000/svg" viewBox="0 0 1200 1200" width="1200" height="1200">
  <title>emoji_u1f407</title>
  <path fill="#ecf0f2" d="M900 1200H1000V1100H1100V900H1000V800H900Z"/>
  <path fill="#a8a8a8" d="M0 900H100V1000H300V1100H200V1200H600V1100H700V1200H1000V800H900V700H600V600H500V500H600V200H500V100H400V200H300V400H200V500H100V600H0Z"/>
  <path fill="#dfdfdf" d="M100 900H500V600H400V500H500V200H400V400H300V500H200V600H100ZM400 1100H600V1000H700V1100H900V800H600V900H500V1000H400Z"/>
  <path fill="#2f3030" d="M200 800H300V600H200Z"/>
</svg>
