<?xml version="1.0" encoding="UTF-8"?>
<svg xmlns="http://www.w3.org/2000/svg" viewBox="0 0 1200 1200" width="1200" height="1200">
  <title>emoji_u1f981</title>
  <path fill="#865c50" d="M0 900H100V1000H200V1100H300V1200H800V1100H900V1000H1000V900H1100V700H1000V600H1100V300H1000V200H800V100H600V200H500V100H300V200H100V300H0V600H100V700H0Z"/>
  <path fill="#fec000" d="M100 500H200V800H300V900H400V1000H500V800H600V1000H700V900H800V800H900V500H1000V300H800V400H600V500H500V400H300V300H100Z"/>
  <path fill="#ff8e06" d="M200 500H300V400H200ZM800 500H900V400H800ZM300 600H400V500H300ZM700 600H800V500H700Z"/>
  <path fill="#ffd899" d="M400 1000H700V700H400Z"/>
  <path fill="#2e2f2f" d="M300 600H400V500H300ZM700 600H800V500H700ZM400 800H500V900H600V800H700V700H400Z"/>
</svg>
