<?xml version="1.0" encoding="UTF-8"?>
<svg xmlns="http://www.w3.org/2000/svg" viewBox="0 0 1200 1200" width="1200" height="1200">
  <title>emoji_u1f239</title>
  <path fill="#cc3333" d="M500 1200H1000V1100H1100V200H1000V100H900V1000H500Z"/>
  <path fill="#f44336" d="M0 1100H100V1200H600V1100H1000V100H100V200H0Z"/>
  <path fill="#fafafa" d="M100 500H200V600H300V700H200V800H500V700H400V600H500V500H600V300H400V200H200V300H100ZM200 500V400H300V500ZM400 500V400H500V500ZM800 1100H1000V300H900V1000H800ZM700 900H800V400H700ZM100 1200H600V900H100ZM200 1100V1000H500V1100Z"/>
  <path fill="#ff8a80" d="M200 300H300V200H200Z"/>
</svg>
