<?xml version="1.0" encoding="UTF-8"?>
<svg xmlns="http://www.w3.org/2000/svg" viewBox="0 0 1200 1200" width="1200" height="1200">
  <title>emoji_u1f370</title>
  <path fill="#df7c1a" d="M0 1200H1100V700H1000V600H0Z"/>
  <path fill="#ff5117" d="M300 600H900V300H800V200H700V100H500V200H400V300H300Z"/>
  <path fill="#ffccc1" d="M0 700H100V800H200V700H300V800H400V700H500V800H600V700H700V800H800V700H900V800H1000V1200H1100V500H1000V400H900V300H700V400H800V500H400V300H300V400H100V500H0ZM0 900H100V800H0ZM200 900H300V800H200ZM400 900H500V800H400ZM600 900H700V800H600ZM800 900H900V800H800Z"/>
  <path fill="#fea32e" d="M0 1100H900V800H800V900H700V800H600V900H500V800H400V900H300V800H200V900H100V800H0Z"/>
  <path fill="#feffff" d="M500 300H600V200H500ZM700 400H800V300H700ZM400 600H700V500H600V400H500V500H400ZM800 500H900V400H800Z"/>
  <path fill="#ffffff" d="M100 600H1000V500H900V400H800V500H400V400H300V500H100Z"/>
</svg>
