<?xml version="1.0" encoding="UTF-8"?>
<svg xmlns="http://www.w3.org/2000/svg" viewBox="0 0 1200 1200" width="1200" height="1200">
  <title>emoji_u2642</title>
  <path fill="#4dcdbc" d="M700 300H900V100H700ZM900 400H1000V600H1100V300H900ZM0 900H100V800H200V700H400V500H200V600H100V700H0Z"/>
  <path fill="#00bca2" d="M0 1100H100V1200H600V1100H700V600H800V500H900V400H1100V100H800V200H700V300H800V400H700V500H600V600H500V500H300V600H200V700H500V800H600V1000H500V1100H200V1000H100V800H0ZM100 800H200V700H100Z"/>
  <path fill="#00796b" d="M700 300H900V200H700ZM900 400H1000V300H900ZM800 500H900V400H800ZM700 600H800V500H700ZM1000 600H1100V500H1000ZM200 700H500V600H200ZM600 700H700V600H600ZM100 800H200V700H100ZM500 800H600V700H500ZM0 1100H100V1000H0ZM600 1100H700V1000H600ZM100 1200H200V1100H100ZM500 1200H600V1100H500Z"/>
</svg>
