<?xml version="1.0" encoding="UTF-8"?>
<svg xmlns="http://www.w3.org/2000/svg" viewBox="0 0 1200 1200" width="1200" height="1200">
  <title>emoji_u1f525</title>
  <path fill="#fc6011" d="M400 200H500V300H800V200H700V100H400Z"/>
  <path fill="#ff9800" d="M100 1000H200V1100H300V1200H900V1100H1000V1000H1100V900H700V1000H500V900H100Z"/>
  <path fill="#ff7800" d="M400 700H900V300H600V400H500V600H400ZM200 500H300V400H200ZM100 700H300V600H200V500H100Z"/>
  <path fill="#fe6807" d="M500 300H600V400H700V500H800V400H900V300H800V200H500Z"/>
  <path fill="#ff8200" d="M100 900H600V800H700V900H1100V600H1000V700H900V600H700V500H600V600H400V700H300V600H100Z"/>
  <path fill="#ff8d00" d="M100 1000H600V700H500V800H100ZM800 1000H1100V800H800Z"/>
  <path fill="#ffd976" d="M300 1000H400V1100H800V1000H900V900H300Z"/>
  <path fill="#fff176" d="M700 500H800V400H700ZM600 600H700V500H600Z"/>
  <path fill="#fff285" d="M600 700H700V500H600Z"/>
  <path fill="#fff9c0" d="M300 1000H900V800H800V700H500V900H400V800H300Z"/>
  <path fill="#ffeea9" d="M300 1000H900V900H300Z"/>
  <path fill="#fff59f" d="M500 800H800V700H700V600H600V700H500Z"/>
  <path fill="#fff7ae" d="M500 800H800V700H500Z"/>
</svg>
