<?xml version="1.0" encoding="UTF-8"?>
<svg xmlns="http://www.w3.org/2000/svg" viewBox="0 0 1200 1200" width="1200" height="1200">
  <title>emoji_u1f446_1f3fe</title>
  <path fill="#824624" d="M100 800H200V1000H300V1200H500V900H600V700H1100V500H1000V400H700V300H600V100H500V200H400V600H300V500H200V600H100Z"/>
  <path fill="#422319" d="M500 800H900V1000H800V1200H1000V1100H1100V500H1000V600H900V400H800V600H700V200H600V100H500ZM200 800H400V600H300V500H200Z"/>
  <path fill="#a56c43" d="M200 800H300V1000H400V1200H900V1100H1000V600H900V700H800V600H700V700H600V200H500V800H400V700H300V600H200Z"/>
</svg>
