<?xml version="1.0" encoding="UTF-8"?>
<svg xmlns="http://www.w3.org/2000/svg" viewBox="0 0 1200 1200" width="1200" height="1200">
  <title>emoji_u1f3c1</title>
  <path fill="#c8c8c8" d="M0 1200H100V900H200V200H100V100H0Z"/>
  <path fill="#dacec9" d="M100 400H300V300H400V400H800V300H900V600H1100V100H800V200H500V100H200V200H100Z"/>
  <path fill="#2f2f2f" d="M100 900H200V800H500V900H800V800H1100V600H800V700H400V600H100Z"/>
  <path fill="#9b9b9b" d="M200 700H300V800H700V900H800V800H900V700H1000V800H1100V600H700V700H600V600H200Z"/>
  <path fill="#434343" d="M100 700H500V800H800V700H1100V500H1000V300H1100V100H1000V200H900V100H800V200H700V300H500V100H300V200H200V300H100Z"/>
  <path fill="#f1edec" d="M200 300H300V200H200ZM700 500H800V400H900V200H800V300H700ZM100 400H200V300H100ZM300 500H500V300H300ZM900 600H1000V400H900ZM100 800H200V700H300V500H200V600H100ZM500 700H700V500H500ZM800 700H900V600H800ZM700 800H800V700H700Z"/>
</svg>
