<?xml version="1.0" encoding="UTF-8"?>
<svg xmlns="http://www.w3.org/2000/svg" viewBox="0 0 1200 1200" width="1200" height="1200">
  <title>emoji_u1f22f</title>
  <path fill="#689f38" d="M0 1100H100V1200H1000V1100H1100V200H1000V100H900V1000H0Z"/>
  <path fill="#7cb342" d="M0 1100H1000V100H100V200H0Z"/>
  <path fill="#aed581" d="M200 300H300V200H200ZM100 400H200V300H100ZM300 400H400V300H300ZM200 500H300V400H200Z"/>
  <path fill="#fafafa" d="M600 500H900V400H800V300H700V200H600ZM800 300H900V200H800ZM200 1000H400V700H500V600H400V500H500V400H400V300H300V400H200V500H300V700H200V800H300V900H200ZM600 1000H700V900H800V1000H900V600H600ZM700 800V700H800V800Z"/>
</svg>
