<?xml version="1.0" encoding="UTF-8"?>
<svg xmlns="http://www.w3.org/2000/svg" viewBox="0 0 1200 1200" width="1200" height="1200">
  <title>emoji_u1f4f8</title>
  <path fill="#90a4ae" d="M100 400H500V300H400V200H100Z"/>
  <path fill="#b0bec5" d="M0 700H500V300H100V400H0ZM800 700H1100V400H800ZM0 1100H100V1200H1000V1100H1100V1000H0Z"/>
  <path fill="#212121" d="M700 1100H1100V600H900V500H800V900H700ZM0 1100H500V900H400V600H0Z"/>
  <path fill="#616161" d="M300 1000H400V1100H800V1000H900V500H700V900H500V500H400V600H300ZM0 1000H100V700H0ZM1000 1000H1100V700H1000Z"/>
  <path fill="#ff8f00" d="M300 500H400V800H500V900H800V600H900V500H1000V400H900V300H800V200H700V100H600V200H500V300H400V400H300Z"/>
  <path fill="#ffee58" d="M400 500H600V700H700V500H900V400H700V200H600V400H400ZM500 800H600V700H500ZM700 800H800V700H700Z"/>
  <path fill="#000000" d="M400 1000H800V700H700V800H600V700H500V600H400Z"/>
  <path fill="#235a67" d="M500 900H700V800H600V700H500Z"/>
  <path fill="#2f7889" d="M500 900H600V700H500Z"/>
  <path fill="#94d1e0" d="M500 800H600V700H500Z"/>
</svg>
