<?xml version="1.0" encoding="UTF-8"?>
<svg xmlns="http://www.w3.org/2000/svg" viewBox="0 0 1200 1200" width="1200" height="1200">
  <title>emoji_u1f50a</title>
  <path fill="#b0bec5" d="M900 200H1000V100H900ZM700 300H800V200H700ZM1000 900H1100V200H1000ZM500 800H600V700H700V400H600V300H500ZM800 800H900V300H800ZM700 900H800V800H700ZM900 1000H1000V900H900Z"/>
  <path fill="#738a97" d="M100 800H300V900H400V1000H600V800H500V700H400V600H100Z"/>
  <path fill="#2a4e56" d="M0 800H200V700H300V600H0Z"/>
  <path fill="#b3d0e0" d="M400 900H500V1000H600V500H400Z"/>
  <path fill="#427687" d="M0 700H300V500H0Z"/>
  <path fill="#8cafbf" d="M0 600H200V700H300V800H400V900H500V600H600V200H400V300H300V400H0Z"/>
  <path fill="#b2dfec" d="M200 600H300V700H400V300H300V400H200ZM500 600H600V300H500Z"/>
</svg>
