<?xml version="1.0" encoding="UTF-8"?>
<svg xmlns="http://www.w3.org/2000/svg" viewBox="0 0 1200 1200" width="1200" height="1200">
  <title>emoji_u1f3d3</title>
  <path fill="#d8cdc9" d="M0 1000H100V1100H300V1000H400V800H300V700H100V800H0Z"/>
  <path fill="#f3a25a" d="M500 800H600V1200H900V800H1000V600H500Z"/>
  <path fill="#fdd083" d="M400 700H500V800H600V700H700V600H400ZM800 700H900V800H1000V700H1100V600H800ZM700 1100H800V900H700Z"/>
  <path fill="#ff4f28" d="M400 700H1100V300H1000V200H900V100H600V200H500V300H400Z"/>
  <path fill="#eaebeb" d="M100 1000H300V800H100Z"/>
  <path fill="#feffff" d="M100 900H200V800H100Z"/>
</svg>
