<?xml version="1.0" encoding="UTF-8"?>
<svg xmlns="http://www.w3.org/2000/svg" viewBox="0 0 1200 1200" width="1200" height="1200">
  <title>emoji_u1f518</title>
  <path fill="#b2b2b2" d="M100 500H400V400H500V100H400V200H200V300H100ZM600 1200H700V1100H900V1000H1000V800H1100V700H800V800H700V900H600Z"/>
  <path fill="#868686" d="M0 800H100V1000H200V1100H400V1200H700V1000H800V900H900V800H1100V500H1000V300H900V200H700V100H400V300H300V400H200V300H100V500H0ZM200 300H300V200H200ZM900 1000H1000V900H900ZM800 1100H900V1000H800Z"/>
  <path fill="#434c4e" d="M200 800H300V900H400V1000H700V900H800V800H900V500H800V400H700V300H400V400H300V500H200Z"/>
  <path fill="#b1b1b1" d="M300 800H400V900H700V800H800V500H700V400H400V500H300Z"/>
  <path fill="#dedede" d="M500 500H600V400H500ZM400 600H500V500H400Z"/>
</svg>
