<?xml version="1.0" encoding="UTF-8"?>
<svg xmlns="http://www.w3.org/2000/svg" viewBox="0 0 1200 1200" width="1200" height="1200">
  <title>emoji_u1fa92</title>
  <path fill="#a7571f" d="M600 1100H800V600H900V500H600Z"/>
  <path fill="#727272" d="M400 1100H500V1200H700V1100H800V1000H400Z"/>
  <path fill="#9a9a9a" d="M600 1100H800V1000H700V900H600Z"/>
  <path fill="#b0b0b0" d="M400 1100H700V900H400Z"/>
  <path fill="#da8346" d="M300 600H400V1000H500V1100H600V1000H700V600H800V500H300Z"/>
  <path fill="#e0e0e0" d="M100 600H900V400H1000V100H100ZM500 1100H600V1000H500Z"/>
  <path fill="#858585" d="M100 200H200V500H800V600H1100V100H100ZM300 300V200H900V300Z"/>
  <path fill="#5e6367" d="M900 600H1100V100H1000V500H900ZM300 400H900V300H300Z"/>
</svg>
