<?xml version="1.0" encoding="UTF-8"?>
<svg xmlns="http://www.w3.org/2000/svg" viewBox="0 0 1200 1200" width="1200" height="1200">
  <title>emoji_u1fab7</title>
  <path fill="#fd7d84" d="M0 900H100V1000H200V1100H100V1200H400V1100H500V1200H600V1100H700V1200H1000V1100H900V1000H1000V900H1100V500H1000V100H900V200H700V300H600V400H500V300H400V200H200V100H100V500H0Z"/>
  <path fill="#fda1a2" d="M100 200H200V100H100ZM900 200H1000V100H900ZM0 600H100V900H200V800H300V900H400V1000H500V900H600V1000H700V900H800V800H900V900H1000V600H1100V500H900V200H700V400H800V500H700V400H400V500H300V400H400V200H200V500H0ZM200 700V600H300V700ZM800 700V600H900V700ZM200 1100H400V1000H200ZM500 1100H600V1000H500ZM700 1100H900V1000H700ZM100 1200H200V1100H100ZM900 1200H1000V1100H900Z"/>
  <path fill="#ffd51d" d="M300 700H400V800H700V700H800V600H700V500H600V400H500V500H400V600H300Z"/>
  <path fill="#faeac7" d="M0 600H100V500H0ZM200 600H300V500H200ZM800 600H900V500H800ZM1000 600H1100V500H1000ZM100 700H200V600H100ZM300 700H400V800H500V900H600V800H700V700H800V600H600V700H500V600H300ZM900 700H1000V600H900ZM200 800H300V700H200ZM800 800H900V700H800Z"/>
  <path fill="#fea826" d="M400 700H500V600H400ZM600 700H700V600H600ZM500 800H600V700H500Z"/>
</svg>
