<?xml version="1.0" encoding="UTF-8"?>
<svg xmlns="http://www.w3.org/2000/svg" viewBox="0 0 1200 1200" width="1200" height="1200">
  <title>emoji_u1faab</title>
  <path fill="#98adb8" d="M200 1100H300V1200H800V1100H900V200H800V100H300V200H200Z"/>
  <path fill="#c62828" d="M300 1100H800V800H600V900H500V800H300Z"/>
  <path fill="#9e9e9e" d="M400 400H700V200H400Z"/>
  <path fill="#d9d9d9" d="M300 300H400V400H700V300H800V200H600V300H500V200H300Z"/>
  <path fill="#f5f5f5" d="M300 300H400V200H300ZM400 400H500V300H400Z"/>
  <path fill="#f44336" d="M300 900H400V1000H700V900H800V800H600V700H500V800H300Z"/>
  <path fill="#ffffff" d="M400 700H500V800H600V700H700V600H600V500H500V600H400ZM400 1000H700V900H400Z"/>
</svg>
