<?xml version="1.0" encoding="UTF-8"?>
<svg xmlns="http://www.w3.org/2000/svg" viewBox="0 0 1200 1200" width="1200" height="1200">
  <title>emoji_u1f197</title>
  <path fill="#427687" d="M0 1100H100V1200H1000V1100H1100V200H1000V100H900V1000H0Z"/>
  <path fill="#8cafbf" d="M0 1100H1000V100H100V200H0Z"/>
  <path fill="#a0c8d6" d="M200 300H300V200H200ZM100 400H200V300H100ZM200 500H300V400H200Z"/>
  <path fill="#fafafa" d="M200 500H400V400H200ZM600 900H700V700H800V600H700V400H600ZM900 500H1000V400H900ZM100 800H200V500H100ZM400 800H500V500H400ZM800 600H900V500H800ZM800 800H900V700H800ZM200 900H400V800H200ZM900 900H1000V800H900Z"/>
</svg>
