<?xml version="1.0" encoding="UTF-8"?>
<svg xmlns="http://www.w3.org/2000/svg" viewBox="0 0 1200 1200" width="1200" height="1200">
  <title>emoji_u1f1ec_1f1ed</title>
  <path fill="#006b3f" d="M0 1000H1100V700H0Z"/>
  <path fill="#ce1126" d="M0 600H1100V300H0Z"/>
  <path fill="#a7af24" d="M0 800H500V600H0ZM600 800H1100V600H600Z"/>
  <path fill="#ec901b" d="M0 700H1100V500H0Z"/>
  <path fill="#fcd116" d="M0 700H400V800H500V600H0ZM600 800H700V700H1100V600H600Z"/>
  <path fill="#909c22" d="M400 800H700V600H400Z"/>
  <path fill="#5f731e" d="M400 700H500V800H600V700H700V600H400Z"/>
  <path fill="#c77118" d="M400 700H700V600H600V500H500V600H400Z"/>
  <path fill="#c5a411" d="M400 700H700V600H400Z"/>
  <path fill="#1b1702" d="M500 700H600V600H500Z"/>
</svg>
