<?xml version="1.0" encoding="UTF-8"?>
<svg xmlns="http://www.w3.org/2000/svg" viewBox="0 0 1200 1200" width="1200" height="1200">
  <title>emoji_u1f4ec</title>
  <path fill="#c87d5e" d="M400 1200H700V1000H400Z"/>
  <path fill="#874d36" d="M300 900H400V1100H700V900H800V800H300Z"/>
  <path fill="#f44336" d="M600 500H900V200H1000V100H700V200H600Z"/>
  <path fill="#1976d2" d="M0 900H1100V400H1000V300H900V200H800V400H700V200H200V300H100V400H0Z"/>
  <path fill="#ffffff" d="M900 200H1000V100H900ZM800 300H900V200H800ZM500 600H800V400H500Z"/>
  <path fill="#0d47a1" d="M600 600H700V700H900V200H800V400H700V500H600ZM100 500H200V600H400V400H100Z"/>
  <path fill="#4fc3f7" d="M300 300H400V200H300ZM400 400H500V300H400ZM100 500H400V400H100ZM500 900H600V600H700V500H600V400H500Z"/>
  <path fill="#e0e0e0" d="M600 600H800V400H700V500H600Z"/>
</svg>
