<?xml version="1.0" encoding="UTF-8"?>
<svg xmlns="http://www.w3.org/2000/svg" viewBox="0 0 1200 1200" width="1200" height="1200">
  <title>emoji_u1f1f7_1f1f8</title>
  <path fill="#c23b3d" d="M200 500H500V300H200Z"/>
  <path fill="#c4383d" d="M300 500H600V300H400V400H300Z"/>
  <path fill="#ffffff" d="M0 1000H1100V700H500V800H300V700H0Z"/>
  <path fill="#c6363c" d="M0 600H300V500H500V600H1100V300H500V400H300V300H0Z"/>
  <path fill="#4b3d62" d="M0 700H300V400H200V500H0ZM500 700H1100V500H600V400H500Z"/>
  <path fill="#5e81a4" d="M0 800H200V900H300V600H0ZM500 900H600V800H1100V600H500Z"/>
  <path fill="#0c4076" d="M0 700H200V800H300V500H200V600H0ZM500 800H600V700H1100V600H600V500H500Z"/>
  <path fill="#bd6d48" d="M300 600H600V400H300Z"/>
  <path fill="#be774d" d="M200 600H500V500H400V400H200Z"/>
  <path fill="#c44142" d="M200 600H400V500H300V400H200Z"/>
  <path fill="#c63c41" d="M400 600H600V400H500V500H400Z"/>
  <path fill="#e2b9ac" d="M200 900H500V700H200Z"/>
  <path fill="#e3b8aa" d="M300 800H400V900H600V700H300Z"/>
  <path fill="#faf2f0" d="M200 900H300V800H400V700H200Z"/>
  <path fill="#fdfafa" d="M400 800H500V900H600V700H400Z"/>
  <path fill="#6c819f" d="M200 800H400V500H200Z"/>
  <path fill="#744a66" d="M400 700H600V500H400Z"/>
  <path fill="#848aa3" d="M400 800H600V600H400Z"/>
  <path fill="#89576e" d="M200 600H300V700H400V500H200Z"/>
  <path fill="#9695a7" d="M200 800H400V600H300V700H200Z"/>
  <path fill="#c88462" d="M300 700H500V500H300Z"/>
  <path fill="#ce8a6b" d="M300 700H600V600H500V500H400V600H300Z"/>
  <path fill="#d2a19b" d="M300 800H500V700H600V600H300Z"/>
  <path fill="#d4a5a1" d="M300 800H400V700H500V600H300Z"/>
  <path fill="#4c698f" d="M400 700H600V600H400Z"/>
  <path fill="#dcbdbe" d="M300 700H500V600H300Z"/>
  <path fill="#debfbf" d="M300 700H400V600H300Z"/>
</svg>
