<?xml version="1.0" encoding="UTF-8"?>
<svg xmlns="http://www.w3.org/2000/svg" viewBox="0 0 1200 1200" width="1200" height="1200">
  <title>emoji_u1f68d</title>
  <path fill="#b9a074" d="M100 300H1000V200H900V100H200V200H100Z"/>
  <path fill="#4e433d" d="M100 1100H200V1200H400V1100H500V1000H100ZM600 1100H700V1200H900V1100H1000V1000H600Z"/>
  <path fill="#464c50" d="M0 500H100V600H200V300H100V400H0ZM900 900H1000V800H1100V700H1000V600H900Z"/>
  <path fill="#474c4f" d="M100 1100H1000V800H800V900H300V800H100Z"/>
  <path fill="#f4daad" d="M100 800H300V400H800V800H1000V200H100Z"/>
  <path fill="#ff6110" d="M100 900H200V1000H900V900H1000V700H100Z"/>
  <path fill="#ffb803" d="M100 800H200V900H400V800H700V900H900V800H1000V700H900V600H200V700H100Z"/>
  <path fill="#5e6367" d="M200 1000H900V800H700V900H400V800H200Z"/>
  <path fill="#f1edec" d="M200 900H400V800H200ZM700 900H900V800H700Z"/>
  <path fill="#96c8ed" d="M200 700H900V300H200Z"/>
  <path fill="#464c52" d="M200 700H900V600H200Z"/>
  <path fill="#afe3fb" d="M300 500H500V300H300ZM600 500H800V300H600Z"/>
</svg>
