<?xml version="1.0" encoding="UTF-8"?>
<svg xmlns="http://www.w3.org/2000/svg" viewBox="0 0 1200 1200" width="1200" height="1200">
  <title>emoji_u1f3f3</title>
  <path fill="#d7cdc7" d="M100 300H400V400H900V800H1100V100H800V200H500V100H200V200H100Z"/>
  <path fill="#c8c8c8" d="M0 1200H100V900H200V200H100V100H0Z"/>
  <path fill="#9a9a9a" d="M100 900H200V800H500V900H800V800H1100V700H1000V600H700V700H600V600H300V200H100Z"/>
  <path fill="#f1edec" d="M200 700H500V800H800V700H1000V200H800V300H500V200H200Z"/>
  <path fill="#fefefe" d="M300 600H400V400H500V300H300ZM500 700H700V500H800V300H700V400H600V600H500Z"/>
</svg>
