<?xml version="1.0" encoding="UTF-8"?>
<svg xmlns="http://www.w3.org/2000/svg" viewBox="0 0 1200 1200" width="1200" height="1200">
  <title>emoji_u1fae5</title>
  <path fill="#eb8f00" d="M300 200H400V100H300ZM500 200H600V100H500ZM700 200H800V100H700ZM100 300H200V200H100ZM900 300H1000V200H900ZM0 500H100V400H0ZM1000 500H1100V400H1000ZM0 700H100V600H0ZM1000 700H1100V600H1000ZM0 900H100V800H0ZM1000 900H1100V800H1000ZM100 1100H200V1000H100ZM900 1100H1000V1000H900ZM300 1200H400V1100H300ZM500 1200H600V1100H500ZM700 1200H800V1100H700Z"/>
  <path fill="#422b0d" d="M300 700H400V500H300ZM700 700H800V500H700ZM400 900H700V800H400Z"/>
</svg>
