<?xml version="1.0" encoding="UTF-8"?>
<svg xmlns="http://www.w3.org/2000/svg" viewBox="0 0 1200 1200" width="1200" height="1200">
  <title>emoji_u1f347</title>
  <path fill="#727f37" d="M300 200H400V100H300ZM500 200H800V100H500ZM200 300H300V200H200ZM300 500H600V300H500V200H400V400H300ZM800 300H900V200H800Z"/>
  <path fill="#dabcf3" d="M100 700H200V900H300V1100H400V1200H600V900H800V700H1000V500H900V400H700V300H500V400H200V500H100Z"/>
  <path fill="#a363b1" d="M100 700H200V800H300V1100H400V1200H600V1100H700V900H800V800H900V700H1000V500H900V600H800V500H900V400H700V300H600V400H500V500H400V400H300V500H200V600H100ZM600 800V700H700V800ZM400 1100V1000H500V1100Z"/>
  <path fill="#4c186e" d="M300 500H400V400H300ZM600 600H700V700H800V500H900V400H700V500H600ZM400 600H500V500H400ZM300 700H400V600H300ZM400 1000H600V1100H700V900H600V600H500V700H400V800H500V900H400ZM200 800H300V700H200ZM800 800H900V700H800ZM300 1100H400V1000H300Z"/>
</svg>
