<?xml version="1.0" encoding="UTF-8"?>
<svg xmlns="http://www.w3.org/2000/svg" viewBox="0 0 1200 1200" width="1200" height="1200">
  <title>emoji_u26f9_1f3fd</title>
  <path fill="#4568ad" d="M200 1200H400V1000H300V1100H200ZM500 1200H700V1100H600V1000H500Z"/>
  <path fill="#7c7c7c" d="M300 1100H400V900H500V1100H600V700H300Z"/>
  <path fill="#ab8064" d="M300 400H400V600H500V800H600V700H700V600H600V400H700V200H300ZM700 600H900V500H700ZM200 700H300V800H400V600H200ZM100 900H200V700H100ZM300 1100H400V1000H300ZM500 1100H600V1000H500Z"/>
  <path fill="#dd5e1a" d="M700 1000H800V1100H1000V1000H1100V800H1000V700H800V800H700Z"/>
  <path fill="#543930" d="M300 400H400V300H600V400H700V200H600V100H400V200H300Z"/>
  <path fill="#f07522" d="M300 800H600V500H400V600H300Z"/>
  <path fill="#fea21f" d="M900 900H1000V800H900ZM800 1000H900V900H800Z"/>
</svg>
