<?xml version="1.0" encoding="UTF-8"?>
<svg xmlns="http://www.w3.org/2000/svg" viewBox="0 0 1200 1200" width="1200" height="1200">
  <title>emoji_u1f507</title>
  <path fill="#f44336" d="M100 800H200V1000H300V1100H500V1200H600V900H700V1000H800V1100H1000V1000H1100V800H1200V700H900V600H1200V500H1100V300H1000V200H800V100H500V200H300V300H200V500H100Z"/>
  <path fill="#cc3333" d="M400 400H500V500H600V600H700V700H800V800H900V900H1000V800H1200V500H1000V600H900V500H800V400H700V300H600V200H500V300H400ZM300 500H400V400H300ZM400 600H500V500H400ZM500 700H600V600H500ZM600 800H700V700H600ZM500 1200H800V1100H1000V1000H900V900H800V800H700V1000H500ZM1000 1000H1100V900H1000Z"/>
  <path fill="#231f20" d="M500 400H700V500H800V600H1100V500H1000V300H800V200H500ZM200 800H300V900H400V600H500V500H400V400H300V500H200Z"/>
  <path fill="#414042" d="M500 400H600V500H700V600H800V700H900V800H1100V500H900V400H800V300H500ZM300 1000H500V1100H800V1000H900V900H800V800H600V600H500V500H300Z"/>
  <path fill="#fafafa" d="M600 500H700V600H800V400H600ZM400 800H500V900H600V1000H800V800H700V700H600V600H400Z"/>
</svg>
