<?xml version="1.0" encoding="UTF-8"?>
<svg xmlns="http://www.w3.org/2000/svg" viewBox="0 0 1200 1200" width="1200" height="1200">
  <title>emoji_u1f6a3_1f3fc</title>
  <path fill="#85e4ff" d="M300 1000H400V1100H600V1000H500V900H300ZM100 1100H200V1000H100ZM800 1100H1000V1000H800ZM200 1200H400V1100H200ZM600 1200H800V1100H600ZM1000 1200H1100V1100H1000Z"/>
  <path fill="#e0bb95" d="M200 400H300V500H400V400H500V500H600V400H700V200H600V300H400V100H200Z"/>
  <path fill="#ab872f" d="M200 400H400V300H300V200H400V100H200Z"/>
  <path fill="#fe7043" d="M100 600H400V300H200V500H100Z"/>
  <path fill="#e2c5b0" d="M0 700H1100V400H1000V500H600V400H500V500H400V400H300V500H100V400H0Z"/>
  <path fill="#cc4337" d="M0 800H100V900H300V1000H500V900H1000V800H1100V600H0Z"/>
  <path fill="#f2a259" d="M600 400H700V300H600ZM300 1000H500V700H700V600H600V400H500V600H300V700H400V800H300Z"/>
  <path fill="#ee594a" d="M0 700H500V600H0ZM600 700H1100V600H600Z"/>
  <path fill="#ff8e00" d="M300 500H400V300H300Z"/>
</svg>
