<?xml version="1.0" encoding="UTF-8"?>
<svg xmlns="http://www.w3.org/2000/svg" viewBox="0 0 1200 1200" width="1200" height="1200">
  <title>emoji_u1f1f8_1f1ec</title>
  <path fill="#ee3443" d="M200 500H500V300H200Z"/>
  <path fill="#f04a57" d="M100 500H400V400H300V300H100Z"/>
  <path fill="#f15965" d="M0 500H300V400H200V300H0Z"/>
  <path fill="#ed2939" d="M0 700H200V400H100V300H0ZM300 700H1100V300H400V400H300Z"/>
  <path fill="#ffffff" d="M0 1000H1100V600H0Z"/>
  <path fill="#f6949c" d="M0 700H1100V600H400V500H100V600H0Z"/>
  <path fill="#ed2b3b" d="M300 600H400V500H500V400H300Z"/>
  <path fill="#ef4351" d="M100 600H400V400H100Z"/>
  <path fill="#f04957" d="M200 600H400V400H300V500H200Z"/>
  <path fill="#f799a0" d="M100 600H200V700H300V500H200V400H100Z"/>
  <path fill="#f8a7ad" d="M100 500H200V400H100ZM200 600H300V500H200Z"/>
  <path fill="#ef4150" d="M200 700H300V600H400V500H200Z"/>
  <path fill="#f15763" d="M200 700H300V500H200Z"/>
  <path fill="#f79da4" d="M200 700H300V600H200Z"/>
</svg>
