<?xml version="1.0" encoding="UTF-8"?>
<svg xmlns="http://www.w3.org/2000/svg" viewBox="0 0 1200 1200" width="1200" height="1200">
  <title>emoji_u1f98b</title>
  <path fill="#676f72" d="M0 1200H400V1100H500V1200H600V1100H700V1200H1100V900H1000V800H1100V400H800V500H700V200H800V100H600V300H500V100H300V200H400V500H300V400H0V800H100V900H0Z"/>
  <path fill="#fcfdfa" d="M0 500H100V400H0ZM1000 500H1100V400H1000ZM100 800H300V700H400V600H300V500H100ZM700 700H800V800H1000V500H800V600H700ZM100 1100H400V900H100ZM700 1100H1000V900H700Z"/>
  <path fill="#41484a" d="M100 700H200V800H500V900H600V800H900V700H1000V500H900V600H700V400H600V300H500V400H400V600H200V500H100ZM100 1100H200V1000H300V1100H800V1000H900V1100H1000V900H600V1000H500V900H100Z"/>
  <path fill="#ff8b03" d="M100 600H200V500H100ZM900 600H1000V500H900ZM200 700H300V800H800V700H900V600H200ZM300 1000H400V1100H500V900H300ZM600 1100H700V1000H800V900H600ZM100 1100H200V1000H100ZM900 1100H1000V1000H900Z"/>
  <path fill="#303031" d="M400 700H500V800H600V700H700V600H600V500H500V600H400Z"/>
</svg>
