<?xml version="1.0" encoding="UTF-8"?>
<svg xmlns="http://www.w3.org/2000/svg" viewBox="0 0 1200 1200" width="1200" height="1200">
  <title>emoji_u1f9b8_200d_2640</title>
  <path fill="#543930" d="M100 900H400V500H700V900H1000V800H900V200H800V100H300V200H200V800H100Z"/>
  <path fill="#c83b43" d="M300 1200H800V900H300Z"/>
  <path fill="#9b342b" d="M0 1200H400V800H100V900H0ZM700 1200H1100V900H1000V800H700Z"/>
  <path fill="#a52714" d="M0 1200H100V1000H200V900H300V1100H400V1000H500V700H300V800H100V900H0ZM600 1000H700V1100H800V900H900V1000H1000V1200H1100V900H1000V800H800V700H600Z"/>
  <path fill="#42a5f5" d="M400 1000H700V800H400ZM300 1200H500V1100H400V1000H300ZM600 1200H800V1000H700V1100H600Z"/>
  <path fill="#ed4132" d="M300 800H400V900H700V800H800V600H600V700H500V600H300ZM100 900H300V800H100ZM800 900H1000V800H800Z"/>
  <path fill="#ffca28" d="M300 700H400V800H700V700H800V400H600V300H400V400H300Z"/>
  <path fill="#404040" d="M400 600H500V400H400ZM600 600H700V400H600Z"/>
  <path fill="#e59600" d="M400 800H500V900H600V800H700V700H400Z"/>
</svg>
