<?xml version="1.0" encoding="UTF-8"?>
<svg xmlns="http://www.w3.org/2000/svg" viewBox="0 0 1200 1200" width="1200" height="1200">
  <title>emoji_u1f5ff</title>
  <path fill="#d4cccd" d="M300 400H600V300H800V100H500V200H400V300H300ZM100 800H200V900H300V800H400V500H200V600H100Z"/>
  <path fill="#615555" d="M100 1200H1000V200H900V100H800V400H400V700H200V900H100Z"/>
  <path fill="#bfb3b3" d="M400 400H900V100H700V200H500V300H400ZM100 1200H300V1100H200V1000H600V900H800V500H600V800H500V500H200V600H300V700H200V900H100ZM300 900V800H400V900ZM100 700H200V600H100Z"/>
  <path fill="#91837f" d="M300 500H900V100H800V300H300Z"/>
  <path fill="#4a4240" d="M200 600H400V700H300V800H400V900H500V1000H600V800H500V500H600V700H700V600H800V500H900V400H300V500H200ZM200 900H300V800H200Z"/>
  <path fill="#948585" d="M300 800H500V600H400V700H300ZM100 1200H700V1000H800V800H700V600H600V800H500V1000H600V1100H100Z"/>
</svg>
