<?xml version="1.0" encoding="UTF-8"?>
<svg xmlns="http://www.w3.org/2000/svg" viewBox="0 0 1200 1200" width="1200" height="1200">
  <title>emoji_u1f469_1f3fe_200d_1f3eb</title>
  <path fill="#473530" d="M0 700H400V800H500V500H200V300H800V500H1000V100H0Z"/>
  <path fill="#5813f0" d="M400 1200H700V1000H600V900H400ZM800 1200H1100V900H900V1000H800Z"/>
  <path fill="#97dcfb" d="M500 1100H600V1200H900V1100H1000V1000H500Z"/>
  <path fill="#3c2c23" d="M300 600H400V1000H500V1100H600V800H700V700H800V800H900V1100H1000V1000H1100V500H1000V400H900V300H400V400H300Z"/>
  <path fill="#66c0e8" d="M500 1100H1000V900H500Z"/>
  <path fill="#7a42f8" d="M500 1100H600V1000H700V900H500ZM800 1000H900V1100H1000V900H800Z"/>
  <path fill="#875334" d="M600 1000H700V1100H800V1000H900V900H600Z"/>
  <path fill="#149184" d="M100 600H400V500H500V400H900V200H100Z"/>
  <path fill="#ffffff" d="M100 400H200V600H300V200H200V300H100ZM400 400H700V300H600V200H500V300H400ZM800 400H900V300H800Z"/>
  <path fill="#a56c43" d="M500 1000H1000V700H900V600H600V700H500Z"/>
  <path fill="#42312c" d="M600 900H700V700H600ZM800 900H900V700H800Z"/>
</svg>
