<?xml version="1.0" encoding="UTF-8"?>
<svg xmlns="http://www.w3.org/2000/svg" viewBox="0 0 1200 1200" width="1200" height="1200">
  <title>emoji_u1f959</title>
  <path fill="#f4cb95" d="M0 1000H100V1100H200V1200H800V1100H900V1000H1000V900H1100V300H1000V200H900V100H600V200H500V300H800V400H900V800H800V900H700V1000H300V900H200V600H0Z"/>
  <path fill="#6d4c42" d="M400 500H700V200H500V100H400Z"/>
  <path fill="#d45b89" d="M0 700H100V800H200V600H400V500H500V100H400V200H300V100H200V300H0Z"/>
  <path fill="#81c13e" d="M0 500H100V400H300V100H200V200H100V300H0ZM100 900H400V600H500V500H600V400H500V200H400V400H300V500H100Z"/>
  <path fill="#f6d09f" d="M100 1000H200V1100H800V1000H900V900H1000V300H900V200H800V600H700V800H100Z"/>
  <path fill="#fefef6" d="M100 700H200V600H300V700H400V500H100Z"/>
  <path fill="#9c6c3b" d="M500 500H800V200H600V400H500Z"/>
  <path fill="#feebcc" d="M100 900H500V800H600V700H700V600H800V500H900V200H700V400H400V500H300V800H100Z"/>
  <path fill="#f7d5a8" d="M300 900H400V1000H600V900H800V700H900V200H800V400H700V500H600V600H500V700H400V800H300ZM500 500H600V400H500ZM400 600H500V500H400ZM300 700H400V600H300Z"/>
  <path fill="#f0a25b" d="M700 700H800V600H900V400H800V500H700ZM600 800H700V700H600ZM500 900H600V800H500ZM700 900H800V800H700ZM400 1000H500V900H400Z"/>
  <path fill="#ff2422" d="M300 700H400V600H500V500H600V400H400V500H300Z"/>
  <path fill="#f7d8ad" d="M800 500H900V400H800ZM600 800H700V700H800V500H700V600H600ZM500 900H600V800H500Z"/>
  <path fill="#db0d28" d="M400 600H500V500H400Z"/>
</svg>
