<?xml version="1.0" encoding="UTF-8"?>
<svg xmlns="http://www.w3.org/2000/svg" viewBox="0 0 1200 1200" width="1200" height="1200">
  <title>emoji_u1faf2_1f3fd</title>
  <path fill="#9a6648" d="M0 900H100V1000H200V1100H400V1000H700V500H800V600H900V900H1100V500H1000V400H900V300H700V200H500V100H300V300H400V400H100V500H0Z"/>
  <path fill="#62392b" d="M300 300H400V400H600V300H500V200H300ZM0 900H300V1000H200V1100H900V1000H1000V900H1100V800H1000V700H900V800H800V900H500V500H100V600H0V700H200V800H0Z"/>
  <path fill="#ba8d68" d="M400 300H500V200H400ZM100 600H400V700H200V800H400V900H300V1000H900V900H1000V500H900V400H700V300H500V400H600V500H100ZM500 700V600H600V700ZM500 900V800H600V900Z"/>
</svg>
