<?xml version="1.0" encoding="UTF-8"?>
<svg xmlns="http://www.w3.org/2000/svg" viewBox="0 0 1200 1200" width="1200" height="1200">
  <title>emoji_u1faf5</title>
  <path fill="#faa700" d="M0 900H100V1000H200V1100H300V1200H500V1100H700V1200H900V1100H1000V1000H1100V600H1000V500H900V400H800V200H700V100H500V200H400V300H300V400H200V500H100V700H0Z"/>
  <path fill="#b55e19" d="M200 1000H300V900H400V1000H500V800H600V700H800V600H700V400H800V300H600V400H400V500H300V700H200ZM800 600H900V500H800ZM800 900H900V800H1000V1000H1100V600H900V700H800ZM600 900H700V800H600ZM700 1000H800V900H700ZM500 1100H700V1000H500ZM900 1100H1000V1000H900ZM300 1200H500V1100H300ZM700 1200H800V1100H700Z"/>
  <path fill="#ffca28" d="M500 300H600V200H500ZM600 400H700V300H600ZM100 900H200V1000H300V800H400V900H500V700H700V600H600V500H500V400H300V500H200V700H100ZM400 700V600H500V700ZM800 600H900V500H800ZM900 800H1000V600H900Z"/>
</svg>
