<?xml version="1.0" encoding="UTF-8"?>
<svg xmlns="http://www.w3.org/2000/svg" viewBox="0 0 1200 1200" width="1200" height="1200">
  <title>emoji_u23ec</title>
  <path fill="#f77e00" d="M0 1100H100V1200H1000V1100H1100V200H1000V100H900V1000H0Z"/>
  <path fill="#ff9800" d="M0 1100H1000V100H100V200H0Z"/>
  <path fill="#ffb43d" d="M200 300H300V200H200ZM100 400H200V300H100ZM300 400H400V300H300Z"/>
  <path fill="#fafafa" d="M300 900H400V1000H500V1100H600V1000H700V900H800V700H600V600H700V500H800V300H300V500H400V600H500V700H300Z"/>
</svg>
