<?xml version="1.0" encoding="UTF-8"?>
<svg xmlns="http://www.w3.org/2000/svg" viewBox="0 0 1200 1200" width="1200" height="1200">
  <title>emoji_u1f9f0</title>
  <path fill="#424242" d="M200 400H500V300H400V200H700V300H600V400H900V300H800V100H300V300H200Z"/>
  <path fill="#616161" d="M300 200H400V100H300Z"/>
  <path fill="#c62828" d="M0 1200H1100V500H0Z"/>
  <path fill="#ff7555" d="M100 500H1000V400H900V300H200V400H100Z"/>
  <path fill="#a80707" d="M0 900H300V1100H400V900H700V1100H800V900H1100V800H800V700H700V800H400V700H300V800H0Z"/>
  <path fill="#f44336" d="M0 600H1100V500H1000V400H100V500H0Z"/>
  <path fill="#82aec0" d="M300 1000H400V700H300ZM700 1000H800V700H700Z"/>
  <path fill="#332424" d="M300 900H400V800H300ZM700 900H800V800H700Z"/>
</svg>
