<?xml version="1.0" encoding="UTF-8"?>
<svg xmlns="http://www.w3.org/2000/svg" viewBox="0 0 1200 1200" width="1200" height="1200">
  <title>emoji_u1f42d</title>
  <path fill="#5d6265" d="M0 900H100V1000H400V700H300V600H200V500H100V600H0V700H100V800H0ZM700 1000H1000V900H1100V800H1000V700H1100V600H1000V500H900V600H800V700H700ZM0 1100H100V1000H0ZM1000 1100H1100V1000H1000Z"/>
  <path fill="#b0b0b0" d="M0 500H100V700H200V800H300V900H200V1000H300V1100H800V1000H900V900H800V800H900V700H1000V500H1100V200H1000V100H700V200H600V400H500V200H400V100H100V200H0Z"/>
  <path fill="#ffffff" d="M400 900H500V1000H600V900H700V800H400Z"/>
  <path fill="#ffa8a7" d="M100 400H200V500H300V400H400V300H300V200H100ZM700 400H800V500H900V400H1000V200H800V300H700ZM300 600H400V500H300ZM700 600H800V500H700Z"/>
  <path fill="#2f2f2f" d="M300 700H400V500H300ZM700 700H800V500H700ZM400 900H700V800H600V700H500V800H400Z"/>
</svg>
