<?xml version="1.0" encoding="UTF-8"?>
<svg xmlns="http://www.w3.org/2000/svg" viewBox="0 0 1200 1200" width="1200" height="1200">
  <title>emoji_u1f956</title>
  <path fill="#e38413" d="M0 1100H100V1200H400V1100H500V1000H600V900H700V800H800V700H900V600H1000V500H1100V300H900V400H800V500H700V600H600V700H500V800H400V900H300V1000H0Z"/>
  <path fill="#db8417" d="M0 1000H200V800H400V600H600V400H800V300H1000V100H700V200H600V300H500V400H400V500H300V600H200V700H100V800H0Z"/>
  <path fill="#f6b23b" d="M0 1100H400V1000H500V900H600V800H700V700H800V600H900V500H1000V400H1100V200H1000V100H900V200H800V400H700V500H500V600H400V700H300V800H100V900H0Z"/>
  <path fill="#ce701b" d="M100 900H400V800H500V700H600V600H700V500H900V200H700V300H500V500H300V700H100Z"/>
  <path fill="#e79826" d="M600 600H800V500H900V200H700V300H800V400H600ZM100 900H200V800H100ZM0 1000H100V900H0Z"/>
  <path fill="#fdce8c" d="M500 500H600V600H700V500H800V400H500ZM300 700H400V800H500V700H600V600H300ZM100 900H200V1000H300V900H400V800H100Z"/>
  <path fill="#f6c98a" d="M700 300H800V200H700ZM600 600H700V500H600ZM400 800H500V700H400ZM200 1000H300V900H200Z"/>
</svg>
