<?xml version="1.0" encoding="UTF-8"?>
<svg xmlns="http://www.w3.org/2000/svg" viewBox="0 0 1200 1200" width="1200" height="1200">
  <title>emoji_u1f46a</title>
  <path fill="#bdbdbd" d="M100 1200H1000V1100H1100V200H1000V100H900V1000H100Z"/>
  <path fill="#e0e0e0" d="M0 1000H100V1100H1000V800H900V700H800V600H1000V100H100V200H0Z"/>
  <path fill="#ffffff" d="M100 400H300V200H200V300H100Z"/>
  <path fill="#000000" d="M200 400H400V200H200ZM700 400H900V200H700ZM100 900H400V800H500V500H100ZM600 700H700V800H800V900H1000V500H600ZM400 1100H800V1000H700V800H500V1000H400Z"/>
</svg>
