<?xml version="1.0" encoding="UTF-8"?>
<svg xmlns="http://www.w3.org/2000/svg" viewBox="0 0 1200 1200" width="1200" height="1200">
  <title>emoji_u270d_1f3ff</title>
  <path fill="#58382b" d="M0 800H100V1100H300V1200H500V1100H1000V1000H1100V700H900V800H800V700H300V900H200V700H300V600H400V500H600V300H300V400H200V500H100V600H0ZM400 1100V1000H500V1100ZM900 600H1100V400H900Z"/>
  <path fill="#78909c" d="M0 1100H200V1000H500V900H400V800H700V700H800V600H900V500H1000V400H900V300H1000V200H900V100H800V200H700V300H500V400H400V500H300V600H100V900H0Z"/>
  <path fill="#82aec0" d="M700 300H800V200H700ZM200 700H400V600H500V500H600V400H700V300H500V400H300V500H200ZM400 800H500V700H400Z"/>
  <path fill="#000000" d="M500 400H600V300H500ZM100 800H200V700H300V600H400V500H500V400H300V500H200V600H100ZM400 800H700V900H1000V800H900V600H1100V500H1000V400H800V600H600V700H400ZM200 1000H700V900H200ZM1000 1000H1100V900H1000ZM700 1100H1000V1000H700Z"/>
  <path fill="#70534a" d="M300 500H500V400H300ZM600 700H800V800H700V900H1000V800H1100V500H900V400H800V500H700V600H600ZM200 600H300V500H200ZM100 700H200V600H100Z"/>
</svg>
