<?xml version="1.0" encoding="UTF-8"?>
<svg xmlns="http://www.w3.org/2000/svg" viewBox="0 0 1200 1200" width="1200" height="1200">
  <title>emoji_u1f1ea_1f1f9</title>
  <path fill="#078930" d="M0 600H500V500H600V600H1100V300H0Z"/>
  <path fill="#da121a" d="M0 1000H1100V700H600V800H500V700H0Z"/>
  <path fill="#a9c116" d="M0 700H400V500H0ZM700 700H1100V500H700Z"/>
  <path fill="#f1980f" d="M0 800H400V600H0ZM700 800H1100V600H700Z"/>
  <path fill="#fcdd09" d="M0 700H300V800H400V500H300V600H0ZM700 800H800V700H1100V600H800V500H700Z"/>
  <path fill="#0a6e63" d="M300 600H800V500H700V400H400V500H300Z"/>
  <path fill="#882756" d="M300 800H400V900H700V800H800V700H300Z"/>
  <path fill="#155991" d="M400 600H700V500H600V400H500V500H400Z"/>
  <path fill="#3d408e" d="M400 800H500V900H600V800H700V700H400Z"/>
  <path fill="#345d95" d="M300 800H800V600H300Z"/>
  <path fill="#8aac2d" d="M300 700H500V500H300ZM600 700H800V500H600Z"/>
  <path fill="#d08526" d="M300 800H400V700H500V600H300ZM600 700H700V800H800V600H600Z"/>
  <path fill="#27579d" d="M500 700H800V600H700V500H500Z"/>
  <path fill="#28589c" d="M300 700H600V500H400V600H300Z"/>
  <path fill="#4b6d85" d="M400 700H500V800H600V700H700V600H400Z"/>
  <path fill="#5a777a" d="M400 700H700V600H600V500H500V600H400Z"/>
  <path fill="#b1ae3d" d="M300 700H500V600H300ZM600 700H800V600H600Z"/>
  <path fill="#476a88" d="M400 700H600V600H400Z"/>
  <path fill="#486b87" d="M500 700H700V600H500Z"/>
  <path fill="#647d73" d="M500 700H600V600H500Z"/>
</svg>
