<?xml version="1.0" encoding="UTF-8"?>
<svg xmlns="http://www.w3.org/2000/svg" viewBox="0 0 1200 1200" width="1200" height="1200">
  <title>emoji_u1f967</title>
  <path fill="#f3f3f3" d="M500 200H600V100H500ZM600 300H700V200H600ZM500 400H600V300H500Z"/>
  <path fill="#c8c8c8" d="M100 1100H200V1200H900V1100H1000V900H700V1000H400V900H100Z"/>
  <path fill="#fac470" d="M300 700H400V800H700V700H800V600H700V500H400V600H300Z"/>
  <path fill="#e0e0e0" d="M0 1000H100V1100H200V1000H300V800H0ZM800 1000H900V1100H1000V1000H1100V800H800Z"/>
  <path fill="#878787" d="M0 1000H100V900H200V1000H300V1100H800V1000H900V900H1000V1000H1100V800H1000V700H800V800H700V900H400V800H300V700H100V800H0Z"/>
  <path fill="#f4b353" d="M100 800H300V900H800V800H1000V700H900V600H600V700H500V600H200V700H100Z"/>
  <path fill="#e08013" d="M100 800H200V900H300V1000H800V900H900V800H1000V700H700V800H400V700H100Z"/>
  <path fill="#ce701d" d="M400 700H500V600H400ZM600 700H700V600H600ZM200 800H300V900H500V800H400V700H200ZM600 900H800V800H900V700H700V800H600Z"/>
  <path fill="#ed9c2c" d="M200 800H300V700H200ZM800 800H900V700H800ZM300 900H500V800H300ZM600 900H800V800H600Z"/>
</svg>
