<?xml version="1.0" encoding="UTF-8"?>
<svg xmlns="http://www.w3.org/2000/svg" viewBox="0 0 1200 1200" width="1200" height="1200">
  <title>emoji_u1f4e9</title>
  <path fill="#6fbff0" d="M0 1200H1100V500H700V400H400V500H0Z"/>
  <path fill="#f44336" d="M300 400H400V500H500V600H400V700H700V600H600V500H700V400H800V300H700V100H400V300H300Z"/>
  <path fill="#ffffff" d="M100 900H200V800H300V700H200V600H100ZM300 700H400V800H500V900H600V800H700V700H800V600H300ZM800 800H900V900H1000V600H900V700H800ZM100 1100H1000V1000H900V900H800V800H700V900H600V1000H500V900H400V800H300V900H200V1000H100Z"/>
</svg>
