<?xml version="1.0" encoding="UTF-8"?>
<svg xmlns="http://www.w3.org/2000/svg" viewBox="0 0 1200 1200" width="1200" height="1200">
  <title>emoji_u1f3ca_1f3fe_200d_2642</title>
  <path fill="#0fcaff" d="M0 1100H200V1200H400V1100H600V1200H800V1100H1000V1000H1100V900H1000V800H0ZM1000 1200H1100V1100H1000Z"/>
  <path fill="#a56c43" d="M300 300H500V200H300ZM100 400H300V300H100ZM200 900H600V1000H800V900H1000V700H900V600H800V500H700V400H600V300H500V500H600V600H400V500H200Z"/>
  <path fill="#a0a0a0" d="M0 900H200V1000H400V800H300V700H400V600H300V500H200V600H100V800H0Z"/>
  <path fill="#87ddf3" d="M800 300H900V200H800ZM1000 500H1100V400H1000ZM200 1000H400V900H600V800H500V700H400V800H300V900H200ZM0 900H200V800H0ZM800 900H1000V800H800ZM600 1000H800V900H600ZM1000 1000H1100V900H1000Z"/>
  <path fill="#473530" d="M300 700H400V600H300ZM400 800H500V700H400ZM300 900H400V800H300Z"/>
  <path fill="#afd7e9" d="M300 700H400V600H300ZM300 900H400V800H300Z"/>
</svg>
