<?xml version="1.0" encoding="UTF-8"?>
<svg xmlns="http://www.w3.org/2000/svg" viewBox="0 0 1200 1200" width="1200" height="1200">
  <title>emoji_u1f3bd</title>
  <path fill="#01579b" d="M300 300H400V400H700V300H800V100H600V200H500V100H300Z"/>
  <path fill="#039be5" d="M100 700H300V500H400V600H700V500H800V600H1000V200H900V100H700V200H600V300H500V200H400V100H200V200H100Z"/>
  <path fill="#56bfe6" d="M0 1200H1100V1000H1000V500H900V200H800V300H700V400H600V500H500V400H400V300H300V200H200V600H100V1000H0ZM400 300H500V200H400ZM600 300H700V200H600ZM500 400H600V300H500Z"/>
  <path fill="#ffca28" d="M100 1000H300V900H500V800H700V700H900V600H1000V500H900V400H800V500H600V600H400V700H200V800H100ZM0 1100H100V1000H0Z"/>
  <path fill="#2167a1" d="M400 300H500V200H400ZM600 300H700V200H600ZM500 400H600V300H500Z"/>
</svg>
