<?xml version="1.0" encoding="UTF-8"?>
<svg xmlns="http://www.w3.org/2000/svg" viewBox="0 0 1200 1200" width="1200" height="1200">
  <title>emoji_u1f408_200d_2b1b</title>
  <path fill="#b0b1b2" d="M0 700H300V400H200V300H100V400H0V500H100V600H0ZM600 700H900V600H800V500H900V400H800V300H700V400H600Z"/>
  <path fill="#4d4d4d" d="M300 1200H400V1000H500V900H300ZM600 1000H700V1200H900V900H600Z"/>
  <path fill="#5d6265" d="M100 700H200V800H300V1000H500V1200H600V1000H800V1200H900V1000H1000V900H900V800H700V700H800V600H700V500H800V200H700V100H600V200H500V300H400V200H300V100H200V200H100V500H200V600H100ZM1000 900H1100V700H1000Z"/>
  <path fill="#ffab93" d="M200 300H300V200H200ZM600 300H700V200H600Z"/>
  <path fill="#010000" d="M200 600H300V400H200ZM600 600H700V400H600Z"/>
  <path fill="#2f2f2f" d="M400 700H500V600H400Z"/>
</svg>
