<?xml version="1.0" encoding="UTF-8"?>
<svg xmlns="http://www.w3.org/2000/svg" viewBox="0 0 1200 1200" width="1200" height="1200">
  <title>emoji_u1f970</title>
  <path fill="#eb8f00" d="M0 900H100V1000H200V1100H1100V900H1000V300H900V100H800V200H200V300H100V700H0Z"/>
  <path fill="#c62828" d="M800 500H900V400H1000V300H1100V100H1000V200H800ZM0 900H100V1000H400V700H200V800H0ZM800 1100H900V1200H1000V1100H1100V900H1000V1000H800Z"/>
  <path fill="#ff847a" d="M800 300H1000V200H900V100H800ZM0 900H200V800H100V700H0ZM700 1000H800V1100H1000V1000H900V800H700Z"/>
  <path fill="#f44336" d="M1000 200H1100V100H1000ZM700 400H900V300H1000V200H800V300H700ZM200 800H300V900H400V600H200ZM0 900H200V800H0ZM200 1000H300V900H200ZM700 1000H800V900H700ZM1000 1000H1100V900H1000ZM800 1100H1000V1000H800Z"/>
  <path fill="#fde030" d="M200 1000H800V900H900V300H200V700H300V900H200Z"/>
  <path fill="#422b0d" d="M300 500H400V400H300ZM700 500H800V400H700ZM200 600H300V500H200ZM400 600H500V500H400ZM600 600H700V500H600ZM800 600H900V500H800ZM300 800H400V700H300ZM700 800H800V700H700ZM400 900H700V800H400Z"/>
</svg>
