<?xml version="1.0" encoding="UTF-8"?>
<svg xmlns="http://www.w3.org/2000/svg" viewBox="0 0 1200 1200" width="1200" height="1200">
  <title>emoji_u1f1ec_1f1ec</title>
  <path fill="#f59da8" d="M300 500H800V300H300ZM300 1000H800V800H300Z"/>
  <path fill="#ea2a2a" d="M400 500H700V400H600V300H500V400H400ZM400 900H500V1000H600V900H700V800H400Z"/>
  <path fill="#ffffff" d="M0 600H500V400H400V300H0ZM600 600H1100V300H700V400H600ZM0 1000H400V900H500V700H0ZM600 900H700V1000H1100V700H600Z"/>
  <path fill="#e8112d" d="M0 800H300V500H0ZM800 800H1100V500H800Z"/>
  <path fill="#f6a7b1" d="M0 800H400V900H500V400H400V500H0V600H200V700H0ZM600 900H700V800H1100V700H900V600H1100V500H700V400H600Z"/>
  <path fill="#f59ca8" d="M400 600H700V400H400ZM400 900H700V700H400Z"/>
  <path fill="#f3931e" d="M400 600H700V500H600V400H500V500H400ZM400 800H500V900H600V800H700V700H400Z"/>
  <path fill="#f0697b" d="M300 700H400V800H700V700H800V600H700V500H400V600H300Z"/>
  <path fill="#f7a8b1" d="M200 800H300V700H400V600H300V500H200ZM700 700H800V800H900V500H800V600H700Z"/>
  <path fill="#ec3e28" d="M200 700H400V600H200ZM700 700H900V600H700Z"/>
  <path fill="#f28d1f" d="M400 700H500V800H600V700H700V600H600V500H500V600H400Z"/>
  <path fill="#f28720" d="M300 700H800V600H300Z"/>
  <path fill="#f6bb1a" d="M500 700H600V600H500Z"/>
</svg>
