<?xml version="1.0" encoding="UTF-8"?>
<svg xmlns="http://www.w3.org/2000/svg" viewBox="0 0 1200 1200" width="1200" height="1200">
  <title>emoji_u1f1f5_1f1ed</title>
  <path fill="#fffdf3" d="M0 600H200V300H0ZM0 1000H200V700H0Z"/>
  <path fill="#fffef8" d="M0 800H100V900H200V400H100V500H0Z"/>
  <path fill="#a1b2cb" d="M0 400H100V500H200V300H0Z"/>
  <path fill="#eda49b" d="M0 1000H200V800H100V900H0Z"/>
  <path fill="#0c41ac" d="M100 500H300V300H100Z"/>
  <path fill="#d01c30" d="M100 1000H300V800H100Z"/>
  <path fill="#fffae6" d="M0 700H100V800H200V500H100V600H0Z"/>
  <path fill="#0038a8" d="M100 500H200V600H400V700H1100V300H200V400H100Z"/>
  <path fill="#ce1126" d="M100 900H200V1000H1100V600H400V700H200V800H100Z"/>
  <path fill="#672567" d="M400 800H500V700H1100V600H500V500H400Z"/>
  <path fill="#feefaf" d="M100 900H300V400H100Z"/>
  <path fill="#315eb9" d="M100 500H200V600H400V500H300V400H100Z"/>
  <path fill="#d73e4f" d="M100 900H300V800H400V700H200V800H100Z"/>
  <path fill="#d9e1f2" d="M100 500H200V400H100ZM200 600H300V500H200Z"/>
  <path fill="#f8dbde" d="M200 800H300V700H200ZM100 900H200V800H100Z"/>
  <path fill="#fdd93c" d="M100 700H200V800H300V500H200V600H100Z"/>
  <path fill="#0138a8" d="M300 700H500V500H300Z"/>
  <path fill="#6d8dcd" d="M200 700H500V600H400V500H200Z"/>
  <path fill="#ce1226" d="M300 800H500V600H300Z"/>
  <path fill="#e37682" d="M200 800H400V700H500V600H200Z"/>
  <path fill="#f7f3dc" d="M200 700H400V600H300V500H200Z"/>
  <path fill="#fdf2d8" d="M200 800H300V700H400V600H200Z"/>
  <path fill="#feeea9" d="M200 700H400V600H200Z"/>
  <path fill="#a780a1" d="M300 700H500V600H300Z"/>
  <path fill="#fffae5" d="M300 700H400V600H300Z"/>
</svg>
