<?xml version="1.0" encoding="UTF-8"?>
<svg xmlns="http://www.w3.org/2000/svg" viewBox="0 0 1200 1200" width="1200" height="1200">
  <title>emoji_u1f44b_1f3fd</title>
  <path fill="#b0bec5" d="M900 200H1000V100H900ZM1000 300H1100V200H1000ZM0 1100H100V1000H0ZM100 1200H200V1100H100Z"/>
  <path fill="#9a6648" d="M500 700H600V900H900V600H800V400H900V300H800V200H700V300H600V400H500ZM0 800H100V900H200V1000H300V1100H400V1200H600V1000H500V900H400V800H300V700H200V600H0Z"/>
  <path fill="#62392b" d="M0 700H100V800H200V900H400V800H700V700H800V900H700V1000H400V1100H500V1200H800V1100H900V1000H1000V600H900V300H700V600H600V400H500V300H400V200H300V300H200V200H100V300H0V400H100V500H0Z"/>
  <path fill="#ba8d68" d="M100 400H200V300H100ZM300 400H400V300H300ZM200 900H300V1000H400V1100H800V1000H900V600H800V300H700V700H800V800H700V700H600V500H500V600H400V700H300V800H200ZM200 500H300V400H200ZM400 500H500V400H400ZM100 600H200V500H100ZM300 600H400V500H300ZM0 700H100V600H0ZM200 700H300V600H200ZM100 800H200V700H100Z"/>
</svg>
