<?xml version="1.0" encoding="UTF-8"?>
<svg xmlns="http://www.w3.org/2000/svg" viewBox="0 0 1200 1200" width="1200" height="1200">
  <title>emoji_u1f468_200d_1f33e</title>
  <path fill="#feec7c" d="M400 300H1100V200H1000V100H800V200H700V100H500V200H400Z"/>
  <path fill="#636363" d="M100 900H200V1200H300V900H400V800H100Z"/>
  <path fill="#d18100" d="M200 1200H300V1100H200Z"/>
  <path fill="#bdbdbd" d="M400 1200H700V1000H400ZM800 1200H1100V1000H800Z"/>
  <path fill="#808080" d="M400 800H500V900H600V500H400ZM0 800H100V600H0ZM100 900H400V800H300V600H200V800H100ZM400 1000H500V900H400Z"/>
  <path fill="#76a441" d="M400 1200H500V1100H600V1200H900V1100H1000V1200H1100V900H1000V800H900V900H600V800H500V900H400Z"/>
  <path fill="#78909c" d="M300 400H1100V200H400V300H300Z"/>
  <path fill="#176eca" d="M500 1100H600V1200H900V1100H1000V800H800V1100H700V800H500Z"/>
  <path fill="#543930" d="M300 400H400V600H500V700H700V600H800V700H900V800H1100V300H300Z"/>
  <path fill="#e59600" d="M600 1100H700V1000H800V1100H900V900H1000V800H1100V700H1000V600H900V800H600Z"/>
  <path fill="#feeb7a" d="M300 400H1100V300H300Z"/>
  <path fill="#ffca28" d="M500 900H600V1000H700V900H800V1000H900V900H1000V600H900V500H600V600H500Z"/>
  <path fill="#a0ce6b" d="M600 1100H700V900H600ZM800 1100H900V900H800Z"/>
  <path fill="#404040" d="M600 800H700V600H600ZM800 800H900V600H800Z"/>
</svg>
