<?xml version="1.0" encoding="UTF-8"?>
<svg xmlns="http://www.w3.org/2000/svg" viewBox="0 0 1200 1200" width="1200" height="1200">
  <title>emoji_u1f512</title>
  <path fill="#b9e4ea" d="M400 200H600V100H400ZM300 400H400V200H300Z"/>
  <path fill="#84b0c1" d="M500 200H700V100H500ZM600 700H900V500H800V200H700V500H600ZM200 700H500V500H400V300H300V500H200Z"/>
  <path fill="#e2a610" d="M200 1100H300V1200H800V1100H900V500H800V600H700V500H400V600H300V500H200Z"/>
  <path fill="#fdd835" d="M200 600H300V500H200ZM400 600H700V500H400ZM800 600H900V500H800Z"/>
  <path fill="#9e740b" d="M400 900H500V1100H600V900H700V700H400Z"/>
  <path fill="#4e342e" d="M400 800H500V1000H600V800H700V700H400Z"/>
</svg>
