<?xml version="1.0" encoding="UTF-8"?>
<svg xmlns="http://www.w3.org/2000/svg" viewBox="0 0 1200 1200" width="1200" height="1200">
  <title>emoji_u1f32d</title>
  <path fill="#f5b03c" d="M300 400H400V500H500V600H600V700H700V800H800V900H1000V800H1100V600H1000V500H900V400H800V300H700V200H600V100H400V200H300ZM0 700H100V800H200V900H300V1000H400V1100H500V1200H800V1100H900V1000H800V900H700V800H600V700H500V600H400V500H300V400H200V300H100V400H0Z"/>
  <path fill="#ec6b31" d="M0 300H100V500H200V600H300V700H400V800H500V900H600V1000H700V1100H900V1200H1000V1100H1100V900H1000V800H900V700H800V600H700V500H600V400H500V300H400V200H300V100H100V200H0Z"/>
  <path fill="#af5832" d="M100 500H200V400H100ZM300 500H400V400H300ZM200 600H300V500H200ZM400 600H500V500H400ZM300 700H400V600H300ZM400 800H500V700H400ZM600 800H700V700H600ZM500 900H600V800H500ZM700 900H800V800H700ZM600 1000H700V900H600ZM700 1100H800V1000H700Z"/>
  <path fill="#ffe361" d="M100 300H300V200H100ZM300 500H400V300H300ZM400 600H600V500H400ZM600 800H700V600H600ZM700 900H900V800H700ZM900 1100H1000V900H900Z"/>
</svg>
