<?xml version="1.0" encoding="UTF-8"?>
<svg xmlns="http://www.w3.org/2000/svg" viewBox="0 0 1200 1200" width="1200" height="1200">
  <title>emoji_u270c_1f3ff</title>
  <path fill="#58382b" d="M100 1100H200V1200H400V1100H700V700H600V600H900V300H1000V100H800V200H600V100H500V200H400V500H200V600H100Z"/>
  <path fill="#000000" d="M200 1100H300V1200H1000V1100H1100V700H1000V200H800V500H700V200H500V500H400V600H300V500H200V700H300V800H400V700H500V800H600V1000H300V800H200ZM100 800H200V700H100ZM400 900H500V800H400Z"/>
  <path fill="#70534a" d="M500 600H900V200H800V500H600V200H500ZM200 700H300V600H200ZM400 700H500V600H400ZM600 800H900V900H1000V700H600ZM200 1100H1000V1000H900V900H700V1000H300V900H200Z"/>
</svg>
