<?xml version="1.0" encoding="UTF-8"?>
<svg xmlns="http://www.w3.org/2000/svg" viewBox="0 0 1200 1200" width="1200" height="1200">
  <title>emoji_u1f4ee</title>
  <path fill="#78a3ac" d="M400 1200H700V1000H400Z"/>
  <path fill="#4b727b" d="M300 1000H400V1100H600V1200H700V1000H800V900H300Z"/>
  <path fill="#c62828" d="M100 400H700V500H600V700H400V1000H900V800H1000V100H100Z"/>
  <path fill="#f44336" d="M100 1000H1000V300H100ZM500 900V800H700V600H800V500H900V700H800V900Z"/>
  <path fill="#4e342e" d="M300 600H400V700H500V400H300ZM600 700H700V600H800V400H600Z"/>
  <path fill="#ff7555" d="M300 500H400V600H700V500H800V400H300Z"/>
  <path fill="#6fbff0" d="M400 800H700V500H400Z"/>
  <path fill="#ffffff" d="M500 600H600V500H500ZM400 700H500V600H400ZM600 700H700V600H600ZM500 800H600V700H500Z"/>
  <path fill="#e0e0e0" d="M500 600H600V500H500Z"/>
</svg>
