<?xml version="1.0" encoding="UTF-8"?>
<svg xmlns="http://www.w3.org/2000/svg" viewBox="0 0 1200 1200" width="1200" height="1200">
  <title>emoji_u1f436</title>
  <path fill="#e94b8c" d="M400 1100H500V1200H600V1100H700V900H400Z"/>
  <path fill="#865b51" d="M0 600H100V700H300V600H400V200H200V100H100V200H0ZM700 600H800V700H1000V600H1100V200H1000V100H900V200H700Z"/>
  <path fill="#ffeac8" d="M100 900H200V1000H300V1100H500V1000H600V1100H800V1000H900V900H1000V600H900V500H800V200H700V100H400V200H300V500H200V600H100Z"/>
  <path fill="#2f2f2f" d="M600 700H700V800H800V700H900V500H800V400H700V500H600ZM300 700H400V500H300ZM400 1000H700V900H600V800H500V900H400Z"/>
  <path fill="#d27856" d="M700 500H800V400H700ZM600 700H700V500H600ZM800 700H900V500H800ZM700 800H800V700H700Z"/>
</svg>
