<?xml version="1.0" encoding="UTF-8"?>
<svg xmlns="http://www.w3.org/2000/svg" viewBox="0 0 1200 1200" width="1200" height="1200">
  <title>emoji_u1f485_1f3fc</title>
  <path fill="#78909c" d="M700 400H800V500H900V300H1000V100H800V200H700Z"/>
  <path fill="#ff7555" d="M100 600H400V400H200V500H100ZM400 700H600V900H900V700H700V500H500V600H400Z"/>
  <path fill="#c62828" d="M200 700H500V800H700V500H600V600H400V400H300V500H200ZM700 1000H900V700H800V800H700Z"/>
  <path fill="#f44336" d="M300 500H400V400H300ZM800 600H900V400H800ZM100 700H300V800H600V1000H900V900H800V800H700V700H600V600H300V500H100ZM600 600H700V500H600ZM800 800H900V700H800Z"/>
  <path fill="#546e7a" d="M800 500H900V400H1000V300H1100V100H900V200H800Z"/>
  <path fill="#8d542e" d="M0 1100H100V1200H700V1100H800V1000H900V900H700V700H400V600H100V700H0Z"/>
  <path fill="#e0bb95" d="M0 900H100V800H200V700H300V600H200V500H100V600H0ZM0 1200H200V1100H300V1000H400V900H500V800H600V700H300V800H200V900H100V1000H0ZM300 1200H600V1100H700V1000H800V900H700V800H600V900H500V1000H400V1100H300Z"/>
  <path fill="#d19661" d="M200 700H300V600H200ZM100 800H200V700H100ZM500 800H600V700H500ZM0 900H100V800H0ZM400 900H500V800H400ZM300 1000H400V900H300ZM700 1000H800V900H700ZM200 1100H300V1000H200ZM600 1100H700V1000H600ZM100 1200H200V1100H100ZM500 1200H600V1100H500Z"/>
</svg>
