<?xml version="1.0" encoding="UTF-8"?>
<svg xmlns="http://www.w3.org/2000/svg" viewBox="0 0 1200 1200" width="1200" height="1200">
  <title>emoji_u1f3b8</title>
  <path fill="#c62828" d="M200 800H500V700H400V600H200ZM600 900H700V1200H900V1100H1000V1000H900V900H1000V600H800V700H700V600H600Z"/>
  <path fill="#82aec0" d="M400 200H500V300H600V100H400ZM300 400H500V300H300ZM600 1200H800V1100H900V1000H800V900H600Z"/>
  <path fill="#f7cf92" d="M400 900H700V400H800V100H500V300H400V400H500V700H400Z"/>
  <path fill="#2f7889" d="M700 400H800V100H700ZM300 1200H800V1100H700V400H600V800H500V700H400V1000H300Z"/>
  <path fill="#f44336" d="M200 1100H300V1200H400V1100H500V700H300V600H200V900H300V1000H200ZM600 1100H700V1000H800V900H900V600H800V800H700V700H600ZM800 1100H900V1000H800ZM700 1200H800V1100H700Z"/>
  <path fill="#fffde7" d="M400 1100H500V800H400ZM600 1100H700V900H800V800H600Z"/>
</svg>
