<?xml version="1.0" encoding="UTF-8"?>
<svg xmlns="http://www.w3.org/2000/svg" viewBox="0 0 1200 1200" width="1200" height="1200">
  <title>emoji_u1f683</title>
  <path fill="#455a64" d="M100 1100H200V1200H300V1100H400V1200H500V1100H600V1200H700V1100H800V1200H900V1100H1000V1000H100Z"/>
  <path fill="#00796b" d="M100 400H1000V300H900V200H200V300H100Z"/>
  <path fill="#82aec0" d="M0 1100H1100V1000H1000V900H100V1000H0Z"/>
  <path fill="#004d40" d="M100 500H1000V300H100Z"/>
  <path fill="#ffca28" d="M100 1000H1000V800H100Z"/>
  <path fill="#ffecb3" d="M100 900H1000V400H100Z"/>
  <path fill="#4ca854" d="M100 900H1000V800H100Z"/>
  <path fill="#bae2fd" d="M100 700H300V500H100ZM400 700H600V500H400ZM700 700H900V500H700Z"/>
  <path fill="#37474f" d="M100 700H300V600H100ZM400 700H600V600H400ZM700 700H900V600H700Z"/>
</svg>
