<?xml version="1.0" encoding="UTF-8"?>
<svg xmlns="http://www.w3.org/2000/svg" viewBox="0 0 1200 1200" width="1200" height="1200">
  <title>emoji_u1f6ac</title>
  <path fill="#dbdbdb" d="M200 1200H800V1000H200Z"/>
  <path fill="#ffcc80" d="M700 1100H900V1200H1000V1100H1100V1000H1000V900H700Z"/>
  <path fill="#e48c35" d="M600 1100H700V1200H1000V1000H600Z"/>
  <path fill="#d58135" d="M700 1100H800V1200H900V1100H1000V1000H700Z"/>
  <path fill="#607d8b" d="M0 1100H100V1200H300V1100H400V900H200V800H0V900H100V1000H0Z"/>
  <path fill="#424242" d="M100 900H200V800H100ZM200 1000H300V1100H500V900H200ZM100 1100H200V1000H100ZM200 1200H300V1100H200Z"/>
  <path fill="#eeeeee" d="M300 1000H400V1100H900V1000H800V900H300Z"/>
  <path fill="#f19534" d="M700 1000H800V900H700ZM800 1100H1000V900H900V1000H800Z"/>
  <path fill="#bdbdbd" d="M0 900H200V800H500V700H600V600H700V400H600V300H500V200H400V100H100V200H0V300H100V400H200V600H100V700H0Z"/>
  <path fill="#f44336" d="M100 1100H200V1000H100Z"/>
</svg>
