<?xml version="1.0" encoding="UTF-8"?>
<svg xmlns="http://www.w3.org/2000/svg" viewBox="0 0 1200 1200" width="1200" height="1200">
  <title>emoji_u3030</title>
  <path fill="#464c4f" d="M100 600H200V700H300V800H400V700H500V600H600V700H700V800H800V700H900V600H1000V400H900V500H800V600H700V500H600V400H500V500H400V600H300V500H200V400H100Z"/>
  <path fill="#9a9a99" d="M100 500H200V400H100ZM500 500H600V400H500ZM900 500H1000V400H900ZM200 600H300V500H200ZM400 600H500V500H400ZM600 600H700V500H600ZM800 600H900V500H800ZM300 700H400V600H300ZM700 700H800V600H700Z"/>
  <path fill="#606265" d="M900 500H1000V400H900ZM200 600H300V500H200ZM600 600H700V500H600ZM300 700H400V600H300ZM700 700H800V600H700Z"/>
</svg>
