<?xml version="1.0" encoding="UTF-8"?>
<svg xmlns="http://www.w3.org/2000/svg" viewBox="0 0 1200 1200" width="1200" height="1200">
  <title>emoji_u1f1f9_1f1f2</title>
  <path fill="#2db06a" d="M400 500H700V300H400Z"/>
  <path fill="#30b16b" d="M300 500H600V400H500V300H300Z"/>
  <path fill="#539a5e" d="M200 500H500V400H400V300H200Z"/>
  <path fill="#5b8e5b" d="M200 1000H500V800H200Z"/>
  <path fill="#8a895d" d="M0 500H300V300H0Z"/>
  <path fill="#986d51" d="M0 1000H300V800H0Z"/>
  <path fill="#a97a62" d="M100 500H400V400H300V300H200V400H100Z"/>
  <path fill="#ca5b4d" d="M100 900H200V1000H300V900H400V800H100Z"/>
  <path fill="#28ae66" d="M0 1000H100V900H200V400H100V300H0ZM300 900H400V1000H1100V300H600V400H500V500H300Z"/>
  <path fill="#3eb676" d="M300 600H600V400H300Z"/>
  <path fill="#56955a" d="M200 600H500V500H400V400H200Z"/>
  <path fill="#57955b" d="M200 900H400V700H200Z"/>
  <path fill="#5dc28c" d="M400 600H600V400H500V500H400Z"/>
  <path fill="#7b7d51" d="M100 900H300V600H100Z"/>
  <path fill="#7f7450" d="M100 700H200V800H300V500H100Z"/>
  <path fill="#8a734e" d="M100 600H300V400H100Z"/>
  <path fill="#8c734d" d="M100 600H200V700H300V400H200V500H100Z"/>
  <path fill="#957f57" d="M100 900H300V700H200V800H100Z"/>
  <path fill="#af5b49" d="M200 600H400V500H300V400H200Z"/>
  <path fill="#c87768" d="M200 900H300V800H400V700H200Z"/>
  <path fill="#30b16c" d="M300 700H400V600H600V500H300Z"/>
  <path fill="#51bd83" d="M500 600H600V500H500Z"/>
  <path fill="#56935b" d="M200 800H400V600H200Z"/>
  <path fill="#58945a" d="M200 700H400V500H200Z"/>
  <path fill="#887750" d="M200 800H300V700H400V600H200Z"/>
  <path fill="#a1594d" d="M200 700H400V600H300V500H200Z"/>
  <path fill="#a65a49" d="M200 600H300V500H200ZM300 700H400V600H300Z"/>
  <path fill="#53945b" d="M300 700H400V600H300Z"/>
</svg>
