<?xml version="1.0" encoding="UTF-8"?>
<svg xmlns="http://www.w3.org/2000/svg" viewBox="0 0 1200 1200" width="1200" height="1200">
  <title>emoji_u1f697</title>
  <path fill="#d5ccc2" d="M900 900H1100V500H1000V400H900ZM0 800H200V500H0Z"/>
  <path fill="#4e433d" d="M0 1000H200V1100H300V1000H500V800H400V700H100V800H0ZM600 1000H800V1100H900V1000H1100V800H1000V700H700V800H600Z"/>
  <path fill="#d70617" d="M0 1000H100V900H200V800H300V900H400V1000H700V900H800V800H900V900H1000V1000H1100V800H1000V600H100V700H0ZM200 1000H300V900H200ZM800 1000H900V900H800Z"/>
  <path fill="#f92612" d="M0 600H100V700H1000V400H900V300H800V200H400V300H300V400H200V500H0ZM0 800H100V700H0Z"/>
  <path fill="#c8c8c8" d="M200 1000H300V900H200ZM800 1000H900V900H800Z"/>
  <path fill="#fffeff" d="M800 600H900V500H800ZM100 700H200V600H100ZM900 700H1000V600H900Z"/>
  <path fill="#afe3fb" d="M300 600H900V400H800V300H400V400H300Z"/>
  <path fill="#546d81" d="M300 600H900V500H300Z"/>
  <path fill="#af0f21" d="M400 600H500V500H400Z"/>
</svg>
