<?xml version="1.0" encoding="UTF-8"?>
<svg xmlns="http://www.w3.org/2000/svg" viewBox="0 0 1200 1200" width="1200" height="1200">
  <title>emoji_u1f921</title>
  <path fill="#adbcc3" d="M100 1000H200V1100H300V1200H800V1100H900V1000H1000V500H800V900H700V1000H400V900H300V500H100Z"/>
  <path fill="#ef2600" d="M0 500H100V600H200V700H300V600H400V500H700V600H800V700H900V600H1000V500H1100V200H1000V100H800V200H600V300H500V200H300V100H100V200H0Z"/>
  <path fill="#ed7b74" d="M200 1000H400V700H200ZM700 1000H900V700H700Z"/>
  <path fill="#fefefe" d="M200 1000H300V1100H800V1000H900V900H800V800H900V500H800V400H300V500H200V800H300V900H200Z"/>
  <path fill="#f12a00" d="M300 900H400V800H300ZM700 900H800V800H700ZM400 1000H700V900H400Z"/>
  <path fill="#422b0d" d="M400 600H500V500H400ZM600 600H700V500H600Z"/>
  <path fill="#fe4700" d="M500 800H600V700H500Z"/>
</svg>
