<?xml version="1.0" encoding="UTF-8"?>
<svg xmlns="http://www.w3.org/2000/svg" viewBox="0 0 1200 1200" width="1200" height="1200">
  <title>emoji_u1f9b2</title>
  <path fill="#000000" d="M0 300H100V200H200V100H0ZM300 200H500V100H300ZM600 200H800V100H600ZM900 200H1000V300H1100V100H900ZM0 600H100V400H0ZM1000 600H1100V400H1000ZM0 900H100V700H0ZM1000 900H1100V700H1000ZM0 1200H200V1100H100V1000H0ZM900 1200H1100V1000H1000V1100H900ZM300 1200H500V1100H300ZM600 1200H800V1100H600Z"/>
  <path fill="#eda600" d="M200 1000H400V600H500V500H600V600H700V1000H900V500H800V400H700V300H400V400H300V500H200Z"/>
  <path fill="#ffc620" d="M300 1000H800V500H700V400H400V500H300Z"/>
</svg>
