<?xml version="1.0" encoding="UTF-8"?>
<svg xmlns="http://www.w3.org/2000/svg" viewBox="0 0 1200 1200" width="1200" height="1200">
  <title>emoji_u1f6e2</title>
  <path fill="#b9e4ea" d="M200 500H400V700H900V600H1000V200H900V100H300V200H200Z"/>
  <path fill="#56bfe6" d="M200 1100H300V1200H700V700H400V600H200Z"/>
  <path fill="#2686c6" d="M200 1000H300V1100H600V1200H900V1100H1000V600H500V400H400V300H300V400H200V700H300V800H600V900H300V800H200Z"/>
  <path fill="#2167a1" d="M300 400H700V500H800V400H900V200H300ZM500 700H800V800H900V700H1000V400H900V500H800V600H500ZM400 600H500V500H400ZM500 1000H600V1100H900V1000H1000V800H900V900H500Z"/>
  <path fill="#ffffff" d="M300 500H400V600H500V500H600V400H500V300H300Z"/>
  <path fill="#b0bec5" d="M300 400H400V500H800V400H900V300H300Z"/>
  <path fill="#e0e0e0" d="M400 400H500V300H400ZM700 400H800V300H700Z"/>
</svg>
