<?xml version="1.0" encoding="UTF-8"?>
<svg xmlns="http://www.w3.org/2000/svg" viewBox="0 0 1200 1200" width="1200" height="1200">
  <title>emoji_u1f9c1</title>
  <path fill="#fd6660" d="M700 600H1000V500H900V300H700Z"/>
  <path fill="#4ec0f5" d="M0 900H100V1100H200V1200H900V1100H1000V900H1100V600H900V800H600V900H500V800H200V600H0Z"/>
  <path fill="#ffe9c8" d="M100 600H900V500H800V400H900V300H800V200H700V100H500V200H300V300H200V500H100Z"/>
  <path fill="#a9e7ff" d="M0 700H100V900H200V1200H300V900H400V1200H500V1000H600V1200H700V900H800V1200H900V900H1000V700H1100V600H700V700H400V600H0Z"/>
  <path fill="#ffcb86" d="M400 400H900V300H800V200H600V300H400ZM300 700H1100V600H1000V500H300Z"/>
  <path fill="#d9eff2" d="M0 700H300V800H800V700H1100V600H400V500H100V600H0Z"/>
  <path fill="#fbb75a" d="M100 700H200V600H300V700H400V800H500V700H600V800H700V700H800V600H700V500H600V600H400V500H100Z"/>
  <path fill="#ed4889" d="M400 400H500V300H400Z"/>
  <path fill="#72e38d" d="M600 300H700V200H600ZM300 600H400V500H300Z"/>
  <path fill="#cf6e21" d="M100 700H200V600H100ZM900 700H1000V600H900ZM400 800H500V700H400ZM600 800H700V700H600Z"/>
  <path fill="#49c0f5" d="M600 600H700V500H600Z"/>
</svg>
