<?xml version="1.0" encoding="UTF-8"?>
<svg xmlns="http://www.w3.org/2000/svg" viewBox="0 0 1200 1200" width="1200" height="1200">
  <title>emoji_u1f522</title>
  <path fill="#427687" d="M400 1200H1000V1100H1100V200H1000V100H900V1000H400ZM0 1100H100V1200H300V1000H0Z"/>
  <path fill="#8cafbf" d="M0 1100H200V1200H500V1100H800V1200H900V1100H1000V100H100V200H0Z"/>
  <path fill="#fafafa" d="M200 600H500V500H400V100H300V200H200V300H300V500H200ZM600 600H900V500H700V400H900V100H600V200H800V300H600ZM100 400H200V300H100ZM200 1200H500V700H200V800H400V900H200V1000H400V1100H200ZM600 1100H800V1200H900V700H800V1000H700V700H600Z"/>
  <path fill="#a0c8d6" d="M100 400H200V300H100Z"/>
</svg>
