<?xml version="1.0" encoding="UTF-8"?>
<svg xmlns="http://www.w3.org/2000/svg" viewBox="0 0 1200 1200" width="1200" height="1200">
  <title>emoji_u1f9d1_1f3fd_200d_1f3ed</title>
  <path fill="#40c4ff" d="M0 700H100V800H200V900H300V600H200V500H100V600H0Z"/>
  <path fill="#543930" d="M400 800H500V900H600V500H400ZM900 900H1000V800H1100V500H900Z"/>
  <path fill="#504f4f" d="M100 700H200V600H100ZM200 900H300V700H200ZM200 1200H300V1000H200Z"/>
  <path fill="#9e9e9e" d="M200 1100H300V800H200Z"/>
  <path fill="#616161" d="M200 1100H300V1000H200Z"/>
  <path fill="#3371ff" d="M400 1200H1100V900H1000V800H800V1000H700V800H500V900H400Z"/>
  <path fill="#f8f8f7" d="M600 1100H700V1200H800V1100H900V900H600Z"/>
  <path fill="#969696" d="M400 600H600V500H900V600H1100V200H1000V100H500V200H400Z"/>
  <path fill="#ba8d68" d="M400 600H500V900H600V1000H900V900H1000V600H1100V500H400Z"/>
  <path fill="#b4b4b4" d="M400 600H1100V500H1000V400H500V500H400Z"/>
  <path fill="#84ffff" d="M100 700H200V600H100Z"/>
  <path fill="#1158b2" d="M600 1100H700V1000H800V1100H900V900H600Z"/>
  <path fill="#807978" d="M600 300H700V200H600ZM800 300H900V200H800ZM500 600H600V700H700V600H800V700H900V600H1000V500H500Z"/>
  <path fill="#49362e" d="M600 800H700V600H600ZM800 800H900V600H800Z"/>
  <path fill="#99674f" d="M700 1000H800V900H700Z"/>
</svg>
