<?xml version="1.0" encoding="UTF-8"?>
<svg xmlns="http://www.w3.org/2000/svg" viewBox="0 0 1200 1200" width="1200" height="1200">
  <title>emoji_u1f4cc</title>
  <path fill="#82aec0" d="M100 1100H300V1000H400V900H500V800H400V700H300V800H200V900H100ZM0 1200H100V1100H0Z"/>
  <path fill="#2f7889" d="M300 900H600V700H500V600H300Z"/>
  <path fill="#f44336" d="M200 600H300V700H400V800H500V900H600V1000H800V600H1000V500H1100V300H1000V200H900V100H700V200H600V400H200Z"/>
  <path fill="#c62828" d="M600 600H700V700H800V500H700V400H600Z"/>
  <path fill="#ff7555" d="M700 300H800V400H900V500H1000V300H900V200H700ZM400 700H500V500H400Z"/>
</svg>
