<?xml version="1.0" encoding="UTF-8"?>
<svg xmlns="http://www.w3.org/2000/svg" viewBox="0 0 1200 1200" width="1200" height="1200">
  <title>emoji_u1f48e</title>
  <path fill="#0288d1" d="M800 600H1100V400H1000V300H900V200H800ZM0 600H100V700H200V800H300V900H400V1000H500V1100H600V700H500V600H300V500H0Z"/>
  <path fill="#81d4fa" d="M0 600H200V700H400V400H0ZM700 800H900V700H1000V600H1100V500H900V400H700Z"/>
  <path fill="#b3e5fc" d="M100 500H300V600H600V700H500V1100H600V1000H700V900H800V800H900V700H800V500H900V200H800V100H300V200H200V300H100ZM900 700H1000V600H900Z"/>
  <path fill="#e1f5fe" d="M0 500H300V400H200V300H100V400H0ZM800 500H900V400H800ZM300 700H400V800H500V1100H600V800H700V700H800V500H500V600H300Z"/>
  <path fill="#64b5f6" d="M200 500H300V400H200ZM300 700H600V500H300Z"/>
  <path fill="#b2ebf2" d="M400 700H700V600H600V500H500V600H400Z"/>
</svg>
