<?xml version="1.0" encoding="UTF-8"?>
<svg xmlns="http://www.w3.org/2000/svg" viewBox="0 0 1200 1200" width="1200" height="1200">
  <title>emoji_u1f99f</title>
  <path fill="#848484" d="M0 500H100V400H0ZM0 700H200V800H300V900H400V1000H500V700H600V600H700V700H800V600H900V500H100V600H0ZM600 900H700V700H600ZM800 800H900V700H800ZM100 900H200V800H100ZM900 900H1000V800H900ZM0 1000H100V900H0ZM200 1000H300V900H200ZM700 1000H800V900H700ZM100 1100H200V1000H100ZM300 1100H400V1000H300ZM800 1100H900V1000H800ZM200 1200H300V1100H200Z"/>
  <path fill="#a7c7cb" d="M500 500H800V400H900V300H1000V200H900V100H800V200H700V300H600V400H500Z"/>
  <path fill="#6e9096" d="M400 600H700V400H400Z"/>
  <path fill="#5e6467" d="M200 800H400V700H500V600H1000V500H1100V400H1000V200H800V400H600V500H500V400H400V500H300V600H200ZM100 900H200V800H100ZM0 1000H100V900H0Z"/>
  <path fill="#627b7f" d="M600 600H700V500H1000V400H900V300H1000V200H800V300H700V400H600Z"/>
  <path fill="#020204" d="M300 700H400V600H300Z"/>
  <path fill="#964243" d="M700 500H1000V400H700ZM600 600H700V500H600Z"/>
  <path fill="#5e7d81" d="M600 600H700V500H600Z"/>
</svg>
