<?xml version="1.0" encoding="UTF-8"?>
<svg xmlns="http://www.w3.org/2000/svg" viewBox="0 0 1200 1200" width="1200" height="1200">
  <title>emoji_u23f2</title>
  <path fill="#f5f5f5" d="M0 1200H400V1000H200V900H0Z"/>
  <path fill="#ff4638" d="M300 300H700V100H300Z"/>
  <path fill="#9dc9d5" d="M500 1200H1000V900H700V1000H500Z"/>
  <path fill="#b9e4ea" d="M0 1000H100V1100H300V1200H600V1100H800V1200H1000V300H900V200H800V100H600V200H400V100H200V200H100V300H0ZM800 1100V1000H900V1100ZM0 1200H100V1100H0Z"/>
  <path fill="#78909c" d="M100 900H200V1000H800V900H900V400H800V300H200V400H100Z"/>
  <path fill="#ffffff" d="M200 900H300V800H400V900H600V800H700V900H800V700H700V600H800V400H700V500H600V400H400V500H300V400H200V600H300V700H200Z"/>
  <path fill="#aab6bd" d="M400 800H600V500H400Z"/>
  <path fill="#e0e0e0" d="M400 800H500V500H400Z"/>
</svg>
