<?xml version="1.0" encoding="UTF-8"?>
<svg xmlns="http://www.w3.org/2000/svg" viewBox="0 0 1200 1200" width="1200" height="1200">
  <title>emoji_u1f60e</title>
  <path fill="#eb8f00" d="M0 1000H100V1100H200V1200H900V1100H1000V1000H1100V300H1000V200H900V100H200V200H100V300H0Z"/>
  <path fill="#422b0d" d="M0 500H100V800H200V1000H300V1100H800V1000H900V800H1000V500H1100V400H1000V300H100V400H0Z"/>
  <path fill="#fde030" d="M100 400H300V500H400V400H700V500H800V400H1000V300H900V200H200V300H100ZM100 1000H200V1100H900V1000H1000V500H900V700H600V600H700V500H500V700H200V600H300V500H100ZM300 900V800H400V900H700V1000H400V900ZM700 900V800H800V900Z"/>
  <path fill="#896024" d="M300 500H400V400H300ZM700 500H800V400H700ZM200 600H300V500H200ZM600 600H700V500H600Z"/>
</svg>
