<?xml version="1.0" encoding="UTF-8"?>
<svg xmlns="http://www.w3.org/2000/svg" viewBox="0 0 1200 1200" width="1200" height="1200">
  <title>emoji_u1f1f1_1f1f8</title>
  <path fill="#00209f" d="M0 600H1100V300H0Z"/>
  <path fill="#009543" d="M0 1000H1100V700H0Z"/>
  <path fill="#e4f4eb" d="M0 800H500V600H0ZM600 800H1100V600H600Z"/>
  <path fill="#e4e8f5" d="M0 700H1100V500H0Z"/>
  <path fill="#ffffff" d="M0 700H400V800H500V600H0ZM600 800H700V700H1100V600H600Z"/>
  <path fill="#405047" d="M400 800H700V600H400Z"/>
  <path fill="#858895" d="M400 700H700V600H600V500H500V600H400Z"/>
  <path fill="#95a59c" d="M400 800H500V700H600V600H400Z"/>
  <path fill="#96a59d" d="M500 700H600V800H700V600H500Z"/>
  <path fill="#363636" d="M400 700H700V600H400Z"/>
  <path fill="#f1f1f1" d="M600 700H700V600H600Z"/>
  <path fill="#f3f3f3" d="M400 700H500V600H400Z"/>
</svg>
