<?xml version="1.0" encoding="UTF-8"?>
<svg xmlns="http://www.w3.org/2000/svg" viewBox="0 0 1200 1200" width="1200" height="1200">
  <title>emoji_u1f9b8_1f3fe</title>
  <path fill="#3c2c23" d="M200 600H300V700H400V500H500V400H600V500H700V700H800V600H900V200H800V100H300V200H200Z"/>
  <path fill="#ed4132" d="M0 1000H1100V900H1000V800H800V600H600V700H500V600H300V800H100V900H0Z"/>
  <path fill="#9b342b" d="M0 1200H400V800H300V900H0ZM700 1200H1100V900H800V800H700Z"/>
  <path fill="#a52714" d="M400 800H500V700H400ZM600 800H700V700H600ZM300 1100H500V900H400V800H300ZM600 1100H800V800H700V900H600ZM0 1200H100V1000H200V900H0ZM900 1000H1000V1200H1100V900H900Z"/>
  <path fill="#c83b43" d="M300 1200H800V1000H700V900H400V1000H300Z"/>
  <path fill="#42a5f5" d="M400 1000H700V900H600V800H500V900H400ZM300 1200H500V1100H400V1000H300ZM600 1200H800V1000H700V1100H600Z"/>
  <path fill="#a56c43" d="M300 700H400V800H700V700H800V400H700V300H400V400H300Z"/>
  <path fill="#7a4c32" d="M400 800H500V900H600V800H700V700H400Z"/>
  <path fill="#42312c" d="M400 600H500V400H400ZM600 600H700V400H600Z"/>
</svg>
