<?xml version="1.0" encoding="UTF-8"?>
<svg xmlns="http://www.w3.org/2000/svg" viewBox="0 0 1200 1200" width="1200" height="1200">
  <title>emoji_u1f430</title>
  <path fill="#838584" d="M0 800H100V1000H200V1100H300V600H200V700H0ZM800 1100H900V1000H1000V800H1100V700H900V600H800ZM0 1100H100V1000H0ZM1000 1100H1100V1000H1000Z"/>
  <path fill="#b5c2c8" d="M100 900H200V1100H300V1200H800V1100H900V900H1000V800H900V200H800V100H700V200H600V500H500V200H400V100H300V200H200V800H100Z"/>
  <path fill="#feaca9" d="M300 500H400V200H300ZM700 500H800V200H700Z"/>
  <path fill="#2f2f2d" d="M300 800H400V600H300ZM700 800H800V600H700ZM400 900H500V800H400ZM600 900H700V800H600Z"/>
  <path fill="#ffffff" d="M300 1000H400V1100H700V1000H800V900H700V800H600V600H500V800H400V900H300Z"/>
  <path fill="#fee2b3" d="M400 1000H700V900H600V800H500V900H400Z"/>
  <path fill="#2c2c2c" d="M500 900H600V800H500ZM400 1000H500V900H400ZM600 1000H700V900H600Z"/>
</svg>
