<?xml version="1.0" encoding="UTF-8"?>
<svg xmlns="http://www.w3.org/2000/svg" viewBox="0 0 1200 1200" width="1200" height="1200">
  <title>emoji_u1f443</title>
  <path fill="#b55e19" d="M100 1000H200V1100H400V1200H800V1100H1000V1000H1100V800H1000V700H900V500H700V900H500V400H400V500H300V700H200V800H100Z"/>
  <path fill="#faa700" d="M100 900H200V1000H300V900H400V1000H500V1100H700V1000H800V900H900V1000H1000V800H900V700H800V600H900V500H800V200H700V100H500V200H400V700H200V800H100Z"/>
  <path fill="#ffca28" d="M200 900H500V1000H700V900H1000V800H800V700H700V200H600V100H500V500H400V800H200Z"/>
</svg>
