<?xml version="1.0" encoding="UTF-8"?>
<svg xmlns="http://www.w3.org/2000/svg" viewBox="0 0 1200 1200" width="1200" height="1200">
  <title>emoji_u1f380</title>
  <path fill="#ff605e" d="M100 1100H300V1200H400V1000H500V600H700V1000H800V1200H900V1100H1100V900H1000V700H1100V200H700V300H500V200H100V700H200V900H100Z"/>
  <path fill="#af0c1a" d="M200 800H300V900H400V800H500V500H400V600H200ZM700 800H800V900H900V800H1000V600H800V500H700Z"/>
  <path fill="#fcc4bf" d="M400 600H500V500H600V400H500V300H400ZM600 400H700V500H800V300H600Z"/>
  <path fill="#dc0d28" d="M300 500H400V600H500V300H400V400H300ZM700 600H800V500H900V400H800V300H700ZM200 700H400V600H200ZM800 700H1000V600H800ZM100 1100H300V1000H100ZM900 1100H1100V1000H900ZM300 1200H400V1100H300ZM800 1200H900V1100H800Z"/>
</svg>
