<?xml version="1.0" encoding="UTF-8"?>
<svg xmlns="http://www.w3.org/2000/svg" viewBox="0 0 1200 1200" width="1200" height="1200">
  <title>emoji_u1f232</title>
  <path fill="#cc3333" d="M0 1100H100V1200H1000V1100H1100V200H1000V100H900V1000H0Z"/>
  <path fill="#f44336" d="M0 1100H1000V100H100V200H0Z"/>
  <path fill="#ff8a80" d="M100 400H400V200H200V300H100Z"/>
  <path fill="#fafafa" d="M200 600H900V500H800V400H900V300H800V200H700V300H600V400H700V500H600V400H500V500H400V400H500V300H400V200H300V300H200V400H300V500H200ZM200 800H300V900H400V1000H600V800H700V900H800V800H900V700H200ZM400 900V800H500V900ZM200 1000H300V900H200ZM800 1000H900V900H800Z"/>
</svg>
