<?xml version="1.0" encoding="UTF-8"?>
<svg xmlns="http://www.w3.org/2000/svg" viewBox="0 0 1200 1200" width="1200" height="1200">
  <title>emoji_u1faf1_1f3fc_200d_1faf2_1f3ff</title>
  <path fill="#8d542e" d="M0 800H200V900H300V600H0ZM500 1100H600V1000H700V1100H800V1000H900V900H1000V800H1100V700H1000V600H700V700H600V800H500Z"/>
  <path fill="#58382b" d="M500 500H700V700H900V800H1100V500H1000V400H1100V200H500ZM200 900H300V1000H400V1100H600V800H500V700H200Z"/>
  <path fill="#d19661" d="M0 400H600V300H700V200H0ZM400 800H600V900H700V800H800V700H900V600H800V500H400ZM0 800H100V700H200V600H0ZM900 800H1000V700H900ZM800 900H900V800H800ZM700 1000H800V900H700Z"/>
  <path fill="#70534a" d="M600 300H700V200H600ZM300 600H800V500H900V600H1000V700H900V800H1100V300H700V400H600V300H300ZM800 700H900V600H800Z"/>
  <path fill="#000000" d="M600 300H700V200H600ZM200 900H300V800H400V900H500V1000H400V1100H600V900H700V800H600V700H500V600H800V500H400V400H600V300H200ZM800 700H900V600H800ZM700 800H800V700H700ZM900 800H1000V700H900ZM300 1000H400V900H300Z"/>
  <path fill="#e0bb95" d="M0 700H200V800H300V700H400V800H500V900H700V800H800V700H500V600H400V500H300V400H400V300H0Z"/>
</svg>
