<?xml version="1.0" encoding="UTF-8"?>
<svg xmlns="http://www.w3.org/2000/svg" viewBox="0 0 1200 1200" width="1200" height="1200">
  <title>emoji_u1fab1</title>
  <path fill="#fea8a7" d="M0 400H100V1000H200V1100H500V1000H600V900H700V400H800V800H900V1100H1100V800H1000V300H900V200H600V300H500V800H400V900H300V300H200V200H100V300H0Z"/>
  <path fill="#ec7fac" d="M100 400H200V300H100ZM600 400H700V300H600ZM800 400H900V300H800ZM200 500H300V400H200ZM100 600H200V500H100ZM500 600H600V500H500ZM900 600H1000V500H900ZM600 700H700V600H600ZM800 700H900V600H800ZM100 1000H200V900H300V700H200V800H100ZM500 900H600V800H500ZM1000 900H1100V800H1000ZM300 1100H400V900H300ZM900 1000H1000V900H900Z"/>
  <path fill="#000000" d="M100 400H200V300H100Z"/>
</svg>
