<?xml version="1.0" encoding="UTF-8"?>
<svg xmlns="http://www.w3.org/2000/svg" viewBox="0 0 1200 1200" width="1200" height="1200">
  <title>emoji_u1f4a8</title>
  <path fill="#61bfe8" d="M600 1200H700V1100H800V1200H1000V1100H1100V900H1000V800H1100V600H1000V500H900V700H800V900H600Z"/>
  <path fill="#92cbeb" d="M100 200H200V300H300V100H100ZM0 800H400V1100H500V1200H700V1000H800V300H900V500H1100V200H1000V100H700V200H500V300H400V500H0ZM0 400H200V300H0ZM0 1000H200V900H0ZM100 1200H300V1000H200V1100H100Z"/>
  <path fill="#039be5" d="M0 700H300V600H0Z"/>
  <path fill="#d5ebf5" d="M400 600H600V700H700V900H600V800H500V1100H600V1200H700V1000H800V1100H1100V900H900V800H1000V500H1100V400H1000V100H900V200H600V300H500V500H400ZM600 600V400H700V600Z"/>
</svg>
