<?xml version="1.0" encoding="UTF-8"?>
<svg xmlns="http://www.w3.org/2000/svg" viewBox="0 0 1200 1200" width="1200" height="1200">
  <title>emoji_u1f649</title>
  <path fill="#b6885a" d="M0 1200H300V1100H800V1200H1100V400H1000V300H900V200H700V100H400V200H200V300H100V400H0ZM100 1100V900H200V1000H300V1100ZM800 1100V1000H900V900H1000V1100Z"/>
  <path fill="#865b54" d="M100 700H200V800H300V300H200V400H100ZM800 800H900V700H1000V400H900V300H800ZM0 800H100V700H0ZM1000 800H1100V700H1000Z"/>
  <path fill="#ffcd88" d="M200 900H300V1000H800V900H900V300H700V200H400V300H200Z"/>
  <path fill="#ff6b17" d="M400 900H700V800H400Z"/>
  <path fill="#393531" d="M300 600H400V400H300ZM700 600H800V400H700ZM500 700H600V600H500Z"/>
</svg>
