<?xml version="1.0" encoding="UTF-8"?>
<svg xmlns="http://www.w3.org/2000/svg" viewBox="0 0 1200 1200" width="1200" height="1200">
  <title>emoji_u1f9dc_1f3ff</title>
  <path fill="#d84315" d="M0 900H100V1100H200V900H400V800H300V700H200V800H100V700H0ZM200 1200H800V1100H900V1000H600V900H400V1000H300V1100H200Z"/>
  <path fill="#ff7a35" d="M0 900H100V800H0ZM200 900H400V800H200ZM100 1000H200V900H100ZM400 1000H500V900H400ZM300 1100H400V1000H300ZM500 1100H600V1200H700V1100H800V1000H500ZM200 1200H300V1100H200ZM400 1200H500V1100H400Z"/>
  <path fill="#d32f2f" d="M400 700H500V800H600V500H700V400H800V500H900V800H1000V700H1100V200H1000V100H500V200H400Z"/>
  <path fill="#4a2f27" d="M300 900H400V1000H500V1100H600V1000H800V1100H900V1000H1000V900H1100V800H1000V700H500V800H300Z"/>
  <path fill="#63473e" d="M500 800H600V900H800V800H900V900H1000V600H500ZM400 900H500V800H400Z"/>
  <path fill="#70534a" d="M500 700H1000V400H900V300H600V400H500ZM400 900H500V800H400ZM500 1100H900V900H800V800H600V900H500ZM900 900H1000V800H900Z"/>
  <path fill="#1a1717" d="M600 600H700V400H600ZM800 600H900V400H800Z"/>
</svg>
