<?xml version="1.0" encoding="UTF-8"?>
<svg xmlns="http://www.w3.org/2000/svg" viewBox="0 0 1200 1200" width="1200" height="1200">
  <title>emoji_u1f919_1f3ff</title>
  <path fill="#58382b" d="M0 700H300V600H400V700H700V1000H800V1200H1100V1000H1000V600H900V500H600V400H500V100H300V400H200V500H0Z"/>
  <path fill="#000000" d="M400 600H500V500H600V200H500V100H400ZM0 1000H200V1100H500V1200H1100V1100H900V1000H1000V900H800V800H1000V700H800V600H500V900H300V800H0Z"/>
  <path fill="#70534a" d="M0 900H200V1000H500V1100H900V1000H700V900H800V800H600V700H800V600H500V200H400V400H300V500H200V600H0Z"/>
</svg>
