<?xml version="1.0" encoding="UTF-8"?>
<svg xmlns="http://www.w3.org/2000/svg" viewBox="0 0 1200 1200" width="1200" height="1200">
  <title>emoji_u1fad9</title>
  <path fill="#e2a610" d="M200 600H1000V500H900V200H800V100H400V200H300V500H200Z"/>
  <path fill="#54b5d5" d="M200 700H300V800H900V700H1000V500H500V400H400V500H200ZM200 1100H300V1200H900V1100H1000V1000H900V900H300V1000H200Z"/>
  <path fill="#b3e7ef" d="M400 600H500V500H400ZM700 600H800V500H700ZM200 1100H400V1000H800V1100H1000V600H800V700H400V600H200Z"/>
  <path fill="#9e740b" d="M300 400H400V600H800V500H600V400H900V300H600V200H800V100H400V300H300Z"/>
  <path fill="#ffe36c" d="M400 300H600V200H400ZM400 500H600V400H400Z"/>
  <path fill="#ffffff" d="M400 1000H500V700H400Z"/>
</svg>
