<?xml version="1.0" encoding="UTF-8"?>
<svg xmlns="http://www.w3.org/2000/svg" viewBox="0 0 1200 1200" width="1200" height="1200">
  <title>emoji_u1f1f1_1f1e8</title>
  <path fill="#a1cea4" d="M300 1000H800V800H300Z"/>
  <path fill="#76ceec" d="M200 1000H400V900H500V800H200ZM600 900H700V1000H900V800H600Z"/>
  <path fill="#6dceff" d="M400 500H700V300H400Z"/>
  <path fill="#66ccff" d="M0 1000H300V900H500V600H600V900H800V1000H1100V300H600V400H500V300H0Z"/>
  <path fill="#70cffe" d="M300 900H500V700H400V800H300ZM600 900H800V800H700V700H600Z"/>
  <path fill="#ebcc3f" d="M400 900H700V700H400Z"/>
  <path fill="#9dcbe2" d="M400 600H700V500H600V400H500V500H400Z"/>
  <path fill="#fcd116" d="M400 800H500V900H600V800H700V700H400Z"/>
  <path fill="#75d1ff" d="M400 700H700V500H400Z"/>
  <path fill="#839888" d="M400 800H700V600H400Z"/>
  <path fill="#4d4f4f" d="M400 700H700V600H600V500H500V600H400Z"/>
  <path fill="#efc615" d="M400 700H500V800H600V700H700V600H400Z"/>
  <path fill="#7bb7d6" d="M400 700H700V600H400Z"/>
  <path fill="#282103" d="M500 700H600V600H500Z"/>
</svg>
