<?xml version="1.0" encoding="UTF-8"?>
<svg xmlns="http://www.w3.org/2000/svg" viewBox="0 0 1200 1200" width="1200" height="1200">
  <title>emoji_u1f33f</title>
  <path fill="#5b9821" d="M0 800H100V900H200V800H300V600H400V800H500V700H600V600H500V500H600V200H500V100H400V200H300V400H200V300H100V400H0ZM700 500H900V400H1000V300H1100V200H1000V100H800V200H700ZM600 600H700V500H600ZM300 1100H500V1200H800V1100H900V1000H800V900H1000V800H1100V700H1000V600H700V700H600V800H700V900H500V1000H300ZM300 900H400V800H300ZM200 1000H300V900H200ZM100 1100H200V1000H100ZM0 1200H100V1100H0Z"/>
  <path fill="#8dc02d" d="M800 300H900V200H800ZM300 500H400V300H300ZM700 400H800V300H700ZM0 700H100V500H0ZM700 800H900V700H700ZM500 1100H700V1000H500Z"/>
</svg>
