<?xml version="1.0" encoding="UTF-8"?>
<svg xmlns="http://www.w3.org/2000/svg" viewBox="0 0 1200 1200" width="1200" height="1200">
  <title>emoji_u1f54d</title>
  <path fill="#875b52" d="M0 800H200V700H300V600H400V700H500V800H800V500H900V1200H1100V600H1000V400H900V300H1000V200H900V100H800V200H700V300H800V400H700V600H600V500H500V400H400V300H300V400H200V500H100V600H0Z"/>
  <path fill="#e4c5b0" d="M0 1200H200V800H500V1200H800V800H1000V400H700V700H600V600H500V500H400V400H300V500H200V600H100V700H0Z"/>
  <path fill="#b79277" d="M700 1200H1000V700H900V500H1000V400H700V500H800V700H700Z"/>
  <path fill="#504644" d="M100 1200H600V700H100Z"/>
  <path fill="#ffd324" d="M100 1100H300V1200H400V1100H600V1000H500V900H600V800H400V700H300V800H100V900H200V1000H100ZM300 1000V900H400V1000Z"/>
  <path fill="#69769c" d="M800 700H900V500H800ZM800 1000H900V800H800Z"/>
</svg>
