<?xml version="1.0" encoding="UTF-8"?>
<svg xmlns="http://www.w3.org/2000/svg" viewBox="0 0 1200 1200" width="1200" height="1200">
  <title>emoji_u1fabd</title>
  <path fill="#abb9bb" d="M0 700H100V800H200V1000H400V700H300V600H200V500H400V300H100V400H0Z"/>
  <path fill="#92989b" d="M200 1000H300V1100H900V1000H1000V900H900V800H1000V700H900V600H1000V500H900V400H1000V300H1100V100H900V200H800V300H600V200H500V300H300V900H200Z"/>
  <path fill="#c7cdd0" d="M200 700H300V1000H900V900H800V800H900V700H800V600H900V500H800V400H900V300H1000V100H800V200H500V400H600V500H500V600H600V700H500V800H600V900H500V800H400V700H500V600H400V500H500V400H400V300H300V400H200Z"/>
  <path fill="#ffffff" d="M800 300H1000V200H800ZM600 400H800V300H600ZM100 700H200V800H300V500H400V400H100Z"/>
  <path fill="#f2f3f5" d="M300 500H400V400H300ZM200 800H300V900H400V600H300V500H200Z"/>
  <path fill="#f0f4f5" d="M600 600H800V500H600ZM600 800H800V700H600Z"/>
</svg>
