<?xml version="1.0" encoding="UTF-8"?>
<svg xmlns="http://www.w3.org/2000/svg" viewBox="0 0 1200 1200" width="1200" height="1200">
  <title>emoji_u2611</title>
  <path fill="#427687" d="M0 1100H100V1200H1000V1100H1100V200H1000V100H900V1000H0Z"/>
  <path fill="#8cafbf" d="M0 1100H1000V100H100V200H0Z"/>
  <path fill="#a0c8d6" d="M200 300H300V200H200ZM100 400H200V300H100Z"/>
  <path fill="#ffffff" d="M800 500H900V400H800ZM700 600H800V500H700ZM200 700H300V600H200ZM600 700H700V600H600ZM300 800H400V700H300ZM500 800H600V700H500ZM400 900H500V800H400Z"/>
  <path fill="#fbf9f9" d="M400 900H500V800H400Z"/>
</svg>
