<?xml version="1.0" encoding="UTF-8"?>
<svg xmlns="http://www.w3.org/2000/svg" viewBox="0 0 1200 1200" width="1200" height="1200">
  <title>emoji_u1facd</title>
  <path fill="#5e6367" d="M400 700H500V800H700V700H800V600H400Z"/>
  <path fill="#696f75" d="M800 600H1100V500H1000V300H800Z"/>
  <path fill="#cdcdce" d="M100 500H200V600H300V700H800V900H600V1000H700V1100H900V1000H1000V600H900V500H400V400H100ZM600 1200H700V1100H600Z"/>
  <path fill="#464c4f" d="M100 500H300V600H800V700H900V900H700V1000H800V1100H900V1000H1000V900H1100V500H900V400H1000V300H1100V100H1000V200H900V300H800V200H300V300H200V400H100Z"/>
  <path fill="#131314" d="M400 400H600V300H400ZM100 500H300V600H500V500H400V400H100Z"/>
  <path fill="#f4f0ef" d="M500 400H700V300H500ZM300 600H800V700H900V800H1000V600H900V500H300Z"/>
</svg>
