<?xml version="1.0" encoding="UTF-8"?>
<svg xmlns="http://www.w3.org/2000/svg" viewBox="0 0 1200 1200" width="1200" height="1200">
  <title>emoji_u1f9d3</title>
  <path fill="#9e9e9e" d="M100 200H200V100H100ZM100 900H200V1100H400V700H500V600H800V1100H1000V900H1100V300H1000V200H900V100H400V200H200V300H100Z"/>
  <path fill="#ffca28" d="M200 900H300V1100H400V1200H800V1100H900V900H1000V700H900V500H800V400H600V500H400V600H300V700H200Z"/>
  <path fill="#e59600" d="M200 900H300V700H200ZM900 900H1000V700H900Z"/>
  <path fill="#795548" d="M400 1000H500V900H400ZM700 1000H800V900H700ZM500 1100H700V1000H500Z"/>
  <path fill="#404040" d="M400 800H500V600H700V800H800V500H400Z"/>
  <path fill="#eda600" d="M400 600H800V500H400Z"/>
</svg>
