<?xml version="1.0" encoding="UTF-8"?>
<svg xmlns="http://www.w3.org/2000/svg" viewBox="0 0 1200 1200" width="1200" height="1200">
  <title>emoji_u1f969</title>
  <path fill="#fea8a6" d="M0 900H100V1000H200V1100H800V1000H1000V900H1100V300H1000V200H900V700H800V800H700V900H500V800H300V700H200V500H0Z"/>
  <path fill="#ff5f5d" d="M0 600H100V700H400V600H500V500H800V400H900V200H700V300H600V400H400V300H100V400H0Z"/>
  <path fill="#fed5b6" d="M100 800H200V900H400V1000H600V900H700V700H800V900H900V800H1000V200H800V300H700V400H400V500H300V600H100ZM0 600H100V500H200V400H400V300H100V400H0Z"/>
  <path fill="#dc0d28" d="M800 300H900V200H800ZM700 400H800V300H700ZM400 1000H800V900H900V600H1000V300H900V400H800V500H700V600H600V800H500V900H400ZM100 500H200V400H100ZM300 700H500V600H600V500H500V400H400V500H300ZM100 800H200V900H400V800H300V700H100Z"/>
  <path fill="#ffffff" d="M600 700H700V800H800V700H900V600H800V500H700V600H600Z"/>
  <path fill="#ffa8a7" d="M700 700H800V600H700Z"/>
</svg>
