<?xml version="1.0" encoding="UTF-8"?>
<svg xmlns="http://www.w3.org/2000/svg" viewBox="0 0 1200 1200" width="1200" height="1200">
  <title>emoji_u1f378</title>
  <path fill="#9e9e9e" d="M300 1200H800V1100H600V900H700V800H800V700H900V600H1000V400H1100V300H800V500H700V600H600V700H500V800H400V900H500V1100H300Z"/>
  <path fill="#bfbfbf" d="M0 400H1100V200H900V100H800V200H0Z"/>
  <path fill="#f8c977" d="M800 200H900V100H800ZM500 500H800V400H900V300H800V200H700V300H500Z"/>
  <path fill="#eaeaea" d="M0 400H100V600H200V700H300V800H400V900H600V800H700V700H500V600H400V500H900V400H1100V300H700V400H600V300H0Z"/>
  <path fill="#e5dda0" d="M200 600H300V700H400V800H700V700H800V600H900V400H200Z"/>
  <path fill="#fef9e5" d="M200 500H400V600H600V500H900V400H200Z"/>
  <path fill="#e3c08f" d="M400 600H600V400H500V500H400Z"/>
  <path fill="#ef3e24" d="M400 700H600V500H400Z"/>
  <path fill="#919f50" d="M400 600H500V700H600V500H400Z"/>
</svg>
