<?xml version="1.0" encoding="UTF-8"?>
<svg xmlns="http://www.w3.org/2000/svg" viewBox="0 0 1200 1200" width="1200" height="1200">
  <title>emoji_u1f1ec_1f1fa</title>
  <path fill="#402666" d="M0 500H1100V300H0ZM0 1000H1100V800H0Z"/>
  <path fill="#352769" d="M0 1000H100V900H200V400H100V300H0ZM900 900H1000V1000H1100V300H1000V400H900Z"/>
  <path fill="#64255a" d="M0 400H100V300H0ZM1000 400H1100V300H1000ZM100 500H200V400H100ZM900 500H1000V400H900ZM100 900H200V800H100ZM900 900H1000V800H900ZM0 1000H100V900H0ZM1000 1000H1100V900H1000Z"/>
  <path fill="#1b2d77" d="M400 600H700V400H400Z"/>
  <path fill="#1d2d73" d="M400 900H700V700H400Z"/>
  <path fill="#00297b" d="M100 900H500V800H600V900H1000V400H600V500H500V400H100Z"/>
  <path fill="#15327d" d="M400 800H600V600H400Z"/>
  <path fill="#1c3479" d="M500 800H700V600H500Z"/>
  <path fill="#1e387f" d="M400 700H600V500H400Z"/>
  <path fill="#213a81" d="M500 700H700V500H500Z"/>
  <path fill="#6baa9c" d="M400 700H700V600H600V500H500V600H400Z"/>
  <path fill="#80958d" d="M400 700H500V800H600V700H700V600H400Z"/>
  <path fill="#47639e" d="M400 700H600V600H400Z"/>
  <path fill="#486097" d="M500 700H700V600H500Z"/>
  <path fill="#9cc1d2" d="M500 700H600V600H500Z"/>
</svg>
