<?xml version="1.0" encoding="UTF-8"?>
<svg xmlns="http://www.w3.org/2000/svg" viewBox="0 0 1200 1200" width="1200" height="1200">
  <title>emoji_u1f1ea_1f1f8</title>
  <path fill="#c60b1e" d="M0 500H1100V300H0ZM0 1000H1100V800H0Z"/>
  <path fill="#d43917" d="M0 600H1100V400H0ZM0 900H1100V700H0Z"/>
  <path fill="#ffc400" d="M0 800H300V500H0ZM400 700H500V800H1100V500H400Z"/>
  <path fill="#b8741b" d="M200 800H500V600H200Z"/>
  <path fill="#ca9021" d="M300 700H400V800H600V600H300Z"/>
  <path fill="#cf8e0b" d="M200 700H500V500H200Z"/>
  <path fill="#da9d1a" d="M200 800H300V700H400V600H300V500H200Z"/>
  <path fill="#ddae1c" d="M300 700H400V600H300ZM200 800H300V700H200Z"/>
  <path fill="#eeb104" d="M300 700H600V600H500V500H400V600H300Z"/>
  <path fill="#fcc201" d="M200 600H300V500H200ZM300 700H400V600H300Z"/>
  <path fill="#ffc300" d="M400 700H500V800H600V600H400Z"/>
  <path fill="#97573c" d="M300 700H500V600H300Z"/>
  <path fill="#c89851" d="M400 700H600V600H400Z"/>
  <path fill="#fec300" d="M500 700H600V600H500Z"/>
</svg>
