<?xml version="1.0" encoding="UTF-8"?>
<svg xmlns="http://www.w3.org/2000/svg" viewBox="0 0 1200 1200" width="1200" height="1200">
  <title>emoji_u1f630</title>
  <path fill="#eb8f00" d="M0 800H200V400H300V300H800V400H900V900H800V1000H100V1100H200V1200H900V1100H1000V1000H1100V300H1000V200H900V100H200V200H100V300H0Z"/>
  <path fill="#44b3e6" d="M0 1000H100V1100H300V900H400V600H300V500H100V700H0Z"/>
  <path fill="#87a4bd" d="M100 600H1000V300H900V100H800V200H700V100H600V200H500V100H400V200H300V100H200V300H100Z"/>
  <path fill="#fde030" d="M100 600H200V700H300V800H200V1100H900V1000H1000V300H900V500H800V200H700V500H600V200H500V500H400V200H300V500H200V300H100Z"/>
  <path fill="#81d4fa" d="M200 1000H400V900H300V800H200Z"/>
  <path fill="#422b0d" d="M300 400H400V300H300ZM700 400H800V300H700ZM300 700H400V500H300ZM700 700H800V500H700ZM300 1000H800V900H700V800H400V900H300Z"/>
</svg>
