<?xml version="1.0" encoding="UTF-8"?>
<svg xmlns="http://www.w3.org/2000/svg" viewBox="0 0 1200 1200" width="1200" height="1200">
  <title>emoji_u1f64f_1f3fd</title>
  <path fill="#9a6648" d="M100 900H200V1000H300V1100H400V1000H500V800H600V1000H700V1100H800V1000H900V900H1000V700H900V600H800V200H700V100H600V500H700V700H400V500H500V100H400V200H300V600H200V700H100Z"/>
  <path fill="#2686c6" d="M0 1000H100V1100H200V1200H300V1100H400V900H300V800H200V700H100V800H0ZM300 800H400V700H300ZM700 800H800V700H700ZM700 1100H800V1200H900V1100H1000V1000H1100V800H1000V700H900V800H800V900H700Z"/>
  <path fill="#62392b" d="M300 700H400V800H700V700H800V400H700V100H400V400H300Z"/>
  <path fill="#ba8d68" d="M400 300H500V200H400ZM600 300H700V200H600ZM300 800H500V400H400V600H300ZM600 800H800V600H700V400H600Z"/>
</svg>
