<?xml version="1.0" encoding="UTF-8"?>
<svg xmlns="http://www.w3.org/2000/svg" viewBox="0 0 1200 1200" width="1200" height="1200">
  <title>emoji_u1f1ee_1f1f1</title>
  <path fill="#a8bbe7" d="M0 500H1100V300H0ZM0 1000H1100V800H0Z"/>
  <path fill="#3f69ca" d="M0 600H1100V400H0ZM0 900H1100V700H0Z"/>
  <path fill="#ffffff" d="M0 800H500V500H0ZM600 800H1100V500H600Z"/>
  <path fill="#c5d2ef" d="M400 800H700V500H400Z"/>
  <path fill="#6d8dd6" d="M400 700H500V800H600V700H700V600H600V500H500V600H400Z"/>
  <path fill="#7996da" d="M400 700H700V600H400Z"/>
  <path fill="#edf1fa" d="M500 700H600V600H500Z"/>
</svg>
