<?xml version="1.0" encoding="UTF-8"?>
<svg xmlns="http://www.w3.org/2000/svg" viewBox="0 0 1200 1200" width="1200" height="1200">
  <title>emoji_u1f1e6_1f1f7</title>
  <path fill="#74acdf" d="M0 600H1100V300H0ZM0 1000H1100V700H0Z"/>
  <path fill="#d0e3f4" d="M0 800H500V500H0ZM600 800H1100V500H600Z"/>
  <path fill="#ffffff" d="M0 700H400V800H500V500H400V600H0ZM600 800H700V700H1100V600H700V500H600Z"/>
  <path fill="#cfe0f0" d="M400 800H700V500H400Z"/>
  <path fill="#c4cacc" d="M400 700H500V800H600V700H700V600H600V500H500V600H400Z"/>
  <path fill="#f3e7d8" d="M400 700H700V600H400Z"/>
  <path fill="#d49528" d="M500 700H600V600H500Z"/>
</svg>
