<?xml version="1.0" encoding="UTF-8"?>
<svg xmlns="http://www.w3.org/2000/svg" viewBox="0 0 1200 1200" width="1200" height="1200">
  <title>emoji_u1f9ce_1f3fb_200d_2642</title>
  <path fill="#7c7c7c" d="M200 1200H400V900H600V1000H700V700H300V1100H200Z"/>
  <path fill="#616161" d="M600 1200H900V1100H700V900H600Z"/>
  <path fill="#4568ac" d="M200 1200H400V1100H200ZM800 1200H900V1100H800Z"/>
  <path fill="#312d2d" d="M400 300H500V400H700V100H400Z"/>
  <path fill="#00b49c" d="M400 800H700V300H400V400H500V700H400Z"/>
  <path fill="#f9ddbd" d="M400 400H700V300H600V200H400ZM500 700H600V500H500ZM300 800H500V700H300Z"/>
</svg>
