<?xml version="1.0" encoding="UTF-8"?>
<svg xmlns="http://www.w3.org/2000/svg" viewBox="0 0 1200 1200" width="1200" height="1200">
  <title>emoji_u1f425</title>
  <path fill="#fe8f01" d="M0 800H200V900H300V1000H400V1100H300V1200H500V1000H600V1200H800V1100H700V1000H800V900H900V800H1100V600H900V500H700V400H400V500H200V600H0Z"/>
  <path fill="#ffb903" d="M0 700H300V800H200V900H300V1000H800V900H900V800H800V700H1100V600H1000V500H900V300H800V200H700V100H400V200H300V300H200V500H100V600H0ZM500 600V500H600V600ZM300 700V600H400V700ZM700 700V600H800V700Z"/>
  <path fill="#2e302d" d="M400 400H500V300H400ZM600 400H700V300H600Z"/>
</svg>
