<?xml version="1.0" encoding="UTF-8"?>
<svg xmlns="http://www.w3.org/2000/svg" viewBox="0 0 1200 1200" width="1200" height="1200">
  <title>emoji_u1fac6</title>
  <path fill="#004fac" d="M0 900H100V1000H200V1100H300V1200H900V1100H1100V400H1000V300H900V200H800V100H200V200H100V300H0Z"/>
  <path fill="#b1e4ff" d="M0 500H100V900H200V1100H300V1200H700V1000H800V1200H1100V1000H900V900H1100V800H1000V700H1100V500H1000V400H900V300H800V200H500V100H400V200H200V300H100V400H0ZM200 600V400H300V300H700V400H800V500H900V600H1000V700H900V600H800V500H700V400H300V600ZM400 700V500H600V600H700V700H600V800H700V1000H600V800H500V700ZM200 800V700H300V800H400V900H500V1100H400V900H300V800ZM800 900V800H900V900ZM500 700H600V600H500Z"/>
</svg>
