<?xml version="1.0" encoding="UTF-8"?>
<svg xmlns="http://www.w3.org/2000/svg" viewBox="0 0 1200 1200" width="1200" height="1200">
  <title>emoji_u1f386</title>
  <path fill="#161a2e" d="M0 300H200V100H0ZM900 300H1100V100H900ZM0 1200H200V1000H0ZM900 1200H1100V1000H900Z"/>
  <path fill="#13203d" d="M0 300H300V100H100V200H0ZM800 300H900V400H1100V200H1000V100H800ZM0 1100H100V1200H300V1000H200V900H0ZM800 1200H1000V1100H1100V900H900V1000H800Z"/>
  <path fill="#141f3a" d="M0 500H200V400H300V300H400V100H200V200H0ZM700 300H900V500H1100V300H1000V200H900V100H700ZM0 1000H100V1100H200V1200H400V1000H300V900H200V800H0ZM700 1200H900V1100H1000V1000H1100V800H900V900H800V1000H700Z"/>
  <path fill="#11274a" d="M0 600H200V400H400V100H300V200H200V300H100V400H0ZM600 300H800V500H900V600H1100V400H1000V200H800V100H600ZM0 900H100V1000H200V1100H300V1200H500V1000H400V900H200V700H0ZM600 1200H800V1100H900V1000H1000V900H1100V700H900V800H800V1000H600Z"/>
  <path fill="#fde366" d="M300 300H500V100H300ZM700 400H800V700H1100V500H1000V400H900V300H1000V200H700ZM0 700H300V400H100V500H0ZM100 1000H300V800H100ZM400 1200H700V1000H400Z"/>
  <path fill="#0c3162" d="M100 500H200V600H300V500H400V300H600V400H700V500H800V600H900V500H1000V400H900V300H800V200H700V100H400V200H300V300H100ZM900 300H1000V200H900ZM0 800H100V900H200V1000H300V1100H400V1200H500V1100H600V1200H700V1100H900V900H1000V800H1100V500H1000V600H900V800H700V900H600V1000H400V800H200V600H100V500H0Z"/>
  <path fill="#fffefd" d="M400 400H700V200H600V100H500V200H400ZM0 300H100V200H0ZM900 300H1000V200H900ZM100 400H200V300H100ZM800 900H1000V700H800ZM300 1100H500V900H300ZM700 1000H800V900H700ZM800 1100H900V1000H800Z"/>
  <path fill="#093972" d="M500 200H600V100H500ZM0 700H100V900H300V1000H400V1100H700V1000H800V900H900V800H1000V700H1100V600H900V400H800V300H700V200H600V300H500V200H300V400H200V600H0ZM100 400H200V300H100Z"/>
  <path fill="#ff7e8a" d="M300 300H400V200H300ZM100 400H200V300H100ZM400 500H700V300H400ZM100 700H200V800H300V1000H500V800H400V600H100ZM600 1000H800V800H900V700H1000V600H700V800H600ZM100 900H200V800H100Z"/>
  <path fill="#e86ece" d="M600 500H700V700H1000V600H900V500H800V300H600ZM100 700H400V400H300V500H200V600H100ZM400 1000H500V1100H600V1000H700V900H400Z"/>
  <path fill="#05438a" d="M300 600H500V500H600V600H800V400H700V300H600V400H500V300H400V400H300ZM100 700H300V600H100ZM800 700H1000V600H800ZM300 900H400V1000H700V900H800V700H600V800H500V700H300Z"/>
  <path fill="#034893" d="M200 700H300V800H400V900H500V1000H600V900H700V800H800V700H900V600H800V500H700V400H400V500H300V600H200Z"/>
  <path fill="#fffffd" d="M400 700H500V800H600V700H700V600H600V500H500V600H400Z"/>
</svg>
