<?xml version="1.0" encoding="UTF-8"?>
<svg xmlns="http://www.w3.org/2000/svg" viewBox="0 0 1200 1200" width="1200" height="1200">
  <title>emoji_u1f618</title>
  <path fill="#eb8f00" d="M0 1000H100V1100H200V1200H900V1100H1000V1000H1100V300H1000V200H900V100H200V200H100V300H0Z"/>
  <path fill="#c62828" d="M800 1100H900V1000H1000V900H1100V700H1000V600H900V800H800Z"/>
  <path fill="#e53935" d="M700 1000H900V900H1000V700H700Z"/>
  <path fill="#fde030" d="M100 1000H200V1100H900V900H800V800H1000V300H900V200H200V300H100Z"/>
  <path fill="#422b0d" d="M300 300H400V200H300ZM200 400H300V300H200ZM700 400H800V300H700ZM300 600H400V400H300ZM600 500H700V400H600ZM700 600H800V500H700ZM500 800H600V700H500ZM600 900H700V800H600ZM500 1000H600V900H500Z"/>
  <path fill="#ef5350" d="M800 800H900V700H800Z"/>
</svg>
