<?xml version="1.0" encoding="UTF-8"?>
<svg xmlns="http://www.w3.org/2000/svg" viewBox="0 0 1200 1200" width="1200" height="1200">
  <title>emoji_u1f4de</title>
  <path fill="#757575" d="M800 1000H1100V900H1000V800H900V700H800Z"/>
  <path fill="#616161" d="M0 500H100V700H200V800H300V900H400V1000H500V1100H700V1200H900V1100H1000V1000H1100V900H900V700H800V800H600V700H500V600H400V400H500V300H400V200H300V100H200V200H100V300H0Z"/>
  <path fill="#424242" d="M0 600H100V800H200V900H300V1000H400V1100H600V1200H900V1100H1000V900H900V800H800V900H700V1000H600V900H500V800H400V700H300V600H200V500H300V400H400V300H300V200H100V300H200V400H100V300H0ZM800 1100V1000H900V1100Z"/>
</svg>
