<?xml version="1.0" encoding="UTF-8"?>
<svg xmlns="http://www.w3.org/2000/svg" viewBox="0 0 1200 1200" width="1200" height="1200">
  <title>emoji_u1f570</title>
  <path fill="#563428" d="M0 1100H300V1000H400V900H100V1000H0ZM700 1000H800V1100H1100V1000H1000V900H700Z"/>
  <path fill="#ba793e" d="M200 600H400V500H500V400H600V200H400V300H300V400H200ZM100 1000H1000V800H100Z"/>
  <path fill="#8b5738" d="M100 900H1000V800H900V400H800V300H700V200H500V300H400V400H600V500H700V600H600V700H500V600H400V400H300V500H200V800H100Z"/>
  <path fill="#ffe36c" d="M300 600H500V500H600V300H400V400H300Z"/>
  <path fill="#e2a610" d="M300 700H400V800H700V700H800V400H700V300H500V400H400V500H300Z"/>
  <path fill="#3e2723" d="M400 700H700V400H600V300H500V400H400Z"/>
  <path fill="#fcebcd" d="M400 500H500V400H400ZM400 700H700V400H600V600H400Z"/>
</svg>
