<?xml version="1.0" encoding="UTF-8"?>
<svg xmlns="http://www.w3.org/2000/svg" viewBox="0 0 1200 1200" width="1200" height="1200">
  <title>emoji_u1f198</title>
  <path fill="#cc3333" d="M900 700H1100V200H1000V100H900ZM0 1100H100V1200H1000V1100H1100V800H900V1000H0Z"/>
  <path fill="#f44336" d="M0 1100H1000V900H1100V600H1000V500H1100V400H1000V100H100V200H0Z"/>
  <path fill="#fafafa" d="M0 900H300V600H100V500H300V400H200V300H100V400H0V700H200V800H0ZM400 900H700V400H400ZM500 800V500H600V800ZM800 900H1100V600H900V500H1100V400H800V700H1000V800H800Z"/>
  <path fill="#ff8a80" d="M200 300H300V200H200ZM100 400H200V300H100Z"/>
</svg>
