<?xml version="1.0" encoding="UTF-8"?>
<svg xmlns="http://www.w3.org/2000/svg" viewBox="0 0 1200 1200" width="1200" height="1200">
  <title>emoji_u1f95f</title>
  <path fill="#ffe5b2" d="M0 600H400V500H700V600H1100V400H1000V300H900V200H700V100H400V200H200V300H100V400H0ZM0 1000H100V1100H300V1000H400V1100H700V1000H800V1100H1100V800H1000V700H700V600H400V700H100V800H0Z"/>
  <path fill="#face90" d="M100 400H200V300H100ZM400 400H700V300H400ZM900 400H1000V300H900ZM200 500H300V400H200ZM800 500H900V400H800ZM300 600H400V500H300ZM700 600H800V500H700ZM200 900H300V800H200ZM400 900H700V800H400ZM800 900H900V800H800ZM300 1000H400V900H300ZM700 1000H800V900H700Z"/>
  <path fill="#ffffff" d="M400 400H500V300H400ZM600 400H700V300H600ZM400 900H500V800H400ZM600 900H700V800H600Z"/>
</svg>
