<?xml version="1.0" encoding="UTF-8"?>
<svg xmlns="http://www.w3.org/2000/svg" viewBox="0 0 1200 1200" width="1200" height="1200">
  <title>emoji_u1f1fb_1f1ea</title>
  <path fill="#cf142b" d="M0 1000H1100V700H0Z"/>
  <path fill="#ffcc00" d="M0 600H1100V300H0Z"/>
  <path fill="#00247d" d="M0 800H400V500H0ZM700 800H1100V500H700Z"/>
  <path fill="#565d53" d="M0 600H300V700H500V500H0ZM600 700H800V600H1100V500H600Z"/>
  <path fill="#461f61" d="M0 800H1100V700H800V600H300V700H0Z"/>
  <path fill="#5e346e" d="M300 800H400V700H500V600H300ZM600 700H700V800H800V600H600Z"/>
  <path fill="#5f6457" d="M300 700H800V600H700V500H400V600H300Z"/>
  <path fill="#818269" d="M400 700H700V600H600V500H500V600H400Z"/>
  <path fill="#153688" d="M300 700H800V600H300Z"/>
  <path fill="#193a8a" d="M300 700H400V600H300ZM700 700H800V600H700Z"/>
  <path fill="#03267e" d="M500 700H600V600H500Z"/>
</svg>
