<?xml version="1.0" encoding="UTF-8"?>
<svg xmlns="http://www.w3.org/2000/svg" viewBox="0 0 1200 1200" width="1200" height="1200">
  <title>emoji_u1f5e1</title>
  <path fill="#693928" d="M600 500H700V600H900V400H1000V300H1100V200H1000V100H900V200H800V300H600Z"/>
  <path fill="#82aec0" d="M0 1200H200V1100H300V1000H400V900H500V800H700V700H900V500H500V600H400V700H300V800H200V900H100V1000H0Z"/>
  <path fill="#9e740b" d="M900 300H1100V100H900ZM400 300H500V500H700V600H800V700H900V800H1000V600H900V500H800V400H700V300H600V200H400ZM800 400H900V300H800Z"/>
  <path fill="#e2a610" d="M900 200H1000V100H900ZM400 300H500V200H400ZM1000 300H1100V200H1000ZM500 600H800V400H600V300H500ZM800 700H900V600H800ZM900 800H1000V700H900Z"/>
  <path fill="#c9e3e6" d="M0 1200H100V1100H200V1000H300V900H400V800H500V700H600V600H700V500H600V400H500V500H400V700H300V800H200V900H100V1000H0ZM700 500H800V400H700Z"/>
  <path fill="#1e4ea6" d="M800 400H900V300H800ZM700 500H800V400H700Z"/>
  <path fill="#a65f3e" d="M800 400H900V300H800Z"/>
</svg>
