<?xml version="1.0" encoding="UTF-8"?>
<svg xmlns="http://www.w3.org/2000/svg" viewBox="0 0 1200 1200" width="1200" height="1200">
  <title>emoji_u1f170</title>
  <path fill="#cc3333" d="M0 1100H100V1200H1000V1100H1100V200H1000V100H900V1000H0Z"/>
  <path fill="#f44336" d="M0 1100H1000V100H100V200H0Z"/>
  <path fill="#ff8a80" d="M200 300H300V200H200ZM100 400H200V300H100Z"/>
  <path fill="#fafafa" d="M500 400H600V300H500ZM400 600H500V400H400ZM600 600H700V400H600ZM300 1000H400V800H700V1000H800V600H700V700H400V600H300Z"/>
</svg>
