<?xml version="1.0" encoding="UTF-8"?>
<svg xmlns="http://www.w3.org/2000/svg" viewBox="0 0 1200 1200" width="1200" height="1200">
  <title>emoji_u1f628</title>
  <path fill="#eb8f00" d="M0 1000H100V1100H200V1200H900V1100H1000V1000H1100V300H1000V200H900V100H200V200H100V300H0Z"/>
  <path fill="#87a4bd" d="M100 600H1000V200H800V100H700V200H600V100H500V200H400V100H300V200H100Z"/>
  <path fill="#fde030" d="M100 1000H200V1100H900V1000H1000V500H900V200H800V300H700V200H600V500H500V200H400V300H300V200H200V500H100ZM300 500V400H400V500ZM700 500V400H800V500Z"/>
  <path fill="#422b0d" d="M200 400H400V300H200ZM700 400H900V300H700ZM300 700H400V500H300ZM700 700H800V500H700ZM300 1000H800V900H700V800H400V900H300Z"/>
</svg>
