<?xml version="1.0" encoding="UTF-8"?>
<svg xmlns="http://www.w3.org/2000/svg" viewBox="0 0 1200 1200" width="1200" height="1200">
  <title>emoji_u1f92f</title>
  <path fill="#eb8f00" d="M0 1000H100V1100H200V1200H900V1100H1000V1000H1100V700H1000V600H900V900H800V1000H300V900H200V600H100V700H0Z"/>
  <path fill="#45f9ff" d="M0 600H100V500H200V400H0ZM100 700H200V600H100Z"/>
  <path fill="#4bff17" d="M0 300H100V400H200V200H100V100H0Z"/>
  <path fill="#5c5cff" d="M900 300H1100V100H900Z"/>
  <path fill="#ffea5c" d="M900 500H1000V600H1100V400H1000V300H900Z"/>
  <path fill="#f15a24" d="M0 200H100V100H0ZM700 700H800V800H1000V600H900V500H1000V300H1100V200H1000V100H900V200H800V300H700ZM0 500H200V600H100V800H300V700H400V300H300V200H100V400H0ZM1000 600H1100V500H1000Z"/>
  <path fill="#d2edf7" d="M200 400H300V600H700V500H800V400H900V200H800V100H300V200H200Z"/>
  <path fill="#78c0e8" d="M600 300H700V100H600ZM800 400H900V200H800ZM200 400H300V300H200ZM500 400H600V300H500ZM200 700H400V800H700V700H900V600H800V400H600V500H400V400H300V600H200Z"/>
  <path fill="#fde030" d="M100 1000H200V1100H900V1000H1000V700H900V600H800V800H700V600H600V700H500V600H400V800H300V600H200V700H100Z"/>
  <path fill="#422b0d" d="M200 900H500V600H200ZM600 900H900V600H600ZM400 1100H700V1000H400Z"/>
  <path fill="#ffffff" d="M200 900H500V500H400V600H200ZM300 800V700H400V800ZM600 900H900V600H700V500H600ZM700 800V700H800V800Z"/>
  <path fill="#039be5" d="M400 600H500V500H400ZM600 600H700V500H600Z"/>
</svg>
