<?xml version="1.0" encoding="UTF-8"?>
<svg xmlns="http://www.w3.org/2000/svg" viewBox="0 0 1200 1200" width="1200" height="1200">
  <title>emoji_u1f9ba</title>
  <path fill="#616161" d="M0 1200H500V1100H600V1200H1100V600H1000V400H900V200H800V100H700V500H800V700H900V1000H200V700H300V500H400V100H300V200H200V400H100V600H0Z"/>
  <path fill="#e64a19" d="M300 500H400V1100H700V500H800V100H300Z"/>
  <path fill="#ffff00" d="M100 1100H500V400H400V100H300V400H200V600H100ZM600 1100H1000V600H900V400H800V100H700V400H600Z"/>
  <path fill="#ff9100" d="M100 700H300V400H200V600H100ZM400 700H500V400H400ZM600 700H700V400H600ZM800 700H1000V600H900V400H800ZM100 900H500V800H100ZM600 900H1000V800H600ZM100 1100H500V1000H100ZM600 1100H1000V1000H600Z"/>
</svg>
