<?xml version="1.0" encoding="UTF-8"?>
<svg xmlns="http://www.w3.org/2000/svg" viewBox="0 0 1200 1200" width="1200" height="1200">
  <title>emoji_u1f692</title>
  <path fill="#d60d29" d="M100 500H400V200H300V300H100Z"/>
  <path fill="#b0b0b0" d="M200 500H1100V400H1000V200H1100V100H300V400H200ZM400 400V200H500V400ZM600 400V200H700V400ZM800 400V200H900V400ZM0 1100H200V700H0ZM400 1100H700V900H400ZM900 1100H1100V900H900Z"/>
  <path fill="#4e433d" d="M100 1100H200V1200H400V1100H500V1000H600V1100H700V1200H900V1100H1000V1000H1100V900H1000V800H600V900H500V800H100Z"/>
  <path fill="#afe3fb" d="M0 800H300V700H600V400H100V700H0Z"/>
  <path fill="#ff2a23" d="M0 800H100V1000H200V900H400V1000H700V900H900V1000H1100V400H100V500H300V600H200V700H0ZM400 600V500H500V600ZM200 1100H400V1000H200ZM700 1100H900V1000H700Z"/>
  <path fill="#f2eeea" d="M400 900H500V1000H600V800H1100V700H600V600H500V800H400Z"/>
  <path fill="#c8c8c8" d="M200 1100H400V1000H200ZM700 1100H900V1000H700Z"/>
  <path fill="#5f6165" d="M400 700H500V800H600V500H500V600H400ZM200 700H300V600H200ZM100 800H200V700H100Z"/>
  <path fill="#b60f27" d="M500 1000H600V400H500Z"/>
</svg>
