<?xml version="1.0" encoding="UTF-8"?>
<svg xmlns="http://www.w3.org/2000/svg" viewBox="0 0 1200 1200" width="1200" height="1200">
  <title>emoji_u1f441</title>
  <path fill="#616161" d="M0 800H200V700H300V600H400V500H700V600H800V700H900V800H1100V600H1000V500H900V400H800V300H300V400H200V500H100V600H0Z"/>
  <path fill="#b0bec5" d="M0 800H100V900H200V1000H900V900H1000V800H1100V700H1000V600H900V500H800V400H600V600H700V700H800V800H300V700H400V600H500V400H300V500H200V600H100V700H0Z"/>
  <path fill="#fafafa" d="M100 800H200V900H500V700H400V500H300V600H100ZM600 900H900V800H1000V600H800V500H700V700H600Z"/>
  <path fill="#806451" d="M300 700H500V600H600V700H800V500H700V400H400V500H300Z"/>
  <path fill="#9c7a63" d="M300 800H400V900H700V800H800V600H700V500H400V600H300Z"/>
  <path fill="#212121" d="M500 800H600V500H500Z"/>
  <path fill="#d9baa5" d="M700 700H800V600H700Z"/>
</svg>
