<?xml version="1.0" encoding="UTF-8"?>
<svg xmlns="http://www.w3.org/2000/svg" viewBox="0 0 1200 1200" width="1200" height="1200">
  <title>emoji_u1f1ea_1f1f7</title>
  <path fill="#c81f35" d="M0 500H200V300H0Z"/>
  <path fill="#cf1951" d="M0 1000H200V800H0Z"/>
  <path fill="#13ac2b" d="M200 500H500V300H200Z"/>
  <path fill="#3e8b2d" d="M100 500H400V400H300V300H100Z"/>
  <path fill="#4289dc" d="M200 1000H500V800H200Z"/>
  <path fill="#636ebb" d="M100 1000H300V900H400V800H100Z"/>
  <path fill="#666c6c" d="M900 800H1100V500H900Z"/>
  <path fill="#835531" d="M0 500H300V400H200V300H100V400H0Z"/>
  <path fill="#994486" d="M0 900H100V1000H200V900H300V800H0Z"/>
  <path fill="#12ad2b" d="M300 500H600V600H900V700H1000V600H1100V300H400V400H300Z"/>
  <path fill="#4189dd" d="M300 900H400V1000H1100V700H1000V600H900V700H600V800H300Z"/>
  <path fill="#ea0437" d="M0 900H200V400H0ZM400 900H700V800H1000V500H700V400H400Z"/>
  <path fill="#14ab2b" d="M500 500H600V600H800V500H700V400H500Z"/>
  <path fill="#18a92b" d="M800 600H900V700H1000V500H800Z"/>
  <path fill="#4387db" d="M500 900H700V800H800V700H600V800H500Z"/>
  <path fill="#4585d9" d="M800 800H1000V600H900V700H800Z"/>
  <path fill="#47832e" d="M400 600H500V500H600V400H400ZM600 600H700V500H600Z"/>
  <path fill="#6b68b4" d="M400 900H600V800H500V700H400ZM600 800H700V700H600Z"/>
  <path fill="#8c4d32" d="M300 600H500V400H300Z"/>
  <path fill="#a13e7f" d="M300 900H500V700H300Z"/>
  <path fill="#d33033" d="M200 600H500V500H400V400H200Z"/>
  <path fill="#d5153f" d="M800 600H900V500H800ZM900 700H1000V600H900ZM800 800H900V700H800Z"/>
  <path fill="#d71b4a" d="M200 900H400V800H500V700H200Z"/>
  <path fill="#ea0537" d="M100 900H300V700H100Z"/>
  <path fill="#ea0837" d="M100 600H300V400H100Z"/>
  <path fill="#ef3233" d="M100 600H400V500H300V400H200V500H100Z"/>
  <path fill="#f03932" d="M100 800H200V900H300V800H400V700H100Z"/>
  <path fill="#f24b31" d="M100 700H300V500H100Z"/>
  <path fill="#f24d31" d="M100 800H300V500H200V600H100Z"/>
  <path fill="#f35730" d="M100 800H300V700H500V500H200V700H100Z"/>
  <path fill="#517c2e" d="M700 600H900V500H700Z"/>
  <path fill="#7263ad" d="M700 800H900V700H700Z"/>
  <path fill="#954632" d="M600 600H800V500H600Z"/>
  <path fill="#a83878" d="M600 800H800V700H600Z"/>
  <path fill="#d81236" d="M600 600H700V500H600Z"/>
  <path fill="#dc0f45" d="M600 800H700V700H600Z"/>
  <path fill="#eb0d36" d="M300 800H500V600H300Z"/>
  <path fill="#eb1136" d="M300 700H500V500H400V600H300Z"/>
  <path fill="#f35a30" d="M200 700H400V600H300V500H200Z"/>
  <path fill="#f45f2f" d="M200 800H400V600H200Z"/>
  <path fill="#f4602f" d="M200 800H400V600H300V700H200Z"/>
  <path fill="#f56a2e" d="M300 800H400V700H500V600H300Z"/>
  <path fill="#ed2334" d="M300 700H500V600H300Z"/>
  <path fill="#f03832" d="M300 700H400V600H300Z"/>
</svg>
