<?xml version="1.0" encoding="UTF-8"?>
<svg xmlns="http://www.w3.org/2000/svg" viewBox="0 0 1200 1200" width="1200" height="1200">
  <title>emoji_u1f1f2_1f1fe</title>
  <path fill="#010066" d="M0 700H200V300H0ZM300 500H600V300H300Z"/>
  <path fill="#050364" d="M200 500H500V400H400V300H200Z"/>
  <path fill="#271f57" d="M100 500H400V400H300V300H100Z"/>
  <path fill="#2c2255" d="M100 500H300V400H200V300H100Z"/>
  <path fill="#e57f80" d="M500 700H1100V300H500Z"/>
  <path fill="#e68080" d="M0 1000H1100V600H0Z"/>
  <path fill="#733f72" d="M400 700H700V600H600V300H500V400H400Z"/>
  <path fill="#020166" d="M0 700H200V500H100V600H0ZM300 700H600V600H500V500H300Z"/>
  <path fill="#e67f80" d="M500 700H1100V600H500Z"/>
  <path fill="#2d2355" d="M100 700H300V500H100Z"/>
  <path fill="#725b39" d="M100 600H200V700H300V400H100Z"/>
  <path fill="#735b38" d="M100 500H200V600H300V400H100Z"/>
  <path fill="#b4901e" d="M200 600H500V400H200Z"/>
  <path fill="#110d5f" d="M300 700H400V600H500V400H400V500H300ZM500 700H600V600H500Z"/>
  <path fill="#1f185a" d="M200 700H400V500H300V400H200Z"/>
  <path fill="#261e58" d="M200 700H400V500H300V600H200Z"/>
  <path fill="#b5911e" d="M300 700H400V500H300Z"/>
  <path fill="#060465" d="M300 700H400V600H300Z"/>
  <path fill="#744073" d="M500 700H600V600H500Z"/>
</svg>
