<?xml version="1.0" encoding="UTF-8"?>
<svg xmlns="http://www.w3.org/2000/svg" viewBox="0 0 1200 1200" width="1200" height="1200">
  <title>emoji_u1f44a_1f3fe</title>
  <path fill="#824624" d="M100 800H200V900H400V800H500V1000H600V1100H1000V1000H1100V600H300V300H1100V200H1000V100H200V200H100Z"/>
  <path fill="#422319" d="M300 700H400V800H500V900H1000V1000H1100V200H900V300H300ZM500 800V700H700V800ZM800 800V700H1000V800ZM200 900H400V800H200ZM900 1100H1000V1000H900Z"/>
  <path fill="#a56c43" d="M200 700H400V400H500V700H700V400H800V700H1000V200H200Z"/>
</svg>
