<?xml version="1.0" encoding="UTF-8"?>
<svg xmlns="http://www.w3.org/2000/svg" viewBox="0 0 1200 1200" width="1200" height="1200">
  <title>emoji_u1f4a2</title>
  <path fill="#f44336" d="M200 200H300V100H200ZM800 200H900V100H800ZM300 300H400V200H300ZM700 300H800V200H700ZM0 400H100V300H0ZM400 400H700V300H400ZM1000 400H1100V300H1000ZM100 500H200V400H100ZM900 500H1000V400H900ZM200 800H300V500H200ZM800 800H900V500H800ZM100 900H200V800H100ZM900 900H1000V800H900ZM0 1000H100V900H0ZM400 1000H700V900H400ZM1000 1000H1100V900H1000ZM300 1100H400V1000H300ZM700 1100H800V1000H700ZM200 1200H300V1100H200ZM800 1200H900V1100H800Z"/>
</svg>
