<?xml version="1.0" encoding="UTF-8"?>
<svg xmlns="http://www.w3.org/2000/svg" viewBox="0 0 1200 1200" width="1200" height="1200">
  <title>emoji_u1f3d2</title>
  <path fill="#9a9a9a" d="M800 1200H1100V1000H800Z"/>
  <path fill="#5e6367" d="M300 300H400V400H700V300H800V200H700V100H400V200H300ZM800 1100H1100V1000H800Z"/>
  <path fill="#ffa828" d="M0 1100H100V1200H600V1100H700V700H400V900H0Z"/>
  <path fill="#fc2929" d="M400 700H700V300H400Z"/>
  <path fill="#5d6365" d="M400 800H500V900H600V800H700V600H400Z"/>
  <path fill="#dfe0e0" d="M400 700H700V600H400Z"/>
  <path fill="#f08a34" d="M500 1000H600V800H500Z"/>
</svg>
