<?xml version="1.0" encoding="UTF-8"?>
<svg xmlns="http://www.w3.org/2000/svg" viewBox="0 0 1200 1200" width="1200" height="1200">
  <title>emoji_u1f1f3_1f1f7</title>
  <path fill="#012c7f" d="M100 1000H400V800H100Z"/>
  <path fill="#002b7f" d="M0 1000H200V900H300V1000H1100V300H0Z"/>
  <path fill="#938447" d="M0 700H100V800H400V700H1100V600H0Z"/>
  <path fill="#022d80" d="M100 800H200V900H300V600H200V700H100Z"/>
  <path fill="#345699" d="M200 900H400V700H200Z"/>
  <path fill="#8c9fc5" d="M200 900H300V800H400V700H200Z"/>
  <path fill="#4161a0" d="M200 800H400V600H200Z"/>
  <path fill="#968648" d="M200 800H300V700H400V600H200Z"/>
  <path fill="#a2b1d0" d="M300 700H400V600H300ZM200 800H300V700H200Z"/>
  <path fill="#938547" d="M300 700H400V600H300Z"/>
</svg>
