<?xml version="1.0" encoding="UTF-8"?>
<svg xmlns="http://www.w3.org/2000/svg" viewBox="0 0 1200 1200" width="1200" height="1200">
  <title>emoji_u1f6b8</title>
  <path fill="#f2a600" d="M400 1100H500V1200H600V1100H700V1000H800V900H900V800H1000V700H1100V600H1000V500H900V400H800V300H700V200H600V100H500V200H400V300H500V400H600V500H700V600H800V700H700V800H600V900H500V1000H400Z"/>
  <path fill="#ffcc32" d="M0 700H100V800H200V900H300V1000H400V1100H600V1000H700V900H800V800H900V700H1000V600H900V500H800V400H700V300H600V200H400V300H300V400H200V500H100V600H0Z"/>
  <path fill="#fff170" d="M400 400H500V300H400ZM300 500H400V400H300ZM400 600H500V500H400ZM100 700H200V600H100Z"/>
  <path fill="#383838" d="M600 500H700V400H600ZM400 600H500V500H400ZM300 800H400V900H500V800H600V900H700V700H800V600H600V700H300Z"/>
</svg>
