<?xml version="1.0" encoding="UTF-8"?>
<svg xmlns="http://www.w3.org/2000/svg" viewBox="0 0 1200 1200" width="1200" height="1200">
  <title>emoji_u1f1f1_1f1fe</title>
  <path fill="#239e46" d="M0 1000H1100V800H0Z"/>
  <path fill="#e70013" d="M0 500H1100V300H0Z"/>
  <path fill="#1a7735" d="M0 900H1100V700H0Z"/>
  <path fill="#ae000e" d="M0 600H1100V400H0Z"/>
  <path fill="#000000" d="M0 800H500V500H0ZM600 800H1100V500H600Z"/>
  <path fill="#010101" d="M400 800H700V500H400Z"/>
  <path fill="#212121" d="M400 700H500V800H600V700H700V600H600V500H500V600H400Z"/>
  <path fill="#1b1b1b" d="M400 700H700V600H400Z"/>
  <path fill="#242424" d="M400 700H500V600H400Z"/>
  <path fill="#595959" d="M600 700H700V600H600Z"/>
</svg>
