<?xml version="1.0" encoding="UTF-8"?>
<svg xmlns="http://www.w3.org/2000/svg" viewBox="0 0 1200 1200" width="1200" height="1200">
  <title>emoji_u1f486_1f3ff</title>
  <path fill="#70534a" d="M0 600H100V1000H200V1100H300V1200H800V1100H900V1000H1000V600H1100V100H900V300H600V600H500V300H200V100H0Z"/>
  <path fill="#232020" d="M200 800H300V700H800V800H900V500H800V600H700V400H800V300H700V200H400V300H300V400H400V600H300V500H200ZM100 1000H200V800H100ZM300 900H400V800H300ZM700 900H800V800H700ZM900 1000H1000V800H900Z"/>
  <path fill="#1a1717" d="M300 900H500V800H300ZM600 900H800V800H600ZM400 1100H500V1000H400ZM600 1100H700V1000H600ZM500 1200H600V1100H500Z"/>
</svg>
