<?xml version="1.0" encoding="UTF-8"?>
<svg xmlns="http://www.w3.org/2000/svg" viewBox="0 0 1200 1200" width="1200" height="1200">
  <title>emoji_u2603</title>
  <path fill="#95c7f7" d="M200 200H300V100H200ZM500 200H600V100H500ZM1000 200H1100V100H1000ZM100 300H200V200H100ZM800 300H900V200H800ZM700 400H800V300H700ZM0 500H100V400H0ZM1000 600H1100V500H1000Z"/>
  <path fill="#e0e0e0" d="M100 900H200V1100H300V1200H800V1100H900V900H1000V700H900V800H800V700H900V400H800V300H300V400H200V700H300V800H200V700H100Z"/>
  <path fill="#303030" d="M400 600H500V400H400ZM600 600H700V400H600ZM300 800H500V900H600V800H800V700H600V600H500V700H300ZM100 900H300V800H200V700H100ZM800 900H1000V700H900V800H800ZM500 1100H600V1000H500Z"/>
  <path fill="#a42718" d="M300 800H800V700H600V600H500V700H300Z"/>
  <path fill="#ffa72b" d="M500 700H600V600H500Z"/>
</svg>
