<?xml version="1.0" encoding="UTF-8"?>
<svg xmlns="http://www.w3.org/2000/svg" viewBox="0 0 1200 1200" width="1200" height="1200">
  <title>emoji_u1f529</title>
  <path fill="#94d1e0" d="M400 500H500V600H600V500H700V200H600V100H400ZM800 1000H900V1100H1000V1000H1100V700H1000V600H800Z"/>
  <path fill="#2f7889" d="M0 700H100V800H400V1100H500V1200H1000V900H900V600H600V400H400V500H0ZM400 800V700H500V800Z"/>
  <path fill="#82aec0" d="M200 600H300V700H400V600H500V500H600V400H500V200H600V100H400V300H300V400H200ZM500 700H600V600H500ZM600 1000H700V1200H800V1100H900V1000H1000V900H900V700H1000V600H700V700H800V800H700V900H600ZM600 800H700V700H600ZM500 900H600V800H500ZM900 1200H1000V1100H900Z"/>
  <path fill="#b9e4ea" d="M0 600H300V500H400V400H500V100H300V200H200V300H100V400H0ZM400 1000H800V900H900V600H700V700H800V800H700V900H600V800H400Z"/>
</svg>
