<?xml version="1.0" encoding="UTF-8"?>
<svg xmlns="http://www.w3.org/2000/svg" viewBox="0 0 1200 1200" width="1200" height="1200">
  <title>emoji_u1fadb</title>
  <path fill="#689f38" d="M0 1100H200V900H300V700H400V600H500V500H600V400H700V300H800V400H1100V300H1000V200H900V100H600V200H500V300H400V400H300V500H200V600H100V800H0ZM1000 200H1100V100H1000Z"/>
  <path fill="#dce775" d="M0 1200H500V1100H700V1000H800V900H900V800H1000V700H1100V400H800V600H700V700H500V800H400V900H100V1000H0Z"/>
  <path fill="#9ccc65" d="M200 1000H500V900H600V800H800V700H900V500H1000V700H1100V300H900V200H600V400H400V600H200ZM900 800H1000V700H900ZM800 900H900V800H800ZM700 1000H800V900H700ZM500 1100H700V1000H500ZM0 1200H500V1100H0Z"/>
  <path fill="#33691e" d="M100 1000H500V900H600V800H800V700H900V500H1000V300H900V200H600V300H500V400H400V500H300V600H200V800H100ZM700 500V300H800V400H900V500ZM500 700V500H600V600H700V700ZM300 900V700H400V800H500V900Z"/>
  <path fill="#ffffff" d="M800 400H900V300H800ZM600 600H700V500H600ZM400 800H500V700H400Z"/>
</svg>
