<?xml version="1.0" encoding="UTF-8"?>
<svg xmlns="http://www.w3.org/2000/svg" viewBox="0 0 1200 1200" width="1200" height="1200">
  <title>emoji_u1fa9c</title>
  <path fill="#9e673c" d="M100 1200H300V100H100ZM700 1100H800V1200H1000V100H800V300H700V500H800V600H700V800H800V900H700Z"/>
  <path fill="#e6a467" d="M200 1200H300V1100H900V1200H1000V100H900V300H300V100H200ZM300 600V500H900V600ZM300 900V800H900V900Z"/>
  <path fill="#ffcc80" d="M300 400H900V300H300ZM300 700H900V600H300ZM300 1000H900V900H300Z"/>
</svg>
