<?xml version="1.0" encoding="UTF-8"?>
<svg xmlns="http://www.w3.org/2000/svg" viewBox="0 0 1200 1200" width="1200" height="1200">
  <title>emoji_u1f193</title>
  <path fill="#427687" d="M800 1200H1000V1100H1100V200H1000V100H900V1000H800ZM0 1100H100V1200H300V1000H0ZM400 1200H700V1000H400Z"/>
  <path fill="#8cafbf" d="M0 1100H200V1200H500V1100H600V1200H900V1100H1000V100H100V200H0Z"/>
  <path fill="#fafafa" d="M100 400H200V600H300V500H500V400H300V300H500V200H200V300H100ZM600 600H700V500H800V400H900V200H600ZM700 400V300H800V400ZM800 600H900V500H800ZM200 1200H500V1100H300V1000H500V900H300V800H500V700H200ZM600 1200H900V1100H700V1000H900V900H700V800H900V700H600Z"/>
  <path fill="#a0c8d6" d="M100 400H200V300H100Z"/>
</svg>
