<?xml version="1.0" encoding="UTF-8"?>
<svg xmlns="http://www.w3.org/2000/svg" viewBox="0 0 1200 1200" width="1200" height="1200">
  <title>emoji_u1f469_1f3ff_200d_1f33e</title>
  <path fill="#feec7c" d="M400 300H1100V200H1000V100H800V200H700V100H500V200H400Z"/>
  <path fill="#636363" d="M100 900H200V1200H300V900H400V800H100Z"/>
  <path fill="#d18100" d="M200 1200H300V1100H200Z"/>
  <path fill="#bdbdbd" d="M400 1200H700V1000H400ZM800 1200H1100V1000H800Z"/>
  <path fill="#808080" d="M100 900H400V1000H500V900H600V500H400V800H300V600H200V800H100ZM0 800H100V600H0Z"/>
  <path fill="#76a441" d="M400 1200H500V1100H600V1200H900V1100H1000V1200H1100V800H900V900H600V800H400Z"/>
  <path fill="#78909c" d="M300 400H1100V200H400V300H300Z"/>
  <path fill="#176eca" d="M400 900H500V1100H600V1200H900V1100H1000V900H1100V800H800V1100H700V800H400Z"/>
  <path fill="#232020" d="M300 400H400V600H500V800H400V900H600V700H700V600H800V700H900V900H1100V300H300Z"/>
  <path fill="#feeb7a" d="M300 400H1100V300H300Z"/>
  <path fill="#a0ce6b" d="M500 900H600V1100H700V1000H800V1100H900V900H1000V800H500Z"/>
  <path fill="#70534a" d="M500 900H700V1000H800V900H1000V600H900V500H600V600H500Z"/>
  <path fill="#1a1717" d="M600 800H700V600H600ZM800 800H900V600H800Z"/>
  <path fill="#3c2b24" d="M700 1000H800V900H700Z"/>
</svg>
