<?xml version="1.0" encoding="UTF-8"?>
<svg xmlns="http://www.w3.org/2000/svg" viewBox="0 0 1200 1200" width="1200" height="1200">
  <title>emoji_u1f3c2_1f3fd</title>
  <path fill="#26a69a" d="M500 600H600V500H700V400H600V300H500ZM200 500H300V400H200ZM100 600H200V500H100ZM700 600H800V500H700Z"/>
  <path fill="#5eb2f6" d="M300 400H600V100H400V300H300Z"/>
  <path fill="#edf9fe" d="M500 1200H1100V800H900V900H700V1000H500ZM0 1200H300V1000H0Z"/>
  <path fill="#039be5" d="M300 500H600V300H700V200H600V100H500V300H300Z"/>
  <path fill="#ec4b48" d="M400 200H500V300H600V100H400Z"/>
  <path fill="#bde8fc" d="M0 1100H200V1000H300V1200H600V1100H800V1000H1000V900H1100V300H1000V400H800V500H700V600H600V500H500V600H300V800H100V900H0Z"/>
  <path fill="#f78c1f" d="M200 500H300V700H600V400H400V300H300V400H200Z"/>
  <path fill="#7c7c7c" d="M200 1000H500V900H700V700H600V600H300V900H200ZM400 800V700H500V800Z"/>
  <path fill="#ee504d" d="M100 1100H200V1200H400V1100H600V1000H800V900H1000V800H1100V600H1000V500H800V600H700V700H600V800H400V900H100Z"/>
  <path fill="#4568ad" d="M600 900H700V800H600ZM400 1000H500V900H400Z"/>
</svg>
