<?xml version="1.0" encoding="UTF-8"?>
<svg xmlns="http://www.w3.org/2000/svg" viewBox="0 0 1200 1200" width="1200" height="1200">
  <title>emoji_u2665</title>
  <path fill="#db0a28" d="M0 700H100V800H200V900H300V1000H400V1100H500V1200H600V1100H700V1000H800V900H900V800H1000V700H1100V500H900V600H800V700H700V800H600V900H500V800H400V700H300V600H200V500H0Z"/>
  <path fill="#ff262e" d="M0 600H100V700H200V800H300V900H400V1000H500V1100H600V1000H700V900H800V800H900V700H1000V600H1100V300H1000V200H900V100H700V200H600V300H500V200H400V100H200V200H100V300H0Z"/>
</svg>
