<?xml version="1.0" encoding="UTF-8"?>
<svg xmlns="http://www.w3.org/2000/svg" viewBox="0 0 1200 1200" width="1200" height="1200">
  <title>emoji_u1f579</title>
  <path fill="#5e6367" d="M100 1200H1100V1000H100Z"/>
  <path fill="#6da3ac" d="M200 900H500V800H400V600H500V500H200V600H300V800H200Z"/>
  <path fill="#282828" d="M100 1000H600V900H500V800H200V900H100Z"/>
  <path fill="#ff4f28" d="M100 400H200V600H500V400H600V200H500V100H200V200H100ZM600 1000H1100V900H1000V800H900V900H800V800H700V900H600Z"/>
  <path fill="#858585" d="M100 1100H1100V900H100Z"/>
  <path fill="#fdfffc" d="M200 400H300V200H200Z"/>
</svg>
