<?xml version="1.0" encoding="UTF-8"?>
<svg xmlns="http://www.w3.org/2000/svg" viewBox="0 0 1200 1200" width="1200" height="1200">
  <title>emoji_u1f3a4</title>
  <path fill="#757575" d="M700 700H900V600H1000V500H1100V300H900V500H700Z"/>
  <path fill="#616161" d="M0 1100H100V1200H300V1100H400V1000H500V900H600V800H700V700H600V500H400V600H300V700H200V800H100V900H0Z"/>
  <path fill="#82aec0" d="M400 600H500V800H700V700H800V600H900V500H800V400H700V300H500V500H400Z"/>
  <path fill="#424242" d="M500 800H600V700H500ZM200 1100H300V1000H400V900H500V800H300V900H200ZM100 1200H200V1100H100Z"/>
  <path fill="#9e9e9e" d="M500 400H600V500H700V600H1000V400H1100V300H1000V200H900V100H700V200H600V300H500ZM500 600H600V500H500ZM300 900H400V800H300ZM200 1000H300V900H200Z"/>
  <path fill="#94d1e0" d="M600 300H700V200H600ZM700 400H800V300H700ZM800 500H900V400H800ZM500 600H600V500H500ZM900 600H1000V500H900Z"/>
  <path fill="#000000" d="M200 1000H300V900H200Z"/>
</svg>
