<?xml version="1.0" encoding="UTF-8"?>
<svg xmlns="http://www.w3.org/2000/svg" viewBox="0 0 1200 1200" width="1200" height="1200">
  <title>emoji_u1f35b</title>
  <path fill="#b0b0b0" d="M100 600H400V300H600V600H900V400H800V200H700V100H300V200H200V400H100Z"/>
  <path fill="#d4d4d3" d="M0 1000H100V1100H300V1200H800V1100H1000V1000H1100V500H1000V400H800V500H700V200H300V500H400V600H900V900H700V1000H400V900H200V600H300V500H200V400H100V500H0Z"/>
  <path fill="#f7f6f5" d="M100 1000H300V1100H800V1000H1000V500H700V700H800V800H700V900H400V800H300V500H100Z"/>
  <path fill="#fefefe" d="M200 700H800V500H700V200H600V300H500V400H600V500H500V400H400V300H500V200H300V500H200Z"/>
  <path fill="#f5b03e" d="M200 900H300V1000H600V800H400V700H200Z"/>
  <path fill="#ff8e00" d="M600 700H900V600H800V500H700V600H600ZM500 1000H800V800H500Z"/>
  <path fill="#f9ca76" d="M700 800H900V600H700Z"/>
  <path fill="#df7f14" d="M200 800H300V900H500V1000H600V900H700V1000H800V900H900V700H800V600H300V500H200Z"/>
  <path fill="#ff5119" d="M700 800H800V700H700Z"/>
  <path fill="#fcc219" d="M300 700H400V600H300ZM400 800H500V700H400Z"/>
</svg>
