<?xml version="1.0" encoding="UTF-8"?>
<svg xmlns="http://www.w3.org/2000/svg" viewBox="0 0 1200 1200" width="1200" height="1200">
  <title>emoji_u26a7</title>
  <path fill="#ffc268" d="M0 400H100V300H200V100H0ZM800 200H900V300H1000V400H1100V200H1000V100H800ZM200 400H300V300H200ZM100 500H200V400H100ZM300 500H400V400H300ZM400 600H600V500H400ZM300 800H400V600H300Z"/>
  <path fill="#ffa726" d="M0 400H100V300H200V200H300V100H100V200H0ZM900 300H1100V100H900ZM300 300H400V200H300ZM200 400H300V300H200ZM800 400H900V300H800ZM300 500H400V400H300ZM700 500H800V400H700ZM500 600H700V500H500ZM700 800H800V600H700ZM300 800H400V700H300ZM400 1100H500V1200H600V1100H700V1000H600V900H700V800H400V900H500V1000H400Z"/>
</svg>
