<?xml version="1.0" encoding="UTF-8"?>
<svg xmlns="http://www.w3.org/2000/svg" viewBox="0 0 1200 1200" width="1200" height="1200">
  <title>emoji_u1f4b9</title>
  <path fill="#689f38" d="M0 1100H100V1200H1000V1100H1100V200H1000V100H900V1000H0Z"/>
  <path fill="#7cb342" d="M0 1100H1000V100H100V200H0Z"/>
  <path fill="#a0c374" d="M100 400H300V200H200V300H100Z"/>
  <path fill="#efebe9" d="M200 400H300V300H200ZM400 400H500V300H400ZM200 600H300V700H400V600H500V500H400V400H300V500H200ZM900 700H1000V400H900ZM500 800H600V700H500ZM800 900H900V700H800ZM200 900H300V800H200ZM400 900H500V800H400ZM600 900H700V800H600ZM100 1000H200V900H100ZM300 1000H400V900H300ZM700 1000H800V900H700Z"/>
</svg>
