<?xml version="1.0" encoding="UTF-8"?>
<svg xmlns="http://www.w3.org/2000/svg" viewBox="0 0 1200 1200" width="1200" height="1200">
  <title>emoji_u1fac8</title>
  <path fill="#b8885a" d="M100 800H200V700H300V500H200V600H100ZM800 700H900V800H1000V600H900V500H800ZM100 1200H500V1000H400V900H300V1000H200V1100H100ZM700 1200H900V1000H800V1100H700Z"/>
  <path fill="#865c51" d="M600 500H700V700H900V400H800V300H700V200H600Z"/>
  <path fill="#6d4c40" d="M200 700H300V600H400V800H300V1100H500V1000H600V900H700V1000H800V1100H900V900H800V700H900V600H800V400H700V200H600V100H400V200H300V500H200Z"/>
  <path fill="#52362d" d="M300 400H400V500H500V600H600V500H700V300H600V200H400V300H300ZM300 600H400V500H300ZM600 700H700V600H600ZM300 1100H500V1000H600V900H700V1000H800V700H700V800H500V900H400V1000H300Z"/>
  <path fill="#b99277" d="M400 400H600V300H400Z"/>
</svg>
