<?xml version="1.0" encoding="UTF-8"?>
<svg xmlns="http://www.w3.org/2000/svg" viewBox="0 0 1200 1200" width="1200" height="1200">
  <title>emoji_u1f9e6</title>
  <path fill="#f44336" d="M200 500H600V100H200ZM700 600H1100V200H700Z"/>
  <path fill="#5fb2de" d="M0 1000H100V1100H300V1000H400V900H500V800H600V500H300V600H200V800H0ZM500 1100H600V1200H800V1100H900V1000H1000V900H1100V600H800V700H700V800H600V900H500Z"/>
  <path fill="#c9e3e6" d="M200 300H600V200H200ZM700 400H1100V300H700ZM0 900H200V1100H300V1000H400V800H300V700H400V600H600V400H200V700H100V800H0ZM500 1000H700V1200H800V1100H900V900H800V800H900V700H1100V500H700V800H600V900H500Z"/>
</svg>
