<?xml version="1.0" encoding="UTF-8"?>
<svg xmlns="http://www.w3.org/2000/svg" viewBox="0 0 1200 1200" width="1200" height="1200">
  <title>emoji_u1f9da_1f3ff_200d_2642</title>
  <path fill="#20d39e" d="M300 400H800V200H700V100H400V200H300Z"/>
  <path fill="#96efe7" d="M0 500H100V600H200V700H100V800H300V900H400V1000H500V600H600V1000H700V900H800V800H1000V700H1100V300H1000V100H800V200H700V300H400V200H300V100H100V200H0Z"/>
  <path fill="#ffd600" d="M700 500H1000V400H1100V200H1000V100H900V200H800V400H700Z"/>
  <path fill="#684c43" d="M200 500H300V700H400V1200H500V900H600V1200H700V700H800V800H900V700H1000V400H700V500H600V700H500V500H400V400H200ZM800 600V500H900V600ZM200 800H300V700H200Z"/>
  <path fill="#87cdde" d="M100 400H200V300H100ZM400 400H500V300H400ZM600 400H700V300H600ZM700 500H1000V300H900V400H700ZM200 500H400V400H200ZM400 600H500V500H400ZM600 800H700V700H800V600H700V500H600ZM900 700H1000V600H900ZM800 800H900V700H800Z"/>
  <path fill="#19e188" d="M400 800H500V900H600V800H700V500H600V400H500V500H400Z"/>
  <path fill="#1a1717" d="M900 500H1000V300H900ZM900 700H1000V600H900Z"/>
  <path fill="#70534a" d="M400 400H500V500H600V400H700V300H600V200H500V300H400Z"/>
  <path fill="#5f4239" d="M500 500H600V400H500Z"/>
</svg>
