<?xml version="1.0" encoding="UTF-8"?>
<svg xmlns="http://www.w3.org/2000/svg" viewBox="0 0 1200 1200" width="1200" height="1200">
  <title>emoji_u1f640</title>
  <path fill="#9e9e9e" d="M0 1000H100V1100H200V900H300V600H200V500H0V700H100V900H0ZM800 900H900V1100H1000V1000H1100V900H1000V700H1100V500H900V600H800Z"/>
  <path fill="#ff9a32" d="M300 600H800V300H300Z"/>
  <path fill="#ff9b17" d="M0 1200H400V800H100V1100H0ZM700 1200H1100V1100H1000V800H700Z"/>
  <path fill="#ffc022" d="M0 600H100V700H200V800H100V900H300V1200H800V900H1000V800H900V700H1000V600H1100V100H900V200H800V300H700V500H600V300H500V500H400V300H300V200H200V100H0Z"/>
  <path fill="#ef6c00" d="M200 700H300V800H400V700H500V600H400V500H300V600H200ZM600 700H700V800H800V700H900V600H800V500H700V600H600ZM100 900H300V800H100ZM800 900H1000V800H800ZM300 1200H400V1100H500V900H300ZM600 1100H700V1200H800V900H600Z"/>
  <path fill="#ffd1d1" d="M100 500H200V400H300V300H200V200H100ZM800 400H900V500H1000V200H900V300H800Z"/>
  <path fill="#000000" d="M400 1100H700V900H600V800H500V900H400Z"/>
  <path fill="#fffde7" d="M300 700H400V600H300ZM700 700H800V600H700Z"/>
</svg>
