<?xml version="1.0" encoding="UTF-8"?>
<svg xmlns="http://www.w3.org/2000/svg" viewBox="0 0 1200 1200" width="1200" height="1200">
  <title>emoji_u1f63e</title>
  <path fill="#9e9e9e" d="M0 1000H100V1100H300V600H100V700H0V800H100V900H0ZM800 1100H1000V1000H1100V900H1000V800H1100V700H1000V600H800Z"/>
  <path fill="#ff9a32" d="M0 600H1100V200H800V300H300V200H0Z"/>
  <path fill="#ffc022" d="M0 600H100V700H200V800H100V900H200V1000H100V1100H200V1200H900V1100H1000V1000H900V900H1000V800H900V700H1000V600H1100V100H900V200H800V300H700V500H600V300H500V500H400V300H300V200H200V100H0ZM100 500V300H200V500ZM900 500V300H1000V500Z"/>
  <path fill="#ef6c00" d="M100 300H200V200H100ZM900 300H1000V200H900ZM200 500H300V300H200ZM800 500H900V300H800Z"/>
  <path fill="#000000" d="M300 700H400V600H300ZM700 700H800V600H700ZM400 800H500V700H400ZM600 800H700V700H600ZM500 1000H600V900H500ZM400 1100H500V1000H400ZM600 1100H700V1000H600Z"/>
</svg>
