<?xml version="1.0" encoding="UTF-8"?>
<svg xmlns="http://www.w3.org/2000/svg" viewBox="0 0 1200 1200" width="1200" height="1200">
  <title>emoji_u1f469_1f3fd_200d_1f680</title>
  <path fill="#858585" d="M100 1200H300V900H200V1000H100ZM900 1200H1100V1000H1000V900H900Z"/>
  <path fill="#b3b3b3" d="M100 900H200V1100H400V800H300V500H400V400H500V300H700V400H800V500H900V800H800V1100H1000V900H1100V300H1000V200H900V100H300V200H200V300H100Z"/>
  <path fill="#e0e0e0" d="M200 1200H1000V1000H900V900H500V1000H400V900H300V1000H200Z"/>
  <path fill="#5f6468" d="M300 1200H400V1100H600V1000H800V1200H900V900H300Z"/>
  <path fill="#9a9a9a" d="M300 1000H400V1100H500V1000H600V900H300Z"/>
  <path fill="#ffffff" d="M200 900H300V1000H900V900H1000V400H900V300H800V200H400V300H300V400H200Z"/>
  <path fill="#ba8d68" d="M300 900H900V400H800V300H400V400H300Z"/>
  <path fill="#49352e" d="M400 600H500V400H400ZM700 600H800V400H700ZM400 800H500V700H400ZM700 800H800V700H700ZM500 900H700V800H500Z"/>
</svg>
