<?xml version="1.0" encoding="UTF-8"?>
<svg xmlns="http://www.w3.org/2000/svg" viewBox="0 0 1200 1200" width="1200" height="1200">
  <title>emoji_u1f30a</title>
  <path fill="#3bbcdd" d="M200 1200H1000V1100H800V1000H700V900H600V700H700V600H800V500H500V700H400V900H300V1000H200Z"/>
  <path fill="#1b6da4" d="M0 1000H100V1100H200V1200H300V1100H400V1000H500V800H600V600H900V700H1000V600H1100V500H1000V400H900V300H1000V200H900V100H300V200H200V300H100V400H0Z"/>
  <path fill="#ffffff" d="M100 1000H200V1100H300V1000H400V800H500V700H300V600H500V500H900V400H700V300H900V200H300V300H200V400H100ZM300 500V400H500V500ZM900 600H1000V500H900Z"/>
</svg>
