<?xml version="1.0" encoding="UTF-8"?>
<svg xmlns="http://www.w3.org/2000/svg" viewBox="0 0 1200 1200" width="1200" height="1200">
  <title>emoji_u1f97a</title>
  <path fill="#eb8f00" d="M0 1000H100V1100H200V1200H900V1100H1000V1000H1100V300H1000V200H900V100H200V200H100V300H0Z"/>
  <path fill="#fde030" d="M100 1000H200V1100H900V1000H1000V300H900V200H200V300H100Z"/>
  <path fill="#422b0d" d="M300 400H400V300H300ZM700 400H800V300H700ZM200 800H500V500H300V400H200ZM600 800H900V400H800V500H600ZM400 1000H700V900H400ZM300 1100H400V1000H300ZM700 1100H800V1000H700Z"/>
  <path fill="#ffffff" d="M300 600H400V500H300ZM700 600H800V500H700ZM200 700H300V600H200ZM600 700H700V600H600Z"/>
</svg>
