<?xml version="1.0" encoding="UTF-8"?>
<svg xmlns="http://www.w3.org/2000/svg" viewBox="0 0 1200 1200" width="1200" height="1200">
  <title>emoji_u1f99e</title>
  <path fill="#a42615" d="M0 500H200V300H100V200H0ZM900 500H1100V200H1000V300H900Z"/>
  <path fill="#fe9004" d="M200 1100H300V1200H800V1100H900V1000H500V700H300V800H200V900H300V1000H200Z"/>
  <path fill="#ff5e59" d="M0 800H100V700H0ZM300 800H400V700H300ZM600 1100H1000V1000H800V900H1000V800H800V700H600ZM1000 800H1100V700H1000ZM100 900H300V800H100ZM0 1000H100V900H0ZM100 1100H500V900H300V1000H100ZM1000 1000H1100V900H1000Z"/>
  <path fill="#fb1b1d" d="M300 200H400V100H300ZM700 200H800V100H700ZM0 600H200V400H100V200H0ZM200 700H300V800H400V900H300V1000H400V1100H700V1000H800V900H700V800H800V700H900V600H700V200H600V400H500V200H400V600H200ZM900 600H1100V200H1000V400H900Z"/>
  <path fill="#ff5e00" d="M900 600H1000V500H900ZM300 1000H400V900H300ZM400 1100H500V1000H400Z"/>
  <path fill="#2e2f2d" d="M400 700H500V600H400ZM600 700H700V600H600Z"/>
</svg>
