<?xml version="1.0" encoding="UTF-8"?>
<svg xmlns="http://www.w3.org/2000/svg" viewBox="0 0 1200 1200" width="1200" height="1200">
  <title>emoji_u264b</title>
  <path fill="#ffa000" d="M300 1100H400V1200H700V1100H900V1000H1000V800H1100V500H1000V400H900V800H800V900H600V1000H300Z"/>
  <path fill="#fada82" d="M0 600H300V500H400V400H600V100H400V200H200V300H100V500H0Z"/>
  <path fill="#ffca28" d="M0 800H100V1000H200V1100H700V1000H900V900H1000V300H900V200H700V100H400V200H500V300H300V400H200V500H0ZM200 300H300V200H200ZM100 400H200V300H100Z"/>
  <path fill="#fafafa" d="M300 400H500V600H600V400H800V300H300ZM200 600H300V400H200ZM800 500H900V400H800ZM300 700H500V600H300ZM700 700H900V600H700ZM300 1000H900V900H700V700H600V900H300ZM900 900H1000V700H900ZM200 900H300V800H200Z"/>
  <path fill="#faf1da" d="M300 400H400V300H300ZM200 500H300V400H200Z"/>
</svg>
