<?xml version="1.0" encoding="UTF-8"?>
<svg xmlns="http://www.w3.org/2000/svg" viewBox="0 0 1200 1200" width="1200" height="1200">
  <title>emoji_u1f381</title>
  <path fill="#ba5e0d" d="M600 800H1000V600H1100V500H600ZM600 1200H1000V1000H600Z"/>
  <path fill="#e37d14" d="M0 600H100V800H500V500H0ZM100 1200H500V1000H100Z"/>
  <path fill="#e07f14" d="M600 1200H700V1100H1000V700H700V600H1100V400H1000V300H600Z"/>
  <path fill="#f5b03e" d="M0 600H400V700H100V1100H400V1200H500V300H100V400H0Z"/>
  <path fill="#af0f1b" d="M100 400H400V1200H700V400H1000V100H700V200H400V100H100Z"/>
  <path fill="#ff2a23" d="M200 400H400V200H200ZM700 400H900V200H700ZM500 1200H600V300H500Z"/>
</svg>
