<?xml version="1.0" encoding="UTF-8"?>
<svg xmlns="http://www.w3.org/2000/svg" viewBox="0 0 1200 1200" width="1200" height="1200">
  <title>emoji_u1f315</title>
  <path fill="#fce5ac" d="M0 800H100V1000H200V1100H400V1200H700V1100H900V1000H1000V800H1100V500H1000V300H900V200H700V100H400V200H200V300H100V500H0Z"/>
  <path fill="#f1c688" d="M500 200H600V100H500ZM300 300H400V200H300ZM600 400H700V700H800V600H900V700H1000V400H800V300H700V200H600ZM200 400H300V300H200ZM100 600H200V700H300V800H500V600H400V500H500V300H400V400H300V500H200V400H100ZM200 1000H300V900H200ZM800 1000H900V900H800ZM300 1100H400V1000H300ZM700 1100H800V1000H700Z"/>
</svg>
