<?xml version="1.0" encoding="UTF-8"?>
<svg xmlns="http://www.w3.org/2000/svg" viewBox="0 0 1200 1200" width="1200" height="1200">
  <title>emoji_u1f484</title>
  <path fill="#f44336" d="M300 300H400V400H500V500H800V300H700V200H600V100H400V200H300Z"/>
  <path fill="#424242" d="M100 1100H1000V900H900V800H200V900H100Z"/>
  <path fill="#212121" d="M600 900H700V1100H800V900H900V800H600Z"/>
  <path fill="#a12524" d="M200 900H900V800H800V500H600V600H300V800H200Z"/>
  <path fill="#c62828" d="M300 700H700V600H800V400H600V300H500V200H300Z"/>
  <path fill="#e2a610" d="M200 900H900V800H200Z"/>
  <path fill="#9e740b" d="M700 900H800V800H700Z"/>
  <path fill="#ff8383" d="M400 300H500V200H400ZM500 400H600V300H500Z"/>
</svg>
