<?xml version="1.0" encoding="UTF-8"?>
<svg xmlns="http://www.w3.org/2000/svg" viewBox="0 0 1200 1200" width="1200" height="1200">
  <title>emoji_u26f7</title>
  <path fill="#039be5" d="M200 300H400V100H200ZM400 400H500V300H400Z"/>
  <path fill="#ffc51f" d="M400 400H500V300H400ZM300 500H400V400H300ZM100 700H400V600H300V500H200V600H100ZM400 600H500V500H400Z"/>
  <path fill="#b3e5fc" d="M0 1100H100V1200H900V1100H1100V500H1000V600H500V700H300V800H200V900H0Z"/>
  <path fill="#edf9fe" d="M900 700H1000V600H900ZM0 1200H200V1100H500V1000H800V900H1100V700H1000V800H900V700H800V800H400V900H200V1000H0ZM500 1200H1100V1000H800V1100H500Z"/>
  <path fill="#f78c1f" d="M300 700H700V400H600V300H400V400H500V500H400V600H300Z"/>
  <path fill="#f27300" d="M100 700H300V800H600V700H800V800H900V700H1000V600H900V500H800V600H700V500H600V600H100Z"/>
  <path fill="#f98600" d="M800 900H1100V800H900V700H800ZM400 900H500V1000H800V900H700V800H400ZM0 1200H200V1100H100V1000H0ZM200 1100H500V1000H200Z"/>
  <path fill="#616161" d="M800 800H900V500H800Z"/>
  <path fill="#747474" d="M600 600H700V500H600ZM300 800H400V900H700V800H600V700H300Z"/>
  <path fill="#4568ad" d="M500 900H700V800H500Z"/>
</svg>
