<?xml version="1.0" encoding="UTF-8"?>
<svg xmlns="http://www.w3.org/2000/svg" viewBox="0 0 1200 1200" width="1200" height="1200">
  <title>emoji_u1f6d7</title>
  <path fill="#194fa5" d="M0 1100H100V1200H1000V1100H1100V200H1000V100H900V1000H0Z"/>
  <path fill="#2262dd" d="M0 1100H1000V100H100V200H0Z"/>
  <path fill="#68abe6" d="M100 400H400V200H200V300H100Z"/>
  <path fill="#fafafa" d="M200 400H500V300H400V200H300V300H200ZM600 300H700V400H800V300H900V200H600ZM100 1100H1000V500H100ZM200 1000V600H300V700H400V600H500V700H600V600H700V700H800V600H900V1000H800V800H700V1000H600V800H500V1000H400V800H300V1000Z"/>
</svg>
