<?xml version="1.0" encoding="UTF-8"?>
<svg xmlns="http://www.w3.org/2000/svg" viewBox="0 0 1200 1200" width="1200" height="1200">
  <title>emoji_u1f910</title>
  <path fill="#eb8f00" d="M0 1000H100V1100H200V1200H900V1100H1000V1000H1100V300H1000V200H900V100H200V200H100V300H0Z"/>
  <path fill="#616161" d="M100 1000H200V1100H900V1000H1100V800H1000V600H100Z"/>
  <path fill="#fde030" d="M100 1000H200V1100H900V900H800V1000H700V900H600V1000H500V900H400V1000H300V900H200V700H300V800H400V700H500V800H600V700H700V800H800V700H900V800H1000V300H900V200H200V300H100Z"/>
  <path fill="#422b0d" d="M300 600H400V400H300ZM700 600H800V400H700Z"/>
</svg>
