<?xml version="1.0" encoding="UTF-8"?>
<svg xmlns="http://www.w3.org/2000/svg" viewBox="0 0 1200 1200" width="1200" height="1200">
  <title>emoji_u1f406</title>
  <path fill="#ff8f04" d="M100 500H400V300H300V200H200V300H100ZM100 1200H200V1100H300V1200H600V1000H700V1200H1000V800H800V400H600V300H500V700H100V800H200V900H100Z"/>
  <path fill="#ffeacf" d="M0 700H100V800H300V900H400V600H300V500H600V300H500V200H400V300H300V400H100V500H0Z"/>
  <path fill="#33312e" d="M400 300H500V200H400ZM100 500H200V700H300V1200H500V900H900V800H1100V500H800V400H700V500H600V300H500V400H400V300H300V400H100ZM600 700V600H700V700ZM400 900V800H500V900ZM0 700H100V500H0Z"/>
  <path fill="#ffba06" d="M100 500H200V700H300V800H500V700H600V400H100ZM300 600V500H400V600ZM500 900H700V800H800V900H900V1200H1100V500H1000V400H700V600H800V700H600V800H500ZM900 700V600H1000V700ZM300 1200H500V900H300V1000H400V1100H300Z"/>
</svg>
