<?xml version="1.0" encoding="UTF-8"?>
<svg xmlns="http://www.w3.org/2000/svg" viewBox="0 0 1200 1200" width="1200" height="1200">
  <title>emoji_u1f1e7_1f1f1</title>
  <path fill="#ede097" d="M300 500H800V300H300Z"/>
  <path fill="#fdfcf9" d="M200 1000H500V800H200ZM600 1000H900V800H600Z"/>
  <path fill="#e1dacb" d="M400 1000H700V800H400Z"/>
  <path fill="#e5d477" d="M400 500H700V400H600V300H500V400H400Z"/>
  <path fill="#e9e3d5" d="M300 900H400V1000H500V900H600V800H300Z"/>
  <path fill="#eae4d6" d="M500 900H600V1000H700V900H800V800H500Z"/>
  <path fill="#f5efca" d="M600 500H900V300H700V400H600Z"/>
  <path fill="#f7f1cf" d="M200 500H500V400H400V300H200Z"/>
  <path fill="#ffffff" d="M0 1000H300V900H400V800H300V500H400V400H300V300H0ZM700 900H800V1000H1100V300H800V400H700V500H800V800H700Z"/>
  <path fill="#ecd0b6" d="M200 900H500V700H200ZM600 900H900V700H600Z"/>
  <path fill="#f8f2ef" d="M300 800H400V900H700V800H800V700H300Z"/>
  <path fill="#fafafa" d="M100 600H400V400H200V500H100ZM700 600H1000V500H900V400H700Z"/>
  <path fill="#fbfbfb" d="M100 700H300V500H100ZM800 700H1000V500H800Z"/>
  <path fill="#fefdfc" d="M200 900H300V800H400V700H200ZM700 800H800V900H900V700H700Z"/>
  <path fill="#fefefe" d="M100 700H200V800H300V500H200V600H100ZM800 800H900V700H1000V600H900V500H800Z"/>
  <path fill="#8e8f4f" d="M400 600H700V400H400Z"/>
  <path fill="#959349" d="M300 600H600V500H500V400H300Z"/>
  <path fill="#959449" d="M500 600H800V400H600V500H500Z"/>
  <path fill="#e1e6ea" d="M400 800H500V900H600V800H700V700H400Z"/>
  <path fill="#efecd3" d="M600 600H900V500H800V400H700V500H600Z"/>
  <path fill="#f1edd5" d="M200 600H500V500H400V400H300V500H200Z"/>
  <path fill="#605b76" d="M400 700H800V500H400Z"/>
  <path fill="#dfdfdf" d="M200 700H400V500H200ZM700 700H900V500H700Z"/>
  <path fill="#e3e3e3" d="M200 800H400V500H300V600H200ZM700 800H900V600H800V500H700Z"/>
  <path fill="#56747f" d="M400 800H700V600H400Z"/>
  <path fill="#605a76" d="M300 700H600V600H500V500H300Z"/>
  <path fill="#7f99b4" d="M500 700H600V800H800V600H500Z"/>
  <path fill="#809bb5" d="M300 800H500V700H600V600H300Z"/>
  <path fill="#e1dcc5" d="M600 700H800V500H700V600H600Z"/>
  <path fill="#e3dec6" d="M300 700H500V600H400V500H300Z"/>
  <path fill="#ece2e1" d="M700 800H900V700H800V600H700Z"/>
  <path fill="#ece2e2" d="M200 800H400V600H300V700H200Z"/>
  <path fill="#eee0c4" d="M600 700H700V800H800V600H600Z"/>
  <path fill="#eee1c4" d="M300 800H400V700H500V600H300Z"/>
  <path fill="#b64258" d="M400 700H700V600H400Z"/>
  <path fill="#b71b33" d="M300 700H500V600H300Z"/>
  <path fill="#b71b34" d="M600 700H800V600H600Z"/>
  <path fill="#e8e0db" d="M700 700H800V600H700Z"/>
  <path fill="#e9e2dd" d="M300 700H400V600H300Z"/>
</svg>
