<?xml version="1.0" encoding="UTF-8"?>
<svg xmlns="http://www.w3.org/2000/svg" viewBox="0 0 1200 1200" width="1200" height="1200">
  <title>emoji_u1f9e4</title>
  <path fill="#2f7889" d="M100 800H200V1200H900V900H1000V800H1100V500H1000V300H900V200H700V100H600V200H500V100H400V200H200V300H100Z"/>
  <path fill="#82aec0" d="M200 800H300V900H900V800H1000V600H900V700H800V800H700V700H800V600H900V300H800V500H700V200H600V500H500V200H400V500H300V300H200ZM300 1100H400V1000H300ZM500 1100H600V1000H500ZM700 1100H800V1000H700Z"/>
</svg>
