<?xml version="1.0" encoding="UTF-8"?>
<svg xmlns="http://www.w3.org/2000/svg" viewBox="0 0 1200 1200" width="1200" height="1200">
  <title>emoji_u1fae2</title>
  <path fill="#eb8f00" d="M0 1000H100V1100H200V1200H900V1100H1000V1000H1100V300H1000V200H900V100H200V200H100V300H0Z"/>
  <path fill="#fde030" d="M100 700H200V600H400V700H700V800H800V1100H900V1000H1000V300H900V200H200V300H100ZM200 800H400V700H200ZM600 900H700V800H600Z"/>
  <path fill="#ffef72" d="M200 1100H700V1000H400V900H700V800H400V700H200Z"/>
  <path fill="#422b0d" d="M300 600H400V400H300ZM700 600H800V400H700Z"/>
</svg>
