<?xml version="1.0" encoding="UTF-8"?>
<svg xmlns="http://www.w3.org/2000/svg" viewBox="0 0 1200 1200" width="1200" height="1200">
  <title>emoji_u1f642_200d_2195</title>
  <path fill="#eb8f00" d="M100 1100H200V1200H900V1100H1000V400H900V300H600V200H500V300H400V200H300V300H200V400H100Z"/>
  <path fill="#b0bec5" d="M400 200H500V100H400ZM600 200H700V100H600ZM200 600H500V500H700V400H600V200H500V400H400V200H300V400H200Z"/>
  <path fill="#422b0d" d="M200 1100H900V500H200Z"/>
  <path fill="#fde030" d="M200 1100H400V1000H700V1100H900V700H800V800H700V700H800V600H900V400H400V500H300V400H200V600H300V700H400V800H300V700H200ZM400 700V600H500V700ZM600 700V600H700V700ZM300 1000V900H400V1000ZM700 1000V900H800V1000Z"/>
</svg>
