<?xml version="1.0" encoding="UTF-8"?>
<svg xmlns="http://www.w3.org/2000/svg" viewBox="0 0 1200 1200" width="1200" height="1200">
  <title>emoji_u1f927</title>
  <path fill="#eb8f00" d="M0 900H200V400H300V300H800V400H900V900H800V1000H300V1200H900V1100H1000V1000H1100V300H1000V200H900V100H200V200H100V300H0Z"/>
  <path fill="#bdbdbd" d="M0 1100H100V1200H400V1100H700V600H400V700H100V800H0Z"/>
  <path fill="#fde030" d="M100 900H300V800H500V700H600V1000H500V1100H900V1000H1000V300H900V200H200V300H100ZM400 1000H500V900H400Z"/>
  <path fill="#f5f5f5" d="M300 600H400V500H300ZM100 1000H200V1100H400V1000H500V700H600V600H400V700H200V800H100ZM200 1000V900H300V800H400V900H300V1000Z"/>
  <path fill="#422b0d" d="M300 400H400V300H300ZM800 400H900V300H800ZM400 500H500V400H400ZM700 500H800V400H700ZM300 600H400V500H300ZM800 600H900V500H800ZM600 900H700V800H600ZM800 900H900V800H800ZM700 1000H800V900H700Z"/>
</svg>
