<?xml version="1.0" encoding="UTF-8"?>
<svg xmlns="http://www.w3.org/2000/svg" viewBox="0 0 1200 1200" width="1200" height="1200">
  <title>emoji_u1f468_200d_1f468_200d_1f466_200d_1f466</title>
  <path fill="#bdbdbd" d="M0 1100H100V1200H1000V1100H1100V200H1000V100H900V1000H0Z"/>
  <path fill="#e0e0e0" d="M0 1100H1000V700H900V600H1000V100H100V200H0Z"/>
  <path fill="#ffffff" d="M100 400H300V200H200V300H100Z"/>
  <path fill="#000000" d="M200 400H400V200H200ZM700 400H900V200H700ZM100 900H200V800H300V700H500V500H100ZM600 700H800V800H900V900H1000V500H600ZM200 1100H900V1000H800V800H600V1000H500V800H300V1000H200Z"/>
</svg>
