<?xml version="1.0" encoding="UTF-8"?>
<svg xmlns="http://www.w3.org/2000/svg" viewBox="0 0 1200 1200" width="1200" height="1200">
  <title>emoji_u1f4d2</title>
  <path fill="#94c6d6" d="M100 1100H200V1200H1100V1000H100Z"/>
  <path fill="#f5f5f5" d="M900 1100H1100V200H1000V100H900Z"/>
  <path fill="#94d1e0" d="M0 800H100V900H200V1000H100V1100H300V1000H500V100H200V200H100V300H200V400H100V300H0V500H100V600H200V700H100V600H0ZM0 1000H100V900H0Z"/>
  <path fill="#e2a610" d="M200 1100H1000V100H200V200H400V300H800V900H200ZM100 500H400V300H200V400H100ZM100 800H400V600H200V700H100Z"/>
  <path fill="#2f7889" d="M100 500H200V400H100ZM100 800H200V700H100Z"/>
  <path fill="#9e740b" d="M300 1000H600V200H400V300H300V500H400V600H300V800H400V900H300Z"/>
  <path fill="#ffca28" d="M300 800H500V900H400V1000H900V200H500V300H400V400H300V500H500V600H400V700H300Z"/>
</svg>
