<?xml version="1.0" encoding="UTF-8"?>
<svg xmlns="http://www.w3.org/2000/svg" viewBox="0 0 1200 1200" width="1200" height="1200">
  <title>emoji_u1f41a</title>
  <path fill="#fbfbfb" d="M0 300H200V500H600V600H900V500H1000V400H900V300H600V200H300V100H0Z"/>
  <path fill="#e0e0e0" d="M0 600H100V800H200V1000H300V1100H400V1200H700V1100H800V1200H1100V500H1000V400H800V500H700V400H800V300H600V400H500V300H600V200H300V100H200V200H100V100H0ZM300 400V300H400V400Z"/>
  <path fill="#b0b0b0" d="M200 300H300V200H200ZM400 500H500V200H400ZM100 400H200V300H100ZM600 900H700V1000H900V1100H1000V800H800V500H700V300H600ZM0 500H100V400H0ZM300 600H400V500H300ZM200 700H300V600H200ZM100 800H200V700H100Z"/>
  <path fill="#eea25d" d="M700 800H800V900H900V1000H1000V700H900V600H800V500H700Z"/>
  <path fill="#ffcbac" d="M700 900H900V700H800V600H700Z"/>
</svg>
