<?xml version="1.0" encoding="UTF-8"?>
<svg xmlns="http://www.w3.org/2000/svg" viewBox="0 0 1200 1200" width="1200" height="1200">
  <title>emoji_u1f414</title>
  <path fill="#b1b1b1" d="M300 1200H500V1100H600V1200H700V1100H800V1200H900V1100H1000V1200H1100V900H400V1000H300Z"/>
  <path fill="#fbbb02" d="M0 700H200V800H500V300H300V400H100V500H0Z"/>
  <path fill="#ff615e" d="M200 900H300V1000H500V800H800V400H900V100H700V200H600V100H400V200H200V300H300V400H400V500H300V600H400V700H200Z"/>
  <path fill="#e0e0e0" d="M300 1100H500V1000H600V1100H700V1000H800V1100H900V1000H1000V1100H1100V500H1000V400H900V300H400V400H700V700H400V900H300Z"/>
  <path fill="#fe5f12" d="M100 600H400V500H100Z"/>
  <path fill="#ffffff" d="M700 800H800V700H700ZM900 800H1000V700H900ZM600 900H700V800H600ZM800 900H900V800H800Z"/>
  <path fill="#2c2b2c" d="M500 600H600V500H500Z"/>
</svg>
