<?xml version="1.0" encoding="UTF-8"?>
<svg xmlns="http://www.w3.org/2000/svg" viewBox="0 0 1200 1200" width="1200" height="1200">
  <title>emoji_u1faf6_1f3fd</title>
  <path fill="#9a6648" d="M0 400H200V300H300V400H500V200H400V100H100V200H0ZM600 400H800V300H900V400H1100V200H1000V100H700V200H600ZM0 1200H100V1100H300V800H0ZM800 1100H1000V1200H1100V800H800ZM400 1200H500V1100H600V1200H700V900H600V1000H500V900H400Z"/>
  <path fill="#ba8d68" d="M0 1100H100V900H200V1100H300V1200H500V900H400V800H300V600H800V800H700V900H600V1200H800V1100H900V900H1000V1100H1100V300H1000V200H700V300H600V400H500V300H400V200H100V300H0Z"/>
  <path fill="#62392b" d="M200 400H500V300H200ZM600 400H900V300H600ZM100 500H200V400H100ZM300 600H500V700H600V600H800V500H600V400H500V500H300ZM900 500H1000V400H900ZM200 800H300V600H200ZM800 800H900V600H800ZM300 900H400V800H300ZM700 900H800V800H700ZM400 1000H500V900H400ZM600 1000H700V900H600ZM200 1100H300V1000H200ZM800 1100H900V1000H800ZM300 1200H500V1100H300ZM600 1200H800V1100H600Z"/>
</svg>
