<?xml version="1.0" encoding="UTF-8"?>
<svg xmlns="http://www.w3.org/2000/svg" viewBox="0 0 1200 1200" width="1200" height="1200">
  <title>emoji_u1f3ed</title>
  <path fill="#a41916" d="M0 1200H700V1000H0Z"/>
  <path fill="#d5d5d5" d="M0 400H300V200H400V100H100V200H0ZM400 400H700V300H900V200H800V100H500V200H400Z"/>
  <path fill="#848486" d="M500 400H1100V200H600V300H500ZM0 1000H500V600H400V700H300V600H0ZM500 1100H600V1200H1100V700H600V1000H500Z"/>
  <path fill="#e14536" d="M0 1100H700V800H400V900H300V800H100V900H0Z"/>
  <path fill="#b2b2b2" d="M400 900H600V1000H500V1100H700V800H1000V1100H1100V300H500V600H400ZM0 700H100V900H300V600H0ZM300 1000H400V900H300Z"/>
  <path fill="#cc1935" d="M0 700H200V800H300V300H0V400H100V600H0ZM400 700H500V800H600V300H400V400H500V600H400Z"/>
  <path fill="#f1edec" d="M100 500H300V400H100ZM500 500H600V400H500ZM0 700H300V600H0ZM400 700H600V600H400Z"/>
  <path fill="#f6b99d" d="M300 1100H400V900H300Z"/>
  <path fill="#a7d0d6" d="M700 700H1000V400H700ZM100 1100H200V1000H100ZM500 1100H600V1000H500Z"/>
  <path fill="#f2eeed" d="M700 600H1000V500H700Z"/>
</svg>
