<?xml version="1.0" encoding="UTF-8"?>
<svg xmlns="http://www.w3.org/2000/svg" viewBox="0 0 1200 1200" width="1200" height="1200">
  <title>emoji_u1f1f5_1f1f2</title>
  <path fill="#0092c8" d="M900 800H1100V300H900Z"/>
  <path fill="#6e6c40" d="M0 500H400V300H0Z"/>
  <path fill="#1399cd" d="M200 1000H500V800H200ZM800 1000H1100V800H800Z"/>
  <path fill="#0091c8" d="M900 900H1000V1000H1100V800H900Z"/>
  <path fill="#ce3001" d="M0 1000H200V800H0Z"/>
  <path fill="#0091c6" d="M300 500H600V300H300Z"/>
  <path fill="#0091c7" d="M900 900H1100V700H1000V600H900Z"/>
  <path fill="#028ec0" d="M800 500H1100V400H1000V300H800Z"/>
  <path fill="#088bb5" d="M400 500H700V300H500V400H400Z"/>
  <path fill="#118aaa" d="M600 500H900V300H600Z"/>
  <path fill="#1a8a9f" d="M500 500H800V400H700V300H600V400H500Z"/>
  <path fill="#1c90bc" d="M900 900H1100V800H1000V700H900Z"/>
  <path fill="#1c9dce" d="M400 1000H700V800H400Z"/>
  <path fill="#1d8a9d" d="M900 700H1000V600H1100V400H900Z"/>
  <path fill="#209fcf" d="M500 900H600V1000H800V800H500Z"/>
  <path fill="#24a1d0" d="M300 900H400V1000H500V900H600V800H300Z"/>
  <path fill="#278e98" d="M700 500H1000V400H900V300H800V400H700Z"/>
  <path fill="#32a7d3" d="M600 900H700V1000H900V800H600Z"/>
  <path fill="#35a8d3" d="M700 900H800V1000H900V900H1000V800H700Z"/>
  <path fill="#afb2a1" d="M0 700H200V400H0Z"/>
  <path fill="#c8ac9c" d="M0 500H300V400H200V300H100V400H0Z"/>
  <path fill="#cd3202" d="M0 900H100V1000H200V700H0Z"/>
  <path fill="#d45401" d="M100 1000H300V800H100Z"/>
  <path fill="#d89595" d="M0 800H100V900H200V600H0Z"/>
  <path fill="#e0e0e0" d="M0 700H100V800H200V500H100V600H0Z"/>
  <path fill="#0191c7" d="M200 600H500V400H400V300H300V400H200Z"/>
  <path fill="#a3a085" d="M0 500H100V600H400V500H300V400H0Z"/>
  <path fill="#ce2901" d="M100 900H200V1000H300V900H400V700H100Z"/>
  <path fill="#0092c7" d="M200 700H500V400H400V500H200ZM900 600H1000V500H1100V400H900Z"/>
  <path fill="#469ba7" d="M400 900H1000V700H400Z"/>
  <path fill="#2991b5" d="M300 900H500V800H600V700H300ZM800 800H900V900H1000V700H800Z"/>
  <path fill="#198ebb" d="M200 800H300V900H400V800H500V700H200Z"/>
  <path fill="#1d8291" d="M800 600H1000V400H800Z"/>
  <path fill="#1d8698" d="M400 600H600V400H400Z"/>
  <path fill="#226c6e" d="M500 600H800V400H500Z"/>
  <path fill="#416644" d="M600 600H900V400H700V500H600Z"/>
  <path fill="#48957c" d="M800 800H1000V600H800Z"/>
  <path fill="#4c734a" d="M700 600H1000V500H900V400H800V500H700Z"/>
  <path fill="#617d3e" d="M400 600H700V500H600V400H500V500H400Z"/>
  <path fill="#6ba594" d="M500 800H600V900H700V800H800V700H500Z"/>
  <path fill="#6c8038" d="M800 800H900V700H1000V500H800Z"/>
  <path fill="#ced1c2" d="M100 600H300V500H200V400H100Z"/>
  <path fill="#d55d01" d="M100 900H200V800H300V700H100Z"/>
  <path fill="#e3c4c3" d="M100 700H300V500H100Z"/>
  <path fill="#4d8c6a" d="M800 700H900V600H1000V500H800ZM300 800H600V600H300Z"/>
  <path fill="#db9996" d="M100 800H400V600H100Z"/>
  <path fill="#e3e3e3" d="M100 700H300V800H400V600H300V500H200V600H100Z"/>
  <path fill="#0290c3" d="M300 800H400V700H500V600H300Z"/>
  <path fill="#63965f" d="M300 700H600V500H400V600H300Z"/>
  <path fill="#6b823b" d="M700 800H900V500H700Z"/>
  <path fill="#82973e" d="M400 700H700V500H500V600H400Z"/>
  <path fill="#919024" d="M600 800H900V700H800V600H600Z"/>
  <path fill="#a2a42b" d="M600 700H800V600H900V500H600Z"/>
  <path fill="#b4b7a6" d="M200 600H300V500H200ZM300 700H400V600H300Z"/>
  <path fill="#bfa209" d="M700 700H800V600H700ZM800 800H900V700H800Z"/>
  <path fill="#cba905" d="M400 700H500V800H700V600H400Z"/>
  <path fill="#f4c600" d="M500 700H800V600H700V500H600V600H500Z"/>
  <path fill="#8d922b" d="M400 700H600V800H700V700H800V600H400Z"/>
  <path fill="#c4af16" d="M800 600H900V500H800ZM600 700H800V600H600Z"/>
  <path fill="#0885ae" d="M300 700H500V600H300Z"/>
  <path fill="#387d6d" d="M400 700H500V600H400Z"/>
  <path fill="#a09920" d="M700 700H800V600H700Z"/>
</svg>
