<?xml version="1.0" encoding="UTF-8"?>
<svg xmlns="http://www.w3.org/2000/svg" viewBox="0 0 1200 1200" width="1200" height="1200">
  <title>emoji_u1f54c</title>
  <path fill="#966737" d="M400 1200H800V1000H400Z"/>
  <path fill="#eebf72" d="M0 1200H400V900H200V500H0ZM800 1200H1100V500H1000V900H800Z"/>
  <path fill="#fbdaa6" d="M0 600H200V300H0ZM1000 600H1100V300H1000ZM0 800H200V700H0ZM0 1000H100V1200H200V1000H300V1200H500V1100H700V1200H900V1000H1000V1200H1100V900H900V700H700V800H500V700H300V900H0ZM1000 800H1100V700H1000Z"/>
  <path fill="#ffa828" d="M0 500H100V400H200V200H0ZM300 1000H500V900H700V1000H900V900H800V800H900V600H800V500H700V400H800V300H600V200H400V400H500V500H400V600H300V800H400V900H300ZM1000 400H1100V200H1000Z"/>
  <path fill="#fcc11a" d="M0 300H200V200H100V100H0ZM400 300H500V400H700V300H600V100H500V200H400ZM700 200H800V100H700ZM1000 300H1100V200H1000ZM300 700H400V800H800V700H900V600H800V500H400V600H300Z"/>
  <path fill="#cf701d" d="M200 1000H400V1100H800V1000H1000V900H700V1000H500V900H200ZM300 1200H400V1100H300ZM800 1200H900V1100H800Z"/>
  <path fill="#b7885a" d="M0 500H100V400H0ZM400 1000H500V900H400ZM700 1000H800V900H700ZM300 1200H400V1100H300ZM800 1200H900V1100H800Z"/>
</svg>
