<?xml version="1.0" encoding="UTF-8"?>
<svg xmlns="http://www.w3.org/2000/svg" viewBox="0 0 1200 1200" width="1200" height="1200">
  <title>emoji_u1f52b</title>
  <path fill="#00aa48" d="M900 900H1000V800H1100V400H900ZM0 700H100V800H200V500H100V600H0Z"/>
  <path fill="#fcc11a" d="M100 600H200V800H500V600H800V500H900V100H800V200H700V100H200V200H100V400H200V500H100ZM700 500V400H800V500Z"/>
  <path fill="#ff8e00" d="M400 800H500V900H600V1000H700V1200H1000V500H1100V100H800V500H400ZM600 900V800H700V900ZM100 800H300V500H100Z"/>
  <path fill="#ec3f23" d="M500 800H700V900H800V800H900V700H500ZM800 1000H1000V900H800ZM800 1200H1000V1100H800Z"/>
  <path fill="#feffff" d="M200 300H600V200H200Z"/>
</svg>
