<?xml version="1.0" encoding="UTF-8"?>
<svg xmlns="http://www.w3.org/2000/svg" viewBox="0 0 1200 1200" width="1200" height="1200">
  <title>emoji_u1faa0</title>
  <path fill="#ff8480" d="M300 800H400V900H600V700H700V600H600V500H500V600H300ZM0 900H100V1000H200V1100H300V1200H500V1000H400V900H300V800H200V700H0Z"/>
  <path fill="#a06841" d="M500 700H700V600H800V500H900V400H1000V300H1100V200H1000V100H900V200H800V300H700V400H600V500H500Z"/>
  <path fill="#b22d2d" d="M200 800H300V900H400V1000H600V800H500V700H400V600H200ZM500 700H600V600H500Z"/>
  <path fill="#874d36" d="M500 700H700V600H500Z"/>
  <path fill="#ed6c66" d="M100 900H200V1000H300V1100H500V1000H600V900H500V800H400V700H300V600H200V700H100Z"/>
  <path fill="#d75254" d="M200 800H300V700H200ZM100 900H200V800H100ZM200 1000H300V900H200ZM300 1100H400V1000H300Z"/>
  <path fill="#f88c8a" d="M200 800H300V700H200Z"/>
</svg>
