<?xml version="1.0" encoding="UTF-8"?>
<svg xmlns="http://www.w3.org/2000/svg" viewBox="0 0 1200 1200" width="1200" height="1200">
  <title>emoji_u1f553</title>
  <path fill="#98c0d0" d="M0 800H100V1000H200V1100H400V1200H700V1100H900V1000H1000V800H1100V500H1000V300H900V200H700V100H400V200H300V300H600V400H800V600H900V700H800V900H600V1000H500V900H300V700H200V400H100V500H0Z"/>
  <path fill="#c2e3f0" d="M100 600H300V400H500V200H200V300H100Z"/>
  <path fill="#fcebcd" d="M100 800H200V1000H400V1100H700V1000H900V800H1000V500H900V300H700V200H400V300H200V500H100Z"/>
  <path fill="#6596a3" d="M400 500H700V300H400ZM200 800H400V500H200ZM700 800H900V500H700ZM400 1000H700V800H400Z"/>
  <path fill="#b0bec5" d="M200 600H500V300H400V400H300V500H200ZM600 600H900V500H800V400H700V300H600ZM200 800H300V900H400V1000H500V700H200ZM600 1000H700V900H800V800H900V700H600Z"/>
  <path fill="#ffffff" d="M200 800H400V1000H500V900H600V1000H700V800H900V700H800V600H900V500H700V300H600V400H500V300H400V500H200V600H300V700H200Z"/>
  <path fill="#563428" d="M500 700H600V600H500ZM600 800H800V700H600Z"/>
</svg>
