<?xml version="1.0" encoding="UTF-8"?>
<svg xmlns="http://www.w3.org/2000/svg" viewBox="0 0 1200 1200" width="1200" height="1200">
  <title>emoji_u1fa72</title>
  <path fill="#143c7c" d="M0 700H100V800H200V900H400V700H300V600H200V500H0ZM700 900H900V800H1000V700H1100V500H900V600H800V700H700Z"/>
  <path fill="#0961b4" d="M0 600H100V700H200V800H300V900H400V1000H700V900H800V800H900V700H1000V600H1100V300H900V400H800V500H700V600H600V700H500V600H400V500H300V400H200V300H0Z"/>
  <path fill="#4fc3f7" d="M0 400H100V500H200V600H300V700H400V500H700V700H800V600H900V500H1000V400H1100V300H1000V200H100V300H0ZM0 600H100V500H0ZM1000 600H1100V500H1000ZM100 700H200V600H100ZM900 700H1000V600H900ZM200 800H300V700H200ZM400 800H500V700H400ZM600 800H700V700H600ZM800 800H900V700H800ZM300 900H400V800H300ZM700 900H800V800H700Z"/>
  <path fill="#0288d1" d="M100 300H1000V200H100ZM100 500H200V400H100ZM300 700H400V800H500V1000H600V800H700V700H800V400H300ZM900 500H1000V400H900Z"/>
</svg>
