<?xml version="1.0" encoding="UTF-8"?>
<svg xmlns="http://www.w3.org/2000/svg" viewBox="0 0 1200 1200" width="1200" height="1200">
  <title>emoji_u1f9ce_1f3fd_200d_2640_200d_27a1</title>
  <path fill="#7c7c7c" d="M400 1000H500V900H700V1200H900V1100H800V700H400Z"/>
  <path fill="#616161" d="M200 1200H500V900H400V1100H200Z"/>
  <path fill="#4568ac" d="M200 1200H300V1100H200ZM700 1200H900V1100H700Z"/>
  <path fill="#ba8d68" d="M400 800H800V700H600V400H700V100H500V200H400Z"/>
  <path fill="#530eeb" d="M400 800H600V700H500V500H600V400H500V300H400Z"/>
  <path fill="#543930" d="M200 400H300V300H400V400H500V300H600V200H700V100H300V200H200Z"/>
</svg>
