<?xml version="1.0" encoding="UTF-8"?>
<svg xmlns="http://www.w3.org/2000/svg" viewBox="0 0 1200 1200" width="1200" height="1200">
  <title>emoji_u1f375</title>
  <path fill="#eaf5fa" d="M400 200H500V100H400ZM700 200H800V100H700ZM300 300H400V200H300ZM600 300H700V200H600Z"/>
  <path fill="#5f989e" d="M200 1100H300V1200H800V1100H900V1000H200Z"/>
  <path fill="#bacdd2" d="M200 1100H900V500H800V400H300V500H200Z"/>
  <path fill="#eef9ff" d="M300 800H500V700H800V500H300Z"/>
  <path fill="#dcedf6" d="M300 1100H400V900H300Z"/>
  <path fill="#aad876" d="M400 800H800V600H400Z"/>
  <path fill="#7db240" d="M300 800H700V700H500V600H400V700H300ZM700 700H800V600H700Z"/>
</svg>
