<?xml version="1.0" encoding="UTF-8"?>
<svg xmlns="http://www.w3.org/2000/svg" viewBox="0 0 1200 1200" width="1200" height="1200">
  <title>emoji_u1f1e7_1f1ed</title>
  <path fill="#d12135" d="M300 500H600V300H300ZM300 1000H600V800H300Z"/>
  <path fill="#eeacb3" d="M200 500H500V400H400V300H200ZM200 1000H400V900H500V800H200Z"/>
  <path fill="#fefbfb" d="M100 500H400V400H300V300H100ZM100 1000H300V900H400V800H100Z"/>
  <path fill="#ffffff" d="M0 1000H200V900H300V800H400V500H300V400H200V300H0Z"/>
  <path fill="#ce1126" d="M400 900H500V1000H1100V300H500V400H400Z"/>
  <path fill="#ce1227" d="M300 600H500V400H300ZM300 900H500V700H300Z"/>
  <path fill="#e06875" d="M200 600H500V500H400V400H200ZM200 900H400V800H500V700H200Z"/>
  <path fill="#fdf7f7" d="M200 900H300V800H400V500H300V400H200V600H300V700H200Z"/>
  <path fill="#d12033" d="M300 800H500V500H300Z"/>
  <path fill="#e6848f" d="M300 800H400V700H500V600H400V500H300Z"/>
  <path fill="#d12134" d="M300 700H500V600H300Z"/>
  <path fill="#f2bdc3" d="M300 700H400V600H300Z"/>
</svg>
