<?xml version="1.0" encoding="UTF-8"?>
<svg xmlns="http://www.w3.org/2000/svg" viewBox="0 0 1200 1200" width="1200" height="1200">
  <title>emoji_u1f1e8_1f1e8</title>
  <path fill="#018000" d="M600 500H900V300H600Z"/>
  <path fill="#0c8500" d="M700 1000H1000V800H700Z"/>
  <path fill="#0e8500" d="M700 500H1000V300H800V400H700Z"/>
  <path fill="#349400" d="M0 600H200V300H0Z"/>
  <path fill="#3a9600" d="M100 500H400V300H100Z"/>
  <path fill="#3b9600" d="M0 700H200V400H100V500H0Z"/>
  <path fill="#58a100" d="M0 400H100V500H300V400H200V300H0Z"/>
  <path fill="#008000" d="M0 400H100V300H0ZM0 1000H800V900H900V1000H1100V300H900V400H700V300H300V400H100V600H0Z"/>
  <path fill="#028100" d="M600 600H800V500H900V400H700V500H600Z"/>
  <path fill="#038100" d="M600 800H700V700H600ZM700 900H900V800H700Z"/>
  <path fill="#088300" d="M200 600H500V500H400V400H200Z"/>
  <path fill="#339300" d="M800 500H900V400H800ZM700 600H800V500H700ZM900 600H1000V500H900Z"/>
  <path fill="#359400" d="M800 900H900V800H800Z"/>
  <path fill="#439900" d="M900 600H1000V500H900ZM800 700H900V600H800Z"/>
  <path fill="#6aa300" d="M100 700H300V500H100Z"/>
  <path fill="#7cae00" d="M100 600H400V500H300V400H100Z"/>
  <path fill="#e1d200" d="M100 600H200V700H300V500H200V400H100Z"/>
  <path fill="#90b600" d="M100 500H200V400H100ZM200 600H400V800H600V700H500V600H600V500H200Z"/>
  <path fill="#4a9c00" d="M300 600H600V500H300ZM400 800H600V700H400Z"/>
  <path fill="#62a500" d="M500 800H700V500H500V600H600V700H500Z"/>
  <path fill="#048200" d="M600 800H700V700H800V600H600Z"/>
  <path fill="#058200" d="M600 700H900V600H800V500H600Z"/>
  <path fill="#0a8400" d="M200 700H300V600H400V500H200Z"/>
  <path fill="#168800" d="M700 700H900V600H700Z"/>
  <path fill="#188900" d="M600 700H800V600H700V500H600Z"/>
  <path fill="#4c9a00" d="M200 700H300V500H200Z"/>
  <path fill="#cfc100" d="M200 600H300V500H200Z"/>
  <path fill="#098300" d="M600 700H800V600H600Z"/>
  <path fill="#218d00" d="M600 700H700V600H600Z"/>
</svg>
