<?xml version="1.0" encoding="UTF-8"?>
<svg xmlns="http://www.w3.org/2000/svg" viewBox="0 0 1200 1200" width="1200" height="1200">
  <title>emoji_u1f1e6_1f1e9</title>
  <path fill="#fedf00" d="M300 600H800V300H300ZM300 1000H800V700H300Z"/>
  <path fill="#7a7758" d="M200 600H500V500H400V300H200ZM200 1000H400V800H500V700H200Z"/>
  <path fill="#e6731e" d="M600 600H900V300H700V500H600ZM600 800H700V1000H900V700H600Z"/>
  <path fill="#0018a8" d="M0 1000H300V800H400V500H300V300H0Z"/>
  <path fill="#d0103a" d="M700 800H800V1000H1100V300H800V500H700Z"/>
  <path fill="#f9da07" d="M400 600H700V500H600V400H500V500H400Z"/>
  <path fill="#fadb04" d="M400 800H500V900H600V800H700V700H400Z"/>
  <path fill="#78765a" d="M300 700H500V500H300Z"/>
  <path fill="#797659" d="M300 800H500V600H300Z"/>
  <path fill="#c5a258" d="M400 800H700V600H400Z"/>
  <path fill="#d09649" d="M400 700H700V500H400Z"/>
  <path fill="#d2b340" d="M500 700H600V800H800V600H500Z"/>
  <path fill="#d3b041" d="M300 700H400V800H500V700H600V600H300Z"/>
  <path fill="#d6a743" d="M300 700H600V600H500V500H400V600H300Z"/>
  <path fill="#d6ac37" d="M500 700H800V500H600V600H500Z"/>
  <path fill="#e4711f" d="M600 700H700V800H800V600H600Z"/>
  <path fill="#e47120" d="M600 700H800V500H700V600H600Z"/>
  <path fill="#76745d" d="M300 700H500V600H300Z"/>
  <path fill="#d0994b" d="M400 700H600V600H400Z"/>
  <path fill="#d1a23f" d="M500 700H800V600H500Z"/>
  <path fill="#df942e" d="M500 700H600V600H500Z"/>
  <path fill="#e26f23" d="M700 700H800V600H700Z"/>
</svg>
