<?xml version="1.0" encoding="UTF-8"?>
<svg xmlns="http://www.w3.org/2000/svg" viewBox="0 0 1200 1200" width="1200" height="1200">
  <title>emoji_u1f975</title>
  <path fill="#d84213" d="M0 1000H100V1200H900V1100H1000V1000H1100V300H1000V100H200V200H100V300H0Z"/>
  <path fill="#4fc3f7" d="M700 500H800V600H1000V400H1100V200H1000V100H900V200H700ZM0 1100H100V1200H200V1100H300V700H100V900H0Z"/>
  <path fill="#81d4fa" d="M1000 400H1100V200H1000ZM200 1100H400V800H200Z"/>
  <path fill="#ff4081" d="M300 1100H500V1200H600V1100H800V800H300Z"/>
  <path fill="#bb0030" d="M400 900H500V1100H600V900H700V800H400Z"/>
  <path fill="#f4a223" d="M100 800H200V900H300V1100H400V900H700V1100H900V1000H1000V500H900V400H800V200H200V300H100Z"/>
  <path fill="#422b0d" d="M300 400H400V300H300ZM700 400H800V300H700ZM200 500H300V400H200ZM800 500H900V400H800ZM300 700H400V500H300ZM700 700H800V500H700ZM300 1000H400V900H700V1000H800V800H300Z"/>
</svg>
