<?xml version="1.0" encoding="UTF-8"?>
<svg xmlns="http://www.w3.org/2000/svg" viewBox="0 0 1200 1200" width="1200" height="1200">
  <title>emoji_u1f58c</title>
  <path fill="#2196f3" d="M500 600H800V500H900V200H800V300H700V400H600V500H500Z"/>
  <path fill="#eeeeee" d="M300 800H600V500H500V600H400V700H300Z"/>
  <path fill="#c67100" d="M0 1100H400V1000H500V800H600V700H200V800H100V1000H0Z"/>
  <path fill="#1565c0" d="M500 800H600V700H700V600H800V500H900V400H1000V300H1100V100H900V200H800V400H700V500H500Z"/>
  <path fill="#f09300" d="M200 800H300V700H200ZM400 800H500V700H400ZM100 900H200V800H100ZM300 900H400V800H300ZM200 1000H300V900H200ZM400 1000H500V900H400Z"/>
  <path fill="#bdbdbd" d="M400 800H600V600H500V700H400Z"/>
  <path fill="#9e9e9e" d="M500 700H600V600H500Z"/>
</svg>
