<?xml version="1.0" encoding="UTF-8"?>
<svg xmlns="http://www.w3.org/2000/svg" viewBox="0 0 1200 1200" width="1200" height="1200">
  <title>emoji_u1f3ee</title>
  <path fill="#37474f" d="M400 300H900V200H800V100H400ZM400 1200H800V1100H900V1000H400Z"/>
  <path fill="#2f7889" d="M300 300H600V200H500V100H400V200H300ZM300 1100H400V1200H500V1100H600V1000H300Z"/>
  <path fill="#9b0000" d="M200 1000H300V1100H900V1000H1000V300H900V200H800V300H700V600H800V700H700V900H500V700H400V600H500V300H400V200H300V300H200Z"/>
  <path fill="#ce2d2b" d="M200 700H300V800H400V900H300V1000H900V900H800V800H900V700H1000V600H900V500H800V400H900V200H300V400H400V500H300V600H200ZM200 500H300V400H200ZM900 500H1000V400H900ZM200 900H300V800H200ZM900 900H1000V800H900Z"/>
  <path fill="#b81612" d="M300 700H400V900H500V1000H700V900H800V700H900V600H800V400H700V300H500V400H400V600H300Z"/>
  <path fill="#f75a28" d="M500 500H700V300H500ZM500 1000H700V800H500Z"/>
  <path fill="#fa7417" d="M400 800H500V900H700V800H800V500H700V400H500V500H400Z"/>
  <path fill="#d62d24" d="M400 700H500V900H700V700H800V600H700V400H500V600H400Z"/>
  <path fill="#ffb526" d="M500 800H700V500H500Z"/>
  <path fill="#f44336" d="M500 700H700V600H500Z"/>
</svg>
