<?xml version="1.0" encoding="UTF-8"?>
<svg xmlns="http://www.w3.org/2000/svg" viewBox="0 0 1200 1200" width="1200" height="1200">
  <title>emoji_u1f4db</title>
  <path fill="#cc3332" d="M100 1100H200V1200H900V1100H1000V1000H1100V200H1000V100H900V200H800V300H700V100H500V200H400V300H300V100H100V400H200V500H500V400H600V500H900V900H800V1000H100Z"/>
  <path fill="#f44336" d="M0 1000H100V1100H900V1000H1000V200H800V400H700V300H600V100H500V200H400V400H300V300H200V100H100V200H0Z"/>
  <path fill="#ff8a80" d="M500 300H600V200H500ZM900 300H1000V200H900ZM100 900H200V400H100ZM200 1000H300V900H200Z"/>
  <path fill="#f1f2f2" d="M300 800H800V600H300Z"/>
</svg>
