<?xml version="1.0" encoding="UTF-8"?>
<svg xmlns="http://www.w3.org/2000/svg" viewBox="0 0 1200 1200" width="1200" height="1200">
  <title>emoji_u1f3d0</title>
  <path fill="#c5b3af" d="M200 1100H300V1200H800V1100H900V1000H1000V900H1100V600H900V700H800V900H500V1000H200Z"/>
  <path fill="#d8cdc9" d="M0 900H100V1000H200V1100H600V1000H800V1100H900V1000H1000V900H900V800H1000V700H1100V400H1000V300H900V200H800V100H300V200H200V300H100V400H0ZM1000 900H1100V800H1000Z"/>
  <path fill="#f1edec" d="M0 700H100V800H200V900H100V1000H200V1100H300V1000H800V900H900V700H1000V500H1100V400H1000V300H900V400H700V300H900V200H800V100H300V200H400V300H300V200H200V300H100V400H200V500H100V400H0ZM500 400V300H600V200H700V300H600V400ZM100 700V600H300V500H400V600H300V700ZM500 700V600H600V700ZM500 900V800H600V900ZM0 900H100V800H0Z"/>
  <path fill="#9b8d8b" d="M500 200H600V100H500ZM700 300H800V100H700ZM200 300H300V200H200ZM400 300H500V200H400ZM300 400H400V300H300ZM400 1000H500V1100H600V1000H800V900H900V400H700V300H600V400H400V500H600V700H500V800H600V900H400ZM700 900V500H800V900ZM900 400H1000V300H900ZM0 500H100V400H0ZM100 600H300V500H100ZM0 700H100V600H0ZM300 700H500V600H300ZM100 800H200V700H100ZM200 1100H300V900H400V800H200ZM1000 900H1100V800H1000ZM900 1000H1000V900H900ZM800 1100H900V1000H800ZM600 1200H800V1100H600Z"/>
</svg>
