<?xml version="1.0" encoding="UTF-8"?>
<svg xmlns="http://www.w3.org/2000/svg" viewBox="0 0 1200 1200" width="1200" height="1200">
  <title>emoji_u1f409</title>
  <path fill="#7cdb8b" d="M200 200H300V100H200ZM0 500H300V300H200V200H100V400H0Z"/>
  <path fill="#d43330" d="M0 700H100V800H200V700H300V400H0V500H100V600H0Z"/>
  <path fill="#bdce44" d="M700 500H800V400H700ZM700 700H1100V400H900V500H800V600H700Z"/>
  <path fill="#7bd989" d="M200 1100H300V1200H700V1000H600V900H700V600H400V700H500V800H400V900H200ZM300 800H400V700H300Z"/>
  <path fill="#ffba02" d="M400 500H700V200H400Z"/>
  <path fill="#00aa48" d="M400 1100H600V1200H800V1100H900V1000H1000V900H1100V600H1000V500H900V600H500V700H600V800H500V900H400ZM200 1100H300V900H200ZM300 1200H400V1100H300Z"/>
  <path fill="#bece44" d="M100 800H400V700H700V500H300V600H100Z"/>
  <path fill="#02ab47" d="M100 700H400V600H600V400H500V200H400V300H200V400H100V500H200V600H100Z"/>
  <path fill="#15833a" d="M400 300H500V200H400ZM400 500H500V600H600V700H700V800H800V700H900V600H700V500H800V400H700V300H800V200H600V400H400Z"/>
  <path fill="#2f2e2f" d="M300 500H500V400H300Z"/>
  <path fill="#6d8038" d="M800 700H900V600H800ZM700 900H800V700H700ZM600 1000H700V900H600Z"/>
  <path fill="#79da89" d="M400 500H500V400H400Z"/>
</svg>
