<?xml version="1.0" encoding="UTF-8"?>
<svg xmlns="http://www.w3.org/2000/svg" viewBox="0 0 1200 1200" width="1200" height="1200">
  <title>emoji_u1f4b2</title>
  <path fill="#7adc8a" d="M200 500H400V400H500V300H700V100H500V200H300V300H200ZM200 1000H400V800H200Z"/>
  <path fill="#2f7c31" d="M200 1000H300V1100H500V1200H700V1100H900V1000H1000V700H900V600H800V500H1000V300H900V200H400V300H300V400H200V600H300V700H500V900H400V800H300V900H200ZM400 500V400H500V500ZM700 500V400H800V500ZM700 900V800H800V900Z"/>
  <path fill="#02ab47" d="M400 300H800V400H900V500H1000V300H900V200H700V100H600V200H400ZM200 500H300V600H700V700H900V600H800V500H700V400H500V500H400V300H300V400H200ZM900 900H1000V700H900ZM300 1000H900V900H700V800H500V900H400V800H300Z"/>
</svg>
