<?xml version="1.0" encoding="UTF-8"?>
<svg xmlns="http://www.w3.org/2000/svg" viewBox="0 0 1200 1200" width="1200" height="1200">
  <title>emoji_u1f9cb</title>
  <path fill="#b39ddb" d="M600 400H900V300H800V100H700V300H600Z"/>
  <path fill="#72e6ac" d="M100 500H1100V400H1000V300H200V400H100Z"/>
  <path fill="#efba92" d="M200 900H300V1200H900V900H1000V700H200Z"/>
  <path fill="#c5e7fe" d="M100 500H200V800H400V700H800V800H1000V500H1100V400H100Z"/>
  <path fill="#33ac71" d="M100 500H300V600H400V500H600V600H700V500H1100V400H100Z"/>
  <path fill="#57433a" d="M300 900H400V800H700V900H800V800H900V700H600V600H300ZM500 1000H600V900H500ZM400 1200H500V1100H400ZM700 1200H800V1100H700Z"/>
  <path fill="#ca9269" d="M200 800H300V900H400V700H500V800H1000V700H900V600H700V500H600V600H400V500H300V700H200Z"/>
  <path fill="#f3fbff" d="M300 800H400V500H300Z"/>
  <path fill="#f4e8e0" d="M300 900H400V700H300Z"/>
  <path fill="#fbf0e7" d="M300 900H400V800H300Z"/>
  <path fill="#9575cd" d="M600 700H700V500H600Z"/>
</svg>
