<?xml version="1.0" encoding="UTF-8"?>
<svg xmlns="http://www.w3.org/2000/svg" viewBox="0 0 1200 1200" width="1200" height="1200">
  <title>emoji_u1f353</title>
  <path fill="#ee1c25" d="M100 900H200V1000H300V1100H400V1200H700V1100H800V1000H900V900H1000V500H900V300H700V200H400V300H200V500H100Z"/>
  <path fill="#98b715" d="M100 300H200V400H500V300H600V400H900V300H1000V200H900V100H600V200H500V100H200V200H100Z"/>
  <path fill="#759937" d="M100 300H200V200H100ZM900 300H1000V200H900ZM200 400H500V300H200ZM600 400H900V300H600ZM500 500H600V400H500Z"/>
  <path fill="#ff2a23" d="M100 800H200V900H300V1000H400V1100H700V1000H800V900H900V800H1000V600H900V500H600V400H500V500H200V600H100Z"/>
  <path fill="#ffebca" d="M800 600H900V500H800ZM200 700H300V600H200ZM500 700H600V600H500ZM700 800H800V700H700ZM300 900H400V800H300ZM600 1000H700V900H600ZM400 1100H500V1000H400Z"/>
</svg>
