<?xml version="1.0" encoding="UTF-8"?>
<svg xmlns="http://www.w3.org/2000/svg" viewBox="0 0 1200 1200" width="1200" height="1200">
  <title>emoji_u1f3f9</title>
  <path fill="#b8ced4" d="M400 200H500V300H600V100H400ZM300 300H400V200H300ZM200 400H300V300H200ZM0 700H100V900H200V800H300V500H200V400H100V600H0ZM200 1000H300V900H200ZM300 1100H400V1000H300ZM400 1200H600V1000H500V1100H400Z"/>
  <path fill="#966738" d="M500 300H600V100H500ZM600 500H700V300H600ZM700 600H800V500H700ZM700 800H800V700H700ZM600 1000H700V800H600ZM500 1200H600V1000H500Z"/>
  <path fill="#d29f6c" d="M600 700H700V800H800V700H900V600H800V500H700V600H600Z"/>
  <path fill="#858585" d="M800 700H900V800H1000V700H1100V600H1000V500H900V600H800Z"/>
  <path fill="#f3c976" d="M100 700H200V800H400V700H900V600H400V500H200V600H100Z"/>
  <path fill="#5d6265" d="M200 600H300V500H200ZM100 700H200V600H100ZM200 800H300V700H200Z"/>
  <path fill="#db0d2a" d="M200 600H400V500H200ZM200 800H400V700H200Z"/>
</svg>
