<?xml version="1.0" encoding="UTF-8"?>
<svg xmlns="http://www.w3.org/2000/svg" viewBox="0 0 1200 1200" width="1200" height="1200">
  <title>emoji_u1fab3</title>
  <path fill="#814d3c" d="M0 500H100V400H0ZM100 800H300V900H400V400H300V500H100V600H300V700H100ZM700 900H800V800H1000V700H800V600H1000V500H800V400H700ZM1000 500H1100V400H1000ZM0 900H100V800H0ZM1000 900H1100V800H1000ZM200 1100H300V900H200ZM800 1100H900V900H800ZM100 1200H200V1100H100ZM900 1200H1000V1100H900Z"/>
  <path fill="#cf7756" d="M100 200H400V100H100ZM700 200H1000V100H700ZM0 300H100V200H0ZM300 900H400V1100H700V900H800V300H700V200H600V300H500V200H400V300H300ZM1000 300H1100V200H1000Z"/>
  <path fill="#51362d" d="M300 600H400V700H500V1100H600V700H700V600H800V400H700V500H400V400H300Z"/>
  <path fill="#734434" d="M400 400H500V300H400ZM600 400H700V300H600ZM300 500H400V400H300ZM700 500H800V400H700ZM400 600H500V700H600V600H700V500H400Z"/>
  <path fill="#2f2f2f" d="M400 400H500V300H400ZM600 400H700V300H600Z"/>
</svg>
