<?xml version="1.0" encoding="UTF-8"?>
<svg xmlns="http://www.w3.org/2000/svg" viewBox="0 0 1200 1200" width="1200" height="1200">
  <title>emoji_u1f4f4</title>
  <path fill="#f77e00" d="M0 1100H100V1200H1000V1100H1100V200H1000V100H900V1000H500V800H200V1000H0Z"/>
  <path fill="#ff9800" d="M0 1100H1000V500H1100V400H1000V100H100V200H0ZM300 1000V900H400V1000Z"/>
  <path fill="#fafafa" d="M100 1000H300V900H200V700H300V500H200V300H500V400H600V200H100ZM300 500H400V400H300ZM600 800H700V700H800V600H700V500H800V400H600ZM900 800H1000V700H1100V600H1000V500H1100V400H900ZM400 700H500V500H400ZM300 800H400V700H300ZM400 1000H600V800H500V900H400Z"/>
</svg>
