<?xml version="1.0" encoding="UTF-8"?>
<svg xmlns="http://www.w3.org/2000/svg" viewBox="0 0 1200 1200" width="1200" height="1200">
  <title>emoji_u1f1ef_1f1f4</title>
  <path fill="#8c0c1a" d="M0 500H200V300H0Z"/>
  <path fill="#8c322d" d="M0 1000H200V800H0Z"/>
  <path fill="#150204" d="M0 500H300V300H100V400H0Z"/>
  <path fill="#156f3b" d="M0 900H100V1000H300V800H0Z"/>
  <path fill="#000000" d="M100 500H300V600H1100V300H200V400H100Z"/>
  <path fill="#007a3d" d="M100 900H200V1000H1100V700H300V800H100Z"/>
  <path fill="#ce1126" d="M0 900H400V800H500V500H400V400H0Z"/>
  <path fill="#a9a9a9" d="M400 700H1100V500H400Z"/>
  <path fill="#a9d2bd" d="M400 800H1100V600H400Z"/>
  <path fill="#ffffff" d="M500 700H1100V600H500Z"/>
  <path fill="#010000" d="M200 500H300V600H500V500H400V400H200Z"/>
  <path fill="#01793d" d="M200 900H400V800H500V700H300V800H200Z"/>
  <path fill="#54070f" d="M100 500H300V400H100ZM300 600H400V500H300Z"/>
  <path fill="#544f34" d="M300 800H400V700H300ZM100 900H300V800H100Z"/>
  <path fill="#c21024" d="M100 500H200V400H100Z"/>
  <path fill="#c21727" d="M100 900H200V800H100Z"/>
  <path fill="#dc5665" d="M100 700H300V600H100Z"/>
  <path fill="#a18386" d="M300 600H400V700H600V600H500V500H300Z"/>
  <path fill="#a1ac9b" d="M300 800H500V700H600V600H400V700H300Z"/>
  <path fill="#a61626" d="M300 600H400V500H300ZM200 700H300V600H200ZM400 700H500V600H400Z"/>
  <path fill="#a62e32" d="M200 700H300V600H200ZM400 700H500V600H400ZM300 800H400V700H300Z"/>
  <path fill="#ce1227" d="M200 700H300V600H200Z"/>
  <path fill="#d11e32" d="M400 700H600V600H400Z"/>
  <path fill="#f7d9dd" d="M500 700H600V600H500Z"/>
</svg>
