<?xml version="1.0" encoding="UTF-8"?>
<svg xmlns="http://www.w3.org/2000/svg" viewBox="0 0 1200 1200" width="1200" height="1200">
  <title>emoji_u1fa86</title>
  <path fill="#c2362b" d="M200 1200H1000V1100H800V1000H400V1100H200Z"/>
  <path fill="#bf1a1a" d="M300 1000H400V1100H800V1000H900V700H700V800H500V700H300Z"/>
  <path fill="#3e2723" d="M400 500H800V200H700V100H500V200H400Z"/>
  <path fill="#00897b" d="M500 200H700V100H500ZM400 300H500V200H400ZM700 300H800V200H700ZM300 800H900V500H800V400H700V300H500V400H400V500H300Z"/>
  <path fill="#f54536" d="M300 800H400V900H500V1000H700V900H800V800H900V700H800V600H700V700H500V600H400V700H300Z"/>
  <path fill="#ffca28" d="M500 500H700V300H500Z"/>
  <path fill="#ffffff" d="M500 1000H700V700H500Z"/>
  <path fill="#c7c7c7" d="M500 1000H700V900H500Z"/>
</svg>
