<?xml version="1.0" encoding="UTF-8"?>
<svg xmlns="http://www.w3.org/2000/svg" viewBox="0 0 1200 1200" width="1200" height="1200">
  <title>emoji_u2695</title>
  <path fill="#5731a5" d="M0 500H100V600H200V700H100V900H200V1000H300V1100H200V1200H600V1100H700V900H600V800H700V700H800V500H1000V600H1100V400H1000V300H800V200H100V300H0ZM700 500V400H800V500Z"/>
  <path fill="#7855bd" d="M100 500H400V600H200V700H400V800H200V900H400V1000H300V1100H400V1200H500V1100H600V1000H500V900H600V800H500V700H700V600H500V500H700V400H500V300H800V200H500V100H400V200H100V300H400V400H100ZM800 200H900V100H800ZM800 400H1000V200H900V300H800ZM0 400H100V300H0ZM1000 500H1100V400H1000ZM700 600H800V500H700ZM100 800H200V700H100ZM600 1000H700V900H600ZM200 1200H300V1100H200Z"/>
</svg>
