<?xml version="1.0" encoding="UTF-8"?>
<svg xmlns="http://www.w3.org/2000/svg" viewBox="0 0 1200 1200" width="1200" height="1200">
  <title>emoji_u1f6a7</title>
  <path fill="#ffca28" d="M0 400H500V300H400V100H100V300H0ZM600 400H1100V300H1000V100H700V300H600Z"/>
  <path fill="#bdbdbd" d="M100 1200H400V900H100ZM700 1200H1000V900H700Z"/>
  <path fill="#9e9e9e" d="M0 900H100V1000H400V900H500V700H400V600H500V500H600V600H700V700H600V900H700V1000H1000V900H1100V700H1000V600H1100V300H900V500H800V300H300V500H200V300H0V600H100V700H0Z"/>
  <path fill="#ffd600" d="M0 600H1100V400H1000V300H700V400H400V300H100V400H0ZM0 900H1100V700H0Z"/>
  <path fill="#212121" d="M0 600H100V500H200V400H400V300H100V400H0ZM700 600H900V500H1000V300H700V400H800V500H700ZM300 600H500V500H600V400H400V500H300ZM100 900H300V800H400V700H200V800H100ZM500 900H700V800H800V700H600V800H500ZM900 900H1100V700H1000V800H900Z"/>
  <path fill="#ff5722" d="M100 400H400V300H300V200H200V300H100ZM700 400H1000V300H900V200H800V300H700Z"/>
  <path fill="#e2a610" d="M100 400H400V300H100ZM700 400H1000V300H700Z"/>
</svg>
