<?xml version="1.0" encoding="UTF-8"?>
<svg xmlns="http://www.w3.org/2000/svg" viewBox="0 0 1200 1200" width="1200" height="1200">
  <title>emoji_u264c</title>
  <path fill="#fbc02d" d="M300 1100H400V1200H700V1100H900V1000H1000V800H1100V500H1000V400H900V700H800V900H600V1000H300Z"/>
  <path fill="#fef4af" d="M0 600H400V500H500V400H600V100H400V200H200V300H100V500H0Z"/>
  <path fill="#fce438" d="M0 800H100V1000H200V1100H700V1000H900V800H1000V300H900V200H700V100H400V200H500V300H400V400H300V500H0ZM200 300H300V200H200ZM100 400H200V300H100Z"/>
  <path fill="#fafafa" d="M500 400H700V300H500ZM300 600H400V700H500V400H400V500H300ZM700 700H800V400H700ZM200 700H300V600H200ZM300 800H400V700H300ZM600 900H700V700H600ZM700 1000H800V900H700Z"/>
</svg>
