<?xml version="1.0" encoding="UTF-8"?>
<svg xmlns="http://www.w3.org/2000/svg" viewBox="0 0 1200 1200" width="1200" height="1200">
  <title>emoji_u1f38c</title>
  <path fill="#c8c8c8" d="M200 1200H400V1000H500V800H600V1000H700V1200H900V1000H800V800H700V600H800V500H700V400H600V500H500V400H400V500H300V600H400V800H300V1000H200Z"/>
  <path fill="#aeb0b0" d="M400 600H500V500H400ZM600 600H700V500H600ZM500 800H600V600H500ZM400 1000H500V800H400ZM600 1000H700V800H600ZM300 1200H400V1000H300ZM700 1200H800V1000H700Z"/>
  <path fill="#9a9a9a" d="M0 700H200V600H500V400H100V500H0ZM600 600H900V700H1100V500H1000V400H600Z"/>
  <path fill="#dadada" d="M0 600H200V500H500V200H400V100H200V200H0ZM600 500H900V600H1100V200H900V100H700V200H600Z"/>
  <path fill="#fefefe" d="M100 500H200V400H400V200H200V300H100ZM700 400H900V500H1000V300H900V200H700Z"/>
  <path fill="#db0d27" d="M200 400H300V300H200ZM800 400H900V300H800Z"/>
</svg>
