<?xml version="1.0" encoding="UTF-8"?>
<svg xmlns="http://www.w3.org/2000/svg" viewBox="0 0 1200 1200" width="1200" height="1200">
  <title>emoji_u1fa82</title>
  <path fill="#5e6367" d="M400 1000H700V900H600V800H700V700H400V800H500V900H400Z"/>
  <path fill="#e04537" d="M400 1000H500V1100H600V1000H700V900H400ZM400 1200H500V1100H400ZM600 1200H700V1100H600Z"/>
  <path fill="#467ce0" d="M300 800H800V700H600V600H500V700H300Z"/>
  <path fill="#8beaa9" d="M400 400H900V100H400Z"/>
  <path fill="#349efe" d="M200 400H600V300H500V100H200Z"/>
  <path fill="#e59f1d" d="M700 500H1000V400H1100V200H1000V100H800V300H700Z"/>
  <path fill="#ff8984" d="M0 400H100V500H400V300H300V100H100V200H0Z"/>
  <path fill="#b1b1b1" d="M100 500H200V700H300V500H400V400H500V700H600V400H700V500H800V700H900V500H1000V400H800V300H300V400H100ZM300 800H400V700H300ZM700 800H800V700H700Z"/>
  <path fill="#d2711f" d="M600 400H800V300H600ZM800 500H900V400H800Z"/>
  <path fill="#e34b44" d="M300 400H500V300H300ZM200 500H300V400H200Z"/>
  <path fill="#164aca" d="M400 400H700V300H400Z"/>
  <path fill="#0aac81" d="M600 400H700V300H600Z"/>
</svg>
