<?xml version="1.0" encoding="UTF-8"?>
<svg xmlns="http://www.w3.org/2000/svg" viewBox="0 0 1200 1200" width="1200" height="1200">
  <title>emoji_u1f957</title>
  <path fill="#d5d5d5" d="M0 1100H100V1200H1000V1100H1100V500H900V1000H200V500H0Z"/>
  <path fill="#fe2a19" d="M0 600H300V400H500V100H400V200H200V300H0Z"/>
  <path fill="#58a12f" d="M0 600H200V500H300V700H600V400H800V300H900V200H800V100H400V300H300V200H100V300H0ZM100 500V400H200V500Z"/>
  <path fill="#86c82c" d="M0 600H100V800H300V700H400V900H1000V600H1100V400H1000V300H900V200H700V300H500V400H400V300H300V400H200V500H0ZM400 600V500H500V600Z"/>
  <path fill="#f6f6f6" d="M100 1100H1000V700H900V800H300V700H100Z"/>
  <path fill="#cb1c35" d="M200 500H400V300H200Z"/>
  <path fill="#f7ca76" d="M300 400H400V300H300ZM200 500H300V400H200Z"/>
  <path fill="#ffffff" d="M500 500H600V600H700V500H800V300H500ZM100 800H200V900H900V800H500V700H600V600H200V700H100ZM800 700H900V600H800ZM900 800H1000V700H900ZM100 1000H200V900H100ZM200 1100H300V1000H200Z"/>
  <path fill="#2d792a" d="M500 500H600V600H700V700H900V600H1000V500H900V400H800V300H700V400H500ZM200 800H400V700H500V600H200Z"/>
  <path fill="#e7fcae" d="M600 500H700V400H600ZM700 600H900V500H700ZM400 700H500V600H400ZM200 800H400V700H200Z"/>
  <path fill="#d2608c" d="M700 400H800V300H700ZM500 500H700V400H500ZM400 700H500V600H400Z"/>
</svg>
