<?xml version="1.0" encoding="UTF-8"?>
<svg xmlns="http://www.w3.org/2000/svg" viewBox="0 0 1200 1200" width="1200" height="1200">
  <title>emoji_u1f3e5</title>
  <path fill="#b9ced3" d="M200 1200H900V1000H200Z"/>
  <path fill="#6ba4ae" d="M0 1200H300V1100H400V1000H300V900H0ZM700 1100H800V1200H1100V900H800V1000H700Z"/>
  <path fill="#bacfd4" d="M0 1000H200V1100H300V1000H400V200H300V300H0ZM700 1000H800V1100H900V1000H1100V300H800V200H700Z"/>
  <path fill="#f1edec" d="M200 1100H400V1200H500V1100H600V1200H700V1100H900V900H800V100H300V900H200Z"/>
  <path fill="#546f7a" d="M100 500H200V400H100ZM900 500H1000V400H900ZM100 700H200V600H100ZM400 700H700V600H400ZM900 700H1000V600H900ZM100 900H200V800H100ZM200 1000H900V900H700V800H400V900H200ZM900 900H1000V800H900ZM400 1200H500V1100H400ZM600 1200H700V1100H600Z"/>
  <path fill="#dd0c26" d="M400 400H500V500H600V400H700V300H600V200H500V300H400Z"/>
  <path fill="#fefffd" d="M200 1000H900V900H200Z"/>
</svg>
