<?xml version="1.0" encoding="UTF-8"?>
<svg xmlns="http://www.w3.org/2000/svg" viewBox="0 0 1200 1200" width="1200" height="1200">
  <title>emoji_u1f33b</title>
  <path fill="#728034" d="M300 1100H500V1200H700V1100H900V900H500V1000H400V900H300Z"/>
  <path fill="#ffb901" d="M100 700H200V1000H300V1100H400V900H500V1000H600V1100H700V1000H800V1100H900V800H1000V700H1100V600H1000V500H900V400H1000V200H800V300H700V200H600V100H500V200H200V400H300V500H200V600H100Z"/>
  <path fill="#94a71a" d="M500 1200H700V900H500ZM300 1100H400V1000H300ZM800 1100H900V1000H800Z"/>
  <path fill="#d05416" d="M400 700H500V800H700V700H800V500H700V400H500V500H400Z"/>
  <path fill="#6d4d42" d="M500 700H700V500H500Z"/>
</svg>
