<?xml version="1.0" encoding="UTF-8"?>
<svg xmlns="http://www.w3.org/2000/svg" viewBox="0 0 1200 1200" width="1200" height="1200">
  <title>emoji_u1f467_1f3fc</title>
  <path fill="#6d4c41" d="M300 1000H400V1100H800V1000H900V800H300Z"/>
  <path fill="#ab872f" d="M100 1200H200V1100H300V1000H400V700H500V600H700V700H800V1000H900V1100H1000V1200H1100V900H1000V800H1100V300H1000V200H900V100H300V200H200V300H100V800H200V900H100Z"/>
  <path fill="#e0bb95" d="M200 800H300V1000H400V900H500V1000H700V900H800V1000H900V800H1000V600H800V500H700V400H500V500H400V600H200ZM400 1100H500V1000H400ZM700 1100H800V1000H700Z"/>
  <path fill="#c48e6a" d="M200 800H300V600H200ZM900 800H1000V600H900Z"/>
  <path fill="#5d4037" d="M400 800H500V600H400ZM700 800H800V600H700Z"/>
</svg>
