<?xml version="1.0" encoding="UTF-8"?>
<svg xmlns="http://www.w3.org/2000/svg" viewBox="0 0 1200 1200" width="1200" height="1200">
  <title>emoji_u270b_1f3fb</title>
  <path fill="#efb682" d="M100 1100H200V1200H700V1000H800V900H1000V600H1100V400H900V500H800V400H700V700H500V800H400V1000H300V400H400V300H800V200H700V100H400V200H200V300H100Z"/>
  <path fill="#b26830" d="M200 900H500V800H700V900H600V1000H800V1200H1000V1100H1100V400H1000V500H900V800H800V200H600V100H500V200H300V300H200Z"/>
  <path fill="#f9ddbd" d="M200 1100H300V1200H900V1100H1000V500H900V800H800V900H600V1100H500V900H600V800H700V200H600V700H500V200H400V800H300V300H200Z"/>
</svg>
