<?xml version="1.0" encoding="UTF-8"?>
<svg xmlns="http://www.w3.org/2000/svg" viewBox="0 0 1200 1200" width="1200" height="1200">
  <title>emoji_u1f355</title>
  <path fill="#ff8e00" d="M0 900H100V1000H500V1100H600V1200H700V1100H800V1200H1100V1000H900V900H600V800H300V700H200V600H0Z"/>
  <path fill="#f5b03e" d="M0 700H100V800H200V900H300V700H400V600H500V500H600V400H900V200H800V100H400V200H300V300H200V400H100V500H0Z"/>
  <path fill="#fcc12b" d="M700 200H800V100H700ZM500 400H800V300H700V200H500ZM300 400H400V300H300ZM400 500H500V400H400ZM100 700H200V800H300V600H200V500H100Z"/>
  <path fill="#db0d27" d="M300 900H500V1000H600V1100H700V1000H1100V900H1000V600H900V400H600V600H300Z"/>
  <path fill="#ffcc8a" d="M200 900H700V1000H800V1200H900V1100H1100V900H800V800H1000V600H700V500H800V300H500V400H400V500H300V600H200ZM400 800V700H600V800ZM600 1200H700V1000H600Z"/>
  <path fill="#ed6d30" d="M600 400H700V500H900V300H600ZM300 600H400V500H300ZM400 700H600V600H400ZM800 800H1000V700H800ZM600 900H700V800H600ZM900 1100H1000V1000H900Z"/>
  <path fill="#cb6c22" d="M500 400H900V300H500ZM400 500H500V400H400ZM300 600H400V500H300ZM200 900H300V600H200Z"/>
</svg>
