<?xml version="1.0" encoding="UTF-8"?>
<svg xmlns="http://www.w3.org/2000/svg" viewBox="0 0 1200 1200" width="1200" height="1200">
  <title>emoji_u1f6d5</title>
  <path fill="#d05314" d="M300 1200H800V1000H300Z"/>
  <path fill="#ffc020" d="M400 300H700V200H600V100H500V200H400Z"/>
  <path fill="#8c1b0d" d="M300 400H800V300H700V200H400V300H300Z"/>
  <path fill="#503730" d="M0 1000H400V300H300V400H200V600H100V800H0ZM700 1000H1100V800H1000V600H900V400H800V300H700Z"/>
  <path fill="#8b200d" d="M0 1200H400V400H300V500H200V600H300V700H100V800H300V900H0ZM700 1200H1100V900H800V800H1000V700H800V600H900V500H800V400H700Z"/>
  <path fill="#d35113" d="M300 500H800V300H300Z"/>
  <path fill="#ee6d33" d="M0 1200H400V1100H500V900H600V1100H700V1200H1100V1100H800V400H300V1100H0Z"/>
  <path fill="#fa8960" d="M300 1100H500V900H600V1100H800V1000H700V900H800V800H700V600H600V500H700V400H400V500H500V600H400V800H300V900H400V1000H300ZM500 800V700H600V800ZM300 600H400V500H300ZM700 600H800V500H700Z"/>
  <path fill="#51362f" d="M400 1100H700V800H400Z"/>
  <path fill="#fdbba0" d="M400 700H700V600H600V400H500V600H400Z"/>
</svg>
