<?xml version="1.0" encoding="UTF-8"?>
<svg xmlns="http://www.w3.org/2000/svg" viewBox="0 0 1200 1200" width="1200" height="1200">
  <title>emoji_u1f9d1_1f3ff_200d_2708</title>
  <path fill="#2d2a29" d="M200 800H300V900H400V300H200ZM700 900H800V800H900V300H700Z"/>
  <path fill="#3e3e3e" d="M200 400H300V500H400V400H700V500H800V400H900V200H800V100H300V200H200Z"/>
  <path fill="#424242" d="M200 1200H500V700H300V900H200ZM600 1200H900V900H800V700H600Z"/>
  <path fill="#e0e0e0" d="M400 1200H700V900H400Z"/>
  <path fill="#ffc107" d="M400 400H700V300H600V200H500V300H400ZM800 1200H1000V1000H800Z"/>
  <path fill="#2f2b1f" d="M300 500H800V300H300ZM100 1200H300V900H200V1000H100ZM400 1000H500V1200H600V1000H700V900H400ZM800 1100H900V1200H1000V1000H900V900H800Z"/>
  <path fill="#3c2b24" d="M300 800H400V1000H700V800H800V700H300Z"/>
  <path fill="#70534a" d="M300 800H800V400H300Z"/>
  <path fill="#1a1717" d="M400 700H500V500H400ZM600 700H700V500H600Z"/>
  <path fill="#fafafa" d="M400 1000H700V900H400Z"/>
</svg>
