<?xml version="1.0" encoding="UTF-8"?>
<svg xmlns="http://www.w3.org/2000/svg" viewBox="0 0 1200 1200" width="1200" height="1200">
  <title>emoji_u1f350</title>
  <path fill="#865c51" d="M400 600H700V300H600V100H500V300H400Z"/>
  <path fill="#b7d118" d="M100 1000H200V1100H300V1200H800V1100H900V1000H1000V700H900V600H800V400H700V300H600V500H500V300H400V400H300V600H200V700H100Z"/>
  <path fill="#e4f57d" d="M400 700H500V500H400ZM300 900H400V700H300Z"/>
  <path fill="#e4dc9f" d="M600 600H700V500H600ZM600 800H700V700H600ZM700 1000H800V900H700Z"/>
</svg>
