<?xml version="1.0" encoding="UTF-8"?>
<svg xmlns="http://www.w3.org/2000/svg" viewBox="0 0 1200 1200" width="1200" height="1200">
  <title>emoji_u1f1f1_1f1e7</title>
  <path fill="#ed1c24" d="M0 500H1100V300H0ZM0 1000H1100V800H0Z"/>
  <path fill="#f1545a" d="M0 600H1100V400H0ZM0 900H500V700H0ZM600 900H1100V700H600Z"/>
  <path fill="#ffffff" d="M0 800H500V500H0ZM600 700H700V800H1100V500H600Z"/>
  <path fill="#ea5155" d="M400 900H700V800H800V700H400Z"/>
  <path fill="#e75053" d="M300 800H400V900H500V800H600V700H300Z"/>
  <path fill="#e85153" d="M400 600H700V500H600V400H500V500H400Z"/>
  <path fill="#23b269" d="M400 800H700V600H400Z"/>
  <path fill="#2fb771" d="M400 700H700V500H400Z"/>
  <path fill="#9dddbc" d="M300 800H500V700H600V600H400V700H300Z"/>
  <path fill="#b2e4ca" d="M500 700H600V800H800V600H500Z"/>
  <path fill="#c9ecda" d="M500 700H800V600H700V500H600V600H500Z"/>
  <path fill="#d1efe0" d="M400 700H600V600H500V500H400Z"/>
  <path fill="#eff9f4" d="M600 700H700V800H800V600H600Z"/>
  <path fill="#f3fbf7" d="M400 700H500V600H400ZM300 800H400V700H300Z"/>
  <path fill="#0dab5a" d="M400 700H700V600H400Z"/>
  <path fill="#52c389" d="M600 700H800V600H600Z"/>
  <path fill="#6acb9a" d="M400 700H500V600H400Z"/>
  <path fill="#fdfefd" d="M700 700H800V600H700Z"/>
</svg>
