<?xml version="1.0" encoding="UTF-8"?>
<svg xmlns="http://www.w3.org/2000/svg" viewBox="0 0 1200 1200" width="1200" height="1200">
  <title>emoji_u1f69f</title>
  <path fill="#26a69a" d="M0 500H300V600H400V500H700V600H800V500H1100V100H0ZM100 400V200H200V300H300V400ZM300 300V200H400V300H500V200H600V300H700V400H400V300ZM700 300V200H800V300H900V200H1000V400H800V300Z"/>
  <path fill="#37474f" d="M0 1200H1100V900H0Z"/>
  <path fill="#9e740b" d="M0 1200H1100V1100H1000V700H500V1100H400V1000H300V1100H200V1000H100V1100H0ZM700 1100V1000H800V1100Z"/>
  <path fill="#82aec0" d="M200 300H300V200H200ZM400 300H500V200H400ZM600 300H700V200H600ZM800 300H900V200H800ZM0 800H1100V700H1000V600H800V300H700V600H400V300H300V600H100V700H0Z"/>
  <path fill="#bae2fd" d="M0 1000H100V1100H200V1000H300V1100H400V1000H500V1100H600V800H700V1000H800V800H900V1100H1000V1000H1100V700H0Z"/>
  <path fill="#e2a610" d="M0 800H100V900H200V800H300V900H400V800H500V900H600V800H900V900H1000V800H1100V700H0Z"/>
  <path fill="#ffca28" d="M100 1100H200V800H100ZM300 1100H400V800H300ZM500 1100H600V800H500ZM900 1100H1000V800H900Z"/>
</svg>
