<?xml version="1.0" encoding="UTF-8"?>
<svg xmlns="http://www.w3.org/2000/svg" viewBox="0 0 1200 1200" width="1200" height="1200">
  <title>emoji_u1f4e4</title>
  <path fill="#f29657" d="M100 1200H1000V800H600V900H500V800H100Z"/>
  <path fill="#ffcc80" d="M100 900H400V1000H700V900H1000V500H700V400H600V800H500V400H400V500H100Z"/>
  <path fill="#f44336" d="M300 700H800V600H700V400H800V300H700V200H600V100H500V200H400V300H300V400H400V600H300Z"/>
  <path fill="#4e342e" d="M200 800H900V600H200Z"/>
  <path fill="#a15d38" d="M300 800H400V900H700V800H800V700H300Z"/>
</svg>
