<?xml version="1.0" encoding="UTF-8"?>
<svg xmlns="http://www.w3.org/2000/svg" viewBox="0 0 1200 1200" width="1200" height="1200">
  <title>emoji_u1f4a1</title>
  <path fill="#424242" d="M300 1100H400V1200H700V1100H800V1000H300Z"/>
  <path fill="#2f7889" d="M300 1100H800V900H300Z"/>
  <path fill="#82aec0" d="M300 1000H800V800H300Z"/>
  <path fill="#ffd600" d="M100 700H200V800H300V900H800V800H900V700H1000V300H900V200H800V100H300V200H200V300H100Z"/>
  <path fill="#ffff8d" d="M200 500H300V400H400V300H500V200H300V300H200ZM300 600H400V500H300ZM300 800H400V900H500V600H400V700H300Z"/>
  <path fill="#b26500" d="M400 900H500V600H400ZM600 900H700V600H600Z"/>
  <path fill="#ffffff" d="M300 600H400V500H300ZM500 600H600V500H500ZM700 600H800V500H700ZM400 700H500V600H400ZM600 700H700V600H600Z"/>
</svg>
