<?xml version="1.0" encoding="UTF-8"?>
<svg xmlns="http://www.w3.org/2000/svg" viewBox="0 0 1200 1200" width="1200" height="1200">
  <title>emoji_u1f1f5_1f1f0</title>
  <path fill="#ffffff" d="M0 1000H300V300H0Z"/>
  <path fill="#01411c" d="M200 1000H1100V300H200Z"/>
  <path fill="#c0d0c7" d="M200 1000H300V300H200Z"/>
  <path fill="#03431e" d="M500 600H600V500H700V400H500ZM700 600H800V500H700Z"/>
  <path fill="#124d2b" d="M700 900H900V700H700Z"/>
  <path fill="#1d5635" d="M400 600H600V400H500V500H400Z"/>
  <path fill="#295f40" d="M400 800H500V900H700V700H400Z"/>
  <path fill="#7d9e8b" d="M600 900H800V800H900V700H600Z"/>
  <path fill="#8ca998" d="M500 800H600V900H700V800H800V700H500Z"/>
  <path fill="#175230" d="M400 800H600V500H400Z"/>
  <path fill="#15502e" d="M600 800H900V700H800V600H700V700H600Z"/>
  <path fill="#2b6142" d="M700 700H800V600H700ZM800 800H900V700H800Z"/>
  <path fill="#3f6f53" d="M700 700H800V600H900V500H700Z"/>
  <path fill="#4e7b61" d="M500 800H700V700H600V600H500ZM700 700H800V600H700Z"/>
  <path fill="#507c63" d="M700 700H800V500H700Z"/>
  <path fill="#769884" d="M400 700H600V500H500V600H400Z"/>
  <path fill="#e0e8e3" d="M400 700H500V800H600V600H400Z"/>
  <path fill="#074621" d="M700 700H800V600H700Z"/>
  <path fill="#4e7a60" d="M400 700H600V600H400Z"/>
  <path fill="#82a290" d="M500 700H600V600H500Z"/>
</svg>
