<?xml version="1.0" encoding="UTF-8"?>
<svg xmlns="http://www.w3.org/2000/svg" viewBox="0 0 1200 1200" width="1200" height="1200">
  <title>emoji_u1fa90</title>
  <path fill="#c6ddcb" d="M200 500H500V200H400V300H300V400H200Z"/>
  <path fill="#f3ac7b" d="M500 1000H800V900H900V800H1000V500H800V600H700V700H600V800H500Z"/>
  <path fill="#f6cb89" d="M200 800H400V700H500V600H600V500H700V400H800V200H400V400H200Z"/>
  <path fill="#6ba5af" d="M900 300H1000V400H1100V200H900ZM200 800H300V900H400V1000H600V900H700V800H800V700H900V600H1000V400H900V300H700V400H600V500H500V600H400V700H200ZM100 1000H300V900H200V800H100Z"/>
  <path fill="#f8dbaf" d="M200 800H500V700H600V600H700V500H800V400H900V300H800V200H700V300H600V400H500V500H400V600H300V700H200ZM400 400H500V300H400ZM300 500H400V400H300ZM400 1000H600V900H700V800H800V700H900V600H1000V500H800V600H700V700H600V800H500V900H400Z"/>
  <path fill="#ecbb80" d="M700 500H800V400H700ZM800 600H900V500H800ZM500 700H600V600H500ZM700 700H800V600H700ZM600 800H700V700H600ZM500 900H600V800H500ZM400 1000H500V900H400Z"/>
  <path fill="#e8d59a" d="M400 400H500V200H400ZM600 500H800V300H700V400H600ZM200 500H400V400H200ZM400 700H600V500H500V600H400ZM300 800H400V700H300Z"/>
</svg>
