<?xml version="1.0" encoding="UTF-8"?>
<svg xmlns="http://www.w3.org/2000/svg" viewBox="0 0 1200 1200" width="1200" height="1200">
  <title>emoji_u1f1f8_1f1e6</title>
  <path fill="#006c35" d="M0 1000H1100V300H0Z"/>
  <path fill="#046e38" d="M200 600H400V400H200Z"/>
  <path fill="#177a48" d="M300 600H600V400H300Z"/>
  <path fill="#1c7c4b" d="M400 900H700V700H400Z"/>
  <path fill="#1d7d4c" d="M300 900H500V800H600V700H300Z"/>
  <path fill="#1e7e4d" d="M500 600H800V400H500Z"/>
  <path fill="#207f4e" d="M600 900H800V700H600Z"/>
  <path fill="#238050" d="M500 800H600V900H700V800H800V700H500Z"/>
  <path fill="#278354" d="M600 600H900V400H700V500H600Z"/>
  <path fill="#30885b" d="M400 600H700V500H600V400H500V500H400Z"/>
  <path fill="#09713c" d="M700 600H900V400H800V500H700ZM200 700H300V900H400V800H500V600H200Z"/>
  <path fill="#258152" d="M200 600H500V500H400V400H300V500H200ZM700 700H900V500H700Z"/>
  <path fill="#046f38" d="M600 800H800V700H900V600H600Z"/>
  <path fill="#0b723e" d="M200 700H400V500H200Z"/>
  <path fill="#0e7440" d="M400 800H700V600H400Z"/>
  <path fill="#107541" d="M300 700H400V800H500V700H600V600H300Z"/>
  <path fill="#107542" d="M500 700H600V800H700V700H800V600H500Z"/>
  <path fill="#127643" d="M700 700H900V600H800V500H700Z"/>
  <path fill="#157845" d="M200 600H300V700H400V500H200Z"/>
  <path fill="#70ac8d" d="M300 700H600V500H300Z"/>
  <path fill="#7bb397" d="M600 700H800V500H600Z"/>
  <path fill="#80b69a" d="M500 700H800V600H700V500H500Z"/>
  <path fill="#88baa1" d="M400 700H700V600H600V500H500V600H400Z"/>
  <path fill="#9ec7b2" d="M300 700H500V600H400V500H300Z"/>
  <path fill="#348a5f" d="M400 700H700V600H400Z"/>
  <path fill="#378c61" d="M600 700H800V600H600Z"/>
  <path fill="#388c61" d="M600 700H700V600H600Z"/>
  <path fill="#409167" d="M300 700H500V600H300Z"/>
  <path fill="#509a74" d="M300 700H400V600H300Z"/>
</svg>
