<?xml version="1.0" encoding="UTF-8"?>
<svg xmlns="http://www.w3.org/2000/svg" viewBox="0 0 1200 1200" width="1200" height="1200">
  <title>emoji_u1f1ea_1f1ed</title>
  <path fill="#66090e" d="M0 500H200V300H0Z"/>
  <path fill="#66432b" d="M0 1000H200V800H0Z"/>
  <path fill="#000000" d="M0 500H200V600H1100V300H100V400H0Z"/>
  <path fill="#007a3d" d="M0 900H100V1000H1100V700H200V800H0Z"/>
  <path fill="#c4111b" d="M0 900H300V800H400V500H300V400H0Z"/>
  <path fill="#a9a9a9" d="M500 700H1100V500H500Z"/>
  <path fill="#a9d2bd" d="M500 800H1100V600H500Z"/>
  <path fill="#ffffff" d="M600 700H1100V600H600Z"/>
  <path fill="#010000" d="M100 500H200V600H400V500H300V400H100Z"/>
  <path fill="#017a3d" d="M100 900H300V800H400V700H200V800H100Z"/>
  <path fill="#6f0a0f" d="M100 500H200V400H100ZM200 600H300V500H200Z"/>
  <path fill="#6f3f2a" d="M200 800H300V700H200ZM100 900H200V800H100Z"/>
  <path fill="#a8d0bb" d="M200 800H600V600H300V700H200Z"/>
  <path fill="#9c3036" d="M200 600H300V700H400V500H200Z"/>
  <path fill="#9c4e45" d="M300 700H400V600H300ZM200 800H300V700H200Z"/>
  <path fill="#a28f90" d="M400 700H700V600H600V500H400Z"/>
  <path fill="#a2b8a5" d="M400 700H500V800H600V700H700V600H400Z"/>
  <path fill="#a8a6a7" d="M300 700H600V600H500V500H300Z"/>
  <path fill="#a8a7a7" d="M300 700H500V600H400V500H300Z"/>
  <path fill="#e49195" d="M400 700H700V600H400Z"/>
  <path fill="#e79fa3" d="M300 700H500V600H300Z"/>
  <path fill="#f4d2d3" d="M400 700H500V600H400Z"/>
  <path fill="#fffefe" d="M600 700H700V600H600Z"/>
</svg>
