<?xml version="1.0" encoding="UTF-8"?>
<svg xmlns="http://www.w3.org/2000/svg" viewBox="0 0 1200 1200" width="1200" height="1200">
  <title>emoji_u1f997</title>
  <path fill="#6c4d42" d="M500 1000H600V900H700V1000H800V900H1100V800H1000V700H900V600H1000V500H1100V400H800V300H700V700H500Z"/>
  <path fill="#b99680" d="M300 200H900V100H300ZM0 800H100V900H200V1000H300V1200H400V900H500V1000H600V800H700V1200H800V300H700V400H600V500H500V400H300V200H200V400H100V500H0ZM100 1100H200V1000H100ZM0 1200H100V1100H0Z"/>
  <path fill="#52352a" d="M100 900H500V800H600V600H700V400H400V800H100Z"/>
  <path fill="#865e53" d="M400 700H500V500H400Z"/>
  <path fill="#020200" d="M200 700H300V500H200Z"/>
</svg>
