<?xml version="1.0" encoding="UTF-8"?>
<svg xmlns="http://www.w3.org/2000/svg" viewBox="0 0 1200 1200" width="1200" height="1200">
  <title>emoji_u1f31b</title>
  <path fill="#fbc02d" d="M100 1000H200V1100H400V1200H700V1100H900V1000H1000V800H1100V500H1000V400H900V700H800V900H600V1000H500V900H100Z"/>
  <path fill="#f2a600" d="M400 800H700V500H600V600H500V700H400Z"/>
  <path fill="#fff6af" d="M500 800H800V600H900V200H700V100H600V700H500Z"/>
  <path fill="#ffe558" d="M0 800H100V1000H400V1100H700V1000H900V800H1000V300H900V200H800V500H700V100H600V600H700V700H0Z"/>
  <path fill="#5d4037" d="M600 800H900V500H700V600H800V700H600ZM400 800H500V700H400ZM500 900H600V800H500Z"/>
  <path fill="#fcc937" d="M700 800H900V700H700Z"/>
</svg>
