<?xml version="1.0" encoding="UTF-8"?>
<svg xmlns="http://www.w3.org/2000/svg" viewBox="0 0 1200 1200" width="1200" height="1200">
  <title>emoji_u1f1f3_1f1ff</title>
  <path fill="#02257e" d="M700 500H1000V300H700ZM700 1000H1000V800H700Z"/>
  <path fill="#914770" d="M0 500H200V300H0Z"/>
  <path fill="#01247d" d="M600 1000H800V900H900V800H600Z"/>
  <path fill="#413276" d="M400 500H700V300H400Z"/>
  <path fill="#565b97" d="M200 500H500V300H200Z"/>
  <path fill="#603e77" d="M0 500H300V300H100V400H0Z"/>
  <path fill="#763f71" d="M0 800H200V500H0Z"/>
  <path fill="#816895" d="M0 600H100V700H200V400H0Z"/>
  <path fill="#96486f" d="M300 500H600V400H500V300H400V400H300Z"/>
  <path fill="#9c466b" d="M100 500H400V400H300V300H200V400H100Z"/>
  <path fill="#b64e6b" d="M0 500H100V600H200V400H0Z"/>
  <path fill="#00247d" d="M0 1000H700V900H900V1000H1100V300H900V400H800V300H600V400H500V600H100V700H0Z"/>
  <path fill="#03277f" d="M600 600H800V500H900V400H700V500H600Z"/>
  <path fill="#05287f" d="M700 900H900V800H700Z"/>
  <path fill="#0d2d81" d="M100 700H300V500H100Z"/>
  <path fill="#334088" d="M800 500H900V400H800ZM900 600H1000V500H900Z"/>
  <path fill="#3b4085" d="M800 500H900V400H800ZM700 600H800V500H700Z"/>
  <path fill="#464283" d="M800 900H900V800H800Z"/>
  <path fill="#5b3974" d="M400 600H700V500H600V400H400Z"/>
  <path fill="#c56c83" d="M100 600H200V700H300V400H100Z"/>
  <path fill="#c6556c" d="M300 600H600V500H500V400H300Z"/>
  <path fill="#d43c4f" d="M100 500H200V600H400V400H100Z"/>
  <path fill="#d75365" d="M100 500H200V400H100ZM200 600H300V500H200Z"/>
  <path fill="#da5768" d="M200 600H500V500H400V400H300V500H200Z"/>
  <path fill="#0d2b80" d="M600 700H800V500H600Z"/>
  <path fill="#122d80" d="M500 700H800V600H700V500H500Z"/>
  <path fill="#31438b" d="M400 700H700V600H600V500H400Z"/>
  <path fill="#4d3474" d="M200 700H400V500H200Z"/>
  <path fill="#b1829f" d="M200 600H300V700H500V500H200Z"/>
  <path fill="#bd5670" d="M200 600H300V500H200ZM300 700H400V600H300Z"/>
  <path fill="#bd6d86" d="M300 700H600V600H500V500H400V600H300Z"/>
  <path fill="#0f2b7f" d="M600 700H800V600H600Z"/>
  <path fill="#122c7f" d="M500 700H700V600H500Z"/>
  <path fill="#1a3888" d="M300 700H500V600H300Z"/>
  <path fill="#3a387e" d="M400 700H600V600H400Z"/>
  <path fill="#4d3675" d="M500 700H600V600H500Z"/>
</svg>
