<?xml version="1.0" encoding="UTF-8"?>
<svg xmlns="http://www.w3.org/2000/svg" viewBox="0 0 1200 1200" width="1200" height="1200">
  <title>emoji_u1f486_1f3fd_200d_2640</title>
  <path fill="#ba8d68" d="M0 600H100V1200H1000V600H1100V100H900V300H600V600H500V300H200V100H0Z"/>
  <path fill="#62453b" d="M200 800H300V700H800V800H900V500H800V600H700V400H800V300H700V200H400V300H300V400H400V600H300V500H200ZM100 1200H300V1100H200V800H100ZM300 900H400V800H300ZM700 900H800V800H700ZM800 1200H1000V800H900V1100H800Z"/>
  <path fill="#49352e" d="M300 900H500V800H300ZM600 900H800V800H600ZM400 1100H500V1000H400ZM600 1100H700V1000H600ZM500 1200H600V1100H500Z"/>
</svg>
