<?xml version="1.0" encoding="UTF-8"?>
<svg xmlns="http://www.w3.org/2000/svg" viewBox="0 0 1200 1200" width="1200" height="1200">
  <title>emoji_u1f9c7</title>
  <path fill="#cf7120" d="M500 1100H700V1000H900V900H1000V800H1100V400H900V500H800V600H600V700H500Z"/>
  <path fill="#e08016" d="M0 800H100V900H200V1000H400V1100H600V1000H700V900H600V800H500V700H300V600H200V500H0ZM900 600H1000V500H900ZM800 700H900V600H800ZM1000 700H1100V600H1000ZM600 800H700V700H600ZM900 800H1000V700H900ZM700 900H900V800H700Z"/>
  <path fill="#d98128" d="M400 900H600V800H700V700H400ZM400 1100H600V1000H400Z"/>
  <path fill="#f5b03e" d="M0 600H100V700H200V800H400V900H500V800H700V700H900V600H1000V500H1100V400H1000V300H900V200H700V100H400V200H200V300H100V400H0ZM0 800H100V700H0ZM100 900H200V800H100ZM200 1000H400V900H200ZM400 1100H500V1000H400Z"/>
  <path fill="#ac5811" d="M300 600H500V700H600V600H800V500H700V400H800V300H600V200H500V300H300V400H400V500H300ZM100 500H200V400H100ZM900 500H1000V400H900Z"/>
  <path fill="#ffe265" d="M400 600H700V300H400Z"/>
  <path fill="#fcb602" d="M400 600H700V500H400Z"/>
  <path fill="#ffebc9" d="M400 600H500V500H400Z"/>
</svg>
