<?xml version="1.0" encoding="UTF-8"?>
<svg xmlns="http://www.w3.org/2000/svg" viewBox="0 0 1200 1200" width="1200" height="1200">
  <title>emoji_u1f58b</title>
  <path fill="#757575" d="M300 800H500V900H600V800H700V700H800V600H900V500H1000V400H1100V200H1000V100H800V200H700V300H600V500H400V600H300Z"/>
  <path fill="#84b0c1" d="M0 1100H100V1200H200V1100H400V1000H500V900H600V700H400V600H300V700H200V800H100V1000H0Z"/>
  <path fill="#a8e3f0" d="M100 1100H200V1000H300V800H200V900H100Z"/>
  <path fill="#ffc107" d="M500 600H600V700H700V600H800V500H900V400H1000V200H800V400H700V300H600V400H500ZM400 800H500V900H600V700H400Z"/>
  <path fill="#424242" d="M700 500H900V300H1000V200H900V100H800V200H700V300H800V400H700ZM600 400H700V300H600ZM400 800H600V700H700V500H600V400H500V500H400V600H500V700H400ZM300 700H400V600H300Z"/>
  <path fill="#ffee58" d="M800 300H900V200H800ZM300 700H400V600H300ZM400 800H500V700H400Z"/>
  <path fill="#000000" d="M200 1000H300V900H200ZM100 1100H200V1000H100Z"/>
  <path fill="#212121" d="M500 600H600V500H500ZM600 700H700V600H600Z"/>
</svg>
