<?xml version="1.0" encoding="UTF-8"?>
<svg xmlns="http://www.w3.org/2000/svg" viewBox="0 0 1200 1200" width="1200" height="1200">
  <title>emoji_u1f682</title>
  <path fill="#757575" d="M0 700H100V800H200V500H100V600H0Z"/>
  <path fill="#c7c7c7" d="M0 400H400V300H500V400H600V300H700V200H600V100H500V200H400V100H300V200H200V100H100V200H0ZM600 500H700V400H600Z"/>
  <path fill="#546e7a" d="M400 1000H500V1100H600V1200H700V1100H900V1200H1000V1100H1100V800H500V900H400ZM0 1200H200V1100H100V1000H0ZM200 1100H300V1200H400V1000H200Z"/>
  <path fill="#f44336" d="M500 800H1100V400H600V500H500ZM800 700V500H900V700ZM0 1200H100V1000H200V800H100V900H0ZM500 1000H600V900H500ZM700 1000H900V900H700ZM1000 1000H1100V900H1000ZM600 1100H700V1000H600ZM900 1100H1000V1000H900Z"/>
  <path fill="#424242" d="M0 400H100V1000H200V1100H400V1000H600V900H700V1000H900V900H1000V1000H1100V700H300V500H200V400H300V300H200V200H100V300H0ZM300 300H400V200H300Z"/>
  <path fill="#606060" d="M200 800H300V1000H600V900H500V800H600V700H200Z"/>
  <path fill="#00796b" d="M600 500H1100V400H600ZM200 800H600V500H200Z"/>
  <path fill="#ffca28" d="M500 800H1100V700H600V600H500Z"/>
  <path fill="#ebebeb" d="M100 300H200V200H100ZM300 300H400V200H300ZM500 300H600V200H500Z"/>
  <path fill="#e2a610" d="M300 800H400V500H300ZM500 800H600V500H500ZM500 1000H600V900H500Z"/>
</svg>
