<?xml version="1.0" encoding="UTF-8"?>
<svg xmlns="http://www.w3.org/2000/svg" viewBox="0 0 1200 1200" width="1200" height="1200">
  <title>emoji_u1f1e7_1f1ff</title>
  <path fill="#672856" d="M0 500H500V300H0ZM600 500H1100V300H600ZM0 1000H500V800H0ZM600 1000H1100V800H600Z"/>
  <path fill="#7c3860" d="M300 500H800V400H700V300H400V400H300ZM300 900H400V1000H700V900H800V800H300Z"/>
  <path fill="#a25572" d="M400 500H700V400H600V300H500V400H400Z"/>
  <path fill="#a35572" d="M400 900H500V1000H600V900H700V800H400Z"/>
  <path fill="#003f87" d="M0 900H400V700H300V600H400V400H0ZM700 900H1100V400H700V600H800V700H700Z"/>
  <path fill="#6189ac" d="M600 600H900V500H800V400H600ZM600 900H800V800H900V700H600Z"/>
  <path fill="#5c86a6" d="M200 600H500V400H300V500H200Z"/>
  <path fill="#5e88a9" d="M200 800H300V900H500V700H200Z"/>
  <path fill="#9dbf8d" d="M400 600H700V400H400Z"/>
  <path fill="#adcba9" d="M300 600H600V500H500V400H400V500H300Z"/>
  <path fill="#b0c4b3" d="M400 900H700V700H400Z"/>
  <path fill="#b1cdac" d="M500 600H800V500H700V400H600V500H500Z"/>
  <path fill="#bfd2c1" d="M500 800H600V900H700V800H800V700H500Z"/>
  <path fill="#c7d6c9" d="M300 800H400V900H500V800H600V700H300Z"/>
  <path fill="#2a5f9b" d="M700 800H900V500H700ZM200 800H400V600H200Z"/>
  <path fill="#537fa9" d="M200 700H300V800H400V500H200ZM700 800H800V700H900V600H800V500H700Z"/>
  <path fill="#285e99" d="M200 600H300V700H400V500H200Z"/>
  <path fill="#80965a" d="M400 700H700V500H400Z"/>
  <path fill="#83b18c" d="M400 800H700V600H400Z"/>
  <path fill="#8c6d4e" d="M500 700H800V500H600V600H500Z"/>
  <path fill="#a9c19b" d="M500 700H600V800H800V600H500Z"/>
  <path fill="#b0c9a3" d="M300 800H500V700H600V600H300Z"/>
  <path fill="#b5c4a9" d="M600 700H800V500H700V600H600Z"/>
  <path fill="#bec7ac" d="M300 700H500V500H300Z"/>
  <path fill="#c0d6bb" d="M300 800H400V700H500V600H300Z"/>
  <path fill="#c2aa6d" d="M300 700H600V600H500V500H400V600H300Z"/>
  <path fill="#ceddca" d="M600 700H700V800H800V600H600Z"/>
  <path fill="#d4e1d0" d="M600 700H800V600H600Z"/>
  <path fill="#d5e1cf" d="M300 700H500V600H300Z"/>
  <path fill="#d7cda4" d="M400 700H700V600H400Z"/>
  <path fill="#ddcfb6" d="M600 700H700V600H600Z"/>
  <path fill="#e4d9d0" d="M400 700H500V600H400Z"/>
</svg>
