<?xml version="1.0" encoding="UTF-8"?>
<svg xmlns="http://www.w3.org/2000/svg" viewBox="0 0 1200 1200" width="1200" height="1200">
  <title>emoji_u1f689</title>
  <path fill="#9e9e9e" d="M900 1000H1100V100H900V200H1000V300H900V400H1000V800H900Z"/>
  <path fill="#eeeeee" d="M0 500H200V400H300V500H500V300H400V200H500V100H0V200H100V300H0Z"/>
  <path fill="#455a64" d="M0 900H500V800H400V700H500V600H0V700H100V800H0Z"/>
  <path fill="#bdbdbd" d="M0 200H200V300H300V200H500V100H0ZM0 1200H600V800H0Z"/>
  <path fill="#757575" d="M500 1200H1100V900H1000V800H500Z"/>
  <path fill="#ffca28" d="M0 700H500V400H400V300H300V400H200V300H100V400H0ZM600 1200H700V800H600Z"/>
  <path fill="#fffde7" d="M600 300H900V100H600ZM0 700H500V600H400V400H100V600H0ZM200 600V500H300V600Z"/>
  <path fill="#37474f" d="M600 400H1000V300H900V200H1000V100H800V200H600ZM100 500H400V300H100Z"/>
  <path fill="#616161" d="M900 200H1000V100H900ZM900 400H1000V300H900ZM100 1200H200V800H100ZM300 1200H400V800H300Z"/>
  <path fill="#82aec0" d="M0 700H500V600H0Z"/>
  <path fill="#bae2fd" d="M100 400H400V300H300V200H200V300H100Z"/>
</svg>
