<?xml version="1.0" encoding="UTF-8"?>
<svg xmlns="http://www.w3.org/2000/svg" viewBox="0 0 1200 1200" width="1200" height="1200">
  <title>emoji_u1f97c</title>
  <path fill="#b7d5e5" d="M0 1000H200V1200H500V1100H600V1200H900V1000H1100V400H1000V300H900V200H700V100H400V200H200V300H100V400H0Z"/>
  <path fill="#5995b3" d="M400 1100H700V1000H600V900H700V800H600V700H700V600H600V500H700V300H600V200H500V300H400V500H500V600H400V900H500V1000H400ZM800 500H1000V300H800ZM300 600H400V500H300ZM700 600H800V500H700ZM0 1000H200V800H100V900H0ZM900 1000H1100V900H1000V800H900Z"/>
  <path fill="#ffffff" d="M100 900H200V600H300V1100H500V1000H400V900H500V600H400V500H300V300H200V400H100ZM600 1100H800V600H900V900H1000V400H900V300H800V500H700V600H600V700H700V800H600V900H700V1000H600Z"/>
</svg>
