<?xml version="1.0" encoding="UTF-8"?>
<svg xmlns="http://www.w3.org/2000/svg" viewBox="0 0 1200 1200" width="1200" height="1200">
  <title>emoji_u1f998</title>
  <path fill="#ffd2af" d="M600 300H700V200H600ZM400 500H600V300H400Z"/>
  <path fill="#2c302b" d="M0 700H200V800H300V500H200V400H0Z"/>
  <path fill="#865b52" d="M200 800H300V1000H500V1100H600V1200H800V1000H1000V1100H1100V800H1000V700H900V500H600V600H300V700H200Z"/>
  <path fill="#d27856" d="M400 200H500V100H400ZM100 600H200V800H400V700H500V800H600V1100H700V1200H800V800H900V900H1000V1000H1100V700H1000V600H900V500H600V400H500V300H400V200H300V300H200V400H100ZM600 800V700H700V600H800V700H700V800ZM0 700H100V600H0ZM400 1000H500V800H400Z"/>
  <path fill="#010102" d="M300 600H400V500H300Z"/>
</svg>
