<?xml version="1.0" encoding="UTF-8"?>
<svg xmlns="http://www.w3.org/2000/svg" viewBox="0 0 1200 1200" width="1200" height="1200">
  <title>emoji_u1f1ec_1f1eb</title>
  <path fill="#55a423" d="M900 1000H1100V800H900Z"/>
  <path fill="#aec215" d="M0 500H200V300H0Z"/>
  <path fill="#20912c" d="M0 500H300V300H100V400H0Z"/>
  <path fill="#e3d40d" d="M800 1000H1000V900H1100V800H800Z"/>
  <path fill="#fcdd09" d="M0 1000H900V900H1000V800H800V700H500V500H400V400H0Z"/>
  <path fill="#078930" d="M100 500H300V600H500V700H600V800H700V900H1100V300H200V400H100Z"/>
  <path fill="#098a30" d="M200 500H300V600H500V500H400V400H200Z"/>
  <path fill="#168e2e" d="M800 900H1000V800H800Z"/>
  <path fill="#6bab20" d="M100 500H300V400H100ZM300 600H400V500H300Z"/>
  <path fill="#98bb19" d="M700 900H900V800H800V700H700Z"/>
  <path fill="#edd80b" d="M100 500H200V400H100Z"/>
  <path fill="#fadc09" d="M600 800H700V900H800V700H600Z"/>
  <path fill="#26772d" d="M400 700H700V600H600V500H400Z"/>
  <path fill="#2e962a" d="M300 600H400V700H600V600H500V500H300Z"/>
  <path fill="#419c27" d="M600 800H800V700H700V600H600Z"/>
  <path fill="#c2c912" d="M300 600H400V500H300ZM400 700H500V600H400Z"/>
  <path fill="#d3c610" d="M500 800H700V600H500Z"/>
  <path fill="#f8c50b" d="M400 800H600V700H700V600H400Z"/>
  <path fill="#fad40a" d="M400 800H500V700H600V600H400Z"/>
  <path fill="#2d782c" d="M500 700H700V600H500Z"/>
  <path fill="#ca1d1b" d="M400 700H600V600H400Z"/>
  <path fill="#f0bb0d" d="M400 700H500V600H400Z"/>
</svg>
