<?xml version="1.0" encoding="UTF-8"?>
<svg xmlns="http://www.w3.org/2000/svg" viewBox="0 0 1200 1200" width="1200" height="1200">
  <title>emoji_u1f1e6_1f1eb</title>
  <path fill="#fe0101" d="M300 500H800V300H300Z"/>
  <path fill="#fe0b0b" d="M300 1000H800V800H300Z"/>
  <path fill="#560000" d="M200 500H500V400H400V300H200Z"/>
  <path fill="#560303" d="M200 1000H400V900H500V800H200Z"/>
  <path fill="#575501" d="M600 500H900V300H700V400H600Z"/>
  <path fill="#575804" d="M600 900H700V1000H900V800H600Z"/>
  <path fill="#fe0505" d="M400 500H700V400H600V300H500V400H400Z"/>
  <path fill="#fe0707" d="M400 900H500V1000H600V900H700V800H400Z"/>
  <path fill="#000000" d="M0 1000H300V900H400V700H300V600H400V400H300V300H0Z"/>
  <path fill="#028002" d="M700 900H800V1000H1100V300H800V400H700V600H800V700H700Z"/>
  <path fill="#fe0c0c" d="M300 600H800V400H300Z"/>
  <path fill="#652b2b" d="M200 800H300V900H500V700H200Z"/>
  <path fill="#66782c" d="M600 900H800V800H900V700H600Z"/>
  <path fill="#672121" d="M200 600H500V500H400V400H300V500H200Z"/>
  <path fill="#686d22" d="M600 600H900V500H800V400H700V500H600Z"/>
  <path fill="#fe1a1a" d="M400 600H700V500H600V400H500V500H400Z"/>
  <path fill="#fe4949" d="M400 900H700V700H400Z"/>
  <path fill="#fe5e5e" d="M300 800H400V900H500V800H600V700H300Z"/>
  <path fill="#fe5f5f" d="M500 800H600V900H700V800H800V700H500Z"/>
  <path fill="#0b0b0b" d="M200 800H400V600H200Z"/>
  <path fill="#0c0c0c" d="M200 700H400V500H200Z"/>
  <path fill="#0c850c" d="M700 800H900V600H700Z"/>
  <path fill="#0d860d" d="M700 700H900V500H700Z"/>
  <path fill="#141414" d="M200 700H300V800H400V500H300V600H200Z"/>
  <path fill="#168a16" d="M700 800H800V700H900V600H800V500H700Z"/>
  <path fill="#8e3939" d="M300 700H500V500H300Z"/>
  <path fill="#91733c" d="M600 700H800V500H600Z"/>
  <path fill="#945757" d="M300 800H500V600H300Z"/>
  <path fill="#978e5a" d="M600 800H800V600H600Z"/>
  <path fill="#fe2d2d" d="M500 700H800V600H700V500H500Z"/>
  <path fill="#fe2f2f" d="M400 700H700V600H600V500H400Z"/>
  <path fill="#fe3333" d="M300 700H600V600H500V500H400V600H300Z"/>
  <path fill="#fe4242" d="M500 800H700V700H800V600H500Z"/>
  <path fill="#fe4343" d="M300 700H400V800H600V600H300Z"/>
  <path fill="#fe4c4c" d="M400 700H500V800H600V700H700V600H400Z"/>
  <path fill="#854242" d="M300 700H500V600H300Z"/>
  <path fill="#877f44" d="M600 700H800V600H600Z"/>
  <path fill="#fe3636" d="M400 700H700V600H400Z"/>
  <path fill="#fe7a7a" d="M600 700H700V600H600Z"/>
  <path fill="#ff7e7e" d="M400 700H500V600H400Z"/>
</svg>
