<?xml version="1.0" encoding="UTF-8"?>
<svg xmlns="http://www.w3.org/2000/svg" viewBox="0 0 1200 1200" width="1200" height="1200">
  <title>emoji_u1f4aa</title>
  <path fill="#faa700" d="M0 1100H100V1200H1000V1100H1100V800H1000V700H600V900H700V1000H500V800H400V500H500V400H400V300H600V100H300V200H200V300H100V400H0Z"/>
  <path fill="#b55e19" d="M200 600H300V500H500V400H600V100H500V200H300V300H200ZM200 1100H800V1000H900V800H700V700H600V800H400V900H300V800H200Z"/>
  <path fill="#ffca28" d="M300 300H400V400H500V200H300ZM100 1100H600V1000H800V900H900V800H1000V700H800V800H600V900H400V1000H300V300H200V400H100Z"/>
</svg>
