<?xml version="1.0" encoding="UTF-8"?>
<svg xmlns="http://www.w3.org/2000/svg" viewBox="0 0 1200 1200" width="1200" height="1200">
  <title>emoji_u1f95d</title>
  <path fill="#95683d" d="M0 800H100V1000H200V1100H300V1200H900V1100H1000V1000H1100V400H1000V300H900V200H700V100H400V200H200V300H100V500H0Z"/>
  <path fill="#7fb240" d="M100 600H400V500H700V700H900V400H700V200H400V300H200V500H100ZM100 800H200V1000H600V900H700V700H100Z"/>
  <path fill="#b7d118" d="M100 800H300V900H200V1000H600V900H800V700H900V600H800V500H900V300H700V200H400V300H200V400H300V500H100ZM500 400V300H600V400ZM500 900V800H600V900Z"/>
  <path fill="#303030" d="M300 800H600V600H800V500H600V400H500V500H300V600H400V700H300Z"/>
  <path fill="#e5dda0" d="M400 800H500V700H600V600H700V500H400Z"/>
</svg>
