<?xml version="1.0" encoding="UTF-8"?>
<svg xmlns="http://www.w3.org/2000/svg" viewBox="0 0 1200 1200" width="1200" height="1200">
  <title>emoji_u1f483</title>
  <path fill="#b41301" d="M400 1200H500V1000H400ZM800 1200H1000V1100H900V1000H800Z"/>
  <path fill="#543930" d="M100 600H200V700H400V400H500V600H800V500H700V200H600V100H300V200H200V400H100Z"/>
  <path fill="#9b2002" d="M300 1000H400V1100H500V1000H800V900H900V800H800V700H400V900H300Z"/>
  <path fill="#d21c00" d="M200 800H300V700H400V800H700V700H600V600H800V500H600V400H300V600H200Z"/>
  <path fill="#ffca28" d="M900 300H1000V200H900ZM300 500H400V600H600V300H300ZM800 500H900V300H800ZM700 600H800V500H700ZM200 800H300V600H200ZM400 1100H500V900H400ZM700 1000H800V900H700ZM800 1100H900V1000H800Z"/>
  <path fill="#e59600" d="M400 600H600V500H400Z"/>
</svg>
