<?xml version="1.0" encoding="UTF-8"?>
<svg xmlns="http://www.w3.org/2000/svg" viewBox="0 0 1200 1200" width="1200" height="1200">
  <title>emoji_u1f3ef</title>
  <path fill="#fcc01e" d="M200 400H500V200H400V100H300V300H200ZM600 400H900V300H800V100H700V200H600Z"/>
  <path fill="#89837c" d="M0 1200H1100V1000H0Z"/>
  <path fill="#afa59e" d="M0 1100H100V1200H200V1100H300V1200H500V1100H600V1000H0ZM700 1100H800V1200H900V1100H1000V1200H1100V1000H700Z"/>
  <path fill="#bcced2" d="M0 1100H1100V1000H1000V900H100V1000H0Z"/>
  <path fill="#385661" d="M0 900H200V800H900V900H1100V700H1000V600H900V500H1000V400H900V300H700V200H400V300H200V400H100V500H200V600H100V700H0Z"/>
  <path fill="#ffffff" d="M200 600H900V400H800V300H300V400H200ZM0 900H100V1000H1000V900H1100V800H1000V700H100V800H0Z"/>
  <path fill="#2f2f2f" d="M200 500H300V400H200ZM800 500H900V400H800ZM300 600H400V500H300ZM500 600H600V500H500ZM700 600H800V500H700ZM200 1000H300V900H200ZM400 1000H500V900H400ZM600 1000H700V900H600ZM800 1000H900V900H800Z"/>
  <path fill="#546f7a" d="M300 400H800V300H300ZM200 500H300V400H200ZM800 500H900V400H800ZM100 800H1000V700H100Z"/>
</svg>
