<?xml version="1.0" encoding="UTF-8"?>
<svg xmlns="http://www.w3.org/2000/svg" viewBox="0 0 1200 1200" width="1200" height="1200">
  <title>emoji_u2712</title>
  <path fill="#a8e3f0" d="M400 600H1000V500H900V400H800V300H600V400H500V500H400Z"/>
  <path fill="#424242" d="M0 900H400V400H0Z"/>
  <path fill="#84b0c1" d="M600 400H700V300H600ZM300 700H400V800H500V900H600V1000H800V900H900V800H1000V500H400V400H300Z"/>
  <path fill="#757575" d="M0 600H200V500H0Z"/>
  <path fill="#ffc107" d="M300 900H400V800H500V600H400V400H300Z"/>
  <path fill="#2f7889" d="M300 600H400V500H300ZM400 800H600V900H800V800H900V700H1000V600H600V700H500V600H400Z"/>
  <path fill="#000000" d="M600 800H700V700H1000V600H700V500H600Z"/>
  <path fill="#ffee58" d="M300 600H400V500H300Z"/>
</svg>
