<?xml version="1.0" encoding="UTF-8"?>
<svg xmlns="http://www.w3.org/2000/svg" viewBox="0 0 1200 1200" width="1200" height="1200">
  <title>emoji_u1f94c</title>
  <path fill="#858585" d="M0 1000H100V1100H200V1200H900V1100H1000V1000H1100V500H1000V300H700V600H400V300H200V400H100V500H0Z"/>
  <path fill="#b0b0b0" d="M100 700H200V600H100ZM0 900H100V1000H200V1100H900V1000H1000V900H1100V700H1000V800H800V900H700V800H600V900H500V800H400V900H300V700H200V800H100V700H0Z"/>
  <path fill="#ac101b" d="M500 600H800V400H900V500H1000V300H1100V100H900V200H500Z"/>
  <path fill="#5d6165" d="M300 500H500V200H400V300H300ZM100 500H200V400H100ZM900 500H1000V400H900ZM200 600H300V500H200ZM400 700H500V800H600V700H900V500H700V600H400ZM400 900H500V800H400ZM600 900H700V800H600Z"/>
  <path fill="#dd0c28" d="M300 600H400V700H800V600H900V500H800V400H700V500H600V300H1000V200H1100V100H500V200H400V400H300Z"/>
  <path fill="#e1e1e1" d="M200 600H300V500H200ZM100 700H200V600H100ZM300 700H400V600H300ZM200 800H300V700H200ZM400 900H500V800H400Z"/>
  <path fill="#ff2a23" d="M500 500H600V300H1000V200H500ZM200 600H300V700H600V600H500V500H400V400H300V500H200Z"/>
</svg>
