<?xml version="1.0" encoding="UTF-8"?>
<svg xmlns="http://www.w3.org/2000/svg" viewBox="0 0 1200 1200" width="1200" height="1200">
  <title>emoji_u1f9e0</title>
  <path fill="#ea6363" d="M0 900H100V1000H300V1100H600V1200H900V1100H1000V1000H1100V400H1000V300H900V200H800V100H600V200H500V100H300V200H200V300H100V400H0Z"/>
  <path fill="#e06767" d="M500 900H600V800H500ZM600 1200H800V1100H900V1000H800V900H600Z"/>
  <path fill="#b05353" d="M800 900H900V1000H1000V800H800ZM700 1000H800V900H700ZM600 1100H700V1000H600ZM800 1100H900V1000H800ZM700 1200H800V1100H700Z"/>
  <path fill="#ffb3b3" d="M100 500H200V600H300V700H500V600H700V500H900V600H1000V400H800V200H600V300H700V400H600V500H500V400H600V300H500V200H400V300H200V400H100ZM300 600V400H400V600ZM100 900H200V800H300V700H200V600H100ZM300 1000H500V900H600V800H800V700H900V600H700V700H500V800H300ZM800 900H1000V700H900V800H800Z"/>
</svg>
