<?xml version="1.0" encoding="UTF-8"?>
<svg xmlns="http://www.w3.org/2000/svg" viewBox="0 0 1200 1200" width="1200" height="1200">
  <title>emoji_u0023_20e3</title>
  <path fill="#427687" d="M0 1100H100V1200H1000V1100H1100V200H1000V100H900V200H800V900H100V1000H0Z"/>
  <path fill="#8cafbf" d="M0 1100H200V1000H900V300H1000V100H100V200H0Z"/>
  <path fill="#a0c8d6" d="M200 300H300V200H200ZM100 400H200V300H100Z"/>
  <path fill="#fafafa" d="M300 800H400V900H500V800H600V900H700V800H800V700H700V600H800V500H700V400H600V500H500V400H400V500H300V600H400V700H300ZM500 700V600H600V700Z"/>
</svg>
