<?xml version="1.0" encoding="UTF-8"?>
<svg xmlns="http://www.w3.org/2000/svg" viewBox="0 0 1200 1200" width="1200" height="1200">
  <title>emoji_u1f918_1f3fb</title>
  <path fill="#efb682" d="M100 900H200V1100H300V1200H500V1100H700V800H600V700H300V600H800V500H900V300H1000V200H900V100H800V200H700V400H400V300H300V200H200V300H100Z"/>
  <path fill="#b26830" d="M200 800H300V900H400V1000H300V1100H400V1200H800V1100H900V1000H1000V200H800V400H700V500H600V400H500V500H400V300H200ZM400 900V800H500V900H600V1000H500V900Z"/>
  <path fill="#f9ddbd" d="M800 600H900V200H800ZM200 900H300V1100H800V1000H900V700H500V800H800V900H700V1000H500V900H400V700H300V300H200ZM400 600H500V500H400ZM600 600H700V500H600Z"/>
</svg>
