<?xml version="1.0" encoding="UTF-8"?>
<svg xmlns="http://www.w3.org/2000/svg" viewBox="0 0 1200 1200" width="1200" height="1200">
  <title>emoji_u1f1f7_1f1ea</title>
  <path fill="#7445ae" d="M0 1000H200V800H0ZM900 1000H1100V800H900Z"/>
  <path fill="#b1c462" d="M0 500H200V300H0ZM900 500H1100V300H900Z"/>
  <path fill="#93ae87" d="M400 500H700V300H400ZM0 800H200V500H0ZM900 800H1100V500H900Z"/>
  <path fill="#6c91b8" d="M0 500H300V300H100V400H0ZM800 500H1100V400H1000V300H800Z"/>
  <path fill="#ea0a1a" d="M0 900H100V1000H300V800H0ZM800 1000H1000V900H1100V800H800Z"/>
  <path fill="#3366ff" d="M0 900H400V600H700V900H1100V700H1000V600H1100V400H900V300H600V400H500V300H200V400H0V600H100V700H0Z"/>
  <path fill="#ff0000" d="M100 900H200V1000H900V900H1000V800H800V700H700V600H400V700H300V800H100Z"/>
  <path fill="#3b6cf5" d="M200 600H500V500H400V400H200ZM600 600H900V400H700V500H600Z"/>
  <path fill="#3f60f0" d="M100 900H300V800H100ZM800 900H1000V800H800Z"/>
  <path fill="#6b90b9" d="M100 500H200V600H300V400H100ZM800 600H900V500H1000V400H800Z"/>
  <path fill="#80a09f" d="M100 700H300V500H200V600H100ZM800 700H1000V600H900V500H800Z"/>
  <path fill="#85a498" d="M200 600H400V500H300V400H200ZM700 600H900V400H800V500H700Z"/>
  <path fill="#ac2968" d="M200 900H400V700H300V800H200ZM700 900H900V800H800V700H700Z"/>
  <path fill="#fe0102" d="M300 900H400V800H500V700H300ZM600 800H700V900H800V700H600Z"/>
  <path fill="#7396af" d="M400 600H700V500H600V400H500V500H400Z"/>
  <path fill="#3568fc" d="M200 700H400V500H200ZM700 700H900V500H700Z"/>
  <path fill="#4977e3" d="M300 700H800V500H300Z"/>
  <path fill="#634ec3" d="M200 700H300V800H500V600H200ZM600 800H800V700H900V600H600Z"/>
  <path fill="#638ac3" d="M200 700H500V600H400V500H300V600H200ZM600 700H900V600H800V500H700V600H600Z"/>
  <path fill="#6d91b7" d="M200 700H400V600H200ZM700 700H900V600H700Z"/>
  <path fill="#de1029" d="M300 700H400V800H500V700H600V800H700V700H800V600H300Z"/>
  <path fill="#537ed7" d="M400 700H700V600H600V500H500V600H400Z"/>
  <path fill="#5176d9" d="M300 700H800V600H300Z"/>
  <path fill="#5a83cf" d="M300 700H400V600H300ZM700 700H800V600H700Z"/>
  <path fill="#894f94" d="M500 700H600V600H500Z"/>
</svg>
