<?xml version="1.0" encoding="UTF-8"?>
<svg xmlns="http://www.w3.org/2000/svg" viewBox="0 0 1200 1200" width="1200" height="1200">
  <title>emoji_u1f9db_1f3fb_200d_2640</title>
  <path fill="#363535" d="M0 1000H100V1100H200V1200H300V900H200V600H0ZM800 1200H900V1100H1000V1000H1100V600H900V900H800Z"/>
  <path fill="#ee0000" d="M100 1000H200V1100H300V500H200V600H100ZM800 1100H900V1000H1000V600H900V500H800Z"/>
  <path fill="#212121" d="M200 1200H500V800H200ZM600 1200H900V800H600Z"/>
  <path fill="#312d2d" d="M200 1000H300V900H400V700H700V900H800V1000H900V200H800V100H300V200H200Z"/>
  <path fill="#ffffff" d="M300 900H400V1200H700V900H800V600H300Z"/>
  <path fill="#f9ddbd" d="M300 900H800V400H700V600H600V300H400V400H500V600H400V400H300ZM400 800V700H500V800ZM600 800V700H700V800Z"/>
  <path fill="#444444" d="M500 800H600V700H500Z"/>
</svg>
