<?xml version="1.0" encoding="UTF-8"?>
<svg xmlns="http://www.w3.org/2000/svg" viewBox="0 0 1200 1200" width="1200" height="1200">
  <title>emoji_u1f3c9</title>
  <path fill="#cf6f24" d="M0 1100H100V1200H500V1100H700V1000H800V900H900V800H1000V600H1100V200H1000V100H900V500H800V700H700V800H600V900H400V1000H0Z"/>
  <path fill="#af5912" d="M0 1100H200V1000H300V900H600V800H700V700H800V600H900V300H1000V100H600V200H400V300H300V400H200V500H100V700H0Z"/>
  <path fill="#e07f14" d="M0 900H100V1100H500V1000H700V900H800V800H900V600H1000V200H800V300H700V200H800V100H600V300H500V400H400V500H300V600H200V500H100V700H0ZM400 800V700H500V600H600V500H700V400H800V500H700V600H600V700H500V800ZM100 900V800H200V700H300V800H200V900ZM400 300H500V200H400ZM300 400H400V300H300ZM200 500H300V400H200Z"/>
  <path fill="#713604" d="M600 400H700V300H600ZM500 500H600V400H500ZM400 600H500V500H400ZM300 700H400V600H300Z"/>
</svg>
