<?xml version="1.0" encoding="UTF-8"?>
<svg xmlns="http://www.w3.org/2000/svg" viewBox="0 0 1200 1200" width="1200" height="1200">
  <title>emoji_u26be</title>
  <path fill="#d7ccc6" d="M100 1000H200V1100H400V1200H700V1100H900V1000H1000V800H1100V500H1000V300H900V200H800V600H700V700H600V800H500V900H100Z"/>
  <path fill="#ed520a" d="M0 700H100V800H300V900H400V1000H600V900H700V800H800V700H900V500H800V400H700V200H600V100H400V200H300V300H400V500H500V600H400V500H200V400H100V500H0ZM900 800H1100V700H900ZM600 1200H700V1000H600Z"/>
  <path fill="#f1edec" d="M0 800H100V1000H500V900H700V800H800V600H900V200H700V100H500V200H200V300H100V600H0ZM500 400V300H600V400ZM600 600V500H700V600ZM200 700V600H300V700ZM400 800V700H500V800Z"/>
  <path fill="#979892" d="M400 300H500V200H400ZM500 500H600V400H500ZM100 600H200V500H100ZM300 700H400V600H300ZM700 700H800V600H700ZM900 800H1000V700H900ZM500 900H600V800H500ZM600 1100H700V1000H600Z"/>
</svg>
