<?xml version="1.0" encoding="UTF-8"?>
<svg xmlns="http://www.w3.org/2000/svg" viewBox="0 0 1200 1200" width="1200" height="1200">
  <title>emoji_u1faf4_1f3ff</title>
  <path fill="#000000" d="M0 1000H600V900H1000V800H1100V500H1000V400H700V500H600V600H500V400H600V200H400V300H300V400H200V700H400V800H0Z"/>
  <path fill="#58382b" d="M0 700H200V600H300V500H400V400H500V200H400V300H300V400H100V500H0ZM700 500H800V400H700ZM500 800H1000V700H900V600H1000V400H900V500H800V600H700V500H600V700H500ZM1000 700H1100V600H1000Z"/>
  <path fill="#70534a" d="M400 400H500V300H400ZM300 500H400V400H300ZM0 900H600V800H1000V700H500V600H300V500H100V600H0Z"/>
</svg>
