<?xml version="1.0" encoding="UTF-8"?>
<svg xmlns="http://www.w3.org/2000/svg" viewBox="0 0 1200 1200" width="1200" height="1200">
  <title>emoji_u1f9b6_1f3fc</title>
  <path fill="#8d542e" d="M0 1000H100V1100H600V1200H1000V1100H1100V900H800V700H600V600H500V100H300V700H400V800H500V900H400V800H300V700H0Z"/>
  <path fill="#d19661" d="M0 1000H100V1100H400V1000H700V1100H800V1000H900V1100H1000V1000H1100V900H1000V800H800V700H700V800H300V100H100V700H0ZM100 900V800H200V900H300V1000H200V900Z"/>
  <path fill="#e0bb95" d="M200 900H600V1000H1000V900H800V800H600V700H500V600H400V100H200Z"/>
</svg>
