<?xml version="1.0" encoding="UTF-8"?>
<svg xmlns="http://www.w3.org/2000/svg" viewBox="0 0 1200 1200" width="1200" height="1200">
  <title>emoji_u1f3c8</title>
  <path fill="#6d291a" d="M0 1100H100V1200H500V1100H700V1000H800V900H900V800H1000V600H1100V200H1000V100H700V200H400V300H300V400H200V500H100V800H0Z"/>
  <path fill="#9c3c25" d="M0 1000H100V1100H400V1000H700V900H800V800H900V600H1000V200H900V300H800V200H900V100H600V200H400V300H300V400H200V500H100V700H0ZM200 700V600H300V500H400V400H500V300H700V500H800V600H700V700H600V800H500V900H400V800H300V700ZM100 1000V900H200V1000ZM300 700H400V800H500V700H600V600H700V500H600V400H500V500H400V600H300Z"/>
  <path fill="#f2f0ee" d="M600 300H700V400H800V500H900V600H1000V400H900V300H800V200H700V100H600ZM500 500H600V400H500ZM400 600H500V500H400ZM600 600H700V500H600ZM300 700H400V600H300ZM500 700H600V600H500ZM0 800H100V900H200V1000H300V1100H400V900H300V800H200V700H0ZM400 800H500V700H400Z"/>
</svg>
