<?xml version="1.0" encoding="UTF-8"?>
<svg xmlns="http://www.w3.org/2000/svg" viewBox="0 0 1200 1200" width="1200" height="1200">
  <title>emoji_u1f1e7_1f1e9</title>
  <path fill="#006a4e" d="M0 1000H1100V300H0Z"/>
  <path fill="#305d4b" d="M500 600H800V500H700V400H500ZM500 900H700V800H800V700H500Z"/>
  <path fill="#3e5a4b" d="M200 600H500V400H300V500H200ZM200 800H300V900H500V700H200Z"/>
  <path fill="#b33b44" d="M400 600H700V500H600V400H400ZM400 900H600V800H700V700H400Z"/>
  <path fill="#ba3944" d="M300 600H600V500H500V400H400V500H300ZM300 800H400V900H500V800H600V700H300Z"/>
  <path fill="#04694e" d="M600 800H800V500H600Z"/>
  <path fill="#10664d" d="M200 800H400V500H200Z"/>
  <path fill="#da3142" d="M500 800H700V700H800V600H700V500H500Z"/>
  <path fill="#e82d42" d="M200 700H300V800H500V500H300V600H200Z"/>
  <path fill="#3a5b4b" d="M200 700H400V600H200Z"/>
  <path fill="#f42a41" d="M300 700H400V800H600V700H800V600H600V500H400V600H300Z"/>
  <path fill="#20624c" d="M700 700H800V600H700Z"/>
</svg>
