<?xml version="1.0" encoding="UTF-8"?>
<svg xmlns="http://www.w3.org/2000/svg" viewBox="0 0 1200 1200" width="1200" height="1200">
  <title>emoji_u1f93a</title>
  <path fill="#5e6367" d="M700 300H900V100H700ZM300 1200H600V1000H400V1100H300ZM800 1100H900V1200H1100V1000H800Z"/>
  <path fill="#464c4f" d="M500 500H800V100H600V400H500Z"/>
  <path fill="#ee594a" d="M0 500H200V400H0Z"/>
  <path fill="#9a9a9a" d="M700 400H900V200H800V100H700Z"/>
  <path fill="#cecece" d="M800 700H1000V600H1100V300H1000V500H900V400H800ZM300 500H400V400H300ZM400 600H600V700H700V400H500V500H400ZM400 1100H600V1000H700V900H500V1000H400ZM800 1100H1100V1000H1000V900H800Z"/>
  <path fill="#b0b0b0" d="M100 500H200V600H300V500H400V400H300V300H200V400H100ZM500 1000H800V1100H900V1000H1000V900H900V700H1000V600H900V500H800V800H700V700H600V800H500ZM1000 600H1100V500H1000Z"/>
  <path fill="#e0e0e0" d="M600 900H700V1000H800V900H900V300H800V200H700V600H600Z"/>
  <path fill="#868686" d="M600 900H700V700H800V600H900V500H800V100H700V400H600ZM100 500H200V400H100ZM300 500H400V400H300ZM800 900H900V800H800ZM700 1000H800V900H700Z"/>
  <path fill="#ffffff" d="M600 500H700V600H800V400H600ZM600 800H700V600H600Z"/>
</svg>
