<?xml version="1.0" encoding="UTF-8"?>
<svg xmlns="http://www.w3.org/2000/svg" viewBox="0 0 1200 1200" width="1200" height="1200">
  <title>emoji_u1f607</title>
  <path fill="#eb8f00" d="M0 1100H100V1200H1000V1100H1100V200H1000V100H100V200H0Z"/>
  <path fill="#4fc3f7" d="M100 200H1000V100H100ZM0 300H100V200H0ZM1000 300H1100V200H1000ZM100 500H1000V300H100Z"/>
  <path fill="#fde030" d="M100 1100H1000V400H100Z"/>
  <path fill="#422b0d" d="M300 600H400V500H300ZM700 600H800V500H700ZM200 700H300V600H200ZM400 700H500V600H400ZM600 700H700V600H600ZM800 700H900V600H800ZM300 900H400V800H300ZM700 900H800V800H700ZM400 1000H700V900H400Z"/>
</svg>
