<?xml version="1.0" encoding="UTF-8"?>
<svg xmlns="http://www.w3.org/2000/svg" viewBox="0 0 1200 1200" width="1200" height="1200">
  <title>emoji_u1f48a</title>
  <path fill="#f44336" d="M300 900H400V1000H500V1100H600V1200H900V1100H1000V1000H1100V700H1000V600H900V500H800V400H600V500H500V600H400V700H300Z"/>
  <path fill="#fdd835" d="M0 600H100V700H200V800H300V900H400V800H500V700H600V600H700V500H800V400H700V300H600V200H500V100H200V200H100V300H0Z"/>
  <path fill="#c62828" d="M700 500H800V400H700ZM600 600H700V500H600ZM500 700H600V600H500ZM400 800H500V700H400ZM300 900H400V800H300Z"/>
  <path fill="#fbbdb9" d="M600 600H700V500H600ZM700 700H800V600H700ZM800 800H900V700H800Z"/>
  <path fill="#fef1b8" d="M400 400H500V300H400ZM500 500H600V400H500ZM600 600H700V500H600Z"/>
  <path fill="#ebb4b4" d="M600 600H700V500H600Z"/>
</svg>
