<?xml version="1.0" encoding="UTF-8"?>
<svg xmlns="http://www.w3.org/2000/svg" viewBox="0 0 1200 1200" width="1200" height="1200">
  <title>emoji_u1f684</title>
  <path fill="#455a64" d="M400 1100H700V1200H900V1100H1100V900H400Z"/>
  <path fill="#bae2fd" d="M200 600H600V500H800V400H900V100H700V200H500V300H400V400H300V500H200Z"/>
  <path fill="#004f84" d="M0 1100H500V1000H700V1100H900V1000H1100V800H0V900H100V1000H0Z"/>
  <path fill="#37474f" d="M100 700H600V600H800V500H900V400H1000V100H700V200H800V300H700V400H500V500H200V600H100Z"/>
  <path fill="#0277bd" d="M0 900H1100V600H500V700H0ZM100 1100H500V1000H100Z"/>
  <path fill="#e0e0e0" d="M0 800H600V700H1100V100H900V300H800V400H700V500H500V600H100V700H0Z"/>
  <path fill="#82aec0" d="M0 800H600V700H400V600H200V700H0ZM600 700H1100V600H600Z"/>
  <path fill="#607d8b" d="M700 1100H900V1000H700Z"/>
  <path fill="#e2a610" d="M200 700H400V600H200Z"/>
  <path fill="#ffca28" d="M300 700H400V600H300Z"/>
</svg>
