<?xml version="1.0" encoding="UTF-8"?>
<svg xmlns="http://www.w3.org/2000/svg" viewBox="0 0 1200 1200" width="1200" height="1200">
  <title>emoji_u1f4a0</title>
  <path fill="#034eac" d="M200 500H400V300H200ZM700 500H900V300H700ZM200 1000H400V800H200ZM700 1000H900V800H700Z"/>
  <path fill="#12a3f3" d="M0 700H100V800H200V900H300V1000H400V1100H500V1200H600V1100H700V1000H800V900H900V800H1000V700H1100V600H1000V500H900V400H800V300H700V200H600V100H500V200H400V300H300V400H200V500H100V600H0Z"/>
  <path fill="#1f87fb" d="M200 800H300V900H400V1000H700V900H800V800H900V500H800V400H700V300H400V400H300V500H200Z"/>
  <path fill="#8fd0eb" d="M300 900H500V800H600V900H800V700H700V600H800V400H600V500H500V400H300V600H400V700H300Z"/>
  <path fill="#fefefe" d="M400 600H500V500H400ZM600 600H700V500H600ZM500 700H600V600H500ZM400 800H500V700H400ZM600 800H700V700H600Z"/>
</svg>
