<?xml version="1.0" encoding="UTF-8"?>
<svg xmlns="http://www.w3.org/2000/svg" viewBox="0 0 1200 1200" width="1200" height="1200">
  <title>emoji_u1f54e</title>
  <path fill="#8e24aa" d="M0 1100H100V1200H1000V1100H1100V200H1000V100H900V1000H0Z"/>
  <path fill="#ab47bc" d="M0 1100H500V1000H600V1100H1000V100H100V200H0Z"/>
  <path fill="#b673c7" d="M100 500H200V300H400V200H100Z"/>
  <path fill="#fafafa" d="M100 300H200V200H100ZM300 300H400V200H300ZM500 300H600V200H500ZM700 300H800V200H700ZM900 300H1000V200H900ZM100 600H200V400H100ZM300 500H400V400H300ZM300 1100H800V1000H700V900H600V800H800V700H600V600H700V500H600V400H500V500H400V600H500V700H300V800H500V900H400V1000H300ZM700 500H800V400H700ZM900 600H1000V400H900ZM200 700H300V600H200ZM800 700H900V600H800Z"/>
</svg>
