<?xml version="1.0" encoding="UTF-8"?>
<svg xmlns="http://www.w3.org/2000/svg" viewBox="0 0 1200 1200" width="1200" height="1200">
  <title>emoji_u1f3db</title>
  <path fill="#97aec0" d="M100 1200H1100V1000H1000V600H1100V300H1000V200H800V100H400V200H200V300H100V600H200V1000H100Z"/>
  <path fill="#cddfee" d="M200 400H1000V300H800V200H400V300H200ZM100 1100H1100V1000H800V900H1000V700H800V600H700V700H500V600H400V700H200V900H400V1000H100ZM500 1000V900H700V1000Z"/>
  <path fill="#647584" d="M100 600H400V700H500V600H700V700H800V600H1100V500H100Z"/>
  <path fill="#54636e" d="M400 1000H500V600H400ZM700 1000H800V600H700Z"/>
</svg>
