<?xml version="1.0" encoding="UTF-8"?>
<svg xmlns="http://www.w3.org/2000/svg" viewBox="0 0 1200 1200" width="1200" height="1200">
  <title>emoji_u1f4a6</title>
  <path fill="#4fc3f7" d="M300 300H400V400H500V500H700V600H1000V500H1100V200H1000V100H500V200H300ZM0 1100H100V1200H400V1100H500V700H400V500H300V400H200V500H100V800H0ZM600 900H700V1100H800V1200H1000V1100H1100V900H1000V800H900V700H600Z"/>
  <path fill="#b3e5fc" d="M700 300H900V200H700ZM900 400H1000V300H900ZM300 1000H400V800H300ZM800 900H900V800H800ZM900 1000H1000V900H900Z"/>
</svg>
