<?xml version="1.0" encoding="UTF-8"?>
<svg xmlns="http://www.w3.org/2000/svg" viewBox="0 0 1200 1200" width="1200" height="1200">
  <title>emoji_u1f40c</title>
  <path fill="#2e2c2f" d="M100 500H200V200H100ZM300 500H400V200H300Z"/>
  <path fill="#e9bb91" d="M0 1100H100V1200H1000V1100H1100V900H1000V800H700V700H600V500H500V600H400V400H300V600H200V400H100V700H0Z"/>
  <path fill="#4f352e" d="M500 800H600V900H1000V800H1100V400H1000V300H600V400H500Z"/>
  <path fill="#d27856" d="M600 500H700V600H800V500H900V400H600ZM100 800H200V700H100ZM300 800H400V700H300ZM200 900H300V800H200Z"/>
  <path fill="#a05d43" d="M600 800H1000V400H800V500H900V700H700V600H600ZM700 600H800V500H700Z"/>
</svg>
