<?xml version="1.0" encoding="UTF-8"?>
<svg xmlns="http://www.w3.org/2000/svg" viewBox="0 0 1200 1200" width="1200" height="1200">
  <title>emoji_u261d</title>
  <path fill="#faa700" d="M100 1100H200V1200H300V1100H500V1000H600V1100H900V800H800V600H900V300H1000V200H900V100H700V400H600V500H500V400H400V500H200V600H100Z"/>
  <path fill="#b55e19" d="M200 1200H800V1100H900V1000H1000V200H800V500H300V600H200V700H300V800H200ZM400 700V600H500V700ZM600 700V600H700V700ZM300 1000V900H400V800H600V900H400V1000ZM700 1000V900H800V1000ZM100 800H200V700H100Z"/>
  <path fill="#ffca28" d="M800 800H900V200H800ZM400 600H500V500H400ZM600 600H700V500H600ZM200 700H300V600H200ZM600 900H800V800H600ZM200 1100H800V1000H300V900H200ZM800 1000H900V900H800Z"/>
</svg>
