<?xml version="1.0" encoding="UTF-8"?>
<svg xmlns="http://www.w3.org/2000/svg" viewBox="0 0 1200 1200" width="1200" height="1200">
  <title>emoji_u263a</title>
  <path fill="#eb8f00" d="M0 1000H100V1100H200V1200H900V1100H1000V1000H1100V300H1000V200H900V100H200V200H100V300H0Z"/>
  <path fill="#ef8a62" d="M100 900H300V800H400V500H100ZM700 900H1000V500H800V600H700Z"/>
  <path fill="#fde030" d="M100 1000H200V1100H900V1000H1000V700H900V800H800V700H900V600H1000V300H900V200H200V300H100V700H200V800H100ZM200 700V600H300V700Z"/>
  <path fill="#422b0d" d="M300 600H400V400H300ZM700 600H800V400H700ZM300 900H400V800H300ZM700 900H800V800H700ZM400 1000H700V900H400Z"/>
</svg>
