<?xml version="1.0" encoding="UTF-8"?>
<svg xmlns="http://www.w3.org/2000/svg" viewBox="0 0 1200 1200" width="1200" height="1200">
  <title>emoji_u1f361</title>
  <path fill="#f3c975" d="M0 200H100V100H0ZM100 300H200V200H100ZM700 900H800V800H700ZM800 1000H900V900H800ZM900 1100H1000V1000H900ZM1000 1200H1100V1100H1000Z"/>
  <path fill="#919f50" d="M300 800H400V900H500V1000H700V900H800V800H900V600H800V500H700V400H600V500H500V600H400V700H300Z"/>
  <path fill="#ffa8a7" d="M0 500H100V600H200V700H400V600H500V500H600V300H500V200H400V100H200V200H100V300H0Z"/>
  <path fill="#ffebcc" d="M200 700H300V800H500V700H600V600H700V400H600V300H500V400H400V500H300V600H200ZM500 900H600V800H500Z"/>
  <path fill="#ffffff" d="M100 500H200V400H100ZM300 700H400V600H300ZM500 900H600V800H500Z"/>
</svg>
