<?xml version="1.0" encoding="UTF-8"?>
<svg xmlns="http://www.w3.org/2000/svg" viewBox="0 0 1200 1200" width="1200" height="1200">
  <title>emoji_u1fac3_1f3fd</title>
  <path fill="#91674d" d="M200 1100H300V1200H500V900H400V800H200Z"/>
  <path fill="#543930" d="M400 400H500V500H600V600H800V500H900V200H800V100H500V200H400Z"/>
  <path fill="#ba8d68" d="M400 700H800V500H700V400H600V300H400V500H500V600H400Z"/>
  <path fill="#b98c68" d="M200 900H300V1000H400V1100H300V1200H800V1000H900V800H200ZM200 1100H300V1000H200Z"/>
  <path fill="#00bfa5" d="M200 900H400V1000H600V900H800V1000H900V700H800V600H400V700H300V800H200ZM200 1100H300V1000H200ZM300 1200H400V1100H300ZM700 1200H800V1100H700Z"/>
  <path fill="#009688" d="M600 900H800V700H600Z"/>
</svg>
