<?xml version="1.0" encoding="UTF-8"?>
<svg xmlns="http://www.w3.org/2000/svg" viewBox="0 0 1200 1200" width="1200" height="1200">
  <title>emoji_u1f321</title>
  <path fill="#a8d0d6" d="M200 1000H300V1100H400V1200H800V1100H900V1000H1000V900H900V800H800V200H700V100H500V200H400V800H300V900H200Z"/>
  <path fill="#4b4a51" d="M400 900H700V200H500V300H400V400H500V500H400V600H500V700H400Z"/>
  <path fill="#dd0b2b" d="M300 1000H400V1100H800V1000H900V900H800V800H700V900H300Z"/>
  <path fill="#ffffff" d="M500 500H600V600H700V200H500V300H600V400H500Z"/>
  <path fill="#fed0be" d="M500 700H600V800H700V500H600V600H500ZM300 1000H600V800H400V900H300Z"/>
  <path fill="#e7523c" d="M300 1000H800V800H700V500H600V800H500V900H300Z"/>
</svg>
