<?xml version="1.0" encoding="UTF-8"?>
<svg xmlns="http://www.w3.org/2000/svg" viewBox="0 0 1200 1200" width="1200" height="1200">
  <title>emoji_u1faef</title>
  <path fill="#e5322e" d="M0 300H100V400H200V200H100V100H0ZM1000 300H1100V200H1000ZM900 400H1000V300H900ZM200 500H300V400H200ZM800 500H900V400H800ZM1000 1100H1100V900H1000ZM100 1100H200V1000H100ZM0 1200H100V1100H0ZM800 1200H1000V1100H800Z"/>
  <path fill="#ffd629" d="M500 400H800V300H700V100H500V200H600V300H500ZM400 1200H500V1100H400Z"/>
  <path fill="#8fc5d8" d="M100 800H200V900H300V1000H900V900H1000V800H900V600H1000V500H900V400H800V300H300V400H200V500H100V600H200V700H100Z"/>
  <path fill="#2f7889" d="M100 800H300V900H400V800H500V700H600V800H900V700H800V600H1000V700H1100V500H800V400H600V500H500V400H300V500H100V600H300V700H100ZM0 700H100V600H0ZM0 900H100V800H0ZM900 900H1000V800H900ZM1000 1000H1100V900H1000Z"/>
  <path fill="#e3e5e5" d="M300 500H400V600H700V500H800V400H300ZM300 700H400V600H300ZM700 700H800V600H700ZM400 800H500V700H400ZM600 800H700V700H600ZM300 900H400V800H300Z"/>
</svg>
