<?xml version="1.0" encoding="UTF-8"?>
<svg xmlns="http://www.w3.org/2000/svg" viewBox="0 0 1200 1200" width="1200" height="1200">
  <title>emoji_u1f48f_1f3fb</title>
  <path fill="#da2e75" d="M300 400H400V500H500V600H600V500H700V400H800V200H700V100H600V200H500V100H400V200H300ZM300 600H400V500H300ZM700 600H800V500H700ZM400 700H500V600H400ZM600 700H700V600H600Z"/>
  <path fill="#312d2d" d="M0 1100H500V600H400V500H0ZM600 1100H1100V500H700V600H600Z"/>
  <path fill="#444444" d="M100 1200H400V1100H500V1000H300V900H200V1000H100ZM600 1100H700V1200H1000V1000H900V900H800V1000H600Z"/>
  <path fill="#f9ddbd" d="M0 1200H200V1100H300V900H500V800H200V700H0V900H200V1000H0ZM600 900H800V1100H900V1200H1100V1000H900V900H1100V700H900V800H600ZM400 1100H500V1000H400ZM600 1100H700V1000H600ZM300 1200H400V1100H300ZM700 1200H800V1100H700Z"/>
  <path fill="#ef5592" d="M400 400H500V500H600V400H700V200H600V300H500V200H400Z"/>
</svg>
