<?xml version="1.0" encoding="UTF-8"?>
<svg xmlns="http://www.w3.org/2000/svg" viewBox="0 0 1200 1200" width="1200" height="1200">
  <title>emoji_u1f1e8_1f1fe</title>
  <path fill="#ffffff" d="M0 1000H1100V300H0Z"/>
  <path fill="#f5f6f3" d="M300 900H500V700H300ZM600 900H800V700H600Z"/>
  <path fill="#d9dbd2" d="M300 800H400V900H600V700H300Z"/>
  <path fill="#d9dcd2" d="M500 900H700V800H800V700H500Z"/>
  <path fill="#dfe1d9" d="M400 800H500V900H600V800H700V700H400Z"/>
  <path fill="#f8e8d4" d="M700 600H800V500H900V400H700Z"/>
  <path fill="#f8ead7" d="M600 600H800V400H700V500H600Z"/>
  <path fill="#db8b24" d="M500 700H800V500H500Z"/>
  <path fill="#de9435" d="M400 700H700V600H600V500H400Z"/>
  <path fill="#dfdccd" d="M200 700H300V800H500V600H200Z"/>
  <path fill="#e2e4dd" d="M600 800H800V600H600Z"/>
  <path fill="#eabb7f" d="M300 700H600V600H500V500H300Z"/>
  <path fill="#f2d6b1" d="M600 700H800V500H700V600H600Z"/>
  <path fill="#f4dfc5" d="M300 700H400V800H600V600H300Z"/>
  <path fill="#f9ebda" d="M200 700H500V600H400V500H200Z"/>
  <path fill="#fdfdfc" d="M500 800H700V700H800V600H500Z"/>
  <path fill="#fefcfa" d="M200 700H400V600H300V500H200Z"/>
  <path fill="#fefdfb" d="M400 700H500V800H600V700H700V600H400Z"/>
  <path fill="#fffefe" d="M200 600H300V500H200ZM300 700H400V600H300Z"/>
  <path fill="#d57800" d="M300 700H600V600H300Z"/>
  <path fill="#d67d09" d="M500 700H700V600H500Z"/>
  <path fill="#da8921" d="M300 700H400V600H300Z"/>
  <path fill="#eabd82" d="M600 700H800V600H600Z"/>
  <path fill="#f9ecdb" d="M700 700H800V600H700Z"/>
</svg>
