<?xml version="1.0" encoding="UTF-8"?>
<svg xmlns="http://www.w3.org/2000/svg" viewBox="0 0 1200 1200" width="1200" height="1200">
  <title>emoji_u1f54a</title>
  <path fill="#6b7e37" d="M200 300H400V100H200ZM0 300H100V200H0ZM0 700H100V800H200V700H300V600H200V500H300V400H200V300H100V400H0V500H100V600H0Z"/>
  <path fill="#ffc300" d="M0 700H300V800H400V600H0Z"/>
  <path fill="#b0b0b0" d="M600 700H800V800H900V700H1000V600H1100V200H1000V300H900V400H800V200H700V300H600V500H700V600H600ZM500 600H600V500H500ZM1000 800H1100V700H1000Z"/>
  <path fill="#e0e0e0" d="M900 400H1000V300H900ZM300 800H400V900H500V1000H600V1100H800V1000H1000V1100H1100V700H1000V800H900V600H1000V500H900V400H800V600H600V500H400V600H300ZM1000 500H1100V400H1000Z"/>
  <path fill="#2d2d2d" d="M400 700H500V600H400Z"/>
</svg>
