<?xml version="1.0" encoding="UTF-8"?>
<svg xmlns="http://www.w3.org/2000/svg" viewBox="0 0 1200 1200" width="1200" height="1200">
  <title>emoji_u1f93e_1f3fe</title>
  <path fill="#464c4f" d="M700 400H800V500H1000V100H700Z"/>
  <path fill="#42312c" d="M200 1200H400V1000H300V1100H200ZM800 1100H900V1200H1000V1000H800Z"/>
  <path fill="#3c2c23" d="M300 400H600V100H300Z"/>
  <path fill="#404649" d="M800 500H900V400H800ZM600 700H700V600H800V500H600ZM700 1100H900V1000H800V900H700ZM300 1200H400V1000H300Z"/>
  <path fill="#f3a708" d="M800 500H1000V400H900V300H800ZM100 700H300V600H100Z"/>
  <path fill="#875334" d="M300 600H700V500H600V300H300V400H400V500H300Z"/>
  <path fill="#de4e00" d="M300 900H600V1000H700V1100H800V900H700V500H500V600H400V800H300Z"/>
  <path fill="#a56c43" d="M300 400H600V300H500V200H400V300H300ZM800 500H900V300H800ZM300 600H400V500H300ZM200 700H300V600H200ZM300 1100H400V1000H500V900H300ZM600 1000H700V900H600ZM700 1100H800V1000H700Z"/>
  <path fill="#b23d00" d="M300 1000H500V900H600V1000H700V800H300Z"/>
  <path fill="#f77300" d="M300 600H400V700H600V500H300ZM300 1000H500V900H300ZM600 1000H700V900H600Z"/>
  <path fill="#aeaeae" d="M800 400H900V100H800Z"/>
  <path fill="#e0e0e0" d="M800 300H900V200H800Z"/>
</svg>
