<?xml version="1.0" encoding="UTF-8"?>
<svg xmlns="http://www.w3.org/2000/svg" viewBox="0 0 1200 1200" width="1200" height="1200">
  <title>emoji_u1f6b6_1f3ff_200d_2640_200d_27a1</title>
  <path fill="#70534a" d="M400 400H600V100H400ZM300 500H400V400H300ZM200 700H300V500H200ZM600 600H700V500H600ZM700 700H900V600H700Z"/>
  <path fill="#7c7c7c" d="M400 1000H500V900H600V1000H700V1200H900V1000H800V900H700V800H600V600H400Z"/>
  <path fill="#4568ad" d="M200 1100H300V1200H400V900H300V1000H200ZM700 1200H900V1100H700Z"/>
  <path fill="#232020" d="M300 500H500V400H600V300H500V200H600V100H400V300H300Z"/>
  <path fill="#616161" d="M300 1100H400V1000H500V800H400V900H300Z"/>
  <path fill="#5e19f8" d="M300 500H400V700H600V600H700V400H600V300H400V400H300Z"/>
</svg>
