<?xml version="1.0" encoding="UTF-8"?>
<svg xmlns="http://www.w3.org/2000/svg" viewBox="0 0 1200 1200" width="1200" height="1200">
  <title>emoji_u1f302</title>
  <path fill="#3f7377" d="M0 300H100V200H200V100H0ZM200 300H300V200H200ZM300 400H400V300H300Z"/>
  <path fill="#6ca4ab" d="M800 1000H1000V800H800ZM1000 1100H1100V1000H1000Z"/>
  <path fill="#6aa5ad" d="M300 400H400V300H300ZM400 500H500V400H400Z"/>
  <path fill="#004dae" d="M100 700H300V800H500V900H700V700H600V500H700V400H800V300H700V100H600V300H500V400H400V500H300V600H100Z"/>
  <path fill="#937ef3" d="M500 500H600V600H700V800H800V1000H900V900H1000V700H900V500H800V300H600V400H500Z"/>
  <path fill="#5547f4" d="M400 600H500V800H600V900H700V1000H900V700H800V500H400ZM300 800H400V600H300Z"/>
  <path fill="#6e62ed" d="M400 600H500V700H600V600H700V700H800V500H700V400H500V500H400ZM600 800H700V700H600ZM800 900H900V700H800Z"/>
</svg>
