<?xml version="1.0" encoding="UTF-8"?>
<svg xmlns="http://www.w3.org/2000/svg" viewBox="0 0 1200 1200" width="1200" height="1200">
  <title>emoji_u1f1f8_1f1f2</title>
  <path fill="#5eb6e4" d="M0 1000H1100V600H700V700H600V800H500V700H400V600H0Z"/>
  <path fill="#ffffff" d="M0 700H400V600H500V500H600V600H700V700H1100V300H0Z"/>
  <path fill="#afdbf2" d="M0 700H300V800H400V500H300V600H0ZM700 800H800V700H1100V600H800V500H700Z"/>
  <path fill="#69b5dd" d="M300 800H400V900H700V800H800V700H300Z"/>
  <path fill="#f3f0e9" d="M300 600H800V500H700V400H400V500H300Z"/>
  <path fill="#5dabd3" d="M400 800H500V900H600V800H700V700H400Z"/>
  <path fill="#d1c7ac" d="M400 600H700V500H600V400H500V500H400Z"/>
  <path fill="#5badd2" d="M300 800H500V600H300Z"/>
  <path fill="#5baed6" d="M600 800H800V600H600Z"/>
  <path fill="#6b867b" d="M500 800H700V700H800V600H500Z"/>
  <path fill="#6b887f" d="M300 700H400V800H600V600H300Z"/>
  <path fill="#82936e" d="M400 700H500V800H600V700H700V600H400Z"/>
  <path fill="#948042" d="M400 700H700V500H400Z"/>
  <path fill="#c3bea1" d="M500 700H800V500H600V600H500Z"/>
  <path fill="#c7c0a4" d="M300 700H600V600H500V500H300Z"/>
  <path fill="#f0f1ed" d="M600 700H800V500H700V600H600Z"/>
  <path fill="#f4f5f2" d="M300 700H500V600H400V500H300Z"/>
  <path fill="#829aa7" d="M400 700H700V600H400Z"/>
  <path fill="#84a8ab" d="M600 700H800V600H600Z"/>
  <path fill="#878e72" d="M300 700H500V600H300Z"/>
  <path fill="#899074" d="M600 700H700V600H600Z"/>
  <path fill="#89abad" d="M300 700H400V600H300Z"/>
</svg>
