<?xml version="1.0" encoding="UTF-8"?>
<svg xmlns="http://www.w3.org/2000/svg" viewBox="0 0 1200 1200" width="1200" height="1200">
  <title>emoji_u1f1f7_1f1fc</title>
  <path fill="#20603d" d="M0 1000H1100V800H0Z"/>
  <path fill="#01a1dd" d="M700 500H900V600H1100V300H700Z"/>
  <path fill="#03a1dc" d="M800 500H1000V400H1100V300H900V400H800Z"/>
  <path fill="#00a1de" d="M0 700H1100V500H1000V400H800V300H0ZM1000 400H1100V300H1000Z"/>
  <path fill="#567c2e" d="M0 900H1100V700H0Z"/>
  <path fill="#fad201" d="M0 800H1100V600H0Z"/>
  <path fill="#7dba70" d="M0 700H1100V600H1000V500H800V600H0Z"/>
  <path fill="#01a1de" d="M700 500H800V600H900V400H700Z"/>
  <path fill="#35a8ab" d="M800 600H1000V400H800Z"/>
  <path fill="#54ac8d" d="M800 600H900V500H1000V400H800Z"/>
  <path fill="#60ad81" d="M900 500H1000V400H900ZM800 600H900V500H800Z"/>
  <path fill="#2ca7b4" d="M800 600H900V500H800Z"/>
</svg>
