<?xml version="1.0" encoding="UTF-8"?>
<svg xmlns="http://www.w3.org/2000/svg" viewBox="0 0 1200 1200" width="1200" height="1200">
  <title>emoji_u1f681</title>
  <path fill="#feb804" d="M0 1200H800V1100H600V1000H700V900H100V1000H200V1100H0ZM300 1100V1000H500V1100Z"/>
  <path fill="#868686" d="M0 800H400V400H200V500H100V700H0Z"/>
  <path fill="#5e6367" d="M0 300H400V400H300V800H700V400H500V300H900V200H500V100H400V200H0Z"/>
  <path fill="#ffa62d" d="M0 900H100V1000H700V900H800V800H900V700H1000V600H700V400H500V500H600V700H400V600H300V700H0Z"/>
  <path fill="#ffd61c" d="M100 900H700V800H800V700H700V600H600V800H400V500H700V400H300V800H100ZM800 700H1000V800H1100V500H1000V600H800Z"/>
</svg>
