<?xml version="1.0" encoding="UTF-8"?>
<svg xmlns="http://www.w3.org/2000/svg" viewBox="0 0 1200 1200" width="1200" height="1200">
  <title>emoji_u1fabc</title>
  <path fill="#0ebcff" d="M100 600H200V700H400V300H700V700H900V600H1000V300H900V200H800V100H300V200H200V300H100Z"/>
  <path fill="#0284ff" d="M200 900H300V700H400V900H500V700H600V900H700V700H800V900H900V600H800V500H900V400H200V500H300V600H200ZM300 1000H400V900H300ZM500 1100H600V900H500ZM700 1100H800V900H700ZM900 1100H1000V900H900ZM200 1100H300V1000H200ZM400 1200H500V1100H400ZM600 1200H700V1100H600Z"/>
  <path fill="#f4fcff" d="M200 500H400V400H700V200H300V300H200Z"/>
  <path fill="#83ffff" d="M200 500H400V600H500V500H600V600H700V500H900V300H800V200H600V300H500V200H400V300H300V400H200Z"/>
</svg>
