<?xml version="1.0" encoding="UTF-8"?>
<svg xmlns="http://www.w3.org/2000/svg" viewBox="0 0 1200 1200" width="1200" height="1200">
  <title>emoji_u1f694</title>
  <path fill="#4e433d" d="M200 1200H300V1100H400V1000H200ZM800 1100H900V1200H1000V1000H800Z"/>
  <path fill="#0f64c7" d="M300 200H400V300H500V200H600V100H300Z"/>
  <path fill="#dd0c26" d="M600 200H700V300H800V200H900V100H600Z"/>
  <path fill="#cececf" d="M500 200H700V100H500ZM400 300H500V200H400ZM700 300H800V200H700Z"/>
  <path fill="#fea826" d="M100 1000H400V700H100ZM800 1000H1100V700H800Z"/>
  <path fill="#474c4f" d="M300 400H900V300H800V200H700V300H500V200H400V300H300ZM100 1000H200V1100H1000V1000H1100V900H900V800H1100V600H700V900H500V600H100V800H300V900H100Z"/>
  <path fill="#e3e4de" d="M100 700H400V900H800V700H1100V600H1000V400H900V300H300V400H200V600H100Z"/>
  <path fill="#858585" d="M300 1000H900V900H800V800H400V900H300Z"/>
  <path fill="#afe3fb" d="M300 600H900V400H300Z"/>
  <path fill="#2f2f2f" d="M400 900H800V800H400Z"/>
  <path fill="#96c8ed" d="M400 600H500V500H400ZM700 600H800V500H700Z"/>
</svg>
