<?xml version="1.0" encoding="UTF-8"?>
<svg xmlns="http://www.w3.org/2000/svg" viewBox="0 0 1200 1200" width="1200" height="1200">
  <title>emoji_u1f1f0_1f1fc</title>
  <path fill="#00341a" d="M0 500H200V300H0Z"/>
  <path fill="#570710" d="M0 1000H200V800H0Z"/>
  <path fill="#00783c" d="M0 500H300V300H100V400H0Z"/>
  <path fill="#cb1125" d="M0 900H100V1000H300V800H0Z"/>
  <path fill="#000000" d="M0 900H300V400H0Z"/>
  <path fill="#007a3d" d="M100 500H200V600H1100V300H200V400H100Z"/>
  <path fill="#ce1126" d="M100 900H200V1000H1100V700H200V800H100Z"/>
  <path fill="#a9d2bd" d="M200 700H1100V500H300V400H200Z"/>
  <path fill="#eeaeb5" d="M200 900H300V800H1100V600H200Z"/>
  <path fill="#ffffff" d="M200 800H300V700H1100V600H300V500H200Z"/>
  <path fill="#002311" d="M100 500H200V600H300V400H100Z"/>
  <path fill="#00733a" d="M200 600H300V400H200Z"/>
  <path fill="#3b050b" d="M100 900H300V700H200V800H100Z"/>
  <path fill="#c31024" d="M200 900H300V700H200Z"/>
  <path fill="#2a3c33" d="M200 700H300V500H200Z"/>
  <path fill="#3f3f3f" d="M200 800H300V600H200Z"/>
  <path fill="#492c2f" d="M200 800H300V700H200Z"/>
</svg>
