<?xml version="1.0" encoding="UTF-8"?>
<svg xmlns="http://www.w3.org/2000/svg" viewBox="0 0 1200 1200" width="1200" height="1200">
  <title>emoji_u1f1f2_1f1ff</title>
  <path fill="#853347" d="M0 500H200V300H0Z"/>
  <path fill="#e15c21" d="M0 1000H200V800H0Z"/>
  <path fill="#0a6c65" d="M0 500H300V300H100V400H0Z"/>
  <path fill="#ab2c24" d="M0 800H200V500H0Z"/>
  <path fill="#c1242c" d="M0 900H200V600H100V700H0Z"/>
  <path fill="#c90f32" d="M0 600H100V700H200V400H0Z"/>
  <path fill="#fad703" d="M0 900H100V1000H300V800H0Z"/>
  <path fill="#007168" d="M100 500H200V600H1100V300H200V400H100Z"/>
  <path fill="#fce100" d="M100 900H200V1000H1100V700H200V800H100Z"/>
  <path fill="#d21034" d="M0 900H200V800H500V500H200V400H0V500H100V600H200V700H100V800H0Z"/>
  <path fill="#384e4c" d="M400 700H1100V500H400Z"/>
  <path fill="#696439" d="M400 800H1100V600H400Z"/>
  <path fill="#000000" d="M400 800H500V700H1100V600H500V500H400Z"/>
  <path fill="#2a5d5d" d="M100 600H400V500H300V400H100Z"/>
  <path fill="#827557" d="M100 800H300V500H100Z"/>
  <path fill="#b31e3c" d="M100 600H300V500H200V400H100Z"/>
  <path fill="#c43a23" d="M100 600H200V700H300V500H100Z"/>
  <path fill="#d82e2c" d="M100 900H300V700H100Z"/>
  <path fill="#d95736" d="M100 800H200V900H300V600H200V700H100Z"/>
  <path fill="#f4b70b" d="M200 900H300V800H400V700H200Z"/>
  <path fill="#394e4c" d="M300 600H400V700H500V500H300Z"/>
  <path fill="#6a6439" d="M300 800H500V600H400V700H300Z"/>
  <path fill="#8e4c5a" d="M200 700H300V600H400V500H200ZM400 700H500V600H400Z"/>
  <path fill="#ba1130" d="M200 700H300V500H200Z"/>
  <path fill="#bf6247" d="M200 800H400V700H300V600H200ZM400 700H500V600H400Z"/>
  <path fill="#cd5f3a" d="M200 800H300V600H200Z"/>
  <path fill="#d03f2a" d="M200 800H300V700H200Z"/>
  <path fill="#620718" d="M400 700H500V600H400Z"/>
</svg>
