<?xml version="1.0" encoding="UTF-8"?>
<svg xmlns="http://www.w3.org/2000/svg" viewBox="0 0 1200 1200" width="1200" height="1200">
  <title>emoji_u264f</title>
  <path fill="#00796b" d="M300 1100H400V1200H700V1100H900V1000H1000V800H1100V500H1000V400H900V700H800V900H600V1000H300Z"/>
  <path fill="#68c1b8" d="M0 600H400V500H500V400H600V100H400V200H200V300H100V500H0Z"/>
  <path fill="#26a69a" d="M0 800H100V1000H200V1100H700V1000H900V800H1000V300H900V200H700V100H400V200H500V300H400V400H300V500H0ZM200 300H300V200H200ZM100 400H200V300H100Z"/>
  <path fill="#fafafa" d="M300 500H400V400H300ZM500 500H600V400H500ZM200 900H300V500H200ZM400 900H500V500H400ZM600 800H700V700H800V800H900V700H1000V600H900V500H800V600H700V500H600ZM700 900H800V800H700Z"/>
</svg>
