<?xml version="1.0" encoding="UTF-8"?>
<svg xmlns="http://www.w3.org/2000/svg" viewBox="0 0 1200 1200" width="1200" height="1200">
  <title>emoji_u1f451</title>
  <path fill="#fff59d" d="M0 300H100V700H200V800H500V500H400V600H300V500H200V300H300V200H200V100H100V200H0ZM600 800H900V700H1000V300H1100V200H1000V100H900V200H800V300H900V500H800V600H700V500H600ZM400 400H500V500H600V400H700V300H600V200H500V300H400ZM100 1200H600V1000H100Z"/>
  <path fill="#f19534" d="M100 1200H200V1100H500V1200H1000V900H100Z"/>
  <path fill="#ffca28" d="M100 1000H1000V300H1100V200H900V600H800V700H700V500H600V400H700V300H500V500H400V700H300V600H200V300H300V200H100ZM100 1200H200V1100H100ZM500 1200H1000V1100H500Z"/>
  <path fill="#26a69a" d="M100 900H200V800H100ZM500 900H600V800H500ZM900 900H1000V800H900Z"/>
  <path fill="#f44336" d="M300 900H400V800H300ZM700 900H800V800H700Z"/>
</svg>
