<?xml version="1.0" encoding="UTF-8"?>
<svg xmlns="http://www.w3.org/2000/svg" viewBox="0 0 1200 1200" width="1200" height="1200">
  <title>emoji_u1f9a3</title>
  <path fill="#c6c6c6" d="M400 1200H700V1100H800V1200H1100V1000H400Z"/>
  <path fill="#fadcb2" d="M0 900H100V1100H300V1000H400V1100H500V700H100V800H0Z"/>
  <path fill="#bd816a" d="M700 800H800V900H1100V500H1000V400H900V300H800V500H700Z"/>
  <path fill="#85574a" d="M500 1200H600V1100H900V1200H1000V900H900V800H600V900H500Z"/>
  <path fill="#9b6a57" d="M0 600H100V900H300V800H400V1100H500V1200H600V1000H700V900H800V1000H900V1200H1000V1100H1100V700H1000V800H900V700H800V600H900V200H800V100H600V200H300V100H100V200H0ZM100 1100H200V1200H300V1000H100Z"/>
  <path fill="#6a463e" d="M100 400H200V300H100ZM300 400H400V300H300ZM500 400H600V300H500ZM200 500H300V400H200ZM600 500H700V400H600ZM700 600H800V500H700Z"/>
  <path fill="#7a5044" d="M400 1000H500V900H600V800H700V700H800V600H900V400H800V500H700V600H600V700H400Z"/>
  <path fill="#7a5043" d="M800 600H900V500H800ZM700 700H800V600H700ZM600 800H700V700H600ZM500 900H600V800H500Z"/>
  <path fill="#212121" d="M400 600H500V500H400Z"/>
</svg>
