<?xml version="1.0" encoding="UTF-8"?>
<svg xmlns="http://www.w3.org/2000/svg" viewBox="0 0 1200 1200" width="1200" height="1200">
  <title>emoji_u1f9ac</title>
  <path fill="#bf967c" d="M400 1200H600V1000H400ZM900 1200H1100V1000H900Z"/>
  <path fill="#212121" d="M0 700H100V800H200V500H0Z"/>
  <path fill="#bb9279" d="M0 600H100V800H300V500H200V400H100V500H0Z"/>
  <path fill="#6a463e" d="M100 500H500V700H400V800H300V1000H400V1100H600V1000H700V900H800V800H900V500H800V300H700V100H300V200H200V100H100V300H200V400H100Z"/>
  <path fill="#8c685c" d="M100 600H200V800H300V900H500V800H600V600H700V500H600V300H400V400H100ZM400 1100H600V1000H900V1100H1100V500H800V700H700V800H600V900H500V1000H400Z"/>
  <path fill="#f7cc93" d="M100 300H200V100H100ZM500 500H600V300H500ZM600 600H700V500H600Z"/>
  <path fill="#3b2622" d="M600 600H700V500H600ZM500 800H600V600H500ZM300 900H500V800H300Z"/>
  <path fill="#000000" d="M300 600H400V500H300Z"/>
</svg>
