<?xml version="1.0" encoding="UTF-8"?>
<svg xmlns="http://www.w3.org/2000/svg" viewBox="0 0 1200 1200" width="1200" height="1200">
  <title>emoji_u1f1ee_1f1f6</title>
  <path fill="#000000" d="M0 1000H1100V700H0Z"/>
  <path fill="#ce1126" d="M0 600H1100V300H0Z"/>
  <path fill="#ffffff" d="M0 800H400V500H0ZM700 800H1100V500H700Z"/>
  <path fill="#efafb6" d="M0 600H300V700H500V500H0ZM700 700H800V600H1100V500H700Z"/>
  <path fill="#a9a9a9" d="M0 800H1100V700H800V600H300V700H0Z"/>
  <path fill="#9fa4a2" d="M300 800H400V700H500V600H300Z"/>
  <path fill="#ebadb3" d="M600 700H800V500H600Z"/>
  <path fill="#ecadb4" d="M400 700H700V500H400Z"/>
  <path fill="#ecaeb4" d="M300 700H600V600H500V500H400V600H300Z"/>
  <path fill="#edaeb5" d="M500 700H800V600H700V500H600V600H500Z"/>
  <path fill="#87c1a4" d="M300 700H600V600H300Z"/>
  <path fill="#94c7ae" d="M500 700H700V600H500Z"/>
  <path fill="#a4cfba" d="M600 700H800V600H600Z"/>
  <path fill="#a5d0bb" d="M700 700H800V600H700Z"/>
  <path fill="#d5e9df" d="M300 700H400V600H300Z"/>
</svg>
