<?xml version="1.0" encoding="UTF-8"?>
<svg xmlns="http://www.w3.org/2000/svg" viewBox="0 0 1200 1200" width="1200" height="1200">
  <title>emoji_u1f510</title>
  <path fill="#b9e4ea" d="M200 200H400V100H200ZM100 400H200V200H100Z"/>
  <path fill="#84b0c1" d="M300 200H500V100H300ZM500 500H700V400H600V200H500ZM0 700H300V500H200V300H100V500H0Z"/>
  <path fill="#9e740b" d="M600 700H700V1200H1000V1100H900V1000H1000V900H900V800H1000V700H1100V400H1000V300H700V400H600ZM800 600V400H900V600ZM100 1000H200V1200H500V1000H600V700H100Z"/>
  <path fill="#ffca28" d="M700 400H900V300H700ZM500 800H600V1100H700V1200H900V1100H800V1000H900V900H800V800H900V700H1000V400H900V600H700V400H500Z"/>
  <path fill="#e2a610" d="M0 1100H100V1200H600V1100H700V700H600V500H200V600H100V500H0ZM200 900V800H300V900ZM400 900V800H500V900ZM300 1100V1000H400V1100Z"/>
  <path fill="#a0760b" d="M400 600H500V700H600V500H400ZM400 800H500V700H400ZM600 1100H700V700H600Z"/>
  <path fill="#fdd835" d="M200 600H600V400H500V500H200ZM0 600H100V500H0Z"/>
  <path fill="#3d8192" d="M500 600H600V400H500Z"/>
  <path fill="#4e342e" d="M200 800H300V1000H400V800H500V700H200Z"/>
</svg>
