<?xml version="1.0" encoding="UTF-8"?>
<svg xmlns="http://www.w3.org/2000/svg" viewBox="0 0 1200 1200" width="1200" height="1200">
  <title>emoji_u1f1f8_1f1ed</title>
  <path fill="#a77d9e" d="M0 500H200V300H0Z"/>
  <path fill="#465192" d="M400 500H700V300H400Z"/>
  <path fill="#5c6099" d="M200 500H500V300H200Z"/>
  <path fill="#6b598e" d="M0 800H200V500H0Z"/>
  <path fill="#7374a5" d="M0 500H300V300H100V400H0Z"/>
  <path fill="#8f8ab2" d="M0 600H100V700H200V400H0Z"/>
  <path fill="#a24a6e" d="M100 500H400V400H300V300H200V400H100Z"/>
  <path fill="#ad83a1" d="M300 500H600V400H500V300H400V400H300Z"/>
  <path fill="#b9506d" d="M0 500H100V600H200V400H0Z"/>
  <path fill="#00247d" d="M0 1000H1100V300H600V400H500V600H100V700H0Z"/>
  <path fill="#01257e" d="M700 800H800V900H900V800H1000V700H700Z"/>
  <path fill="#02257e" d="M800 800H1000V600H800Z"/>
  <path fill="#02267e" d="M700 600H900V400H700Z"/>
  <path fill="#092c7e" d="M700 600H1000V500H900V400H800V500H700Z"/>
  <path fill="#102f82" d="M100 700H300V500H100Z"/>
  <path fill="#173a8c" d="M800 800H900V700H1000V500H800Z"/>
  <path fill="#244372" d="M800 700H900V600H1000V500H800Z"/>
  <path fill="#5b3a75" d="M400 600H600V400H400Z"/>
  <path fill="#cc6176" d="M300 600H600V500H500V400H300Z"/>
  <path fill="#d597a8" d="M100 600H200V700H300V400H100Z"/>
  <path fill="#d84355" d="M100 500H200V600H400V400H100Z"/>
  <path fill="#dd6171" d="M100 500H200V400H100ZM200 600H300V500H200Z"/>
  <path fill="#df6171" d="M200 600H500V500H400V400H300V500H200Z"/>
  <path fill="#233c69" d="M700 800H900V600H700Z"/>
  <path fill="#276479" d="M700 700H800V800H900V600H700Z"/>
  <path fill="#33468d" d="M400 700H600V500H400Z"/>
  <path fill="#4e3575" d="M200 700H400V500H200Z"/>
  <path fill="#8aa9c6" d="M700 700H900V500H700Z"/>
  <path fill="#a1ae38" d="M700 700H800V600H900V500H700Z"/>
  <path fill="#c0acc3" d="M200 600H300V700H500V500H200Z"/>
  <path fill="#c35a72" d="M200 600H300V500H200ZM300 700H400V600H300Z"/>
  <path fill="#ca8fa3" d="M300 700H600V600H500V500H400V600H300Z"/>
  <path fill="#d8d716" d="M800 600H900V500H800ZM700 700H800V600H700Z"/>
  <path fill="#193888" d="M300 700H500V600H300Z"/>
  <path fill="#373b81" d="M400 700H600V600H400Z"/>
  <path fill="#485c9c" d="M400 700H500V600H400Z"/>
  <path fill="#5c646f" d="M700 700H800V600H700Z"/>
</svg>
