<?xml version="1.0" encoding="UTF-8"?>
<svg xmlns="http://www.w3.org/2000/svg" viewBox="0 0 1200 1200" width="1200" height="1200">
  <title>emoji_u1f4fc</title>
  <path fill="#424242" d="M0 500H200V400H900V500H1100V300H1000V200H100V300H0Z"/>
  <path fill="#595858" d="M0 900H100V1000H1000V900H1100V400H1000V300H600V800H500V300H100V400H0Z"/>
  <path fill="#787676" d="M200 500H300V400H400V500H700V400H800V500H900V300H200ZM200 900H900V700H800V800H700V700H400V800H300V700H200Z"/>
  <path fill="#504f4f" d="M100 700H200V800H300V400H200V500H100ZM800 800H900V700H1000V500H900V400H800Z"/>
  <path fill="#e94440" d="M400 600H700V400H400Z"/>
  <path fill="#bdbdbd" d="M200 700H300V500H200ZM400 800H700V500H400ZM800 700H900V500H800Z"/>
  <path fill="#f6f6f6" d="M400 600H700V500H400ZM400 800H700V700H400Z"/>
</svg>
