<?xml version="1.0" encoding="UTF-8"?>
<svg xmlns="http://www.w3.org/2000/svg" viewBox="0 0 1200 1200" width="1200" height="1200">
  <title>emoji_u1f1f0_1f1ee</title>
  <path fill="#225997" d="M0 1000H200V800H0ZM900 1000H1100V800H900Z"/>
  <path fill="#0d498d" d="M300 1000H800V800H300Z"/>
  <path fill="#154e91" d="M100 1000H400V800H100ZM700 1000H1000V800H700Z"/>
  <path fill="#31649e" d="M0 900H100V1000H200V900H300V800H0ZM800 900H900V1000H1000V900H1100V800H800Z"/>
  <path fill="#3c6ca3" d="M200 900H300V1000H400V900H500V800H200ZM600 900H700V1000H800V900H900V800H600Z"/>
  <path fill="#d02c22" d="M300 500H800V300H300Z"/>
  <path fill="#e06876" d="M0 800H200V500H0ZM900 800H1100V500H900Z"/>
  <path fill="#406fa5" d="M400 900H500V1000H600V900H700V800H400Z"/>
  <path fill="#d64a1f" d="M400 500H700V400H600V300H500V400H400Z"/>
  <path fill="#ce1126" d="M0 600H100V700H500V400H400V300H0ZM600 700H1000V600H1100V300H700V400H600Z"/>
  <path fill="#7f9fc3" d="M0 900H1100V700H1000V600H100V700H0Z"/>
  <path fill="#ce1525" d="M400 600H700V400H400Z"/>
  <path fill="#dd5b69" d="M100 700H300V600H100ZM800 700H1000V600H800Z"/>
  <path fill="#d64c1f" d="M400 600H700V500H600V400H500V500H400Z"/>
  <path fill="#e27581" d="M200 700H400V600H200ZM700 700H900V600H700Z"/>
  <path fill="#da611d" d="M300 700H600V500H400V600H300Z"/>
  <path fill="#da621d" d="M500 700H800V600H700V500H500Z"/>
  <path fill="#f0c314" d="M400 700H700V600H600V500H500V600H400Z"/>
  <path fill="#db5060" d="M300 700H500V600H300ZM600 700H800V600H600Z"/>
  <path fill="#f1c67f" d="M400 700H700V600H400Z"/>
  <path fill="#fddd51" d="M500 700H600V600H500Z"/>
</svg>
