<?xml version="1.0" encoding="UTF-8"?>
<svg xmlns="http://www.w3.org/2000/svg" viewBox="0 0 1200 1200" width="1200" height="1200">
  <title>emoji_u1fa7b</title>
  <path fill="#95c7ec" d="M0 1100H100V1200H1000V1100H1100V200H1000V100H100V200H0Z"/>
  <path fill="#004ca5" d="M100 1100H1000V200H100Z"/>
  <path fill="#daebf5" d="M100 300H200V200H100ZM900 300H1000V200H900ZM200 400H300V300H200ZM800 400H900V300H800ZM200 1000H300V900H200ZM800 1000H900V900H800ZM100 1100H200V1000H100ZM900 1100H1000V1000H900Z"/>
  <path fill="#10203d" d="M200 1000H900V300H600V400H500V300H200Z"/>
  <path fill="#fefefe" d="M300 700H400V800H500V700H600V800H700V700H800V400H700V300H400V400H300ZM400 600V500H500V600ZM600 600V500H700V600ZM300 1000H800V900H600V800H500V900H300Z"/>
</svg>
