<?xml version="1.0" encoding="UTF-8"?>
<svg xmlns="http://www.w3.org/2000/svg" viewBox="0 0 1200 1200" width="1200" height="1200">
  <title>emoji_u1f625</title>
  <path fill="#eb8f00" d="M0 900H200V400H300V300H800V400H900V900H800V1000H200V1200H900V1100H1000V1000H1100V300H1000V200H900V100H200V200H100V300H0Z"/>
  <path fill="#27aff3" d="M0 1100H100V1200H300V1100H500V800H400V700H300V600H100V800H0Z"/>
  <path fill="#81d4fa" d="M300 900H400V800H300ZM200 1100H300V900H200Z"/>
  <path fill="#fde030" d="M100 700H200V800H300V900H400V1100H900V1000H1000V300H900V200H200V300H100Z"/>
  <path fill="#422b0d" d="M300 400H400V300H300ZM700 400H800V300H700ZM200 500H300V400H200ZM800 500H900V400H800ZM300 700H400V500H300ZM700 700H800V500H700ZM400 900H700V800H400ZM700 1000H800V900H700Z"/>
</svg>
