<?xml version="1.0" encoding="UTF-8"?>
<svg xmlns="http://www.w3.org/2000/svg" viewBox="0 0 1200 1200" width="1200" height="1200">
  <title>emoji_u1f51a</title>
  <path fill="#427687" d="M0 1100H100V1200H1000V1100H1100V200H1000V100H900V1000H0Z"/>
  <path fill="#fafafa" d="M0 1100H1000V1000H1100V800H1000V600H600V500H1000V200H600V100H200V200H100V500H0Z"/>
  <path fill="#8cafbf" d="M0 600H300V700H100V800H300V900H100V1000H300V1100H400V700H600V800H700V1100H800V700H1000V100H500V300H900V400H500V600H400V500H300V400H200V300H300V200H400V100H100V200H0ZM500 1100H600V800H500ZM900 1000H1000V800H900Z"/>
  <path fill="#a0c8d6" d="M200 300H300V200H200ZM100 400H200V300H100Z"/>
</svg>
