<?xml version="1.0" encoding="UTF-8"?>
<svg xmlns="http://www.w3.org/2000/svg" viewBox="0 0 1200 1200" width="1200" height="1200">
  <title>emoji_u1f64b_1f3ff</title>
  <path fill="#4a2f27" d="M100 600H400V500H500V300H400V100H300V200H200V100H100Z"/>
  <path fill="#f78c1f" d="M0 1100H100V1200H500V1000H400V700H300V500H100V800H0Z"/>
  <path fill="#70534a" d="M100 600H200V700H300V600H400V500H500V400H300V500H200V400H300V300H200V100H100ZM300 300H400V100H300ZM500 600H600V500H500ZM300 1100H400V1200H1000V1100H1100V800H1000V700H500V600H400V700H300Z"/>
  <path fill="#232020" d="M300 1100H400V900H500V800H900V900H1000V1100H1100V700H1000V600H900V500H500V600H400V700H300ZM500 1000H600V900H500ZM800 1000H900V900H800Z"/>
  <path fill="#1a1717" d="M500 1100H600V900H500ZM800 1100H900V900H800Z"/>
</svg>
