<?xml version="1.0" encoding="UTF-8"?>
<svg xmlns="http://www.w3.org/2000/svg" viewBox="0 0 1200 1200" width="1200" height="1200">
  <title>emoji_u1f1eb_1f1ee</title>
  <path fill="#ffffff" d="M0 600H1100V300H0ZM0 1000H1100V700H0Z"/>
  <path fill="#0d3f86" d="M200 600H500V300H300V500H200ZM200 800H300V1000H500V700H200Z"/>
  <path fill="#1d4c8e" d="M300 600H600V500H500V300H400V500H300ZM300 800H400V1000H500V800H600V700H300Z"/>
  <path fill="#8ca4c6" d="M0 800H1100V500H0Z"/>
  <path fill="#003580" d="M0 700H300V800H500V700H1100V600H500V500H300V600H0Z"/>
  <path fill="#073b83" d="M300 600H500V500H300ZM300 800H500V700H300Z"/>
  <path fill="#104288" d="M400 600H500V500H400ZM400 800H500V700H400Z"/>
</svg>
