<?xml version="1.0" encoding="UTF-8"?>
<svg xmlns="http://www.w3.org/2000/svg" viewBox="0 0 1200 1200" width="1200" height="1200">
  <title>emoji_u1f1f8_1f1f8</title>
  <path fill="#092d6f" d="M0 500H200V300H0Z"/>
  <path fill="#0c5f80" d="M0 1000H200V800H0Z"/>
  <path fill="#010308" d="M0 500H300V300H100V400H0Z"/>
  <path fill="#078636" d="M0 900H100V1000H300V800H0Z"/>
  <path fill="#000000" d="M100 500H200V600H1100V300H200V400H100Z"/>
  <path fill="#078930" d="M100 900H200V1000H1100V700H200V800H100Z"/>
  <path fill="#0f47af" d="M0 900H300V800H500V500H300V400H0Z"/>
  <path fill="#d06368" d="M300 600H400V700H1100V500H300Z"/>
  <path fill="#d1726d" d="M300 800H1100V600H400V700H300Z"/>
  <path fill="#da121a" d="M400 700H1100V600H400Z"/>
  <path fill="#030d21" d="M100 500H200V600H400V500H300V400H100Z"/>
  <path fill="#097c48" d="M100 900H300V800H400V700H200V800H100Z"/>
  <path fill="#0d3c95" d="M100 500H200V400H100ZM200 600H300V500H200Z"/>
  <path fill="#0e519c" d="M200 800H300V700H200ZM100 900H200V800H100Z"/>
  <path fill="#1047ac" d="M200 600H400V500H200Z"/>
  <path fill="#114aad" d="M200 800H400V700H200Z"/>
  <path fill="#78709d" d="M300 600H400V500H300ZM400 700H500V600H400Z"/>
  <path fill="#797ea2" d="M400 700H500V600H400ZM300 800H400V700H300Z"/>
  <path fill="#842859" d="M400 700H500V600H400Z"/>
</svg>
