<?xml version="1.0" encoding="UTF-8"?>
<svg xmlns="http://www.w3.org/2000/svg" viewBox="0 0 1200 1200" width="1200" height="1200">
  <title>emoji_u1f9ca</title>
  <path fill="#37b4e2" d="M0 1100H200V500H300V400H500V300H600V400H800V500H900V900H600V1000H300V1100H400V1200H700V1100H900V1000H1000V900H1100V400H1000V300H900V200H700V100H400V200H200V300H100V400H0Z"/>
  <path fill="#37b5e1" d="M0 1100H100V1200H300V1100H500V900H400V800H100V1000H0Z"/>
  <path fill="#b0e3fd" d="M0 1100H300V1000H200V900H300V800H100V1000H0ZM300 1000H400V900H300Z"/>
  <path fill="#33b0e0" d="M500 900H600V1000H1000V700H800V600H500Z"/>
  <path fill="#ffffff" d="M100 500H200V600H300V700H400V1100H500V1200H600V1100H700V800H600V700H800V600H1000V400H900V300H700V200H400V300H200V400H100Z"/>
  <path fill="#6bc4ea" d="M800 800H900V900H1000V400H900V500H800ZM800 1000H900V900H800Z"/>
  <path fill="#aadbf4" d="M100 900H300V400H100Z"/>
  <path fill="#71bee5" d="M600 1100H700V1000H900V900H600Z"/>
  <path fill="#a2cdeb" d="M300 1000H400V1100H500V900H300Z"/>
  <path fill="#b8d9f0" d="M200 900H300V1000H500V800H200Z"/>
  <path fill="#fdfefe" d="M100 1100H200V1000H100Z"/>
  <path fill="#91dafc" d="M300 400H400V500H700V400H800V300H300ZM200 500H300V400H200Z"/>
  <path fill="#58b8e3" d="M600 1000H800V900H700V800H600Z"/>
  <path fill="#c5e6f7" d="M200 900H400V500H300V400H200Z"/>
  <path fill="#88d2ed" d="M200 900H400V700H300V800H200Z"/>
  <path fill="#bde6f5" d="M300 900H400V1000H500V700H300Z"/>
  <path fill="#f2fafe" d="M400 1000H500V800H400Z"/>
  <path fill="#48b8e4" d="M600 700H700V800H900V500H700V600H600ZM600 900H700V800H600Z"/>
  <path fill="#63c9f5" d="M400 500H700V400H600V300H500V400H400Z"/>
  <path fill="#ecf8fd" d="M400 500H500V400H400ZM300 800H400V900H500V600H400V500H300Z"/>
  <path fill="#72d0fb" d="M400 500H500V400H400ZM600 500H700V400H600ZM700 600H800V500H700Z"/>
  <path fill="#4ab4e3" d="M600 900H700V800H600Z"/>
  <path fill="#edf6fc" d="M400 900H500V700H400Z"/>
  <path fill="#3fb4e2" d="M600 700H800V500H700V600H600Z"/>
  <path fill="#e0f4fb" d="M400 800H500V600H400Z"/>
  <path fill="#f7fcff" d="M400 700H500V600H400Z"/>
</svg>
