<?xml version="1.0" encoding="UTF-8"?>
<svg xmlns="http://www.w3.org/2000/svg" viewBox="0 0 1200 1200" width="1200" height="1200">
  <title>emoji_u1f503</title>
  <path fill="#427687" d="M0 1100H100V1200H1000V1100H1100V200H1000V100H900V1000H0Z"/>
  <path fill="#8cafbf" d="M0 1100H1000V100H100V200H0Z"/>
  <path fill="#a0c8d6" d="M200 300H300V200H200ZM100 400H200V300H100ZM300 400H400V300H300ZM200 500H300V400H200Z"/>
  <path fill="#fafafa" d="M100 600H300V1000H400V600H600V500H500V400H400V300H300V400H200V500H100ZM600 400H700V300H600ZM500 900H600V1000H700V1100H800V1000H900V900H1000V800H800V400H700V800H500ZM400 1100H500V1000H400Z"/>
</svg>
