<?xml version="1.0" encoding="UTF-8"?>
<svg xmlns="http://www.w3.org/2000/svg" viewBox="0 0 1200 1200" width="1200" height="1200">
  <title>emoji_u1f49f</title>
  <path fill="#8e24aa" d="M0 1100H100V1200H1000V1100H1100V200H1000V100H900V1000H0Z"/>
  <path fill="#ab47bc" d="M0 1100H1000V100H100V200H0Z"/>
  <path fill="#c37dcf" d="M200 300H300V200H200ZM100 400H200V300H100ZM300 400H400V300H300ZM200 500H300V400H200Z"/>
  <path fill="#eeeeee" d="M200 700H300V800H400V900H500V1000H600V900H700V800H800V700H900V400H800V300H700V400H600V500H500V400H400V300H300V400H200Z"/>
</svg>
