<?xml version="1.0" encoding="UTF-8"?>
<svg xmlns="http://www.w3.org/2000/svg" viewBox="0 0 1200 1200" width="1200" height="1200">
  <title>emoji_u1fa9b</title>
  <path fill="#82aec0" d="M100 300H200V400H300V500H400V600H500V700H600V400H500V300H400V200H300V100H100Z"/>
  <path fill="#ff7555" d="M500 800H700V1000H800V1100H900V1000H1000V900H1100V800H1000V700H900V600H800V500H600V400H500Z"/>
  <path fill="#94d1e0" d="M100 200H200V300H300V400H400V500H500V600H600V400H500V300H400V200H300V100H100ZM500 800H800V500H700V600H600V700H500Z"/>
  <path fill="#caf4f9" d="M100 200H200V100H100ZM200 300H300V200H200Z"/>
  <path fill="#c62828" d="M500 800H600V900H700V1000H800V1100H900V900H800V800H900V600H700V700H500Z"/>
  <path fill="#f44336" d="M700 700H800V800H900V600H800V500H700ZM500 800H600V700H500ZM700 900H800V800H700ZM900 900H1000V800H900ZM800 1000H900V900H800Z"/>
</svg>
