<?xml version="1.0" encoding="UTF-8"?>
<svg xmlns="http://www.w3.org/2000/svg" viewBox="0 0 1200 1200" width="1200" height="1200">
  <title>emoji_u1f509</title>
  <path fill="#b0bec5" d="M800 400H900V300H800ZM900 800H1000V400H900ZM800 900H900V800H800Z"/>
  <path fill="#b3d0e0" d="M500 900H600V1000H700V200H600V300H500Z"/>
  <path fill="#2a4e56" d="M200 800H500V600H200Z"/>
  <path fill="#427687" d="M200 700H400V800H500V400H200Z"/>
  <path fill="#738a97" d="M400 800H500V900H600V600H400Z"/>
  <path fill="#b2dfec" d="M300 600H400V700H600V500H700V300H500V400H400V500H300Z"/>
  <path fill="#8cafbf" d="M400 500H600V300H500V400H400ZM200 600H400V500H200ZM400 700H600V600H400Z"/>
</svg>
