<?xml version="1.0" encoding="UTF-8"?>
<svg xmlns="http://www.w3.org/2000/svg" viewBox="0 0 1200 1200" width="1200" height="1200">
  <title>emoji_u1f1f0_1f1f2</title>
  <path fill="#3a75c4" d="M100 1000H1100V800H100Z"/>
  <path fill="#ffc61e" d="M100 500H1100V300H100Z"/>
  <path fill="#6eab67" d="M0 900H200V400H0Z"/>
  <path fill="#3c8661" d="M0 1000H200V800H0Z"/>
  <path fill="#7ba02c" d="M0 500H200V300H0Z"/>
  <path fill="#3a78b5" d="M0 900H100V1000H200V900H300V800H0Z"/>
  <path fill="#b0d1ac" d="M0 700H100V800H200V500H100V600H0Z"/>
  <path fill="#ebc020" d="M0 500H300V400H200V300H100V400H0Z"/>
  <path fill="#5e5c9d" d="M300 900H1100V700H300Z"/>
  <path fill="#ffd455" d="M300 600H1100V400H300Z"/>
  <path fill="#3d8e33" d="M0 900H200V800H500V500H200V400H0V500H100V600H200V700H100V800H0Z"/>
  <path fill="#ce1126" d="M400 800H1100V600H400Z"/>
  <path fill="#ffffff" d="M400 700H1100V500H400Z"/>
  <path fill="#e78893" d="M500 700H1100V600H500Z"/>
  <path fill="#8cbc86" d="M100 900H300V400H100Z"/>
  <path fill="#407e88" d="M100 900H400V700H200V800H100Z"/>
  <path fill="#439042" d="M200 800H300V700H200ZM100 900H200V800H100Z"/>
  <path fill="#4a9641" d="M100 700H200V800H300V500H200V600H100Z"/>
  <path fill="#4e9538" d="M100 500H200V600H300V400H100Z"/>
  <path fill="#5e5d9d" d="M200 800H300V900H400V800H500V700H200Z"/>
  <path fill="#b2b12d" d="M200 600H400V400H200Z"/>
  <path fill="#fed354" d="M200 600H500V500H400V400H300V500H200Z"/>
  <path fill="#509947" d="M200 700H300V600H400V500H200Z"/>
  <path fill="#519948" d="M200 800H400V700H300V600H200Z"/>
  <path fill="#5ba053" d="M300 600H400V500H300ZM200 700H300V600H200ZM300 800H400V700H300Z"/>
  <path fill="#607030" d="M300 800H500V600H400V700H300Z"/>
  <path fill="#6ba964" d="M300 600H400V700H500V500H300Z"/>
  <path fill="#b72528" d="M400 800H500V700H600V600H400Z"/>
  <path fill="#e0eddf" d="M400 700H600V600H500V500H400Z"/>
  <path fill="#468e38" d="M400 700H600V600H400Z"/>
  <path fill="#cc8984" d="M500 700H600V600H500Z"/>
</svg>
