<?xml version="1.0" encoding="UTF-8"?>
<svg xmlns="http://www.w3.org/2000/svg" viewBox="0 0 1200 1200" width="1200" height="1200">
  <title>emoji_u1f926_200d_2640</title>
  <path fill="#543930" d="M200 900H400V500H500V400H600V500H700V900H900V200H800V100H300V200H200Z"/>
  <path fill="#5c17f6" d="M100 1200H700V1000H800V1200H1000V900H900V800H800V700H700V900H600V600H300V800H200V900H100Z"/>
  <path fill="#5510ee" d="M400 700H500V1000H600V1200H900V900H800V600H400Z"/>
  <path fill="#5315db" d="M500 1000H600V800H500ZM600 1200H700V1000H600Z"/>
  <path fill="#ffca28" d="M300 700H600V600H800V400H700V300H400V400H300Z"/>
  <path fill="#ffbb0e" d="M400 600H500V700H800V500H700V400H600V500H500V400H400Z"/>
  <path fill="#404040" d="M400 600H500V400H400Z"/>
</svg>
