<?xml version="1.0" encoding="UTF-8"?>
<svg xmlns="http://www.w3.org/2000/svg" viewBox="0 0 1200 1200" width="1200" height="1200">
  <title>emoji_u1f367</title>
  <path fill="#c8c8c8" d="M700 500H1000V300H1100V100H1000V200H900V300H800V200H700Z"/>
  <path fill="#9c9c9c" d="M1000 300H1100V200H1000ZM700 600H1000V300H900V400H800V300H700Z"/>
  <path fill="#e0e0e0" d="M0 1000H100V1100H200V1200H900V1100H1000V1000H1100V800H0Z"/>
  <path fill="#f16592" d="M100 700H200V800H1000V400H900V500H800V200H300V300H200V400H100Z"/>
  <path fill="#dbedf6" d="M100 800H300V900H600V600H500V700H300V600H100ZM700 900H1000V700H900V600H800V700H700Z"/>
  <path fill="#ffffff" d="M400 600H500V500H400ZM700 600H800V500H700ZM0 900H100V1000H200V900H1100V800H1000V700H900V800H800V700H600V600H500V800H400V700H300V600H200V700H100V800H0ZM800 700H900V600H800ZM200 1100H300V1000H200ZM300 1200H400V1100H300Z"/>
  <path fill="#c9c9c9" d="M0 900H1100V800H0Z"/>
  <path fill="#d7598b" d="M500 400H600V300H500ZM200 500H300V400H200ZM400 600H500V500H400ZM700 600H800V500H700Z"/>
</svg>
