<?xml version="1.0" encoding="UTF-8"?>
<svg xmlns="http://www.w3.org/2000/svg" viewBox="0 0 1200 1200" width="1200" height="1200">
  <title>emoji_u1f3e3</title>
  <path fill="#395660" d="M300 600H1100V400H400V300H300Z"/>
  <path fill="#b0b0b0" d="M900 1200H1100V500H900Z"/>
  <path fill="#6e8690" d="M300 1200H1100V1100H1000V1000H300Z"/>
  <path fill="#3b5361" d="M500 1100H600V1200H700V1100H800V1000H500Z"/>
  <path fill="#e92a02" d="M0 1200H400V1100H500V800H300V700H400V200H0Z"/>
  <path fill="#e0e0e0" d="M0 900H400V1000H500V500H400V100H0V300H300V400H0V500H300V600H200V700H100V600H0Z"/>
  <path fill="#6ba5af" d="M400 1100H800V1200H1000V900H1100V800H1000V500H400Z"/>
  <path fill="#ff511b" d="M400 1000H500V900H700V1000H800V900H1100V800H900V700H800V800H700V700H600V800H500V700H400Z"/>
  <path fill="#e92c02" d="M400 1100H800V900H700V1000H500V900H400Z"/>
  <path fill="#dfdfdf" d="M400 800H500V600H600V800H700V600H800V800H900V600H1000V500H400ZM400 1100H500V900H400ZM700 1000H800V900H700Z"/>
</svg>
