<?xml version="1.0" encoding="UTF-8"?>
<svg xmlns="http://www.w3.org/2000/svg" viewBox="0 0 1200 1200" width="1200" height="1200">
  <title>emoji_u1f960</title>
  <path fill="#e0e0e0" d="M500 1100H600V1200H700V1100H800V1200H900V1100H1000V1000H1100V900H1000V800H1100V700H1000V600H700V700H600V800H500Z"/>
  <path fill="#f4b548" d="M0 900H100V1000H300V900H400V1100H500V1200H700V1000H600V900H500V800H600V400H700V100H400V200H300V500H200V700H0ZM800 700H900V800H1100V500H1000V400H800Z"/>
  <path fill="#f7c876" d="M0 800H300V600H400V300H500V700H400V900H700V800H800V700H900V500H1000V400H900V300H800V200H700V100H400V200H200V300H100V400H0ZM500 300V200H600V300Z"/>
  <path fill="#f5b953" d="M800 400H900V300H800ZM900 500H1000V400H900ZM300 600H400V500H300ZM400 1000H600V900H700V800H800V700H900V500H800V600H700V700H600V800H500V700H400ZM0 800H300V600H200V700H0ZM500 700H600V600H500Z"/>
  <path fill="#cf701e" d="M500 700H600V300H500ZM800 700H900V600H800ZM400 900H500V700H400ZM700 800H800V700H700ZM600 900H700V800H600ZM500 1000H600V900H500Z"/>
</svg>
