<?xml version="1.0" encoding="UTF-8"?>
<svg xmlns="http://www.w3.org/2000/svg" viewBox="0 0 1200 1200" width="1200" height="1200">
  <title>emoji_u1f233</title>
  <path fill="#427687" d="M0 1100H100V1200H1000V1100H1100V200H1000V100H900V1000H0Z"/>
  <path fill="#8cafbf" d="M0 1100H1000V100H100V200H0Z"/>
  <path fill="#a0c8d6" d="M100 400H200V500H300V400H400V300H300V200H200V300H100Z"/>
  <path fill="#fafafa" d="M200 500H300V400H400V500H500V400H600V600H800V500H900V300H600V200H500V300H200ZM700 500V400H800V500ZM300 600H400V500H300ZM200 1000H900V900H600V800H800V700H300V800H500V900H200Z"/>
  <path fill="#ffffff" d="M300 600H400V500H300Z"/>
</svg>
