<?xml version="1.0" encoding="UTF-8"?>
<svg xmlns="http://www.w3.org/2000/svg" viewBox="0 0 1200 1200" width="1200" height="1200">
  <title>emoji_u1f328</title>
  <path fill="#92c9f4" d="M300 800H400V900H500V800H600V900H700V800H800V700H300ZM0 1000H100V900H0ZM200 1000H300V900H200ZM500 1000H600V900H500ZM800 1000H900V900H800ZM1000 1000H1100V900H1000ZM100 1100H200V1000H100ZM400 1100H500V1000H400ZM600 1100H700V1000H600ZM900 1100H1000V1000H900ZM0 1200H100V1100H0ZM200 1200H300V1100H200ZM800 1200H900V1100H800ZM1000 1200H1100V1100H1000Z"/>
  <path fill="#b9ced3" d="M0 700H100V800H1000V700H1100V500H0Z"/>
  <path fill="#e2ebee" d="M0 600H100V700H300V600H500V700H700V600H900V700H1000V600H1100V500H1000V300H900V200H800V100H500V200H400V300H200V400H100V500H0Z"/>
</svg>
