<?xml version="1.0" encoding="UTF-8"?>
<svg xmlns="http://www.w3.org/2000/svg" viewBox="0 0 1200 1200" width="1200" height="1200">
  <title>emoji_u1f4f0</title>
  <path fill="#bdbdbd" d="M0 300H700V1200H1000V1100H1100V200H900V100H0Z"/>
  <path fill="#919191" d="M900 900H1000V300H1100V200H900ZM900 1100H1000V1000H900Z"/>
  <path fill="#eeeeee" d="M0 1100H100V1200H800V200H0Z"/>
  <path fill="#9e9e9e" d="M200 500H400V300H200ZM500 500H700V300H600V400H500ZM200 700H400V600H200ZM500 700H700V600H500ZM200 1100H500V800H200ZM600 900H700V800H600Z"/>
</svg>
