<?xml version="1.0" encoding="UTF-8"?>
<svg xmlns="http://www.w3.org/2000/svg" viewBox="0 0 1200 1200" width="1200" height="1200">
  <title>emoji_u1f6fb</title>
  <path fill="#ff5117" d="M0 700H300V600H500V700H1100V500H600V200H300V300H200V500H0Z"/>
  <path fill="#b0b0b1" d="M0 1000H200V700H0ZM900 1000H1100V700H900Z"/>
  <path fill="#fdfefe" d="M0 800H100V900H200V600H0Z"/>
  <path fill="#d50916" d="M900 800H1100V600H900Z"/>
  <path fill="#4e433d" d="M100 1000H200V1100H400V1000H700V1100H900V1000H1000V700H600V800H500V700H100Z"/>
  <path fill="#ee3e23" d="M100 900H200V800H400V900H700V800H900V900H1000V800H1100V700H1000V600H600V500H200V600H100Z"/>
  <path fill="#b22519" d="M400 700H500V600H400ZM200 800H400V700H200ZM400 900H500V1000H600V900H700V800H600V700H500V800H400ZM700 800H900V700H700ZM100 900H200V800H100ZM900 900H1000V800H900ZM200 1000H400V900H200ZM700 1000H900V900H700Z"/>
  <path fill="#afe3fb" d="M200 600H600V500H500V300H300V500H200Z"/>
  <path fill="#c8c8c8" d="M200 1000H400V900H200ZM700 1000H900V900H700Z"/>
  <path fill="#546f79" d="M200 600H400V700H600V500H200Z"/>
  <path fill="#8a1e0c" d="M400 700H500V900H600V500H500V600H400Z"/>
</svg>
