<?xml version="1.0" encoding="UTF-8"?>
<svg xmlns="http://www.w3.org/2000/svg" viewBox="0 0 1200 1200" width="1200" height="1200">
  <title>emoji_u1f96f</title>
  <path fill="#f1b34f" d="M0 1000H100V1100H200V1200H900V1100H1000V1000H1100V800H900V900H800V1000H300V900H200V800H0Z"/>
  <path fill="#e5911c" d="M0 800H200V900H900V800H1100V300H1000V200H900V100H200V200H100V300H0Z"/>
  <path fill="#f1b14a" d="M0 900H100V1000H1000V900H1100V600H1000V700H800V800H500V700H400V800H300V700H100V600H0Z"/>
  <path fill="#ffffff" d="M200 600H600V700H700V600H900V500H800V400H300V500H200ZM0 900H100V1000H200V1100H900V1000H1000V900H1100V800H900V900H200V800H0Z"/>
  <path fill="#fadfb1" d="M100 1000H200V900H100ZM900 1000H1000V900H900ZM200 1100H900V1000H200Z"/>
  <path fill="#f5e5c7" d="M200 300H300V200H200ZM700 300H800V200H700ZM400 500H700V400H600V300H500V400H400ZM100 500H200V400H100ZM900 500H1000V400H900ZM200 600H300V500H200ZM800 600H900V500H800ZM600 700H700V600H600ZM400 800H500V700H400Z"/>
  <path fill="#fcde8c" d="M300 500H800V400H300ZM200 600H300V500H200ZM800 600H900V500H800Z"/>
</svg>
