<?xml version="1.0" encoding="UTF-8"?>
<svg xmlns="http://www.w3.org/2000/svg" viewBox="0 0 1200 1200" width="1200" height="1200">
  <title>emoji_u1f944</title>
  <path fill="#9d9d9d" d="M100 500H200V600H500V700H600V800H700V900H800V1000H900V1100H1000V1000H1100V900H1000V800H900V700H800V600H700V500H600V400H300V100H200V200H100Z"/>
  <path fill="#c8c8c8" d="M200 400H300V500H500V600H600V700H700V800H800V900H900V1000H1100V900H1000V800H900V700H800V600H700V500H600V200H500V100H200Z"/>
  <path fill="#ffffff" d="M200 500H500V400H400V300H300V200H200Z"/>
  <path fill="#e0e0e0" d="M200 300H300V200H200ZM300 400H400V300H300ZM400 500H500V400H400Z"/>
</svg>
