<?xml version="1.0" encoding="UTF-8"?>
<svg xmlns="http://www.w3.org/2000/svg" viewBox="0 0 1200 1200" width="1200" height="1200">
  <title>emoji_u1f6a1</title>
  <path fill="#82aec0" d="M300 300H1000V200H900V100H400V200H300Z"/>
  <path fill="#ffffff" d="M300 800H700V500H600V600H300Z"/>
  <path fill="#9e9e9e" d="M0 200H300V100H0ZM300 300H400V400H600V100H500V200H300ZM700 300H1100V200H800V100H700Z"/>
  <path fill="#37474f" d="M500 500H600V400H500ZM600 700H800V600H700V500H600ZM300 1100H400V1200H900V1100H1000V900H300Z"/>
  <path fill="#607d8b" d="M400 400H500V500H600V400H700V300H800V100H700V200H600V100H500V300H400Z"/>
  <path fill="#e0e0e0" d="M300 900H1000V600H600V700H400V600H300Z"/>
  <path fill="#bae2fd" d="M300 1000H400V1100H600V1000H700V1100H900V1000H1000V800H300Z"/>
  <path fill="#bf8400" d="M400 1200H900V800H700V1100H600V800H400Z"/>
  <path fill="#fdd835" d="M400 1100H500V800H400ZM800 1100H900V800H800Z"/>
</svg>
