<?xml version="1.0" encoding="UTF-8"?>
<svg xmlns="http://www.w3.org/2000/svg" viewBox="0 0 1200 1200" width="1200" height="1200">
  <title>emoji_u1f342</title>
  <path fill="#f7922a" d="M700 300H800V400H900V300H1000V200H900V100H700Z"/>
  <path fill="#ed6b2f" d="M800 300H900V200H800ZM1000 500H1100V400H1000ZM700 1100H800V1200H900V1100H1000V1000H1100V700H1000V500H900V700H800V800H700Z"/>
  <path fill="#865b50" d="M0 900H100V1000H400V900H500V800H600V700H700V500H600V400H500V300H300V400H200V600H100V800H0Z"/>
  <path fill="#c36639" d="M500 300H600V200H500ZM0 900H400V800H500V700H600V400H500V500H400V700H300V800H200V700H300V500H400V400H500V300H200V400H100V500H0Z"/>
  <path fill="#ab5731" d="M900 900H1000V800H900ZM800 1000H900V900H800Z"/>
</svg>
