<?xml version="1.0" encoding="UTF-8"?>
<svg xmlns="http://www.w3.org/2000/svg" viewBox="0 0 1200 1200" width="1200" height="1200">
  <title>emoji_u1f645_1f3ff_200d_2640</title>
  <path fill="#492c25" d="M0 700H100V900H300V600H200V500H0ZM800 900H1000V700H1100V600H1000V500H900V600H800Z"/>
  <path fill="#232020" d="M0 600H300V500H400V400H700V500H800V600H1000V200H900V100H200V200H100V500H0ZM100 1000H300V700H200V800H100ZM800 1000H1000V800H900V700H800Z"/>
  <path fill="#351ba4" d="M0 1200H300V1100H400V1200H700V1100H800V1200H1100V1000H1000V900H900V800H700V1000H400V800H200V900H100V1000H0Z"/>
  <path fill="#583ee2" d="M200 1100H300V1200H500V1100H600V1200H800V1100H900V1000H800V900H900V700H700V800H600V900H500V800H400V700H200V900H300V1000H200ZM0 1200H200V1100H0ZM900 1200H1100V1100H900Z"/>
  <path fill="#7669f7" d="M200 800H300V900H400V1000H600V1100H700V1200H1000V1100H900V1000H700V900H800V800H900V600H600V700H500V600H200ZM100 1200H400V1000H200V1100H100Z"/>
  <path fill="#e59502" d="M0 600H100V700H200V800H300V700H400V500H300V400H200V500H0ZM700 700H800V800H900V700H1000V500H900V400H800V500H700Z"/>
  <path fill="#70534a" d="M200 600H300V700H400V800H500V900H600V800H700V700H800V600H900V400H800V300H300V400H200ZM0 600H100V500H0ZM100 700H200V600H100ZM900 700H1000V600H900ZM200 800H300V700H200ZM800 800H900V700H800Z"/>
  <path fill="#1a1717" d="M300 600H400V400H300ZM700 600H800V400H700ZM400 800H700V700H400Z"/>
</svg>
