<?xml version="1.0" encoding="UTF-8"?>
<svg xmlns="http://www.w3.org/2000/svg" viewBox="0 0 1200 1200" width="1200" height="1200">
  <title>emoji_u1f43f</title>
  <path fill="#494949" d="M0 600H200V700H100V800H400V500H300V400H0Z"/>
  <path fill="#f69c9c" d="M0 600H100V500H200V400H0Z"/>
  <path fill="#865b52" d="M100 900H300V1000H200V1100H400V700H500V1000H600V1100H1000V1000H1100V400H1000V300H900V600H1000V700H900V800H800V600H700V500H600V300H500V200H400V100H300V200H200V300H400V600H300V700H100Z"/>
  <path fill="#fee5c1" d="M500 800H600V700H700V600H500ZM700 900H800V700H700ZM600 1000H700V900H600Z"/>
  <path fill="#9f7157" d="M0 500H200V600H300V500H500V200H200V300H100V400H0Z"/>
  <path fill="#c49166" d="M100 900H300V1100H800V1000H700V900H600V600H500V400H600V300H500V200H400V400H300V800H100Z"/>
  <path fill="#ffd2b2" d="M400 400H500V300H400ZM300 500H400V400H300Z"/>
  <path fill="#ffeac6" d="M200 600H300V700H400V400H200Z"/>
  <path fill="#fdc397" d="M200 500H300V400H200ZM300 800H400V700H500V600H400V500H300ZM400 1000H600V800H500V900H400Z"/>
  <path fill="#100d0f" d="M200 500H300V400H200Z"/>
</svg>
