<?xml version="1.0" encoding="UTF-8"?>
<svg xmlns="http://www.w3.org/2000/svg" viewBox="0 0 1200 1200" width="1200" height="1200">
  <title>emoji_u1f947</title>
  <path fill="#176cc7" d="M500 500H600V600H700V500H800V400H900V300H1000V100H700V200H600V300H500Z"/>
  <path fill="#2e9df4" d="M100 300H200V400H300V500H400V600H700V400H600V300H500V200H400V100H100Z"/>
  <path fill="#fcc417" d="M200 1000H300V1100H400V1200H700V1100H800V1000H900V700H800V600H700V500H400V600H300V700H200Z"/>
  <path fill="#fefffa" d="M300 800H600V600H400V700H300ZM500 1100H700V1000H600V900H500ZM700 1000H800V900H700Z"/>
  <path fill="#fa912c" d="M400 800H500V1100H600V600H500V700H400Z"/>
</svg>
