<?xml version="1.0" encoding="UTF-8"?>
<svg xmlns="http://www.w3.org/2000/svg" viewBox="0 0 1200 1200" width="1200" height="1200">
  <title>emoji_u2640</title>
  <path fill="#d863ff" d="M200 500H300V400H400V300H600V100H400V200H300V300H200ZM200 1100H500V1200H600V1100H700V1000H400V900H200Z"/>
  <path fill="#c71fff" d="M200 1100H900V900H600V800H800V700H900V300H800V200H700V100H500V200H400V300H700V400H800V600H700V700H400V600H300V400H200V700H300V800H500V900H300V1000H200ZM300 400H400V300H300Z"/>
  <path fill="#9f0cc4" d="M400 300H700V200H400ZM300 400H400V300H300ZM700 400H800V300H700ZM200 700H300V600H200ZM800 700H900V600H800ZM300 800H400V700H300ZM700 800H800V700H700ZM200 1100H500V1000H200ZM600 1100H900V1000H600Z"/>
</svg>
