<?xml version="1.0" encoding="UTF-8"?>
<svg xmlns="http://www.w3.org/2000/svg" viewBox="0 0 1200 1200" width="1200" height="1200">
  <title>emoji_u1f6dd</title>
  <path fill="#2f7889" d="M400 500H600V700H700V900H800V1000H900V1100H1100V900H1000V800H900V600H800V400H700V300H500V200H400Z"/>
  <path fill="#82aec0" d="M700 1200H800V1100H1000V1200H1100V1000H1000V900H700Z"/>
  <path fill="#cfd8dc" d="M300 200H400V100H300ZM200 400H400V300H300V200H200Z"/>
  <path fill="#78909c" d="M300 200H400V100H300ZM100 900H300V1000H400V600H500V700H600V400H500V200H400V300H200V500H300V600H200V500H100ZM200 800V700H300V800ZM0 1200H100V1100H200V1200H300V1000H100V900H0ZM700 1200H800V1000H700ZM1000 1200H1100V1100H1000Z"/>
  <path fill="#94d1e0" d="M300 600H400V300H300ZM500 800H600V900H700V1100H800V1000H900V800H800V700H700V400H500Z"/>
  <path fill="#66b7c4" d="M600 800H700V900H800V1000H1000V900H900V800H800V600H700V500H600Z"/>
  <path fill="#b0f2f7" d="M300 500H400V400H300ZM500 500H600V600H700V400H500Z"/>
</svg>
