<?xml version="1.0" encoding="UTF-8"?>
<svg xmlns="http://www.w3.org/2000/svg" viewBox="0 0 1200 1200" width="1200" height="1200">
  <title>emoji_u1f468_1f3fb_200d_1f9bd_200d_27a1</title>
  <path fill="#4568ad" d="M900 1100H1100V900H1000V800H900Z"/>
  <path fill="#c62828" d="M0 600H200V300H0Z"/>
  <path fill="#312d2d" d="M300 400H600V100H300Z"/>
  <path fill="#424242" d="M0 400H100V500H300V400H200V100H0ZM600 1100H700V1200H800V1100H900V1200H1000V1100H1100V1000H1000V900H900V1000H800V900H700V1000H600Z"/>
  <path fill="#f9ddbd" d="M200 500H600V200H500V300H300V400H200Z"/>
  <path fill="#7c7c7c" d="M500 800H800V900H900V1000H800V1100H1000V800H900V700H800V600H600V500H500Z"/>
  <path fill="#78909c" d="M0 1100H100V1200H500V1100H700V1000H600V800H700V700H600V500H0ZM100 1000V800H500V1000H400V1100H200V1000ZM700 1000H800V900H700ZM800 1100H900V1200H1000V1000H800ZM700 1200H800V1100H700Z"/>
  <path fill="#00af97" d="M200 600H300V700H400V600H500V700H600V400H200Z"/>
  <path fill="#f44336" d="M0 400H100V100H0ZM0 700H100V800H200V900H400V800H500V700H400V500H300V400H100V500H0ZM100 700V600H300V700ZM500 700H600V600H500ZM600 800H700V700H600ZM500 900H600V800H500ZM800 900H900V800H800ZM700 1000H800V900H700ZM900 1200H1000V1000H900Z"/>
  <path fill="#82aec0" d="M300 700H400V600H300ZM100 800H200V700H100ZM400 800H500V700H400ZM200 1000H400V800H200ZM500 900H600V800H500ZM100 1100H200V1000H100ZM400 1100H500V1000H400Z"/>
  <path fill="#8ec4d2" d="M500 900H600V800H500Z"/>
  <path fill="#f9dcbb" d="M300 700H400V500H300Z"/>
  <path fill="#757575" d="M200 1000H400V800H200Z"/>
</svg>
