<?xml version="1.0" encoding="UTF-8"?>
<svg xmlns="http://www.w3.org/2000/svg" viewBox="0 0 1200 1200" width="1200" height="1200">
  <title>emoji_u1f1f6_1f1e6</title>
  <path fill="#d3a8b5" d="M200 500H500V300H200ZM200 1000H500V800H200Z"/>
  <path fill="#ffffff" d="M0 1000H300V900H400V400H300V300H0Z"/>
  <path fill="#8d1b3d" d="M400 1000H1100V300H400Z"/>
  <path fill="#8e1c3e" d="M300 900H400V1000H500V300H400V400H300Z"/>
  <path fill="#8e1d3f" d="M300 600H400V500H500V400H300ZM300 900H500V800H400V700H300Z"/>
  <path fill="#dfbfc8" d="M300 600H400V400H300ZM300 900H400V700H300Z"/>
  <path fill="#dab5c0" d="M300 800H400V500H300Z"/>
  <path fill="#d0a1af" d="M300 700H400V600H300Z"/>
</svg>
