<?xml version="1.0" encoding="UTF-8"?>
<svg xmlns="http://www.w3.org/2000/svg" viewBox="0 0 1200 1200" width="1200" height="1200">
  <title>emoji_u1fa7a</title>
  <path fill="#03a9f4" d="M100 700H200V600H100ZM300 700H400V600H300ZM700 700H900V600H700ZM200 1100H300V700H200ZM600 1100H700V700H600ZM900 900H1000V700H900ZM300 1200H600V1100H300Z"/>
  <path fill="#bdbdbd" d="M0 600H100V200H200V100H0ZM300 200H400V600H500V100H300ZM100 700H200V600H100ZM300 700H400V600H300Z"/>
  <path fill="#424242" d="M800 1000H900V1100H1000V1000H1100V900H1000V800H900V900H800Z"/>
  <path fill="#616161" d="M0 200H200V100H0ZM300 200H500V100H300Z"/>
  <path fill="#d1d1d1" d="M900 1000H1000V900H900Z"/>
</svg>
