<?xml version="1.0" encoding="UTF-8"?>
<svg xmlns="http://www.w3.org/2000/svg" viewBox="0 0 1200 1200" width="1200" height="1200">
  <title>emoji_u1f602</title>
  <path fill="#eb8f00" d="M0 1000H100V1100H200V1200H900V1100H1000V1000H1100V300H1000V200H900V100H200V200H100V300H0Z"/>
  <path fill="#81d4fa" d="M0 1000H200V700H100V800H0ZM900 1000H1100V800H1000V700H900Z"/>
  <path fill="#29b6f6" d="M0 1000H300V600H100V900H0ZM800 1000H1100V900H1000V600H800Z"/>
  <path fill="#fde030" d="M100 1000H200V1100H900V1000H1000V900H900V700H1000V300H900V200H200V300H100V700H200V900H100Z"/>
  <path fill="#ed7770" d="M400 1000H700V800H400Z"/>
  <path fill="#422b0d" d="M300 400H400V300H300ZM700 400H800V300H700ZM200 500H300V400H200ZM800 500H900V400H800ZM300 600H400V500H300ZM700 600H800V500H700ZM200 700H300V600H200ZM400 700H500V600H400ZM600 700H700V600H600ZM800 700H900V600H800ZM300 900H400V1000H500V900H600V1000H700V900H800V800H300Z"/>
</svg>
