<?xml version="1.0" encoding="UTF-8"?>
<svg xmlns="http://www.w3.org/2000/svg" viewBox="0 0 1200 1200" width="1200" height="1200">
  <title>emoji_u1f44f_1f3fd</title>
  <path fill="#bdccd4" d="M400 200H500V100H400ZM700 300H800V100H700ZM1000 200H1100V100H1000ZM500 300H600V200H500ZM900 300H1000V200H900ZM400 400H500V300H400Z"/>
  <path fill="#9a6648" d="M300 500H400V600H500V700H800V800H900V900H800V1100H1000V1000H1100V500H1000V400H500V300H300ZM0 900H100V1000H200V1100H400V1200H600V1000H500V900H300V800H200V700H100V800H0Z"/>
  <path fill="#62392b" d="M0 700H100V900H200V1000H400V1100H500V1200H800V1100H900V1000H1000V700H900V500H800V400H700V600H600V500H500V400H400V300H300V400H200V300H100V400H0V500H100V600H0Z"/>
  <path fill="#ba8d68" d="M100 500H200V400H100ZM300 500H400V400H300ZM200 600H300V500H200ZM400 600H500V500H400ZM200 1000H400V1100H800V1000H900V700H800V500H700V600H500V700H400V800H300V900H200ZM100 700H200V600H100ZM300 700H400V600H300ZM200 800H300V700H200ZM100 900H200V800H100Z"/>
</svg>
