<?xml version="1.0" encoding="UTF-8"?>
<svg xmlns="http://www.w3.org/2000/svg" viewBox="0 0 1200 1200" width="1200" height="1200">
  <title>emoji_u1f18e</title>
  <path fill="#cc3333" d="M0 1100H100V1200H1000V1100H1100V200H1000V100H900V1000H0Z"/>
  <path fill="#f44336" d="M0 1100H1000V100H100V200H0Z"/>
  <path fill="#ff8a80" d="M200 300H300V200H200ZM100 400H200V300H100Z"/>
  <path fill="#fafafa" d="M300 500H400V400H300ZM600 900H800V800H700V700H800V600H700V500H800V400H600ZM200 900H300V700H400V900H500V500H400V600H300V500H200ZM800 600H900V500H800ZM800 800H900V700H800Z"/>
</svg>
