<?xml version="1.0" encoding="UTF-8"?>
<svg xmlns="http://www.w3.org/2000/svg" viewBox="0 0 1200 1200" width="1200" height="1200">
  <title>emoji_u1f691</title>
  <path fill="#dd0f26" d="M300 300H800V200H700V100H400V200H300Z"/>
  <path fill="#fa2b23" d="M200 400H500V200H300V300H200Z"/>
  <path fill="#ffe365" d="M0 900H200V600H0Z"/>
  <path fill="#c9c9c9" d="M300 400H1100V200H400V300H300Z"/>
  <path fill="#516c73" d="M0 1100H1100V800H0Z"/>
  <path fill="#4e433d" d="M100 1100H200V1200H400V1100H500V1000H400V900H500V800H100V900H200V1000H100ZM600 1100H700V1200H900V1100H1000V1000H900V900H1000V800H600V900H700V1000H600ZM500 1000H600V900H500Z"/>
  <path fill="#e1e1e1" d="M0 900H500V1000H600V900H1100V300H200V500H100V600H0V700H100V800H0Z"/>
  <path fill="#d70617" d="M100 800H1100V700H100Z"/>
  <path fill="#c8c8c8" d="M200 1100H400V1000H200ZM700 1100H900V1000H700Z"/>
  <path fill="#1e86fe" d="M700 500H800V600H900V500H1000V400H900V300H800V400H700Z"/>
  <path fill="#afe3fb" d="M200 600H600V300H400V400H300V500H200Z"/>
  <path fill="#557077" d="M200 600H600V500H200Z"/>
</svg>
