<?xml version="1.0" encoding="UTF-8"?>
<svg xmlns="http://www.w3.org/2000/svg" viewBox="0 0 1200 1200" width="1200" height="1200">
  <title>emoji_u1f6fc</title>
  <path fill="#f6bf26" d="M200 300H300V400H500V500H600V600H700V700H1000V500H800V400H700V300H600V200H400V100H200ZM600 200H700V100H600Z"/>
  <path fill="#ffd740" d="M100 1200H400V800H100ZM600 1200H900V800H600Z"/>
  <path fill="#81d4fa" d="M100 300H400V200H300V100H100ZM400 500H700V400H600V300H400Z"/>
  <path fill="#616161" d="M0 900H100V1000H200V900H300V1000H400V900H600V1000H700V900H800V1000H900V900H1000V800H1100V700H0ZM1000 1000H1100V900H1000ZM200 1100H300V1000H200ZM700 1100H800V1000H700Z"/>
  <path fill="#0274bb" d="M0 600H400V500H500V300H400V200H200V100H0Z"/>
  <path fill="#9ccc65" d="M0 800H400V600H300V500H0Z"/>
  <path fill="#f4511e" d="M0 600H200V700H300V800H500V600H400V500H0ZM100 800H200V700H100Z"/>
  <path fill="#039be5" d="M0 200H200V100H0ZM300 300H400V200H300ZM0 400H300V300H0ZM200 600H300V700H400V800H1100V600H1000V500H900V600H800V500H700V400H500V300H400V400H300V500H200ZM0 800H200V700H0Z"/>
  <path fill="#757575" d="M200 1100H300V1000H200ZM700 1100H800V1000H700Z"/>
  <path fill="#eeeeee" d="M400 400H500V300H400ZM500 500H600V400H500ZM600 600H700V500H600ZM700 700H800V600H700Z"/>
</svg>
