<?xml version="1.0" encoding="UTF-8"?>
<svg xmlns="http://www.w3.org/2000/svg" viewBox="0 0 1200 1200" width="1200" height="1200">
  <title>emoji_u1f469_1f3fe_200d_2764_200d_1f48b_200d_1f468_1f3ff</title>
  <path fill="#da2e75" d="M300 400H400V500H500V600H600V500H700V400H800V200H700V100H600V200H500V100H400V200H300ZM300 600H400V500H300ZM700 600H800V500H700ZM400 700H500V600H400ZM600 700H700V600H600Z"/>
  <path fill="#232020" d="M600 900H800V800H1100V500H700V600H600Z"/>
  <path fill="#423128" d="M0 900H300V1200H500V600H400V500H0Z"/>
  <path fill="#1a1717" d="M600 1100H700V1200H1000V1100H1100V800H600Z"/>
  <path fill="#3c2c23" d="M0 1100H400V1000H500V900H400V800H0Z"/>
  <path fill="#473530" d="M100 1200H400V1000H300V900H200V1000H100Z"/>
  <path fill="#70534a" d="M600 900H800V1100H900V1200H1100V1000H900V900H1100V700H700V800H600ZM600 1100H700V1000H600ZM700 1200H800V1100H700Z"/>
  <path fill="#a56c43" d="M0 1200H200V1100H300V900H400V800H0V900H200V1000H0ZM300 1200H400V1100H300Z"/>
  <path fill="#ef5592" d="M400 400H500V500H600V400H700V200H600V300H500V200H400Z"/>
</svg>
