<?xml version="1.0" encoding="UTF-8"?>
<svg xmlns="http://www.w3.org/2000/svg" viewBox="0 0 1200 1200" width="1200" height="1200">
  <title>emoji_u1f5d2</title>
  <path fill="#94d1e0" d="M200 200H300V100H200ZM400 200H500V100H400ZM600 200H700V100H600ZM800 200H900V100H800ZM100 400H1000V200H900V300H800V200H700V300H600V200H500V300H400V200H300V300H200V200H100Z"/>
  <path fill="#5292a1" d="M800 1100H1000V400H800Z"/>
  <path fill="#b9e4ea" d="M100 1200H1000V1000H900V900H1000V800H900V700H1000V600H900V500H1000V300H800V700H500V1000H100Z"/>
  <path fill="#f5f5f5" d="M100 1100H600V800H900V300H100Z"/>
  <path fill="#60c8f7" d="M100 600H900V500H100ZM100 800H900V700H100ZM100 1000H600V900H100Z"/>
  <path fill="#82aec0" d="M700 1100H900V900H800V1000H700Z"/>
  <path fill="#2f7889" d="M200 400H300V300H200ZM400 400H500V300H400ZM600 400H700V300H600ZM800 400H900V300H800Z"/>
</svg>
