<?xml version="1.0" encoding="UTF-8"?>
<svg xmlns="http://www.w3.org/2000/svg" viewBox="0 0 1200 1200" width="1200" height="1200">
  <title>emoji_u1f6e5</title>
  <path fill="#455a64" d="M800 1000H1000V900H1100V800H1000V700H800ZM1000 1100H1100V1000H1000Z"/>
  <path fill="#94d1e0" d="M0 800H1000V400H800V300H900V200H500V500H400V600H300V700H200V500H0V600H100V700H0ZM600 400V300H700V400Z"/>
  <path fill="#c9e3e6" d="M500 500H600V400H500ZM400 600H500V500H400ZM0 900H100V1000H200V1100H800V1000H900V800H1000V700H900V600H800V700H700V500H600V600H500V700H400V600H300V700H0Z"/>
  <path fill="#f44336" d="M0 900H100V1000H900V800H0Z"/>
  <path fill="#1565c0" d="M0 900H900V800H0Z"/>
  <path fill="#2f7889" d="M500 700H700V500H600V600H500ZM800 700H900V500H800Z"/>
</svg>
