<?xml version="1.0" encoding="UTF-8"?>
<svg xmlns="http://www.w3.org/2000/svg" viewBox="0 0 1200 1200" width="1200" height="1200">
  <title>emoji_u1f35d</title>
  <path fill="#dbdad8" d="M0 1100H100V1200H1000V1100H1100V800H1000V700H600V600H400V700H100V800H0Z"/>
  <path fill="#d0d0d2" d="M800 200H1000V100H800ZM300 500H400V700H600V500H700V300H800V200H500V300H300Z"/>
  <path fill="#fbc11a" d="M500 300H600V200H500ZM600 500H700V300H600ZM400 500H500V400H400ZM400 1000H700V800H600V500H500V600H400Z"/>
  <path fill="#f7df92" d="M300 400H400V300H300ZM400 500H500V400H400ZM100 1100H1000V800H600V900H500V600H400V800H100Z"/>
  <path fill="#ffa726" d="M100 900H300V1000H400V1100H600V1000H700V900H500V800H100ZM700 900H900V800H700ZM900 1000H1000V900H900ZM100 1100H200V1000H100ZM700 1100H900V1000H700Z"/>
  <path fill="#dc4e20" d="M300 900H400V1000H700V900H800V800H600V900H500V800H300Z"/>
  <path fill="#bc2a16" d="M300 900H400V800H300ZM700 900H800V800H700ZM400 1000H700V900H400Z"/>
</svg>
