<?xml version="1.0" encoding="UTF-8"?>
<svg xmlns="http://www.w3.org/2000/svg" viewBox="0 0 1200 1200" width="1200" height="1200">
  <title>emoji_u231a</title>
  <path fill="#a06841" d="M200 300H900V200H800V100H300V200H200ZM200 1100H300V1200H800V1100H900V1000H200Z"/>
  <path fill="#78909c" d="M100 400H400V200H200V300H100ZM700 400H1000V300H900V200H700ZM100 1000H200V1100H400V900H100ZM700 1100H900V1000H1000V900H700Z"/>
  <path fill="#90a4ae" d="M900 800H1000V700H1100V600H1000V500H900Z"/>
  <path fill="#d6dde1" d="M100 700H300V500H500V200H300V300H100Z"/>
  <path fill="#b0bec5" d="M100 1000H300V1100H800V1000H1000V300H800V200H300V300H400V400H200V600H100ZM100 400H200V300H100Z"/>
  <path fill="#784d30" d="M300 300H800V200H300ZM300 1100H800V1000H300Z"/>
  <path fill="#fff3e0" d="M200 900H900V400H200Z"/>
  <path fill="#ffffff" d="M300 800H800V500H300Z"/>
  <path fill="#563428" d="M600 600H700V500H600ZM500 800H600V600H500Z"/>
</svg>
