<?xml version="1.0" encoding="UTF-8"?>
<svg xmlns="http://www.w3.org/2000/svg" viewBox="0 0 1200 1200" width="1200" height="1200">
  <title>emoji_u1f938_1f3fe_200d_2640</title>
  <path fill="#a56c43" d="M600 300H700V100H600ZM500 500H600V300H500ZM0 500H200V400H0ZM200 600H300V500H200ZM300 700H400V600H300ZM700 700H800V600H700ZM500 800H600V1000H800V800H700V700H500ZM800 800H1000V700H800ZM300 1200H500V800H400V1100H300ZM1000 900H1100V800H1000Z"/>
  <path fill="#4b3930" d="M600 1200H700V1100H800V900H600Z"/>
  <path fill="#7c7c7c" d="M300 700H400V800H600V700H700V600H600V400H500V500H400V600H300Z"/>
  <path fill="#583ee2" d="M400 900H500V800H700V700H800V600H500V700H400Z"/>
</svg>
