<?xml version="1.0" encoding="UTF-8"?>
<svg xmlns="http://www.w3.org/2000/svg" viewBox="0 0 1200 1200" width="1200" height="1200">
  <title>emoji_u1f3f4_e0067_e0062_e0077_e006c_e0073_e007f</title>
  <path fill="#00a838" d="M100 1000H400V800H100Z"/>
  <path fill="#00aa39" d="M200 900H300V1000H500V800H200Z"/>
  <path fill="#f8f5f6" d="M600 500H900V300H600Z"/>
  <path fill="#fefefe" d="M300 500H600V300H300Z"/>
  <path fill="#ffffff" d="M0 700H200V600H300V500H800V700H1100V300H800V400H700V300H500V400H400V300H0Z"/>
  <path fill="#00ab39" d="M0 1000H200V900H400V1000H1100V600H800V800H300V600H0Z"/>
  <path fill="#80d59c" d="M0 700H200V500H100V600H0ZM800 800H900V700H1100V600H900V500H800Z"/>
  <path fill="#128d33" d="M200 900H400V700H200Z"/>
  <path fill="#1c8532" d="M500 900H800V700H500Z"/>
  <path fill="#20752e" d="M300 900H600V700H300Z"/>
  <path fill="#34612c" d="M600 800H700V900H900V700H600Z"/>
  <path fill="#50532d" d="M400 800H500V900H600V800H700V700H400Z"/>
  <path fill="#505b30" d="M700 800H800V900H900V700H700Z"/>
  <path fill="#65452d" d="M200 800H300V900H400V800H500V700H200Z"/>
  <path fill="#7fd59c" d="M100 700H200V800H300V500H100Z"/>
  <path fill="#a43c4f" d="M200 600H500V400H200Z"/>
  <path fill="#b15b6b" d="M300 600H600V400H400V500H300Z"/>
  <path fill="#b6818b" d="M400 600H700V400H500V500H400Z"/>
  <path fill="#b95a6b" d="M500 600H800V400H600V500H500Z"/>
  <path fill="#c18590" d="M600 600H900V400H700V500H600Z"/>
  <path fill="#d3c2c5" d="M100 600H400V500H300V400H200V500H100Z"/>
  <path fill="#e9d7da" d="M700 600H900V500H1000V400H800V500H700Z"/>
  <path fill="#f7f5f5" d="M100 600H200V700H300V500H100Z"/>
  <path fill="#fdfcfc" d="M900 500H1000V400H900ZM800 600H900V500H800Z"/>
  <path fill="#178e34" d="M200 800H400V600H200Z"/>
  <path fill="#387333" d="M700 800H900V600H700Z"/>
  <path fill="#4f4c2b" d="M400 800H700V600H400Z"/>
  <path fill="#6d402d" d="M600 800H800V700H900V600H600Z"/>
  <path fill="#72352b" d="M200 700H300V800H500V600H200Z"/>
  <path fill="#787e5e" d="M700 700H900V500H700Z"/>
  <path fill="#8a6c5e" d="M200 700H400V500H200Z"/>
  <path fill="#8e1d29" d="M500 700H600V800H700V700H800V600H500Z"/>
  <path fill="#962137" d="M300 700H600V500H300Z"/>
  <path fill="#a00c28" d="M400 700H700V500H500V600H400Z"/>
  <path fill="#a61b2e" d="M300 700H400V800H500V700H600V600H300Z"/>
  <path fill="#ae1e39" d="M500 700H800V500H600V600H500Z"/>
  <path fill="#b47581" d="M700 700H800V600H900V500H700Z"/>
  <path fill="#b86c7a" d="M200 600H300V700H500V600H400V500H200Z"/>
  <path fill="#c18a94" d="M600 700H800V500H700V600H600Z"/>
  <path fill="#cb9fa7" d="M200 600H300V500H200ZM300 700H400V600H300Z"/>
  <path fill="#9c1e35" d="M300 700H500V600H300Z"/>
  <path fill="#9d0c27" d="M400 700H700V600H400Z"/>
  <path fill="#9f0d28" d="M400 700H500V600H400Z"/>
  <path fill="#ae112e" d="M600 700H800V600H600Z"/>
  <path fill="#bc344d" d="M700 700H800V600H700Z"/>
</svg>
