<?xml version="1.0" encoding="UTF-8"?>
<svg xmlns="http://www.w3.org/2000/svg" viewBox="0 0 1200 1200" width="1200" height="1200">
  <title>emoji_u1f339</title>
  <path fill="#5c9823" d="M300 1000H400V1100H500V900H600V1100H700V1000H800V1100H900V900H800V800H400V900H300ZM200 1100H300V1000H200Z"/>
  <path fill="#307d31" d="M500 900H600V1200H700V900H800V800H500Z"/>
  <path fill="#f71538" d="M300 400H700V300H900V100H300Z"/>
  <path fill="#db132c" d="M700 400H1000V200H900V100H800V200H700Z"/>
  <path fill="#cd0e1f" d="M600 900H800V800H900V700H1000V500H900V400H1000V300H700V400H600Z"/>
  <path fill="#e2122d" d="M200 700H300V800H400V900H700V500H600V400H500V300H200V400H300V500H200Z"/>
  <path fill="#96010c" d="M200 400H400V500H500V600H600V900H700V500H800V400H1000V300H800V200H600V300H400V200H500V100H300V200H200Z"/>
  <path fill="#af0c1b" d="M800 200H900V100H800ZM700 400H800V200H700ZM400 400H500V500H700V400H600V300H400Z"/>
</svg>
