<?xml version="1.0" encoding="UTF-8"?>
<svg xmlns="http://www.w3.org/2000/svg" viewBox="0 0 1200 1200" width="1200" height="1200">
  <title>emoji_u1f924</title>
  <path fill="#eb8f00" d="M0 1000H100V1100H200V1200H900V1100H1000V1000H1100V300H1000V200H900V100H200V200H100V300H0Z"/>
  <path fill="#27aff4" d="M500 1100H700V1200H800V1100H900V700H600V800H500Z"/>
  <path fill="#fde030" d="M100 1000H200V1100H700V1000H800V1100H900V1000H1000V300H900V200H200V300H100ZM600 1000V900H700V800H800V900H700V1000Z"/>
  <path fill="#422b0d" d="M200 300H400V200H200ZM700 300H900V200H700ZM300 500H500V400H300ZM600 500H800V400H600ZM300 800H400V700H300ZM700 800H800V700H700ZM400 900H700V800H400ZM700 1000H800V900H700Z"/>
  <path fill="#81d4fa" d="M700 1000H800V900H700Z"/>
</svg>
