<?xml version="1.0" encoding="UTF-8"?>
<svg xmlns="http://www.w3.org/2000/svg" viewBox="0 0 1200 1200" width="1200" height="1200">
  <title>emoji_u1f1e7_1f1ee</title>
  <path fill="#ce1126" d="M200 500H900V300H200ZM200 1000H900V800H200Z"/>
  <path fill="#daf1de" d="M0 500H200V300H0ZM900 500H1100V300H900ZM0 1000H200V800H0ZM900 1000H1100V800H900Z"/>
  <path fill="#24b73f" d="M0 600H200V300H100V400H0ZM900 600H1100V400H1000V300H900ZM0 900H100V1000H200V700H0ZM900 1000H1000V900H1100V700H900Z"/>
  <path fill="#d11f32" d="M100 500H400V400H300V300H100ZM700 500H1000V300H800V400H700ZM100 1000H300V900H400V800H100ZM700 900H800V1000H1000V800H700Z"/>
  <path fill="#eb9da5" d="M100 500H300V400H200V300H100ZM800 500H1000V300H900V400H800ZM100 1000H200V900H300V800H100ZM800 900H900V1000H1000V800H800Z"/>
  <path fill="#1eb53a" d="M0 800H100V900H300V800H400V500H300V400H100V500H0ZM700 800H800V900H1000V800H1100V500H1000V400H800V500H700Z"/>
  <path fill="#8fda9d" d="M100 500H200V600H300V400H100ZM800 600H900V500H1000V400H800ZM100 900H300V700H200V800H100ZM800 900H1000V800H900V700H800Z"/>
  <path fill="#dd5b6a" d="M200 600H500V400H200ZM600 600H900V400H600ZM200 900H500V700H200ZM600 900H900V700H600Z"/>
  <path fill="#f4e4e3" d="M200 600H400V500H300V400H200ZM700 600H900V400H800V500H700ZM200 900H300V800H400V700H200ZM700 800H800V900H900V700H700Z"/>
  <path fill="#d73a4c" d="M300 600H800V500H700V400H400V500H300ZM300 800H400V900H600V700H300Z"/>
  <path fill="#e47e89" d="M400 600H700V500H600V400H500V500H400ZM400 800H500V900H700V700H400Z"/>
  <path fill="#d63a4c" d="M500 800H600V900H700V800H800V700H500Z"/>
  <path fill="#43c15b" d="M200 800H400V500H200V600H300V700H200ZM700 800H900V700H800V600H900V500H700Z"/>
  <path fill="#cdefd3" d="M300 800H500V500H300ZM600 800H800V500H600Z"/>
  <path fill="#ebdad6" d="M300 700H400V800H700V700H800V600H300Z"/>
  <path fill="#fefbfc" d="M300 700H800V600H700V500H400V600H300Z"/>
  <path fill="#d9bdb3" d="M400 700H700V600H600V500H500V600H400Z"/>
  <path fill="#fefffe" d="M400 700H500V800H600V700H700V600H400Z"/>
  <path fill="#6dcf7f" d="M300 700H500V600H300ZM600 700H800V600H600Z"/>
  <path fill="#ede0db" d="M400 700H500V600H400ZM600 700H700V600H600Z"/>
</svg>
