<?xml version="1.0" encoding="UTF-8"?>
<svg xmlns="http://www.w3.org/2000/svg" viewBox="0 0 1200 1200" width="1200" height="1200">
  <title>emoji_u1f1e8_1f1f0</title>
  <path fill="#934770" d="M0 500H200V300H0Z"/>
  <path fill="#02267e" d="M800 500H1100V300H800Z"/>
  <path fill="#03277f" d="M600 500H900V300H600Z"/>
  <path fill="#082b81" d="M600 1000H900V800H600Z"/>
  <path fill="#0d3084" d="M700 900H800V1000H1000V800H700Z"/>
  <path fill="#0f3185" d="M700 500H1000V400H900V300H800V400H700Z"/>
  <path fill="#123486" d="M900 900H1100V600H900Z"/>
  <path fill="#203f8d" d="M900 700H1100V400H900Z"/>
  <path fill="#2d4b94" d="M900 800H1000V700H1100V600H1000V500H900Z"/>
  <path fill="#3c3075" d="M400 500H700V300H400Z"/>
  <path fill="#575b97" d="M200 500H500V300H200Z"/>
  <path fill="#61346e" d="M0 800H200V500H0Z"/>
  <path fill="#613e77" d="M0 500H300V300H100V400H0Z"/>
  <path fill="#826895" d="M0 600H100V700H200V400H0Z"/>
  <path fill="#97486f" d="M300 500H600V400H500V300H400V400H300Z"/>
  <path fill="#9e466b" d="M100 500H400V400H300V300H200V400H100Z"/>
  <path fill="#b74e6b" d="M0 500H100V600H200V400H0Z"/>
  <path fill="#00247d" d="M0 1000H700V900H900V1000H1100V800H1000V500H1100V300H1000V400H700V300H600V400H500V500H600V600H100V700H0Z"/>
  <path fill="#0d2d81" d="M100 700H300V500H100Z"/>
  <path fill="#0d2f84" d="M600 900H800V700H600Z"/>
  <path fill="#143587" d="M900 800H1000V500H900Z"/>
  <path fill="#22418e" d="M500 600H800V400H500Z"/>
  <path fill="#2a4893" d="M800 500H900V600H1000V400H800Z"/>
  <path fill="#2f4c95" d="M800 900H1000V700H900V800H800Z"/>
  <path fill="#3d599c" d="M700 900H1000V800H800V700H700Z"/>
  <path fill="#455fa0" d="M600 600H800V500H900V400H700V500H600Z"/>
  <path fill="#4862a2" d="M800 500H1000V400H800ZM700 600H800V500H700Z"/>
  <path fill="#4b64a3" d="M900 500H1000V400H900Z"/>
  <path fill="#5b3974" d="M400 600H700V500H600V400H400Z"/>
  <path fill="#5c73ac" d="M600 800H700V900H800V700H600Z"/>
  <path fill="#c76c83" d="M100 600H200V700H300V400H100Z"/>
  <path fill="#c8556c" d="M300 600H600V500H500V400H300Z"/>
  <path fill="#d63c4f" d="M100 500H200V600H400V400H100Z"/>
  <path fill="#d95365" d="M100 500H200V400H100ZM200 600H300V500H200Z"/>
  <path fill="#dc5768" d="M200 600H500V500H400V400H300V500H200Z"/>
  <path fill="#405b9e" d="M500 700H600V800H800V700H700V600H500ZM900 900H1000V800H900Z"/>
  <path fill="#01257d" d="M600 700H700V600H800V500H600ZM700 800H800V700H700Z"/>
  <path fill="#31438b" d="M400 700H700V500H400Z"/>
  <path fill="#4a63a3" d="M500 700H700V500H600V600H500Z"/>
  <path fill="#4e3474" d="M200 700H400V500H200Z"/>
  <path fill="#b2829f" d="M200 600H300V700H500V500H200Z"/>
  <path fill="#be6d86" d="M300 700H600V600H500V500H400V600H300Z"/>
  <path fill="#bf5670" d="M200 600H300V500H200ZM300 700H400V600H300Z"/>
  <path fill="#1b3888" d="M300 700H500V600H300Z"/>
  <path fill="#342972" d="M400 700H700V600H400Z"/>
  <path fill="#39377d" d="M400 700H500V600H400Z"/>
  <path fill="#415c9e" d="M600 700H700V600H600Z"/>
</svg>
