<?xml version="1.0" encoding="UTF-8"?>
<svg xmlns="http://www.w3.org/2000/svg" viewBox="0 0 1200 1200" width="1200" height="1200">
  <title>emoji_u1f4bc</title>
  <path fill="#603c24" d="M0 1200H1100V900H900V1000H200V900H0Z"/>
  <path fill="#a65f3e" d="M0 500H1100V300H800V100H300V300H0ZM400 300V200H700V300Z"/>
  <path fill="#a06841" d="M0 800H100V900H500V600H300V500H200V400H100V300H0ZM600 900H1000V800H1100V300H1000V400H900V500H800V600H600Z"/>
  <path fill="#3e2723" d="M100 600H200V500H100ZM900 600H1000V500H900ZM0 900H100V1000H500V700H400V800H200V700H100V600H0ZM200 700H300V600H200ZM800 700H900V600H800ZM600 1000H1000V900H1100V600H1000V700H900V800H700V700H600Z"/>
  <path fill="#7a442c" d="M300 300H400V200H300ZM700 300H800V200H700ZM0 1000H100V1100H1000V1000H1100V700H1000V800H900V900H700V700H900V600H1000V400H100V600H200V700H400V900H200V800H100V700H0Z"/>
  <path fill="#e6a467" d="M400 900H700V600H400Z"/>
  <path fill="#fff59d" d="M500 800H600V700H500Z"/>
</svg>
