<?xml version="1.0" encoding="UTF-8"?>
<svg xmlns="http://www.w3.org/2000/svg" viewBox="0 0 1200 1200" width="1200" height="1200">
  <title>emoji_u1f455</title>
  <path fill="#01579b" d="M300 300H800V100H300Z"/>
  <path fill="#0288d1" d="M400 300H700V200H600V100H500V200H400Z"/>
  <path fill="#29b6f6" d="M200 300H300V400H800V300H900V100H700V200H400V100H200ZM0 800H100V700H200V400H0ZM900 700H1000V800H1100V400H900Z"/>
  <path fill="#b7e4ea" d="M0 500H100V700H200V600H300V1100H800V600H900V700H1000V500H1100V300H1000V200H900V100H800V200H700V300H400V200H300V100H200V200H100V300H0Z"/>
</svg>
