<?xml version="1.0" encoding="UTF-8"?>
<svg xmlns="http://www.w3.org/2000/svg" viewBox="0 0 1200 1200" width="1200" height="1200">
  <title>emoji_u1f38b</title>
  <path fill="#80d114" d="M800 500H900V600H1000V300H1100V200H900V300H800ZM100 700H200V800H300V700H400V500H300V600H200V500H100ZM700 600H800V500H700ZM700 800H800V900H900V1000H1000V800H900V700H700ZM300 900H400V800H300ZM600 900H700V800H600ZM200 1000H300V900H200ZM700 1000H800V900H700ZM100 1100H200V1000H100Z"/>
  <path fill="#52c2f3" d="M900 1100H1000V900H900Z"/>
  <path fill="#ffd61c" d="M600 900H700V800H600ZM700 1100H800V900H700Z"/>
  <path fill="#ffb0da" d="M900 600H1000V400H900Z"/>
  <path fill="#7cb23f" d="M300 900H400V1200H600V900H700V800H600V500H700V400H600V100H400V400H300V700H400V800H300Z"/>
  <path fill="#6a9a18" d="M200 400H300V300H200ZM300 600H400V500H700V400H300ZM700 600H800V500H700ZM300 900H700V800H300Z"/>
  <path fill="#ff2622" d="M300 700H400V500H300Z"/>
</svg>
