<?xml version="1.0" encoding="UTF-8"?>
<svg xmlns="http://www.w3.org/2000/svg" viewBox="0 0 1200 1200" width="1200" height="1200">
  <title>emoji_u2618</title>
  <path fill="#65a21b" d="M300 300H400V400H700V300H800V100H600V200H500V100H300ZM0 900H200V800H300V500H200V400H0V600H100V700H0ZM800 800H900V900H1100V700H1000V600H1100V400H900V500H800ZM400 700H500V600H400ZM600 700H700V600H600ZM500 1100H600V700H500ZM200 1200H500V1100H200Z"/>
  <path fill="#8bc02b" d="M300 400H400V500H500V600H600V500H700V400H800V200H600V300H500V200H300ZM100 900H300V800H400V700H500V600H400V500H300V400H100V600H200V700H100ZM600 700H700V800H800V900H1000V700H900V600H1000V400H800V500H700V600H600Z"/>
  <path fill="#bbd046" d="M400 400H500V300H400ZM600 400H700V300H600ZM500 500H600V400H500ZM200 600H300V500H200ZM800 600H900V500H800ZM300 700H400V600H300ZM700 700H800V600H700ZM200 800H300V700H200ZM800 800H900V700H800Z"/>
</svg>
