<?xml version="1.0" encoding="UTF-8"?>
<svg xmlns="http://www.w3.org/2000/svg" viewBox="0 0 1200 1200" width="1200" height="1200">
  <title>emoji_u1f1fd_1f1f0</title>
  <path fill="#244aa5" d="M0 1000H1100V300H0Z"/>
  <path fill="#3f60b0" d="M200 600H400V400H200ZM700 600H900V400H700Z"/>
  <path fill="#4f6eb7" d="M200 600H500V400H300V500H200ZM600 600H900V500H800V400H600Z"/>
  <path fill="#3a569a" d="M300 800H400V900H600V700H300Z"/>
  <path fill="#4969b4" d="M400 600H700V400H400Z"/>
  <path fill="#4e6cb6" d="M300 600H600V500H500V400H400V500H300Z"/>
  <path fill="#4e6db6" d="M500 600H800V500H700V400H600V500H500Z"/>
  <path fill="#7d7a79" d="M400 800H500V900H700V700H400Z"/>
  <path fill="#3c5799" d="M500 800H600V900H700V800H800V500H500Z"/>
  <path fill="#274ca6" d="M200 600H300V700H500V500H200ZM600 700H800V600H900V500H700V600H600Z"/>
  <path fill="#3155aa" d="M200 600H300V500H200ZM800 600H900V500H800ZM300 700H400V600H300ZM700 700H800V600H700Z"/>
  <path fill="#2a4da2" d="M300 700H600V500H400V600H300Z"/>
  <path fill="#31519f" d="M300 800H500V600H300Z"/>
  <path fill="#646c85" d="M600 800H800V600H600Z"/>
  <path fill="#8e8371" d="M400 700H700V600H600V500H500V600H400Z"/>
  <path fill="#b5985d" d="M300 700H400V800H600V600H300Z"/>
  <path fill="#cea551" d="M500 800H700V700H800V600H500Z"/>
  <path fill="#d0a650" d="M400 700H500V800H600V700H700V600H400Z"/>
  <path fill="#475d94" d="M300 700H500V600H300Z"/>
  <path fill="#4c5f91" d="M600 700H800V600H600Z"/>
  <path fill="#a99163" d="M400 700H500V600H400Z"/>
  <path fill="#b8995c" d="M600 700H700V600H600Z"/>
</svg>
