<?xml version="1.0" encoding="UTF-8"?>
<svg xmlns="http://www.w3.org/2000/svg" viewBox="0 0 1200 1200" width="1200" height="1200">
  <title>emoji_u1f309</title>
  <path fill="#0c3d86" d="M0 300H1100V100H0Z"/>
  <path fill="#4f838f" d="M200 1200H900V1000H200Z"/>
  <path fill="#024fac" d="M0 1200H300V1100H500V900H0ZM600 1100H800V1200H1100V900H600Z"/>
  <path fill="#184880" d="M0 400H1100V200H0Z"/>
  <path fill="#1d4c7d" d="M0 500H1100V300H900V200H800V300H600V200H500V300H200V200H100V300H0Z"/>
  <path fill="#37646f" d="M0 900H500V600H0ZM600 900H1100V600H600Z"/>
  <path fill="#2e5c73" d="M0 700H100V800H300V700H400V800H700V700H800V800H1000V700H1100V500H0Z"/>
  <path fill="#a42718" d="M0 1000H400V1100H700V1000H1100V800H1000V700H800V800H700V700H800V600H900V500H600V700H500V500H200V600H300V700H400V800H300V700H100V800H0Z"/>
  <path fill="#2a5876" d="M0 600H400V700H500V600H600V700H700V600H1100V400H0Z"/>
  <path fill="#23527a" d="M0 500H400V600H500V500H600V600H700V500H1100V400H400V300H300V400H0Z"/>
  <path fill="#fe5314" d="M0 900H1100V800H700V500H600V800H500V500H400V800H0ZM400 1100H700V1000H400Z"/>
  <path fill="#79aec0" d="M500 1100H600V1000H500Z"/>
  <path fill="#ffbb23" d="M100 300H200V200H100ZM500 300H600V200H500ZM800 300H900V200H800ZM300 400H400V300H300ZM100 500H200V400H100ZM900 500H1000V400H900Z"/>
</svg>
