<?xml version="1.0" encoding="UTF-8"?>
<svg xmlns="http://www.w3.org/2000/svg" viewBox="0 0 1200 1200" width="1200" height="1200">
  <title>emoji_u1f432</title>
  <path fill="#af0c1a" d="M0 1100H200V1200H400V700H200V500H100V600H0V800H100V900H300V1000H0Z"/>
  <path fill="#63c776" d="M100 700H600V600H900V400H500V500H300V400H200V500H100Z"/>
  <path fill="#f9f9fc" d="M100 900H200V800H300V700H100ZM300 1100H500V800H300ZM100 1100H200V1000H100ZM200 1200H300V1100H200Z"/>
  <path fill="#bcce45" d="M300 200H400V100H300ZM400 300H500V200H400ZM100 700H400V600H300V400H400V300H200V600H100Z"/>
  <path fill="#fdb20d" d="M600 700H900V600H1000V500H1100V400H1000V300H900V400H800V500H600Z"/>
  <path fill="#73dc86" d="M600 1000H700V1100H800V1200H1100V1000H1000V900H1100V700H1000V600H1100V400H900V500H800V600H700V500H600Z"/>
  <path fill="#9cecac" d="M200 1200H600V1100H900V1000H800V900H700V800H800V700H700V600H300V900H400V1000H300V1100H200Z"/>
  <path fill="#06aa46" d="M100 800H300V900H400V1000H300V1100H600V1000H800V900H700V800H600V900H500V800H600V700H700V500H500V600H100ZM400 800V700H500V800ZM700 800H800V700H700Z"/>
  <path fill="#bdcd43" d="M400 700H500V800H600V700H700V600H400Z"/>
  <path fill="#272c34" d="M500 800H600V700H500Z"/>
</svg>
