<?xml version="1.0" encoding="UTF-8"?>
<svg xmlns="http://www.w3.org/2000/svg" viewBox="0 0 1200 1200" width="1200" height="1200">
  <title>emoji_u1f469_1f3fc_200d_1f37c</title>
  <path fill="#c7c7c7" d="M600 1200H1000V1000H600Z"/>
  <path fill="#4b0fce" d="M200 800H700V900H900V700H800V600H700V500H300V600H200ZM100 1200H600V1000H300V900H100ZM800 1100H900V1200H1000V1000H800Z"/>
  <path fill="#624ae4" d="M300 600H400V500H300ZM100 1000H200V1100H300V900H500V600H400V700H300V600H200V800H100ZM700 1100H1000V900H900V800H800V700H700Z"/>
  <path fill="#ab872f" d="M200 500H300V600H400V500H600V600H700V500H800V200H700V100H300V200H200Z"/>
  <path fill="#e0bb95" d="M300 600H400V700H600V600H700V400H600V300H400V400H300ZM600 900H800V700H600ZM400 1100H500V1200H700V1000H400Z"/>
  <path fill="#a87254" d="M400 800H600V1000H500V1100H600V1200H700V1100H800V800H700V700H600V600H400Z"/>
  <path fill="#aac887" d="M200 1100H600V900H200Z"/>
  <path fill="#e0e0e0" d="M500 1100H900V1000H800V900H700V800H600V900H500Z"/>
  <path fill="#9a9a9a" d="M400 1000H500V1100H600V1000H700V800H400ZM700 1100H800V1000H700Z"/>
  <path fill="#c6e1a5" d="M200 1000H500V900H600V800H500V700H400V800H200Z"/>
  <path fill="#fffde7" d="M400 900H700V700H400Z"/>
  <path fill="#6dcbe0" d="M400 900H600V800H500V700H400Z"/>
  <path fill="#fdfefa" d="M400 900H500V800H400Z"/>
</svg>
