<?xml version="1.0" encoding="UTF-8"?>
<svg xmlns="http://www.w3.org/2000/svg" viewBox="0 0 1200 1200" width="1200" height="1200">
  <title>emoji_u1f35f</title>
  <path fill="#dc0d25" d="M700 1200H900V1100H1000V600H700Z"/>
  <path fill="#fbde93" d="M100 800H200V900H700V800H800V700H1000V200H900V100H800V200H700V300H600V400H500V200H400V100H300V200H200V400H100Z"/>
  <path fill="#ff2a23" d="M200 1200H800V800H200Z"/>
  <path fill="#fd703f" d="M100 1100H200V1200H300V900H800V700H600V800H500V700H400V800H300V600H200V700H100Z"/>
  <path fill="#f7b315" d="M200 700H300V500H400V200H300V400H200ZM700 400H800V200H700ZM500 700H600V400H500ZM800 700H900V400H800ZM400 800H500V700H400ZM600 800H800V700H600Z"/>
</svg>
