<?xml version="1.0" encoding="UTF-8"?>
<svg xmlns="http://www.w3.org/2000/svg" viewBox="0 0 1200 1200" width="1200" height="1200">
  <title>emoji_u1f97b</title>
  <path fill="#ffca28" d="M200 1200H900V900H1100V700H800V1000H200Z"/>
  <path fill="#ff7555" d="M0 400H100V500H200V300H400V400H700V200H400V100H200V200H100V300H0ZM800 600H1000V400H1100V300H800Z"/>
  <path fill="#ffa996" d="M100 500H200V600H300V400H600V300H500V200H300V300H100ZM900 400H1100V300H1000V200H900Z"/>
  <path fill="#e2a610" d="M200 1100H300V1200H400V1100H500V1200H600V1100H700V1200H800V1100H900V1000H200Z"/>
  <path fill="#c62828" d="M100 400H200V600H400V500H500V300H400V200H300V100H200V200H100ZM800 500H900V400H1000V200H900V100H800Z"/>
  <path fill="#29b3a6" d="M200 1000H400V900H600V300H400V400H300V500H200Z"/>
  <path fill="#26a69a" d="M300 1100H900V800H1000V500H700V700H500V800H400V900H300Z"/>
  <path fill="#ffe36c" d="M200 1100H400V1000H500V900H600V800H800V600H900V100H700V200H600V300H400V400H500V500H400V700H500V800H300V900H200ZM300 500H400V400H300ZM200 600H300V500H200ZM200 800H300V700H200Z"/>
  <path fill="#00796b" d="M700 400H800V300H700ZM800 600H900V800H1100V600H1000V500H900V400H800ZM600 600H700V500H600ZM500 700H600V600H500ZM600 800H700V1000H800V600H700V700H600ZM500 900H600V800H500ZM200 1100H400V1000H500V900H300V1000H200Z"/>
  <path fill="#80ddd2" d="M800 200H900V100H800ZM600 400H800V200H700V300H600ZM400 600H500V700H600V600H700V500H600V400H500V500H400Z"/>
</svg>
