<?xml version="1.0" encoding="UTF-8"?>
<svg xmlns="http://www.w3.org/2000/svg" viewBox="0 0 1200 1200" width="1200" height="1200">
  <title>emoji_u1f3c5</title>
  <path fill="#176cc7" d="M500 500H600V600H700V500H800V400H900V300H1000V100H700V200H600V300H500Z"/>
  <path fill="#2e9df4" d="M100 300H200V400H300V500H400V600H700V400H600V300H500V200H400V100H100Z"/>
  <path fill="#f8932a" d="M200 1000H300V1100H400V1200H700V1100H800V1000H900V700H800V600H700V500H400V600H300V700H200Z"/>
  <path fill="#fefffa" d="M300 900H400V800H500V700H600V600H400V700H300Z"/>
  <path fill="#fcc11a" d="M500 700H600V800H700V1000H800V700H700V600H500ZM400 800H500V700H400ZM300 1000H400V800H300ZM400 1100H700V1000H600V900H500V1000H400Z"/>
</svg>
