<?xml version="1.0" encoding="UTF-8"?>
<svg xmlns="http://www.w3.org/2000/svg" viewBox="0 0 1200 1200" width="1200" height="1200">
  <title>emoji_u1f92b</title>
  <path fill="#eb8f00" d="M0 1000H100V1100H200V1200H900V1100H1000V1000H1100V300H1000V200H900V100H200V200H100V300H0Z"/>
  <path fill="#fcdd2f" d="M100 1000H200V1100H400V1000H300V900H400V600H500V500H600V600H700V700H800V900H900V1000H1000V300H900V200H200V300H100ZM500 700H600V600H500ZM400 1000H500V900H400ZM700 1000H800V900H700ZM800 1100H900V1000H800Z"/>
  <path fill="#ffcc16" d="M300 1100H700V1000H600V900H700V800H600V600H500V900H400V1000H300ZM700 1000H800V900H700ZM800 1100H900V1000H800Z"/>
  <path fill="#422b0d" d="M300 500H400V300H300ZM700 500H800V300H700ZM200 700H300V600H200ZM800 700H900V600H800ZM300 800H400V700H300Z"/>
</svg>
