<?xml version="1.0" encoding="UTF-8"?>
<svg xmlns="http://www.w3.org/2000/svg" viewBox="0 0 1200 1200" width="1200" height="1200">
  <title>emoji_u1f3f7</title>
  <path fill="#d1762c" d="M500 1100H600V1200H700V1100H800V1000H900V900H1000V800H1100V700H1000V600H900V700H800V800H700V900H600V1000H500Z"/>
  <path fill="#74a5b7" d="M100 200H400V100H100ZM0 500H100V200H0ZM300 400H400V500H500V600H600V300H500V200H400V300H300ZM100 600H200V700H500V600H400V500H300V400H200V500H100Z"/>
  <path fill="#f19534" d="M200 800H300V900H400V1000H500V1100H700V900H600V800H500V700H400V600H300V400H400V300H200Z"/>
  <path fill="#ffd595" d="M300 400H400V300H300ZM300 800H400V900H500V1000H600V1100H700V1000H800V900H900V800H1000V600H900V500H800V400H700V300H500V600H300Z"/>
  <path fill="#82aec0" d="M500 600H600V400H500ZM300 700H500V600H300Z"/>
</svg>
