<?xml version="1.0" encoding="UTF-8"?>
<svg xmlns="http://www.w3.org/2000/svg" viewBox="0 0 1200 1200" width="1200" height="1200">
  <title>emoji_u2653</title>
  <path fill="#c2185b" d="M300 1100H400V1200H700V1100H900V1000H1000V800H1100V500H1000V400H900V700H800V900H600V1000H300Z"/>
  <path fill="#e57197" d="M0 600H400V500H500V400H600V100H400V200H200V300H100V500H0Z"/>
  <path fill="#ec407a" d="M0 800H100V1000H200V1100H700V1000H900V800H1000V300H900V200H700V100H400V200H500V300H400V400H300V500H0ZM100 400H300V200H200V300H100Z"/>
  <path fill="#f3d5df" d="M200 400H300V300H200ZM300 500H400V400H300Z"/>
  <path fill="#fafafa" d="M800 400H900V300H800ZM200 700H300V900H400V700H700V900H800V700H900V600H800V400H700V600H400V400H300V600H200ZM200 1000H300V900H200ZM800 1000H900V900H800Z"/>
</svg>
