<?xml version="1.0" encoding="UTF-8"?>
<svg xmlns="http://www.w3.org/2000/svg" viewBox="0 0 1200 1200" width="1200" height="1200">
  <title>emoji_u1f472_1f3fc</title>
  <path fill="#f37f21" d="M100 1200H1100V1100H1000V1000H900V900H300V1000H200V1100H100Z"/>
  <path fill="#ab872f" d="M200 900H300V1000H400V800H500V500H200ZM700 800H800V1000H900V900H1000V500H700Z"/>
  <path fill="#da3330" d="M300 1200H500V1100H400V1000H500V900H300ZM700 1200H900V900H700V1000H800V1100H700ZM500 1100H700V1000H500Z"/>
  <path fill="#eb3e34" d="M200 500H500V400H700V500H1000V300H900V200H800V100H400V200H300V300H200Z"/>
  <path fill="#f17822" d="M300 500H900V400H800V300H700V100H500V300H400V400H300Z"/>
  <path fill="#525151" d="M200 600H400V700H800V600H1000V400H200Z"/>
  <path fill="#e0bb95" d="M300 1000H500V1100H700V1000H900V700H800V600H400V700H300Z"/>
  <path fill="#da6727" d="M500 1100H700V1000H500Z"/>
  <path fill="#5d4037" d="M400 900H500V700H400ZM700 900H800V700H700Z"/>
  <path fill="#ffd800" d="M500 500H700V400H500Z"/>
</svg>
