<?xml version="1.0" encoding="UTF-8"?>
<svg xmlns="http://www.w3.org/2000/svg" viewBox="0 0 1200 1200" width="1200" height="1200">
  <title>emoji_u1f50d</title>
  <path fill="#424242" d="M800 1100H900V1200H1000V1100H1100V1000H1000V900H900V1000H800Z"/>
  <path fill="#616161" d="M0 700H100V800H200V900H500V800H600V900H700V1000H800V1100H1000V900H900V800H800V700H700V500H500V600H400V700H300V600H200V500H0Z"/>
  <path fill="#e4e4e4" d="M0 500H200V400H300V100H200V200H100V300H0ZM400 800H500V700H600V600H700V400H500V500H400ZM600 800H700V700H600Z"/>
  <path fill="#bdbdbd" d="M200 300H400V400H500V600H600V500H700V300H600V200H500V100H200ZM0 600H100V700H200V800H500V600H300V500H200V300H100V400H0ZM600 900H700V800H800V700H600Z"/>
  <path fill="#e5f6ff" d="M100 500H300V700H500V600H600V400H500V200H200V300H100Z"/>
  <path fill="#b4e6fc" d="M200 300H300V200H200ZM100 600H200V700H400V600H500V500H600V300H500V200H400V300H300V400H200V300H100Z"/>
</svg>
