<?xml version="1.0" encoding="UTF-8"?>
<svg xmlns="http://www.w3.org/2000/svg" viewBox="0 0 1200 1200" width="1200" height="1200">
  <title>emoji_u1f596_1f3fe</title>
  <path fill="#824624" d="M0 700H100V900H200V1100H300V1200H400V800H300V600H200V500H400V700H700V900H1000V800H1100V700H1000V300H900V200H800V100H600V300H500V200H400V100H200V300H0Z"/>
  <path fill="#422319" d="M100 700H400V600H500V200H400V100H300V400H200V300H100ZM600 700H900V600H1000V300H900V400H800V200H700V300H600ZM300 1200H900V1100H1000V1000H1100V700H900V900H800V1000H300Z"/>
  <path fill="#a56c43" d="M100 700H200V900H300V1100H900V1000H1000V700H900V800H800V700H900V400H800V600H700V300H600V600H500V500H400V200H300V600H200V400H100ZM700 300H800V200H700Z"/>
</svg>
