<?xml version="1.0" encoding="UTF-8"?>
<svg xmlns="http://www.w3.org/2000/svg" viewBox="0 0 1200 1200" width="1200" height="1200">
  <title>emoji_u1f3f8</title>
  <path fill="#b9ced4" d="M700 200H800V300H900V200H1000V100H700ZM600 600H700V700H1000V600H1100V200H1000V300H900V400H1000V500H900V600H800V500H700V400H800V300H700V200H600ZM800 500H900V400H800Z"/>
  <path fill="#62666a" d="M700 700H800V1200H900V700H1000V600H700Z"/>
  <path fill="#e1e1e1" d="M400 900H500V800H600V700H500V600H400Z"/>
  <path fill="#05bef2" d="M700 200H1000V100H700ZM600 600H700V200H600ZM1000 600H1100V200H1000ZM700 700H1000V600H700ZM800 1000H900V800H800Z"/>
  <path fill="#e1f7fe" d="M0 900H100V1000H300V900H500V600H300V500H100V600H0V700H100V800H0Z"/>
  <path fill="#fd1b0d" d="M300 900H500V600H300V700H400V800H300Z"/>
  <path fill="#aae2f9" d="M0 700H400V600H0ZM0 900H400V800H0Z"/>
</svg>
