<?xml version="1.0" encoding="UTF-8"?>
<svg xmlns="http://www.w3.org/2000/svg" viewBox="0 0 1200 1200" width="1200" height="1200">
  <title>emoji_u1f4ff</title>
  <path fill="#ffca28" d="M600 900H700V1000H800V1200H1000V1100H1100V900H900V700H700V800H600Z"/>
  <path fill="#e2a610" d="M800 1000H900V900H800ZM900 1200H1100V1000H900Z"/>
  <path fill="#874d36" d="M100 400H200V500H300V300H400V400H500V300H600V400H800V600H700V800H900V700H1000V600H900V400H1000V300H900V200H700V100H600V200H500V100H400V200H100ZM0 500H100V400H0ZM0 700H100V800H200V700H300V600H200V500H100V600H0ZM200 900H300V1000H400V900H500V1000H600V900H700V800H600V700H500V800H400V700H300V800H200Z"/>
  <path fill="#ff7759" d="M100 400H200V300H500V100H400V200H300V100H200V200H100ZM600 400H700V300H800V200H700V100H600ZM800 500H900V400H1000V300H800ZM0 700H200V500H100V600H0ZM700 800H800V700H900V600H700ZM200 900H400V700H300V800H200ZM500 900H600V700H500Z"/>
  <path fill="#d1593f" d="M600 200H700V100H600ZM200 300H300V200H200ZM400 300H500V200H400ZM700 300H800V200H700ZM100 400H200V300H100ZM600 400H700V300H600ZM900 400H1000V300H900ZM800 500H900V400H800ZM100 700H200V600H100ZM800 700H900V600H800ZM700 800H800V700H700ZM300 900H400V800H300ZM500 900H600V800H500Z"/>
</svg>
