<?xml version="1.0" encoding="UTF-8"?>
<svg xmlns="http://www.w3.org/2000/svg" viewBox="0 0 1200 1200" width="1200" height="1200">
  <title>emoji_u1f9dd_1f3fe</title>
  <path fill="#fb5000" d="M100 1200H500V1000H400V800H200V900H100ZM600 1200H1000V900H900V800H700V1000H600Z"/>
  <path fill="#7a4c32" d="M0 500H100V600H200V700H300V300H200V400H100V300H0ZM800 700H900V600H1000V500H1100V300H1000V400H900V300H800ZM400 1000H700V700H400Z"/>
  <path fill="#faf9f9" d="M200 700H400V400H700V700H900V200H800V100H300V200H200Z"/>
  <path fill="#ffccbc" d="M200 1100H400V1200H700V1100H900V1000H800V900H900V800H800V700H700V800H600V1000H500V800H400V700H300V800H200V900H300V1000H200Z"/>
  <path fill="#97b4c2" d="M200 300H300V200H200ZM800 300H900V200H800ZM200 500H300V600H400V500H700V600H800V500H900V400H800V300H300V400H200Z"/>
  <path fill="#bb2019" d="M300 900H400V1100H500V1200H600V1100H700V900H800V700H600V900H500V700H300Z"/>
  <path fill="#a56c43" d="M200 700H300V800H400V900H500V800H600V900H700V800H800V700H900V600H800V400H600V300H500V400H300V600H200Z"/>
  <path fill="#f57c00" d="M500 800H600V700H500ZM400 900H500V800H400ZM600 900H700V800H600ZM500 1000H600V900H500Z"/>
  <path fill="#473530" d="M500 800H600V700H500Z"/>
  <path fill="#fd6400" d="M500 400H600V300H500ZM400 500H500V400H400ZM600 500H700V400H600Z"/>
  <path fill="#42312c" d="M400 600H500V400H400ZM600 600H700V400H600Z"/>
</svg>
