<?xml version="1.0" encoding="UTF-8"?>
<svg xmlns="http://www.w3.org/2000/svg" viewBox="0 0 1200 1200" width="1200" height="1200">
  <title>emoji_u1f6f9</title>
  <path fill="#ff7555" d="M600 800H700V900H1000V600H600ZM200 1000H300V1100H600V800H200Z"/>
  <path fill="#ddb98c" d="M0 800H100V900H200V1000H300V900H400V1000H500V900H600V800H700V700H800V800H900V700H1000V600H1100V400H1000V300H900V200H800V500H600V600H500V700H200V600H0Z"/>
  <path fill="#424242" d="M0 700H100V800H200V900H300V800H600V700H700V600H1000V400H900V200H700V300H500V400H300V500H100V600H0Z"/>
  <path fill="#757575" d="M700 300H800V200H700ZM600 400H700V300H600ZM800 400H900V300H800ZM300 500H400V400H300ZM500 500H600V400H500ZM700 500H800V400H700ZM900 500H1000V400H900ZM200 600H300V500H200ZM400 600H500V500H400ZM600 600H700V500H600ZM800 600H900V500H800ZM100 700H200V600H100ZM300 700H400V600H300ZM500 700H600V600H500ZM200 800H300V700H200ZM400 800H500V700H400Z"/>
  <path fill="#c62828" d="M800 800H900V700H800ZM400 1000H500V900H400Z"/>
</svg>
