<?xml version="1.0" encoding="UTF-8"?>
<svg xmlns="http://www.w3.org/2000/svg" viewBox="0 0 1200 1200" width="1200" height="1200">
  <title>emoji_u1f4bb</title>
  <path fill="#b7d5e5" d="M100 300H1000V100H100ZM0 1200H1100V800H1000V600H800V800H300V600H100V800H0Z"/>
  <path fill="#2f7889" d="M100 700H200V800H900V700H1000V200H800V500H300V100H200V200H100ZM0 1200H1100V1100H1000V1000H800V1100H300V1000H100V1100H0Z"/>
  <path fill="#eeeeee" d="M200 300H500V200H400V100H200ZM100 1100H300V1000H400V900H700V1000H800V1100H1000V800H900V700H200V800H100Z"/>
  <path fill="#395c64" d="M200 600H400V500H600V400H800V200H200Z"/>
  <path fill="#3d4f53" d="M200 600H700V500H900V200H700V300H500V400H300V500H200Z"/>
  <path fill="#424242" d="M400 600H900V300H800V400H600V500H400Z"/>
  <path fill="#a2c2d0" d="M300 800H400V700H300ZM500 800H600V700H500ZM700 800H800V700H700ZM200 900H300V800H200ZM400 900H500V800H400ZM600 900H700V800H600ZM800 900H900V800H800Z"/>
</svg>
