<?xml version="1.0" encoding="UTF-8"?>
<svg xmlns="http://www.w3.org/2000/svg" viewBox="0 0 1200 1200" width="1200" height="1200">
  <title>emoji_u1f488</title>
  <path fill="#a1d2d6" d="M200 1000H500V300H200V400H300V900H200ZM600 1000H900V900H800V400H900V300H600Z"/>
  <path fill="#858585" d="M200 400H900V200H800V100H300V200H200ZM200 1100H300V1200H800V1100H900V900H200Z"/>
  <path fill="#c8c8c8" d="M200 400H400V500H700V400H900V300H500V200H800V100H300V300H200ZM200 1000H900V900H700V800H400V900H200ZM300 1200H500V1100H300ZM700 1200H800V1100H700Z"/>
  <path fill="#ffffff" d="M300 300H500V100H400V200H300ZM400 900H700V400H400Z"/>
  <path fill="#1d86fa" d="M500 600H600V500H500ZM400 700H500V600H400ZM400 900H600V800H700V600H600V700H500V800H400Z"/>
  <path fill="#d80d1a" d="M400 700H500V600H600V500H700V400H500V500H400Z"/>
</svg>
