<?xml version="1.0" encoding="UTF-8"?>
<svg xmlns="http://www.w3.org/2000/svg" viewBox="0 0 1200 1200" width="1200" height="1200">
  <title>emoji_u1f9c0</title>
  <path fill="#ffe265" d="M0 800H400V700H1100V200H1000V100H700V200H500V400H400V300H300V400H100V500H0Z"/>
  <path fill="#feb502" d="M0 1200H500V1100H1100V800H1000V700H1100V500H1000V600H500V500H400V600H300V700H0Z"/>
  <path fill="#ff8b0d" d="M700 400H900V200H800V300H700ZM300 700H500V500H300ZM900 800H1000V600H900ZM500 900H700V700H600V800H500ZM100 1100H200V900H100Z"/>
  <path fill="#ed6b31" d="M300 600H500V500H300ZM900 700H1000V600H900ZM600 800H700V700H600ZM500 900H600V800H500ZM100 1000H200V900H100Z"/>
</svg>
