<?xml version="1.0" encoding="UTF-8"?>
<svg xmlns="http://www.w3.org/2000/svg" viewBox="0 0 1200 1200" width="1200" height="1200">
  <title>emoji_u1f9f2</title>
  <path fill="#c62828" d="M300 700H400V600H500V500H800V300H400V400H300ZM0 1000H100V1100H200V1200H800V1000H300V900H200V700H0Z"/>
  <path fill="#82aec0" d="M600 400H700V500H1100V300H600ZM600 1100H700V1200H1100V1000H600Z"/>
  <path fill="#e0e0e0" d="M600 400H1100V100H600ZM600 1100H1100V800H600Z"/>
  <path fill="#f44336" d="M0 800H100V1000H200V1100H700V800H500V700H400V500H500V400H700V100H200V200H100V300H0Z"/>
</svg>
