<?xml version="1.0" encoding="UTF-8"?>
<svg xmlns="http://www.w3.org/2000/svg" viewBox="0 0 1200 1200" width="1200" height="1200">
  <title>emoji_u1f37e</title>
  <path fill="#cd844f" d="M0 300H100V400H200V300H300V200H200V100H100V200H0ZM300 400H400V300H300ZM200 500H300V400H200Z"/>
  <path fill="#f6af41" d="M400 800H500V1000H700V700H600V600H400Z"/>
  <path fill="#fee465" d="M400 200H500V100H400ZM600 300H700V200H600ZM200 500H300V600H500V400H400V300H300V400H200ZM100 600H200V500H100Z"/>
  <path fill="#f2a259" d="M0 300H200V100H100V200H0Z"/>
  <path fill="#317c31" d="M300 600H400V700H500V800H600V900H500V1000H600V1100H700V1200H800V1100H900V1000H1000V900H1100V800H1000V700H900V600H700V500H500V400H400V500H300Z"/>
  <path fill="#485020" d="M400 600H500V500H400ZM500 800H600V900H900V700H800V600H700V500H600V600H500ZM500 1000H600V900H500ZM600 1100H700V1000H600ZM700 1200H800V1100H700Z"/>
  <path fill="#f7c876" d="M500 800H700V500H600V600H500ZM700 900H800V800H700Z"/>
  <path fill="#f5b03e" d="M700 900H800V1000H900V900H1000V700H800V800H700Z"/>
</svg>
