<?xml version="1.0" encoding="UTF-8"?>
<svg xmlns="http://www.w3.org/2000/svg" viewBox="0 0 1200 1200" width="1200" height="1200">
  <title>emoji_u1fad4</title>
  <path fill="#f4b13a" d="M100 800H300V900H400V1100H600V1000H700V900H800V800H900V700H1000V600H1100V500H1000V400H900V300H800V200H700V100H600V200H500V300H400V400H300V500H200V600H100Z"/>
  <path fill="#cc701f" d="M300 600H400V700H500V800H600V900H800V700H900V600H700V500H600V300H500V400H300ZM0 1000H100V1100H200V1200H400V1100H500V800H400V700H100V800H0Z"/>
  <path fill="#fff6ad" d="M500 600H600V700H900V600H800V500H700V400H600V300H500ZM300 600H400V500H300ZM100 800H300V900H400V1100H500V1000H600V900H500V800H400V700H300V600H200V700H100ZM400 700H500V600H400ZM500 800H600V700H500ZM0 1000H100V800H0ZM600 900H700V800H600ZM200 1000H300V900H200ZM100 1100H200V1000H100ZM200 1200H400V1100H200Z"/>
  <path fill="#fbdf96" d="M600 300H700V200H600ZM500 400H600V300H500ZM700 400H800V300H700ZM600 500H700V400H600ZM800 500H900V400H800ZM300 600H400V500H300ZM700 600H800V500H700ZM900 600H1000V500H900ZM200 700H300V600H200ZM800 700H900V600H800ZM300 800H400V700H300ZM400 900H500V800H400ZM600 900H700V800H600ZM500 1000H600V900H500Z"/>
  <path fill="#fee942" d="M200 1000H300V900H200Z"/>
</svg>
