<?xml version="1.0" encoding="UTF-8"?>
<svg xmlns="http://www.w3.org/2000/svg" viewBox="0 0 1200 1200" width="1200" height="1200">
  <title>emoji_u269c</title>
  <path fill="#f79226" d="M0 800H100V900H200V1000H100V1200H200V1100H300V900H400V1100H500V1200H600V1100H700V900H800V1100H900V1200H1000V1000H900V700H700V400H800V300H300V400H400V700H300V600H200V500H100V600H0Z"/>
  <path fill="#ffc516" d="M100 900H200V1000H300V800H800V1000H900V900H1000V800H1100V600H1000V500H900V600H800V700H700V600H600V400H800V300H700V200H600V100H500V200H400V300H300V400H500V700H300V600H200V800H100ZM100 600H200V500H100ZM0 800H100V600H0ZM500 1100H700V900H500ZM100 1100H200V1000H100ZM900 1100H1000V1000H900Z"/>
  <path fill="#ffeda8" d="M400 400H500V300H400ZM100 600H200V500H100ZM900 600H1000V500H900ZM0 700H100V600H0ZM800 700H900V600H800ZM300 800H800V700H300Z"/>
</svg>
