<?xml version="1.0" encoding="UTF-8"?>
<svg xmlns="http://www.w3.org/2000/svg" viewBox="0 0 1200 1200" width="1200" height="1200">
  <title>emoji_u1f1f2_1f1fb</title>
  <path fill="#d21034" d="M0 1000H1100V300H0Z"/>
  <path fill="#9e2b35" d="M100 600H1000V400H100ZM100 900H1000V700H100Z"/>
  <path fill="#ae2335" d="M100 900H200V800H300V500H200V400H100ZM800 800H900V900H1000V400H900V500H800Z"/>
  <path fill="#c91534" d="M100 500H200V400H100ZM900 500H1000V400H900ZM200 600H300V500H200ZM800 600H900V500H800ZM200 800H300V700H200ZM800 800H900V700H800ZM100 900H200V800H100ZM900 900H1000V800H900Z"/>
  <path fill="#027f3b" d="M500 800H800V500H500Z"/>
  <path fill="#04803d" d="M300 800H600V500H300Z"/>
  <path fill="#47a270" d="M400 700H500V800H600V700H700V600H600V500H500V600H400Z"/>
  <path fill="#007e3a" d="M200 800H400V700H700V800H900V500H700V600H400V500H200Z"/>
  <path fill="#399b66" d="M400 700H600V600H400Z"/>
  <path fill="#3c9c68" d="M500 700H600V600H500Z"/>
</svg>
