<?xml version="1.0" encoding="UTF-8"?>
<svg xmlns="http://www.w3.org/2000/svg" viewBox="0 0 1200 1200" width="1200" height="1200">
  <title>emoji_u1f698</title>
  <path fill="#4e433c" d="M200 1100H300V1000H400V900H200ZM800 1000H900V1100H1000V900H800Z"/>
  <path fill="#ff2a23" d="M100 900H200V1000H1000V900H1100V800H900V700H1100V500H1000V300H900V200H300V300H200V500H100V700H300V800H100Z"/>
  <path fill="#d70617" d="M100 900H500V700H400V600H100ZM700 900H1100V600H800V700H700Z"/>
  <path fill="#ff6b5d" d="M100 900H1100V800H800V700H400V800H100Z"/>
  <path fill="#fffeff" d="M200 700H400V500H300V600H200ZM800 700H1000V600H900V500H800Z"/>
  <path fill="#afe3fb" d="M300 600H900V300H300Z"/>
  <path fill="#474c4f" d="M300 700H400V600H300ZM800 700H900V600H800ZM400 800H500V900H700V800H800V700H400Z"/>
  <path fill="#96c8eb" d="M300 600H900V500H800V400H700V500H500V400H400V500H300Z"/>
  <path fill="#feeccb" d="M300 700H400V600H500V500H300ZM700 600H800V700H900V500H700Z"/>
  <path fill="#547078" d="M300 600H900V500H300Z"/>
</svg>
