<?xml version="1.0" encoding="UTF-8"?>
<svg xmlns="http://www.w3.org/2000/svg" viewBox="0 0 1200 1200" width="1200" height="1200">
  <title>emoji_u26d3_200d_1f4a5</title>
  <path fill="#bdbdbd" d="M100 200H200V100H100ZM400 300H500V100H400ZM200 300H300V200H200ZM500 400H600V300H500ZM100 500H300V400H100ZM800 700H900V600H800ZM900 800H1100V700H900ZM800 900H900V800H800ZM700 1100H800V900H700ZM900 1000H1000V900H900Z"/>
  <path fill="#a8e3f0" d="M500 500H600V600H700V200H600V300H500ZM0 1100H100V1200H200V800H0Z"/>
  <path fill="#84b0c1" d="M600 600H700V700H900V600H1000V500H1100V200H1000V100H700V200H600ZM700 500V300H900V500ZM0 900H100V1200H400V1100H500V1000H600V800H500V700H400V600H200V700H100V800H0ZM200 1000V800H400V1000Z"/>
  <path fill="#2f7889" d="M600 500H700V400H600ZM700 700H800V500H700ZM300 800H400V600H300ZM400 900H600V800H400Z"/>
</svg>
