<?xml version="1.0" encoding="UTF-8"?>
<svg xmlns="http://www.w3.org/2000/svg" viewBox="0 0 1200 1200" width="1200" height="1200">
  <title>emoji_u1fae9</title>
  <path fill="#eb8f00" d="M0 1000H100V1100H200V1200H900V1100H1000V1000H1100V300H1000V200H900V100H200V200H100V300H0Z"/>
  <path fill="#fde030" d="M100 1000H200V1100H900V1000H1000V300H900V200H200V300H100ZM200 800V700H400V800ZM700 800V700H900V800Z"/>
  <path fill="#422b0d" d="M200 400H500V300H200ZM600 400H900V300H600ZM200 700H500V500H200ZM600 700H900V500H600ZM400 1000H700V900H400Z"/>
  <path fill="#ffffff" d="M200 700H500V500H400V600H300V500H200ZM600 700H900V500H800V600H700V500H600Z"/>
</svg>
