<?xml version="1.0" encoding="UTF-8"?>
<svg xmlns="http://www.w3.org/2000/svg" viewBox="0 0 1200 1200" width="1200" height="1200">
  <title>emoji_u1f636_200d_1f32b</title>
  <path fill="#b2daf1" d="M200 200H300V100H200ZM0 300H100V200H0ZM0 600H200V500H700V200H600V300H400V200H300V300H100V400H0ZM500 1200H700V1000H1000V900H1100V700H900V800H600V900H500ZM1000 1100H1100V1000H1000Z"/>
  <path fill="#eb8f00" d="M0 900H200V400H100V500H0ZM900 900H1000V800H1100V400H900Z"/>
  <path fill="#ddeff7" d="M600 500H900V600H1000V500H1100V300H1000V200H900V300H700V100H600ZM800 200H900V100H800ZM0 900H100V1000H200V1100H500V1200H700V1100H600V1000H700V900H400V800H200V700H100V800H0ZM100 1200H200V1100H100Z"/>
  <path fill="#fde030" d="M100 900H300V1000H700V900H1000V400H700V300H600V400H400V300H300V400H100Z"/>
  <path fill="#422b0d" d="M300 700H400V500H300ZM700 700H800V500H700Z"/>
</svg>
