<?xml version="1.0" encoding="UTF-8"?>
<svg xmlns="http://www.w3.org/2000/svg" viewBox="0 0 1200 1200" width="1200" height="1200">
  <title>emoji_u1f4fa</title>
  <path fill="#82aec0" d="M0 1100H1100V300H800V200H700V300H400V200H300V300H0Z"/>
  <path fill="#455a64" d="M200 200H300V100H200ZM800 200H900V100H800ZM300 300H400V200H300ZM700 300H800V200H700ZM700 1000H1000V900H900V800H1000V500H900V600H800V500H900V400H700ZM800 800V700H900V800Z"/>
  <path fill="#b9e4ea" d="M100 1000H800V800H100Z"/>
  <path fill="#212121" d="M100 900H800V400H100Z"/>
  <path fill="#2f7889" d="M200 800H700V500H200Z"/>
</svg>
