<?xml version="1.0" encoding="UTF-8"?>
<svg xmlns="http://www.w3.org/2000/svg" viewBox="0 0 1200 1200" width="1200" height="1200">
  <title>emoji_u1f327</title>
  <path fill="#afe6f8" d="M200 800H300V1000H400V900H500V700H200ZM0 1100H100V1000H200V800H100V900H0ZM900 1100H1000V1000H1100V800H1000V900H900ZM500 1200H600V1100H700V900H600V1000H500Z"/>
  <path fill="#4fc2f7" d="M100 1000H200V800H400V900H500V800H600V600H300V700H100ZM900 800H1000V700H900ZM1000 1000H1100V800H1000ZM300 1000H400V900H300ZM600 1100H700V900H600ZM0 1100H100V1000H0ZM900 1100H1000V1000H900ZM500 1200H600V1100H500Z"/>
  <path fill="#b9ced3" d="M0 700H100V800H400V700H500V800H1000V700H1100V500H0Z"/>
  <path fill="#e2ebee" d="M0 600H100V700H300V600H500V700H700V600H900V700H1000V600H1100V500H1000V300H900V200H800V100H500V200H400V300H200V400H100V500H0Z"/>
</svg>
