<?xml version="1.0" encoding="UTF-8"?>
<svg xmlns="http://www.w3.org/2000/svg" viewBox="0 0 1200 1200" width="1200" height="1200">
  <title>emoji_u26f5</title>
  <path fill="#ff7043" d="M200 700H400V800H500V100H400V200H300V400H200Z"/>
  <path fill="#ffab91" d="M200 600H400V700H500V200H400V300H300V400H400V500H200Z"/>
  <path fill="#b9e4ea" d="M0 1100H100V1200H1000V1100H1100V900H800V800H200V900H0Z"/>
  <path fill="#f4511e" d="M400 800H500V700H900V500H800V400H700V300H600V200H500V100H400Z"/>
  <path fill="#37474f" d="M300 900H800V800H500V700H400V800H300Z"/>
  <path fill="#82aec0" d="M400 800H500V600H600V500H500V400H600V300H500V100H400ZM200 900H400V800H200ZM500 900H600V800H500ZM700 900H800V800H700Z"/>
  <path fill="#bf360c" d="M500 400H700V300H500ZM500 600H900V500H500ZM0 1100H1100V1000H0Z"/>
</svg>
