<?xml version="1.0" encoding="UTF-8"?>
<svg xmlns="http://www.w3.org/2000/svg" viewBox="0 0 1200 1200" width="1200" height="1200">
  <title>emoji_u1f1f0_1f1ea</title>
  <path fill="#000000" d="M0 600H500V500H600V600H1100V300H0Z"/>
  <path fill="#006600" d="M0 1000H1100V700H600V800H500V700H0Z"/>
  <path fill="#bf5959" d="M0 700H500V400H400V500H0ZM600 700H1100V500H700V400H600Z"/>
  <path fill="#bf6459" d="M0 800H400V900H500V600H0ZM600 900H700V800H1100V600H600Z"/>
  <path fill="#bb0000" d="M0 700H400V800H500V500H400V600H0ZM600 800H700V700H1100V600H700V500H600Z"/>
  <path fill="#126e10" d="M400 900H700V700H400Z"/>
  <path fill="#3a3838" d="M400 600H700V400H400Z"/>
  <path fill="#5a1d1d" d="M400 600H700V500H600V400H500V500H400Z"/>
  <path fill="#5a561d" d="M400 800H500V900H600V800H700V700H400Z"/>
  <path fill="#ab4a43" d="M400 800H700V600H400Z"/>
  <path fill="#ad4444" d="M400 700H700V500H400Z"/>
  <path fill="#d15252" d="M400 700H500V800H600V700H700V600H600V500H500V600H400Z"/>
  <path fill="#6d0000" d="M400 700H700V600H400Z"/>
  <path fill="#c93232" d="M500 700H600V600H500Z"/>
</svg>
