<?xml version="1.0" encoding="UTF-8"?>
<svg xmlns="http://www.w3.org/2000/svg" viewBox="0 0 1200 1200" width="1200" height="1200">
  <title>emoji_u1faf7_1f3fe</title>
  <path fill="#422319" d="M0 1000H100V1100H200V1200H1100V1000H300V900H400V500H300V300H400V100H200V200H100V600H0Z"/>
  <path fill="#824624" d="M100 1000H200V1100H1100V700H800V800H500V500H400V100H300V200H200V600H300V800H200V600H100Z"/>
  <path fill="#a56c43" d="M200 500H300V300H200ZM200 1000H1100V800H800V900H500V800H400V500H300V800H200ZM100 800H200V600H100Z"/>
</svg>
