<?xml version="1.0" encoding="UTF-8"?>
<svg xmlns="http://www.w3.org/2000/svg" viewBox="0 0 1200 1200" width="1200" height="1200">
  <title>emoji_u1fa87</title>
  <path fill="#b0bec5" d="M500 200H600V100H500ZM600 300H700V200H600ZM500 600H600V400H500ZM0 1000H100V900H0ZM100 1100H200V1000H100ZM1000 1100H1100V1000H1000ZM900 1200H1000V1100H900Z"/>
  <path fill="#e6a467" d="M200 800H300V1000H500V800H400V600H200ZM600 1200H800V1000H900V800H700V1000H600Z"/>
  <path fill="#ffcc80" d="M300 1000H400V800H300ZM600 1200H700V1000H600Z"/>
  <path fill="#7cb342" d="M0 500H100V600H200V700H400V600H300V500H400V200H300V100H100V200H0ZM700 900H900V800H1000V700H1100V400H1000V300H800V400H700V700H800V800H700Z"/>
  <path fill="#784d30" d="M0 300H400V200H0ZM700 500H1100V400H700ZM200 700H400V600H200ZM700 900H900V800H700Z"/>
  <path fill="#f4511e" d="M0 500H400V400H0ZM700 700H1100V600H700Z"/>
  <path fill="#ffd600" d="M0 500H100V400H0ZM200 500H300V400H200ZM700 700H800V600H700ZM900 700H1000V600H900Z"/>
  <path fill="#a65f3e" d="M0 300H100V200H0ZM800 500H900V400H800Z"/>
</svg>
