<?xml version="1.0" encoding="UTF-8"?>
<svg xmlns="http://www.w3.org/2000/svg" viewBox="0 0 1200 1200" width="1200" height="1200">
  <title>emoji_u1f365</title>
  <path fill="#afafaf" d="M0 1000H100V1100H200V1200H900V1100H1000V1000H1100V300H1000V200H900V100H200V200H100V300H0Z"/>
  <path fill="#e2e2e2" d="M100 1000H200V1100H900V1000H1000V300H900V200H200V300H100Z"/>
  <path fill="#ef7ead" d="M200 1000H900V300H200Z"/>
  <path fill="#feffff" d="M200 400H300V300H200ZM300 900H800V500H900V300H400V400H300ZM400 800V500H500V400H800V500H500V700H600V600H700V800ZM200 1000H300V900H200ZM800 1000H900V900H800Z"/>
</svg>
