<?xml version="1.0" encoding="UTF-8"?>
<svg xmlns="http://www.w3.org/2000/svg" viewBox="0 0 1200 1200" width="1200" height="1200">
  <title>emoji_u1f1e6_1f1fa</title>
  <path fill="#a93160" d="M0 500H200V300H0Z"/>
  <path fill="#01018b" d="M600 500H900V300H600Z"/>
  <path fill="#03038d" d="M100 1000H400V800H100Z"/>
  <path fill="#0c0c91" d="M700 1000H1000V800H700Z"/>
  <path fill="#0e0e91" d="M700 500H1000V300H800V400H700Z"/>
  <path fill="#461176" d="M400 500H700V300H400Z"/>
  <path fill="#5c429b" d="M200 500H500V300H200Z"/>
  <path fill="#6f2372" d="M0 500H300V300H100V400H0Z"/>
  <path fill="#711967" d="M0 800H200V500H0Z"/>
  <path fill="#8d5392" d="M0 600H100V700H200V400H0Z"/>
  <path fill="#ae335f" d="M300 500H600V400H500V300H400V400H300Z"/>
  <path fill="#b73259" d="M100 500H400V400H300V300H200V400H100Z"/>
  <path fill="#d43c53" d="M0 500H100V600H200V400H0Z"/>
  <path fill="#03038c" d="M600 1000H800V900H900V700H600ZM200 900H300V1000H500V800H200Z"/>
  <path fill="#00008b" d="M0 1000H200V900H400V1000H800V900H900V1000H1100V300H900V400H700V300H600V400H500V600H100V700H0ZM700 900V800H800V900Z"/>
  <path fill="#02028c" d="M600 600H800V500H900V400H700V500H600Z"/>
  <path fill="#0e0a8e" d="M100 700H200V800H300V500H100Z"/>
  <path fill="#2e2ea0" d="M200 900H400V700H200Z"/>
  <path fill="#3333a2" d="M800 500H900V400H800ZM700 600H800V500H700ZM900 600H1000V500H900Z"/>
  <path fill="#3535a3" d="M800 900H900V800H800Z"/>
  <path fill="#4343aa" d="M900 600H1000V500H900ZM800 700H900V600H800Z"/>
  <path fill="#6a1e6f" d="M400 600H700V500H600V400H400Z"/>
  <path fill="#9d9dd2" d="M200 900H300V800H400V700H200Z"/>
  <path fill="#df5d6f" d="M100 600H200V700H300V400H100Z"/>
  <path fill="#e64452" d="M300 600H600V500H500V400H300Z"/>
  <path fill="#fb4446" d="M100 500H200V600H300V400H100Z"/>
  <path fill="#fe2b2c" d="M200 600H400V400H200Z"/>
  <path fill="#fe4949" d="M200 600H500V500H400V400H300V500H200Z"/>
  <path fill="#05058d" d="M600 700H900V600H800V500H600Z"/>
  <path fill="#141494" d="M500 700H800V600H700V500H500Z"/>
  <path fill="#151594" d="M200 800H400V700H500V600H200Z"/>
  <path fill="#161695" d="M700 700H900V600H700Z"/>
  <path fill="#332594" d="M400 700H700V600H600V500H400Z"/>
  <path fill="#4545ab" d="M200 800H300V700H400V600H200Z"/>
  <path fill="#5a1872" d="M200 700H400V500H200Z"/>
  <path fill="#c07395" d="M200 600H300V700H500V500H200Z"/>
  <path fill="#d55d74" d="M300 700H600V600H500V500H400V600H300Z"/>
  <path fill="#dc4558" d="M200 600H300V500H200ZM300 700H400V600H300Z"/>
  <path fill="#09098f" d="M600 700H800V600H600Z"/>
  <path fill="#1b1894" d="M300 700H500V600H300Z"/>
  <path fill="#21219a" d="M500 700H700V600H500Z"/>
  <path fill="#3d0a74" d="M400 700H600V600H400Z"/>
  <path fill="#411981" d="M400 700H500V600H400Z"/>
</svg>
