<?xml version="1.0" encoding="UTF-8"?>
<svg xmlns="http://www.w3.org/2000/svg" viewBox="0 0 1200 1200" width="1200" height="1200">
  <title>emoji_u1f9e8</title>
  <path fill="#d8a26d" d="M400 200H600V100H400ZM200 500H500V400H400V200H300V400H200ZM600 300H700V200H600ZM700 400H800V300H700Z"/>
  <path fill="#fd8e02" d="M700 400H800V500H900V400H1000V300H900V200H800V300H700Z"/>
  <path fill="#fcba03" d="M700 400H900V300H700Z"/>
  <path fill="#ca1837" d="M300 1200H500V1100H600V500H300Z"/>
  <path fill="#de7f14" d="M300 700H400V600H600V500H500V400H300ZM300 1200H400V1100H600V1000H400V900H300Z"/>
  <path fill="#fe180a" d="M100 1100H200V1200H400V500H500V400H200V500H100Z"/>
  <path fill="#fdb700" d="M100 600H400V500H100ZM100 1100H400V1000H100Z"/>
  <path fill="#ffe268" d="M800 400H900V300H800Z"/>
</svg>
