<?xml version="1.0" encoding="UTF-8"?>
<svg xmlns="http://www.w3.org/2000/svg" viewBox="0 0 1200 1200" width="1200" height="1200">
  <title>emoji_u1f468_1f3fb_200d_2696</title>
  <path fill="#995f33" d="M0 800H100V1000H300V900H200V800H300V700H0Z"/>
  <path fill="#dd8a3e" d="M300 600H400V500H300ZM0 800H300V600H0ZM300 900H400V800H300ZM100 1000H200V1100H300V900H100Z"/>
  <path fill="#312d2d" d="M300 600H500V500H600V400H700V500H800V600H1000V200H900V100H400V200H300Z"/>
  <path fill="#545454" d="M200 1200H1100V900H1000V800H900V700H700V800H600V700H400V800H300V900H200Z"/>
  <path fill="#666666" d="M300 1200H400V1100H900V1200H1000V900H900V1000H700V900H600V1000H400V900H300Z"/>
  <path fill="#edbd82" d="M300 600H400V800H500V900H600V1000H700V900H800V800H900V600H1000V500H900V400H800V600H500V400H400V500H300Z"/>
  <path fill="#f9ddbd" d="M400 800H500V700H800V800H900V400H800V300H500V400H400Z"/>
  <path fill="#efefef" d="M400 800H500V700H400ZM800 800H900V700H800ZM500 900H600V800H500ZM700 900H800V800H700ZM600 1000H700V900H600Z"/>
  <path fill="#454140" d="M500 600H600V400H500ZM700 600H800V400H700Z"/>
</svg>
