<?xml version="1.0" encoding="UTF-8"?>
<svg xmlns="http://www.w3.org/2000/svg" viewBox="0 0 1200 1200" width="1200" height="1200">
  <title>emoji_u1f469_1f3fc_200d_1f91d_200d_1f469_1f3fb</title>
  <path fill="#424242" d="M0 1200H200V1000H100V1100H0ZM300 1200H500V1100H400V1000H300ZM600 1200H800V1000H700V1100H600ZM900 1200H1100V1100H1000V1000H900Z"/>
  <path fill="#312d2d" d="M700 400H900V500H1100V300H1000V100H700Z"/>
  <path fill="#ab872f" d="M100 400H300V500H500V300H400V100H100Z"/>
  <path fill="#7c7c7c" d="M0 800H100V1100H200V900H300V1100H400V700H500V600H0ZM600 700H700V1100H800V900H900V1100H1000V800H1100V600H600Z"/>
  <path fill="#e0bb95" d="M0 800H100V700H200V500H300V700H500V400H400V300H300V200H200V300H100V400H0ZM600 700H700V600H600ZM500 800H600V700H500Z"/>
  <path fill="#f9ddbd" d="M600 700H800V500H900V700H1000V800H1100V400H1000V300H900V200H800V300H700V400H600Z"/>
  <path fill="#5d17f6" d="M0 500H100V700H400V500H500V400H0Z"/>
  <path fill="#9e00ed" d="M600 500H700V700H1000V500H1100V400H600Z"/>
  <path fill="#c48e6a" d="M200 500H300V400H200Z"/>
  <path fill="#edc391" d="M800 500H900V400H800Z"/>
</svg>
