<?xml version="1.0" encoding="UTF-8"?>
<svg xmlns="http://www.w3.org/2000/svg" viewBox="0 0 1200 1200" width="1200" height="1200">
  <title>emoji_u1f693</title>
  <path fill="#1064cb" d="M300 300H500V400H600V200H300Z"/>
  <path fill="#dc0d27" d="M500 400H600V300H800V200H500Z"/>
  <path fill="#c3ccc7" d="M400 500H700V400H600V200H500V400H400Z"/>
  <path fill="#fda431" d="M0 1000H200V700H0Z"/>
  <path fill="#ff2a23" d="M900 1000H1100V700H900Z"/>
  <path fill="#4e433d" d="M0 1100H200V1200H300V1100H500V900H400V800H100V900H0ZM600 1100H800V1200H900V1100H1100V900H1000V800H700V900H600Z"/>
  <path fill="#e3e3e1" d="M0 800H100V900H1000V800H1100V700H1000V600H900V500H800V400H400V500H300V600H200V700H0Z"/>
  <path fill="#474c4f" d="M0 1100H100V1000H200V900H300V1000H400V1100H700V1000H800V900H900V1000H1000V1100H1100V900H1000V800H100V900H0ZM200 1100H300V1000H200ZM800 1100H900V1000H800Z"/>
  <path fill="#c8c8c8" d="M200 1100H300V1000H200ZM800 1100H900V1000H800Z"/>
  <path fill="#e3e4de" d="M500 1000H600V900H500Z"/>
  <path fill="#535456" d="M300 700H900V600H800V500H400V600H300Z"/>
  <path fill="#2f2f2f" d="M300 700H900V600H300Z"/>
  <path fill="#000000" d="M400 700H500V600H400Z"/>
</svg>
