<?xml version="1.0" encoding="UTF-8"?>
<svg xmlns="http://www.w3.org/2000/svg" viewBox="0 0 1200 1200" width="1200" height="1200">
  <title>emoji_u1f4d6</title>
  <path fill="#f44336" d="M0 1200H300V1100H400V1000H200V200H0ZM700 1100H800V1200H1100V200H900V1000H700Z"/>
  <path fill="#616161" d="M200 1100H500V1200H600V1100H900V900H200Z"/>
  <path fill="#f5f5f5" d="M100 1100H300V1000H400V900H700V1000H800V1100H1000V200H900V100H600V200H500V100H200V200H100Z"/>
  <path fill="#dce9ed" d="M300 900H400V1000H700V800H600V700H700V600H600V500H700V400H600V300H700V200H400V300H500V400H300V500H400V600H300V700H400V800H300Z"/>
  <path fill="#94c6d6" d="M100 1100H300V1000H500V1100H600V1000H800V1100H1000V1000H900V900H800V800H600V900H500V800H300V900H200V1000H100Z"/>
  <path fill="#82aec0" d="M200 1000H300V900H200ZM800 1000H900V900H800ZM100 1100H200V1000H100ZM900 1100H1000V1000H900Z"/>
  <path fill="#b5b5b5" d="M300 300H500V200H300ZM600 300H800V200H600ZM200 400H300V300H200ZM800 400H900V300H800ZM300 500H500V400H300ZM600 500H800V400H600ZM200 600H300V500H200ZM800 600H900V500H800ZM300 700H500V600H300ZM600 700H800V600H600ZM200 800H300V700H200ZM800 800H900V700H800ZM300 900H400V800H300ZM700 900H800V800H700Z"/>
  <path fill="#49899a" d="M300 900H500V800H300ZM600 900H800V800H600ZM200 1000H300V900H200ZM500 1000H600V900H500ZM800 1000H900V900H800Z"/>
  <path fill="#a8afb1" d="M400 500H500V400H400ZM400 700H500V600H400Z"/>
</svg>
