<?xml version="1.0" encoding="UTF-8"?>
<svg xmlns="http://www.w3.org/2000/svg" viewBox="0 0 1200 1200" width="1200" height="1200">
  <title>emoji_u1f635_200d_1f4ab</title>
  <path fill="#eb8f00" d="M0 1000H100V1100H200V1200H900V1100H1000V1000H1100V300H1000V200H900V100H200V200H100V300H0Z"/>
  <path fill="#fde030" d="M100 1000H200V1100H900V1000H1000V300H900V200H200V300H100Z"/>
  <path fill="#422b0d" d="M300 400H400V300H300ZM700 400H900V300H700ZM200 500H300V400H200ZM400 600H500V400H400ZM600 600H700V400H600ZM800 600H900V500H800ZM200 700H400V600H200ZM700 700H800V600H700ZM200 900H300V800H200ZM400 900H500V800H400ZM600 900H700V800H600ZM800 900H900V800H800ZM300 1000H400V900H300ZM500 1000H600V900H500ZM700 1000H800V900H700Z"/>
</svg>
