<?xml version="1.0" encoding="UTF-8"?>
<svg xmlns="http://www.w3.org/2000/svg" viewBox="0 0 1200 1200" width="1200" height="1200">
  <title>emoji_u1f447</title>
  <path fill="#faa700" d="M100 800H200V900H500V1000H600V1200H700V1100H800V700H900V800H1000V700H1100V500H1000V300H900V100H700V400H600V600H100Z"/>
  <path fill="#b55e19" d="M100 800H200V700H300V900H400V700H500V1100H600V1200H700V500H300V300H400V100H200V200H100ZM800 700H900V800H1000V500H800Z"/>
  <path fill="#ffca28" d="M200 700H300V600H400V700H500V600H600V1100H700V500H800V600H900V700H1000V500H900V300H800V100H300V200H200Z"/>
</svg>
