<?xml version="1.0" encoding="UTF-8"?>
<svg xmlns="http://www.w3.org/2000/svg" viewBox="0 0 1200 1200" width="1200" height="1200">
  <title>emoji_u1f941</title>
  <path fill="#94d1e0" d="M0 1000H100V1100H400V1200H700V1100H1000V1000H1100V400H1000V300H900V200H800V300H700V200H400V300H300V200H200V300H100V400H0Z"/>
  <path fill="#ba793e" d="M100 200H200V100H100ZM900 200H1000V100H900ZM200 300H300V200H200ZM800 300H900V200H800ZM200 600H300V700H800V600H900V400H800V300H600V400H500V300H300V400H200Z"/>
  <path fill="#ffffff" d="M0 700H100V1000H200V900H300V1000H400V1100H500V1000H600V1100H700V1000H800V900H900V1000H1000V800H700V900H400V800H200V700H300V600H200V500H100V600H0Z"/>
  <path fill="#ffcc80" d="M400 500H700V300H400ZM100 700H500V600H400V500H300V400H100ZM600 700H1000V400H800V500H700V600H600Z"/>
  <path fill="#e63f33" d="M400 800H500V700H400ZM600 800H700V700H600ZM100 1000H200V800H100ZM300 1000H400V1100H500V900H400V800H300ZM600 1100H700V1000H800V800H700V900H600ZM900 1000H1000V800H900Z"/>
  <path fill="#fef6e0" d="M200 700H400V800H700V700H900V500H800V600H600V500H700V400H400V500H500V600H300V500H200Z"/>
</svg>
