<?xml version="1.0" encoding="UTF-8"?>
<svg xmlns="http://www.w3.org/2000/svg" viewBox="0 0 1200 1200" width="1200" height="1200">
  <title>emoji_u1f1e7_1f1eb</title>
  <path fill="#009e49" d="M0 1000H1100V600H600V700H500V600H0Z"/>
  <path fill="#ef2b2d" d="M0 700H1100V300H0Z"/>
  <path fill="#78653b" d="M0 700H400V800H500V600H0ZM600 800H700V700H1100V600H600Z"/>
  <path fill="#0ca047" d="M400 800H700V600H400Z"/>
  <path fill="#1ea443" d="M400 700H500V800H600V700H700V600H400Z"/>
  <path fill="#f1442a" d="M400 700H700V600H600V500H500V600H400Z"/>
  <path fill="#7d7d37" d="M400 700H700V600H400Z"/>
  <path fill="#f7c419" d="M500 700H600V600H500Z"/>
</svg>
