<?xml version="1.0" encoding="UTF-8"?>
<svg xmlns="http://www.w3.org/2000/svg" viewBox="0 0 1200 1200" width="1200" height="1200">
  <title>emoji_u1f473_1f3fd_200d_2642</title>
  <path fill="#dddddd" d="M100 1200H1100V1100H1000V1000H900V900H700V1000H500V900H300V1000H200V1100H100Z"/>
  <path fill="#543930" d="M100 600H200V900H400V800H500V500H100ZM700 800H800V900H1000V600H1100V500H700Z"/>
  <path fill="#99674f" d="M200 900H300V1000H400V1100H500V1200H700V1100H800V1000H900V900H1000V800H900V700H800V900H400V700H300V800H200Z"/>
  <path fill="#d6d6d6" d="M100 600H1100V200H1000V100H200V200H100Z"/>
  <path fill="#b9bbbd" d="M700 200H1000V100H700ZM500 300H700V200H500ZM200 400H500V300H200ZM700 400H1100V300H700ZM100 600H400V700H800V600H900V500H700V400H500V500H200V400H100ZM1000 600H1100V500H1000ZM300 1000H400V1100H500V1000H700V1100H800V1000H900V900H300ZM500 1200H700V1100H500Z"/>
  <path fill="#ba8d68" d="M300 1000H900V700H800V600H700V500H500V600H400V700H300Z"/>
  <path fill="#49362e" d="M400 900H500V700H400ZM700 900H800V700H700Z"/>
</svg>
