<?xml version="1.0" encoding="UTF-8"?>
<svg xmlns="http://www.w3.org/2000/svg" viewBox="0 0 1200 1200" width="1200" height="1200">
  <title>emoji_u1f987</title>
  <path fill="#5b3f33" d="M0 1100H100V1000H200V900H300V1000H400V1100H500V1200H600V1100H700V1000H800V900H900V1000H1000V1100H1100V100H1000V400H900V300H700V400H600V900H500V400H400V300H200V400H100V100H0Z"/>
  <path fill="#885b50" d="M200 400H300V500H400V600H300V800H400V900H300V1000H400V1100H500V1000H600V1100H700V1000H800V900H700V800H800V600H700V500H800V400H900V200H800V100H600V300H500V100H300V200H200Z"/>
  <path fill="#ffd2ad" d="M300 400H400V200H300ZM700 400H800V200H700ZM400 500H500V400H400ZM600 500H700V400H600Z"/>
  <path fill="#020204" d="M400 500H500V400H400ZM600 500H700V400H600ZM500 700H600V500H500Z"/>
  <path fill="#b68e74" d="M400 900H500V1000H600V900H700V700H600V600H500V700H400Z"/>
</svg>
