<?xml version="1.0" encoding="UTF-8"?>
<svg xmlns="http://www.w3.org/2000/svg" viewBox="0 0 1200 1200" width="1200" height="1200">
  <title>emoji_u1f3c3_1f3fb_200d_2640_200d_27a1</title>
  <path fill="#325599" d="M0 1000H100V900H200V700H0ZM400 1100H500V1200H700V1100H600V1000H400Z"/>
  <path fill="#edbd82" d="M100 600H200V500H300V400H100ZM900 800H1000V700H1100V500H1000V600H900Z"/>
  <path fill="#616161" d="M100 900H400V600H300V700H100Z"/>
  <path fill="#7c7c7c" d="M300 900H400V1100H600V700H500V600H300Z"/>
  <path fill="#f9ddbd" d="M100 500H700V400H800V100H600V200H400V300H200V400H100ZM700 700H800V800H1000V600H800V500H700Z"/>
  <path fill="#3615af" d="M200 400H300V500H400V600H500V500H600V700H800V500H700V400H500V300H600V200H300V300H200Z"/>
  <path fill="#312d2d" d="M300 400H400V300H700V200H800V100H400V200H300ZM400 500H500V400H400Z"/>
  <path fill="#611cfb" d="M300 700H400V800H500V900H600V700H700V400H400V600H300Z"/>
</svg>
