<?xml version="1.0" encoding="UTF-8"?>
<svg xmlns="http://www.w3.org/2000/svg" viewBox="0 0 1200 1200" width="1200" height="1200">
  <title>emoji_u2b55</title>
  <path fill="#cc3333" d="M200 1100H300V1200H900V1100H1000V1000H1100V900H1200V300H1100V200H1000V100H900V0H300V100H200V200H300V300H800V400H900V800H800V900H300V1000H200Z"/>
  <path fill="#f44336" d="M0 900H100V1000H200V1100H900V1000H1000V900H1100V300H1000V200H900V100H200V200H100V300H0ZM200 800V400H300V300H400V200H800V300H900V400H1000V800H900V900H800V1000H400V900H300V800Z"/>
  <path fill="#f6695e" d="M300 200H400V100H300ZM200 300H300V200H200ZM100 400H200V300H100Z"/>
</svg>
