<?xml version="1.0" encoding="UTF-8"?>
<svg xmlns="http://www.w3.org/2000/svg" viewBox="0 0 1200 1200" width="1200" height="1200">
  <title>emoji_u1f39b</title>
  <path fill="#bdbdbd" d="M0 1100H100V1200H1000V1100H1100V200H1000V100H100V200H0Z"/>
  <path fill="#8b8b8b" d="M100 1000H200V1100H500V1000H600V1100H900V1000H1000V700H900V600H1000V300H900V200H600V300H500V200H200V300H100V600H200V700H100ZM500 700V600H600V700Z"/>
  <path fill="#37474f" d="M200 600H500V300H200ZM600 600H900V300H600ZM200 1000H500V700H200ZM600 1000H900V700H600Z"/>
  <path fill="#ffffff" d="M400 400H500V300H400ZM600 400H700V300H600ZM300 500H400V400H300ZM700 500H800V400H700ZM800 800H900V700H800ZM300 900H500V800H300ZM700 900H800V800H700Z"/>
</svg>
