<?xml version="1.0" encoding="UTF-8"?>
<svg xmlns="http://www.w3.org/2000/svg" viewBox="0 0 1200 1200" width="1200" height="1200">
  <title>emoji_u1f608</title>
  <path fill="#c215c8" d="M0 1000H100V1100H200V1200H900V1100H1000V1000H1100V500H1000V400H1100V300H1000V200H800V300H700V200H400V300H300V200H100V300H0V400H100V500H0Z"/>
  <path fill="#792d85" d="M0 400H200V300H300V200H200V100H0ZM800 300H900V400H1100V100H900V200H800ZM200 500H300V400H200ZM800 500H900V400H800Z"/>
  <path fill="#422b0d" d="M100 800H200V1100H900V800H1000V500H700V600H600V900H500V600H400V500H100Z"/>
  <path fill="#fa02fa" d="M100 1000H200V1100H400V1000H700V1100H900V1000H1000V500H900V400H700V300H400V400H200V500H100ZM200 700V600H300V700H400V800H300V700ZM700 800V700H800V600H900V700H800V800ZM300 1000V900H400V1000ZM700 1000V900H800V1000Z"/>
</svg>
