<?xml version="1.0" encoding="UTF-8"?>
<svg xmlns="http://www.w3.org/2000/svg" viewBox="0 0 1200 1200" width="1200" height="1200">
  <title>emoji_u1f1f2_1f1fd</title>
  <path fill="#ffffff" d="M300 600H800V300H300ZM300 1000H800V700H300Z"/>
  <path fill="#006847" d="M0 1000H400V300H0Z"/>
  <path fill="#ce1126" d="M700 1000H1100V300H700Z"/>
  <path fill="#559a84" d="M300 1000H400V800H500V500H400V300H300Z"/>
  <path fill="#de606e" d="M600 800H700V1000H800V300H700V500H600Z"/>
  <path fill="#ae8c6e" d="M400 700H700V500H400Z"/>
  <path fill="#b6c1b1" d="M400 800H700V600H400Z"/>
  <path fill="#ded4cd" d="M500 700H700V500H600V600H500Z"/>
  <path fill="#ebeee5" d="M500 700H600V800H700V600H500Z"/>
  <path fill="#eef0e7" d="M400 800H500V700H600V600H400Z"/>
  <path fill="#faf9f4" d="M400 700H600V600H500V500H400Z"/>
  <path fill="#978568" d="M400 700H700V600H400Z"/>
  <path fill="#c6bdb0" d="M600 700H700V600H600Z"/>
  <path fill="#d7dbcd" d="M400 700H500V600H400Z"/>
</svg>
