<?xml version="1.0" encoding="UTF-8"?>
<svg xmlns="http://www.w3.org/2000/svg" viewBox="0 0 1200 1200" width="1200" height="1200">
  <title>emoji_u1f966</title>
  <path fill="#709921" d="M0 600H300V500H400V600H700V1100H900V1000H1000V900H1100V600H1000V500H900V200H700V100H600V200H500V100H300V200H100V300H0V400H100V500H0Z"/>
  <path fill="#2f7c31" d="M300 300H400V200H300ZM600 300H700V200H600ZM0 600H100V700H600V800H500V1000H700V1100H900V1000H800V700H900V600H1000V300H900V200H800V400H600V500H500V400H600V300H400V400H200V500H0ZM100 400H200V300H100ZM900 800H1000V900H1100V600H1000V700H900ZM900 1000H1000V900H900Z"/>
  <path fill="#9fb525" d="M100 1100H200V1200H400V1100H500V1000H600V900H800V700H700V500H600V600H400V500H300V600H200V700H300V800H200V900H100Z"/>
  <path fill="#b7d118" d="M600 600H700V500H600ZM100 1100H200V1000H300V900H400V1000H500V900H600V800H800V700H600V600H500V700H400V600H200V700H300V800H200V900H100ZM300 1100H400V1000H300Z"/>
</svg>
