<?xml version="1.0" encoding="UTF-8"?>
<svg xmlns="http://www.w3.org/2000/svg" viewBox="0 0 1200 1200" width="1200" height="1200">
  <title>emoji_u1f3f4_e0067_e0062_e0065_e006e_e0067_e007f</title>
  <path fill="#ffffff" d="M0 600H500V300H0ZM600 600H1100V300H600ZM0 1000H500V700H0ZM600 1000H1100V700H600Z"/>
  <path fill="#f7dbdd" d="M300 600H800V500H700V300H400V500H300ZM300 800H400V1000H700V800H800V700H300Z"/>
  <path fill="#f5d4d6" d="M0 800H500V500H0ZM600 800H1100V500H600Z"/>
  <path fill="#cd202c" d="M0 700H400V800H500V1000H600V800H700V700H1100V600H700V500H600V300H500V500H400V600H0Z"/>
  <path fill="#efb7bb" d="M400 600H500V500H400ZM600 600H700V500H600ZM400 800H500V700H400ZM600 800H700V700H600Z"/>
</svg>
