<?xml version="1.0" encoding="UTF-8"?>
<svg xmlns="http://www.w3.org/2000/svg" viewBox="0 0 1200 1200" width="1200" height="1200">
  <title>emoji_u1f9a4</title>
  <path fill="#e8a631" d="M0 500H100V600H200V500H400V200H100V300H0ZM400 1100H500V1200H600V1100H700V1200H800V1100H900V1000H400Z"/>
  <path fill="#bdbdbd" d="M800 800H900V900H1000V800H1100V500H900V600H800Z"/>
  <path fill="#e0e0e0" d="M200 400H300V500H400V600H600V500H700V100H400V200H300V300H200ZM900 600H1000V500H900ZM800 1000H1000V700H900V600H800ZM1000 700H1100V600H1000Z"/>
  <path fill="#78a3ad" d="M300 1000H400V1100H900V1000H1000V900H900V800H1000V700H900V600H600V500H700V100H400V200H600V400H500V500H400V600H300ZM400 400H500V300H400Z"/>
  <path fill="#424242" d="M200 400H300V300H200ZM100 500H200V400H100Z"/>
  <path fill="#546e7a" d="M500 800H600V700H500ZM600 900H700V1000H800V700H700V800H600Z"/>
  <path fill="#212121" d="M400 400H500V300H400Z"/>
</svg>
