<?xml version="1.0" encoding="UTF-8"?>
<svg xmlns="http://www.w3.org/2000/svg" viewBox="0 0 1200 1200" width="1200" height="1200">
  <title>emoji_u23ed</title>
  <path fill="#f77e00" d="M0 1100H100V1200H1000V1100H1100V200H1000V100H900V1000H0Z"/>
  <path fill="#ff9800" d="M0 1100H1000V100H100V200H0Z"/>
  <path fill="#ffb43d" d="M200 300H300V200H200ZM100 500H300V400H200V300H100Z"/>
  <path fill="#fafafa" d="M100 900H300V800H400V700H500V900H700V800H800V700H900V900H1000V400H900V600H800V500H700V400H500V600H400V500H300V400H100Z"/>
</svg>
