<?xml version="1.0" encoding="UTF-8"?>
<svg xmlns="http://www.w3.org/2000/svg" viewBox="0 0 1200 1200" width="1200" height="1200">
  <title>emoji_u1f99b</title>
  <path fill="#835a4a" d="M300 1200H500V1000H300ZM600 1200H800V1100H900V1200H1100V1000H600Z"/>
  <path fill="#ad866d" d="M200 1000H300V1100H500V1000H600V1100H1100V800H900V900H200Z"/>
  <path fill="#855a4a" d="M700 600H1100V400H1000V300H800V200H700Z"/>
  <path fill="#aa836e" d="M700 800H1100V500H800V400H700Z"/>
  <path fill="#b89379" d="M0 900H100V1000H700V800H900V700H800V200H700V100H600V200H400V100H300V200H200V400H100V700H300V500H400V600H500V800H0Z"/>
  <path fill="#b28874" d="M700 1000H1000V900H1100V700H700Z"/>
  <path fill="#896150" d="M600 200H700V100H600ZM100 700H200V800H500V700H600V500H500V400H600V200H400V300H300V400H200V600H100ZM600 500H700V400H600Z"/>
  <path fill="#845a4a" d="M0 900H600V1000H800V700H600V600H400V700H300V600H100V700H0Z"/>
  <path fill="#cb9584" d="M600 1000H1000V900H800V700H700V900H600ZM1000 900H1100V800H1000Z"/>
  <path fill="#0b0c0c" d="M200 500H300V400H200ZM600 500H700V400H600ZM200 800H300V700H200ZM400 800H500V700H400Z"/>
</svg>
