<?xml version="1.0" encoding="UTF-8"?>
<svg xmlns="http://www.w3.org/2000/svg" viewBox="0 0 1200 1200" width="1200" height="1200">
  <title>emoji_u1f9fe</title>
  <path fill="#6fbff0" d="M0 1100H100V1200H1000V1100H1100V100H1000V200H900V100H800V200H700V100H600V200H500V100H400V200H300V100H100V900H0Z"/>
  <path fill="#ffffff" d="M200 900H300V1000H400V900H500V1000H600V900H700V1000H800V900H900V1000H1000V300H900V200H800V300H700V200H600V300H500V200H400V300H300V200H200ZM100 1000H200V900H100Z"/>
  <path fill="#82aec0" d="M300 500H700V400H300ZM800 500H900V400H800ZM300 700H500V600H300ZM600 700H700V600H600ZM800 700H900V600H800ZM300 900H600V800H300ZM700 900H900V800H700Z"/>
</svg>
