<?xml version="1.0" encoding="UTF-8"?>
<svg xmlns="http://www.w3.org/2000/svg" viewBox="0 0 1200 1200" width="1200" height="1200">
  <title>emoji_u26f2</title>
  <path fill="#fffffd" d="M900 200H1000V100H900ZM300 300H400V200H300ZM700 300H800V200H700ZM200 500H300V300H200ZM400 400H500V300H400ZM600 400H700V300H600ZM800 400H900V300H800ZM500 500H600V400H500Z"/>
  <path fill="#a2e4fd" d="M400 400H500V300H400ZM800 500H900V300H800ZM200 500H300V400H200ZM400 700H700V600H600V400H500V600H400Z"/>
  <path fill="#e2ddd7" d="M100 800H1000V600H100ZM400 1200H700V1100H600V1000H700V900H400V1000H500V1100H400Z"/>
  <path fill="#89847e" d="M100 800H200V900H300V1000H800V900H900V800H1000V700H100ZM300 1200H800V1100H300Z"/>
</svg>
