<?xml version="1.0" encoding="UTF-8"?>
<svg xmlns="http://www.w3.org/2000/svg" viewBox="0 0 1200 1200" width="1200" height="1200">
  <title>emoji_u1f577</title>
  <path fill="#868686" d="M300 200H400V100H300ZM700 200H800V100H700ZM0 600H100V200H0ZM100 800H200V700H400V500H300V200H200V600H100ZM700 700H900V800H1000V600H900V200H800V500H700ZM1000 600H1100V200H1000ZM0 900H100V800H0ZM200 900H300V1000H400V800H200ZM700 1000H800V900H900V800H700ZM1000 900H1100V800H1000ZM100 1200H200V900H100ZM900 1200H1000V900H900Z"/>
  <path fill="#616569" d="M300 1100H400V1200H700V1100H800V800H700V700H800V500H700V300H600V400H500V300H400V500H300V700H400V800H300Z"/>
  <path fill="#050402" d="M400 600H500V500H400ZM600 600H700V500H600ZM300 700H400V600H300ZM700 700H800V600H700ZM400 800H500V700H400ZM600 800H700V700H600Z"/>
  <path fill="#888a8a" d="M400 1000H500V900H400ZM600 1000H700V900H600ZM500 1100H600V1000H500Z"/>
  <path fill="#4e4d50" d="M400 800H700V700H400Z"/>
</svg>
