<?xml version="1.0" encoding="UTF-8"?>
<svg xmlns="http://www.w3.org/2000/svg" viewBox="0 0 1200 1200" width="1200" height="1200">
  <title>emoji_u1f426_200d_2b1b</title>
  <path fill="#f97d23" d="M0 400H100V500H300V200H100V300H0ZM300 900H400V1100H500V1000H600V1100H700V1000H800V800H300ZM300 1200H400V1100H300ZM500 1200H600V1100H500Z"/>
  <path fill="#4d4d4d" d="M100 500H200V800H300V900H500V1000H600V900H700V1000H1000V800H1100V300H1000V400H900V500H700V400H600V200H500V100H200V200H100V300H200V400H100Z"/>
  <path fill="#000000" d="M300 400H400V300H300ZM500 800H600V700H500ZM600 900H700V800H600ZM700 1000H1000V800H900V900H700Z"/>
</svg>
