<?xml version="1.0" encoding="UTF-8"?>
<svg xmlns="http://www.w3.org/2000/svg" viewBox="0 0 1200 1200" width="1200" height="1200">
  <title>emoji_u1f487_200d_2640</title>
  <path fill="#de3e31" d="M900 200H1000V100H900ZM800 300H900V200H800ZM1000 300H1100V200H1000ZM700 400H800V300H700ZM900 400H1000V300H900ZM800 500H900V400H800ZM1000 500H1100V400H1000ZM900 600H1000V500H900Z"/>
  <path fill="#82aec0" d="M500 300H700V200H500ZM400 600H600V500H700V400H500V300H400ZM700 400H800V300H700Z"/>
  <path fill="#5a15f3" d="M0 1200H700V1100H600V900H0Z"/>
  <path fill="#543930" d="M0 1000H600V500H500V300H100V400H0Z"/>
  <path fill="#ffca28" d="M100 900H200V1000H400V900H500V700H400V600H300V500H200V600H100Z"/>
  <path fill="#e59600" d="M200 1000H400V900H200Z"/>
</svg>
