<?xml version="1.0" encoding="UTF-8"?>
<svg xmlns="http://www.w3.org/2000/svg" viewBox="0 0 1200 1200" width="1200" height="1200">
  <title>emoji_u1f686</title>
  <path fill="#874d36" d="M100 1200H1000V1000H100Z"/>
  <path fill="#88857c" d="M200 1200H400V1100H500V900H200ZM700 1200H900V1100H1000V900H700Z"/>
  <path fill="#c8c9c6" d="M100 1100H200V1200H300V1000H400V900H100ZM600 1100H700V1200H800V1000H900V900H600Z"/>
  <path fill="#b88956" d="M100 1100H200V1000H400V1100H700V1000H900V1100H1000V900H100Z"/>
  <path fill="#e0e0e0" d="M0 900H600V600H300V500H200V400H0Z"/>
  <path fill="#82aec0" d="M0 900H100V1000H1000V900H1100V800H0Z"/>
  <path fill="#37474f" d="M100 500H200V600H900V500H1000V100H100Z"/>
  <path fill="#bdbdbd" d="M400 900H1100V400H900V500H800V600H400V700H500V800H400Z"/>
  <path fill="#2167a1" d="M0 500H100V600H200V800H400V700H700V800H900V600H1000V500H1100V200H1000V100H900V400H800V500H300V400H200V100H100V200H0Z"/>
  <path fill="#c0c0c0" d="M0 900H200V1000H400V900H600V800H400V700H200V800H0Z"/>
  <path fill="#a4a4a4" d="M500 900H1100V800H900V700H700V800H500Z"/>
  <path fill="#bae2fd" d="M300 400H800V200H300ZM200 500H300V400H200ZM800 500H900V400H800Z"/>
  <path fill="#ffffff" d="M400 300H500V400H700V300H600V200H400Z"/>
  <path fill="#94d1e0" d="M200 1000H400V900H200Z"/>
  <path fill="#2686c6" d="M100 500H200V600H900V500H1000V200H900V400H800V500H300V400H200V200H100Z"/>
  <path fill="#fffde7" d="M200 800H400V700H200ZM700 800H900V700H700Z"/>
  <path fill="#9e9e9e" d="M300 800H400V700H300ZM700 800H800V700H700Z"/>
  <path fill="#f44336" d="M300 600H400V500H300ZM700 600H800V500H700Z"/>
</svg>
