<?xml version="1.0" encoding="UTF-8"?>
<svg xmlns="http://www.w3.org/2000/svg" viewBox="0 0 1200 1200" width="1200" height="1200">
  <title>emoji_u1f1ec_1f1fe</title>
  <path fill="#61473f" d="M0 500H200V300H0ZM0 1000H200V800H0Z"/>
  <path fill="#019e4a" d="M200 500H500V300H200ZM200 1000H500V800H200Z"/>
  <path fill="#34b16d" d="M100 500H400V400H300V300H100ZM100 1000H300V900H400V800H100Z"/>
  <path fill="#6bb173" d="M0 500H300V400H200V300H100V400H0ZM0 900H100V1000H200V900H300V800H0Z"/>
  <path fill="#51bd83" d="M900 800H1100V500H900Z"/>
  <path fill="#009e49" d="M300 900H400V1000H1100V700H1000V600H1100V300H400V400H300V500H600V600H900V700H600V800H300Z"/>
  <path fill="#ce1126" d="M0 900H300V800H500V500H300V400H0Z"/>
  <path fill="#039f4b" d="M500 600H800V500H700V400H500ZM500 900H700V800H800V700H500Z"/>
  <path fill="#07a14e" d="M800 800H1000V500H800Z"/>
  <path fill="#3fb572" d="M400 600H700V500H600V400H400ZM400 900H600V800H700V700H400Z"/>
  <path fill="#8fc974" d="M300 600H600V500H500V400H300ZM300 900H500V800H600V700H300Z"/>
  <path fill="#911719" d="M100 500H200V600H300V400H100ZM100 900H300V700H200V800H100Z"/>
  <path fill="#a68329" d="M200 600H400V400H200ZM200 900H400V700H200Z"/>
  <path fill="#ded863" d="M200 600H500V500H400V400H300V500H200ZM200 800H300V900H400V800H500V700H200Z"/>
  <path fill="#e3e59d" d="M800 800H900V700H1000V600H900V500H800Z"/>
  <path fill="#863813" d="M200 800H500V500H200V600H400V700H200Z"/>
  <path fill="#9acb72" d="M600 800H900V500H600Z"/>
  <path fill="#bd1023" d="M200 600H300V500H200ZM200 800H300V700H200Z"/>
  <path fill="#d4b013" d="M400 800H600V500H400Z"/>
  <path fill="#e8da5f" d="M500 800H700V700H800V600H700V500H500Z"/>
  <path fill="#fcd528" d="M400 700H500V800H600V700H700V600H600V500H500V600H400Z"/>
  <path fill="#4ab976" d="M700 700H900V500H800V600H700Z"/>
  <path fill="#4ab977" d="M700 700H800V800H900V600H700Z"/>
  <path fill="#fcd62d" d="M700 700H900V600H700Z"/>
  <path fill="#fcd116" d="M500 700H800V600H500Z"/>
  <path fill="#6d1313" d="M400 700H600V600H400Z"/>
  <path fill="#d5b013" d="M500 700H600V600H500Z"/>
</svg>
