<?xml version="1.0" encoding="UTF-8"?>
<svg xmlns="http://www.w3.org/2000/svg" viewBox="0 0 1200 1200" width="1200" height="1200">
  <title>emoji_u1f1f2_1f1f3</title>
  <path fill="#c52a2e" d="M0 500H300V300H0Z"/>
  <path fill="#cc4028" d="M0 800H200V500H0Z"/>
  <path fill="#cd4227" d="M0 1000H200V700H0Z"/>
  <path fill="#c4272f" d="M0 600H100V700H200V500H400V300H200V400H100V300H0ZM700 1000H1100V300H700ZM0 1000H400V800H100V900H0Z"/>
  <path fill="#cd4427" d="M0 800H100V900H200V700H400V400H100V700H0Z"/>
  <path fill="#015197" d="M300 1000H800V300H300Z"/>
  <path fill="#843551" d="M200 900H300V1000H400V300H300V400H200V500H300V600H200ZM700 1000H800V300H700Z"/>
  <path fill="#c62d2d" d="M100 600H200V500H300V400H100Z"/>
  <path fill="#d25423" d="M100 600H200V400H100Z"/>
  <path fill="#dc741a" d="M100 700H300V600H200V500H100Z"/>
  <path fill="#e08017" d="M100 800H300V600H100Z"/>
  <path fill="#e18216" d="M100 900H300V700H100Z"/>
  <path fill="#e38915" d="M100 900H200V800H300V700H100Z"/>
  <path fill="#eaa10e" d="M100 800H300V600H200V700H100Z"/>
  <path fill="#de7919" d="M200 800H300V600H200Z"/>
  <path fill="#e79611" d="M200 800H300V700H200Z"/>
</svg>
