<?xml version="1.0" encoding="UTF-8"?>
<svg xmlns="http://www.w3.org/2000/svg" viewBox="0 0 1200 1200" width="1200" height="1200">
  <title>emoji_u1f42e</title>
  <path fill="#ffb903" d="M200 400H500V200H400V100H300V300H200ZM600 400H900V300H800V100H700V200H600Z"/>
  <path fill="#ffd3b0" d="M0 400H100V500H300V300H200V200H0ZM800 500H1000V400H1100V200H900V300H800ZM100 1100H200V1200H900V1100H1000V900H900V800H1000V700H100V800H200V900H100Z"/>
  <path fill="#dfdfdf" d="M400 800H1000V600H900V500H1000V400H900V300H700V200H400V400H500V600H400ZM900 300H1000V400H1100V200H900Z"/>
  <path fill="#bc8954" d="M0 400H100V300H200V200H0ZM100 800H500V700H600V300H500V200H400V300H200V400H100V500H200V600H100Z"/>
  <path fill="#2e2f31" d="M300 1100H500V1000H300ZM600 1100H800V1000H600Z"/>
  <path fill="#0a0a0a" d="M300 700H400V500H300ZM700 700H800V500H700Z"/>
</svg>
