<?xml version="1.0" encoding="UTF-8"?>
<svg xmlns="http://www.w3.org/2000/svg" viewBox="0 0 1200 1200" width="1200" height="1200">
  <title>emoji_u1f476</title>
  <path fill="#e59600" d="M100 900H200V1000H300V600H200V700H100ZM900 1000H1000V900H1100V700H1000V600H900Z"/>
  <path fill="#ffca28" d="M200 1000H300V1100H400V1200H800V1100H900V1000H1000V300H900V200H800V100H400V200H300V300H200Z"/>
  <path fill="#543930" d="M600 200H700V100H600ZM700 400H800V200H700ZM500 500H700V400H500Z"/>
  <path fill="#795548" d="M400 1000H500V900H400ZM700 1000H800V900H700ZM500 1100H700V1000H500Z"/>
  <path fill="#404040" d="M400 800H500V600H400ZM700 800H800V600H700Z"/>
</svg>
