<?xml version="1.0" encoding="UTF-8"?>
<svg xmlns="http://www.w3.org/2000/svg" viewBox="0 0 1200 1200" width="1200" height="1200">
  <title>emoji_u1f952</title>
  <path fill="#2e7e30" d="M0 1100H100V1200H500V1100H700V1000H800V900H900V800H1000V700H1100V200H1000V100H700V200H600V400H500V600H300V700H200V800H100V900H0Z"/>
  <path fill="#559833" d="M0 1000H100V1100H300V1000H500V900H700V800H800V700H900V400H1000V100H900V200H800V100H700V200H600V400H500V500H400V600H300V700H100V800H0ZM600 600V500H700V300H800V500H700V600ZM200 1000V900H300V800H400V700H500V800H400V900H300V1000ZM600 800V700H700V800Z"/>
  <path fill="#7fba42" d="M800 300H900V200H800ZM300 800H400V700H300ZM200 900H300V800H200Z"/>
</svg>
