<?xml version="1.0" encoding="UTF-8"?>
<svg xmlns="http://www.w3.org/2000/svg" viewBox="0 0 1200 1200" width="1200" height="1200">
  <title>emoji_u1f688</title>
  <path fill="#607d8b" d="M0 200H400V300H500V200H800V300H900V200H1100V100H0Z"/>
  <path fill="#ffca28" d="M0 600H200V300H100V400H0ZM0 1000H200V700H0Z"/>
  <path fill="#82aec0" d="M300 400H600V300H500V200H400V300H300ZM700 400H1000V300H900V200H800V300H700Z"/>
  <path fill="#bdbdbd" d="M0 1200H1100V900H0V1000H100V1100H0Z"/>
  <path fill="#e0e0e0" d="M0 1000H1100V700H600V600H700V500H1100V300H100V500H200V600H100V700H0V800H100V900H0ZM0 1200H1100V1100H0Z"/>
  <path fill="#bae2fd" d="M0 800H200V700H300V400H100V500H0ZM400 800H1100V400H600V500H500V600H400Z"/>
  <path fill="#37474f" d="M100 500H200V700H300V400H100ZM400 800H1100V700H1000V500H1100V400H600V500H700V700H500V600H400ZM800 700V500H900V700ZM500 600H600V500H500ZM100 800H200V700H100Z"/>
</svg>
