<?xml version="1.0" encoding="UTF-8"?>
<svg xmlns="http://www.w3.org/2000/svg" viewBox="0 0 1200 1200" width="1200" height="1200">
  <title>emoji_u1f3c0</title>
  <path fill="#dc5819" d="M100 1000H200V1100H300V1200H800V1100H900V1000H1000V900H1100V400H1000V300H900V200H800V700H700V800H500V900H100Z"/>
  <path fill="#ef6c32" d="M0 900H100V1000H500V1100H600V900H700V1000H800V800H900V700H1000V600H900V200H800V100H300V200H200V300H100V400H0Z"/>
  <path fill="#2d3130" d="M500 300H600V100H500ZM800 300H900V200H800ZM100 400H200V300H100ZM0 700H200V900H300V800H400V1000H500V800H600V900H700V800H900V700H700V500H600V700H500V300H400V700H300V400H200V600H0ZM700 500H800V300H700ZM900 700H1100V600H900ZM100 1000H200V900H100ZM700 1000H800V900H700ZM500 1200H600V1000H500ZM800 1100H900V1000H800Z"/>
</svg>
