<?xml version="1.0" encoding="UTF-8"?>
<svg xmlns="http://www.w3.org/2000/svg" viewBox="0 0 1200 1200" width="1200" height="1200">
  <title>emoji_u1f9d1_1f3fe_200d_1f4bc</title>
  <path fill="#525252" d="M0 700H400V800H500V500H200V300H800V500H1000V100H0Z"/>
  <path fill="#1565c0" d="M600 1200H900V1000H600Z"/>
  <path fill="#a5d4fa" d="M400 1200H700V1100H800V1200H1100V1000H1000V900H800V1000H700V900H500V1000H400Z"/>
  <path fill="#3c2c23" d="M300 600H400V900H500V1000H600V800H700V700H800V800H900V1000H1000V900H1100V500H1000V400H900V300H400V400H300Z"/>
  <path fill="#a56c43" d="M500 1000H600V1100H900V1000H1000V700H900V600H600V700H500Z"/>
  <path fill="#f3f3f3" d="M600 1100H900V1000H600Z"/>
  <path fill="#7a4c32" d="M700 1100H800V1000H700Z"/>
  <path fill="#f7f7f7" d="M100 600H400V500H500V400H900V200H100Z"/>
  <path fill="#49bc58" d="M200 600H300V400H200Z"/>
  <path fill="#42312c" d="M600 900H700V700H600ZM800 900H900V700H800Z"/>
  <path fill="#b83d2a" d="M600 400H700V300H600Z"/>
  <path fill="#2a69b8" d="M400 500H500V300H400Z"/>
</svg>
