<?xml version="1.0" encoding="UTF-8"?>
<svg xmlns="http://www.w3.org/2000/svg" viewBox="0 0 1200 1200" width="1200" height="1200">
  <title>emoji_u1f3bf</title>
  <path fill="#2f7889" d="M0 1100H100V1200H1100V1000H0Z"/>
  <path fill="#424242" d="M600 400H700V500H1000V200H700V100H600Z"/>
  <path fill="#5fb2de" d="M800 300H1000V200H800ZM500 800H700V900H1000V800H1100V700H1000V400H800V300H600V700H500Z"/>
  <path fill="#bdbdbd" d="M300 900H800V700H400V800H300Z"/>
  <path fill="#616161" d="M600 400H800V300H600Z"/>
  <path fill="#9e9e9e" d="M600 600H900V500H600Z"/>
  <path fill="#212121" d="M800 600H900V500H800ZM100 1100H500V1000H800V1100H1100V700H900V800H800V700H700V800H600V700H500V800H300V900H200V1000H100Z"/>
  <path fill="#82aec0" d="M100 1100H1100V1000H900V900H400V1000H100Z"/>
  <path fill="#1d7dcc" d="M500 800H600V700H500ZM700 800H800V700H700ZM900 800H1000V700H900ZM300 900H400V1000H900V800H800V900H700V800H600V900H500V800H300Z"/>
  <path fill="#1257ae" d="M400 1000H900V900H400Z"/>
</svg>
