<?xml version="1.0" encoding="UTF-8"?>
<svg xmlns="http://www.w3.org/2000/svg" viewBox="0 0 1200 1200" width="1200" height="1200">
  <title>emoji_u1f1e7_1f1f7</title>
  <path fill="#019b3a" d="M0 800H200V500H0ZM900 800H1100V500H900Z"/>
  <path fill="#0a9e38" d="M400 500H700V300H400ZM400 1000H700V800H400Z"/>
  <path fill="#0ca043" d="M0 1000H200V800H0Z"/>
  <path fill="#0a9f42" d="M800 1000H1100V800H800Z"/>
  <path fill="#3db369" d="M700 1000H900V900H1000V800H700Z"/>
  <path fill="#3fb46b" d="M0 900H200V600H100V700H0Z"/>
  <path fill="#43b56e" d="M0 900H100V1000H200V700H100V800H0Z"/>
  <path fill="#009b3a" d="M0 600H100V1000H500V900H600V1000H800V900H1000V1000H1100V700H1000V600H1100V300H600V400H500V300H0Z"/>
  <path fill="#119f36" d="M200 600H500V400H300V500H200ZM600 600H900V500H800V400H600ZM200 800H300V900H500V700H200ZM600 900H900V700H600Z"/>
  <path fill="#83b619" d="M300 600H800V500H700V400H400V500H300ZM300 800H400V900H700V800H800V700H300Z"/>
  <path fill="#039c39" d="M100 700H300V500H100ZM800 900H900V800H1000V500H800Z"/>
  <path fill="#bbaa02" d="M400 600H700V500H600V400H500V500H400ZM400 800H500V900H600V800H700V700H400Z"/>
  <path fill="#1da64e" d="M100 800H300V600H100Z"/>
  <path fill="#4cb975" d="M700 800H800V900H900V700H700Z"/>
  <path fill="#9ec516" d="M800 800H900V700H1000V600H900V500H800Z"/>
  <path fill="#b1d14b" d="M100 700H200V800H300V500H200V600H100Z"/>
  <path fill="#66b623" d="M700 700H900V500H700ZM200 800H400V600H200Z"/>
  <path fill="#030303" d="M400 800H700V600H400Z"/>
  <path fill="#191602" d="M500 700H800V500H500Z"/>
  <path fill="#191c1a" d="M400 700H700V600H600V500H400Z"/>
  <path fill="#1b1804" d="M300 800H500V700H600V600H300Z"/>
  <path fill="#221f0b" d="M500 700H600V800H800V600H500Z"/>
  <path fill="#424a2f" d="M300 700H600V600H500V500H300Z"/>
  <path fill="#66b624" d="M200 700H400V500H200Z"/>
  <path fill="#85c446" d="M700 800H900V600H700Z"/>
  <path fill="#cbbf05" d="M600 700H900V600H800V500H700V600H600Z"/>
  <path fill="#ccc006" d="M200 700H300V800H400V700H500V600H200Z"/>
  <path fill="#ccc634" d="M600 700H700V800H800V700H900V600H600Z"/>
  <path fill="#d8d12a" d="M200 700H500V600H400V500H300V600H200Z"/>
  <path fill="#fedf00" d="M700 700H900V600H700Z"/>
  <path fill="#fee845" d="M200 700H400V600H200Z"/>
  <path fill="#080808" d="M300 700H600V600H300Z"/>
  <path fill="#1f2421" d="M500 700H700V600H500Z"/>
  <path fill="#334038" d="M600 700H800V600H600Z"/>
  <path fill="#9e8e1b" d="M300 700H400V600H300Z"/>
  <path fill="#b0a325" d="M700 700H800V600H700Z"/>
</svg>
