<?xml version="1.0" encoding="UTF-8"?>
<svg xmlns="http://www.w3.org/2000/svg" viewBox="0 0 1200 1200" width="1200" height="1200">
  <title>emoji_u1f1e8_1f1fa</title>
  <path fill="#831c50" d="M0 500H200V300H0ZM0 1000H200V800H0Z"/>
  <path fill="#0a298a" d="M0 500H300V300H100V400H0ZM0 900H100V1000H300V800H0Z"/>
  <path fill="#d0182f" d="M0 800H200V500H0Z"/>
  <path fill="#002a8f" d="M100 900H200V1000H1100V300H200V400H100V500H400V800H100Z"/>
  <path fill="#cf142b" d="M0 900H200V800H500V500H200V400H0V600H100V700H0Z"/>
  <path fill="#98a9d2" d="M200 600H1100V400H200ZM200 900H1100V700H200Z"/>
  <path fill="#cdd6e9" d="M400 800H1100V700H500V600H1100V500H400Z"/>
  <path fill="#8f7daa" d="M100 600H400V500H300V400H100ZM100 900H300V800H400V700H100Z"/>
  <path fill="#b1183a" d="M100 600H300V500H200V400H100ZM100 900H200V800H300V700H100Z"/>
  <path fill="#d3263b" d="M100 700H300V500H100Z"/>
  <path fill="#d3293e" d="M100 800H300V600H100Z"/>
  <path fill="#f1bbc2" d="M100 700H200V800H300V500H200V600H100Z"/>
  <path fill="#ced6e9" d="M300 800H500V500H300V600H400V700H300Z"/>
  <path fill="#e798a3" d="M200 800H400V700H300V600H400V500H200ZM400 700H500V600H400Z"/>
  <path fill="#d01b31" d="M200 700H300V500H200Z"/>
  <path fill="#d11d33" d="M200 800H300V600H200Z"/>
  <path fill="#d22339" d="M200 700H300V600H200Z"/>
  <path fill="#582165" d="M400 700H500V600H400Z"/>
</svg>
