<?xml version="1.0" encoding="UTF-8"?>
<svg xmlns="http://www.w3.org/2000/svg" viewBox="0 0 1200 1200" width="1200" height="1200">
  <title>emoji_u1f458</title>
  <path fill="#f48fb1" d="M900 800H1100V500H900ZM600 1200H800V1000H600Z"/>
  <path fill="#fdf0f7" d="M600 400H800V900H900V1000H1100V700H1000V600H1100V300H1000V200H800V100H600ZM0 1000H200V800H300V600H400V300H300V200H100V300H0ZM300 1200H700V1100H800V900H600V1000H300Z"/>
  <path fill="#ffb6d7" d="M0 1000H200V900H300V1200H400V1100H500V1200H600V1100H700V1000H800V900H1000V1000H1100V800H1000V700H900V600H1000V500H1100V300H1000V400H900V300H1000V200H800V300H700V200H500V100H300V200H200V300H100V400H0V800H100V900H0ZM200 500V400H300V500ZM100 700V600H200V700ZM700 200H800V100H700Z"/>
  <path fill="#2686c6" d="M300 600H600V500H700V400H600V300H700V200H800V100H300V200H400V300H500V400H400V500H300Z"/>
  <path fill="#ffffff" d="M500 300H600V200H500Z"/>
  <path fill="#df86ac" d="M200 800H300V900H800V800H900V500H700V700H400V500H200Z"/>
  <path fill="#82aec0" d="M300 800H800V500H700V400H500V500H300Z"/>
  <path fill="#2167a1" d="M300 700H500V800H600V700H800V600H700V500H400V600H300Z"/>
  <path fill="#f5f5f5" d="M400 600H700V500H400Z"/>
</svg>
