<?xml version="1.0" encoding="UTF-8"?>
<svg xmlns="http://www.w3.org/2000/svg" viewBox="0 0 1200 1200" width="1200" height="1200">
  <title>emoji_u1fa99</title>
  <path fill="#d68f30" d="M0 1000H100V1100H200V1200H500V1000H300V900H200V700H0ZM600 1200H900V1100H1000V1000H1100V700H900V900H800V1000H600Z"/>
  <path fill="#bc6f00" d="M0 1000H200V800H100V900H0ZM900 1000H1100V900H1000V800H900ZM200 1200H300V1100H400V1000H200ZM700 1100H800V1200H900V1000H700Z"/>
  <path fill="#fff176" d="M0 800H100V1000H200V1100H400V1200H700V1100H900V1000H1000V800H1100V500H1000V300H900V200H700V100H400V200H200V300H100V500H0Z"/>
  <path fill="#d38200" d="M200 900H300V1000H800V900H900V400H800V300H300V400H200ZM300 800V700H400V600H300V500H400V400H700V500H800V600H700V700H800V800ZM500 700H600V600H500Z"/>
  <path fill="#f2bc1a" d="M300 500H400V400H300ZM700 500H800V400H700ZM200 900H300V500H200ZM800 900H900V500H800ZM300 1000H800V900H300Z"/>
</svg>
