<?xml version="1.0" encoding="UTF-8"?>
<svg xmlns="http://www.w3.org/2000/svg" viewBox="0 0 1200 1200" width="1200" height="1200">
  <title>emoji_u1f6e3</title>
  <path fill="#9a9a9a" d="M0 1000H200V500H100V300H200V200H0ZM900 1000H1100V200H900V300H1000V500H900Z"/>
  <path fill="#c8c8c8" d="M0 300H200V400H400V100H200V200H0ZM700 400H900V300H1100V200H900V100H700Z"/>
  <path fill="#7db240" d="M0 1200H200V1100H300V900H400V700H300V600H100V900H0ZM700 900H800V1100H900V1200H1100V900H1000V600H800V700H700Z"/>
  <path fill="#5e6367" d="M200 700H300V600H200ZM800 700H900V600H800ZM100 1200H1000V1000H900V800H800V700H300V800H200V1000H100Z"/>
  <path fill="#ffffff" d="M300 1000H400V800H300ZM700 1000H800V800H700ZM300 1200H400V1100H300ZM700 1200H800V1100H700Z"/>
  <path fill="#dfe1e0" d="M100 700H300V600H800V700H1000V500H900V300H800V200H900V100H200V200H300V300H200V500H100Z"/>
  <path fill="#85d59e" d="M300 400H800V200H300Z"/>
  <path fill="#a1d1da" d="M100 700H300V600H200V500H100ZM800 700H1000V500H900V600H800Z"/>
  <path fill="#518e2c" d="M200 700H300V600H200ZM900 700H1000V600H900Z"/>
  <path fill="#1b9372" d="M300 500H800V200H700V300H600V200H500V300H400V200H300Z"/>
  <path fill="#fefffe" d="M400 500H500V400H400ZM600 500H700V400H600Z"/>
</svg>
