<?xml version="1.0" encoding="UTF-8"?>
<svg xmlns="http://www.w3.org/2000/svg" viewBox="0 0 1200 1200" width="1200" height="1200">
  <title>emoji_u1f6b6_1f3fb_200d_2640</title>
  <path fill="#f9ddbd" d="M500 400H700V100H500ZM700 500H800V400H700ZM400 600H500V500H400ZM800 700H900V500H800ZM200 700H400V600H200Z"/>
  <path fill="#7c7c7c" d="M200 1200H400V1000H500V900H600V1000H700V600H500V800H400V900H300V1000H200Z"/>
  <path fill="#4568ad" d="M700 1200H800V1100H900V1000H800V900H700ZM200 1200H400V1100H200Z"/>
  <path fill="#312d2d" d="M500 400H600V500H800V300H700V100H500V200H600V300H500Z"/>
  <path fill="#616161" d="M600 1000H700V1100H800V900H700V800H600Z"/>
  <path fill="#5e19f8" d="M400 600H500V700H700V500H800V400H700V300H500V400H400Z"/>
</svg>
