<?xml version="1.0" encoding="UTF-8"?>
<svg xmlns="http://www.w3.org/2000/svg" viewBox="0 0 1200 1200" width="1200" height="1200">
  <title>emoji_u1fae8</title>
  <path fill="#eb8f00" d="M800 200H900V100H800ZM100 900H200V1000H300V1100H800V1000H900V900H1000V400H900V300H800V200H300V300H200V400H100ZM200 1200H300V1100H200Z"/>
  <path fill="#eeba4b" d="M800 200H1000V100H800ZM1000 300H1100V200H1000ZM0 1100H100V1000H0ZM100 1200H300V1100H100Z"/>
  <path fill="#fde030" d="M200 900H300V1000H800V900H900V400H800V300H300V400H200Z"/>
  <path fill="#422b0d" d="M500 500H600V400H500ZM600 600H700V500H600ZM300 700H400V600H300ZM400 800H500V700H400ZM600 900H800V700H600Z"/>
</svg>
