<?xml version="1.0" encoding="UTF-8"?>
<svg xmlns="http://www.w3.org/2000/svg" viewBox="0 0 1200 1200" width="1200" height="1200">
  <title>emoji_u1fae7</title>
  <path fill="#4dc6e1" d="M0 500H100V600H200V700H400V600H500V500H600V300H500V200H400V100H200V200H100V300H0ZM700 500H800V600H1000V500H1100V300H1000V200H800V300H700ZM500 1100H600V1200H900V1100H1000V800H900V700H600V800H500Z"/>
  <path fill="#b5ecf3" d="M100 500H200V600H400V500H500V300H400V200H200V300H100ZM800 500H1000V300H800ZM600 1100H900V800H600Z"/>
  <path fill="#e9fafb" d="M200 400H300V300H200ZM800 400H900V300H800ZM600 900H700V800H600Z"/>
</svg>
