<?xml version="1.0" encoding="UTF-8"?>
<svg xmlns="http://www.w3.org/2000/svg" viewBox="0 0 1200 1200" width="1200" height="1200">
  <title>emoji_u1fa89</title>
  <path fill="#f4ae3b" d="M0 1200H400V1100H500V1000H800V900H1000V600H900V700H800V600H700V800H600V700H500V800H400V700H300V100H100V200H0V300H100V1000H0Z"/>
  <path fill="#ac5810" d="M0 1200H400V1100H700V1000H900V900H1000V800H1100V300H1000V200H800V300H600V200H400V100H200V200H100V300H200V1000H300V1100H0ZM300 1000V900H400V500H500V900H400V1000ZM800 800V500H900V800ZM600 900V600H700V900Z"/>
  <path fill="#464c50" d="M400 500H600V300H500V400H400ZM600 600H800V500H1000V300H900V400H700V500H600Z"/>
  <path fill="#6ca4ae" d="M400 500H500V900H600V600H700V800H800V500H600V400H400ZM800 500H900V700H1000V400H800Z"/>
  <path fill="#b78759" d="M400 500H500V400H400ZM800 500H900V400H800ZM600 600H700V500H600Z"/>
</svg>
