<?xml version="1.0" encoding="UTF-8"?>
<svg xmlns="http://www.w3.org/2000/svg" viewBox="0 0 1200 1200" width="1200" height="1200">
  <title>emoji_u26d1</title>
  <path fill="#784d30" d="M200 1000H300V900H200ZM800 1000H900V900H800ZM300 1100H400V1000H300ZM700 1100H800V1000H700ZM400 1200H700V1100H400Z"/>
  <path fill="#b0805c" d="M500 1200H600V1100H500Z"/>
  <path fill="#4f3320" d="M100 800H200V1000H300V900H800V1000H900V800H1000V700H100Z"/>
  <path fill="#c62828" d="M200 500H500V100H400V200H300V300H200ZM600 500H900V300H800V200H700V100H600ZM0 700H100V800H1000V700H1100V600H1000V500H900V600H200V500H100V600H0Z"/>
  <path fill="#f44336" d="M100 700H1000V400H900V300H800V400H700V100H400V400H300V300H200V400H100Z"/>
  <path fill="#ff7555" d="M200 500H300V400H200ZM200 700H400V600H200Z"/>
  <path fill="#fafafa" d="M400 500H500V600H600V500H700V400H600V300H500V400H400Z"/>
</svg>
