<?xml version="1.0" encoding="UTF-8"?>
<svg xmlns="http://www.w3.org/2000/svg" viewBox="0 0 1200 1200" width="1200" height="1200">
  <title>emoji_u1fad5</title>
  <path fill="#575757" d="M100 800H200V1000H300V800H400V700H100ZM700 800H800V1000H900V800H1000V700H700ZM100 1200H200V1000H100ZM900 1200H1000V1000H900Z"/>
  <path fill="#bf855e" d="M400 400H900V200H800V300H600V100H500V300H400ZM900 200H1000V100H900Z"/>
  <path fill="#e85400" d="M400 1200H700V1000H600V900H500V1000H400Z"/>
  <path fill="#fffde7" d="M500 1200H600V1000H500Z"/>
  <path fill="#e64a19" d="M0 700H100V800H1000V700H1100V500H1000V400H900V300H200V400H100V500H0Z"/>
  <path fill="#adadad" d="M400 600H900V400H800V300H700V400H600V300H500V400H400Z"/>
  <path fill="#ffca22" d="M500 1100H600V1000H500Z"/>
  <path fill="#fff9c4" d="M200 600H900V400H800V500H700V400H600V500H500V400H200Z"/>
</svg>
