<?xml version="1.0" encoding="UTF-8"?>
<svg xmlns="http://www.w3.org/2000/svg" viewBox="0 0 1200 1200" width="1200" height="1200">
  <title>emoji_u2663</title>
  <path fill="#606265" d="M0 1000H100V1100H300V1000H400V1200H700V1000H800V1100H1000V1000H1100V800H800V600H900V500H800V300H600V400H500V300H300V500H200V600H300V800H0ZM400 1000V900H500V1000ZM600 1000V900H700V1000Z"/>
  <path fill="#464c4f" d="M0 900H100V1000H300V900H400V800H500V1000H400V1100H700V1000H600V800H700V900H800V1000H1000V900H1100V600H1000V500H700V600H600V500H700V400H800V200H700V100H400V200H300V400H400V500H500V600H400V500H100V600H0Z"/>
</svg>
