<?xml version="1.0" encoding="UTF-8"?>
<svg xmlns="http://www.w3.org/2000/svg" viewBox="0 0 1200 1200" width="1200" height="1200">
  <title>emoji_u1f473_1f3fb_200d_2640</title>
  <path fill="#dddddd" d="M100 1200H1100V1100H1000V900H700V1000H500V900H200V1100H100Z"/>
  <path fill="#312d2d" d="M100 600H200V1000H1000V600H1100V500H700V600H500V500H100Z"/>
  <path fill="#d6d6d6" d="M100 600H1100V200H1000V100H200V200H100Z"/>
  <path fill="#b9bbbd" d="M700 200H1000V100H700ZM500 300H700V200H500ZM200 400H500V300H200ZM700 400H1100V300H700ZM100 600H400V700H800V600H900V500H700V400H500V500H200V400H100ZM1000 600H1100V500H1000ZM300 1000H400V1100H500V1200H700V1100H800V1000H900V900H300Z"/>
  <path fill="#edc391" d="M400 1000H500V1100H700V1000H800V900H400Z"/>
  <path fill="#f9ddbd" d="M300 1000H900V700H800V900H700V700H800V600H700V500H500V600H400V700H500V900H400V700H300Z"/>
</svg>
