<?xml version="1.0" encoding="UTF-8"?>
<svg xmlns="http://www.w3.org/2000/svg" viewBox="0 0 1200 1200" width="1200" height="1200">
  <title>emoji_u1f9a9</title>
  <path fill="#5f6369" d="M0 500H100V400H300V200H100V300H0Z"/>
  <path fill="#f2478d" d="M100 300H200V400H300V500H400V200H300V100H200V200H100Z"/>
  <path fill="#f77eae" d="M200 800H300V900H600V1100H500V1200H700V900H1100V600H1000V500H900V400H700V500H500V400H600V200H500V100H200V300H300V500H200Z"/>
  <path fill="#fa8699" d="M500 800H700V700H1100V600H1000V500H700V600H500Z"/>
  <path fill="#ffd4ac" d="M200 300H300V400H400V300H500V200H200Z"/>
  <path fill="#1a191e" d="M300 300H400V200H300Z"/>
</svg>
