<?xml version="1.0" encoding="UTF-8"?>
<svg xmlns="http://www.w3.org/2000/svg" viewBox="0 0 1200 1200" width="1200" height="1200">
  <title>emoji_u1f33e</title>
  <path fill="#94a61d" d="M0 800H100V1000H200V1100H300V1200H500V1100H600V1000H800V1100H900V900H800V800H400V700H300V400H200V500H100V400H0Z"/>
  <path fill="#ffbd13" d="M400 200H500V100H400ZM500 400H600V300H800V200H700V100H600V200H500ZM800 200H900V100H800ZM900 300H1100V200H900ZM300 400H400V300H300ZM800 400H900V300H800ZM300 1000H500V900H600V800H500V600H600V500H500V400H400V500H300ZM600 500H800V400H600ZM900 500H1000V400H900Z"/>
  <path fill="#717f35" d="M400 200H500V100H400ZM300 400H400V200H300ZM200 800H300V1000H400V500H300V400H200Z"/>
</svg>
