<?xml version="1.0" encoding="UTF-8"?>
<svg xmlns="http://www.w3.org/2000/svg" viewBox="0 0 1200 1200" width="1200" height="1200">
  <title>emoji_u1f590_1f3ff</title>
  <path fill="#58382b" d="M0 700H100V1000H200V1200H400V900H300V500H500V400H700V200H600V100H500V200H300V300H100V400H0ZM500 1000H800V900H1100V700H900V600H600V700H500Z"/>
  <path fill="#000000" d="M100 700H900V300H800V200H600V300H500V200H400V400H300V300H200V500H100ZM200 1200H800V1000H1000V900H1100V800H700V900H600V1000H300V1100H200Z"/>
  <path fill="#70534a" d="M100 700H200V1000H300V1100H700V1000H800V900H1000V800H700V900H600V800H700V700H800V300H700V600H600V300H500V600H400V400H300V600H200V500H100Z"/>
</svg>
