<?xml version="1.0" encoding="UTF-8"?>
<svg xmlns="http://www.w3.org/2000/svg" viewBox="0 0 1200 1200" width="1200" height="1200">
  <title>emoji_u1f335</title>
  <path fill="#59951b" d="M100 800H200V900H400V1100H300V1200H900V1100H800V1000H900V900H800V700H1000V600H1100V300H900V400H800V200H700V100H500V200H400V600H300V300H200V400H100Z"/>
  <path fill="#ffbf1b" d="M500 400H700V200H500ZM200 400H300V300H200ZM900 500H1000V300H900ZM100 600H200V500H100ZM200 700H300V600H200ZM500 1000H700V700H500ZM800 1000H900V900H800Z"/>
  <path fill="#ffe068" d="M500 600H700V300H500ZM900 600H1100V500H1000V400H900ZM200 800H400V700H300V600H200ZM400 1200H700V900H500V1100H400Z"/>
  <path fill="#8bc029" d="M300 1200H900V1100H700V900H600V800H700V300H600V200H500V400H600V500H500V1000H600V1100H300ZM800 600H1000V400H900V500H800ZM200 800H400V700H200Z"/>
</svg>
