<?xml version="1.0" encoding="UTF-8"?>
<svg xmlns="http://www.w3.org/2000/svg" viewBox="0 0 1200 1200" width="1200" height="1200">
  <title>emoji_u1f359</title>
  <path fill="#cdcbbf" d="M0 1000H100V1100H300V1200H400V800H200V700H300V500H400V400H500V300H600V400H700V500H800V700H900V800H700V1200H800V1100H1000V1000H1100V600H1000V400H900V300H800V200H700V100H400V200H300V300H200V400H100V600H0Z"/>
  <path fill="#3c3c3c" d="M200 900H300V1200H800V900H900V600H800V500H300V600H200Z"/>
  <path fill="#d4d4d4" d="M300 600H900V400H800V300H300ZM100 900H300V600H100ZM800 900H1000V700H800Z"/>
  <path fill="#ffffff" d="M100 900H300V700H400V600H700V700H800V900H900V800H1000V600H900V400H800V500H700V400H800V300H700V200H400V300H300V400H200V600H100V700H200V800H100ZM400 500V400H500V500ZM400 800H500V700H400Z"/>
  <path fill="#858585" d="M400 1100H500V800H600V700H400Z"/>
</svg>
