<?xml version="1.0" encoding="UTF-8"?>
<svg xmlns="http://www.w3.org/2000/svg" viewBox="0 0 1200 1200" width="1200" height="1200">
  <title>emoji_u1f91a</title>
  <path fill="#faa700" d="M0 1100H100V1200H900V900H500V500H1000V300H900V200H700V100H400V200H300V500H200V400H0Z"/>
  <path fill="#b55e19" d="M400 200H500V100H400ZM600 200H700V100H600ZM400 900H600V1000H800V1100H700V1200H900V1100H1000V300H900V400H800V300H900V200H700V400H600V200H500V400H400ZM100 900H300V500H200V400H100Z"/>
  <path fill="#ffca28" d="M100 1100H200V1200H800V1100H900V400H800V900H700V400H600V800H500V400H400V900H300V800H200V500H100ZM300 1100V1000H400V1100ZM500 1100V1000H600V1100ZM700 1100V1000H800V1100Z"/>
</svg>
