<?xml version="1.0" encoding="UTF-8"?>
<svg xmlns="http://www.w3.org/2000/svg" viewBox="0 0 1200 1200" width="1200" height="1200">
  <title>emoji_u1f424</title>
  <path fill="#fa9100" d="M0 400H100V500H300V200H100V300H0Z"/>
  <path fill="#fc9301" d="M300 1200H700V1000H800V900H900V500H600V600H400V800H300V900H400V1100H300ZM500 1100V1000H600V1100Z"/>
  <path fill="#ffb903" d="M100 500H200V800H300V900H500V1000H600V900H700V1000H800V900H1000V800H1100V500H900V400H700V200H600V100H200V200H100V300H200V400H100ZM500 800V700H700V600H800V800Z"/>
  <path fill="#2f302b" d="M300 400H400V300H300Z"/>
</svg>
