<?xml version="1.0" encoding="UTF-8"?>
<svg xmlns="http://www.w3.org/2000/svg" viewBox="0 0 1200 1200" width="1200" height="1200">
  <title>emoji_u1f337</title>
  <path fill="#7cb342" d="M100 1100H200V1200H400V1100H500V1000H400V900H300V700H200V800H100ZM500 1200H1000V1100H1100V800H900V900H800V1100H700V800H800V700H500V800H600V1100H500Z"/>
  <path fill="#bdcf46" d="M200 900H300V700H200ZM800 800H900V700H800ZM900 900H1000V800H900ZM300 1000H400V900H300ZM800 1100H900V900H800ZM400 1100H500V1000H400ZM700 1200H800V1100H700Z"/>
  <path fill="#ea4e9c" d="M300 400H500V600H800V400H1000V200H900V100H800V200H700V100H600V200H500V100H300Z"/>
  <path fill="#f387ab" d="M300 600H400V800H900V600H1000V300H900V200H800V300H700V500H600V300H500V200H400V300H300ZM600 300H700V200H600Z"/>
</svg>
