<?xml version="1.0" encoding="UTF-8"?>
<svg xmlns="http://www.w3.org/2000/svg" viewBox="0 0 1200 1200" width="1200" height="1200">
  <title>emoji_u1f92a</title>
  <path fill="#eb8f00" d="M0 1000H100V1100H200V1200H900V1100H1000V1000H1100V300H1000V200H900V100H200V200H100V300H0Z"/>
  <path fill="#ff4081" d="M300 1100H400V1200H600V1100H800V800H300Z"/>
  <path fill="#e64068" d="M400 900H500V1100H600V900H700V800H400Z"/>
  <path fill="#fde030" d="M100 1000H200V1100H400V900H700V1100H900V1000H1000V300H900V200H200V300H100Z"/>
  <path fill="#36240e" d="M200 900H300V1000H400V900H700V1000H800V900H900V700H700V800H200Z"/>
  <path fill="#ffffff" d="M600 600H900V300H600ZM200 600H300V700H400V600H500V500H400V400H300V500H200Z"/>
  <path fill="#422b0d" d="M700 500H800V400H700ZM300 600H400V500H300Z"/>
</svg>
