<?xml version="1.0" encoding="UTF-8"?>
<svg xmlns="http://www.w3.org/2000/svg" viewBox="0 0 1200 1200" width="1200" height="1200">
  <title>emoji_u1f9f5</title>
  <path fill="#e6a467" d="M300 300H1000V200H900V100H400V200H300ZM300 1200H1000V1000H300Z"/>
  <path fill="#016ebb" d="M600 1000H900V300H600Z"/>
  <path fill="#34bafa" d="M300 600H400V1000H700V300H400V500H300Z"/>
  <path fill="#f7cf92" d="M300 300H400V400H900V300H1000V200H300ZM300 1100H1000V1000H900V900H400V1000H300Z"/>
  <path fill="#0d47a1" d="M400 400H600V500H700V400H900V300H400Z"/>
  <path fill="#0091ea" d="M300 600H600V700H400V800H600V900H400V1000H900V900H700V800H900V700H700V600H900V500H700V400H600V500H300ZM200 700H300V600H200ZM100 1000H200V700H100Z"/>
</svg>
