<?xml version="1.0" encoding="UTF-8"?>
<svg xmlns="http://www.w3.org/2000/svg" viewBox="0 0 1200 1200" width="1200" height="1200">
  <title>emoji_u1f977_1f3ff</title>
  <path fill="#ffa000" d="M0 700H100V800H200V700H300V600H200V500H100V600H0Z"/>
  <path fill="#3e3e3e" d="M100 800H200V900H300V1200H1100V300H1000V200H500V300H400V700H300V600H100Z"/>
  <path fill="#ffc107" d="M100 700H200V600H100ZM200 800H300V700H200ZM300 900H400V800H300Z"/>
  <path fill="#70534a" d="M500 700H1000V400H500ZM600 600V500H700V600ZM800 600V500H900V600Z"/>
</svg>
