<?xml version="1.0" encoding="UTF-8"?>
<svg xmlns="http://www.w3.org/2000/svg" viewBox="0 0 1200 1200" width="1200" height="1200">
  <title>emoji_u1f6c0</title>
  <path fill="#bdbdbd" d="M800 400H900V300H800ZM700 500H800V400H700ZM800 700H1100V600H1000V400H900V600H800ZM100 1000H200V1200H300V1100H400V900H100ZM700 1100H800V1200H900V1000H1000V900H700Z"/>
  <path fill="#80deea" d="M700 200H800V100H700ZM500 300H600V200H500Z"/>
  <path fill="#593d34" d="M100 700H400V600H500V400H200V600H100Z"/>
  <path fill="#78909c" d="M700 500H800V400H700Z"/>
  <path fill="#b7d5e5" d="M0 700H100V1000H300V1100H800V1000H1000V700H1100V600H500V500H300V600H0Z"/>
  <path fill="#ffca28" d="M300 600H500V500H300ZM200 700H300V600H200Z"/>
  <path fill="#ffffff" d="M100 800H200V1000H400V700H300V600H100Z"/>
  <path fill="#69a1ba" d="M100 800H300V900H900V800H1000V700H100Z"/>
  <path fill="#eeeeee" d="M300 1000H900V800H300Z"/>
</svg>
