<?xml version="1.0" encoding="UTF-8"?>
<svg xmlns="http://www.w3.org/2000/svg" viewBox="0 0 1200 1200" width="1200" height="1200">
  <title>emoji_u1f9e9</title>
  <path fill="#b0b0af" d="M400 400H500V500H600V200H400ZM100 700H200V1100H400V1000H500V1100H600V1200H700V1100H800V900H700V800H900V900H1000V800H1100V600H1000V300H800V600H600V800H400V600H300V500H100Z"/>
  <path fill="#b7d118" d="M400 300H500V500H900V400H1000V200H800V300H700V200H600V100H500V200H400Z"/>
  <path fill="#accf1b" d="M100 600H1000V500H900V400H500V500H300V400H200V500H100Z"/>
  <path fill="#3ab738" d="M200 1000H400V900H500V1000H800V900H700V700H300V800H200Z"/>
  <path fill="#02ab46" d="M200 1000H400V900H200ZM500 1000H600V1100H700V1000H800V900H500Z"/>
  <path fill="#9bcb1f" d="M100 600H200V700H1100V600H1000V500H100Z"/>
  <path fill="#83c625" d="M200 700H300V800H700V700H900V800H1000V700H1100V600H200Z"/>
  <path fill="#59bd30" d="M300 800H700V700H300ZM900 800H1000V700H900Z"/>
</svg>
