<?xml version="1.0" encoding="UTF-8"?>
<svg xmlns="http://www.w3.org/2000/svg" viewBox="0 0 1200 1200" width="1200" height="1200">
  <title>emoji_u1f506</title>
  <path fill="#ffa624" d="M500 300H600V100H500ZM100 300H200V200H100ZM900 300H1000V200H900ZM200 400H300V300H200ZM800 400H900V300H800ZM400 500H700V400H400ZM300 800H400V500H300ZM700 800H800V500H700ZM0 700H200V600H0ZM900 700H1100V600H900ZM400 900H700V800H400ZM200 1000H300V900H200ZM800 1000H900V900H800ZM100 1100H200V1000H100ZM500 1200H600V1000H500ZM900 1100H1000V1000H900Z"/>
</svg>
