<?xml version="1.0" encoding="UTF-8"?>
<svg xmlns="http://www.w3.org/2000/svg" viewBox="0 0 1200 1200" width="1200" height="1200">
  <title>emoji_u1f344</title>
  <path fill="#c4a878" d="M200 1100H300V1200H800V1100H900V900H800V800H900V700H200V800H300V900H200Z"/>
  <path fill="#ff521a" d="M0 700H100V800H1000V700H1100V300H1000V200H900V100H200V200H100V300H0Z"/>
  <path fill="#e8d4af" d="M200 1100H700V900H200Z"/>
  <path fill="#ffffff" d="M300 300H400V400H500V300H600V200H300ZM700 400H800V500H1000V300H900V200H700ZM100 500H200V400H300V300H100ZM400 600H500V700H600V600H700V400H500V500H400ZM100 700H300V500H200V600H100ZM900 700H1000V600H900Z"/>
</svg>
