<?xml version="1.0" encoding="UTF-8"?>
<svg xmlns="http://www.w3.org/2000/svg" viewBox="0 0 1200 1200" width="1200" height="1200">
  <title>emoji_u1f3ab</title>
  <path fill="#e2a610" d="M0 400H600V300H700V400H1100V200H0Z"/>
  <path fill="#a65f3e" d="M600 300H700V200H600ZM0 1000H600V900H700V1000H1100V800H800V300H700V400H600V300H500V800H0ZM600 700V600H700V700Z"/>
  <path fill="#ffd54f" d="M0 900H600V800H700V900H1100V300H700V400H600V300H0ZM600 700V500H700V700Z"/>
  <path fill="#715435" d="M100 400H500V300H100ZM100 600H400V500H100ZM800 800H1000V700H800Z"/>
  <path fill="#b69048" d="M800 600H1000V400H800ZM100 800H200V700H100ZM300 800H500V700H300Z"/>
</svg>
