<?xml version="1.0" encoding="UTF-8"?>
<svg xmlns="http://www.w3.org/2000/svg" viewBox="0 0 1200 1200" width="1200" height="1200">
  <title>emoji_u1f3d4</title>
  <path fill="#88b154" d="M0 1200H1100V1000H0Z"/>
  <path fill="#c6e4f7" d="M0 1100H200V1000H300V700H600V300H700V200H600V100H500V200H400V400H300V500H200V700H100V900H0Z"/>
  <path fill="#33632c" d="M200 1100H1100V800H900V900H500V800H200Z"/>
  <path fill="#c0c0c0" d="M200 900H400V1000H300V1100H600V1000H700V1100H800V1000H900V1100H1000V900H1100V800H500V600H400V500H300V600H200Z"/>
  <path fill="#8cc2ea" d="M100 1000H300V900H400V1000H500V900H800V1000H900V900H1100V800H1000V600H900V500H800V400H700V200H500V700H400V800H200V900H100ZM300 1100H400V1000H300Z"/>
  <path fill="#ffffff" d="M300 700H400V900H500V800H600V600H700V400H600V200H500V600H400V500H300ZM700 900H800V1000H900V600H800V800H700ZM1000 900H1100V800H1000ZM100 1100H400V1000H300V900H100Z"/>
  <path fill="#798082" d="M300 700H400V600H300ZM400 900H500V700H400ZM800 1000H900V900H800ZM700 1100H800V1000H700ZM900 1100H1000V1000H900Z"/>
</svg>
