<?xml version="1.0" encoding="UTF-8"?>
<svg xmlns="http://www.w3.org/2000/svg" viewBox="0 0 1200 1200" width="1200" height="1200">
  <title>emoji_u1f1f9_1f1f7</title>
  <path fill="#e30a17" d="M0 1000H1100V300H0Z"/>
  <path fill="#e83641" d="M200 600H500V400H300V500H200ZM200 800H300V900H500V700H200Z"/>
  <path fill="#e72a35" d="M300 800H400V900H500V800H600V500H500V400H400V500H300V600H500V700H300Z"/>
  <path fill="#e4121f" d="M500 800H700V500H500Z"/>
  <path fill="#e41421" d="M500 800H600V700H700V600H600V500H500Z"/>
  <path fill="#ef737b" d="M200 800H400V700H300V600H400V500H200Z"/>
  <path fill="#f39298" d="M200 800H300V500H200Z"/>
  <path fill="#fbd8da" d="M200 700H300V600H200Z"/>
  <path fill="#e72d38" d="M500 700H700V600H500Z"/>
  <path fill="#f6adb1" d="M600 700H700V600H600Z"/>
</svg>
