<?xml version="1.0" encoding="UTF-8"?>
<svg xmlns="http://www.w3.org/2000/svg" viewBox="0 0 1200 1200" width="1200" height="1200">
  <title>emoji_u1f937</title>
  <path fill="#be6716" d="M0 800H200V600H0ZM900 800H1100V600H900Z"/>
  <path fill="#62453b" d="M200 600H300V700H400V500H500V400H600V500H700V700H800V600H900V200H800V100H300V200H200ZM100 700H200V600H100ZM900 700H1000V600H900Z"/>
  <path fill="#f09e00" d="M0 900H300V800H200V600H100V700H0ZM800 900H1100V700H1000V600H900V800H800Z"/>
  <path fill="#f06e00" d="M0 1000H100V1100H200V1200H900V1100H1000V1000H1100V800H800V700H300V800H0Z"/>
  <path fill="#ffca26" d="M300 800H800V400H700V300H400V400H300ZM100 700H200V600H100ZM900 700H1000V600H900Z"/>
  <path fill="#da4c00" d="M200 1000H300V1100H400V800H500V900H600V800H700V1100H800V1000H900V800H800V700H300V800H200Z"/>
  <path fill="#3f4040" d="M400 600H500V400H400ZM600 600H700V400H600Z"/>
  <path fill="#e59502" d="M500 800H600V700H500Z"/>
</svg>
