<?xml version="1.0" encoding="UTF-8"?>
<svg xmlns="http://www.w3.org/2000/svg" viewBox="0 0 1200 1200" width="1200" height="1200">
  <title>emoji_u1f549</title>
  <path fill="#8e24aa" d="M0 1100H100V1200H1000V1100H1100V200H1000V100H900V1000H0Z"/>
  <path fill="#ab47bc" d="M0 1100H1000V100H100V200H0Z"/>
  <path fill="#c37dcf" d="M200 300H300V200H200ZM100 400H200V300H100Z"/>
  <path fill="#fafafa" d="M600 300H700V200H600ZM800 400H900V300H800ZM500 500H800V400H500ZM200 600H400V500H200ZM100 700H200V600H100ZM400 700H500V600H400ZM700 700H900V600H700ZM300 900H400V1000H500V900H600V800H400V700H300ZM600 800H700V700H600ZM900 900H1000V700H900ZM100 1000H200V900H100ZM700 1000H900V900H700ZM200 1100H400V1000H200Z"/>
</svg>
