<?xml version="1.0" encoding="UTF-8"?>
<svg xmlns="http://www.w3.org/2000/svg" viewBox="0 0 1200 1200" width="1200" height="1200">
  <title>emoji_u1f1e8_1f1eb</title>
  <path fill="#ffce00" d="M0 1000H500V800H0ZM600 1000H1100V800H600Z"/>
  <path fill="#003082" d="M0 500H500V300H0ZM600 500H1100V300H600Z"/>
  <path fill="#572362" d="M300 500H800V400H700V300H400V400H300Z"/>
  <path fill="#ec7f16" d="M300 900H400V1000H700V900H800V800H300Z"/>
  <path fill="#1e4373" d="M100 500H400V400H300V300H100Z"/>
  <path fill="#516259" d="M0 500H300V400H200V300H100V400H0Z"/>
  <path fill="#3f63a1" d="M0 600H500V400H0ZM600 600H1100V400H600Z"/>
  <path fill="#cac00a" d="M0 900H500V700H0ZM600 900H1100V700H600Z"/>
  <path fill="#289728" d="M0 800H400V900H500V600H0ZM600 900H700V800H1100V600H600Z"/>
  <path fill="#ffffff" d="M0 700H500V400H400V500H300V400H100V500H0ZM600 700H1100V500H700V400H600Z"/>
  <path fill="#d21034" d="M400 900H500V1000H600V900H700V400H600V300H500V400H400Z"/>
  <path fill="#94cb94" d="M0 700H400V800H500V500H400V600H0ZM600 800H700V700H1100V600H700V500H600Z"/>
  <path fill="#7c4174" d="M400 600H500V400H400ZM600 600H700V400H600Z"/>
  <path fill="#cd771c" d="M400 900H500V700H400ZM600 900H700V700H600Z"/>
  <path fill="#577294" d="M100 500H300V400H100Z"/>
  <path fill="#728387" d="M100 500H200V400H100Z"/>
  <path fill="#6e5f2d" d="M400 800H500V600H400ZM600 800H700V600H600Z"/>
  <path fill="#ec9cab" d="M400 700H500V500H400ZM600 700H700V500H600Z"/>
  <path fill="#ad7e6c" d="M400 700H500V600H400ZM600 700H700V600H600Z"/>
</svg>
