<?xml version="1.0" encoding="UTF-8"?>
<svg xmlns="http://www.w3.org/2000/svg" viewBox="0 0 1200 1200" width="1200" height="1200">
  <title>emoji_u1f41f</title>
  <path fill="#1b65a6" d="M0 700H100V800H300V900H400V800H600V900H700V800H800V700H900V800H1100V700H1000V500H1100V300H1000V400H900V500H800V400H700V300H600V400H400V300H300V400H100V500H0Z"/>
  <path fill="#67c4e9" d="M100 800H800V600H700V700H500V600H100Z"/>
  <path fill="#1584bd" d="M100 600H800V500H700V400H100Z"/>
  <path fill="#262d33" d="M100 700H400V500H100Z"/>
  <path fill="#42a8d6" d="M100 700H500V500H300V600H200V500H100ZM600 600H700V700H800V500H600Z"/>
  <path fill="#e0ecf3" d="M300 600H400V700H500V600H800V500H300Z"/>
  <path fill="#2490c5" d="M100 600H200V500H100ZM300 600H500V500H300Z"/>
</svg>
