<?xml version="1.0" encoding="UTF-8"?>
<svg xmlns="http://www.w3.org/2000/svg" viewBox="0 0 1200 1200" width="1200" height="1200">
  <title>emoji_u1f680</title>
  <path fill="#f7d74d" d="M100 800H200V700H100ZM400 800H500V700H400ZM0 900H100V800H0ZM300 900H400V800H300ZM200 1000H300V900H200ZM100 1100H200V1000H100ZM400 1100H500V1000H400ZM300 1200H400V1100H300Z"/>
  <path fill="#a02422" d="M800 600H900V500H1000V400H1100V200H900V300H800ZM100 500H200V600H300V500H600V400H500V300H100ZM600 1000H700V1100H900V700H800V600H700V900H600Z"/>
  <path fill="#fbf0b4" d="M0 900H100V800H0ZM200 1000H300V900H200ZM300 1200H400V1100H300Z"/>
  <path fill="#ed6a65" d="M600 400H900V300H1000V100H800V200H700V300H600Z"/>
  <path fill="#b3e1ee" d="M500 500H800V300H600V400H500Z"/>
  <path fill="#3f545f" d="M600 800H800V600H900V500H600Z"/>
  <path fill="#ca2c31" d="M100 400H200V600H300V700H400V800H500V900H600V1000H800V1100H900V800H800V700H700V500H600V400H400V300H100Z"/>
  <path fill="#437687" d="M700 600H900V400H700ZM500 900H600V800H700V600H600V700H500Z"/>
  <path fill="#d83f22" d="M700 500H900V400H1000V300H1100V100H900V200H800V300H700Z"/>
  <path fill="#8dafbf" d="M300 700H500V600H600V700H700V600H800V500H900V400H800V300H700V400H500V500H400V600H300ZM500 800H600V700H500Z"/>
  <path fill="#6896a5" d="M500 500H600V400H500ZM700 500H800V400H700ZM600 600H700V500H600Z"/>
  <path fill="#e1e1e1" d="M700 500H800V400H700Z"/>
</svg>
