<?xml version="1.0" encoding="UTF-8"?>
<svg xmlns="http://www.w3.org/2000/svg" viewBox="0 0 1200 1200" width="1200" height="1200">
  <title>emoji_u1f399</title>
  <path fill="#ffffff" d="M300 600H500V100H400V200H300Z"/>
  <path fill="#82aec0" d="M300 900H400V1000H500V1200H700V1000H800V900H900V800H300Z"/>
  <path fill="#2f7889" d="M300 900H900V200H800V100H400V300H300V400H400V500H300Z"/>
  <path fill="#b9e4ea" d="M300 900H900V800H800V700H900V600H800V500H900V400H800V300H900V200H700V100H500V200H400V600H300V700H400V800H300ZM500 400V300H700V400ZM500 600V500H700V600ZM500 800V700H700V800Z"/>
</svg>
