<?xml version="1.0" encoding="UTF-8"?>
<svg xmlns="http://www.w3.org/2000/svg" viewBox="0 0 1200 1200" width="1200" height="1200">
  <title>emoji_u1f496</title>
  <path fill="#da2e75" d="M100 300H300V400H400V500H700V300H800V400H900V500H800V800H1100V700H1000V600H1100V300H1000V200H900V100H700V200H600V300H500V200H400V100H200V200H100ZM400 1000H500V1100H600V1000H700V1100H800V800H500V900H400Z"/>
  <path fill="#f4b400" d="M200 700H500V400H200ZM600 900H700V1100H800V900H900V800H1000V700H700V800H600Z"/>
  <path fill="#ef5592" d="M0 600H100V700H200V800H300V900H400V1000H600V900H700V700H900V600H1000V300H900V200H600V400H500V300H400V200H100V300H0ZM300 600V500H400V600Z"/>
  <path fill="#fff176" d="M200 300H300V200H200ZM200 500H500V400H400V300H300V400H200ZM600 700H700V800H1100V700H900V600H800V400H700V600H600Z"/>
  <path fill="#f386ab" d="M200 300H300V200H200ZM100 400H200V300H100ZM200 500H300V400H200Z"/>
  <path fill="#fdd835" d="M200 500H400V400H200ZM400 800H600V900H800V800H900V700H800V600H600V700H400Z"/>
</svg>
