<?xml version="1.0" encoding="UTF-8"?>
<svg xmlns="http://www.w3.org/2000/svg" viewBox="0 0 1200 1200" width="1200" height="1200">
  <title>emoji_u1fab5</title>
  <path fill="#633d35" d="M200 1200H400V1100H500V1000H200Z"/>
  <path fill="#965b44" d="M600 1200H800V1100H900V800H1000V600H900V300H700V1000H600Z"/>
  <path fill="#ce8963" d="M200 1100H500V1200H700V1000H800V400H900V300H800V200H700V100H400V200H300V300H200V600H300V700H200Z"/>
  <path fill="#ad7156" d="M300 400H400V300H300ZM200 1200H300V1100H400V1000H500V1100H600V1200H700V1100H800V800H900V700H800V500H700V600H400V500H300V400H200ZM600 900V700H700V900ZM300 1000V800H400V1000ZM400 500H500V400H400ZM600 500H700V400H600ZM900 700H1000V600H900Z"/>
  <path fill="#ffcc80" d="M300 400H400V500H700V400H800V300H700V200H400V300H300Z"/>
  <path fill="#a86739" d="M400 400H700V300H400Z"/>
</svg>
