<?xml version="1.0" encoding="UTF-8"?>
<svg xmlns="http://www.w3.org/2000/svg" viewBox="0 0 1200 1200" width="1200" height="1200">
  <title>emoji_u27b0</title>
  <path fill="#464c4f" d="M0 300H200V400H400V500H300V600H200V1100H300V1200H800V1100H900V900H700V1000H400V600H500V500H600V600H800V500H700V400H900V300H1100V100H900V200H700V300H400V200H200V100H0Z"/>
  <path fill="#9a9a99" d="M0 200H200V100H0ZM900 200H1000V100H900ZM700 300H900V200H700ZM400 500H500V400H700V300H400ZM300 600H400V500H300ZM200 700H300V600H200ZM500 1100H800V1000H900V800H700V1000H500Z"/>
  <path fill="#606265" d="M100 200H200V100H100ZM900 200H1100V100H900ZM200 300H400V200H200ZM700 300H800V200H700ZM400 400H500V300H400ZM600 400H700V300H600ZM600 600H700V900H800V1000H900V600H800V500H600ZM200 1000H300V1100H600V1000H400V900H300V600H200ZM700 1100H800V1000H700Z"/>
</svg>
