<?xml version="1.0" encoding="UTF-8"?>
<svg xmlns="http://www.w3.org/2000/svg" viewBox="0 0 1200 1200" width="1200" height="1200">
  <title>emoji_u1f9ff</title>
  <path fill="#1851ed" d="M0 800H100V1000H200V1100H400V1200H700V1100H900V1000H1000V800H1100V500H1000V300H900V200H700V100H400V200H200V300H100V500H0Z"/>
  <path fill="#0b96f7" d="M300 300H400V200H300ZM200 400H300V300H200ZM400 400H500V300H400ZM300 500H400V400H300ZM100 600H200V700H300V500H100Z"/>
  <path fill="#0630a6" d="M100 900H200V1000H300V1100H800V1000H900V900H1000V500H900V400H700V600H800V700H700V800H600V900H500V800H400V700H200V800H100Z"/>
  <path fill="#f5f5f5" d="M200 800H300V900H400V1000H700V900H800V800H900V500H800V400H700V300H400V400H300V500H200Z"/>
  <path fill="#5ac7f0" d="M400 800H700V500H400Z"/>
  <path fill="#212121" d="M500 700H600V600H500Z"/>
</svg>
