<?xml version="1.0" encoding="UTF-8"?>
<svg xmlns="http://www.w3.org/2000/svg" viewBox="0 0 1200 1200" width="1200" height="1200">
  <title>emoji_u1f371</title>
  <path fill="#64696c" d="M0 1100H100V1200H1000V1100H1100V900H0Z"/>
  <path fill="#505152" d="M0 1000H1100V200H1000V100H100V200H0Z"/>
  <path fill="#a94230" d="M100 900H1000V200H100Z"/>
  <path fill="#f2c548" d="M200 500H500V300H300V400H200Z"/>
  <path fill="#f2ae47" d="M400 400H500V300H400ZM300 500H400V400H300Z"/>
  <path fill="#fefffe" d="M600 800H800V700H900V400H800V300H600Z"/>
  <path fill="#a12422" d="M200 700H300V800H500V600H200Z"/>
  <path fill="#ec5f32" d="M700 600H800V500H700Z"/>
  <path fill="#dd733f" d="M300 700H400V600H300ZM400 800H500V700H400Z"/>
</svg>
