<?xml version="1.0" encoding="UTF-8"?>
<svg xmlns="http://www.w3.org/2000/svg" viewBox="0 0 1200 1200" width="1200" height="1200">
  <title>emoji_u1f1f8_1f1f9</title>
  <path fill="#5d6f2f" d="M0 500H200V300H0ZM0 1000H200V800H0Z"/>
  <path fill="#cc1534" d="M0 600H200V300H100V400H0ZM0 900H100V1000H200V700H0Z"/>
  <path fill="#d21034" d="M0 800H100V900H200V800H300V500H200V400H100V500H0Z"/>
  <path fill="#12ad2b" d="M100 600H1100V300H100ZM100 1000H1100V700H100Z"/>
  <path fill="#ffce00" d="M200 800H500V500H200ZM800 800H1100V500H800Z"/>
  <path fill="#fece00" d="M200 800H1100V700H900V600H1100V500H200ZM300 700V600H400V700Z"/>
  <path fill="#3a8d2d" d="M100 600H300V500H200V400H100ZM100 900H200V800H300V700H100Z"/>
  <path fill="#d7262e" d="M100 800H300V500H100V600H200V700H100Z"/>
  <path fill="#eec100" d="M400 700H900V500H800V600H600V500H500V600H400Z"/>
  <path fill="#fabf04" d="M200 800H300V500H200Z"/>
  <path fill="#695500" d="M700 800H900V600H700Z"/>
  <path fill="#e6651d" d="M200 700H300V600H200Z"/>
  <path fill="#ebbe00" d="M400 700H500V800H600V700H700V600H400Z"/>
  <path fill="#f3c500" d="M700 800H900V700H800V600H700Z"/>
  <path fill="#f6c700" d="M600 700H700V800H800V600H600Z"/>
  <path fill="#f8c800" d="M400 700H800V600H400Z"/>
  <path fill="#534300" d="M500 700H600V600H500Z"/>
  <path fill="#d9b000" d="M700 700H800V600H700Z"/>
</svg>
