<?xml version="1.0" encoding="UTF-8"?>
<svg xmlns="http://www.w3.org/2000/svg" viewBox="0 0 1200 1200" width="1200" height="1200">
  <title>emoji_u1f368</title>
  <path fill="#f5b03e" d="M1000 200H1100V100H1000ZM700 500H1000V400H900V300H800V200H700ZM900 300H1000V200H900Z"/>
  <path fill="#fffffd" d="M0 800H100V900H200V1000H400V1100H300V1200H600V900H400V800H300V700H0Z"/>
  <path fill="#dc0d27" d="M400 300H700V200H600V100H500V200H400Z"/>
  <path fill="#6fa3b0" d="M200 1200H900V1100H700V1000H900V900H1000V800H1100V700H800V800H400V1000H500V1100H200Z"/>
  <path fill="#fea9a6" d="M100 500H700V400H800V200H300V300H200V400H100Z"/>
  <path fill="#865c50" d="M0 800H300V700H600V400H400V300H300V400H100V700H0Z"/>
  <path fill="#bbced3" d="M100 800H200V900H300V1000H500V900H900V800H1000V700H100ZM500 1100H600V1000H500Z"/>
  <path fill="#ffebca" d="M500 700H1000V400H800V300H600V400H500Z"/>
  <path fill="#eac183" d="M400 800H1100V700H1000V500H900V600H800V500H700V600H600V500H500V600H400Z"/>
  <path fill="#dfeef5" d="M0 800H1100V700H500V600H200V700H0Z"/>
  <path fill="#6c4d42" d="M400 500H500V600H600V400H400ZM100 600H200V500H100ZM200 700H500V600H400V500H300V600H200Z"/>
  <path fill="#fe7c84" d="M500 300H600V200H500ZM300 400H400V300H300ZM600 400H800V300H600ZM400 500H600V400H400Z"/>
</svg>
