<?xml version="1.0" encoding="UTF-8"?>
<svg xmlns="http://www.w3.org/2000/svg" viewBox="0 0 1200 1200" width="1200" height="1200">
  <title>emoji_u1f1f8_1f1e8</title>
  <path fill="#007a3d" d="M400 1000H1100V700H900V800H400Z"/>
  <path fill="#967b66" d="M0 1000H200V800H0Z"/>
  <path fill="#0e8147" d="M300 1000H500V900H600V800H300Z"/>
  <path fill="#37607c" d="M0 900H100V1000H200V700H0Z"/>
  <path fill="#419c6f" d="M200 1000H400V900H500V800H200Z"/>
  <path fill="#77b392" d="M100 1000H300V900H400V800H100Z"/>
  <path fill="#95996a" d="M200 500H500V300H200Z"/>
  <path fill="#9f8773" d="M100 1000H200V900H300V800H100Z"/>
  <path fill="#c4e0d2" d="M900 900H1000V800H1100V600H900Z"/>
  <path fill="#d8312a" d="M600 500H900V300H600Z"/>
  <path fill="#e88989" d="M900 700H1100V400H900Z"/>
  <path fill="#f3ad4b" d="M500 500H800V400H700V300H500Z"/>
  <path fill="#003f87" d="M0 800H100V900H200V700H300V500H400V400H300V300H0Z"/>
  <path fill="#fcd856" d="M200 700H500V600H600V500H700V400H600V300H400V400H200Z"/>
  <path fill="#d62828" d="M400 800H800V700H1000V500H1100V300H800V400H500V500H400Z"/>
  <path fill="#ffffff" d="M600 900H1000V700H1100V600H1000V500H900V600H700V700H600Z"/>
  <path fill="#057c40" d="M800 900H1000V700H900V800H800Z"/>
  <path fill="#225480" d="M200 600H300V500H400V400H200Z"/>
  <path fill="#2c5a7e" d="M100 800H300V500H200V600H100Z"/>
  <path fill="#319462" d="M900 800H1000V700H900ZM700 900H900V800H700Z"/>
  <path fill="#67b08c" d="M600 900H800V800H700V700H600Z"/>
  <path fill="#9dccb5" d="M500 900H700V700H500Z"/>
  <path fill="#aea965" d="M100 900H300V600H200V700H100Z"/>
  <path fill="#d4e8de" d="M400 900H600V800H700V700H400Z"/>
  <path fill="#d72f2a" d="M500 600H600V500H700V400H500Z"/>
  <path fill="#d93636" d="M800 700H1000V500H900V600H800Z"/>
  <path fill="#da3c3b" d="M100 900H400V700H200V800H100Z"/>
  <path fill="#ea9191" d="M200 800H300V900H500V700H200Z"/>
  <path fill="#eb8b42" d="M200 800H300V700H200ZM100 900H200V800H100Z"/>
  <path fill="#f2a849" d="M400 600H600V400H500V500H400Z"/>
  <path fill="#f6faf8" d="M800 700H900V800H1000V600H800Z"/>
  <path fill="#f7d557" d="M300 500H400V400H300ZM200 600H300V500H200ZM400 600H500V500H400Z"/>
  <path fill="#f8e7e6" d="M300 800H400V900H500V800H600V700H300Z"/>
  <path fill="#fdf6f6" d="M800 700H1000V600H800Z"/>
  <path fill="#a1a168" d="M200 700H400V600H300V500H200Z"/>
  <path fill="#d62a28" d="M200 800H500V600H200Z"/>
  <path fill="#d72c2c" d="M300 700H400V800H600V700H500V600H300Z"/>
  <path fill="#d72d29" d="M400 700H500V600H600V500H400Z"/>
  <path fill="#e47171" d="M400 700H500V600H400ZM500 800H700V700H500Z"/>
  <path fill="#ed9344" d="M200 800H300V700H400V600H200Z"/>
  <path fill="#efaaaa" d="M700 700H900V600H700Z"/>
  <path fill="#f0a248" d="M300 700H500V500H400V600H300Z"/>
  <path fill="#f5cccc" d="M700 700H800V600H700ZM600 800H700V700H600Z"/>
  <path fill="#fad756" d="M200 700H400V600H200Z"/>
  <path fill="#d72b29" d="M300 700H500V600H300Z"/>
  <path fill="#de5050" d="M700 700H800V600H700Z"/>
  <path fill="#ef9b46" d="M300 700H400V600H300Z"/>
</svg>
