<?xml version="1.0" encoding="UTF-8"?>
<svg xmlns="http://www.w3.org/2000/svg" viewBox="0 0 1200 1200" width="1200" height="1200">
  <title>emoji_u1f1f9_1f1eb</title>
  <path fill="#12329c" d="M0 700H200V400H0Z"/>
  <path fill="#2946a6" d="M600 1000H900V800H600Z"/>
  <path fill="#723678" d="M300 600H600V300H300Z"/>
  <path fill="#8999ce" d="M0 500H100V600H300V300H0Z"/>
  <path fill="#ed2939" d="M200 600H500V500H400V300H200Z"/>
  <path fill="#fef2f3" d="M100 600H400V500H300V300H200V500H100Z"/>
  <path fill="#002395" d="M0 500H100V300H0ZM0 1000H700V900H800V1000H1100V300H500V500H100V600H0Z"/>
  <path fill="#0e2f9b" d="M800 900H900V800H1000V600H800Z"/>
  <path fill="#15359e" d="M800 800H900V700H1000V600H800Z"/>
  <path fill="#2d4aa8" d="M500 800H600V900H800V700H500Z"/>
  <path fill="#304da9" d="M700 900H900V700H700Z"/>
  <path fill="#4f67b6" d="M600 800H700V900H800V800H900V700H600Z"/>
  <path fill="#8091ca" d="M100 600H300V500H100Z"/>
  <path fill="#042697" d="M500 800H700V600H500Z"/>
  <path fill="#4d66b5" d="M700 800H900V600H700Z"/>
  <path fill="#6076bd" d="M500 700H600V800H800V600H500Z"/>
  <path fill="#643a81" d="M300 600H500V500H300ZM500 700H600V600H500Z"/>
  <path fill="#8294cb" d="M700 800H900V700H800V600H700Z"/>
  <path fill="#b1bcde" d="M600 700H700V800H800V600H600Z"/>
  <path fill="#d13752" d="M200 600H400V500H200Z"/>
  <path fill="#ded9e8" d="M200 600H300V500H200Z"/>
  <path fill="#062897" d="M500 700H700V600H500Z"/>
  <path fill="#3551ab" d="M600 700H800V600H600Z"/>
  <path fill="#93a2d2" d="M700 700H800V600H700Z"/>
</svg>
