<?xml version="1.0" encoding="UTF-8"?>
<svg xmlns="http://www.w3.org/2000/svg" viewBox="0 0 1200 1200" width="1200" height="1200">
  <title>emoji_u1f1e8_1f1fc</title>
  <path fill="#012c80" d="M0 500H200V300H0Z"/>
  <path fill="#103887" d="M0 600H200V300H100V400H0Z"/>
  <path fill="#103987" d="M100 500H300V300H100Z"/>
  <path fill="#3d5a65" d="M0 1000H1100V700H0Z"/>
  <path fill="#002b7f" d="M0 800H1100V300H200V400H100V500H0ZM0 1000H1100V900H0Z"/>
  <path fill="#9da23c" d="M0 800H1100V700H0Z"/>
  <path fill="#0a3484" d="M100 600H300V400H100Z"/>
  <path fill="#113988" d="M100 500H200V600H400V500H300V400H100Z"/>
  <path fill="#4464a1" d="M100 500H200V400H100ZM200 600H300V500H200Z"/>
  <path fill="#042f81" d="M200 600H400V500H200Z"/>
  <path fill="#98a9cb" d="M200 600H300V500H200Z"/>
</svg>
