<?xml version="1.0" encoding="UTF-8"?>
<svg xmlns="http://www.w3.org/2000/svg" viewBox="0 0 1200 1200" width="1200" height="1200">
  <title>emoji_u1f647_1f3fd_200d_2642</title>
  <path fill="#b0bec5" d="M500 200H600V100H500ZM100 300H200V200H100ZM900 300H1000V200H900Z"/>
  <path fill="#543930" d="M200 800H400V700H500V600H600V700H700V800H900V400H800V300H300V400H200Z"/>
  <path fill="#00b49c" d="M0 1100H100V1200H500V700H200V800H100V900H0ZM600 1200H1000V1100H1100V900H1000V800H900V700H600Z"/>
  <path fill="#ba8d68" d="M200 800H400V900H300V1000H400V1100H300V1200H800V1100H700V1000H800V900H700V800H900V700H800V600H700V500H400V600H300V700H200Z"/>
  <path fill="#008775" d="M300 1000H500V1200H600V1000H800V900H700V800H400V900H300Z"/>
  <path fill="#99674f" d="M200 800H300V700H200ZM800 800H900V700H800ZM400 900H700V800H400Z"/>
  <path fill="#49362e" d="M400 700H500V600H400ZM600 700H700V600H600Z"/>
</svg>
