<?xml version="1.0" encoding="UTF-8"?>
<svg xmlns="http://www.w3.org/2000/svg" viewBox="0 0 1200 1200" width="1200" height="1200">
  <title>emoji_u1f36f</title>
  <path fill="#df8116" d="M700 200H800V300H900V100H700Z"/>
  <path fill="#ae5614" d="M600 600H900V400H1000V300H900V200H1000V100H800V300H600Z"/>
  <path fill="#e07f14" d="M0 500H100V1100H200V1200H900V1100H1000V500H1100V400H1000V300H800V600H300V500H200V300H100V400H0ZM300 500H700V300H300Z"/>
  <path fill="#ffb803" d="M100 600H200V700H300V800H400V700H800V900H700V1100H900V1000H1000V800H900V600H1000V300H900V400H800V500H700V400H400V300H100Z"/>
  <path fill="#ac5811" d="M100 600H200V500H100ZM400 700H500V500H400ZM200 700H300V600H200ZM600 700H800V600H600ZM300 800H400V700H300ZM100 1000H200V1100H900V1000H800V900H200V800H100ZM900 1000H1000V800H900Z"/>
  <path fill="#ffffff" d="M100 400H200V300H100ZM300 500H400V600H500V500H600V400H300ZM800 500H1000V400H800ZM700 700H800V600H700ZM300 800H400V700H300Z"/>
  <path fill="#8a460a" d="M300 500H700V400H300ZM800 500H900V400H800Z"/>
</svg>
