<?xml version="1.0" encoding="UTF-8"?>
<svg xmlns="http://www.w3.org/2000/svg" viewBox="0 0 1200 1200" width="1200" height="1200">
  <title>emoji_u1f4dd</title>
  <path fill="#6fbff0" d="M0 1200H700V100H0Z"/>
  <path fill="#fdd835" d="M800 1000H1000V300H800Z"/>
  <path fill="#ffa000" d="M900 1000H1100V300H900Z"/>
  <path fill="#ff8383" d="M800 300H1100V100H800Z"/>
  <path fill="#ef5350" d="M800 400H1100V100H1000V200H900V100H800Z"/>
  <path fill="#616161" d="M800 1100H900V1200H1000V1100H1100V900H800Z"/>
  <path fill="#94d1e0" d="M800 400H900V500H1000V400H1100V300H800Z"/>
  <path fill="#ffecb3" d="M800 1000H1100V900H1000V800H900V900H800Z"/>
  <path fill="#ffc107" d="M900 900H1000V400H900Z"/>
  <path fill="#ffffff" d="M100 1100H600V200H100Z"/>
  <path fill="#b0bec5" d="M200 400H500V300H200ZM200 600H300V500H200ZM400 600H600V500H400ZM200 800H500V700H200ZM200 1000H400V900H200Z"/>
</svg>
