<?xml version="1.0" encoding="UTF-8"?>
<svg xmlns="http://www.w3.org/2000/svg" viewBox="0 0 1200 1200" width="1200" height="1200">
  <title>emoji_u1f360</title>
  <path fill="#bf0578" d="M200 1000H300V1100H600V1000H800V900H900V800H1000V700H1100V500H900V600H800V700H700V800H500V900H200Z"/>
  <path fill="#d3578b" d="M100 900H200V1000H400V800H500V900H800V800H900V700H1000V600H1100V100H1000V200H800V300H500V400H300V500H200V600H100Z"/>
  <path fill="#a7281d" d="M900 400H1000V300H900ZM600 500H700V400H600ZM800 500H900V400H800ZM500 600H600V500H500ZM800 700H900V600H800Z"/>
  <path fill="#fad674" d="M200 900H300V1000H600V900H700V800H600V700H400V600H200Z"/>
</svg>
