<?xml version="1.0" encoding="UTF-8"?>
<svg xmlns="http://www.w3.org/2000/svg" viewBox="0 0 1200 1200" width="1200" height="1200">
  <title>emoji_u1f3b1</title>
  <path fill="#403d3e" d="M100 1000H200V1100H400V1200H700V1100H900V1000H1000V800H1100V500H1000V400H900V600H800V700H700V800H600V900H100Z"/>
  <path fill="#5e6367" d="M0 800H100V1000H400V1100H600V1000H700V900H800V800H900V700H1000V300H900V200H700V100H400V200H200V300H100V500H0Z"/>
  <path fill="#ffffff" d="M200 700H300V800H600V700H700V400H600V300H300V400H200Z"/>
  <path fill="#303030" d="M400 500H500V600H600V400H400ZM400 700H500V600H400Z"/>
</svg>
