<?xml version="1.0" encoding="UTF-8"?>
<svg xmlns="http://www.w3.org/2000/svg" viewBox="0 0 1200 1200" width="1200" height="1200">
  <title>emoji_u1f631</title>
  <path fill="#eb8f00" d="M0 800H200V400H300V300H800V400H900V800H1100V300H1000V200H900V100H200V200H100V300H0ZM200 1200H900V1000H200Z"/>
  <path fill="#ffed6b" d="M0 1100H100V1200H300V1100H400V900H300V600H100V700H0ZM700 1100H800V1200H1000V1100H1100V700H1000V600H800V900H700Z"/>
  <path fill="#ed6c30" d="M100 700H200V600H100ZM900 700H1000V600H900ZM0 800H100V700H0ZM100 900H200V1000H300V700H200V800H100ZM800 1000H900V900H1000V800H900V700H800ZM1000 800H1100V700H1000Z"/>
  <path fill="#87a4bd" d="M100 500H1000V300H900V100H800V200H700V100H600V200H500V100H400V200H300V100H200V300H100Z"/>
  <path fill="#ead03f" d="M100 700H200V1000H300V1100H800V1000H900V700H1000V300H900V400H800V200H700V400H600V200H500V400H400V200H300V400H200V300H100Z"/>
  <path fill="#422b0d" d="M400 1000H500V1100H600V1000H700V800H600V700H500V800H400Z"/>
  <path fill="#ffffff" d="M400 600H500V400H400ZM600 600H700V400H600Z"/>
</svg>
