<?xml version="1.0" encoding="UTF-8"?>
<svg xmlns="http://www.w3.org/2000/svg" viewBox="0 0 1200 1200" width="1200" height="1200">
  <title>emoji_u1f310</title>
  <path fill="#01b3f7" d="M0 900H100V1100H200V1200H900V1100H1000V900H1100V500H1000V300H900V200H700V100H400V200H200V300H100V500H0ZM400 400V300H500V400ZM600 400V300H700V400ZM400 1100V1000H500V1100ZM600 1100V1000H700V1100Z"/>
  <path fill="#188aff" d="M400 300H500V200H400ZM600 300H700V200H600ZM200 400H300V300H200ZM800 400H900V300H800ZM100 600H200V500H100ZM300 600H500V500H300ZM600 600H800V500H600ZM900 600H1000V500H900ZM100 800H200V700H100ZM300 800H500V700H300ZM600 800H800V700H600ZM900 800H1000V700H900ZM0 900H100V800H0ZM1000 900H1100V800H1000ZM200 1000H300V900H200ZM400 1000H500V900H400ZM600 1000H700V900H600ZM800 1000H900V900H800ZM100 1100H200V1000H100ZM900 1100H1000V1000H900ZM200 1200H400V1100H200ZM700 1200H900V1100H700Z"/>
</svg>
