<?xml version="1.0" encoding="UTF-8"?>
<svg xmlns="http://www.w3.org/2000/svg" viewBox="0 0 1200 1200" width="1200" height="1200">
  <title>emoji_u1f951</title>
  <path fill="#757e40" d="M100 1000H200V1100H300V1200H700V1100H800V1000H900V800H1000V600H1100V100H700V200H500V300H300V400H200V500H100Z"/>
  <path fill="#afb42a" d="M200 900H300V1000H700V900H800V700H900V500H1000V200H700V300H500V400H300V500H200Z"/>
  <path fill="#fff69d" d="M300 900H700V700H800V500H900V300H700V400H500V500H300Z"/>
  <path fill="#d67659" d="M400 800H600V700H700V500H500V600H400Z"/>
  <path fill="#855c52" d="M400 800H600V700H700V500H600V600H500V700H400Z"/>
</svg>
