<?xml version="1.0" encoding="UTF-8"?>
<svg xmlns="http://www.w3.org/2000/svg" viewBox="0 0 1200 1200" width="1200" height="1200">
  <title>emoji_u1f40a</title>
  <path fill="#fffdfd" d="M100 1200H600V1000H200V1100H100Z"/>
  <path fill="#f26a35" d="M200 1200H400V1100H500V1000H200Z"/>
  <path fill="#5a6415" d="M100 300H200V400H300V1000H200V1100H500V1000H600V200H200V100H100ZM400 700V600H500V700ZM800 800H900V700H1000V800H1100V500H800ZM800 1100H1000V1200H1100V900H800Z"/>
  <path fill="#70853c" d="M100 200H200V100H100ZM200 1100H500V1200H800V1100H900V1000H1000V1100H1100V900H900V600H1000V700H1100V500H900V300H800V200H700V100H400V200H200V300H500V400H300V600H400V500H500V700H300V900H400V1000H200ZM400 900V800H500V900Z"/>
  <path fill="#97a927" d="M200 300H300V200H200ZM400 300H500V200H400ZM600 300H700V200H600ZM700 400H800V300H700ZM600 500H700V400H600ZM700 700H800V600H700ZM600 800H700V700H600Z"/>
  <path fill="#2e2c33" d="M500 1100H600V1000H500Z"/>
</svg>
