<?xml version="1.0" encoding="UTF-8"?>
<svg xmlns="http://www.w3.org/2000/svg" viewBox="0 0 1200 1200" width="1200" height="1200">
  <title>emoji_u1f6cf</title>
  <path fill="#3daae0" d="M500 700H900V800H1100V600H1000V500H500Z"/>
  <path fill="#b0e0ff" d="M300 700H700V600H600V500H300Z"/>
  <path fill="#c87d5e" d="M0 1100H300V1000H800V1100H1100V800H200V200H0Z"/>
  <path fill="#784d30" d="M100 800H300V500H200V200H100ZM200 1100H300V1000H200ZM800 1100H900V1000H800Z"/>
  <path fill="#e0f7fa" d="M100 900H1100V700H500V600H400V500H200V700H100Z"/>
  <path fill="#188ad6" d="M500 800H1100V700H1000V600H500Z"/>
  <path fill="#94d1e0" d="M200 700H400V800H500V600H200Z"/>
  <path fill="#7dbbe3" d="M400 800H600V600H400Z"/>
</svg>
