<?xml version="1.0" encoding="UTF-8"?>
<svg xmlns="http://www.w3.org/2000/svg" viewBox="0 0 1200 1200" width="1200" height="1200">
  <title>emoji_u1f437</title>
  <path fill="#ffa5a8" d="M0 800H200V700H300V500H400V200H100V300H0V500H100V600H0ZM700 500H800V700H900V800H1100V600H1000V500H1100V300H1000V200H700Z"/>
  <path fill="#fd7e89" d="M0 400H100V500H200V600H300V400H200V200H100V300H0ZM800 600H900V500H1000V400H1100V300H1000V200H900V400H800Z"/>
  <path fill="#ffd3b0" d="M0 1000H100V1100H200V1200H900V1100H1000V1000H1100V700H1000V600H900V400H1000V200H900V100H800V200H300V100H200V200H100V400H200V600H100V700H0ZM200 400V300H300V400ZM800 400V300H900V400Z"/>
  <path fill="#2c2f31" d="M300 700H400V600H300ZM700 700H800V600H700ZM300 1100H800V1000H700V900H800V800H700V700H400V800H300V900H400V1000H300ZM200 1000H300V900H200ZM800 1000H900V900H800Z"/>
  <path fill="#fd7e84" d="M400 1000H700V900H600V800H700V700H400V800H500V900H400ZM300 900H400V800H300ZM700 900H800V800H700Z"/>
</svg>
