<?xml version="1.0" encoding="UTF-8"?>
<svg xmlns="http://www.w3.org/2000/svg" viewBox="0 0 1200 1200" width="1200" height="1200">
  <title>emoji_u1f3aa</title>
  <path fill="#c9c9c9" d="M100 1200H500V1100H600V1200H1000V1000H900V900H600V1000H500V900H200V1000H100Z"/>
  <path fill="#ff6110" d="M100 1100H300V1000H400V1100H500V800H600V1100H700V1000H800V1100H1000V600H900V500H800V400H600V300H800V200H700V100H500V400H300V500H200V600H100Z"/>
  <path fill="#d92f0a" d="M400 500H700V400H600V100H500V400H400ZM300 600H400V500H300ZM700 600H800V500H700ZM100 900H400V1100H700V900H1000V700H900V600H800V700H700V600H600V700H500V600H400V700H300V600H200V700H100Z"/>
  <path fill="#8a2e08" d="M400 1000H500V1100H600V1000H700V700H600V800H500V700H400Z"/>
  <path fill="#af0d03" d="M100 900H400V1000H500V700H400V800H300V700H200V800H100ZM600 1000H700V900H1000V800H900V700H800V800H700V700H600Z"/>
  <path fill="#ffffff" d="M300 600H400V500H300ZM700 600H800V500H700ZM200 800H300V600H200ZM400 700H500V600H400ZM600 700H700V600H600ZM800 800H900V600H800Z"/>
  <path fill="#e1e1e1" d="M400 800H500V600H400ZM600 800H700V600H600ZM200 800H300V700H200ZM800 800H900V700H800Z"/>
  <path fill="#fffeff" d="M400 700H500V600H400ZM600 700H700V600H600ZM400 1000H500V900H400ZM600 1000H700V900H600Z"/>
</svg>
