<?xml version="1.0" encoding="UTF-8"?>
<svg xmlns="http://www.w3.org/2000/svg" viewBox="0 0 1200 1200" width="1200" height="1200">
  <title>emoji_u26f1</title>
  <path fill="#4ea4b0" d="M800 400H1000V200H800ZM600 600H700V500H600ZM500 800H600V600H500ZM400 1000H500V800H400ZM200 1200H500V1100H400V1000H300V1100H200Z"/>
  <path fill="#f5c876" d="M0 1200H400V1100H0ZM800 1200H1100V1100H800Z"/>
  <path fill="#f2a159" d="M300 1200H900V1100H300Z"/>
  <path fill="#ee5948" d="M300 300H400V400H500V500H600V600H700V700H800V800H900V900H1000V800H1100V500H1000V300H900V200H700V100H400V200H300Z"/>
  <path fill="#fefefe" d="M400 400H500V500H600V400H700V300H800V200H500V300H400ZM700 700H900V800H1000V400H900V500H800V600H700Z"/>
</svg>
