<?xml version="1.0" encoding="UTF-8"?>
<svg xmlns="http://www.w3.org/2000/svg" viewBox="0 0 1200 1200" width="1200" height="1200">
  <title>emoji_u1faaa</title>
  <path fill="#94d1e0" d="M800 900H900V1000H1100V300H900V400H800Z"/>
  <path fill="#2f7889" d="M0 400H1100V200H1000V100H100V200H0Z"/>
  <path fill="#b9e4ea" d="M0 1000H100V1100H1000V1000H1100V900H1000V800H900V500H1000V400H1100V300H0Z"/>
  <path fill="#1d84e1" d="M100 900H400V400H100Z"/>
  <path fill="#ffffff" d="M100 500H200V400H100ZM300 500H400V400H300ZM100 800H200V700H100ZM300 800H400V700H300Z"/>
  <path fill="#82aec0" d="M500 500H700V400H500ZM500 700H800V600H500ZM500 900H700V800H500Z"/>
</svg>
