<?xml version="1.0" encoding="UTF-8"?>
<svg xmlns="http://www.w3.org/2000/svg" viewBox="0 0 1200 1200" width="1200" height="1200">
  <title>emoji_u1f6f6</title>
  <path fill="#bdbdbd" d="M500 300H600V400H700V300H800V200H500Z"/>
  <path fill="#f29657" d="M0 800H100V900H200V1000H300V700H200V600H0Z"/>
  <path fill="#874d36" d="M0 600H300V1000H500V1100H600V800H700V600H1100V400H700V300H600V400H0Z"/>
  <path fill="#a65f3e" d="M0 700H100V800H200V1000H400V700H500V800H700V1100H800V1000H900V900H1000V800H1100V400H1000V500H100V400H0ZM500 700V600H600V700Z"/>
  <path fill="#f3ab47" d="M100 600H600V700H500V1100H800V700H700V600H1000V500H900V400H800V500H700V300H600V500H400V400H300V500H100ZM0 500H100V400H0ZM1000 500H1100V400H1000Z"/>
</svg>
