<?xml version="1.0" encoding="UTF-8"?>
<svg xmlns="http://www.w3.org/2000/svg" viewBox="0 0 1200 1200" width="1200" height="1200">
  <title>emoji_u1f31c</title>
  <path fill="#fbc02d" d="M0 800H100V1000H200V1100H400V1200H700V1100H900V1000H1000V900H600V1000H500V900H300V700H200V400H100V500H0Z"/>
  <path fill="#f2a600" d="M400 800H700V700H600V600H500V500H400Z"/>
  <path fill="#fff6af" d="M200 600H300V800H600V700H500V100H400V200H200Z"/>
  <path fill="#ffe558" d="M100 800H200V1000H400V1100H700V1000H1000V800H1100V700H400V600H500V100H400V500H300V200H200V300H100Z"/>
  <path fill="#5d4037" d="M200 800H500V700H300V600H400V500H200ZM600 800H700V700H600ZM500 900H600V800H500Z"/>
  <path fill="#fcc937" d="M200 800H400V700H200Z"/>
</svg>
