<?xml version="1.0" encoding="UTF-8"?>
<svg xmlns="http://www.w3.org/2000/svg" viewBox="0 0 1200 1200" width="1200" height="1200">
  <title>emoji_u1f1f1_1f1f0</title>
  <path fill="#d07830" d="M400 500H1100V300H400ZM400 1000H1100V800H400Z"/>
  <path fill="#75843d" d="M0 1000H200V300H0Z"/>
  <path fill="#c6a631" d="M0 400H100V500H200V300H0ZM0 1000H200V800H100V900H0Z"/>
  <path fill="#efaa2a" d="M900 500H1100V300H1000V400H900ZM900 900H1000V1000H1100V800H900Z"/>
  <path fill="#bc5b33" d="M900 900H1100V400H900Z"/>
  <path fill="#989238" d="M100 500H300V300H100ZM100 1000H300V800H100Z"/>
  <path fill="#c76f30" d="M900 600H1000V500H1100V400H900ZM900 900H1100V800H1000V700H900Z"/>
  <path fill="#db8d2d" d="M300 500H600V400H500V300H300ZM300 1000H500V900H600V800H300Z"/>
  <path fill="#f79f18" d="M100 500H400V300H200V400H100ZM100 900H200V1000H400V800H100Z"/>
  <path fill="#f8ab21" d="M200 500H500V400H400V300H300V400H200ZM200 900H300V1000H400V900H500V800H200Z"/>
  <path fill="#06544c" d="M100 900H300V400H100Z"/>
  <path fill="#972936" d="M300 600H600V400H300ZM300 900H600V700H300Z"/>
  <path fill="#8c1639" d="M800 600H1000V400H800Z"/>
  <path fill="#8d163a" d="M400 800H500V900H700V700H400Z"/>
  <path fill="#8d1a38" d="M600 900H900V700H600Z"/>
  <path fill="#902037" d="M800 900H1000V700H800Z"/>
  <path fill="#942437" d="M800 900H900V800H1000V600H800Z"/>
  <path fill="#972e34" d="M800 700H1000V500H900V400H800Z"/>
  <path fill="#982f34" d="M400 600H700V400H500V500H400Z"/>
  <path fill="#9c3036" d="M800 800H900V700H1000V600H900V500H800Z"/>
  <path fill="#9f4030" d="M600 600H900V400H600Z"/>
  <path fill="#a13b33" d="M500 600H800V500H700V400H600V500H500Z"/>
  <path fill="#a34132" d="M500 800H600V900H700V800H800V700H500Z"/>
  <path fill="#a34231" d="M700 600H900V400H800V500H700Z"/>
  <path fill="#ac542e" d="M700 800H800V900H900V700H700Z"/>
  <path fill="#eb7400" d="M200 900H400V400H200Z"/>
  <path fill="#ef9116" d="M300 900H400V800H500V500H400V400H300Z"/>
  <path fill="#95382f" d="M700 700H900V500H700Z"/>
  <path fill="#a44531" d="M400 700H700V500H400Z"/>
  <path fill="#a5512c" d="M400 800H700V600H400Z"/>
  <path fill="#b25530" d="M600 800H900V600H600Z"/>
  <path fill="#bc7428" d="M600 700H900V600H800V500H600Z"/>
  <path fill="#d49825" d="M500 700H800V600H700V500H600V600H500Z"/>
  <path fill="#db932a" d="M500 700H600V800H700V700H800V600H500Z"/>
  <path fill="#e8a529" d="M700 700H800V800H900V600H700Z"/>
  <path fill="#f6b528" d="M700 700H900V600H700Z"/>
  <path fill="#8d153a" d="M400 800H500V700H600V600H500V500H400Z"/>
  <path fill="#a44d2d" d="M500 700H700V600H500Z"/>
  <path fill="#e09c29" d="M600 700H800V600H600Z"/>
  <path fill="#efb027" d="M700 700H800V600H700Z"/>
</svg>
