<?xml version="1.0" encoding="UTF-8"?>
<svg xmlns="http://www.w3.org/2000/svg" viewBox="0 0 1200 1200" width="1200" height="1200">
  <title>emoji_u1f389</title>
  <path fill="#733f28" d="M300 600H400V700H500V800H600V900H800V700H700V600H600V500H500V400H300ZM700 600H800V500H700Z"/>
  <path fill="#03a9f4" d="M700 200H800V100H700ZM600 300H700V200H600Z"/>
  <path fill="#f44336" d="M900 400H1000V300H900ZM1000 500H1100V400H1000Z"/>
  <path fill="#fb8c00" d="M200 200H300V100H200ZM300 300H400V200H300Z"/>
  <path fill="#f48fb1" d="M700 600H900V500H700Z"/>
  <path fill="#ffdb69" d="M0 1200H200V1000H300V900H400V800H500V700H600V600H500V500H400V400H300V500H200V700H100V900H0Z"/>
  <path fill="#ffc107" d="M200 700H300V600H400V400H300V500H200ZM0 1200H300V1100H500V1000H700V900H800V800H700V700H600V600H400V700H300V800H200V900H0V1000H100V1100H0ZM100 800H200V700H100ZM900 800H1000V700H900ZM1000 900H1100V800H1000Z"/>
  <path fill="#ff8f00" d="M200 700H300V600H200ZM300 800H400V700H300ZM400 900H500V800H400ZM100 1000H200V900H100ZM500 1000H600V900H500ZM200 1100H300V1000H200Z"/>
</svg>
