<?xml version="1.0" encoding="UTF-8"?>
<svg xmlns="http://www.w3.org/2000/svg" viewBox="0 0 1200 1200" width="1200" height="1200">
  <title>emoji_u1f1ec_1f1f5</title>
  <path fill="#0c2d82" d="M300 500H800V300H300Z"/>
  <path fill="#001300" d="M700 1000H1000V800H700Z"/>
  <path fill="#010100" d="M600 1000H800V900H900V800H600Z"/>
  <path fill="#020100" d="M200 1000H500V800H200Z"/>
  <path fill="#264075" d="M800 500H1100V300H800Z"/>
  <path fill="#294274" d="M0 500H300V300H0Z"/>
  <path fill="#383102" d="M300 900H400V1000H600V800H300Z"/>
  <path fill="#393202" d="M500 1000H700V900H800V800H500Z"/>
  <path fill="#52615e" d="M100 500H400V300H200V400H100Z"/>
  <path fill="#55635d" d="M700 500H1000V400H900V300H700Z"/>
  <path fill="#626c57" d="M400 500H700V400H600V300H500V400H400Z"/>
  <path fill="#6f6104" d="M400 900H500V1000H600V900H700V800H400Z"/>
  <path fill="#002488" d="M0 600H500V400H400V300H300V400H100V300H0ZM600 600H1100V300H1000V400H800V300H700V400H600Z"/>
  <path fill="#000000" d="M0 1000H300V900H400V700H300V600H200V500H0ZM700 900H900V1000H1100V500H700Z"/>
  <path fill="#000c2e" d="M0 600H100V700H500V400H400V500H300V400H100V500H0ZM600 700H800V600H1100V500H1000V400H800V500H700V400H600Z"/>
  <path fill="#203b78" d="M400 600H700V400H400Z"/>
  <path fill="#000800" d="M800 900H1000V800H800Z"/>
  <path fill="#000f2e" d="M100 700H300V400H100Z"/>
  <path fill="#002800" d="M700 900H900V800H800V700H700Z"/>
  <path fill="#2e2902" d="M200 800H300V900H500V700H200Z"/>
  <path fill="#365402" d="M600 900H800V700H600Z"/>
  <path fill="#475864" d="M800 600H900V500H1000V400H800Z"/>
  <path fill="#485964" d="M100 500H200V600H300V400H100Z"/>
  <path fill="#757a4d" d="M200 600H300V400H200Z"/>
  <path fill="#767b4d" d="M800 600H900V400H800Z"/>
  <path fill="#7b7f4a" d="M400 600H700V500H600V400H500V500H400Z"/>
  <path fill="#eccf08" d="M500 900H700V800H800V700H500Z"/>
  <path fill="#edd008" d="M300 800H400V900H600V700H300Z"/>
  <path fill="#000f00" d="M100 700H200V800H400V600H300V500H200V600H100Z"/>
  <path fill="#fcdd09" d="M300 800H500V900H600V800H800V600H300Z"/>
  <path fill="#004500" d="M200 700H300V800H400V600H300V500H200Z"/>
  <path fill="#0a132a" d="M800 600H900V500H800ZM700 700H800V600H700Z"/>
  <path fill="#0a192a" d="M200 600H300V500H200ZM300 700H400V600H300Z"/>
  <path fill="#0e182f" d="M500 700H800V600H700V500H500Z"/>
  <path fill="#101a2f" d="M300 700H600V500H400V600H300Z"/>
  <path fill="#2c322b" d="M400 700H700V600H600V500H500V600H400Z"/>
  <path fill="#564c03" d="M600 700H700V800H800V600H600Z"/>
  <path fill="#5d7003" d="M300 800H400V700H500V600H300Z"/>
  <path fill="#1b1801" d="M600 700H800V600H600Z"/>
  <path fill="#1b4801" d="M300 700H500V600H300Z"/>
  <path fill="#c4ad07" d="M400 700H600V600H400Z"/>
  <path fill="#c6ae07" d="M500 700H700V600H500Z"/>
  <path fill="#f6d809" d="M500 700H600V600H500Z"/>
</svg>
