<?xml version="1.0" encoding="UTF-8"?>
<svg xmlns="http://www.w3.org/2000/svg" viewBox="0 0 1200 1200" width="1200" height="1200">
  <title>emoji_u1f926_1f3fc</title>
  <path fill="#ab872f" d="M200 600H300V700H400V500H500V400H600V500H700V700H800V600H900V200H800V100H300V200H200Z"/>
  <path fill="#ee7023" d="M100 1200H700V1000H800V1200H1000V900H900V800H800V700H700V900H600V600H300V800H200V900H100Z"/>
  <path fill="#f58520" d="M400 700H500V1000H600V1200H900V900H800V600H400Z"/>
  <path fill="#e0bb95" d="M300 700H600V600H800V400H700V300H400V400H300Z"/>
  <path fill="#d96420" d="M500 1000H600V800H500ZM600 1200H700V1000H600Z"/>
  <path fill="#d3ac83" d="M400 600H500V700H800V500H700V400H600V500H500V400H400Z"/>
  <path fill="#5d4037" d="M400 600H500V400H400Z"/>
</svg>
