<?xml version="1.0" encoding="UTF-8"?>
<svg xmlns="http://www.w3.org/2000/svg" viewBox="0 0 1200 1200" width="1200" height="1200">
  <title>emoji_u1f32f</title>
  <path fill="#9a9a9a" d="M300 900H400V1000H500V1100H600V1200H800V1100H900V1000H800V900H700V800H300Z"/>
  <path fill="#f6b140" d="M0 600H100V700H200V500H300V400H400V300H600V200H500V100H200V200H100V300H0ZM400 800H700V500H400Z"/>
  <path fill="#fffffe" d="M100 700H200V800H300V600H400V300H200V400H100Z"/>
  <path fill="#e0e0e0" d="M600 900H700V1000H800V1100H900V1000H1000V900H1100V700H1000V600H900V500H700V600H600Z"/>
  <path fill="#b0b0b0" d="M700 700H800V600H900V500H800V400H700ZM900 700H1000V600H900ZM500 900H600V1000H700V1100H900V900H800V800H700V700H500ZM800 800H900V700H800ZM1000 800H1100V700H1000ZM900 900H1000V800H900Z"/>
  <path fill="#ffebc8" d="M200 800H300V900H400V800H600V700H700V500H800V400H700V300H600V200H400V500H200ZM500 700V600H600V700Z"/>
  <path fill="#807f7d" d="M300 900H600V800H700V700H800V400H600V700H300ZM800 800H900V700H800Z"/>
  <path fill="#a1c23c" d="M200 400H600V300H500V200H300V300H200Z"/>
  <path fill="#ffd61c" d="M200 400H300V500H500V400H600V300H200ZM100 500H200V400H100ZM200 600H300V500H200Z"/>
  <path fill="#ffffff" d="M800 800H900V700H800ZM900 900H1000V800H900Z"/>
  <path fill="#f7bf5e" d="M500 400H600V300H500ZM600 700H700V400H600ZM300 800H600V700H300Z"/>
  <path fill="#f8cd7f" d="M600 600H700V500H600ZM200 700H300V600H200ZM300 800H400V700H300ZM500 800H600V700H500Z"/>
  <path fill="#8d6256" d="M200 700H300V600H500V400H400V300H300V500H200ZM500 400H600V300H500Z"/>
  <path fill="#6d4c41" d="M300 500H400V400H300ZM200 700H300V500H200ZM400 600H500V500H400Z"/>
  <path fill="#95a61d" d="M200 400H300V500H400V300H200Z"/>
  <path fill="#fab16e" d="M300 500H400V300H300ZM200 600H300V500H200Z"/>
</svg>
