<?xml version="1.0" encoding="UTF-8"?>
<svg xmlns="http://www.w3.org/2000/svg" viewBox="0 0 1200 1200" width="1200" height="1200">
  <title>emoji_u1f39e</title>
  <path fill="#c29877" d="M900 800H1100V300H900ZM0 900H200V400H0Z"/>
  <path fill="#424242" d="M0 1100H1100V700H1000V400H1100V100H0V500H100V800H0ZM100 300V200H200V300ZM300 300V200H400V300ZM500 300V200H600V300ZM700 300V200H800V300ZM900 300V200H1000V300ZM100 1000V900H200V1000ZM300 1000V900H400V1000ZM500 1000V900H600V1000ZM700 1000V900H800V1000ZM900 1000V900H1000V1000Z"/>
  <path fill="#c79b78" d="M0 500H100V800H200V400H0ZM600 600H800V400H600ZM900 800H1100V700H1000V400H900ZM300 800H500V600H300Z"/>
  <path fill="#cfa279" d="M100 500H200V400H100ZM300 700H400V800H800V500H700V400H300ZM900 800H1000V700H900Z"/>
  <path fill="#d2a67a" d="M300 500H400V700H500V800H800V700H700V500H600V400H300Z"/>
  <path fill="#daac7b" d="M400 500H500V400H400ZM500 700H600V500H500ZM600 800H700V700H600Z"/>
</svg>
