<?xml version="1.0" encoding="UTF-8"?>
<svg xmlns="http://www.w3.org/2000/svg" viewBox="0 0 1200 1200" width="1200" height="1200">
  <title>emoji_u1f42a</title>
  <path fill="#ba8859" d="M0 500H200V600H300V300H200V200H100V300H0Z"/>
  <path fill="#e09147" d="M500 500H1100V400H1000V200H900V100H700V200H600V400H500Z"/>
  <path fill="#df9047" d="M200 800H300V1200H400V1000H500V700H600V400H500V200H400V100H300V400H200ZM600 900H700V1200H800V1000H900V800H600Z"/>
  <path fill="#f6b03e" d="M100 400H200V500H400V100H200V200H100ZM200 800H300V900H400V1000H500V1200H600V900H800V1000H900V1200H1000V900H1100V400H900V300H700V400H500V600H400V700H200Z"/>
  <path fill="#323230" d="M200 400H300V300H200Z"/>
</svg>
