<?xml version="1.0" encoding="UTF-8"?>
<svg xmlns="http://www.w3.org/2000/svg" viewBox="0 0 1200 1200" width="1200" height="1200">
  <title>emoji_u1f497</title>
  <path fill="#eb8aae" d="M0 700H100V800H200V400H400V500H700V400H900V800H1000V700H1100V300H1000V200H900V100H700V200H600V300H500V200H400V100H200V200H100V300H0Z"/>
  <path fill="#e25287" d="M100 800H200V900H300V600H400V700H700V600H800V900H900V800H1000V300H900V200H700V300H600V400H500V300H400V200H200V300H100Z"/>
  <path fill="#d9266d" d="M200 700H300V800H400V900H500V1000H400V1100H500V1200H600V1100H700V1000H800V900H900V500H800V400H700V500H600V600H500V500H400V400H300V500H200Z"/>
  <path fill="#e63b7d" d="M200 900H300V1000H400V1100H600V1000H700V900H800V600H700V500H600V600H500V700H600V800H500V700H400V600H300V500H200ZM400 600H500V500H400ZM800 600H900V500H800Z"/>
  <path fill="#f4bbcf" d="M100 500H200V400H300V300H400V200H200V300H100ZM700 300H800V400H900V500H1000V300H900V200H700ZM400 400H500V300H400ZM600 400H700V300H600ZM300 500H400V400H300ZM500 500H600V400H500ZM700 500H800V400H700ZM200 600H300V500H200ZM400 600H500V500H400ZM600 600H700V500H600ZM800 600H900V500H800Z"/>
  <path fill="#e97ba3" d="M300 500H400V400H300ZM700 500H800V400H700ZM200 600H300V500H200ZM400 600H500V500H400ZM600 600H700V500H600ZM800 600H900V500H800ZM500 700H600V600H500Z"/>
</svg>
