<?xml version="1.0" encoding="UTF-8"?>
<svg xmlns="http://www.w3.org/2000/svg" viewBox="0 0 1200 1200" width="1200" height="1200">
  <title>emoji_u1f1e8_1f1f6</title>
  <path fill="#fcfcfc" d="M600 500H1100V300H600ZM0 1000H500V800H0ZM600 1000H1100V800H600Z"/>
  <path fill="#fafafa" d="M900 500H1100V300H1000V400H900ZM0 1000H100V900H200V800H0ZM900 900H1000V1000H1100V800H900Z"/>
  <path fill="#d10214" d="M400 500H700V300H400ZM0 800H200V500H0ZM900 800H1100V500H900ZM400 1000H700V800H400Z"/>
  <path fill="#f4ccd0" d="M900 900H1100V700H1000V600H1100V400H900ZM0 900H200V600H100V700H0Z"/>
  <path fill="#f6d4d7" d="M500 500H800V400H700V300H600V400H500ZM300 900H400V1000H500V900H600V1000H700V900H800V800H300Z"/>
  <path fill="#fdfdfd" d="M900 600H1000V500H1100V400H900ZM0 900H200V700H100V800H0ZM900 900H1100V800H1000V700H900Z"/>
  <path fill="#cf1a17" d="M0 500H200V300H0Z"/>
  <path fill="#d01918" d="M0 600H100V700H200V400H0Z"/>
  <path fill="#d02a1b" d="M0 500H100V600H200V300H100V400H0Z"/>
  <path fill="#d20b14" d="M300 500H600V400H500V300H300Z"/>
  <path fill="#db721c" d="M100 500H300V300H100Z"/>
  <path fill="#de6516" d="M100 500H400V300H200V400H100Z"/>
  <path fill="#df6b16" d="M200 500H500V400H400V300H300V400H200Z"/>
  <path fill="#ffffff" d="M600 600H1000V400H600ZM100 900H500V700H100ZM600 900H1000V700H600Z"/>
  <path fill="#f8d6d9" d="M500 600H800V500H700V400H500ZM300 800H400V900H700V800H800V700H300Z"/>
  <path fill="#d41615" d="M300 600H600V400H300Z"/>
  <path fill="#d94f17" d="M200 600H500V500H400V400H200Z"/>
  <path fill="#da661b" d="M100 600H300V400H100Z"/>
  <path fill="#de691a" d="M100 600H400V500H300V400H200V500H100Z"/>
  <path fill="#e05717" d="M100 700H300V500H100Z"/>
  <path fill="#f6ced1" d="M600 800H1000V500H600ZM100 800H500V600H100Z"/>
  <path fill="#d30214" d="M100 700H400V800H500V900H600V800H700V700H1000V600H700V500H600V400H500V500H200V600H100Z"/>
  <path fill="#f1adb3" d="M600 600H700V500H600ZM400 800H500V700H400ZM600 800H700V700H600Z"/>
  <path fill="#d41315" d="M300 600H500V500H300Z"/>
  <path fill="#d94619" d="M200 600H400V500H200Z"/>
  <path fill="#da3c18" d="M300 600H400V500H300Z"/>
</svg>
