<?xml version="1.0" encoding="UTF-8"?>
<svg xmlns="http://www.w3.org/2000/svg" viewBox="0 0 1200 1200" width="1200" height="1200">
  <title>emoji_u1f41c</title>
  <path fill="#868686" d="M200 900H300V1000H400V900H500V800H200ZM200 1200H300V1000H200Z"/>
  <path fill="#afafae" d="M500 800H800V700H900V500H700V600H500Z"/>
  <path fill="#44484e" d="M0 800H100V900H200V600H100V700H0Z"/>
  <path fill="#4d4d4d" d="M300 900H500V1200H600V900H700V1200H800V900H900V1000H1000V800H1100V600H900V700H600V600H400V700H300ZM1000 1200H1100V1000H1000Z"/>
  <path fill="#5d6265" d="M0 300H100V900H400V800H500V700H600V600H500V200H300V300H400V500H200V200H0ZM600 800H800V900H900V800H1000V700H1100V600H1000V500H800V600H700V700H600Z"/>
  <path fill="#838383" d="M800 800H900V500H800Z"/>
  <path fill="#0a0a0a" d="M300 700H400V600H300Z"/>
</svg>
