<?xml version="1.0" encoding="UTF-8"?>
<svg xmlns="http://www.w3.org/2000/svg" viewBox="0 0 1200 1200" width="1200" height="1200">
  <title>emoji_u1f985</title>
  <path fill="#ffb903" d="M0 600H100V700H300V500H0ZM0 800H100V700H0ZM400 900H500V800H400ZM300 1000H400V900H300ZM500 1100H700V900H500ZM200 1100H300V1000H200ZM400 1200H500V1100H400Z"/>
  <path fill="#f4821e" d="M200 1100H300V1000H200ZM400 1200H500V1100H400Z"/>
  <path fill="#4f3b37" d="M0 600H200V500H500V400H400V200H200V100H100V200H0Z"/>
  <path fill="#ffeac8" d="M100 600H200V700H300V800H400V900H500V1000H600V1100H800V1000H900V900H700V800H800V700H600V400H300V300H200V400H100Z"/>
  <path fill="#70534c" d="M400 900H500V1000H600V800H800V700H900V500H1100V400H1000V300H1100V200H600V300H500V400H400V500H500V600H400Z"/>
  <path fill="#302f2f" d="M200 600H300V500H200Z"/>
</svg>
