<?xml version="1.0" encoding="UTF-8"?>
<svg xmlns="http://www.w3.org/2000/svg" viewBox="0 0 1200 1200" width="1200" height="1200">
  <title>emoji_u1f531</title>
  <path fill="#ffecb3" d="M0 500H200V400H300V200H200V100H100V300H0ZM400 500H600V100H500V200H400ZM800 500H1000V100H900V200H800Z"/>
  <path fill="#ea9843" d="M0 900H100V1000H200V1100H400V1200H700V1100H900V1000H1000V900H1100V600H1000V500H1100V300H900V400H800V600H900V800H800V900H700V600H600V500H700V200H500V400H400V500H500V900H300V800H200V700H0ZM0 500H100V600H300V300H100V400H0Z"/>
  <path fill="#ffca28" d="M100 200H200V100H100ZM500 300H600V400H700V200H600V100H500ZM900 400H1100V300H1000V100H900ZM0 800H100V900H200V1000H500V1100H400V1200H700V1100H600V400H500V600H400V900H300V800H200V600H300V200H200V300H100V400H200V500H100V600H0ZM800 600H900V400H800ZM700 1000H900V900H1000V600H900V800H800V900H700Z"/>
</svg>
