<?xml version="1.0" encoding="UTF-8"?>
<svg xmlns="http://www.w3.org/2000/svg" viewBox="0 0 1200 1200" width="1200" height="1200">
  <title>emoji_u1f93e_200d_2640</title>
  <path fill="#62453b" d="M300 400H500V500H600V400H800V200H700V300H600V100H300Z"/>
  <path fill="#2f2f2f" d="M200 1200H400V1000H300V1100H200ZM800 1100H900V1200H1000V1000H800Z"/>
  <path fill="#5e6367" d="M800 500H900V400H800ZM600 700H700V600H800V500H600ZM700 1100H900V1000H800V900H700ZM300 1200H400V1000H300Z"/>
  <path fill="#ffca26" d="M700 400H800V500H1000V300H700ZM300 1100H400V1000H500V900H300ZM600 1000H700V1100H800V900H600Z"/>
  <path fill="#f3a708" d="M800 400H900V500H1000V300H800ZM100 700H300V600H100Z"/>
  <path fill="#ffce27" d="M300 600H400V500H300ZM200 700H300V600H200Z"/>
  <path fill="#464c4f" d="M700 400H1000V100H700Z"/>
  <path fill="#351ba4" d="M300 1000H500V900H600V1000H800V900H700V700H400V800H300Z"/>
  <path fill="#4b0fce" d="M400 800H700V500H600V400H500V600H400ZM600 1000H800V900H600Z"/>
  <path fill="#583ee2" d="M300 600H400V700H600V400H400V500H300ZM300 1000H500V900H300ZM600 1000H700V900H600Z"/>
  <path fill="#aeaeae" d="M800 400H900V100H800Z"/>
  <path fill="#f0a007" d="M300 400H400V500H600V300H300Z"/>
  <path fill="#ffcb29" d="M300 400H600V300H500V200H400V300H300Z"/>
  <path fill="#e0e0e0" d="M800 300H900V200H800Z"/>
</svg>
