<?xml version="1.0" encoding="UTF-8"?>
<svg xmlns="http://www.w3.org/2000/svg" viewBox="0 0 1200 1200" width="1200" height="1200">
  <title>emoji_u1f1fb_1f1fa</title>
  <path fill="#312804" d="M0 600H200V300H0ZM0 1000H200V700H0Z"/>
  <path fill="#385717" d="M0 1000H200V800H100V900H0Z"/>
  <path fill="#723212" d="M0 400H100V500H200V300H0Z"/>
  <path fill="#000000" d="M0 800H100V900H200V600H0Z"/>
  <path fill="#007937" d="M100 1000H300V800H100Z"/>
  <path fill="#1a1602" d="M0 700H200V400H100V500H0Z"/>
  <path fill="#3b3004" d="M0 700H100V800H200V500H100V600H0Z"/>
  <path fill="#ab0d2a" d="M100 500H300V300H100Z"/>
  <path fill="#009543" d="M100 900H200V1000H1100V700H300V800H100Z"/>
  <path fill="#d21034" d="M100 500H300V600H1100V300H200V400H100Z"/>
  <path fill="#00833b" d="M500 800H1100V600H500Z"/>
  <path fill="#b90e2e" d="M500 700H1100V500H500Z"/>
  <path fill="#5c4b07" d="M500 800H600V700H1100V600H600V500H500Z"/>
  <path fill="#00843b" d="M200 900H400V800H500V700H200Z"/>
  <path fill="#26561b" d="M100 900H300V800H400V700H100Z"/>
  <path fill="#473a05" d="M100 900H200V800H300V600H100Z"/>
  <path fill="#584806" d="M100 700H300V400H100Z"/>
  <path fill="#604e07" d="M100 700H200V800H300V500H200V600H100Z"/>
  <path fill="#695708" d="M200 800H300V700H200ZM100 900H200V800H100Z"/>
  <path fill="#6b5608" d="M100 500H200V600H300V400H100Z"/>
  <path fill="#742516" d="M200 600H400V400H200Z"/>
  <path fill="#ba0e2e" d="M200 600H500V500H400V400H300V500H200Z"/>
  <path fill="#00803a" d="M400 800H600V600H400Z"/>
  <path fill="#165821" d="M300 800H500V700H600V600H300Z"/>
  <path fill="#453905" d="M200 800H400V500H200Z"/>
  <path fill="#4a3d05" d="M200 800H400V600H300V700H200Z"/>
  <path fill="#4e3f06" d="M200 600H300V700H400V500H200Z"/>
  <path fill="#67580a" d="M300 800H400V700H500V600H300Z"/>
  <path fill="#6e5409" d="M300 700H500V500H300Z"/>
  <path fill="#781a1a" d="M300 700H600V500H400V600H300Z"/>
  <path fill="#b50e2d" d="M400 700H600V500H500V600H400Z"/>
  <path fill="#050400" d="M300 700H500V600H300Z"/>
  <path fill="#5f4e07" d="M400 700H600V600H400Z"/>
  <path fill="#9a7d0b" d="M400 700H500V600H400Z"/>
</svg>
