<?xml version="1.0" encoding="UTF-8"?>
<svg xmlns="http://www.w3.org/2000/svg" viewBox="0 0 1200 1200" width="1200" height="1200">
  <title>emoji_u1f1f9_1f1fc</title>
  <path fill="#000095" d="M0 600H200V500H300V300H0Z"/>
  <path fill="#bf254a" d="M100 500H400V300H200V400H100Z"/>
  <path fill="#cd001d" d="M0 700H200V400H100V500H0Z"/>
  <path fill="#fe0e0e" d="M200 500H500V300H300V400H200Z"/>
  <path fill="#fe0000" d="M0 1000H1100V300H400V400H300V500H100V600H0Z"/>
  <path fill="#2929a6" d="M100 600H300V400H100Z"/>
  <path fill="#d0cfea" d="M100 600H400V400H200V500H100Z"/>
  <path fill="#d3122b" d="M100 600H300V500H100Z"/>
  <path fill="#e58494" d="M200 600H400V500H500V400H300V500H200Z"/>
  <path fill="#fe0101" d="M400 500H500V400H400ZM300 600H400V500H300Z"/>
  <path fill="#e57f8e" d="M200 600H400V500H200Z"/>
  <path fill="#f0474f" d="M300 600H400V500H300Z"/>
</svg>
