<?xml version="1.0" encoding="UTF-8"?>
<svg xmlns="http://www.w3.org/2000/svg" viewBox="0 0 1200 1200" width="1200" height="1200">
  <title>emoji_u1f51b</title>
  <path fill="#427687" d="M0 1100H100V1200H1000V1100H1100V200H1000V100H900V1000H0Z"/>
  <path fill="#8cafbf" d="M0 1100H1000V100H100V200H0Z"/>
  <path fill="#a0c8d6" d="M100 500H300V400H400V200H200V300H100Z"/>
  <path fill="#fafafa" d="M100 500H200V600H300V700H400V500H700V700H800V600H900V500H1000V400H900V300H800V200H700V400H400V200H300V300H200V400H100ZM900 900H1000V700H900ZM100 1100H400V800H100ZM200 1000V900H300V1000ZM500 1100H600V900H700V800H500ZM700 1100H800V900H700ZM900 1100H1000V1000H900Z"/>
</svg>
