<?xml version="1.0" encoding="UTF-8"?>
<svg xmlns="http://www.w3.org/2000/svg" viewBox="0 0 1200 1200" width="1200" height="1200">
  <title>emoji_u1f4e0</title>
  <path fill="#757575" d="M0 1200H200V900H0Z"/>
  <path fill="#e0e0e0" d="M200 500H1000V400H900V100H300V300H200Z"/>
  <path fill="#616161" d="M0 1200H1100V900H800V1000H600V900H400V700H300V600H400V400H300V300H100V400H0V1000H100V1100H0Z"/>
  <path fill="#424242" d="M0 1000H100V400H0ZM200 800H300V1000H500V1100H900V1000H1100V400H300V500H200ZM200 1100H300V1000H200ZM100 1200H200V1100H100Z"/>
  <path fill="#8a8a8a" d="M400 300H800V200H400Z"/>
  <path fill="#90a4ae" d="M900 700H1000V600H900ZM900 900H1000V800H900Z"/>
  <path fill="#000000" d="M300 500H400V400H300ZM200 800H300V500H200ZM300 1000H400V800H300ZM500 1100H900V1000H500Z"/>
  <path fill="#bdbdbd" d="M500 700H600V600H700V700H800V500H500ZM600 800H700V700H600ZM500 900H600V800H500ZM700 900H800V800H700Z"/>
  <path fill="#7cb342" d="M500 600H800V500H500Z"/>
</svg>
