<?xml version="1.0" encoding="UTF-8"?>
<svg xmlns="http://www.w3.org/2000/svg" viewBox="0 0 1200 1200" width="1200" height="1200">
  <title>emoji_u1f90c_1f3fc</title>
  <path fill="#d19661" d="M0 1100H200V1000H300V900H600V800H700V700H800V400H900V800H1100V300H1000V200H900V100H700V200H600V100H500V200H400V400H300V500H200V600H100V900H0Z"/>
  <path fill="#8d542e" d="M500 200H600V100H500ZM300 1200H500V1100H700V1000H900V900H1000V800H1100V700H1000V300H900V200H800V100H700V200H600V400H700V600H600V700H500V800H400V700H300ZM400 600H600V500H500V400H400Z"/>
  <path fill="#e0bb95" d="M0 1200H400V1100H500V1000H700V900H900V800H1000V300H900V200H700V300H800V400H900V600H800V400H700V700H800V800H500V900H400V600H500V400H400V500H300V600H200V900H100V1000H0Z"/>
</svg>
