<?xml version="1.0" encoding="UTF-8"?>
<svg xmlns="http://www.w3.org/2000/svg" viewBox="0 0 1200 1200" width="1200" height="1200">
  <title>emoji_u1fa88</title>
  <path fill="#f6bc41" d="M0 1100H100V1200H300V1100H400V1000H500V900H600V800H700V700H800V600H900V500H1000V400H1100V200H1000V100H800V200H700V300H600V400H500V500H400V600H300V700H200V800H100V900H0Z"/>
  <path fill="#a65f3e" d="M600 500H700V400H800V600H900V500H1000V400H900V200H700V300H600ZM200 800H300V900H400V1000H500V900H600V800H500V600H300V700H200ZM200 1000H300V900H200Z"/>
  <path fill="#de7340" d="M800 300H900V200H800ZM700 400H800V300H700ZM600 500H700V400H600ZM400 700H500V600H400ZM300 800H400V700H300Z"/>
  <path fill="#3e2723" d="M800 300H900V200H800ZM600 500H700V400H600ZM500 600H600V500H500ZM400 700H500V600H400ZM100 1100H300V900H100Z"/>
</svg>
