<?xml version="1.0" encoding="UTF-8"?>
<svg xmlns="http://www.w3.org/2000/svg" viewBox="0 0 1200 1200" width="1200" height="1200">
  <title>emoji_u1fad7</title>
  <path fill="#865c50" d="M100 600H200V700H400V800H600V900H800V1000H900V1200H1000V900H900V600H700V500H400V400H100Z"/>
  <path fill="#c8c8c8" d="M500 600H600V700H800V800H900V700H1000V400H900V300H700V400H600V500H500ZM500 800H600V700H500ZM600 900H700V800H600Z"/>
  <path fill="#ffffff" d="M100 500H400V100H300V200H200V300H100ZM500 500H600V600H700V500H800V600H900V400H800V300H700V200H500Z"/>
  <path fill="#eaeaea" d="M100 600H200V700H400V600H700V400H600V300H700V200H500V100H300V300H400V400H200V300H100ZM200 600V500H300V600ZM700 400H800V300H700ZM700 700H900V400H800V600H700ZM400 800H600V700H400Z"/>
  <path fill="#cfcfcf" d="M200 500H300V600H400V500H500V200H300V400H200Z"/>
</svg>
