<?xml version="1.0" encoding="UTF-8"?>
<svg xmlns="http://www.w3.org/2000/svg" viewBox="0 0 1200 1200" width="1200" height="1200">
  <title>emoji_u1f3bc</title>
  <path fill="#546e7a" d="M600 200H700V100H600ZM400 500H600V400H700V300H600V200H500V400H400ZM700 300H800V200H700ZM0 1000H400V900H100V800H200V700H100V600H200V500H100V400H400V300H0ZM800 400H1100V300H800ZM300 800H400V500H300ZM400 1200H700V900H800V800H700V700H800V600H700V500H600V600H500V700H600V900H500V1000H600V1100H500V1000H400ZM800 600H1100V500H800ZM800 800H1100V700H800ZM400 900H500V800H400ZM800 1000H1100V900H800Z"/>
</svg>
