<?xml version="1.0" encoding="UTF-8"?>
<svg xmlns="http://www.w3.org/2000/svg" viewBox="0 0 1200 1200" width="1200" height="1200">
  <title>emoji_u1f945</title>
  <path fill="#b7cbd3" d="M200 300H300V400H400V300H500V400H600V300H700V400H800V300H900V200H200ZM100 1000H200V900H300V800H200V700H300V600H200V500H300V400H200V300H100ZM400 500H500V400H400ZM600 500H700V400H600ZM800 500H900V400H800ZM300 600H400V500H300ZM500 600H600V500H500ZM700 600H800V500H700ZM800 900H900V1000H1000V500H900V600H800V700H900V800H800ZM400 700H500V600H400ZM600 700H700V600H600ZM300 800H400V700H300ZM400 900H700V800H600V700H500V800H400ZM700 800H800V700H700ZM300 1000H400V900H300ZM700 1000H800V900H700Z"/>
  <path fill="#ff180a" d="M0 1100H200V300H900V1100H1100V200H1000V100H100V200H0Z"/>
  <path fill="#9a9a9a" d="M400 900H700V800H400ZM100 1100H300V1000H200V900H100ZM300 1000H400V900H300ZM700 1000H800V900H700ZM800 1100H1000V900H900V1000H800Z"/>
  <path fill="#df0a2b" d="M100 1100H200V300H900V400H800V500H900V1100H1000V200H100Z"/>
  <path fill="#ffffff" d="M800 500H900V400H800Z"/>
</svg>
