<?xml version="1.0" encoding="UTF-8"?>
<svg xmlns="http://www.w3.org/2000/svg" viewBox="0 0 1200 1200" width="1200" height="1200">
  <title>emoji_u1f454</title>
  <path fill="#bae2fd" d="M0 1200H1100V400H1000V300H900V200H800V100H300V200H200V300H100V400H0Z"/>
  <path fill="#e8f6ff" d="M100 400H200V500H300V700H500V600H600V700H800V500H900V400H1000V300H700V200H400V300H100Z"/>
  <path fill="#de7340" d="M300 700H400V1100H500V1200H600V1100H700V700H800V600H700V500H600V400H500V500H400V600H300Z"/>
  <path fill="#77abc0" d="M300 400H500V300H600V400H800V300H700V200H400V300H300ZM500 500H600V400H500ZM400 600H500V500H400ZM600 600H700V500H600ZM300 700H400V600H300ZM700 700H800V600H700ZM400 800H500V700H400Z"/>
  <path fill="#f3ab47" d="M400 600H500V500H400ZM600 600H700V500H600ZM500 700H600V600H500ZM400 1000H500V900H700V800H500V700H400ZM500 1100H600V1000H500Z"/>
  <path fill="#874d36" d="M500 500H600V400H500ZM400 600H500V500H400ZM600 600H700V500H600ZM500 900H600V800H500Z"/>
</svg>
