<?xml version="1.0" encoding="UTF-8"?>
<svg xmlns="http://www.w3.org/2000/svg" viewBox="0 0 1200 1200" width="1200" height="1200">
  <title>emoji_u1f9aa</title>
  <path fill="#87716b" d="M0 800H100V900H200V1100H300V1200H500V1100H600V1200H800V1100H900V1000H1000V800H1100V100H700V200H400V300H300V400H200V500H100V600H0Z"/>
  <path fill="#e1e2e1" d="M300 600H400V700H800V600H900V200H800V300H700V200H500V300H400V400H300Z"/>
  <path fill="#cccccc" d="M500 500H700V300H500ZM100 800H200V900H300V1100H400V1000H600V1100H700V1000H900V600H700V800H500V700H400V600H500V500H400V400H300V500H200V600H100Z"/>
  <path fill="#f1f2f2" d="M500 400H600V300H500ZM600 500H700V400H600ZM700 600H800V500H700Z"/>
  <path fill="#f3f1f6" d="M200 800H400V700H500V500H400V400H300V600H200ZM400 900H600V1000H700V900H900V800H800V700H600V800H400ZM300 1000H400V900H300Z"/>
  <path fill="#f2a764" d="M300 800H400V900H700V800H800V700H900V600H1000V300H800V500H700V600H600V700H500V600H300Z"/>
  <path fill="#ffd2b1" d="M300 700H400V800H700V700H800V600H900V400H1000V300H900V200H800V500H700V600H500V500H400V600H300Z"/>
</svg>
