<?xml version="1.0" encoding="UTF-8"?>
<svg xmlns="http://www.w3.org/2000/svg" viewBox="0 0 1200 1200" width="1200" height="1200">
  <title>emoji_u1f6b2</title>
  <path fill="#484d50" d="M0 1000H100V1100H400V1000H500V700H600V1000H700V1100H1000V1000H1100V700H1000V600H900V500H800V600H400V500H300V600H100V700H0ZM100 900V800H400V900H300V1000H200V900ZM700 900V800H1000V900H900V1000H800V900Z"/>
  <path fill="#5e6268" d="M100 200H500V300H600V100H100ZM0 300H100V200H0ZM800 300H900V400H1000V300H1100V200H800ZM100 400H300V300H100Z"/>
  <path fill="#b3b3b3" d="M500 300H600V200H500ZM400 500H600V400H500V300H400ZM900 400H1000V300H900ZM800 500H900V400H800Z"/>
  <path fill="#c9c9c9" d="M500 300H600V100H500Z"/>
  <path fill="#67a6ad" d="M100 800H200V900H300V800H400V700H700V800H800V900H900V800H1000V700H900V400H400V500H800V600H400V500H300V700H100Z"/>
  <path fill="#b9baba" d="M100 800H200V700H100ZM300 800H400V700H300ZM700 800H800V700H700ZM900 800H1000V700H900ZM200 900H300V800H200ZM800 900H900V800H800ZM100 1000H200V900H100ZM300 1000H400V900H300ZM700 1000H800V900H700ZM900 1000H1000V900H900Z"/>
  <path fill="#626168" d="M200 900H300V800H200ZM800 900H900V800H800Z"/>
</svg>
