<?xml version="1.0" encoding="UTF-8"?>
<svg xmlns="http://www.w3.org/2000/svg" viewBox="0 0 1200 1200" width="1200" height="1200">
  <title>emoji_u1f1f8_1f1f4</title>
  <path fill="#4189dd" d="M0 1000H1100V300H0Z"/>
  <path fill="#438add" d="M300 700H400V800H500V600H600V800H700V700H800V600H700V500H600V400H500V500H400V600H300Z"/>
  <path fill="#448bde" d="M400 700H700V500H400Z"/>
  <path fill="#6ea5e5" d="M400 800H700V600H400Z"/>
  <path fill="#7caee8" d="M400 700H500V800H600V700H700V600H400Z"/>
  <path fill="#99c0ed" d="M400 700H700V600H600V500H500V600H400Z"/>
  <path fill="#a0c4ee" d="M400 700H700V600H400Z"/>
  <path fill="#ffffff" d="M500 700H600V600H500Z"/>
</svg>
