<?xml version="1.0" encoding="UTF-8"?>
<svg xmlns="http://www.w3.org/2000/svg" viewBox="0 0 1200 1200" width="1200" height="1200">
  <title>emoji_u1f235</title>
  <path fill="#cc3333" d="M0 1100H100V1200H1000V1100H1100V200H1000V100H900V1000H0Z"/>
  <path fill="#f44336" d="M0 1100H1000V100H100V200H0Z"/>
  <path fill="#ff8a80" d="M200 300H300V200H200ZM100 400H200V300H100Z"/>
  <path fill="#fafafa" d="M100 400H200V300H100ZM400 1100H900V800H700V700H900V600H800V500H900V400H800V300H700V400H600V300H500V400H400V500H500V600H400V700H600V800H400ZM600 600V500H700V600ZM500 1000V900H600V1000ZM700 1000V900H800V1000ZM200 500H300V400H200ZM100 700H200V600H100ZM200 800H300V700H200ZM200 1000H300V900H200ZM100 1100H200V1000H100Z"/>
</svg>
