<?xml version="1.0" encoding="UTF-8"?>
<svg xmlns="http://www.w3.org/2000/svg" viewBox="0 0 1200 1200" width="1200" height="1200">
  <title>emoji_u303d</title>
  <path fill="#f2a600" d="M0 700H100V600H200V500H300V600H500V500H600V600H700V800H800V1000H900V1100H1000V1000H1100V900H1000V700H900V500H800V300H700V200H500V300H400V200H200V300H100V400H0Z"/>
  <path fill="#ffcc32" d="M0 600H100V500H200V400H300V600H400V500H500V400H600V600H700V800H800V1000H900V1100H1000V900H900V700H800V500H700V300H600V200H500V300H300V200H200V300H100V400H0Z"/>
  <path fill="#fff170" d="M200 300H300V200H200ZM100 400H200V300H100ZM300 400H400V300H300ZM500 400H600V500H700V300H500ZM700 600H800V500H700ZM800 800H900V700H800Z"/>
</svg>
