<?xml version="1.0" encoding="UTF-8"?>
<svg xmlns="http://www.w3.org/2000/svg" viewBox="0 0 1200 1200" width="1200" height="1200">
  <title>emoji_u1f95b</title>
  <path fill="#c0c0c0" d="M200 800H300V1100H400V1200H800V1100H900V800H1000V500H800V700H700V1000H500V700H400V500H200Z"/>
  <path fill="#c8c8c8" d="M200 600H300V700H900V600H1000V300H900V200H800V100H400V200H300V300H200Z"/>
  <path fill="#eaeaea" d="M300 400H400V500H800V400H900V300H800V200H400V300H300ZM200 600H300V700H500V600H400V500H300V400H200ZM700 700H900V600H1000V400H900V500H800V600H700Z"/>
  <path fill="#f0e7ba" d="M300 800H400V1100H800V800H900V600H700V700H600V800H500V600H300Z"/>
  <path fill="#ffffff" d="M300 400H400V300H300ZM800 400H900V300H800ZM400 500H800V400H400ZM300 700H400V1000H500V900H600V700H500V600H300Z"/>
  <path fill="#fcf9e9" d="M400 800H500V900H700V800H800V700H900V600H400Z"/>
</svg>
