<?xml version="1.0" encoding="UTF-8"?>
<svg xmlns="http://www.w3.org/2000/svg" viewBox="0 0 1200 1200" width="1200" height="1200">
  <title>emoji_u1f3ec</title>
  <path fill="#eb2901" d="M800 600H900V500H1000V600H1100V300H800Z"/>
  <path fill="#858687" d="M900 500H1000V400H900ZM700 700H1100V500H1000V600H900V500H800V600H700Z"/>
  <path fill="#e4c5b1" d="M0 300H700V100H0ZM700 800H1100V600H700Z"/>
  <path fill="#ffa627" d="M800 400H900V300H800ZM1000 400H1100V300H1000ZM900 500H1000V400H900Z"/>
  <path fill="#a7d0d6" d="M0 1200H300V900H0ZM500 1200H1100V1000H800V900H500Z"/>
  <path fill="#385661" d="M0 1100H100V1000H200V1100H300V800H0ZM500 1100H600V1000H700V1200H800V1100H1100V900H800V800H500Z"/>
  <path fill="#987869" d="M0 400H700V200H0ZM0 1200H300V1000H500V1200H800V1000H900V700H800V600H700V500H600V700H0ZM100 1100V900H200V1100ZM600 1100V900H700V1100Z"/>
  <path fill="#a8cfd6" d="M0 800H700V300H0ZM800 900H1100V700H800ZM200 1200H600V900H200Z"/>
  <path fill="#464b4e" d="M0 800H700V700H600V600H700V500H600V400H700V300H0V400H100V500H0V600H100V700H0ZM200 700V400H300V500H400V400H500V700H400V600H300V700ZM800 1000H1100V800H1000V700H900V800H800Z"/>
  <path fill="#765f57" d="M200 1200H300V1000H500V1200H600V900H200Z"/>
  <path fill="#c6a99d" d="M100 800H200V300H100ZM300 800H400V300H300ZM500 800H600V300H500ZM800 1000H1100V900H1000V700H900V900H800Z"/>
</svg>
