<?xml version="1.0" encoding="UTF-8"?>
<svg xmlns="http://www.w3.org/2000/svg" viewBox="0 0 1200 1200" width="1200" height="1200">
  <title>emoji_u1f305</title>
  <path fill="#54c8d4" d="M0 1200H1100V1000H0Z"/>
  <path fill="#e16870" d="M0 500H200V300H900V500H1100V100H0Z"/>
  <path fill="#ff9b4f" d="M0 200H100V100H0ZM400 300H700V200H600V100H500V200H400ZM1000 200H1100V100H1000ZM100 300H200V200H100ZM900 300H1000V200H900ZM0 700H200V400H0ZM900 700H1100V400H900Z"/>
  <path fill="#baf3fa" d="M0 1100H200V800H0ZM800 1100H1100V800H800Z"/>
  <path fill="#e9716a" d="M0 800H200V500H300V400H800V500H900V800H1100V600H1000V500H1100V400H1000V200H100V400H0V500H100V600H0Z"/>
  <path fill="#76ccc7" d="M0 1100H1100V1000H900V900H100V1000H0Z"/>
  <path fill="#a6d2b5" d="M0 900H100V1000H500V700H0ZM700 1000H900V900H1100V700H700Z"/>
  <path fill="#b7d5af" d="M0 800H200V900H300V800H400V900H800V800H1100V700H1000V600H100V700H0Z"/>
  <path fill="#ffa14c" d="M100 300H200V200H100ZM100 700H300V500H400V400H700V500H800V700H1000V400H900V300H600V200H500V300H200V400H100ZM900 300H1000V200H900Z"/>
  <path fill="#f58062" d="M100 700H300V600H400V500H700V600H800V700H1000V600H900V500H1000V400H800V300H300V400H100V500H200V600H100Z"/>
  <path fill="#91d0bd" d="M100 1000H500V1100H700V1000H900V900H800V800H400V900H300V800H200V900H100Z"/>
  <path fill="#ffffff" d="M200 900H300V800H200ZM400 900H800V800H400ZM500 1100H700V1000H500Z"/>
  <path fill="#ff9068" d="M200 700H400V600H500V400H300V500H200ZM600 600H700V700H900V500H800V400H600Z"/>
  <path fill="#fff7b3" d="M300 700H800V500H700V400H400V500H300Z"/>
  <path fill="#fffdfa" d="M500 600H600V500H500ZM400 700H500V600H400Z"/>
</svg>
