<?xml version="1.0" encoding="UTF-8"?>
<svg xmlns="http://www.w3.org/2000/svg" viewBox="0 0 1200 1200" width="1200" height="1200">
  <title>emoji_u1f6b1</title>
  <path fill="#f44336" d="M0 800H100V1000H200V1100H400V1200H500V900H600V1000H700V1100H900V1000H1000V800H1100V700H800V600H700V500H600V400H1000V300H900V200H700V100H400V200H200V300H100V500H0Z"/>
  <path fill="#cc3333" d="M300 400H400V500H500V600H600V700H700V800H800V900H900V800H1100V500H1000V300H800V500H700V400H600V300H500V200H400V300H300ZM200 500H300V400H200ZM300 600H400V500H300ZM400 700H500V600H400ZM500 800H600V700H500ZM400 1200H700V1100H900V1000H800V900H700V800H600V1000H400ZM900 1000H1000V900H900Z"/>
  <path fill="#231f20" d="M400 400H700V500H900V300H700V200H400ZM100 800H200V900H300V600H400V500H300V400H200V500H100Z"/>
  <path fill="#414042" d="M400 400H500V500H600V600H700V700H800V800H1000V500H900V400H800V300H400ZM200 1000H400V1100H700V1000H800V900H700V800H600V700H500V600H400V500H200Z"/>
  <path fill="#fafafa" d="M500 400H600V600H800V700H900V400H800V500H700V400H800V300H500ZM400 700H500V600H400ZM300 1000H400V1100H500V1000H600V800H500V900H400V800H300Z"/>
</svg>
