<?xml version="1.0" encoding="UTF-8"?>
<svg xmlns="http://www.w3.org/2000/svg" viewBox="0 0 1200 1200" width="1200" height="1200">
  <title>emoji_u1f9d1_200d_1f3a8</title>
  <path fill="#00579c" d="M0 1100H100V1200H300V1000H0Z"/>
  <path fill="#2885c6" d="M100 1100H200V1200H400V1000H100Z"/>
  <path fill="#b0b0b0" d="M600 1200H900V1000H600Z"/>
  <path fill="#5e6367" d="M400 400H1100V200H800V100H700V200H500V300H400Z"/>
  <path fill="#62453b" d="M300 900H600V600H900V900H1000V800H1100V300H300V400H400V800H300Z"/>
  <path fill="#e0e0e0" d="M700 1100H800V1200H1100V900H1000V800H800V900H700Z"/>
  <path fill="#f2a259" d="M0 1100H300V1200H700V1100H800V900H700V800H600V700H500V800H100V900H0Z"/>
  <path fill="#464c4f" d="M700 200H800V100H700ZM300 400H700V500H900V400H1100V300H300Z"/>
  <path fill="#007d33" d="M700 1100H800V1000H900V900H1000V700H800V800H700Z"/>
  <path fill="#c62727" d="M100 1000H300V900H100Z"/>
  <path fill="#e07f14" d="M400 1100H600V1000H400Z"/>
  <path fill="#f44236" d="M200 1000H300V900H200Z"/>
  <path fill="#ffed5a" d="M600 1000H700V900H600ZM500 1100H600V1000H500Z"/>
  <path fill="#02ab47" d="M500 900H600V1000H700V1100H800V900H900V800H700V700H500Z"/>
  <path fill="#ffca26" d="M500 800H600V900H900V800H1000V500H900V400H700V500H500Z"/>
  <path fill="#e59502" d="M600 900H900V800H600Z"/>
  <path fill="#3f4040" d="M600 700H700V500H600ZM800 700H900V500H800Z"/>
</svg>
