<?xml version="1.0" encoding="UTF-8"?>
<svg xmlns="http://www.w3.org/2000/svg" viewBox="0 0 1200 1200" width="1200" height="1200">
  <title>emoji_u1f33a</title>
  <path fill="#2e7e31" d="M800 1100H900V1200H1100V700H900V900H800ZM0 1200H300V1100H500V800H200V900H100V1000H0Z"/>
  <path fill="#fee165" d="M100 400H200V500H500V200H400V100H100Z"/>
  <path fill="#ea4b8d" d="M0 900H100V1100H300V900H400V1100H500V1200H800V1100H900V1000H1000V800H1100V500H1000V200H900V100H500V200H300V300H400V400H300V300H200V200H100V600H0Z"/>
  <path fill="#fdc11e" d="M200 200H300V100H200ZM100 300H200V200H100ZM300 300H400V200H300ZM200 400H300V300H200ZM400 700H700V400H400Z"/>
  <path fill="#5b9922" d="M800 900H900V800H800ZM900 1000H1000V900H900ZM100 1100H300V1000H100Z"/>
  <path fill="#c10375" d="M300 700H500V800H700V600H800V500H700V300H600V400H500V500H600V600H500V500H400V600H300Z"/>
</svg>
