<?xml version="1.0" encoding="UTF-8"?>
<svg xmlns="http://www.w3.org/2000/svg" viewBox="0 0 1200 1200" width="1200" height="1200">
  <title>emoji_u26fd</title>
  <path fill="#616161" d="M1000 800H1100V400H1000ZM600 900H700V800H800V700H700V600H600ZM800 900H1000V800H800Z"/>
  <path fill="#c62828" d="M100 1200H700V1000H100Z"/>
  <path fill="#9e9e9e" d="M800 200H900V100H800ZM900 300H1000V200H900ZM1000 400H1100V300H1000Z"/>
  <path fill="#f44336" d="M100 1100H700V300H100ZM1000 500H1100V300H1000Z"/>
  <path fill="#82aec0" d="M200 600H600V400H200Z"/>
  <path fill="#ffffff" d="M200 700H600V500H200Z"/>
  <path fill="#f5f5f5" d="M300 1000H500V800H300Z"/>
</svg>
