<?xml version="1.0" encoding="UTF-8"?>
<svg xmlns="http://www.w3.org/2000/svg" viewBox="0 0 1200 1200" width="1200" height="1200">
  <title>emoji_u1f1f2_1f1f9</title>
  <path fill="#fcf7f8" d="M0 500H200V300H0Z"/>
  <path fill="#e6d5d6" d="M0 500H300V300H100V400H0Z"/>
  <path fill="#e9dedf" d="M0 600H200V400H0Z"/>
  <path fill="#fffdfd" d="M100 500H400V300H200V400H100Z"/>
  <path fill="#cf142b" d="M500 1000H1100V300H500Z"/>
  <path fill="#ffffff" d="M0 1000H600V300H300V400H100V500H0Z"/>
  <path fill="#e78a95" d="M500 1000H600V300H500Z"/>
  <path fill="#c8bcbb" d="M100 600H200V500H300V400H100Z"/>
  <path fill="#f7f0f1" d="M200 500H300V400H200ZM100 600H200V500H100Z"/>
  <path fill="#f9f2f3" d="M100 600H200V500H100Z"/>
</svg>
