<?xml version="1.0" encoding="UTF-8"?>
<svg xmlns="http://www.w3.org/2000/svg" viewBox="0 0 1200 1200" width="1200" height="1200">
  <title>emoji_u1f5fa</title>
  <path fill="#c8c8c8" d="M0 1100H1100V200H0Z"/>
  <path fill="#1e85f9" d="M100 1000H1000V300H100Z"/>
  <path fill="#7adc8a" d="M100 500H200V700H300V600H400V400H500V300H200V400H100ZM500 800H600V900H700V700H800V800H900V600H1000V400H900V300H800V400H600V500H500V600H600V700H500ZM200 1000H300V900H400V700H300V800H200ZM900 900H1000V800H900Z"/>
</svg>
