<?xml version="1.0" encoding="UTF-8"?>
<svg xmlns="http://www.w3.org/2000/svg" viewBox="0 0 1200 1200" width="1200" height="1200">
  <title>emoji_u1f6a8</title>
  <path fill="#ffd600" d="M100 200H200V100H100ZM500 300H600V100H500ZM900 200H1000V100H900ZM200 300H300V200H200ZM800 300H900V200H800Z"/>
  <path fill="#82aec0" d="M100 1200H1000V900H800V1000H300V900H100Z"/>
  <path fill="#e0e0e0" d="M100 1000H200V1100H900V1000H1000V900H900V800H800V900H300V800H200V900H100Z"/>
  <path fill="#f44336" d="M200 1000H900V500H800V400H300V500H200Z"/>
  <path fill="#ffd5ca" d="M600 600H700V500H600ZM600 1000H900V900H800V600H700V900H600Z"/>
  <path fill="#cb2b29" d="M200 1000H900V900H200Z"/>
</svg>
