<?xml version="1.0" encoding="UTF-8"?>
<svg xmlns="http://www.w3.org/2000/svg" viewBox="0 0 1200 1200" width="1200" height="1200">
  <title>emoji_u1f3f5</title>
  <path fill="#a62714" d="M100 400H300V200H100ZM800 400H1000V200H800ZM0 1000H200V800H0ZM900 1000H1100V800H900ZM400 1200H700V1000H400Z"/>
  <path fill="#fe6111" d="M0 900H100V1000H200V1100H300V1200H500V1100H600V1200H800V1100H900V1000H1000V900H1100V400H1000V300H900V200H800V100H300V200H200V300H100V400H0Z"/>
  <path fill="#c54c0f" d="M100 900H200V1000H300V900H400V600H500V300H200V800H100ZM600 600H700V900H800V1000H900V900H1000V800H900V300H600ZM400 1100H700V900H400Z"/>
  <path fill="#ffa624" d="M100 600H200V700H300V800H200V1000H300V1100H500V1000H600V1100H800V1000H900V800H800V700H900V600H1000V500H900V400H800V500H700V400H800V300H600V200H500V300H300V400H400V500H300V400H200V500H100Z"/>
  <path fill="#fffeff" d="M300 900H400V1000H700V900H800V700H700V600H800V500H700V400H600V500H500V400H400V500H300V600H400V700H300ZM400 900V800H500V900ZM600 900V800H700V900Z"/>
  <path fill="#ffffff" d="M500 800H800V700H700V600H500Z"/>
  <path fill="#fcc318" d="M400 700H500V800H600V700H700V600H600V500H500V600H400Z"/>
</svg>
