<?xml version="1.0" encoding="UTF-8"?>
<svg xmlns="http://www.w3.org/2000/svg" viewBox="0 0 1200 1200" width="1200" height="1200">
  <title>emoji_u1f3ba</title>
  <path fill="#9e740b" d="M400 600H900V500H800V400H900V300H400V400H500V500H400ZM600 500V400H700V500Z"/>
  <path fill="#616161" d="M900 700H1000V600H1100V400H1000V500H900Z"/>
  <path fill="#ffca28" d="M0 900H100V800H200V700H300V800H400V900H500V1000H600V900H700V1000H800V900H900V800H1000V500H200V400H100V300H0ZM400 800V600H500V800ZM600 800V600H700V800ZM800 800V600H900V800Z"/>
  <path fill="#fff9c4" d="M100 600H300V500H100Z"/>
</svg>
