<?xml version="1.0" encoding="UTF-8"?>
<svg xmlns="http://www.w3.org/2000/svg" viewBox="0 0 1200 1200" width="1200" height="1200">
  <title>emoji_u1f348</title>
  <path fill="#5e8a28" d="M300 200H500V300H400V600H700V300H600V200H800V100H300Z"/>
  <path fill="#a8ce5f" d="M100 1000H200V1100H300V1200H800V1100H900V1000H1000V500H900V400H800V300H600V500H500V300H300V400H200V500H100Z"/>
  <path fill="#efe4af" d="M400 400H500V300H400ZM600 400H700V300H600ZM300 500H400V400H300ZM700 500H800V400H700ZM200 1100H300V500H200ZM400 1200H500V600H600V1200H700V500H400ZM800 1100H900V500H800Z"/>
  <path fill="#b4de58" d="M600 600H700V500H600ZM400 700H500V600H400ZM800 700H900V600H800ZM200 800H300V700H200ZM400 900H500V800H400ZM600 900H700V800H600ZM200 1000H300V900H200ZM800 1000H900V900H800ZM400 1100H500V1000H400ZM600 1200H700V1100H600Z"/>
</svg>
