<?xml version="1.0" encoding="UTF-8"?>
<svg xmlns="http://www.w3.org/2000/svg" viewBox="0 0 1200 1200" width="1200" height="1200">
  <title>emoji_u1f357</title>
  <path fill="#dfbca6" d="M0 400H100V500H200V600H300V700H400V400H300V300H200V100H100V200H0Z"/>
  <path fill="#ac5832" d="M300 700H400V1000H500V1100H600V1200H1000V1100H1100V800H800V700H600V600H500V500H300Z"/>
  <path fill="#ffebca" d="M100 400H200V500H300V600H400V500H500V300H400V200H300V100H100Z"/>
  <path fill="#d27856" d="M300 600H400V700H500V1000H600V1100H1100V700H1000V600H900V500H600V400H500V300H400V400H300ZM600 900V800H700V900H800V1000H700V900ZM900 1000V900H1000V1000Z"/>
</svg>
