<?xml version="1.0" encoding="UTF-8"?>
<svg xmlns="http://www.w3.org/2000/svg" viewBox="0 0 1200 1200" width="1200" height="1200">
  <title>emoji_u1f303</title>
  <path fill="#195c9d" d="M0 300H200V100H0ZM600 300H1100V100H600Z"/>
  <path fill="#ffd420" d="M0 400H200V100H100V200H0ZM500 300H800V200H700V100H500ZM900 700H1100V400H900Z"/>
  <path fill="#fde064" d="M0 1000H300V700H0Z"/>
  <path fill="#192c60" d="M0 1200H400V500H0V800H200V900H0ZM500 1200H1100V600H1000V500H700V700H500Z"/>
  <path fill="#fef7b0" d="M600 500H700V600H1000V500H1100V200H1000V100H900V200H600Z"/>
  <path fill="#38708d" d="M0 500H200V200H100V300H0ZM500 500H800V400H700V300H800V200H500Z"/>
  <path fill="#3d738a" d="M0 600H200V300H100V400H0ZM500 600H1000V500H800V400H600V300H500ZM1000 500H1100V400H1000Z"/>
  <path fill="#3f737b" d="M100 600H300V1100H600V200H100ZM1000 900H1100V800H1000ZM0 1100H200V1000H0ZM1000 1100H1100V1000H1000Z"/>
  <path fill="#6ba3ae" d="M0 600H200V500H300V1200H600V800H700V500H600V300H700V200H600V100H100V500H0ZM200 400V300H300V400ZM400 400V300H500V400ZM400 600V500H500V600ZM400 800V700H500V800ZM400 1000V900H500V1000Z"/>
  <path fill="#417688" d="M0 600H100V500H0ZM600 700H800V600H1000V500H600Z"/>
  <path fill="#2a6794" d="M600 300H900V200H600Z"/>
  <path fill="#477985" d="M600 800H800V600H600Z"/>
  <path fill="#4d7e82" d="M600 800H800V700H600Z"/>
</svg>
