<?xml version="1.0" encoding="UTF-8"?>
<svg xmlns="http://www.w3.org/2000/svg" viewBox="0 0 1200 1200" width="1200" height="1200">
  <title>emoji_u1f45a</title>
  <path fill="#b7d5e5" d="M100 300H200V400H500V300H600V400H900V300H1000V200H900V100H200V200H100Z"/>
  <path fill="#cfb0ea" d="M0 600H200V1100H900V600H1100V300H1000V200H800V300H700V400H600V500H500V400H400V300H300V200H100V300H0Z"/>
  <path fill="#b881cf" d="M200 400H300V500H400V600H700V500H800V400H900V200H800V300H600V400H500V300H300V200H200ZM0 700H100V600H200V500H100V300H0ZM900 600H1000V700H1100V300H1000V500H900Z"/>
  <path fill="#a673c4" d="M300 400H400V500H700V400H800V300H700V200H400V300H300Z"/>
  <path fill="#eeeeee" d="M300 400H400V500H700V400H800V300H600V400H500V300H300Z"/>
</svg>
