<?xml version="1.0" encoding="UTF-8"?>
<svg xmlns="http://www.w3.org/2000/svg" viewBox="0 0 1200 1200" width="1200" height="1200">
  <title>emoji_u1f460</title>
  <path fill="#a12524" d="M200 800H300V700H400V800H500V900H600V1000H700V1100H1100V900H800V800H700V700H600V600H500V500H200ZM100 1100H200V1000H300V900H100Z"/>
  <path fill="#f44336" d="M0 600H100V1000H300V600H400V700H500V800H600V900H700V1000H1100V800H1000V700H900V600H800V500H700V400H600V300H500V200H400V100H100V200H0Z"/>
  <path fill="#fe9a99" d="M200 300H300V200H200ZM100 500H200V300H100ZM700 900H800V1000H900V800H700Z"/>
  <path fill="#263238" d="M200 300H300V400H400V500H500V700H600V800H700V900H900V700H800V600H700V500H600V400H500V300H400V200H200Z"/>
  <path fill="#2f7889" d="M500 700H600V600H500ZM600 800H700V700H600ZM700 900H800V800H700Z"/>
</svg>
