<?xml version="1.0" encoding="UTF-8"?>
<svg xmlns="http://www.w3.org/2000/svg" viewBox="0 0 1200 1200" width="1200" height="1200">
  <title>emoji_u1f1ea_1f1e8</title>
  <path fill="#ed1c24" d="M0 1000H1100V800H0Z"/>
  <path fill="#ffdd00" d="M0 700H500V500H600V700H1100V300H0Z"/>
  <path fill="#b32843" d="M0 900H500V700H0ZM600 900H1100V700H600Z"/>
  <path fill="#034ea2" d="M0 800H400V900H500V600H0ZM600 900H700V800H1100V600H600Z"/>
  <path fill="#819651" d="M0 700H400V800H500V500H400V600H0ZM600 800H700V700H1100V600H700V500H600Z"/>
  <path fill="#b42943" d="M400 900H700V700H400Z"/>
  <path fill="#bf253b" d="M400 800H500V900H600V800H700V700H400Z"/>
  <path fill="#eaca09" d="M400 600H600V400H400Z"/>
  <path fill="#edcd07" d="M500 600H700V400H500Z"/>
  <path fill="#efd00e" d="M400 600H700V500H600V400H500V500H400Z"/>
  <path fill="#59746e" d="M500 800H700V600H500Z"/>
  <path fill="#5c7570" d="M400 800H600V600H400Z"/>
  <path fill="#856f47" d="M400 700H500V800H600V700H700V600H400Z"/>
  <path fill="#868142" d="M400 700H700V500H400Z"/>
  <path fill="#c5b116" d="M500 700H700V500H600V600H500Z"/>
  <path fill="#c6b317" d="M400 700H600V600H500V500H400Z"/>
  <path fill="#6ba796" d="M400 700H700V600H400Z"/>
  <path fill="#8d8a49" d="M600 700H700V600H600Z"/>
  <path fill="#908b4a" d="M400 700H500V600H400Z"/>
</svg>
