<?xml version="1.0" encoding="UTF-8"?>
<svg xmlns="http://www.w3.org/2000/svg" viewBox="0 0 1200 1200" width="1200" height="1200">
  <title>emoji_u1f6ab</title>
  <path fill="#f44336" d="M400 200H700V100H400ZM100 500H200V400H300V500H400V600H500V700H600V800H700V900H800V1000H700V1100H900V1000H1000V800H800V700H700V600H600V500H500V400H400V200H200V300H100ZM700 300H900V200H700ZM900 400H1000V300H900ZM0 800H100V500H0ZM1000 800H1100V700H1000ZM100 1000H200V800H100ZM200 1100H400V1000H200ZM400 1200H500V1100H400Z"/>
  <path fill="#cc3333" d="M300 400H400V300H300ZM900 500H1000V300H900ZM400 500H500V400H400ZM500 600H600V500H500ZM1000 800H1100V500H1000ZM600 700H700V600H600ZM700 800H800V700H700ZM800 900H900V800H800ZM900 1000H1000V900H900ZM700 1100H900V1000H700ZM400 1200H700V1100H400Z"/>
</svg>
