<?xml version="1.0" encoding="UTF-8"?>
<svg xmlns="http://www.w3.org/2000/svg" viewBox="0 0 1200 1200" width="1200" height="1200">
  <title>emoji_u1f36a</title>
  <path fill="#ac5811" d="M0 1000H100V1100H200V1200H900V1100H1000V1000H1100V500H900V800H800V900H300V800H200V300H0Z"/>
  <path fill="#e48a47" d="M0 400H100V900H200V1000H900V900H1000V600H1100V300H1000V200H900V100H200V200H100V300H0Z"/>
  <path fill="#ffc86e" d="M100 500H200V600H300V800H800V700H900V500H1000V300H700V200H800V100H500V200H600V300H500V400H600V500H400V300H500V200H300V300H100ZM200 500V400H300V500Z"/>
  <path fill="#593329" d="M100 700H200V800H300V1000H500V900H400V500H500V600H700V500H800V400H900V300H700V400H600V300H500V200H300V500H200V600H100ZM700 1000H900V700H1000V600H900V500H800V600H700Z"/>
  <path fill="#925849" d="M300 300H400V200H300ZM200 800H300V900H400V800H500V700H400V600H600V500H800V300H400V400H300V500H200V600H300V700H200ZM100 700H200V600H100ZM600 800H700V900H800V800H900V600H700V700H600Z"/>
  <path fill="#eb9650" d="M200 800H400V600H600V500H500V400H700V300H400V400H300V700H200ZM700 500H800V400H700ZM600 800H800V700H900V500H800V600H700V700H600Z"/>
</svg>
