<?xml version="1.0" encoding="UTF-8"?>
<svg xmlns="http://www.w3.org/2000/svg" viewBox="0 0 1200 1200" width="1200" height="1200">
  <title>emoji_u1f1f2_1f1f7</title>
  <path fill="#cd2a3e" d="M0 500H1100V300H0ZM0 1000H1100V800H0Z"/>
  <path fill="#0b5f34" d="M0 600H500V400H0ZM600 600H1100V400H600ZM0 900H500V700H0ZM600 900H1100V700H600Z"/>
  <path fill="#006233" d="M0 800H1100V500H0Z"/>
  <path fill="#0b5f33" d="M300 800H400V900H700V800H800V700H300Z"/>
  <path fill="#0d6033" d="M300 600H800V500H700V400H400V500H300Z"/>
  <path fill="#1c6630" d="M400 800H500V900H600V800H700V700H400Z"/>
  <path fill="#306e2c" d="M400 600H700V500H600V400H500V500H400Z"/>
  <path fill="#0a6631" d="M300 700H500V600H600V700H800V500H300Z"/>
  <path fill="#13692f" d="M300 700H500V600H400V500H300ZM600 700H800V500H700V600H600Z"/>
  <path fill="#2a722b" d="M300 800H500V600H300ZM600 800H800V600H600Z"/>
  <path fill="#a8a212" d="M300 700H400V800H700V700H800V600H600V700H500V600H300Z"/>
  <path fill="#979c15" d="M400 700H500V600H400ZM600 700H700V600H600ZM500 800H600V700H500Z"/>
  <path fill="#a7a212" d="M500 600H600V500H500ZM400 700H500V600H400ZM600 700H700V600H600Z"/>
  <path fill="#026333" d="M300 700H500V600H300ZM600 700H800V600H600Z"/>
  <path fill="#64881f" d="M300 700H400V600H300Z"/>
  <path fill="#64891f" d="M700 700H800V600H700Z"/>
</svg>
