<?xml version="1.0" encoding="UTF-8"?>
<svg xmlns="http://www.w3.org/2000/svg" viewBox="0 0 1200 1200" width="1200" height="1200">
  <title>emoji_u1faa4</title>
  <path fill="#ffe959" d="M300 1100H400V1200H800V1000H700V900H400V1000H300Z"/>
  <path fill="#ffc107" d="M300 1100H500V1000H600V1100H700V1200H800V900H700V800H400V900H300ZM500 1200H600V1100H500Z"/>
  <path fill="#ffb74d" d="M0 800H100V900H200V1200H300V1100H400V900H500V500H0Z"/>
  <path fill="#d68b52" d="M0 700H100V600H200V700H300V600H400V700H700V600H800V400H900V200H800V100H200V200H100V400H0Z"/>
  <path fill="#5d4037" d="M0 800H100V600H0ZM200 800H300V600H200ZM300 1100H400V1000H500V900H600V600H400V800H300ZM100 900H200V800H100Z"/>
  <path fill="#3e2723" d="M400 700H500V900H600V1000H700V1200H1100V1000H1000V900H900V800H800V700H700V600H400Z"/>
  <path fill="#a06841" d="M400 700H600V800H700V900H800V1000H900V1100H1000V1200H1100V400H1000V300H900V200H800V300H700V500H600V600H400ZM0 700H100V600H0ZM200 700H300V600H200Z"/>
</svg>
