<?xml version="1.0" encoding="UTF-8"?>
<svg xmlns="http://www.w3.org/2000/svg" viewBox="0 0 1200 1200" width="1200" height="1200">
  <title>emoji_u1f6e1</title>
  <path fill="#84b0c1" d="M500 1200H700V1100H800V1000H900V900H1000V700H1100V100H900V200H600V100H500V400H900V600H800V800H700V900H600V1000H500Z"/>
  <path fill="#9ab7c3" d="M400 300H600V100H500V200H400ZM400 1200H600V1100H700V1000H400Z"/>
  <path fill="#b0bec5" d="M0 700H100V900H200V1000H300V1100H400V1200H500V1100H700V1000H800V900H900V700H1000V300H600V200H200V100H0Z"/>
  <path fill="#2f7889" d="M100 700H200V900H300V1000H400V1100H700V1000H600V400H900V700H1000V200H900V300H600V200H500V300H200V200H100ZM800 900H900V700H800ZM700 1000H800V900H700Z"/>
  <path fill="#c9e3e6" d="M200 700H300V900H400V1000H600V300H500V400H200Z"/>
  <path fill="#bdd1d6" d="M500 1000H600V300H500Z"/>
</svg>
