<?xml version="1.0" encoding="UTF-8"?>
<svg xmlns="http://www.w3.org/2000/svg" viewBox="0 0 1200 1200" width="1200" height="1200">
  <title>emoji_u1f90f_1f3fe</title>
  <path fill="#824624" d="M0 800H100V900H200V800H500V900H800V800H1000V700H1100V400H1000V300H900V200H800V100H500V200H200V300H100V400H0V600H100V700H0ZM300 600V500H400V600Z"/>
  <path fill="#422319" d="M100 900H300V1000H400V1100H500V1200H900V1100H1000V1000H1100V600H1000V400H600V300H700V200H500V400H400V300H200V400H300V500H500V700H400V600H300V700H100ZM800 700V600H900V700ZM600 800V700H700V800ZM0 600H300V500H200V400H100V500H0Z"/>
  <path fill="#a56c43" d="M100 800H300V900H400V1000H500V1100H800V1200H900V1100H1000V400H900V300H800V200H500V300H700V400H500V600H600V500H700V600H800V500H900V800H700V900H600V800H400V700H100ZM200 400H400V300H200ZM100 500H200V400H100ZM600 700H700V600H600Z"/>
</svg>
