<?xml version="1.0" encoding="UTF-8"?>
<svg xmlns="http://www.w3.org/2000/svg" viewBox="0 0 1200 1200" width="1200" height="1200">
  <title>emoji_u1f6dc</title>
  <path fill="#f77e00" d="M0 1100H100V1200H1000V1100H1100V200H1000V100H900V1000H0Z"/>
  <path fill="#ff9800" d="M0 1100H1000V100H100V200H0Z"/>
  <path fill="#ffb74d" d="M200 300H300V200H200ZM100 400H200V300H100ZM300 400H400V300H300ZM200 500H300V400H200Z"/>
  <path fill="#fafafa" d="M300 400H800V300H300ZM200 500H300V400H200ZM800 500H900V400H800ZM100 600H200V500H100ZM400 600H700V500H400ZM900 600H1000V500H900ZM300 700H400V600H300ZM700 700H800V600H700ZM200 800H300V700H200ZM800 800H900V700H800ZM400 900H700V800H400ZM500 1100H600V1000H500Z"/>
</svg>
