<?xml version="1.0" encoding="UTF-8"?>
<svg xmlns="http://www.w3.org/2000/svg" viewBox="0 0 1200 1200" width="1200" height="1200">
  <title>emoji_u1f521</title>
  <path fill="#427687" d="M0 1100H100V1200H1000V1100H1100V200H1000V100H900V1000H0Z"/>
  <path fill="#8cafbf" d="M0 1100H1000V100H100V200H0Z"/>
  <path fill="#a0c8d6" d="M200 300H300V200H200ZM100 400H200V300H100ZM200 500H300V400H200Z"/>
  <path fill="#fafafa" d="M200 600H500V200H200V300H300V400H400V500H300V400H200ZM600 600H900V300H700V200H600ZM700 500V400H800V500ZM300 800H500V700H300ZM600 1100H900V700H800V800H600ZM700 1000V900H800V1000ZM200 1000H300V800H200ZM300 1100H500V1000H300Z"/>
</svg>
