<?xml version="1.0" encoding="UTF-8"?>
<svg xmlns="http://www.w3.org/2000/svg" viewBox="0 0 1200 1200" width="1200" height="1200">
  <title>emoji_u1faf0_1f3ff</title>
  <path fill="#58382b" d="M100 800H200V1000H300V1100H500V1200H900V1100H1000V900H1100V700H1000V600H900V500H800V400H700V300H800V200H700V100H600V200H400V100H200V300H300V400H500V600H700V800H900V900H700V800H300V400H200V500H100Z"/>
  <path fill="#000000" d="M100 900H200V1000H300V900H400V800H500V900H700V1000H900V1100H1000V900H1100V800H1000V600H900V700H800V500H600V400H700V300H800V200H600V300H400V200H300V100H200V700H100ZM300 1100H500V1000H300Z"/>
  <path fill="#70534a" d="M300 400H400V200H300ZM600 300H700V200H600ZM500 400H600V300H500ZM400 500H500V400H400ZM200 900H600V1000H900V900H800V600H700V800H600V600H700V500H500V700H400V500H200ZM900 900H1000V700H900ZM600 1200H700V1100H600Z"/>
</svg>
