<?xml version="1.0" encoding="UTF-8"?>
<svg xmlns="http://www.w3.org/2000/svg" viewBox="0 0 1200 1200" width="1200" height="1200">
  <title>emoji_u1f923</title>
  <path fill="#eb8f00" d="M0 900H100V1000H200V500H300V400H400V300H900V200H800V100H300V200H200V300H100V400H0ZM200 1200H800V1100H900V1000H1000V900H1100V300H900V800H800V900H700V1000H200Z"/>
  <path fill="#81d4fa" d="M700 400H1100V300H1000V200H700ZM100 1100H200V1200H300V800H100Z"/>
  <path fill="#27adf3" d="M600 500H800V600H1000V400H1100V300H800V200H600ZM100 900H200V1200H300V1100H500V900H400V700H100Z"/>
  <path fill="#fde030" d="M100 900H200V800H300V1000H400V1100H800V1000H900V900H1000V500H900V400H700V300H800V200H300V300H200V400H100Z"/>
  <path fill="#422b0d" d="M500 500H700V400H600V300H500ZM400 1000H700V900H800V800H900V500H800V600H700V700H600V800H500V900H400ZM200 700H300V800H400V600H200Z"/>
  <path fill="#ffffff" d="M800 600H900V500H800ZM700 700H800V600H700ZM600 800H700V700H600ZM500 900H600V800H500ZM400 1000H500V900H400Z"/>
</svg>
