<?xml version="1.0" encoding="UTF-8"?>
<svg xmlns="http://www.w3.org/2000/svg" viewBox="0 0 1200 1200" width="1200" height="1200">
  <title>emoji_u2747</title>
  <path fill="#7cb342" d="M400 300H500V500H600V300H700V100H400ZM100 300H200V200H100ZM900 300H1000V200H900ZM200 400H300V300H200ZM800 400H900V300H800ZM300 500H400V400H300ZM700 500H800V400H700ZM0 800H200V700H400V600H200V500H0ZM700 700H900V800H1100V500H900V600H700ZM500 700H600V600H500ZM300 900H400V800H300ZM400 1200H700V1000H600V800H500V1000H400ZM700 900H800V800H700ZM200 1000H300V900H200ZM800 1000H900V900H800ZM100 1100H200V1000H100ZM900 1100H1000V1000H900Z"/>
</svg>
