<?xml version="1.0" encoding="UTF-8"?>
<svg xmlns="http://www.w3.org/2000/svg" viewBox="0 0 1200 1200" width="1200" height="1200">
  <title>emoji_u1f1e8_1f1e6</title>
  <path fill="#ffe9e9" d="M400 1000H700V800H400Z"/>
  <path fill="#fff3f3" d="M400 500H700V300H400Z"/>
  <path fill="#ffffff" d="M200 600H500V500H600V600H900V300H600V400H500V300H200ZM200 1000H500V900H600V1000H900V700H600V800H500V700H200Z"/>
  <path fill="#ff0000" d="M0 1000H300V800H400V900H700V800H800V1000H1100V300H800V500H700V400H400V500H300V300H0Z"/>
  <path fill="#ff3f3f" d="M200 1000H300V800H400V500H300V300H200ZM700 800H800V1000H900V300H800V500H700Z"/>
  <path fill="#ffdcdc" d="M300 600H500V500H600V600H800V500H700V400H400V500H300Z"/>
  <path fill="#ffe1e1" d="M300 800H400V900H700V800H800V700H600V800H500V700H300Z"/>
  <path fill="#ff4848" d="M500 500H600V400H500ZM400 600H500V500H400ZM600 600H700V500H600Z"/>
  <path fill="#ffcbcb" d="M400 800H500V700H400ZM600 800H700V700H600ZM500 900H600V800H500Z"/>
  <path fill="#ff3535" d="M300 800H500V700H400V600H300ZM600 800H800V600H700V700H600Z"/>
  <path fill="#ff8484" d="M300 700H400V600H500V500H300ZM600 600H700V700H800V500H600Z"/>
  <path fill="#ffcaca" d="M300 700H400V500H300ZM700 700H800V500H700Z"/>
  <path fill="#fff5f5" d="M300 800H400V600H300ZM700 800H800V600H700Z"/>
  <path fill="#ff8f8f" d="M300 700H400V600H300ZM700 700H800V600H700Z"/>
</svg>
