<?xml version="1.0" encoding="UTF-8"?>
<svg xmlns="http://www.w3.org/2000/svg" viewBox="0 0 1200 1200" width="1200" height="1200">
  <title>emoji_u1f300</title>
  <path fill="#1f87fd" d="M200 200H300V100H200ZM100 300H200V200H100ZM400 300H900V200H400ZM0 900H100V300H0ZM300 400H400V300H300ZM900 400H1000V300H900ZM200 800H300V400H200ZM500 500H800V400H500ZM1000 900H1100V400H1000ZM400 700H500V500H400ZM800 800H900V500H800ZM600 700H700V600H600ZM500 800H600V700H500ZM300 900H400V800H300ZM700 900H800V800H700ZM100 1000H200V900H100ZM400 1000H700V900H400ZM900 1000H1000V900H900ZM200 1100H300V1000H200ZM800 1100H900V1000H800ZM300 1200H800V1100H300Z"/>
</svg>
