<?xml version="1.0" encoding="UTF-8"?>
<svg xmlns="http://www.w3.org/2000/svg" viewBox="0 0 1200 1200" width="1200" height="1200">
  <title>emoji_u3299</title>
  <path fill="#cc3333" d="M300 1100H400V1200H700V1100H900V1000H1000V800H1100V500H1000V400H900V900H600V1000H300Z"/>
  <path fill="#fc796e" d="M0 600H400V400H500V100H400V200H200V300H100V500H0Z"/>
  <path fill="#f44336" d="M0 800H100V1000H200V1100H700V1000H1000V300H900V200H700V100H400V300H300V200H200V300H100V400H300V500H0Z"/>
  <path fill="#fafafa" d="M600 200H700V100H600ZM700 300H800V200H700ZM100 600H300V700H200V800H300V1000H400V900H500V800H600V1000H1000V800H900V900H700V700H800V600H700V400H600V500H400V300H100V400H300V500H100ZM400 800V600H600V700H500V800ZM900 500H1000V300H900ZM800 600H900V500H800ZM900 700H1000V600H900ZM100 900H200V800H100Z"/>
  <path fill="#fcd8d5" d="M400 300H500V200H400ZM200 400H400V300H200Z"/>
</svg>
