<?xml version="1.0" encoding="UTF-8"?>
<svg xmlns="http://www.w3.org/2000/svg" viewBox="0 0 1200 1200" width="1200" height="1200">
  <title>emoji_u1f96e</title>
  <path fill="#dc7e13" d="M0 1000H100V1100H200V1200H900V1100H1000V1000H1100V300H1000V200H900V100H200V200H100V300H0Z"/>
  <path fill="#f3ac3b" d="M0 900H100V700H0ZM1000 900H1100V700H1000ZM200 1100H300V900H200ZM400 1100H500V900H400ZM600 1100H700V900H600ZM800 1100H900V900H800Z"/>
  <path fill="#fed287" d="M100 600H200V700H300V800H800V700H900V200H800V100H600V200H500V100H300V200H200V300H100ZM700 500V400H800V500Z"/>
  <path fill="#b94606" d="M100 600H200V700H400V800H600V700H700V800H800V700H900V600H1000V300H900V200H800V100H700V200H500V100H400V200H200V300H100V400H200V500H100ZM400 500V400H500V300H600V400H500V500ZM700 600V300H800V600Z"/>
  <path fill="#891e0c" d="M300 300H500V200H300ZM600 300H800V200H600ZM200 400H300V300H200ZM800 400H900V300H800ZM300 500H400V400H300ZM500 500H600V400H500ZM200 600H300V500H200ZM800 600H900V500H800ZM300 700H500V600H300ZM600 700H800V600H600ZM500 800H600V700H500Z"/>
</svg>
