<?xml version="1.0" encoding="UTF-8"?>
<svg xmlns="http://www.w3.org/2000/svg" viewBox="0 0 1200 1200" width="1200" height="1200">
  <title>emoji_u1f30d</title>
  <path fill="#1469f1" d="M0 800H100V1000H200V1100H400V1200H700V1100H900V1000H1000V800H1100V500H900V700H700V800H600V1000H500V800H300V600H400V500H600V400H800V200H700V100H400V200H200V300H100V500H0Z"/>
  <path fill="#ffffff" d="M200 300H300V500H500V400H400V300H500V100H400V200H200ZM500 400H600V300H500Z"/>
  <path fill="#7add8a" d="M600 200H700V100H600ZM100 800H200V900H400V1100H700V900H800V800H1000V600H1100V500H1000V300H900V200H700V300H500V400H300V500H200V600H100ZM800 1000H900V900H800Z"/>
  <path fill="#c0dd9d" d="M200 600H300V700H400V800H600V900H800V800H900V700H1000V600H900V500H800V400H600V500H400V400H300V500H200Z"/>
  <path fill="#e3dda6" d="M300 600H400V700H600V800H900V600H800V500H400V400H300ZM400 1100H700V1000H400Z"/>
  <path fill="#1b82f9" d="M300 500H400V400H300ZM400 600H600V500H400ZM600 700H800V600H600ZM800 800H900V700H800Z"/>
</svg>
