<?xml version="1.0" encoding="UTF-8"?>
<svg xmlns="http://www.w3.org/2000/svg" viewBox="0 0 1200 1200" width="1200" height="1200">
  <title>emoji_u1f1f3_1f1ee</title>
  <path fill="#0067c6" d="M0 600H1100V300H0ZM0 1000H1100V700H0Z"/>
  <path fill="#a9ccec" d="M0 800H500V500H0ZM600 800H1100V500H600Z"/>
  <path fill="#ffffff" d="M0 700H400V800H500V500H400V600H0ZM600 800H700V700H1100V600H700V500H600Z"/>
  <path fill="#a8cae7" d="M400 800H700V600H400Z"/>
  <path fill="#a8cae8" d="M400 700H700V500H400Z"/>
  <path fill="#90c2df" d="M400 700H700V600H600V500H500V600H400Z"/>
  <path fill="#a7c8e3" d="M400 700H500V800H600V700H700V600H400Z"/>
  <path fill="#a1c9a3" d="M400 700H700V600H400Z"/>
  <path fill="#f2f7f2" d="M400 700H500V600H400Z"/>
  <path fill="#f2f7f3" d="M600 700H700V600H600Z"/>
</svg>
