<?xml version="1.0" encoding="UTF-8"?>
<svg xmlns="http://www.w3.org/2000/svg" viewBox="0 0 1200 1200" width="1200" height="1200">
  <title>emoji_u1fadc</title>
  <path fill="#327e33" d="M500 500H600V600H700V700H800V600H1000V500H1100V300H800V200H600V400H500Z"/>
  <path fill="#729a24" d="M600 300H700V400H800V500H1000V400H1100V300H1000V200H900V100H700V200H600ZM600 500H700V400H600ZM700 600H800V500H700Z"/>
  <path fill="#891e0e" d="M0 1200H300V1100H500V1200H700V1100H800V1000H900V700H800V500H700V400H500V300H400V600H500V700H400V600H100V1000H0Z"/>
  <path fill="#cc1a36" d="M0 800H100V1100H300V1000H600V900H700V600H600V500H500V300H200V400H100V500H0ZM200 1000V900H300V800H200V700H300V800H400V900H300V1000ZM500 900V800H600V900ZM600 500H700V400H600ZM700 600H800V500H700Z"/>
</svg>
