<?xml version="1.0" encoding="UTF-8"?>
<svg xmlns="http://www.w3.org/2000/svg" viewBox="0 0 1200 1200" width="1200" height="1200">
  <title>emoji_u1f41e</title>
  <path fill="#696e72" d="M200 200H300V100H200ZM800 200H900V100H800ZM300 300H400V200H300ZM700 300H800V200H700ZM0 500H100V300H0ZM0 900H100V800H200V1000H300V1100H400V500H700V1100H800V1000H900V800H1000V900H1100V700H900V600H1000V500H800V400H700V300H400V400H300V500H100V600H200V700H0ZM1000 500H1100V300H1000ZM100 1100H200V1000H100ZM900 1100H1000V1000H900ZM0 1200H100V1100H0ZM1000 1200H1100V1100H1000Z"/>
  <path fill="#ffebc1" d="M300 600H500V300H400V400H300ZM600 600H800V400H700V300H600Z"/>
  <path fill="#fe1d1e" d="M200 900H300V1100H400V1200H700V1100H800V900H900V700H800V500H600V600H500V500H300V700H200Z"/>
  <path fill="#2f2f2f" d="M300 600H400V700H500V800H400V900H500V1000H400V1100H500V1200H600V1100H700V1000H600V900H700V800H600V700H700V600H800V500H700V300H600V400H500V300H400V500H300ZM300 800H400V700H300ZM700 800H800V700H700Z"/>
  <path fill="#d62f34" d="M500 1200H600V700H500Z"/>
</svg>
