<?xml version="1.0" encoding="UTF-8"?>
<svg xmlns="http://www.w3.org/2000/svg" viewBox="0 0 1200 1200" width="1200" height="1200">
  <title>emoji_u1f3a1</title>
  <path fill="#c8c8c8" d="M300 200H400V300H500V100H300ZM600 300H700V200H800V100H600ZM200 300H300V200H200ZM800 300H900V200H800ZM0 800H200V900H300V800H400V700H200V600H300V400H200V300H100V400H0V600H100V700H0ZM300 400H400V300H300ZM700 400H800V300H700ZM700 800H800V900H900V800H1100V700H1000V600H1100V400H1000V300H900V400H800V600H900V700H700ZM400 900H700V800H600V700H700V400H400V700H500V800H400Z"/>
  <path fill="#8f7cf3" d="M200 900H300V800H200ZM200 1200H900V1100H800V900H700V800H600V1100H500V800H400V900H300V1100H200ZM800 900H900V800H800Z"/>
  <path fill="#014fab" d="M0 900H300V700H0Z"/>
  <path fill="#fda726" d="M800 900H1100V700H800Z"/>
  <path fill="#fc2b26" d="M400 300H700V100H400Z"/>
  <path fill="#2584ff" d="M0 800H300V700H0Z"/>
  <path fill="#ffd51d" d="M800 800H1100V700H800Z"/>
  <path fill="#ea4889" d="M0 600H300V400H0Z"/>
  <path fill="#f47daa" d="M0 500H300V400H0Z"/>
  <path fill="#ff4c1c" d="M800 600H1100V400H800Z"/>
  <path fill="#ff8e05" d="M800 500H1100V400H800Z"/>
  <path fill="#da0e21" d="M400 300H700V200H400Z"/>
  <path fill="#7956c0" d="M400 1100H500V1000H600V1100H700V900H400Z"/>
  <path fill="#41727a" d="M400 1000H700V800H400Z"/>
  <path fill="#69a5ad" d="M400 900H700V800H400Z"/>
  <path fill="#f1edec" d="M500 600H600V500H500Z"/>
</svg>
