<?xml version="1.0" encoding="UTF-8"?>
<svg xmlns="http://www.w3.org/2000/svg" viewBox="0 0 1200 1200" width="1200" height="1200">
  <title>emoji_u1f469_1f3fe_200d_2708</title>
  <path fill="#433229" d="M200 1000H400V600H500V300H200ZM600 600H700V1000H900V300H600Z"/>
  <path fill="#3f3f3f" d="M200 400H900V200H800V100H300V200H200Z"/>
  <path fill="#e0e0e0" d="M300 1200H800V900H300Z"/>
  <path fill="#f2b80a" d="M400 400H700V300H600V200H500V300H400ZM700 1200H1000V1000H700Z"/>
  <path fill="#222222" d="M300 400H400V500H700V400H800V300H300ZM100 1200H400V1000H500V1200H600V1000H700V1200H800V1100H900V1200H1000V1000H900V900H800V800H700V900H400V800H300V900H200V1000H100Z"/>
  <path fill="#434242" d="M300 1200H400V1000H500V700H300ZM600 1000H700V1200H800V700H600Z"/>
  <path fill="#a56c43" d="M300 800H400V900H700V800H800V500H700V400H400V500H300Z"/>
  <path fill="#42312c" d="M400 700H500V500H400ZM600 700H700V500H600Z"/>
  <path fill="#fafafa" d="M400 1000H700V800H400Z"/>
  <path fill="#7a4c32" d="M400 900H700V800H400Z"/>
</svg>
