<?xml version="1.0" encoding="UTF-8"?>
<svg xmlns="http://www.w3.org/2000/svg" viewBox="0 0 1200 1200" width="1200" height="1200">
  <title>emoji_u1f9df_200d_2640</title>
  <path fill="#802828" d="M100 800H400V400H500V300H600V400H700V800H1000V700H900V200H800V100H300V200H200V700H100Z"/>
  <path fill="#709921" d="M0 1200H500V1000H600V1200H1100V800H1000V700H800V500H900V400H800V300H700V200H400V300H300V400H200V500H300V700H100V800H0Z"/>
  <path fill="#5a15f3" d="M300 1200H800V1100H700V800H800V700H300V800H400V1100H300ZM500 900V800H600V900ZM200 1100H300V1000H200ZM800 1100H900V1000H800Z"/>
  <path fill="#ffffff" d="M600 400H700V300H600ZM300 500H400V400H300ZM700 500H800V400H700ZM400 600H500V500H400Z"/>
  <path fill="#82cc2b" d="M300 800H800V600H600V400H700V200H400V300H500V500H400V600H300ZM200 900H300V800H200ZM800 900H900V800H800ZM100 1100H300V1000H200V900H100ZM800 1100H1000V900H900V1000H800Z"/>
  <path fill="#f05455" d="M400 700H700V600H400Z"/>
</svg>
