<?xml version="1.0" encoding="UTF-8"?>
<svg xmlns="http://www.w3.org/2000/svg" viewBox="0 0 1200 1200" width="1200" height="1200">
  <title>emoji_u1f9e5</title>
  <path fill="#d5aa67" d="M0 1200H200V1100H900V1200H1100V400H1000V300H900V400H800V800H700V700H500V600H300V400H200V300H100V400H0Z"/>
  <path fill="#a66f38" d="M200 500H300V600H400V700H600V900H700V1000H600V1200H800V1100H1100V900H900V300H800V200H700V100H400V200H300V300H200ZM0 1100H300V1200H400V1000H300V800H200V900H0Z"/>
  <path fill="#b7885a" d="M400 400H500V500H600V400H700V200H400ZM100 500H200V900H300V700H400V800H600V900H700V700H600V600H500V500H400V400H300V300H100ZM700 600H800V1000H1100V900H900V500H1000V300H800V400H700ZM0 1000H200V900H0ZM300 1200H700V1100H800V1000H600V900H500V1000H300Z"/>
  <path fill="#e7ba75" d="M200 500H300V600H400V700H500V800H700V600H500V500H400V400H300V300H200ZM700 600H800V500H900V300H800V400H700ZM300 1200H700V1100H300Z"/>
  <path fill="#7a4e23" d="M400 300H700V200H400ZM500 800H600V700H500ZM500 1000H600V900H500Z"/>
</svg>
