<?xml version="1.0" encoding="UTF-8"?>
<svg xmlns="http://www.w3.org/2000/svg" viewBox="0 0 1200 1200" width="1200" height="1200">
  <title>emoji_u1f6c3</title>
  <path fill="#194fa5" d="M0 1100H100V1200H1000V1100H1100V200H1000V100H900V1000H0Z"/>
  <path fill="#2262dd" d="M0 1100H1000V100H100V200H0Z"/>
  <path fill="#68abe6" d="M200 300H300V200H200ZM100 400H200V300H100Z"/>
  <path fill="#fafafa" d="M500 300H600V500H900V200H500ZM400 800H500V900H600V800H700V700H900V600H500V700H400ZM100 1000H200V900H400V800H200V700H100ZM900 1000H1000V700H900ZM500 1100H800V800H700V900H600V1000H500ZM200 1100H400V1000H200Z"/>
</svg>
