<?xml version="1.0" encoding="UTF-8"?>
<svg xmlns="http://www.w3.org/2000/svg" viewBox="0 0 1200 1200" width="1200" height="1200">
  <title>emoji_u1f332</title>
  <path fill="#855b51" d="M300 1100H400V1200H700V1100H800V1000H300Z"/>
  <path fill="#027f1c" d="M0 1100H1100V900H900V800H800V700H1000V500H900V400H800V300H600V400H500V300H300V400H200V500H100V700H300V800H200V900H0Z"/>
  <path fill="#02ab47" d="M300 400H400V500H700V400H800V300H700V200H600V100H500V200H400V300H300ZM100 600H300V700H500V800H600V700H800V600H1000V500H700V600H400V500H100ZM0 1000H1100V900H1000V800H600V900H500V800H100V900H0Z"/>
  <path fill="#028b2b" d="M400 400H500V300H400ZM600 400H700V300H600ZM300 600H400V500H300ZM700 600H800V500H700ZM500 700H600V600H500ZM200 900H300V800H200ZM800 900H900V800H800ZM300 1000H400V900H300ZM700 1000H800V900H700Z"/>
</svg>
