<?xml version="1.0" encoding="UTF-8"?>
<svg xmlns="http://www.w3.org/2000/svg" viewBox="0 0 1200 1200" width="1200" height="1200">
  <title>emoji_u1f334</title>
  <path fill="#dc8124" d="M300 1200H800V1100H700V700H400V1100H300Z"/>
  <path fill="#c0711f" d="M300 600H400V800H700V600H800V500H300ZM400 1000H700V900H400Z"/>
  <path fill="#728137" d="M0 700H100V800H200V700H300V600H800V700H900V800H1000V700H1100V500H1000V400H1100V200H800V300H700V100H500V200H400V300H300V200H100V300H0V400H100V500H0Z"/>
  <path fill="#bdcf47" d="M500 300H600V200H500ZM100 400H200V300H100ZM400 400H500V300H400ZM400 600H500V700H600V600H700V500H400ZM100 700H200V600H100Z"/>
</svg>
