<?xml version="1.0" encoding="UTF-8"?>
<svg xmlns="http://www.w3.org/2000/svg" viewBox="0 0 1200 1200" width="1200" height="1200">
  <title>emoji_u1f493</title>
  <path fill="#da2e75" d="M100 200H400V100H100ZM0 300H100V200H0ZM400 1000H500V1100H600V1000H700V900H800V800H900V700H1000V400H900V300H800V600H700V700H600V800H500V900H400ZM1000 1000H1100V800H1000ZM900 1100H1000V1000H900ZM700 1200H900V1100H700Z"/>
  <path fill="#f48fb1" d="M700 200H1000V100H700ZM1000 300H1100V200H1000ZM0 1000H100V800H0ZM100 1100H200V1000H100ZM200 1200H400V1100H200Z"/>
  <path fill="#ef5592" d="M100 700H200V800H300V900H400V1000H600V900H700V800H800V700H900V300H700V400H600V500H500V400H400V300H200V400H100Z"/>
  <path fill="#f386ab" d="M300 500H400V400H300ZM700 500H800V400H700ZM200 600H300V500H200Z"/>
</svg>
