<?xml version="1.0" encoding="UTF-8"?>
<svg xmlns="http://www.w3.org/2000/svg" viewBox="0 0 1200 1200" width="1200" height="1200">
  <title>emoji_u1f648</title>
  <path fill="#b6885a" d="M0 1100H100V1200H300V1100H800V1200H1000V1100H1100V500H1000V300H900V200H700V100H400V200H200V300H100V500H0ZM100 1000V900H200V1000ZM900 1000V900H1000V1000Z"/>
  <path fill="#865b52" d="M100 900H400V800H700V900H1000V800H900V700H800V600H700V500H900V300H600V400H500V300H200V500H400V600H300V700H200V800H100ZM100 600H200V500H100ZM900 600H1000V500H900ZM0 700H100V600H0ZM1000 700H1100V600H1000Z"/>
  <path fill="#ffcd88" d="M200 900H300V1000H800V900H900V800H800V700H600V500H700V400H900V300H700V200H400V300H200V400H400V500H500V700H300V800H200Z"/>
  <path fill="#ff6b17" d="M400 900H700V800H400Z"/>
  <path fill="#393531" d="M500 700H600V600H500Z"/>
</svg>
