<?xml version="1.0" encoding="UTF-8"?>
<svg xmlns="http://www.w3.org/2000/svg" viewBox="0 0 1200 1200" width="1200" height="1200">
  <title>emoji_u1f1e9_1f1f4</title>
  <path fill="#002d62" d="M0 600H500V300H0ZM600 1000H1100V700H600Z"/>
  <path fill="#ce1126" d="M600 600H1100V300H600ZM0 1000H500V700H0Z"/>
  <path fill="#3b5e86" d="M300 600H600V300H400V500H300ZM500 1000H700V800H800V700H500Z"/>
  <path fill="#d94858" d="M500 600H800V500H700V300H500ZM300 800H400V1000H600V700H300Z"/>
  <path fill="#ffffff" d="M0 800H500V1000H600V800H1100V500H600V300H500V500H0Z"/>
  <path fill="#325681" d="M0 600H400V700H500V500H0ZM600 800H1100V700H700V600H600Z"/>
  <path fill="#d83f50" d="M600 700H700V600H1100V500H600ZM0 800H500V600H400V700H0Z"/>
  <path fill="#617d9e" d="M400 700H500V800H700V600H600V500H400Z"/>
  <path fill="#e06c78" d="M400 800H600V700H700V500H500V600H400Z"/>
  <path fill="#eaedee" d="M400 700H700V600H600V500H500V600H400Z"/>
  <path fill="#fdfbfb" d="M400 700H500V800H600V700H700V600H400Z"/>
  <path fill="#96887b" d="M400 700H700V600H400Z"/>
  <path fill="#f1f4f0" d="M600 700H700V600H600Z"/>
  <path fill="#f1f4f1" d="M400 700H500V600H400Z"/>
</svg>
