<?xml version="1.0" encoding="UTF-8"?>
<svg xmlns="http://www.w3.org/2000/svg" viewBox="0 0 1200 1200" width="1200" height="1200">
  <title>emoji_u1f953</title>
  <path fill="#fc873d" d="M200 1100H300V1200H400V1100H500V1000H600V800H800V600H1000V500H1100V300H1000V200H900V400H700V500H600V600H500V700H400V900H300V1000H200Z"/>
  <path fill="#b42f17" d="M0 900H100V1000H200V900H400V700H500V600H600V500H800V400H900V100H700V300H500V400H400V500H300V600H200V800H0Z"/>
  <path fill="#fc6b4a" d="M700 200H800V300H900V100H700Z"/>
  <path fill="#feb896" d="M200 1100H400V1000H500V800H600V700H700V600H800V500H900V300H1000V200H900V100H800V300H700V400H500V500H400V600H300V800H200V900H300V1000H200ZM100 1000H200V900H100Z"/>
  <path fill="#d9411c" d="M300 1100H400V1000H500V800H600V700H700V600H800V500H1000V200H800V400H700V500H600V600H500V700H400V900H300Z"/>
  <path fill="#fefeff" d="M800 300H900V200H800ZM900 400H1000V300H900ZM500 500H600V400H500ZM600 600H700V500H600ZM300 700H400V600H300ZM400 800H500V700H400Z"/>
  <path fill="#fa6c43" d="M900 400H1000V300H900ZM600 600H700V500H600ZM400 800H500V700H400Z"/>
</svg>
