<?xml version="1.0" encoding="UTF-8"?>
<svg xmlns="http://www.w3.org/2000/svg" viewBox="0 0 1200 1200" width="1200" height="1200">
  <title>emoji_u26c8</title>
  <path fill="#feca18" d="M400 700H500V800H600V700H700V600H400ZM300 1000H500V1100H600V1000H700V900H500V800H400V900H300ZM400 1200H500V1100H400Z"/>
  <path fill="#52c0ee" d="M0 800H100V700H0ZM900 900H1000V800H900ZM100 1000H200V900H100ZM800 1000H900V900H800ZM0 1100H100V1000H0ZM1000 1100H1100V1000H1000ZM900 1200H1000V1100H900Z"/>
  <path fill="#b2e6fe" d="M800 1000H900V900H800ZM0 1100H100V1000H0ZM900 1200H1000V1100H900Z"/>
  <path fill="#e2da92" d="M300 700H800V500H300Z"/>
  <path fill="#b9ced3" d="M0 500H100V600H200V700H400V600H700V700H900V600H1000V300H800V400H200V300H0Z"/>
  <path fill="#e2ebee" d="M0 400H100V500H300V600H500V500H700V600H800V500H900V400H1000V300H900V200H800V100H700V200H600V100H200V200H100V300H0Z"/>
</svg>
