<?xml version="1.0" encoding="UTF-8"?>
<svg xmlns="http://www.w3.org/2000/svg" viewBox="0 0 1200 1200" width="1200" height="1200">
  <title>emoji_u1f468_200d_1f4bb</title>
  <path fill="#e0e0e0" d="M0 800H700V500H400V600H0Z"/>
  <path fill="#62453b" d="M400 600H600V500H900V600H1100V200H1000V100H500V200H400Z"/>
  <path fill="#e39503" d="M400 600H600V400H500V500H400ZM600 900H900V700H1000V600H1100V500H1000V400H900V600H600Z"/>
  <path fill="#b0b0b0" d="M0 900H100V1100H200V1200H1100V1000H900V800H700V700H800V600H600V700H0Z"/>
  <path fill="#00bda3" d="M700 900H800V1100H1100V700H1000V600H700V700H800V800H700Z"/>
  <path fill="#ffca26" d="M500 600H600V700H1000V400H800V300H700V400H500Z"/>
  <path fill="#3f4040" d="M600 600H700V400H600ZM800 600H900V400H800Z"/>
  <path fill="#858585" d="M300 1000H500V800H300Z"/>
</svg>
