<?xml version="1.0" encoding="UTF-8"?>
<svg xmlns="http://www.w3.org/2000/svg" viewBox="0 0 1200 1200" width="1200" height="1200">
  <title>emoji_u1f421</title>
  <path fill="#ff6666" d="M0 800H100V900H200V800H300V500H200V400H100V500H0V600H100V700H0Z"/>
  <path fill="#ba8d72" d="M100 900H200V1000H400V1100H500V1000H600V1100H700V1000H900V900H1000V800H300V600H200V700H100Z"/>
  <path fill="#8a5a54" d="M800 900H1000V800H1100V300H1000V400H900V300H800Z"/>
  <path fill="#cd7955" d="M200 400H500V600H600V700H900V300H800V200H700V300H600V200H500V300H400V200H300V300H200Z"/>
  <path fill="#f3a25c" d="M100 600H200V800H500V700H600V800H900V400H800V300H200V400H100ZM600 500V400H700V500H800V600H700V500Z"/>
  <path fill="#fbfffe" d="M200 900H400V1000H500V900H600V1000H700V900H900V700H700V600H400V700H200Z"/>
  <path fill="#ffdc1e" d="M200 500H300V600H400V500H500V400H400V300H300V400H200ZM500 600H600V500H500ZM400 700H500V600H400Z"/>
  <path fill="#f4d6b5" d="M200 900H300V800H400V900H700V800H800V900H900V700H700V600H600V500H500V600H400V700H200ZM500 800V700H600V800Z"/>
  <path fill="#282f2f" d="M300 500H400V400H300Z"/>
  <path fill="#885b52" d="M500 700H700V500H500Z"/>
</svg>
