<?xml version="1.0" encoding="UTF-8"?>
<svg xmlns="http://www.w3.org/2000/svg" viewBox="0 0 1200 1200" width="1200" height="1200">
  <title>emoji_u1f1ee_1f1f2</title>
  <path fill="#ce162c" d="M400 1000H700V800H400Z"/>
  <path fill="#cf142b" d="M0 1000H500V900H600V1000H1100V300H0Z"/>
  <path fill="#c2494e" d="M400 800H500V900H600V800H700V700H400Z"/>
  <path fill="#c4494f" d="M500 700H700V600H800V500H500Z"/>
  <path fill="#c7636f" d="M300 600H400V700H600V500H300Z"/>
  <path fill="#c91e30" d="M300 600H400V500H300ZM400 700H500V600H400Z"/>
  <path fill="#ca4e5c" d="M400 800H700V600H400Z"/>
  <path fill="#cb1b30" d="M700 600H800V500H700ZM600 700H700V600H600Z"/>
  <path fill="#cc1a30" d="M500 700H600V800H700V600H500Z"/>
  <path fill="#cc424d" d="M400 800H500V700H600V600H400Z"/>
  <path fill="#cd6d72" d="M400 700H700V600H600V500H500V600H400Z"/>
  <path fill="#cd2533" d="M400 700H600V600H400Z"/>
  <path fill="#cd777a" d="M500 700H700V600H500Z"/>
  <path fill="#d9bab1" d="M500 700H600V600H500Z"/>
</svg>
