<?xml version="1.0" encoding="UTF-8"?>
<svg xmlns="http://www.w3.org/2000/svg" viewBox="0 0 1200 1200" width="1200" height="1200">
  <title>emoji_u267f</title>
  <path fill="#194fa5" d="M0 1100H100V1200H1000V1100H1100V200H1000V100H900V1000H0Z"/>
  <path fill="#2262dd" d="M0 1100H1000V100H100V200H0Z"/>
  <path fill="#68abe6" d="M200 300H300V200H200ZM100 400H200V300H100ZM300 400H400V300H300ZM200 500H300V400H200Z"/>
  <path fill="#ffffff" d="M700 400H900V200H700ZM300 400H500V300H300ZM200 500H300V400H200ZM500 500H600V600H700V400H500ZM200 700H500V1000H600V800H700V1100H900V1000H800V700H600V600H200ZM100 1000H200V700H100ZM900 1000H1000V900H900ZM200 1100H500V1000H200Z"/>
</svg>
