<?xml version="1.0" encoding="UTF-8"?>
<svg xmlns="http://www.w3.org/2000/svg" viewBox="0 0 1200 1200" width="1200" height="1200">
  <title>emoji_u265f</title>
  <path fill="#aeaeaf" d="M200 600H300V700H500V400H200Z"/>
  <path fill="#fffffe" d="M300 400H600V300H700V100H400V200H300Z"/>
  <path fill="#474c50" d="M100 1200H1000V1000H900V900H700V700H800V600H900V400H800V200H700V100H600V300H400V200H300V400H200V500H400V600H300V700H400V900H200V1000H100Z"/>
  <path fill="#5e6367" d="M400 200H500V100H400ZM400 400H700V100H600V200H500V300H400ZM300 300H400V200H300ZM200 500H400V400H200ZM400 600H900V400H700V500H400ZM400 900H700V800H400ZM100 1100H300V1000H100ZM400 1100H1000V1000H400Z"/>
  <path fill="#b0b0af" d="M200 1100H500V1000H200Z"/>
</svg>
