<?xml version="1.0" encoding="UTF-8"?>
<svg xmlns="http://www.w3.org/2000/svg" viewBox="0 0 1200 1200" width="1200" height="1200">
  <title>emoji_u1f3cc_200d_2642</title>
  <path fill="#325599" d="M300 1200H400V1100H500V900H400V1000H300ZM600 1200H800V1100H700V1000H600Z"/>
  <path fill="#616161" d="M400 1100H500V1000H600V1100H700V700H500V900H400Z"/>
  <path fill="#7c7c7c" d="M500 800H600V1100H700V800H800V700H500Z"/>
  <path fill="#ffc017" d="M800 300H900V200H800ZM800 500H1000V300H900V400H800Z"/>
  <path fill="#2482db" d="M500 400H800V300H900V200H800V100H500Z"/>
  <path fill="#04a287" d="M600 600H800V500H1000V400H800V300H600Z"/>
  <path fill="#00bea5" d="M400 600H500V800H800V500H700V400H500V500H400Z"/>
  <path fill="#504f4f" d="M800 300H900V200H800ZM600 500H700V400H800V300H600ZM400 600H500V500H400ZM200 800H300V700H400V600H200Z"/>
  <path fill="#7c7d7d" d="M400 600H600V500H700V300H500V500H400Z"/>
  <path fill="#543930" d="M500 400H700V300H500Z"/>
</svg>
