<?xml version="1.0" encoding="UTF-8"?>
<svg xmlns="http://www.w3.org/2000/svg" viewBox="0 0 1200 1200" width="1200" height="1200">
  <title>emoji_u1f4c7</title>
  <path fill="#5293a1" d="M200 1200H900V1000H200Z"/>
  <path fill="#424242" d="M0 1000H200V900H100V800H200V700H0ZM900 1000H1100V700H900V800H1000V900H900ZM100 1200H300V1100H400V1000H200V1100H100ZM700 1100H800V1200H1000V1100H900V1000H700Z"/>
  <path fill="#616161" d="M0 800H200V900H300V800H500V400H200V500H100V600H0ZM600 800H800V900H900V800H1100V600H1000V500H900V400H600ZM0 1200H200V1100H100V1000H200V900H0ZM900 1200H1100V900H900V1000H1000V1100H900ZM200 1100H300V1000H200ZM800 1100H900V1000H800Z"/>
  <path fill="#b9e4ea" d="M200 700H300V500H400V700H700V500H800V700H900V100H200V300H300V400H200ZM100 1000H200V1100H900V1000H1000V900H100Z"/>
  <path fill="#82aec0" d="M500 300H800V200H500ZM500 500H700V400H500ZM0 700H100V600H0ZM100 1000H200V900H100ZM0 1100H100V1000H0Z"/>
  <path fill="#ffffff" d="M200 500H400V200H200ZM100 1000H1000V900H900V600H800V700H700V600H400V700H300V600H200V900H100Z"/>
  <path fill="#212121" d="M200 700H300V600H200ZM400 700H700V600H400ZM800 700H900V600H800Z"/>
</svg>
