<?xml version="1.0" encoding="UTF-8"?>
<svg xmlns="http://www.w3.org/2000/svg" viewBox="0 0 1200 1200" width="1200" height="1200">
  <title>emoji_u2763</title>
  <path fill="#cc3333" d="M300 300H400V400H700V200H500V100H300ZM500 900H700V800H800V700H900V600H1000V500H1100V200H1000V100H800V300H900V400H800V500H700V600H600V700H500ZM600 1200H800V1000H600Z"/>
  <path fill="#f44336" d="M100 500H200V600H300V700H400V800H500V900H600V800H700V700H800V600H900V500H1000V200H900V100H700V200H600V300H500V200H400V100H200V200H100ZM400 1200H700V1000H400Z"/>
</svg>
