<?xml version="1.0" encoding="UTF-8"?>
<svg xmlns="http://www.w3.org/2000/svg" viewBox="0 0 1200 1200" width="1200" height="1200">
  <title>emoji_u1f46e_1f3ff_200d_2640</title>
  <path fill="#3156bc" d="M200 1200H1000V1000H200Z"/>
  <path fill="#2c2929" d="M200 1100H400V800H500V500H400V400H200ZM700 800H800V1100H1000V400H800V500H700Z"/>
  <path fill="#2e4aad" d="M200 500H300V600H400V500H800V600H900V500H1000V300H900V200H800V100H400V200H300V300H200Z"/>
  <path fill="#283593" d="M200 1100H500V900H300V1000H200ZM700 1100H1000V1000H900V900H700Z"/>
  <path fill="#3674ce" d="M300 1000H400V1100H800V1000H900V900H300Z"/>
  <path fill="#3c2b24" d="M400 1000H500V1100H700V1000H800V900H400Z"/>
  <path fill="#ffcc00" d="M400 500H800V400H700V200H500V400H400Z"/>
  <path fill="#70534a" d="M300 1000H900V700H800V600H900V500H300V600H400V700H300Z"/>
  <path fill="#3b78e7" d="M300 600H900V400H300Z"/>
  <path fill="#3d3d3d" d="M300 600H900V500H300Z"/>
  <path fill="#1a1717" d="M400 900H500V700H400ZM700 900H800V700H700Z"/>
</svg>
