<?xml version="1.0" encoding="UTF-8"?>
<svg xmlns="http://www.w3.org/2000/svg" viewBox="0 0 1200 1200" width="1200" height="1200">
  <title>emoji_u1f1ea_1f1ec</title>
  <path fill="#000000" d="M0 1000H1100V700H0Z"/>
  <path fill="#ce1126" d="M0 600H1100V300H0Z"/>
  <path fill="#a9a9a9" d="M0 800H500V600H0ZM600 800H1100V600H600Z"/>
  <path fill="#eeafb6" d="M0 700H500V500H0ZM600 700H1100V500H600Z"/>
  <path fill="#ffffff" d="M0 700H400V800H500V500H400V600H0ZM600 800H700V700H1100V600H700V500H600Z"/>
  <path fill="#edacb0" d="M400 700H700V500H400Z"/>
  <path fill="#9b9171" d="M400 800H700V600H400Z"/>
  <path fill="#a5a298" d="M400 800H500V700H600V600H400Z"/>
  <path fill="#a5a299" d="M500 700H600V800H700V600H500Z"/>
  <path fill="#eaa7a3" d="M400 700H700V600H600V500H500V600H400Z"/>
  <path fill="#efe4bf" d="M400 700H700V600H400Z"/>
  <path fill="#e2cd8a" d="M500 700H600V600H500Z"/>
</svg>
