<?xml version="1.0" encoding="UTF-8"?>
<svg xmlns="http://www.w3.org/2000/svg" viewBox="0 0 1200 1200" width="1200" height="1200">
  <title>emoji_u1f94a</title>
  <path fill="#950d19" d="M600 400H700V600H1000V300H900V200H800V100H600ZM100 800H200V1000H800V800H900V700H100Z"/>
  <path fill="#dc0d28" d="M100 800H900V700H1000V600H1100V500H1000V400H900V500H800V300H700V200H800V100H200V200H100ZM800 300H900V200H800ZM200 1200H800V900H600V1000H400V900H200Z"/>
  <path fill="#ffc402" d="M300 1100H700V900H300Z"/>
</svg>
