<?xml version="1.0" encoding="UTF-8"?>
<svg xmlns="http://www.w3.org/2000/svg" viewBox="0 0 1200 1200" width="1200" height="1200">
  <title>emoji_u1f4ac</title>
  <path fill="#000000" d="M0 1100H200V1000H300V900H400V1000H800V900H1000V800H1100V300H1000V200H800V100H300V200H100V300H0V700H100V900H0Z"/>
  <path fill="#ffffff" d="M100 700H200V900H300V800H400V900H800V800H1000V300H800V200H300V300H100ZM100 1000H200V900H100Z"/>
  <path fill="#54646d" d="M300 600H400V500H300ZM500 600H600V500H500ZM700 600H800V500H700Z"/>
</svg>
