<?xml version="1.0" encoding="UTF-8"?>
<svg xmlns="http://www.w3.org/2000/svg" viewBox="0 0 1200 1200" width="1200" height="1200">
  <title>emoji_u1f1ec_1f1f1</title>
  <path fill="#d00c33" d="M0 1000H1100V600H700V400H200V600H0Z"/>
  <path fill="#ffffff" d="M0 700H200V900H700V700H1100V300H0ZM300 600V500H600V600Z"/>
  <path fill="#e88699" d="M0 700H100V800H300V700H600V800H700V700H1100V600H700V500H600V600H300V500H100V600H0Z"/>
  <path fill="#d10f35" d="M500 900H700V700H600V800H500Z"/>
  <path fill="#d11138" d="M100 800H200V900H300V700H100Z"/>
  <path fill="#d73253" d="M200 900H400V800H300V700H200Z"/>
  <path fill="#d93b5b" d="M300 500H600V400H300Z"/>
  <path fill="#df5872" d="M200 600H300V500H400V400H200Z"/>
  <path fill="#e78497" d="M600 800H700V700H600ZM400 900H600V800H400Z"/>
  <path fill="#e8879b" d="M500 500H600V600H700V400H500Z"/>
  <path fill="#f0b3c0" d="M200 800H300V700H200ZM300 900H500V800H300Z"/>
  <path fill="#f6d0d7" d="M400 900H500V800H400Z"/>
  <path fill="#f8d9df" d="M100 600H300V400H200V500H100Z"/>
  <path fill="#fefafa" d="M100 600H300V500H100Z"/>
  <path fill="#fefcfd" d="M600 600H700V400H600Z"/>
  <path fill="#d5284b" d="M200 600H300V500H200Z"/>
  <path fill="#e57b90" d="M600 800H700V700H600Z"/>
  <path fill="#ea90a2" d="M600 600H700V500H600Z"/>
  <path fill="#fae3e7" d="M200 800H300V700H200Z"/>
</svg>
