<?xml version="1.0" encoding="UTF-8"?>
<svg xmlns="http://www.w3.org/2000/svg" viewBox="0 0 1200 1200" width="1200" height="1200">
  <title>emoji_u1f64c_1f3fc</title>
  <path fill="#b0bec5" d="M500 400H600V100H500ZM200 300H300V200H200ZM800 300H900V200H800ZM300 400H400V300H300ZM700 400H800V300H700ZM200 500H300V400H200ZM800 500H900V400H800Z"/>
  <path fill="#8d542e" d="M200 1200H400V900H500V800H400V500H300V400H200ZM800 1200H1000V900H1100V600H1000V500H900V400H800V700H900V800H800Z"/>
  <path fill="#d19661" d="M0 900H100V1200H300V900H400V800H300V400H200V500H100V600H0ZM600 900H700V1200H900V900H1000V700H900V400H800V500H700V800H600Z"/>
  <path fill="#e0bb95" d="M100 900H200V800H300V500H200V600H100ZM800 800H900V900H1000V600H900V500H800ZM300 900H400V800H300ZM700 900H800V800H700ZM200 1200H300V900H200ZM800 1200H900V900H800Z"/>
</svg>
