<?xml version="1.0" encoding="UTF-8"?>
<svg xmlns="http://www.w3.org/2000/svg" viewBox="0 0 1200 1200" width="1200" height="1200">
  <title>emoji_u1f4b1</title>
  <path fill="#02ab47" d="M600 200H900V100H600ZM800 400H1100V100H1000V200H900V300H800ZM500 300H600V200H500ZM100 1200H200V1100H300V1000H400V900H100ZM600 1100H700V1000H600ZM300 1200H600V1100H300Z"/>
  <path fill="#606265" d="M100 700H200V800H300V700H400V400H200V300H400V200H300V100H200V200H100V500H300V600H100ZM800 800H900V600H800ZM1000 800H1100V600H1000ZM800 1100H900V1200H1000V1100H1100V900H1000V800H900V900H800Z"/>
</svg>
