<?xml version="1.0" encoding="UTF-8"?>
<svg xmlns="http://www.w3.org/2000/svg" viewBox="0 0 1200 1200" width="1200" height="1200">
  <title>emoji_u1f251</title>
  <path fill="#f77e00" d="M300 1100H400V1200H700V1100H900V1000H1000V800H1100V500H1000V400H900V700H800V900H600V1000H300Z"/>
  <path fill="#ffb43e" d="M0 600H300V500H500V400H600V100H400V200H200V300H100V500H0Z"/>
  <path fill="#ff9800" d="M0 800H100V1000H200V1100H700V1000H900V800H1000V300H900V200H700V100H400V200H500V300H400V400H200V500H0ZM200 300H300V200H200ZM100 400H200V300H100Z"/>
  <path fill="#fce8c7" d="M200 500H400V400H200Z"/>
  <path fill="#fafafa" d="M300 500H700V900H600V1000H800V500H900V400H300ZM300 900H600V600H300ZM400 800V700H500V800Z"/>
</svg>
