<?xml version="1.0" encoding="UTF-8"?>
<svg xmlns="http://www.w3.org/2000/svg" viewBox="0 0 1200 1200" width="1200" height="1200">
  <title>emoji_u1f973</title>
  <path fill="#ff00a2" d="M0 200H100V100H0ZM100 300H200V200H100Z"/>
  <path fill="#00eeff" d="M300 300H600V200H500V100H400V200H300Z"/>
  <path fill="#0048ff" d="M0 1100H100V1200H300V1000H0Z"/>
  <path fill="#00cc00" d="M900 800H1000V700H1100V500H900Z"/>
  <path fill="#c93737" d="M900 300H1100V100H900Z"/>
  <path fill="#7acded" d="M0 1100H200V800H0Z"/>
  <path fill="#f63bbe" d="M600 1200H900V1000H600Z"/>
  <path fill="#fd3b3b" d="M100 400H400V200H100Z"/>
  <path fill="#eb8f00" d="M0 1100H200V1200H700V1100H800V1200H900V1100H1000V900H1100V800H1000V600H1100V500H800V1000H200V400H700V100H600V200H300V300H200V200H100V300H0V900H100V1000H0Z"/>
  <path fill="#ff4545" d="M500 400H600V500H700V600H800V700H900V600H1100V200H1000V100H600V300H500Z"/>
  <path fill="#419ef4" d="M600 1100H900V1000H1000V900H900V800H1000V700H900V600H800V700H700V800H600ZM1000 900H1100V800H1000Z"/>
  <path fill="#ff82b2" d="M100 600H300V300H100Z"/>
  <path fill="#ff9c9c" d="M700 300H800V400H900V500H1000V200H700ZM600 400H700V300H600ZM700 500H800V400H700ZM800 600H900V500H800Z"/>
  <path fill="#fde030" d="M100 1100H900V1000H700V900H800V800H900V500H800V400H700V300H100V400H200V500H100Z"/>
  <path fill="#422b0d" d="M200 600H300V500H200ZM600 600H700V500H600ZM100 700H200V600H100ZM300 700H400V600H300ZM500 700H600V600H500ZM700 700H800V600H700ZM400 900H500V800H400ZM300 1000H400V900H300ZM400 1100H500V1000H400Z"/>
  <path fill="#7f0099" d="M600 1000H700V900H600Z"/>
</svg>
