<?xml version="1.0" encoding="UTF-8"?>
<svg xmlns="http://www.w3.org/2000/svg" viewBox="0 0 1200 1200" width="1200" height="1200">
  <title>emoji_u1f34e</title>
  <path fill="#513630" d="M400 600H700V500H600V400H700V100H600V200H500V500H400Z"/>
  <path fill="#709f19" d="M600 400H700V300H800V100H600ZM700 500H800V400H700Z"/>
  <path fill="#2f7c31" d="M600 300H700V200H800V100H600Z"/>
  <path fill="#dc0d28" d="M200 1100H300V1200H500V1100H600V1200H800V1100H900V1000H1000V500H900V400H700V500H600V700H700V800H600V900H400V1000H200Z"/>
  <path fill="#8d1d0a" d="M300 700H800V600H700V500H400V400H300Z"/>
  <path fill="#ff5117" d="M100 1000H200V1100H500V1000H700V900H800V600H400V400H200V500H100Z"/>
  <path fill="#ffd2b1" d="M300 600H400V500H300ZM200 800H300V600H200Z"/>
</svg>
