<?xml version="1.0" encoding="UTF-8"?>
<svg xmlns="http://www.w3.org/2000/svg" viewBox="0 0 1200 1200" width="1200" height="1200">
  <title>emoji_u1f4fd</title>
  <path fill="#212121" d="M900 1000H1000V1100H1100V700H900Z"/>
  <path fill="#424242" d="M800 600H1000V500H1100V200H1000V100H800V300H900V400H800ZM300 500H400V700H700V400H600V200H500V300H300ZM900 900H1000V800H1100V600H1000V700H900Z"/>
  <path fill="#9e9e9e" d="M700 1100H800V1000H1000V700H700Z"/>
  <path fill="#757575" d="M0 700H100V800H300V700H800V600H900V500H1000V200H900V100H600V200H500V400H400V300H100V400H0ZM500 600V500H600V600Z"/>
  <path fill="#37474f" d="M100 1100H200V1200H700V1100H800V900H100Z"/>
  <path fill="#546e7a" d="M100 1100H200V1000H300V800H900V700H800V600H700V500H800V300H600V600H400V500H200V700H100ZM200 1200H700V1100H200Z"/>
  <path fill="#e0e0e0" d="M700 900H800V800H1000V700H700Z"/>
  <path fill="#b2947c" d="M600 400H700V500H800V400H900V300H800V200H700V300H600ZM100 600H200V800H400V700H300V600H400V500H300V400H200V500H100Z"/>
  <path fill="#78909c" d="M200 1000H800V700H200Z"/>
  <path fill="#b9e4ea" d="M700 400H800V300H700ZM200 600H300V500H200ZM200 800H600V700H200Z"/>
</svg>
