<?xml version="1.0" encoding="UTF-8"?>
<svg xmlns="http://www.w3.org/2000/svg" viewBox="0 0 1200 1200" width="1200" height="1200">
  <title>emoji_u1f40b</title>
  <path fill="#dbecf7" d="M0 1200H800V1000H700V900H200V800H0V1000H100V1100H0Z"/>
  <path fill="#a5d0d6" d="M0 900H100V1000H200V1100H300V1000H400V1100H500V1000H600V1100H700V1200H800V1100H900V1200H1100V1100H1000V1000H1100V900H1000V800H600V900H300V800H200V700H0ZM0 1200H200V1100H0ZM300 1200H400V1100H300ZM500 1200H600V1100H500Z"/>
  <path fill="#6ba4ae" d="M800 300H1000V100H900V200H800ZM0 800H100V900H200V1000H600V1100H900V1000H1100V300H1000V500H900V600H800V700H700V600H500V500H100V600H0ZM700 1000V900H900V1000ZM100 1200H200V1100H100ZM900 1200H1100V1100H900Z"/>
  <path fill="#fee9c6" d="M0 800H200V900H400V800H300V700H0Z"/>
  <path fill="#2e302f" d="M500 900H600V800H500Z"/>
</svg>
