<?xml version="1.0" encoding="UTF-8"?>
<svg xmlns="http://www.w3.org/2000/svg" viewBox="0 0 1200 1200" width="1200" height="1200">
  <title>emoji_u1f42f</title>
  <path fill="#ffd2b1" d="M0 900H100V1000H200V1100H400V1200H700V1100H900V1000H1000V900H1100V500H1000V400H900V600H800V900H300V600H200V400H100V500H0Z"/>
  <path fill="#ff8e01" d="M0 400H100V700H200V1100H400V1000H700V1100H900V700H1000V400H1100V200H1000V100H900V200H800V100H300V200H200V100H100V200H0ZM400 1200H700V1100H400Z"/>
  <path fill="#2f2f2f" d="M400 400H500V500H600V400H700V300H600V200H700V100H400V200H500V300H400ZM300 600H400V500H300ZM700 600H800V500H700ZM100 700H200V600H100ZM900 700H1000V600H900ZM200 800H300V700H200ZM400 1000H700V800H600V700H500V800H400ZM800 800H900V700H800Z"/>
  <path fill="#ff6011" d="M100 400H200V200H100ZM900 400H1000V200H900Z"/>
  <path fill="#ffffff" d="M400 1000H700V900H400Z"/>
  <path fill="#fea7a5" d="M500 1000H600V900H500Z"/>
</svg>
