<?xml version="1.0" encoding="UTF-8"?>
<svg xmlns="http://www.w3.org/2000/svg" viewBox="0 0 1200 1200" width="1200" height="1200">
  <title>emoji_u1f329</title>
  <path fill="#feca18" d="M300 1000H500V1200H600V1100H700V1000H800V900H600V800H400V900H300Z"/>
  <path fill="#fdb900" d="M400 900H500V1000H600V800H700V700H400ZM300 1000H400V900H300Z"/>
  <path fill="#b9ced3" d="M0 700H100V800H300V600H200V500H0ZM700 800H1000V700H1100V500H700Z"/>
  <path fill="#ffe36a" d="M300 800H400V900H500V800H600V700H300ZM500 1100H600V900H500Z"/>
  <path fill="#ddd899" d="M200 800H900V700H800V600H200Z"/>
  <path fill="#c4d1bf" d="M100 700H200V800H300V700H800V600H900V500H200V600H100ZM900 700H1000V600H900ZM800 800H900V700H800Z"/>
  <path fill="#e2ebee" d="M0 600H100V700H300V600H500V700H700V600H900V700H1000V600H1100V500H1000V300H900V200H800V100H500V200H400V300H200V400H100V500H0Z"/>
</svg>
