<?xml version="1.0" encoding="UTF-8"?>
<svg xmlns="http://www.w3.org/2000/svg" viewBox="0 0 1200 1200" width="1200" height="1200">
  <title>emoji_u1f3c6</title>
  <path fill="#865c50" d="M200 1200H900V1100H800V900H700V800H400V900H300V1100H200Z"/>
  <path fill="#fec417" d="M100 300H200V400H300V300H600V500H500V800H700V700H800V600H900V300H1000V200H800V100H300V200H100ZM0 600H100V300H0ZM1000 600H1100V300H1000ZM200 600H300V500H200ZM100 700H200V600H100ZM900 700H1000V600H900ZM400 1100H700V1000H400Z"/>
  <path fill="#d1701c" d="M200 400H700V300H800V400H900V200H200ZM400 900H700V700H400Z"/>
  <path fill="#ffa828" d="M200 600H300V700H400V800H700V700H600V600H700V300H300V200H200ZM800 600H900V200H800ZM700 700H800V600H700Z"/>
  <path fill="#ffefab" d="M300 600H400V300H300ZM400 700H500V600H400Z"/>
</svg>
