<?xml version="1.0" encoding="UTF-8"?>
<svg xmlns="http://www.w3.org/2000/svg" viewBox="0 0 1200 1200" width="1200" height="1200">
  <title>emoji_u1f354</title>
  <path fill="#fcb745" d="M0 1000H100V1100H200V1200H900V1100H1000V1000H1100V800H900V900H800V1000H300V900H200V800H0Z"/>
  <path fill="#e78b20" d="M0 900H100V1000H200V1100H900V1000H1000V900H1100V800H1000V700H900V800H800V900H300V800H200V700H100V800H0Z"/>
  <path fill="#df8016" d="M0 500H1100V300H1000V200H900V100H200V200H100V300H0Z"/>
  <path fill="#ffe869" d="M0 700H100V900H200V1000H900V900H1000V700H1100V600H1000V500H900V600H700V700H400V600H200V500H100V600H0Z"/>
  <path fill="#de8010" d="M0 500H100V700H1000V500H1100V300H1000V400H100V300H0Z"/>
  <path fill="#f5ac3c" d="M0 400H100V300H0ZM100 500H1000V400H900V300H800V400H100ZM1000 400H1100V300H1000Z"/>
  <path fill="#6d544d" d="M300 800H400V700H300ZM700 800H800V700H700ZM100 900H200V1000H500V900H300V800H100ZM500 900H600V800H500ZM600 1000H900V900H1000V800H800V900H600Z"/>
  <path fill="#ffbe01" d="M100 700H300V800H500V900H600V800H800V700H900V600H600V700H500V600H100Z"/>
  <path fill="#a6b732" d="M200 700H400V600H200ZM600 800H700V700H1000V600H600Z"/>
  <path fill="#fdeac8" d="M300 300H400V200H300ZM800 400H900V300H800ZM500 500H600V400H500Z"/>
  <path fill="#ffd290" d="M200 1000H300V900H200ZM800 1000H900V900H800Z"/>
  <path fill="#c2dd1f" d="M300 700H400V800H700V600H300ZM800 700H900V600H800Z"/>
  <path fill="#f4482b" d="M400 800H700V700H400Z"/>
</svg>
