<?xml version="1.0" encoding="UTF-8"?>
<svg xmlns="http://www.w3.org/2000/svg" viewBox="0 0 1200 1200" width="1200" height="1200">
  <title>emoji_u1f477_1f3fd</title>
  <path fill="#397bff" d="M100 1200H400V900H300V1000H200V1100H100ZM800 1200H1100V1100H1000V1000H900V900H800Z"/>
  <path fill="#ffd600" d="M100 600H400V100H300V200H200V500H100ZM800 600H1100V500H1000V200H900V100H800Z"/>
  <path fill="#fff700" d="M300 1200H500V1000H300ZM700 1200H900V1000H700Z"/>
  <path fill="#543930" d="M100 600H200V900H300V1000H400V900H500V500H100ZM700 900H800V1000H900V900H1000V600H1100V500H700Z"/>
  <path fill="#3a7cff" d="M300 1100H400V1200H800V1100H900V900H300Z"/>
  <path fill="#ff8900" d="M300 1100H400V1000H500V900H300ZM700 1000H800V1100H900V900H700ZM500 1100H700V1000H500ZM400 1200H500V1100H400ZM700 1200H800V1100H700Z"/>
  <path fill="#f6d200" d="M300 500H900V100H300Z"/>
  <path fill="#fffb00" d="M200 600H1000V500H900V200H800V400H700V100H500V400H400V200H300V500H200Z"/>
  <path fill="#ba8d68" d="M300 1000H500V1100H700V1000H900V800H800V600H900V500H300V600H400V800H300Z"/>
  <path fill="#ffea00" d="M100 600H1100V500H100Z"/>
  <path fill="#99674f" d="M500 1100H700V1000H500Z"/>
  <path fill="#49362e" d="M400 900H500V700H400ZM700 900H800V700H700Z"/>
</svg>
