<?xml version="1.0" encoding="UTF-8"?>
<svg xmlns="http://www.w3.org/2000/svg" viewBox="0 0 1200 1200" width="1200" height="1200">
  <title>emoji_u1f405</title>
  <path fill="#bb5d42" d="M400 1200H600V1000H700V900H400Z"/>
  <path fill="#323332" d="M0 700H100V800H200V500H0Z"/>
  <path fill="#fe6a1f" d="M100 400H400V300H300V200H200V300H100ZM100 1200H200V1100H300V1200H400V800H200V900H100ZM600 1000H700V1200H900V1100H1000V1000H900V900H600Z"/>
  <path fill="#ffffff" d="M0 600H100V800H200V900H300V500H200V400H100V500H0Z"/>
  <path fill="#33312f" d="M100 500H500V400H600V300H500V200H400V300H100ZM200 900H300V1200H500V1000H800V1100H1000V800H1100V500H1000V400H600V700H500V600H200ZM100 1100H200V1000H100Z"/>
  <path fill="#ff9613" d="M100 600H200V900H300V1000H400V1100H300V1200H500V1000H600V800H700V1000H800V1100H1000V1200H1100V500H1000V700H900V400H800V700H700V400H600V300H400V400H100ZM300 800V700H400V800ZM800 1000V800H900V1000Z"/>
  <path fill="#fdedcc" d="M200 900H300V1000H400V900H500V800H600V500H500V600H400V800H200Z"/>
  <path fill="#fd6a1f" d="M400 400H500V300H400Z"/>
  <path fill="#313130" d="M200 600H300V500H200Z"/>
</svg>
