<?xml version="1.0" encoding="UTF-8"?>
<svg xmlns="http://www.w3.org/2000/svg" viewBox="0 0 1200 1200" width="1200" height="1200">
  <title>emoji_u1f62a</title>
  <path fill="#eb8f00" d="M0 1000H100V1100H200V1200H900V1100H1000V1000H300V900H200V400H300V300H800V400H900V900H1100V300H1000V200H900V100H200V200H100V300H0Z"/>
  <path fill="#4fc3f7" d="M600 1000H700V1100H1000V1000H1100V800H1000V600H700V700H600Z"/>
  <path fill="#b3e5fc" d="M900 900H1000V800H900Z"/>
  <path fill="#fde030" d="M100 1000H200V1100H900V1000H800V900H700V800H800V700H1000V300H900V200H200V300H100Z"/>
  <path fill="#422b0d" d="M200 600H300V500H200ZM400 600H500V500H400ZM600 600H700V500H600ZM800 600H900V500H800ZM300 700H400V600H300ZM700 700H800V600H700ZM400 1000H700V900H600V800H500V900H400Z"/>
</svg>
