<?xml version="1.0" encoding="UTF-8"?>
<svg xmlns="http://www.w3.org/2000/svg" viewBox="0 0 1200 1200" width="1200" height="1200">
  <title>emoji_u1f37c</title>
  <path fill="#bbced4" d="M200 1100H300V1200H800V1100H900V600H800V500H700V1000H400V500H300V600H200Z"/>
  <path fill="#ffcc8a" d="M400 400H600V100H500V200H400Z"/>
  <path fill="#ffa828" d="M300 500H800V400H700V200H600V100H500V300H400V400H300Z"/>
  <path fill="#37b4e5" d="M300 700H800V400H300Z"/>
  <path fill="#1e88fe" d="M300 700H800V600H700V500H800V400H300V500H400V600H300ZM500 600V500H600V600Z"/>
  <path fill="#f5f3e7" d="M300 1100H800V600H300Z"/>
  <path fill="#ffffff" d="M400 800H500V600H400Z"/>
</svg>
