<?xml version="1.0" encoding="UTF-8"?>
<svg xmlns="http://www.w3.org/2000/svg" viewBox="0 0 1200 1200" width="1200" height="1200">
  <title>emoji_u1f9ea</title>
  <path fill="#00bfa5" d="M900 300H1000V200H900ZM1000 400H1100V300H1000ZM0 1100H100V1200H400V1100H500V1000H600V900H700V800H800V700H300V600H200V700H100V800H0Z"/>
  <path fill="#6ea3df" d="M400 500H500V600H600V700H700V800H800V700H900V800H1000V700H1100V600H1000V500H900V400H800V300H700V200H600V100H500V200H400V300H500V400H400Z"/>
  <path fill="#00edcd" d="M800 300H1000V100H800ZM700 400H800V300H700ZM200 800H400V900H500V800H800V600H400V500H300V600H200Z"/>
  <path fill="#a1dffc" d="M500 300H600V400H700V500H800V600H900V700H1100V600H1000V500H900V400H800V300H700V200H600V100H500ZM300 700H600V800H700V700H800V600H700V500H600V400H400V500H300Z"/>
  <path fill="#daf3fe" d="M500 300H600V200H500ZM600 400H700V300H600ZM700 500H800V400H700ZM400 600H500V500H400ZM300 700H400V600H300ZM200 800H300V700H200Z"/>
  <path fill="#99e5db" d="M200 800H300V700H200ZM100 900H200V800H100ZM200 1000H300V900H200Z"/>
  <path fill="#b0ebe3" d="M600 800H700V700H600Z"/>
  <path fill="#00937a" d="M200 1000H300V900H200Z"/>
</svg>
