<?xml version="1.0" encoding="UTF-8"?>
<svg xmlns="http://www.w3.org/2000/svg" viewBox="0 0 1200 1200" width="1200" height="1200">
  <title>emoji_u1f36d</title>
  <path fill="#f5c977" d="M600 900H700V1000H800V1100H900V1200H1100V1100H1000V1000H900V900H800V700H600Z"/>
  <path fill="#f4b043" d="M600 900H700V800H600ZM700 1000H800V900H700ZM800 1100H900V1000H800ZM900 1200H1000V1100H900Z"/>
  <path fill="#ff2d8a" d="M0 700H100V800H200V900H300V1000H600V900H700V800H800V700H900V600H600V700H500V800H400V700H300V400H400V500H700V200H600V100H300V300H100V400H0Z"/>
  <path fill="#4bddff" d="M100 400H200V500H300V800H700V700H800V300H700V200H600V100H300V200H200V300H100ZM400 300V200H500V300H600V400H500V300ZM0 700H100V600H200V500H100V400H0Z"/>
  <path fill="#fff11b" d="M500 200H600V100H500ZM600 300H700V200H600ZM200 800H300V900H600V800H700V700H900V400H800V300H700V600H600V700H400V500H500V600H600V400H500V300H300V400H200Z"/>
  <path fill="#fdb3d1" d="M100 600H200V800H300V900H600V800H400V700H300V500H400V400H500V300H400V200H300V300H200V500H100ZM500 600H600V400H500ZM800 700H900V400H800Z"/>
  <path fill="#ffffff" d="M300 300H400V200H300ZM200 400H300V300H200ZM100 600H200V500H100Z"/>
</svg>
