<?xml version="1.0" encoding="UTF-8"?>
<svg xmlns="http://www.w3.org/2000/svg" viewBox="0 0 1200 1200" width="1200" height="1200">
  <title>emoji_u1fa97</title>
  <path fill="#cf381a" d="M0 600H100V1000H500V900H600V1000H1000V600H1100V200H800V100H700V500H500V100H400V200H0Z"/>
  <path fill="#6d4c41" d="M400 600H500V900H600V1000H700V600H800V100H400ZM800 700H900V600H800Z"/>
  <path fill="#fce8b2" d="M400 600H500V100H400ZM600 600H700V100H600ZM300 700H400V600H300ZM500 900H600V600H500Z"/>
  <path fill="#fff3e0" d="M100 600H200V900H400V600H300V300H100Z"/>
  <path fill="#ff5722" d="M900 600H1000V300H900ZM800 900H900V600H800Z"/>
  <path fill="#6d4238" d="M200 600H300V300H200ZM900 500H1000V400H900ZM300 900H400V600H300ZM800 800H900V700H800Z"/>
  <path fill="#ffcc80" d="M200 500H300V400H200ZM300 800H400V700H300Z"/>
</svg>
