<?xml version="1.0" encoding="UTF-8"?>
<svg xmlns="http://www.w3.org/2000/svg" viewBox="0 0 1200 1200" width="1200" height="1200">
  <title>emoji_u1f9d7_200d_2642</title>
  <path fill="#51a6df" d="M800 300H900V400H1100V100H800Z"/>
  <path fill="#543930" d="M900 500H1000V400H1100V300H1000V200H900Z"/>
  <path fill="#7c7c7c" d="M600 900H700V1100H900V900H1000V700H600Z"/>
  <path fill="#ffca28" d="M300 500H400V400H500V500H600V200H300ZM700 500H1000V200H800V400H700ZM400 700H500V600H400ZM300 800H400V700H300ZM300 1000H500V900H700V700H500V800H400V900H300ZM700 1200H900V1000H700Z"/>
  <path fill="#646464" d="M600 900H700V800H800V600H700V700H600Z"/>
  <path fill="#00baa1" d="M500 500H600V600H700V800H1000V400H700V300H600V200H500Z"/>
  <path fill="#4e342e" d="M0 1200H300V1000H400V900H300V800H400V700H500V500H400V300H500V400H600V100H0Z"/>
  <path fill="#4568ad" d="M500 500H600V100H500ZM400 600H500V500H400ZM600 600H700V500H600ZM700 700H1000V600H700ZM200 1000H400V900H200Z"/>
  <path fill="#6e4c41" d="M100 300H200V100H100ZM200 500H300V400H400V100H300V300H200ZM0 600H100V1200H200V1000H300V900H200V800H300V700H400V600H500V500H300V600H200V500H100V300H0Z"/>
</svg>
