<?xml version="1.0" encoding="UTF-8"?>
<svg xmlns="http://www.w3.org/2000/svg" viewBox="0 0 1200 1200" width="1200" height="1200">
  <title>emoji_u1f4e7</title>
  <path fill="#6fbff0" d="M0 1100H1100V200H0Z"/>
  <path fill="#ffffff" d="M100 1000H1000V800H900V700H800V600H700V500H800V400H900V300H200V400H300V500H400V600H300V700H200V800H100ZM100 700H200V600H300V500H200V400H100ZM800 600H900V700H1000V400H900V500H800Z"/>
  <path fill="#2196f3" d="M400 900H700V800H500V700H700V600H500V500H700V400H400Z"/>
</svg>
