<?xml version="1.0" encoding="UTF-8"?>
<svg xmlns="http://www.w3.org/2000/svg" viewBox="0 0 1200 1200" width="1200" height="1200">
  <title>emoji_u1f431</title>
  <path fill="#ff9b31" d="M300 500H800V300H700V200H400V300H300Z"/>
  <path fill="#9e9e9e" d="M0 1000H200V1100H400V600H100V700H0V800H100V900H0ZM700 1100H900V1000H1100V900H1000V800H1100V700H1000V600H700Z"/>
  <path fill="#ffc022" d="M0 500H100V700H300V800H100V900H300V1000H200V1100H900V1000H800V900H1000V800H800V700H1000V500H1100V100H900V200H800V300H700V400H600V200H500V400H400V300H300V200H200V100H0Z"/>
  <path fill="#ffd1d1" d="M100 400H300V300H200V200H100ZM800 400H1000V200H900V300H800Z"/>
  <path fill="#000200" d="M300 700H400V500H300ZM700 700H800V500H700ZM500 800H600V700H500ZM400 900H500V800H400ZM600 900H700V800H600Z"/>
</svg>
