<?xml version="1.0" encoding="UTF-8"?>
<svg xmlns="http://www.w3.org/2000/svg" viewBox="0 0 1200 1200" width="1200" height="1200">
  <title>emoji_u1f490</title>
  <path fill="#737f39" d="M300 500H500V300H300ZM200 900H300V800H500V900H700V800H800V700H900V600H800V400H900V300H600V400H700V600H600V700H300V600H200ZM500 600H600V500H500ZM800 1100H900V1200H1000V1100H1100V1000H1000V900H800Z"/>
  <path fill="#fd8695" d="M100 400H200V500H400V400H500V300H400V200H300V100H200V200H100Z"/>
  <path fill="#e84b8b" d="M0 900H300V600H0Z"/>
  <path fill="#feb804" d="M600 400H900V100H600Z"/>
  <path fill="#96a51d" d="M400 1100H600V1000H800V1100H900V1000H1000V900H900V800H1000V600H1100V500H900V600H700V700H600V800H500V900H400ZM1000 1100H1100V1000H1000ZM900 1200H1000V1100H900Z"/>
  <path fill="#e3dea1" d="M700 900H800V800H700ZM800 1100H900V1000H1000V900H800Z"/>
  <path fill="#af0c1b" d="M0 800H200V700H0Z"/>
  <path fill="#ff7537" d="M700 300H800V100H700Z"/>
  <path fill="#a9bf21" d="M900 600H1000V500H900ZM800 700H900V600H800ZM600 900H800V800H600ZM500 1000H600V900H500Z"/>
  <path fill="#e658a4" d="M200 400H300V200H200Z"/>
</svg>
