<?xml version="1.0" encoding="UTF-8"?>
<svg xmlns="http://www.w3.org/2000/svg" viewBox="0 0 1200 1200" width="1200" height="1200">
  <title>emoji_u1f1ec_1f1e7</title>
  <path fill="#cf384e" d="M0 500H200V300H0ZM900 500H1100V300H900ZM0 1000H200V800H0ZM900 1000H1100V800H900Z"/>
  <path fill="#00247d" d="M200 500H500V300H200ZM600 500H900V300H600ZM200 1000H500V800H200ZM600 1000H900V800H600Z"/>
  <path fill="#233e8b" d="M0 600H200V300H100V400H0ZM900 600H1100V400H1000V300H900ZM0 900H100V1000H200V700H0ZM900 1000H1000V900H1100V700H900Z"/>
  <path fill="#32458d" d="M100 500H400V400H300V300H100ZM700 500H1000V300H800V400H700ZM100 1000H300V900H400V800H100ZM700 900H800V1000H1000V800H700Z"/>
  <path fill="#6774a9" d="M300 500H800V400H700V300H400V400H300ZM300 900H400V1000H700V900H800V800H300Z"/>
  <path fill="#9f87aa" d="M0 800H100V900H200V400H100V500H0ZM900 900H1000V800H1100V500H1000V400H900Z"/>
  <path fill="#b4506e" d="M100 500H300V400H200V300H100ZM800 500H1000V300H900V400H800ZM100 1000H200V900H300V800H100ZM800 900H900V1000H1000V800H800Z"/>
  <path fill="#cf142b" d="M0 700H100V800H400V900H500V1000H600V900H700V800H1000V700H1100V600H1000V500H700V400H600V300H500V400H400V500H100V600H0Z"/>
  <path fill="#7f5887" d="M200 600H500V400H200ZM600 600H900V400H600ZM200 900H500V700H200ZM600 900H900V700H600Z"/>
  <path fill="#a088aa" d="M100 600H300V400H100ZM800 600H1000V400H800ZM100 900H300V700H100ZM800 900H1000V700H800Z"/>
  <path fill="#a55577" d="M100 500H200V600H300V400H100ZM800 600H900V500H1000V400H800ZM100 900H300V700H200V800H100ZM800 900H1000V800H900V700H800Z"/>
  <path fill="#d33549" d="M200 600H400V500H300V400H200ZM700 600H900V400H800V500H700ZM200 900H300V800H400V700H200ZM700 800H800V900H900V700H700Z"/>
  <path fill="#727eaf" d="M300 600H500V400H400V500H300ZM600 600H800V500H700V400H600ZM600 900H700V800H800V700H600Z"/>
  <path fill="#727daf" d="M300 800H400V900H500V700H300Z"/>
  <path fill="#dfa3b0" d="M200 600H400V500H200ZM700 600H900V500H700ZM200 800H400V700H200ZM700 800H900V700H700Z"/>
  <path fill="#e5828e" d="M300 600H500V500H300ZM600 600H800V500H600ZM300 800H500V700H300ZM600 800H800V700H600Z"/>
  <path fill="#edb3bc" d="M400 600H500V500H400ZM600 600H700V500H600ZM400 800H500V700H400ZM600 800H700V700H600Z"/>
</svg>
