<?xml version="1.0" encoding="UTF-8"?>
<svg xmlns="http://www.w3.org/2000/svg" viewBox="0 0 1200 1200" width="1200" height="1200">
  <title>emoji_u1f96d</title>
  <path fill="#aaa61c" d="M0 1000H100V1100H200V1200H800V1100H900V1000H1000V800H800V900H700V1000H300V900H200V800H0Z"/>
  <path fill="#6d4c41" d="M800 500H1100V400H1000V300H1100V200H800Z"/>
  <path fill="#518e30" d="M100 400H300V500H1000V400H900V300H1000V200H900V100H400V200H200V300H100Z"/>
  <path fill="#d0a320" d="M0 900H100V1000H200V1100H800V1000H900V900H1000V800H1100V700H800V800H700V900H300V800H200V700H100V800H0Z"/>
  <path fill="#fa7823" d="M200 700H1100V400H300V600H200Z"/>
  <path fill="#dea221" d="M100 900H200V1000H800V900H900V800H1100V600H800V700H700V800H300V700H100Z"/>
  <path fill="#dc0d27" d="M300 500H500V600H600V500H1100V400H300Z"/>
  <path fill="#ff9f25" d="M100 800H200V900H800V800H900V700H1100V600H200V700H100Z"/>
  <path fill="#f7a124" d="M300 700H400V600H300ZM700 700H800V600H700ZM100 800H200V900H800V800H500V700H400V800H300V700H100ZM800 800H900V700H800Z"/>
  <path fill="#366918" d="M500 300H900V200H500Z"/>
  <path fill="#f75b21" d="M900 500H1000V400H900Z"/>
  <path fill="#fd9224" d="M300 700H400V800H500V700H800V600H600V500H500V600H300Z"/>
  <path fill="#ffebc9" d="M500 600H600V500H500ZM400 800H500V600H400Z"/>
</svg>
