<?xml version="1.0" encoding="UTF-8"?>
<svg xmlns="http://www.w3.org/2000/svg" viewBox="0 0 1200 1200" width="1200" height="1200">
  <title>emoji_u1f519</title>
  <path fill="#427687" d="M0 1100H100V1200H1000V1100H1100V200H1000V100H900V1000H0Z"/>
  <path fill="#8cafbf" d="M0 1100H200V1000H300V1100H1000V100H100V200H0Z"/>
  <path fill="#a0c8d6" d="M200 300H300V200H200ZM100 400H200V300H100ZM300 400H400V300H300ZM200 500H300V400H200Z"/>
  <path fill="#fafafa" d="M200 500H300V600H400V700H500V500H900V400H500V200H400V300H300V400H200ZM100 1100H400V1000H500V1100H800V1000H900V900H800V800H600V900H700V1000H600V900H500V800H400V900H200V800H100ZM900 900H1000V800H900ZM900 1100H1000V1000H900Z"/>
</svg>
