<?xml version="1.0" encoding="UTF-8"?>
<svg xmlns="http://www.w3.org/2000/svg" viewBox="0 0 1200 1200" width="1200" height="1200">
  <title>emoji_u1f9c5</title>
  <path fill="#f4a964" d="M100 400H300V500H800V400H1000V300H900V200H200V300H100Z"/>
  <path fill="#d17759" d="M400 300H700V200H600V100H500V200H400ZM0 900H100V1000H200V1100H300V1200H400V1100H500V1200H600V1100H700V1200H800V1100H900V1000H1000V900H1100V700H0Z"/>
  <path fill="#d37b58" d="M0 800H100V900H300V800H400V900H500V800H600V900H700V800H800V900H1000V800H1100V600H900V700H200V600H0Z"/>
  <path fill="#fecc88" d="M0 600H300V700H1100V400H1000V300H700V400H300V300H100V400H0Z"/>
  <path fill="#f2a05b" d="M400 700H1000V600H900V500H800V600H600V500H800V400H900V300H700V400H600V300H700V200H400V300H500V400H400V500H500V600H400ZM300 400H400V300H300Z"/>
  <path fill="#f4a662" d="M0 700H100V800H1000V700H1100V500H1000V600H200V500H0Z"/>
  <path fill="#fcc27e" d="M0 600H100V700H200V500H0ZM300 700H500V800H600V700H800V800H900V700H1000V600H400V500H300ZM1000 600H1100V500H1000Z"/>
  <path fill="#fcc480" d="M200 500H400V300H200ZM700 400H900V300H700ZM500 500H700V400H500Z"/>
  <path fill="#ee9b5b" d="M100 700H400V500H600V400H400V300H300V400H200V500H100ZM700 400H800V300H700Z"/>
  <path fill="#feeac4" d="M200 500H300V400H200ZM400 500H500V400H400ZM100 700H200V800H300V700H400V500H300V600H200V500H100Z"/>
  <path fill="#d47b59" d="M200 800H300V600H200ZM500 800H600V600H500ZM800 800H900V600H800Z"/>
  <path fill="#dd865a" d="M200 700H300V600H200ZM500 700H600V600H500ZM800 700H900V600H800Z"/>
</svg>
