<?xml version="1.0" encoding="UTF-8"?>
<svg xmlns="http://www.w3.org/2000/svg" viewBox="0 0 1200 1200" width="1200" height="1200">
  <title>emoji_u1f98d</title>
  <path fill="#a7a7a7" d="M600 800H700V1100H1100V700H1000V600H900V500H700V400H600Z"/>
  <path fill="#44494e" d="M0 400H400V100H100V200H0ZM400 1100H500V1000H600V1100H700V900H800V700H700V400H600V300H500V700H400Z"/>
  <path fill="#000000" d="M0 500H400V200H300V300H0Z"/>
  <path fill="#3d3f40" d="M0 1200H100V1100H200V1200H400V1000H500V800H600V300H500V200H400V100H300V400H200V500H0V600H100V700H0ZM600 1200H900V1000H800V900H600Z"/>
  <path fill="#5d6265" d="M0 600H200V700H300V800H400V700H500V800H600V400H500V500H400V600H300V500H400V100H100V200H300V400H0ZM0 1200H100V700H0ZM600 1000H800V700H700V800H600ZM300 1200H500V800H400V900H300ZM800 1200H1000V1100H1100V1000H800Z"/>
  <path fill="#aeaeaf" d="M0 500H100V600H300V400H200V300H100V400H0Z"/>
</svg>
