<?xml version="1.0" encoding="UTF-8"?>
<svg xmlns="http://www.w3.org/2000/svg" viewBox="0 0 1200 1200" width="1200" height="1200">
  <title>emoji_u1f9cc</title>
  <path fill="#353851" d="M300 400H600V300H700V400H800V800H900V700H1000V500H1100V400H1000V200H900V100H400V200H300Z"/>
  <path fill="#9e705a" d="M200 1200H1100V900H1000V800H900V600H700V900H600V600H300V800H200Z"/>
  <path fill="#874d36" d="M0 800H100V1200H300V900H400V700H500V300H400V200H100V300H0Z"/>
  <path fill="#b7855f" d="M100 500H200V400H300V300H100ZM100 700H300V500H200V600H100ZM200 900H300V800H200ZM100 1000H200V900H100ZM200 1100H300V1000H200ZM100 1200H200V1100H100Z"/>
  <path fill="#a0c787" d="M400 700H500V1000H600V1100H800V1000H1000V900H800V700H900V300H400ZM1000 500H1100V400H1000ZM800 1200H1000V1100H800Z"/>
  <path fill="#75a768" d="M400 400H900V300H800V200H500V300H400ZM500 800H800V700H500Z"/>
  <path fill="#2f2829" d="M500 400H600V300H500ZM700 400H800V300H700Z"/>
  <path fill="#ffffff" d="M500 600H800V500H500Z"/>
  <path fill="#4a261f" d="M600 600H700V500H600Z"/>
</svg>
