<?xml version="1.0" encoding="UTF-8"?>
<svg xmlns="http://www.w3.org/2000/svg" viewBox="0 0 1200 1200" width="1200" height="1200">
  <title>emoji_u1f462</title>
  <path fill="#37474f" d="M200 1200H400V1100H500V1000H200Z"/>
  <path fill="#a65f3e" d="M0 1200H300V1100H600V1200H1100V1000H700V900H200V800H0Z"/>
  <path fill="#ffb685" d="M100 500H600V200H500V100H200V200H100Z"/>
  <path fill="#de7340" d="M200 300H300V200H200ZM400 300H500V200H400ZM0 900H100V1000H600V1100H1100V1000H1000V900H900V800H700V700H600V300H500V400H200V300H100V800H0Z"/>
  <path fill="#263238" d="M200 300H500V200H200Z"/>
  <path fill="#f29657" d="M700 1100H900V1000H700Z"/>
  <path fill="#874d36" d="M300 800H400V400H300Z"/>
</svg>
