<?xml version="1.0" encoding="UTF-8"?>
<svg xmlns="http://www.w3.org/2000/svg" viewBox="0 0 1200 1200" width="1200" height="1200">
  <title>emoji_u1f31f</title>
  <path fill="#ffc107" d="M100 300H200V200H100ZM900 300H1000V200H900ZM200 400H300V300H200ZM800 400H900V300H800ZM100 900H200V800H100ZM900 900H1000V800H900ZM0 1000H100V900H0ZM200 1000H300V900H200ZM400 1000H500V900H400ZM600 1000H700V900H600ZM800 1000H900V900H800ZM1000 1000H1100V900H1000ZM500 1200H600V1000H500Z"/>
  <path fill="#f4b400" d="M600 900H800V700H900V600H1000V500H700V600H600Z"/>
  <path fill="#ffff8d" d="M400 500H500V600H800V500H700V300H600V100H500V300H400Z"/>
  <path fill="#fdd835" d="M500 200H600V100H500ZM0 600H200V700H300V900H200V1100H400V1000H500V900H600V1000H700V1100H900V900H800V800H700V700H800V600H1100V500H600V400H500V300H400V500H0ZM600 400H700V300H600ZM100 1200H200V1100H100ZM900 1200H1000V1100H900Z"/>
</svg>
