<?xml version="1.0" encoding="UTF-8"?>
<svg xmlns="http://www.w3.org/2000/svg" viewBox="0 0 1200 1200" width="1200" height="1200">
  <title>emoji_u1f439</title>
  <path fill="#5f646d" d="M0 1000H100V1100H200V1200H300V800H100V900H0ZM800 1200H900V1100H1000V1000H1100V900H1000V800H800ZM0 1200H100V1100H0ZM1000 1200H1100V1100H1000Z"/>
  <path fill="#f2a159" d="M0 400H100V500H200V600H100V900H200V1200H400V1000H500V900H600V1000H700V1200H900V900H1000V600H900V500H1000V400H1100V200H1000V100H800V200H700V400H400V200H300V100H100V200H0Z"/>
  <path fill="#ffd2b1" d="M200 1100H300V1200H800V1100H900V900H700V800H600V600H500V800H400V900H200ZM300 800H400V700H300ZM700 800H800V700H700Z"/>
  <path fill="#ffa7aa" d="M100 400H300V200H100ZM800 400H1000V200H800Z"/>
  <path fill="#fffefd" d="M400 1100H700V900H400Z"/>
  <path fill="#2e2d31" d="M300 800H400V600H300ZM700 800H800V600H700Z"/>
  <path fill="#2f302d" d="M400 1000H700V900H600V800H500V900H400Z"/>
</svg>
