<?xml version="1.0" encoding="UTF-8"?>
<svg xmlns="http://www.w3.org/2000/svg" viewBox="0 0 1200 1200" width="1200" height="1200">
  <title>emoji_u1f638</title>
  <path fill="#9e9e9e" d="M0 1000H100V1100H300V600H100V700H0V800H100V900H0ZM800 1100H1000V1000H1100V900H1000V800H1100V700H1000V600H800Z"/>
  <path fill="#ff9a32" d="M300 600H800V300H300Z"/>
  <path fill="#ffc022" d="M0 600H100V700H200V800H100V900H200V1000H100V1100H200V1200H900V1100H1000V1000H900V900H1000V800H900V700H1000V600H1100V100H900V200H800V300H700V500H600V300H500V500H400V300H300V200H200V100H0Z"/>
  <path fill="#ffd1d1" d="M100 500H200V400H300V300H200V200H100ZM800 400H900V500H1000V200H900V300H800Z"/>
  <path fill="#ffffff" d="M300 1000H400V1100H700V1000H800V900H600V800H500V900H300Z"/>
  <path fill="#000000" d="M300 600H400V500H300ZM700 600H800V500H700ZM200 700H300V600H200ZM400 700H500V600H400ZM600 700H700V600H600ZM800 700H900V600H800ZM500 900H600V800H500ZM400 1100H500V900H400ZM600 1100H700V900H600Z"/>
</svg>
