<?xml version="1.0" encoding="UTF-8"?>
<svg xmlns="http://www.w3.org/2000/svg" viewBox="0 0 1200 1200" width="1200" height="1200">
  <title>emoji_u1f51c</title>
  <path fill="#427687" d="M0 1100H100V1200H1000V1100H1100V200H1000V100H900V1000H0Z"/>
  <path fill="#8cafbf" d="M0 1100H1100V900H1000V100H100V200H0Z"/>
  <path fill="#fafafa" d="M200 500H600V700H700V600H800V500H900V400H800V300H700V200H600V400H200ZM100 400H200V300H100ZM0 1100H200V900H300V800H100V1000H0ZM400 900H500V800H400ZM600 900H700V800H600ZM700 1000H800V1100H900V900H1000V800H800V900H700ZM300 1000H400V900H300ZM500 1000H600V900H500ZM1000 1100H1100V900H1000ZM400 1100H500V1000H400ZM600 1100H700V1000H600Z"/>
  <path fill="#a0c8d6" d="M200 300H300V200H200ZM100 400H200V300H100Z"/>
</svg>
