<?xml version="1.0" encoding="UTF-8"?>
<svg xmlns="http://www.w3.org/2000/svg" viewBox="0 0 1200 1200" width="1200" height="1200">
  <title>emoji_u1f1f8_1f1fe</title>
  <path fill="#ffffff" d="M0 800H200V500H0ZM900 800H1100V500H900Z"/>
  <path fill="#000000" d="M0 1000H1100V700H0Z"/>
  <path fill="#007a3d" d="M0 600H1100V300H0Z"/>
  <path fill="#a9a9a9" d="M0 800H300V600H100V700H0ZM800 800H1100V700H1000V600H800Z"/>
  <path fill="#a9d2bd" d="M0 600H100V700H1000V600H1100V500H0Z"/>
  <path fill="#fefbfb" d="M100 700H200V800H300V500H200V600H100ZM800 800H900V700H1000V600H900V500H800Z"/>
  <path fill="#a7c7b3" d="M200 700H900V500H800V600H600V500H500V600H300V500H200Z"/>
  <path fill="#a59496" d="M200 800H400V600H200ZM700 800H900V600H700Z"/>
  <path fill="#a69a9b" d="M200 700H300V800H500V600H200ZM600 800H800V700H900V600H600Z"/>
  <path fill="#a8a6a7" d="M300 700H400V800H700V700H800V600H300Z"/>
  <path fill="#df6270" d="M200 700H400V600H200ZM700 700H900V600H700Z"/>
  <path fill="#a28a8d" d="M400 700H500V800H600V700H700V600H400Z"/>
  <path fill="#f4cace" d="M300 700H500V600H300ZM600 700H800V600H600Z"/>
  <path fill="#fbeeef" d="M400 700H700V600H400Z"/>
  <path fill="#da4e5d" d="M500 700H600V600H500Z"/>
</svg>
