<?xml version="1.0" encoding="UTF-8"?>
<svg xmlns="http://www.w3.org/2000/svg" viewBox="0 0 1200 1200" width="1200" height="1200">
  <title>emoji_u1fad2</title>
  <path fill="#87a194" d="M0 300H200V100H100V200H0ZM900 200H1100V100H900ZM200 800H500V700H400V400H600V300H500V200H400V300H200V400H300V600H200ZM600 300H700V700H900V600H800V300H900V200H600Z"/>
  <path fill="#0a763b" d="M100 300H200V400H500V200H400V100H100Z"/>
  <path fill="#a3b523" d="M100 900H300V1000H500V700H300V600H200V700H100ZM600 900H800V1000H1000V700H900V600H700V700H600Z"/>
  <path fill="#125631" d="M100 300H200V400H500V300H300V200H100Z"/>
  <path fill="#c0ca33" d="M100 1100H200V1200H400V1100H500V900H400V800H100ZM600 1100H700V1200H900V1100H1000V900H900V800H600Z"/>
</svg>
