<?xml version="1.0" encoding="UTF-8"?>
<svg xmlns="http://www.w3.org/2000/svg" viewBox="0 0 1200 1200" width="1200" height="1200">
  <title>emoji_u1f4b8</title>
  <path fill="#206022" d="M200 1000H400V500H200Z"/>
  <path fill="#bdbdbd" d="M100 400H400V500H300V600H600V500H700V400H600V200H500V100H200V200H100ZM600 1000H700V1100H800V1200H1100V1000H1000V800H700V900H600Z"/>
  <path fill="#e0e0e0" d="M200 200H300V100H200ZM400 200H500V100H400ZM100 400H300V300H200V200H100ZM300 300H400V200H300ZM500 300H600V200H500ZM400 400H500V300H400ZM300 700H600V600H700V400H500V500H300ZM500 1000H800V900H900V1000H1000V800H500ZM800 1100H900V1000H800ZM1000 1100H1100V1000H1000ZM900 1200H1000V1100H900Z"/>
  <path fill="#ffc06c" d="M400 1000H600V900H800V700H500V800H400Z"/>
  <path fill="#2e7d32" d="M600 800H700V900H1000V700H600ZM300 1000H500V900H600V800H300Z"/>
  <path fill="#66bb6a" d="M300 900H600V800H1000V400H600V500H500V600H400V500H300Z"/>
  <path fill="#ffecb3" d="M400 800H500V900H600V800H700V400H600V500H500V700H400Z"/>
  <path fill="#ffffff" d="M300 700H400V600H300ZM400 800H500V700H400ZM300 900H400V800H300Z"/>
</svg>
