<?xml version="1.0" encoding="UTF-8"?>
<svg xmlns="http://www.w3.org/2000/svg" viewBox="0 0 1200 1200" width="1200" height="1200">
  <title>emoji_u1f6bb</title>
  <path fill="#194fa5" d="M0 1100H100V1200H1000V1100H1100V200H1000V100H900V1000H0Z"/>
  <path fill="#2262dd" d="M0 1100H1000V100H100V200H0Z"/>
  <path fill="#579ae4" d="M100 400H300V200H200V300H100Z"/>
  <path fill="#d1e6f7" d="M200 400H400V200H200Z"/>
  <path fill="#ffffff" d="M200 400H400V200H300V300H200ZM700 400H900V200H700ZM100 800H200V1100H400V800H500V500H100ZM600 900H700V1100H900V900H1000V700H900V500H700V700H600Z"/>
</svg>
