<?xml version="1.0" encoding="UTF-8"?>
<svg xmlns="http://www.w3.org/2000/svg" viewBox="0 0 1200 1200" width="1200" height="1200">
  <title>emoji_u1f1f1_1f1f7</title>
  <path fill="#002868" d="M0 500H200V300H0Z"/>
  <path fill="#072e6c" d="M0 700H200V400H0Z"/>
  <path fill="#09306d" d="M0 500H300V300H100V400H0Z"/>
  <path fill="#163a75" d="M0 500H100V600H200V400H0Z"/>
  <path fill="#4e3e6f" d="M100 500H400V300H200V400H100Z"/>
  <path fill="#d6637b" d="M200 600H1100V300H300V400H200ZM0 1000H1100V700H0Z"/>
  <path fill="#c4a9bc" d="M0 800H300V500H100V600H0Z"/>
  <path fill="#e291a2" d="M0 800H1100V500H300V400H200V700H0Z"/>
  <path fill="#e7a4b2" d="M200 700H1100V600H300V500H200Z"/>
  <path fill="#173c76" d="M100 600H200V700H300V400H100Z"/>
  <path fill="#4f3e6f" d="M100 500H200V600H300V400H100Z"/>
  <path fill="#9aaac3" d="M100 500H200V400H100ZM200 600H300V500H200Z"/>
  <path fill="#534f7d" d="M200 700H300V500H200Z"/>
  <path fill="#d1a7b9" d="M200 700H300V600H200Z"/>
</svg>
