<?xml version="1.0" encoding="UTF-8"?>
<svg xmlns="http://www.w3.org/2000/svg" viewBox="0 0 1200 1200" width="1200" height="1200">
  <title>emoji_u2728</title>
  <path fill="#ffee58" d="M600 600H700V800H800V900H900V800H1100V700H900V500H800V300H700V500H600ZM0 900H100V1000H200V900H300V800H200V600H100V800H0Z"/>
  <path fill="#f4b400" d="M100 300H200V400H300V300H400V200H300V100H200V200H100ZM600 1000H700V1200H800V1000H900V700H700V900H600ZM0 900H100V1100H200V800H0Z"/>
  <path fill="#fdd835" d="M400 800H600V1000H800V800H900V700H800V500H600V700H400ZM0 900H200V800H0Z"/>
</svg>
