<?xml version="1.0" encoding="UTF-8"?>
<svg xmlns="http://www.w3.org/2000/svg" viewBox="0 0 1200 1200" width="1200" height="1200">
  <title>emoji_u1f495</title>
  <path fill="#da2e75" d="M200 600H300V700H400V600H500V500H600V400H700V200H600V100H500V300H400V400H300V500H200ZM500 700H600V600H500ZM600 1100H700V1200H800V1100H900V1000H1000V900H1100V700H1000V600H900V800H800V900H700V1000H600ZM400 800H500V700H400Z"/>
  <path fill="#ef5592" d="M0 400H100V500H200V600H400V500H500V400H600V100H500V200H400V300H300V200H200V100H100V200H0ZM400 900H500V1000H600V1100H800V1000H900V900H1000V600H800V700H700V600H500V700H400Z"/>
  <path fill="#f386ab" d="M100 300H200V200H100ZM400 300H500V200H400ZM500 800H600V700H500ZM800 800H900V700H800Z"/>
</svg>
