<?xml version="1.0" encoding="UTF-8"?>
<svg xmlns="http://www.w3.org/2000/svg" viewBox="0 0 1200 1200" width="1200" height="1200">
  <title>emoji_u1f1f0_1f1ed</title>
  <path fill="#032ea1" d="M0 500H1100V300H0ZM0 1000H1100V800H0Z"/>
  <path fill="#392382" d="M0 600H1100V400H0ZM0 900H1100V700H0Z"/>
  <path fill="#e00025" d="M0 800H400V700H500V500H0ZM600 700H700V800H1100V500H600Z"/>
  <path fill="#c7c3c4" d="M300 800H800V600H300Z"/>
  <path fill="#d71132" d="M300 700H800V600H700V500H400V600H300Z"/>
  <path fill="#c24257" d="M400 700H700V600H600V500H500V600H400Z"/>
  <path fill="#c6c2c3" d="M400 700H500V800H600V700H700V600H400Z"/>
  <path fill="#d77484" d="M600 700H700V800H800V600H600Z"/>
  <path fill="#d77485" d="M300 800H400V700H500V600H300Z"/>
  <path fill="#be9aa0" d="M300 700H800V600H300Z"/>
  <path fill="#d32441" d="M300 700H400V600H300ZM700 700H800V600H700Z"/>
  <path fill="#bab4b5" d="M500 700H600V600H500Z"/>
</svg>
