<?xml version="1.0" encoding="UTF-8"?>
<svg xmlns="http://www.w3.org/2000/svg" viewBox="0 0 1200 1200" width="1200" height="1200">
  <title>emoji_u1f1f9_1f1f3</title>
  <path fill="#e70013" d="M0 1000H1100V300H0Z"/>
  <path fill="#e80b1d" d="M300 600H800V500H700V400H400V500H300ZM300 800H400V900H700V800H800V700H300Z"/>
  <path fill="#ec3948" d="M400 600H700V500H600V400H500V500H400ZM400 800H500V900H600V800H700V700H400Z"/>
  <path fill="#e91224" d="M300 800H500V500H300ZM600 800H800V500H600Z"/>
  <path fill="#f48991" d="M300 700H400V800H600V500H400V600H300Z"/>
  <path fill="#f6a2a9" d="M400 700H500V800H700V500H500V600H400Z"/>
  <path fill="#fbd1d4" d="M500 700H600V800H700V700H800V600H700V500H600V600H500Z"/>
  <path fill="#ee4d5a" d="M300 700H500V600H300ZM600 700H800V600H600Z"/>
  <path fill="#ef5966" d="M400 700H600V600H400Z"/>
  <path fill="#f59098" d="M500 700H700V600H500Z"/>
  <path fill="#f9c2c7" d="M600 700H700V600H600Z"/>
</svg>
