<?xml version="1.0" encoding="UTF-8"?>
<svg xmlns="http://www.w3.org/2000/svg" viewBox="0 0 1200 1200" width="1200" height="1200">
  <title>emoji_u1f384</title>
  <path fill="#835d4e" d="M300 1100H400V1200H700V1100H800V1000H300Z"/>
  <path fill="#fee56b" d="M300 400H600V300H700V200H600V100H500V200H400V300H300Z"/>
  <path fill="#0a7c1f" d="M0 1100H1100V900H1000V800H800V700H1000V500H900V400H800V300H600V400H500V300H300V400H200V500H100V700H300V800H100V900H0Z"/>
  <path fill="#fcc11a" d="M400 500H700V400H800V300H700V200H500V300H400Z"/>
  <path fill="#02ab48" d="M300 400H400V500H700V400H800V300H600V400H500V300H300ZM100 1000H1000V800H600V700H800V600H1000V500H700V600H400V500H100V600H300V700H500V800H100Z"/>
  <path fill="#f9c319" d="M300 600H400V500H300ZM800 600H900V500H800ZM400 700H500V600H400ZM700 700H800V600H700ZM500 900H600V800H500ZM900 900H1000V800H900Z"/>
  <path fill="#c9c9c9" d="M700 1000H800V900H700Z"/>
  <path fill="#ff5f5d" d="M700 700H800V600H700Z"/>
  <path fill="#ff5f5e" d="M600 500H700V400H600ZM300 1000H400V900H300Z"/>
  <path fill="#ffd2b1" d="M300 600H400V500H300Z"/>
</svg>
