<?xml version="1.0" encoding="UTF-8"?>
<svg xmlns="http://www.w3.org/2000/svg" viewBox="0 0 1200 1200" width="1200" height="1200">
  <title>emoji_u1f63f</title>
  <path fill="#9e9e9e" d="M0 1100H200V900H300V600H100V800H0V900H100V1000H0ZM800 1100H1100V1000H1000V900H1100V800H1000V600H800Z"/>
  <path fill="#23aceb" d="M100 1100H200V1200H400V1000H300V800H100Z"/>
  <path fill="#ff9a32" d="M300 600H800V300H300Z"/>
  <path fill="#ffc022" d="M0 600H100V700H200V800H100V900H200V1100H300V1200H900V1100H1000V1000H900V900H1000V800H900V700H1000V600H1100V100H900V200H800V300H700V500H600V300H500V500H400V300H300V200H200V100H0Z"/>
  <path fill="#ffd1d1" d="M100 500H200V400H300V300H200V200H100ZM800 400H900V500H1000V200H900V300H800Z"/>
  <path fill="#28b3f2" d="M300 800H400V700H300ZM200 1100H500V1000H400V900H300V800H200Z"/>
  <path fill="#000000" d="M400 700H500V600H400ZM600 700H700V600H600ZM300 800H400V700H300ZM700 800H800V700H700ZM300 1000H400V900H300ZM500 1000H600V900H500ZM400 1100H500V1000H400ZM600 1100H700V1000H600Z"/>
  <path fill="#81d4fa" d="M300 1000H400V900H300Z"/>
</svg>
