<?xml version="1.0" encoding="UTF-8"?>
<svg xmlns="http://www.w3.org/2000/svg" viewBox="0 0 1200 1200" width="1200" height="1200">
  <title>emoji_u1f1f2_1f1fc</title>
  <path fill="#040001" d="M200 500H500V300H200ZM600 500H900V300H600Z"/>
  <path fill="#3e050b" d="M300 500H800V400H700V300H400V400H300Z"/>
  <path fill="#48060d" d="M400 500H700V400H600V300H500V400H400Z"/>
  <path fill="#000000" d="M0 600H400V400H300V300H0ZM700 600H1100V300H800V400H700Z"/>
  <path fill="#339e35" d="M0 1000H1100V700H0Z"/>
  <path fill="#880b19" d="M0 700H400V400H300V500H0ZM700 700H1100V500H800V400H700Z"/>
  <path fill="#99412b" d="M0 800H1100V600H0Z"/>
  <path fill="#ce1126" d="M0 700H1100V600H800V500H300V600H0Z"/>
  <path fill="#49060d" d="M300 600H500V400H300ZM600 600H800V400H600Z"/>
  <path fill="#710915" d="M300 600H800V500H700V400H400V500H300Z"/>
  <path fill="#a80e1f" d="M300 600H800V500H600V400H500V500H300Z"/>
  <path fill="#950c1c" d="M700 600H800V500H700Z"/>
  <path fill="#960c1c" d="M300 600H400V500H300Z"/>
  <path fill="#aa0e1f" d="M500 600H600V500H500Z"/>
</svg>
