<?xml version="1.0" encoding="UTF-8"?>
<svg xmlns="http://www.w3.org/2000/svg" viewBox="0 0 1200 1200" width="1200" height="1200">
  <title>emoji_u1f912</title>
  <path fill="#eb8f00" d="M0 1000H100V1100H200V1200H900V1100H1000V1000H1100V300H1000V200H900V100H200V200H100V300H0Z"/>
  <path fill="#e6e6e6" d="M600 900H700V1000H1000V700H1100V500H1000V400H800V500H700V600H600Z"/>
  <path fill="#ff0000" d="M800 600H900V500H800ZM700 700H800V600H700ZM900 700H1000V600H900ZM600 1000H900V900H800V800H700V700H600ZM800 800H900V700H800ZM900 900H1000V800H900Z"/>
  <path fill="#fde030" d="M100 1000H200V1100H900V1000H1000V800H900V900H700V700H800V600H900V500H1000V300H900V200H200V300H100Z"/>
  <path fill="#422b0d" d="M300 300H400V200H300ZM700 300H800V200H700ZM200 400H300V300H200ZM800 400H900V300H800ZM300 600H400V400H300ZM700 600H800V400H700ZM400 900H700V800H400ZM300 1000H400V900H300ZM700 1000H800V900H700Z"/>
</svg>
