<?xml version="1.0" encoding="UTF-8"?>
<svg xmlns="http://www.w3.org/2000/svg" viewBox="0 0 1200 1200" width="1200" height="1200">
  <title>emoji_u1f1e8_1f1f2</title>
  <path fill="#007a5e" d="M0 1000H400V300H0Z"/>
  <path fill="#fcd116" d="M700 1000H1100V300H700Z"/>
  <path fill="#ce1126" d="M300 1000H800V300H300Z"/>
  <path fill="#44584c" d="M300 1000H400V800H500V600H400V300H300Z"/>
  <path fill="#ed921b" d="M600 800H700V1000H800V300H700V600H600Z"/>
  <path fill="#ce1226" d="M400 800H700V600H400Z"/>
  <path fill="#d11c25" d="M400 700H500V800H600V700H700V600H400Z"/>
  <path fill="#d11d25" d="M400 700H700V600H600V500H500V600H400Z"/>
  <path fill="#f1a21a" d="M500 700H600V600H500Z"/>
</svg>
