<?xml version="1.0" encoding="UTF-8"?>
<svg xmlns="http://www.w3.org/2000/svg" viewBox="0 0 1200 1200" width="1200" height="1200">
  <title>emoji_u1f4d1</title>
  <path fill="#01579b" d="M900 1100H1000V1000H1100V900H1000V800H900Z"/>
  <path fill="#7cb342" d="M900 900H1000V800H1100V700H1000V600H900Z"/>
  <path fill="#c62828" d="M900 500H1000V400H1100V300H1000V200H900Z"/>
  <path fill="#f3ab47" d="M900 700H1000V600H1100V500H1000V400H900Z"/>
  <path fill="#5b97bc" d="M700 400H1000V200H800V100H700ZM100 1000H200V1200H400V900H100Z"/>
  <path fill="#6fbff0" d="M0 1000H300V1100H200V1200H1000V200H900V300H800V100H0Z"/>
  <path fill="#c7c7c7" d="M300 1100H900V1000H1000V900H900V800H1000V700H900V600H1000V500H900V400H1000V300H700V400H800V700H700V800H800V1000H300Z"/>
  <path fill="#0091ea" d="M800 1000H1000V900H800Z"/>
  <path fill="#ffd54f" d="M800 600H1000V500H800Z"/>
  <path fill="#f44336" d="M600 500H700V400H1000V300H700V200H600Z"/>
  <path fill="#9ccc65" d="M600 900H700V800H1000V700H700V600H600Z"/>
  <path fill="#ffffff" d="M100 900H700V200H100Z"/>
  <path fill="#0875b8" d="M800 1000H900V900H800Z"/>
  <path fill="#c7a843" d="M800 600H900V500H800Z"/>
  <path fill="#b0bec5" d="M200 400H600V300H200ZM200 600H600V500H200ZM200 800H500V700H200Z"/>
</svg>
