<?xml version="1.0" encoding="UTF-8"?>
<svg xmlns="http://www.w3.org/2000/svg" viewBox="0 0 1200 1200" width="1200" height="1200">
  <title>emoji_u1f50e</title>
  <path fill="#424242" d="M0 1100H100V1200H200V1100H300V1000H200V900H100V1000H0Z"/>
  <path fill="#616161" d="M100 1100H300V1000H400V900H500V800H600V900H900V800H1000V700H1100V500H900V600H800V700H700V600H600V500H400V700H300V800H200V900H100Z"/>
  <path fill="#e4e4e4" d="M800 400H900V500H1100V300H1000V200H900V100H800ZM400 600H500V700H600V800H700V500H600V400H400ZM400 800H500V700H400Z"/>
  <path fill="#bdbdbd" d="M400 500H500V600H600V400H700V300H900V100H600V200H500V300H400ZM600 800H900V700H1000V600H1100V400H1000V300H900V500H800V600H600ZM300 800H400V900H500V700H300Z"/>
  <path fill="#e5f6ff" d="M500 600H600V700H800V500H1000V300H900V200H600V400H500Z"/>
  <path fill="#b4e6fc" d="M500 500H600V600H700V700H900V600H1000V300H900V400H800V300H700V200H600V300H500ZM800 300H900V200H800Z"/>
</svg>
