<?xml version="1.0" encoding="UTF-8"?>
<svg xmlns="http://www.w3.org/2000/svg" viewBox="0 0 1200 1200" width="1200" height="1200">
  <title>emoji_u1f980</title>
  <path fill="#322d2e" d="M400 500H500V300H400ZM600 500H700V300H600Z"/>
  <path fill="#fa1c1f" d="M0 400H100V500H200V400H300V300H0ZM800 400H900V500H1000V400H1100V300H800ZM200 600H300V500H200ZM800 600H900V500H800Z"/>
  <path fill="#ff9003" d="M0 400H200V100H100V200H0ZM800 400H1100V200H1000V100H800ZM200 900H500V800H600V600H800V500H700V400H600V500H500V400H400V500H300V600H200Z"/>
  <path fill="#a32916" d="M100 900H200V1000H300V1100H500V900H400V800H300V700H400V600H500V500H200V600H100V700H200V800H100ZM600 1100H800V1000H900V900H1000V800H900V700H1000V600H900V500H600V700H700V900H600ZM100 1100H200V1000H100ZM900 1100H1000V1000H900Z"/>
  <path fill="#ff5f00" d="M100 400H300V100H100ZM800 200H900V300H1000V400H1100V200H1000V100H800ZM800 400H900V300H800ZM200 600H300V500H200ZM300 1000H400V1100H700V1000H800V600H700V500H400V600H500V700H400V800H300ZM800 600H900V500H800ZM100 700H200V600H100ZM300 700H400V600H300ZM900 700H1000V600H900ZM0 800H100V700H0ZM1000 800H1100V700H1000ZM100 900H200V800H100ZM900 900H1000V800H900ZM0 1000H100V900H0ZM1000 1000H1100V900H1000ZM100 1100H200V1000H100ZM900 1100H1000V1000H900ZM0 1200H100V1100H0ZM1000 1200H1100V1100H1000Z"/>
  <path fill="#a62616" d="M100 300H200V200H100ZM900 300H1000V200H900Z"/>
</svg>
