<?xml version="1.0" encoding="UTF-8"?>
<svg xmlns="http://www.w3.org/2000/svg" viewBox="0 0 1200 1200" width="1200" height="1200">
  <title>emoji_u2049</title>
  <path fill="#cc3333" d="M100 800H300V100H100ZM500 400H700V200H800V300H900V400H800V500H700V800H900V600H1000V500H1100V200H1000V100H500ZM100 1100H300V900H100ZM700 1100H900V900H700Z"/>
  <path fill="#f44336" d="M0 800H200V100H0ZM400 400H600V200H800V500H700V600H600V800H800V600H900V500H1000V200H900V100H500V200H400ZM0 1100H200V900H0ZM600 1100H800V900H600Z"/>
</svg>
