<?xml version="1.0" encoding="UTF-8"?>
<svg xmlns="http://www.w3.org/2000/svg" viewBox="0 0 1200 1200" width="1200" height="1200">
  <title>emoji_u1fab6</title>
  <path fill="#c4c1c1" d="M300 1000H400V900H300ZM200 1200H300V1000H200Z"/>
  <path fill="#b2abaa" d="M300 1000H400V900H500V700H300Z"/>
  <path fill="#e0ba8c" d="M300 800H400V900H600V800H700V700H500V500H400V600H300Z"/>
  <path fill="#cc9c6a" d="M400 700H500V800H700V700H800V600H600V400H400Z"/>
  <path fill="#f6d9b2" d="M300 800H400V900H500V800H600V700H500V600H400V700H300Z"/>
  <path fill="#b47a42" d="M400 500H600V600H700V700H800V600H900V500H1000V100H700V200H600V300H500V400H400Z"/>
  <path fill="#c4925d" d="M400 500H500V800H600V700H800V500H700V400H400Z"/>
  <path fill="#bc864f" d="M500 600H600V500H700V400H500ZM700 600H800V500H700Z"/>
  <path fill="#d9af80" d="M400 800H600V500H500V600H400Z"/>
  <path fill="#897873" d="M500 700H600V600H500ZM400 800H500V700H400Z"/>
  <path fill="#6f5650" d="M600 500H700V400H600ZM500 700H600V500H500Z"/>
  <path fill="#573830" d="M800 300H900V200H800ZM700 400H800V300H700ZM600 500H700V400H600Z"/>
</svg>
