<?xml version="1.0" encoding="UTF-8"?>
<svg xmlns="http://www.w3.org/2000/svg" viewBox="0 0 1200 1200" width="1200" height="1200">
  <title>emoji_u1f333</title>
  <path fill="#865b50" d="M300 1200H800V1100H700V900H800V800H400V1100H300Z"/>
  <path fill="#5b9821" d="M0 700H100V800H200V900H400V1000H500V900H800V800H1000V700H1100V300H1000V200H900V300H700V400H600V200H500V100H400V200H200V300H100V400H0Z"/>
  <path fill="#6d4b41" d="M100 600H300V500H400V400H100ZM700 500H800V400H700ZM800 600H1000V400H900V500H800ZM400 600H500V500H400ZM600 600H700V500H600ZM300 700H400V600H300ZM700 700H800V600H700ZM400 1000H500V900H800V800H700V700H600V800H500V700H400ZM800 800H900V700H800Z"/>
  <path fill="#8bc02b" d="M100 600H200V500H400V600H700V500H800V400H900V600H1000V200H800V100H400V300H500V400H400V300H200V400H100Z"/>
</svg>
