<?xml version="1.0" encoding="UTF-8"?>
<svg xmlns="http://www.w3.org/2000/svg" viewBox="0 0 1200 1200" width="1200" height="1200">
  <title>emoji_u2604</title>
  <path fill="#62cbec" d="M0 1000H100V1100H200V1200H600V1100H700V1000H800V800H900V600H1000V500H1100V400H1000V300H1100V200H1000V100H700V200H600V300H500V200H400V300H300V400H200V500H100V600H0Z"/>
  <path fill="#79a7f3" d="M100 1000H200V1100H600V1000H700V800H800V600H900V500H1000V400H900V300H1000V200H700V300H600V400H500V300H400V400H300V500H200V600H100Z"/>
  <path fill="#e0f7fa" d="M200 1000H500V800H400V700H200ZM500 800H600V700H500Z"/>
  <path fill="#ffffff" d="M700 500H800V400H700ZM400 600H500V500H400ZM600 600H700V500H600ZM500 800H600V700H500Z"/>
</svg>
