<?xml version="1.0" encoding="UTF-8"?>
<svg xmlns="http://www.w3.org/2000/svg" viewBox="0 0 1200 1200" width="1200" height="1200">
  <title>emoji_u1f523</title>
  <path fill="#427687" d="M0 1100H100V1200H1000V1100H1100V200H1000V100H900V1000H0Z"/>
  <path fill="#8cafbf" d="M0 1100H1000V100H100V200H0Z"/>
  <path fill="#a0c8d6" d="M200 300H300V200H200ZM100 400H200V300H100ZM200 500H300V400H200Z"/>
  <path fill="#fafafa" d="M200 300H500V200H200ZM600 600H800V300H900V200H700V400H600ZM200 500H300V600H400V500H500V400H200ZM200 800H300V700H200ZM400 800H500V700H400ZM800 800H900V700H800ZM300 1000H400V800H300ZM700 1000H800V800H700ZM200 1100H300V1000H200ZM400 1100H500V1000H400ZM600 1100H700V1000H600Z"/>
</svg>
