<?xml version="1.0" encoding="UTF-8"?>
<svg xmlns="http://www.w3.org/2000/svg" viewBox="0 0 1200 1200" width="1200" height="1200">
  <title>emoji_u1f5c3</title>
  <path fill="#7cb342" d="M600 300H1100V200H1000V100H700V200H600Z"/>
  <path fill="#f3ab47" d="M0 400H1100V200H0Z"/>
  <path fill="#37474f" d="M0 1200H1100V600H0Z"/>
  <path fill="#82aec0" d="M0 700H1100V200H1000V300H900V500H200V300H100V200H0Z"/>
  <path fill="#0288d1" d="M300 500H800V300H300Z"/>
  <path fill="#e38142" d="M100 500H500V400H400V300H100ZM600 500H1000V300H700V400H600Z"/>
  <path fill="#f44336" d="M100 600H500V400H100Z"/>
  <path fill="#9e9e9e" d="M300 1100H800V800H300Z"/>
  <path fill="#ffca28" d="M300 600H1000V400H400V500H300Z"/>
  <path fill="#ffe36c" d="M100 600H1000V500H100Z"/>
  <path fill="#fafafa" d="M400 1000H700V900H500V800H400Z"/>
  <path fill="#c9e3e6" d="M400 900H500V800H400Z"/>
</svg>
