<?xml version="1.0" encoding="UTF-8"?>
<svg xmlns="http://www.w3.org/2000/svg" viewBox="0 0 1200 1200" width="1200" height="1200">
  <title>emoji_u1f937_1f3fe_200d_2640</title>
  <path fill="#63351e" d="M0 800H200V600H0ZM900 800H1100V600H900Z"/>
  <path fill="#62453b" d="M100 900H400V500H500V400H600V500H700V900H1000V600H900V200H800V100H300V200H200V600H100Z"/>
  <path fill="#583ee2" d="M0 1000H100V1100H200V1200H900V1100H1000V1000H1100V700H900V800H800V700H300V800H200V700H0Z"/>
  <path fill="#875334" d="M0 800H200V600H100V700H0ZM400 800H500V900H600V800H700V600H400ZM900 800H1100V700H1000V600H900ZM200 900H300V800H200ZM800 900H900V800H800Z"/>
  <path fill="#a56c43" d="M300 800H500V700H600V800H800V400H700V300H400V400H300ZM100 700H200V600H100ZM900 700H1000V600H900Z"/>
  <path fill="#4b0fce" d="M200 1000H300V1100H400V800H500V700H300V800H200ZM600 800H700V1100H800V1000H900V800H800V700H600ZM500 900H600V800H500Z"/>
  <path fill="#42312c" d="M400 600H500V400H400ZM600 600H700V400H600Z"/>
</svg>
