<?xml version="1.0" encoding="UTF-8"?>
<svg xmlns="http://www.w3.org/2000/svg" viewBox="0 0 1200 1200" width="1200" height="1200">
  <title>emoji_u1f6c1</title>
  <path fill="#bdbdbd" d="M800 400H900V300H800ZM700 500H800V400H700ZM800 800H1100V700H1000V400H900V700H800ZM100 1000H200V1200H300V1100H400V900H100ZM700 1100H800V1200H900V1000H1000V900H700Z"/>
  <path fill="#78909c" d="M700 500H800V400H700ZM600 600H700V500H600Z"/>
  <path fill="#b7d5e5" d="M0 700H100V1000H300V1100H800V1000H1000V800H1100V700H800V600H700V700H600V600H400V500H200V600H0Z"/>
  <path fill="#ffffff" d="M100 200H200V100H100ZM0 300H100V200H0ZM100 400H200V300H100ZM100 800H200V1000H400V800H700V700H600V600H500V700H300V600H400V500H200V600H100ZM600 600H700V500H600Z"/>
  <path fill="#80deea" d="M100 200H200V100H100ZM700 200H800V100H700ZM200 300H300V200H200ZM100 400H200V300H100ZM500 400H600V300H500ZM200 600H400V500H200ZM600 600H700V500H600ZM700 700H800V600H700ZM500 900H800V800H700V700H500Z"/>
  <path fill="#69a1ba" d="M100 800H300V900H700V800H600V700H100Z"/>
  <path fill="#eeeeee" d="M300 1000H900V800H300Z"/>
</svg>
