<?xml version="1.0" encoding="UTF-8"?>
<svg xmlns="http://www.w3.org/2000/svg" viewBox="0 0 1200 1200" width="1200" height="1200">
  <title>emoji_u1f978</title>
  <path fill="#eb8f00" d="M0 1000H100V1100H200V1200H900V1100H1000V1000H1100V300H1000V200H900V100H200V200H100V300H0Z"/>
  <path fill="#212121" d="M0 500H100V800H200V1100H900V800H1000V500H1100V400H1000V300H900V200H600V300H500V200H200V300H100V400H0Z"/>
  <path fill="#fde030" d="M200 300H400V400H700V300H900V200H200ZM100 400H200V300H100ZM900 400H1000V300H900ZM200 600H400V400H200ZM700 600H900V400H700ZM100 1000H200V1100H400V1000H300V900H500V800H600V900H800V1000H700V1100H900V1000H1000V600H900V700H700V600H600V500H500V600H400V700H200V600H100Z"/>
  <path fill="#4fc3f7" d="M200 600H400V400H200ZM700 600H900V400H700Z"/>
  <path fill="#e1f5fe" d="M200 500H300V400H200ZM700 500H800V400H700ZM300 600H400V500H300ZM800 600H900V500H800Z"/>
  <path fill="#f7c02b" d="M400 900H500V1000H600V900H700V700H600V600H500V700H400Z"/>
</svg>
