<?xml version="1.0" encoding="UTF-8"?>
<svg xmlns="http://www.w3.org/2000/svg" viewBox="0 0 1200 1200" width="1200" height="1200">
  <title>emoji_u26a0</title>
  <path fill="#f2a600" d="M400 300H500V500H600V700H700V900H800V1100H900V1200H1100V1000H1000V800H900V600H800V400H700V200H600V100H500V200H400Z"/>
  <path fill="#fff170" d="M100 900H400V700H500V500H600V200H400V400H300V600H200V800H100Z"/>
  <path fill="#ffcc32" d="M0 1200H1000V1000H900V800H800V600H700V400H600V200H400V300H500V400H400V600H200V700H300V800H100V1000H0Z"/>
  <path fill="#373737" d="M500 800H600V500H500ZM500 1000H600V900H500Z"/>
</svg>
