<?xml version="1.0" encoding="UTF-8"?>
<svg xmlns="http://www.w3.org/2000/svg" viewBox="0 0 1200 1200" width="1200" height="1200">
  <title>emoji_u1f1e6_1f1fc</title>
  <path fill="#538edb" d="M0 600H200V300H0Z"/>
  <path fill="#568ed9" d="M0 400H100V500H300V300H0Z"/>
  <path fill="#92ab85" d="M0 1000H1100V700H0Z"/>
  <path fill="#4189dd" d="M0 400H100V300H0ZM0 800H1100V300H200V400H100V500H0ZM0 1000H1100V900H0Z"/>
  <path fill="#7fa39a" d="M0 800H1100V700H0Z"/>
  <path fill="#5e8dd5" d="M100 600H200V500H300V400H100Z"/>
  <path fill="#658bd1" d="M100 500H300V400H100Z"/>
  <path fill="#b35883" d="M100 500H200V400H100Z"/>
</svg>
