<?xml version="1.0" encoding="UTF-8"?>
<svg xmlns="http://www.w3.org/2000/svg" viewBox="0 0 1200 1200" width="1200" height="1200">
  <title>emoji_u1f9fa</title>
  <path fill="#ffcc80" d="M300 200H800V100H300ZM0 600H1100V400H900V200H800V400H300V200H200V400H0Z"/>
  <path fill="#ffd58a" d="M100 1000H200V1200H900V1000H1000V700H100Z"/>
  <path fill="#ffba5f" d="M0 700H100V800H300V900H100V1000H300V1100H200V1200H900V1100H800V1000H1000V900H800V800H1000V700H1100V600H0ZM400 900V800H500V900ZM600 900V800H700V900ZM400 1100V1000H500V1100ZM600 1100V1000H700V1100Z"/>
  <path fill="#894f36" d="M0 700H200V800H300V700H400V800H500V700H600V800H700V700H800V800H900V700H1100V500H0ZM300 900H400V800H300ZM500 900H600V800H500ZM700 900H800V800H700ZM200 1000H300V900H200ZM400 1000H500V900H400ZM600 1000H700V900H600ZM800 1000H900V900H800ZM300 1100H400V1000H300ZM500 1100H600V1000H500ZM700 1100H800V1000H700ZM200 1200H300V1100H200ZM400 1200H500V1100H400ZM600 1200H700V1100H600ZM800 1200H900V1100H800Z"/>
  <path fill="#f7a54b" d="M0 600H200V500H0ZM300 600H800V500H300ZM900 600H1100V500H900Z"/>
</svg>
