<?xml version="1.0" encoding="UTF-8"?>
<svg xmlns="http://www.w3.org/2000/svg" viewBox="0 0 1200 1200" width="1200" height="1200">
  <title>emoji_u1f9a5</title>
  <path fill="#727f39" d="M0 300H300V400H600V200H300V100H100V200H0ZM700 400H1000V300H1100V200H1000V100H900V200H700Z"/>
  <path fill="#f8eac0" d="M100 200H200V300H300V400H400V200H300V100H100ZM800 400H1000V100H900V300H800Z"/>
  <path fill="#cdac93" d="M200 1200H900V900H200Z"/>
  <path fill="#855c54" d="M200 200H300V100H200ZM200 500H300V1000H600V500H700V600H800V800H1100V700H1000V300H800V200H700V100H600V200H500V300H400V200H300V400H200ZM900 200H1000V100H900Z"/>
  <path fill="#ae9580" d="M0 1000H100V1100H200V1200H300V1000H400V1200H500V1000H600V1200H700V1000H800V1200H900V1100H1000V1000H1100V700H900V300H800V200H700V700H600V200H500V700H200V600H400V400H100V500H0ZM400 900V800H500V900Z"/>
  <path fill="#5c6268" d="M0 800H200V600H100V700H0ZM300 800H500V700H400V600H300Z"/>
  <path fill="#feeac7" d="M100 800H400V500H100Z"/>
  <path fill="#010605" d="M100 700H200V600H100ZM300 700H400V600H300Z"/>
</svg>
