<?xml version="1.0" encoding="UTF-8"?>
<svg xmlns="http://www.w3.org/2000/svg" viewBox="0 0 1200 1200" width="1200" height="1200">
  <title>emoji_u1f3e7</title>
  <path fill="#194fa5" d="M900 500H1100V200H1000V100H900ZM0 1100H100V1200H1000V1100H1100V900H900V1000H0Z"/>
  <path fill="#092c56" d="M900 700H1100V400H1000V300H900ZM900 1100H1000V1000H1100V800H900Z"/>
  <path fill="#2262dd" d="M0 500H1000V100H100V200H0ZM0 1100H1000V900H0Z"/>
  <path fill="#fafafa" d="M0 1000H1000V900H1100V600H1000V400H0Z"/>
  <path fill="#0a3880" d="M0 600H100V500H200V600H300V500H600V600H700V500H800V600H900V500H1000V400H200V300H100V400H0ZM100 700H200V600H100ZM0 1000H1000V600H900V900H800V600H700V900H600V600H500V900H400V600H300V900H200V800H100V900H0Z"/>
  <path fill="#6591e7" d="M200 300H300V200H200ZM100 400H200V300H100Z"/>
</svg>
