<?xml version="1.0" encoding="UTF-8"?>
<svg xmlns="http://www.w3.org/2000/svg" viewBox="0 0 1200 1200" width="1200" height="1200">
  <title>emoji_u1f46f_200d_2642</title>
  <path fill="#ff4081" d="M100 400H400V100H300V300H200V100H100ZM700 400H1000V100H900V300H800V100H700Z"/>
  <path fill="#373737" d="M100 500H400V300H100ZM700 500H1000V300H700Z"/>
  <path fill="#543930" d="M100 600H400V400H100ZM700 600H1000V400H700Z"/>
  <path fill="#e59600" d="M100 800H400V700H300V600H400V500H100V600H200V700H100ZM700 800H1000V700H900V600H1000V500H700V600H800V700H700Z"/>
  <path fill="#ffca28" d="M100 600H400V500H300V400H200V500H100ZM700 600H1000V500H900V400H800V500H700ZM100 800H200V700H100ZM300 800H500V700H300ZM700 800H800V700H700ZM900 800H1100V700H900ZM0 900H100V800H0ZM200 1000H400V900H300V800H200ZM600 900H700V800H600ZM800 1000H1000V900H900V800H800ZM100 1200H200V1000H100ZM400 1200H500V1000H400ZM700 1200H800V1000H700ZM1000 1200H1100V1000H1000Z"/>
  <path fill="#444444" d="M100 800H200V1000H300V800H400V700H100ZM700 800H800V1000H900V800H1000V700H700Z"/>
</svg>
