<?xml version="1.0" encoding="UTF-8"?>
<svg xmlns="http://www.w3.org/2000/svg" viewBox="0 0 1200 1200" width="1200" height="1200">
  <title>emoji_u1f463</title>
  <path fill="#176bc6" d="M100 200H200V100H100ZM300 200H400V100H300ZM500 300H600V100H500ZM0 300H100V200H0ZM100 700H200V900H300V1000H400V900H500V700H400V500H500V400H400V300H200V400H100ZM700 400H800V300H700ZM900 400H1000V300H900ZM600 500H700V400H600ZM1000 500H1100V400H1000ZM700 1100H800V1200H900V1100H1000V900H1100V600H1000V500H800V600H700V700H800V900H700Z"/>
</svg>
