<?xml version="1.0" encoding="UTF-8"?>
<svg xmlns="http://www.w3.org/2000/svg" viewBox="0 0 1200 1200" width="1200" height="1200">
  <title>emoji_u1f1f9_1f1ff</title>
  <path fill="#040300" d="M800 500H1100V300H800ZM0 1000H300V800H0Z"/>
  <path fill="#03a3db" d="M300 1000H600V800H300Z"/>
  <path fill="#13a6ce" d="M900 700H1100V400H900Z"/>
  <path fill="#21b53a" d="M500 500H800V300H500Z"/>
  <path fill="#2eb737" d="M0 900H200V600H0Z"/>
  <path fill="#64ae85" d="M200 1000H400V900H500V800H200Z"/>
  <path fill="#665c13" d="M100 900H200V1000H300V900H400V800H100Z"/>
  <path fill="#685d0c" d="M700 500H1000V400H900V300H700Z"/>
  <path fill="#726d1d" d="M900 600H1000V500H1100V300H1000V400H900Z"/>
  <path fill="#756e0f" d="M0 1000H100V900H200V700H100V800H0Z"/>
  <path fill="#75b829" d="M600 500H900V400H800V300H700V400H600Z"/>
  <path fill="#00a3dd" d="M400 900H500V1000H1100V600H1000V500H800V600H700V700H500V800H400Z"/>
  <path fill="#1eb53a" d="M0 700H100V800H300V700H400V600H600V500H700V400H600V300H0Z"/>
  <path fill="#000000" d="M1000 400H1100V300H1000ZM100 900H600V800H700V700H900V600H1000V400H500V500H400V600H200V700H100ZM0 1000H100V900H0Z"/>
  <path fill="#090801" d="M800 600H1000V400H900V500H800ZM100 900H200V800H300V700H100Z"/>
  <path fill="#211b03" d="M600 500H800V400H600ZM800 600H900V500H800ZM200 800H300V700H200ZM300 900H500V800H300Z"/>
  <path fill="#2eabb9" d="M400 900H600V800H700V700H500V800H400Z"/>
  <path fill="#46ba33" d="M400 600H600V500H700V400H500V500H400Z"/>
  <path fill="#7ba35d" d="M800 700H900V600H1000V500H800Z"/>
  <path fill="#828e3a" d="M500 800H600V700H500ZM400 900H500V800H400Z"/>
  <path fill="#86aa20" d="M100 800H300V600H200V700H100Z"/>
  <path fill="#889118" d="M600 500H700V400H600ZM500 600H600V500H500Z"/>
  <path fill="#433806" d="M700 700H900V500H800V600H700ZM200 800H300V700H400V600H200Z"/>
  <path fill="#08a4d7" d="M600 800H800V700H900V600H600Z"/>
  <path fill="#25b639" d="M200 700H500V500H300V600H200Z"/>
  <path fill="#41afa9" d="M700 700H900V600H700Z"/>
  <path fill="#574b0c" d="M400 700H500V600H400ZM500 800H700V600H600V700H500Z"/>
  <path fill="#57bc31" d="M200 700H400V600H200Z"/>
  <path fill="#584c09" d="M400 700H500V600H600V500H400ZM600 700H700V600H600Z"/>
  <path fill="#70ab73" d="M600 800H700V700H800V600H600Z"/>
  <path fill="#7eb325" d="M300 700H500V500H400V600H300Z"/>
  <path fill="#141102" d="M300 700H500V600H300ZM600 700H800V600H600Z"/>
  <path fill="#7b7e2b" d="M700 700H800V600H700Z"/>
  <path fill="#7f8113" d="M300 700H400V600H300Z"/>
</svg>
