<?xml version="1.0" encoding="UTF-8"?>
<svg xmlns="http://www.w3.org/2000/svg" viewBox="0 0 1200 1200" width="1200" height="1200">
  <title>emoji_u2620</title>
  <path fill="#8abfd1" d="M0 300H100V400H200V500H400V400H500V300H400V200H300V100H100V200H0ZM600 400H700V500H900V400H1000V300H1100V200H1000V100H800V200H700V300H600ZM0 1100H100V1200H200V1100H300V1000H400V1100H500V1000H600V1100H700V1000H800V1100H900V1200H1000V1100H1100V900H1000V800H900V700H700V800H400V700H200V800H100V900H0Z"/>
  <path fill="#c8dee9" d="M100 400H200V300H300V100H100ZM800 300H900V400H1000V100H800ZM300 400H400V300H300ZM700 400H800V300H700ZM200 500H300V400H200ZM800 500H900V400H800ZM0 1100H200V900H0ZM900 1100H1100V900H900Z"/>
  <path fill="#e1e7ea" d="M200 800H300V900H400V1000H500V900H600V1000H700V900H800V800H900V400H800V300H300V400H200Z"/>
  <path fill="#424242" d="M300 700H500V500H300ZM600 700H800V500H600ZM500 900H600V800H500Z"/>
</svg>
