<?xml version="1.0" encoding="UTF-8"?>
<svg xmlns="http://www.w3.org/2000/svg" viewBox="0 0 1200 1200" width="1200" height="1200">
  <title>emoji_u1f1f8_1f1fb</title>
  <path fill="#0f47af" d="M0 600H1100V300H0ZM0 1000H1100V700H0Z"/>
  <path fill="#aec1e4" d="M0 800H500V500H0ZM600 800H1100V500H600Z"/>
  <path fill="#ffffff" d="M0 700H400V800H500V500H400V600H0ZM600 800H700V700H1100V600H700V500H600Z"/>
  <path fill="#7b97ae" d="M400 800H700V600H400Z"/>
  <path fill="#aabad2" d="M400 700H700V500H400Z"/>
  <path fill="#acbedc" d="M400 800H500V700H600V600H400Z"/>
  <path fill="#adbfdd" d="M500 700H600V800H700V600H500Z"/>
  <path fill="#aec0e0" d="M400 700H600V600H500V500H400Z"/>
  <path fill="#aec0e1" d="M500 700H700V500H600V600H500Z"/>
  <path fill="#a2aa98" d="M400 700H700V600H400Z"/>
  <path fill="#dfe3d8" d="M400 700H500V600H400Z"/>
  <path fill="#e2e5d8" d="M600 700H700V600H600Z"/>
</svg>
