<?xml version="1.0" encoding="UTF-8"?>
<svg xmlns="http://www.w3.org/2000/svg" viewBox="0 0 1200 1200" width="1200" height="1200">
  <title>emoji_u1f1ed_1f1f0</title>
  <path fill="#de2910" d="M0 1000H1100V300H0Z"/>
  <path fill="#de2a11" d="M300 600H600V400H400V500H300ZM400 900H700V700H400Z"/>
  <path fill="#e13b24" d="M300 800H400V900H500V800H600V700H300Z"/>
  <path fill="#e13e27" d="M500 800H600V900H700V700H500Z"/>
  <path fill="#e96f5f" d="M400 600H700V500H600V400H500V500H400Z"/>
  <path fill="#de2b12" d="M300 800H500V600H300Z"/>
  <path fill="#e24631" d="M600 700H800V500H600Z"/>
  <path fill="#e34d38" d="M300 700H500V500H300Z"/>
  <path fill="#ea7464" d="M300 700H600V500H400V600H300Z"/>
  <path fill="#ec8677" d="M500 700H800V600H700V500H500Z"/>
  <path fill="#f3afa5" d="M400 800H700V600H400Z"/>
  <path fill="#f3b3aa" d="M300 700H400V800H500V700H600V600H300Z"/>
  <path fill="#f7cdc7" d="M400 700H700V600H600V500H500V600H400Z"/>
  <path fill="#f7cec8" d="M500 700H600V800H700V700H800V600H500Z"/>
  <path fill="#e44e39" d="M600 700H800V600H600Z"/>
  <path fill="#e55440" d="M300 700H500V600H300Z"/>
  <path fill="#eb7b6b" d="M400 700H700V600H400Z"/>
  <path fill="#f4b6ad" d="M600 700H700V600H600Z"/>
  <path fill="#f6c1ba" d="M400 700H500V600H400Z"/>
</svg>
