<?xml version="1.0" encoding="UTF-8"?>
<svg xmlns="http://www.w3.org/2000/svg" viewBox="0 0 1200 1200" width="1200" height="1200">
  <title>emoji_u1f4eb</title>
  <path fill="#c87d5e" d="M400 1200H700V1000H400Z"/>
  <path fill="#874d36" d="M300 900H400V1100H700V900H800V800H300Z"/>
  <path fill="#1976d2" d="M300 400H400V500H500V900H1100V400H1000V300H900V200H800V100H700V200H300Z"/>
  <path fill="#f44336" d="M600 500H900V100H700V400H600Z"/>
  <path fill="#4fc3f7" d="M0 900H600V600H700V400H500V300H400V200H200V300H100V400H0Z"/>
  <path fill="#0d47a1" d="M600 600H700V700H900V200H800V400H700V500H600Z"/>
  <path fill="#4e342e" d="M100 800H300V600H500V400H400V300H200V400H100Z"/>
  <path fill="#6fbff0" d="M100 700H200V800H500V500H100Z"/>
  <path fill="#ffffff" d="M600 600H800V400H600ZM200 600H400V500H200ZM100 700H200V600H100ZM300 800H500V600H400V700H300Z"/>
  <path fill="#e0e0e0" d="M600 600H800V400H700V500H600Z"/>
</svg>
