<?xml version="1.0" encoding="UTF-8"?>
<svg xmlns="http://www.w3.org/2000/svg" viewBox="0 0 1200 1200" width="1200" height="1200">
  <title>emoji_u1f5fb</title>
  <path fill="#bdccd1" d="M0 1100H100V1200H1000V1100H1100V900H900V1000H200V900H0Z"/>
  <path fill="#8cc2ea" d="M300 800H600V600H700V700H1000V500H900V300H800V200H700V100H600V200H500V100H400V400H600V500H300Z"/>
  <path fill="#234096" d="M700 1000H1000V900H1100V700H1000V500H900V600H800V500H700Z"/>
  <path fill="#c6e4f7" d="M100 600H600V800H800V500H700V100H600V300H500V100H400V200H300V300H200V500H100Z"/>
  <path fill="#ffffff" d="M100 200H200V100H100ZM900 200H1000V100H900ZM400 300H500V200H400ZM0 400H100V300H0ZM100 700H400V600H500V700H700V500H600V300H500V500H400V400H300V500H100ZM1000 400H1100V300H1000Z"/>
  <path fill="#e4ebee" d="M0 1000H100V1100H1000V1000H1100V800H900V900H800V800H700V700H0Z"/>
  <path fill="#3269c8" d="M0 900H100V800H200V900H400V800H600V900H800V700H700V600H600V500H500V700H400V600H200V500H100V700H0Z"/>
  <path fill="#2a53ad" d="M200 900H400V800H200ZM600 900H800V800H600Z"/>
</svg>
