<?xml version="1.0" encoding="UTF-8"?>
<svg xmlns="http://www.w3.org/2000/svg" viewBox="0 0 1200 1200" width="1200" height="1200">
  <title>emoji_u1f9cd_1f3ff_200d_2642</title>
  <path fill="#7c7c7c" d="M400 1200H500V1000H600V1200H700V800H400Z"/>
  <path fill="#335599" d="M400 1200H500V1100H400ZM600 1200H700V1100H600Z"/>
  <path fill="#232020" d="M400 400H700V100H400Z"/>
  <path fill="#70534a" d="M200 900H300V700H400V600H700V700H800V900H900V600H800V500H700V300H400V500H300V600H200Z"/>
  <path fill="#686868" d="M400 900H700V700H400Z"/>
  <path fill="#00bda3" d="M200 700H400V800H700V700H900V600H800V500H300V600H200Z"/>
  <path fill="#573d36" d="M500 600H600V500H500Z"/>
</svg>
