<?xml version="1.0" encoding="UTF-8"?>
<svg xmlns="http://www.w3.org/2000/svg" viewBox="0 0 1200 1200" width="1200" height="1200">
  <title>emoji_u1faf8_1f3fd</title>
  <path fill="#62392b" d="M0 1200H900V1100H1000V1000H1100V600H1000V200H900V100H700V300H800V500H700V900H800V1000H0Z"/>
  <path fill="#9a6648" d="M0 1100H900V1000H1000V600H900V800H800V600H900V200H800V100H700V500H600V800H300V700H0Z"/>
  <path fill="#ba8d68" d="M800 500H900V300H800ZM0 1000H900V800H800V500H700V800H600V900H300V800H0ZM900 800H1000V600H900Z"/>
</svg>
