<?xml version="1.0" encoding="UTF-8"?>
<svg xmlns="http://www.w3.org/2000/svg" viewBox="0 0 1200 1200" width="1200" height="1200">
  <title>emoji_u1fa93</title>
  <path fill="#bdbdbd" d="M200 600H400V500H500V400H600V300H700V100H500V200H400V300H300V400H200Z"/>
  <path fill="#ffcc80" d="M100 1200H300V1100H400V1000H500V900H600V800H300V900H200V1000H100Z"/>
  <path fill="#eaab57" d="M300 900H600V800H700V600H300V700H400V800H300Z"/>
  <path fill="#f44336" d="M200 600H300V700H600V800H700V900H900V800H1000V600H900V400H800V200H700V100H600V200H500V300H400V400H300V500H200Z"/>
  <path fill="#e0e0e0" d="M200 600H400V500H500V400H600V300H700V100H600V200H500V300H400V400H300V500H200Z"/>
  <path fill="#ff5450" d="M700 500H800V400H700ZM600 600H700V500H600ZM500 700H600V600H500Z"/>
</svg>
