<?xml version="1.0" encoding="UTF-8"?>
<svg xmlns="http://www.w3.org/2000/svg" viewBox="0 0 1200 1200" width="1200" height="1200">
  <title>emoji_u1f6a0</title>
  <path fill="#82aec0" d="M300 300H1000V200H900V100H400V200H300Z"/>
  <path fill="#fafafa" d="M100 800H500V500H400V600H100Z"/>
  <path fill="#9e9e9e" d="M0 200H300V100H0ZM300 300H400V400H600V100H500V200H300ZM700 300H1100V200H800V100H700Z"/>
  <path fill="#607d8b" d="M400 400H500V500H600V400H700V300H800V100H700V200H600V100H500V300H400ZM400 700H800V600H700V500H600V600H500V500H400Z"/>
  <path fill="#e0e0e0" d="M100 800H200V900H500V800H700V900H1000V800H1100V600H400V700H200V600H100Z"/>
  <path fill="#37474f" d="M500 500H600V400H500ZM100 1100H1100V800H100Z"/>
  <path fill="#bae2fd" d="M100 900H300V1000H500V900H700V1000H900V900H1100V700H900V800H800V700H400V800H300V700H100Z"/>
  <path fill="#c62828" d="M100 1100H200V1200H1000V1100H1100V1000H900V800H800V700H400V800H300V1000H100ZM500 1000V800H700V1000Z"/>
  <path fill="#f4511e" d="M100 1100H400V800H300V1000H100ZM800 1100H1100V1000H900V800H800ZM500 1100H700V1000H500Z"/>
</svg>
