<?xml version="1.0" encoding="UTF-8"?>
<svg xmlns="http://www.w3.org/2000/svg" viewBox="0 0 1200 1200" width="1200" height="1200">
  <title>emoji_u26ea</title>
  <path fill="#5f4d4e" d="M100 1200H300V800H100ZM800 1200H1000V800H800Z"/>
  <path fill="#614f46" d="M400 600H700V500H600V300H700V200H600V100H500V200H400V300H500V500H400Z"/>
  <path fill="#ac5832" d="M400 1200H700V900H400Z"/>
  <path fill="#d27856" d="M300 1200H500V1000H600V1200H800V900H700V800H400V900H300Z"/>
  <path fill="#896159" d="M0 800H100V900H1000V800H1100V700H1000V600H800V500H300V600H100V700H0Z"/>
  <path fill="#efebea" d="M100 900H200V1200H400V1000H500V900H600V1000H700V1200H900V900H1000V800H100Z"/>
  <path fill="#bdb8b1" d="M100 900H1000V800H100Z"/>
</svg>
