<?xml version="1.0" encoding="UTF-8"?>
<svg xmlns="http://www.w3.org/2000/svg" viewBox="0 0 1200 1200" width="1200" height="1200">
  <title>emoji_u1f1f5_1f1f9</title>
  <path fill="#982900" d="M300 500H600V300H300ZM300 1000H600V800H300Z"/>
  <path fill="#006600" d="M0 1000H400V900H500V800H400V700H300V600H400V500H500V400H400V300H0Z"/>
  <path fill="#ff0000" d="M400 900H500V1000H1100V300H500V400H400V500H500V600H600V700H500V800H400Z"/>
  <path fill="#0b6c00" d="M200 600H500V400H300V500H200Z"/>
  <path fill="#0c6c00" d="M200 800H300V900H500V700H200Z"/>
  <path fill="#a34900" d="M300 600H600V400H400V500H300Z"/>
  <path fill="#a34a00" d="M300 800H400V900H600V700H300Z"/>
  <path fill="#fe0400" d="M400 600H700V500H600V400H500V500H400Z"/>
  <path fill="#fe0500" d="M400 800H500V900H600V800H700V700H400Z"/>
  <path fill="#fd0500" d="M500 800H700V500H500Z"/>
  <path fill="#167100" d="M200 800H400V600H200Z"/>
  <path fill="#1a7300" d="M200 700H400V500H200Z"/>
  <path fill="#3e8400" d="M200 700H300V800H400V500H300V600H200Z"/>
  <path fill="#90900a" d="M300 800H500V600H300Z"/>
  <path fill="#b18219" d="M300 700H500V500H300Z"/>
  <path fill="#ce6743" d="M300 700H600V500H400V600H300Z"/>
  <path fill="#d35839" d="M300 700H400V800H600V600H300Z"/>
  <path fill="#df610c" d="M400 700H700V600H600V500H500V600H400Z"/>
  <path fill="#e48f06" d="M400 700H500V800H600V700H700V600H400Z"/>
  <path fill="#b8c5e1" d="M300 700H600V600H300Z"/>
  <path fill="#bd7a3a" d="M300 700H400V600H300Z"/>
  <path fill="#e14f0d" d="M500 700H700V600H500Z"/>
  <path fill="#f52800" d="M600 700H700V600H600Z"/>
</svg>
