<?xml version="1.0" encoding="UTF-8"?>
<svg xmlns="http://www.w3.org/2000/svg" viewBox="0 0 1200 1200" width="1200" height="1200">
  <title>emoji_u1f441_200d_1f5e8</title>
  <path fill="#000000" d="M0 700H100V800H300V900H700V1000H800V1100H900V1200H1000V1100H1100V1000H1000V900H900V700H1000V300H900V200H700V100H300V200H100V300H0Z"/>
  <path fill="#ffffff" d="M100 700H300V800H700V900H800V700H900V300H700V200H300V300H100ZM800 1000H900V900H800ZM900 1100H1000V1000H900Z"/>
  <path fill="#3f474c" d="M200 600H300V700H700V600H800V400H700V300H300V400H200Z"/>
  <path fill="#231f20" d="M400 600H600V500H700V400H400Z"/>
  <path fill="#f5f8fa" d="M600 500H700V400H600Z"/>
</svg>
