<?xml version="1.0" encoding="UTF-8"?>
<svg xmlns="http://www.w3.org/2000/svg" viewBox="0 0 1200 1200" width="1200" height="1200">
  <title>emoji_u1f5b1</title>
  <path fill="#e0e0e0" d="M200 900H300V1000H400V1100H700V1000H800V900H900V300H800V200H700V100H400V200H300V300H200Z"/>
  <path fill="#b5b5b5" d="M300 600H400V700H500V800H800V700H900V600H800V300H700V200H600V100H500V200H400V300H300ZM200 700H300V600H200Z"/>
  <path fill="#f0f0f0" d="M400 300H500V200H400ZM600 300H700V200H600ZM300 500H400V300H300ZM700 500H800V300H700ZM500 1000H600V900H700V800H800V600H700V700H500Z"/>
  <path fill="#504f4f" d="M500 600H600V400H500Z"/>
</svg>
