<?xml version="1.0" encoding="UTF-8"?>
<svg xmlns="http://www.w3.org/2000/svg" viewBox="0 0 1200 1200" width="1200" height="1200">
  <title>emoji_u1f992</title>
  <path fill="#4d4d4d" d="M100 300H400V100H300V200H200V100H100Z"/>
  <path fill="#fa821b" d="M300 1200H400V1000H500V800H300ZM800 1000H900V1200H1000V1100H1100V800H800Z"/>
  <path fill="#d57657" d="M0 500H200V600H300V900H400V1000H500V1200H600V1000H700V1200H800V1000H900V900H1000V700H900V600H600V500H500V400H600V300H400V200H100V300H0ZM1000 1100H1100V900H1000Z"/>
  <path fill="#2e2a32" d="M100 400H200V500H400V200H300V300H100ZM0 500H100V400H0Z"/>
  <path fill="#ffb305" d="M200 600H300V500H400V400H500V300H400V200H300V400H200ZM100 400H200V300H100ZM300 700H400V800H600V1000H900V900H1000V1000H1100V800H1000V700H900V800H800V900H700V800H800V700H500V500H400V600H300ZM300 900H400V800H300ZM400 1000H500V900H400ZM500 1100H600V1000H500ZM700 1200H800V1100H700Z"/>
  <path fill="#fee2b2" d="M300 400H400V300H300Z"/>
</svg>
