<?xml version="1.0" encoding="UTF-8"?>
<svg xmlns="http://www.w3.org/2000/svg" viewBox="0 0 1200 1200" width="1200" height="1200">
  <title>emoji_u1f345</title>
  <path fill="#dc0d27" d="M100 1000H200V1100H900V1000H1000V900H1100V500H1000V400H900V700H800V800H700V900H100Z"/>
  <path fill="#728035" d="M600 200H700V100H600ZM400 500H700V300H600V200H500V300H400Z"/>
  <path fill="#94a61d" d="M100 500H300V700H800V500H1000V400H900V300H600V400H500V300H200V400H100Z"/>
  <path fill="#ff2a23" d="M0 900H100V1000H800V900H900V800H1000V400H700V600H600V400H500V600H400V400H100V500H0Z"/>
  <path fill="#bdcf44" d="M300 500H400V400H300ZM500 500H600V400H500ZM700 500H800V400H700ZM200 600H300V500H200Z"/>
  <path fill="#fed3b0" d="M200 600H300V500H200ZM100 800H200V600H100Z"/>
</svg>
