<?xml version="1.0" encoding="UTF-8"?>
<svg xmlns="http://www.w3.org/2000/svg" viewBox="0 0 1200 1200" width="1200" height="1200">
  <title>emoji_u1fa70</title>
  <path fill="#e4bf8f" d="M700 600H800V500H900V300H700Z"/>
  <path fill="#ca8865" d="M200 300H400V200H300V100H200ZM500 300H700V100H600V200H500ZM500 1200H600V1100H700V700H800V300H700V400H600V500H700V600H500ZM200 900H400V600H200Z"/>
  <path fill="#dca282" d="M200 1000H300V1100H400V1200H600V800H400V700H300V800H200Z"/>
  <path fill="#e7ac84" d="M200 300H300V400H600V300H700V200H200ZM200 500H300V400H200ZM600 500H700V400H600ZM200 700H300V800H400V700H500V800H600V700H700V600H600V500H300V600H200Z"/>
  <path fill="#f8e2d5" d="M300 900H400V1000H500V900H600V600H300Z"/>
  <path fill="#865c52" d="M300 700H400V900H500V700H600V600H300Z"/>
</svg>
