<?xml version="1.0" encoding="UTF-8"?>
<svg xmlns="http://www.w3.org/2000/svg" viewBox="0 0 1200 1200" width="1200" height="1200">
  <title>emoji_u1f4b5</title>
  <path fill="#2e7d32" d="M0 1100H600V800H0ZM700 1100H1100V800H700Z"/>
  <path fill="#ffc06c" d="M400 900H500V1100H800V900H900V800H400Z"/>
  <path fill="#66bb6a" d="M0 900H600V200H0ZM700 900H1100V200H700V500H800V700H700Z"/>
  <path fill="#ffecb3" d="M500 900H800V800H900V400H800V200H500Z"/>
  <path fill="#4a9c4e" d="M800 800H900V700H1000V500H900V400H800Z"/>
  <path fill="#ffffff" d="M100 800H200V900H300V800H400V600H300V500H400V400H300V300H200V400H100V600H200V700H100Z"/>
</svg>
