<?xml version="1.0" encoding="UTF-8"?>
<svg xmlns="http://www.w3.org/2000/svg" viewBox="0 0 1200 1200" width="1200" height="1200">
  <title>emoji_u1fae3</title>
  <path fill="#eb8f00" d="M0 1000H100V1100H200V1200H900V1100H1000V1000H1100V300H1000V200H900V100H200V200H100V300H0Z"/>
  <path fill="#fde030" d="M100 500H200V400H400V600H600V700H800V600H900V500H1000V300H900V200H200V300H100ZM200 600H300V500H200ZM900 700H1000V600H900ZM300 1000H400V900H300ZM400 1100H700V1000H600V900H500V1000H400ZM700 1000H800V900H700Z"/>
  <path fill="#ffef72" d="M100 1000H400V900H500V700H300V500H200V600H100ZM600 900H700V1000H1000V600H900V800H600ZM500 1000H600V900H500Z"/>
  <path fill="#422b0d" d="M700 700H800V500H700ZM500 1000H600V900H500Z"/>
</svg>
