<?xml version="1.0" encoding="UTF-8"?>
<svg xmlns="http://www.w3.org/2000/svg" viewBox="0 0 1200 1200" width="1200" height="1200">
  <title>emoji_u1f343</title>
  <path fill="#b1e3ff" d="M400 200H600V100H400ZM300 400H400V200H300ZM500 400H700V300H500ZM400 500H500V400H400ZM500 600H800V400H700V500H500ZM300 700H400V500H300Z"/>
  <path fill="#8bc12d" d="M100 1100H400V1200H800V1100H900V1000H1000V900H1100V800H1000V700H600V800H400V900H300V1000H100Z"/>
  <path fill="#589622" d="M800 900H900V800H800ZM600 1000H800V900H600ZM400 1100H600V1000H400Z"/>
</svg>
