<?xml version="1.0" encoding="UTF-8"?>
<svg xmlns="http://www.w3.org/2000/svg" viewBox="0 0 1200 1200" width="1200" height="1200">
  <title>emoji_u1f51f</title>
  <path fill="#427687" d="M0 1100H100V1200H1000V1100H1100V200H1000V100H900V200H800V900H100V1000H0Z"/>
  <path fill="#8cafbf" d="M0 1100H200V1000H900V300H1000V100H100V200H0Z"/>
  <path fill="#a0c8d6" d="M200 300H300V200H200ZM100 400H200V300H100Z"/>
  <path fill="#fafafa" d="M200 600H300V900H400V400H300V500H200ZM600 500H700V400H600ZM500 800H600V500H500ZM700 800H800V500H700ZM600 900H700V800H600Z"/>
</svg>
