<?xml version="1.0" encoding="UTF-8"?>
<svg xmlns="http://www.w3.org/2000/svg" viewBox="0 0 1200 1200" width="1200" height="1200">
  <title>emoji_u1f45c</title>
  <path fill="#ffc697" d="M400 200H600V100H400ZM300 400H400V200H300Z"/>
  <path fill="#e6a467" d="M500 200H700V100H500ZM0 1200H1100V700H1000V400H800V200H700V400H400V300H300V400H100V700H0Z"/>
  <path fill="#784d30" d="M100 500H300V400H100ZM400 600H500V500H700V400H400ZM800 600H900V500H1000V400H800Z"/>
  <path fill="#a15d38" d="M100 1000H200V1100H900V1000H1000V800H900V900H700V600H500V500H400V900H200V700H100ZM800 700H900V500H800ZM200 700H300V600H200Z"/>
  <path fill="#3e2723" d="M400 900H600V700H500V600H400ZM800 700H900V600H800ZM900 900H1000V700H900ZM200 1000H400V900H200ZM700 1000H900V900H700Z"/>
  <path fill="#f6bc41" d="M500 900H600V700H500Z"/>
  <path fill="#fff176" d="M500 800H600V700H500Z"/>
</svg>
