<?xml version="1.0" encoding="UTF-8"?>
<svg xmlns="http://www.w3.org/2000/svg" viewBox="0 0 1200 1200" width="1200" height="1200">
  <title>emoji_u1f64d_1f3fb</title>
  <path fill="#f2780b" d="M100 1200H1000V900H900V800H700V900H600V1000H500V900H400V800H200V900H100Z"/>
  <path fill="#312d2d" d="M100 800H200V900H300V800H500V700H600V800H800V900H900V800H1000V300H900V200H800V100H300V200H200V300H100Z"/>
  <path fill="#f9ddbd" d="M200 900H300V1000H400V1100H700V1000H800V900H900V500H800V400H300V500H200ZM300 700V600H400V500H500V600H400V700ZM600 600V500H700V600H800V700H700V600Z"/>
  <path fill="#edc391" d="M400 1100H700V1000H400Z"/>
  <path fill="#444444" d="M500 800H600V700H500ZM400 900H500V800H400ZM600 900H700V800H600Z"/>
</svg>
