<?xml version="1.0" encoding="UTF-8"?>
<svg xmlns="http://www.w3.org/2000/svg" viewBox="0 0 1200 1200" width="1200" height="1200">
  <title>emoji_u1f996</title>
  <path fill="#ff631a" d="M0 600H300V300H0V400H100V500H0Z"/>
  <path fill="#ffffff" d="M0 700H200V600H400V300H200V200H0V400H200V500H0Z"/>
  <path fill="#586214" d="M0 700H300V800H200V1000H300V900H400V1000H500V1100H400V1200H600V1100H700V900H800V1100H900V700H1000V600H1100V300H1000V400H900V500H800V400H600V300H500V400H300V500H100V600H0ZM700 1200H800V1100H700Z"/>
  <path fill="#96a820" d="M0 300H100V400H300V500H100V600H400V1000H500V900H900V800H1000V700H1100V300H1000V500H900V600H800V400H700V600H600V300H500V200H400V100H300V200H0ZM400 600V500H500V600ZM700 800V700H800V800ZM900 300H1000V200H900ZM700 1200H1000V1100H900V1000H800V1100H700Z"/>
  <path fill="#e3d9a8" d="M500 900H600V800H500ZM400 1000H500V900H400Z"/>
  <path fill="#31312f" d="M300 300H400V200H300Z"/>
</svg>
