<?xml version="1.0" encoding="UTF-8"?>
<svg xmlns="http://www.w3.org/2000/svg" viewBox="0 0 1200 1200" width="1200" height="1200">
  <title>emoji_u2697</title>
  <path fill="#daf3fe" d="M100 500H400V400H500V100H200V200H100ZM700 300H800V400H900V500H1100V300H1000V200H900V100H700Z"/>
  <path fill="#2f7889" d="M0 800H200V900H400V1100H500V900H700V800H900V600H0ZM100 1000H200V900H100ZM700 1000H800V900H700Z"/>
  <path fill="#a1dffc" d="M0 700H300V500H600V700H900V600H800V400H900V500H1100V400H1000V300H900V200H800V100H200V200H100V600H0ZM200 400V300H300V200H400V300H300V400ZM300 900H600V800H300Z"/>
  <path fill="#84b0c1" d="M300 700H900V600H700V500H300ZM0 700H200V600H0ZM100 1100H200V900H100ZM700 1100H800V900H700ZM400 1200H500V1000H400ZM0 1200H100V1100H0ZM800 1200H900V1100H800Z"/>
  <path fill="#6cbdde" d="M400 900H500V800H400Z"/>
  <path fill="#f7ccfe" d="M200 600H400V400H200Z"/>
  <path fill="#b9e4ea" d="M100 700H400V600H500V500H200V600H100Z"/>
  <path fill="#ab47bc" d="M200 600H700V400H300V500H200Z"/>
  <path fill="#ea80fc" d="M300 500H700V400H300Z"/>
</svg>
