<?xml version="1.0" encoding="UTF-8"?>
<svg xmlns="http://www.w3.org/2000/svg" viewBox="0 0 1200 1200" width="1200" height="1200">
  <title>emoji_u1f9d9_1f3fb_200d_2640</title>
  <path fill="#875841" d="M700 900H800V1100H900V1200H1000V900H1100V700H1000V600H1100V500H800V600H700Z"/>
  <path fill="#98a8be" d="M200 400H800V500H1100V300H1000V200H900V100H500V200H300V300H200Z"/>
  <path fill="#b0b0b0" d="M100 1100H200V1200H300V600H100ZM700 1200H800V1100H900V900H1000V700H900V800H800V700H700Z"/>
  <path fill="#444444" d="M200 1200H800V900H200Z"/>
  <path fill="#c5cfdd" d="M100 500H800V600H1100V300H1000V400H900V300H200V400H100Z"/>
  <path fill="#7d8a9d" d="M0 600H100V700H200V600H1000V500H900V400H100V500H0Z"/>
  <path fill="#f9ddbd" d="M100 700H200V1200H400V1100H600V1200H800V700H900V600H700V500H200V600H100ZM300 1100V1000H400V1100ZM600 1100V1000H700V1100Z"/>
  <path fill="#a5a5a5" d="M100 700H300V600H600V800H700V700H900V600H1000V500H100ZM300 800H400V700H300ZM900 800H1000V700H900Z"/>
  <path fill="#fe7c52" d="M900 900H1000V700H900Z"/>
  <path fill="#ffffff" d="M900 800H1000V700H900Z"/>
  <path fill="#47515c" d="M100 600H200V500H100ZM800 600H1000V500H800Z"/>
  <path fill="#3f4040" d="M300 900H400V700H300ZM600 900H700V700H600Z"/>
</svg>
