<?xml version="1.0" encoding="UTF-8"?>
<svg xmlns="http://www.w3.org/2000/svg" viewBox="0 0 1200 1200" width="1200" height="1200">
  <title>emoji_u1f4ca</title>
  <path fill="#b0bec5" d="M0 1200H1100V100H0Z"/>
  <path fill="#0091ea" d="M700 1100H1000V200H700V300H800V400H700V500H800V600H700V700H800V800H700V900H800V1000H700Z"/>
  <path fill="#ffffff" d="M100 300H1000V200H100ZM100 1100H800V1000H700V900H800V800H700V700H800V600H400V500H800V400H100V500H200V600H100V700H200V800H100V900H200V1000H100ZM400 800V700H500V800ZM400 1000V900H500V1000Z"/>
  <path fill="#9ccc65" d="M200 1100H400V500H200Z"/>
  <path fill="#f44336" d="M500 1100H700V700H500Z"/>
</svg>
