<?xml version="1.0" encoding="UTF-8"?>
<svg xmlns="http://www.w3.org/2000/svg" viewBox="0 0 1200 1200" width="1200" height="1200">
  <title>emoji_u1f94f</title>
  <path fill="#c9c9c9" d="M100 200H300V100H100ZM0 300H100V200H0ZM800 900H900V800H800ZM600 1000H700V1100H900V1000H800V900H600ZM900 1000H1000V900H900Z"/>
  <path fill="#1e86ff" d="M0 900H100V1000H200V1100H600V1000H800V900H900V800H1000V600H800V700H700V800H500V900H300V800H200V700H0Z"/>
  <path fill="#00c1ec" d="M0 800H100V900H200V1000H600V900H800V800H900V700H1000V400H900V300H700V200H400V300H200V400H100V500H0Z"/>
  <path fill="#dfeef1" d="M400 500H700V400H400ZM300 600H400V500H300ZM700 600H800V500H700ZM200 700H300V600H200ZM600 700H700V600H600ZM300 800H600V700H300Z"/>
</svg>
