<?xml version="1.0" encoding="UTF-8"?>
<svg xmlns="http://www.w3.org/2000/svg" viewBox="0 0 1200 1200" width="1200" height="1200">
  <title>emoji_u1f9d5_1f3ff</title>
  <path fill="#4b4b4b" d="M0 1200H400V1000H300V900H100V1100H0ZM700 1200H1100V1100H1000V900H800V1000H700Z"/>
  <path fill="#541e69" d="M100 1000H200V1100H300V1200H800V1100H900V1000H1000V300H900V200H500V500H600V600H700V900H600V1000H500V900H400V600H100Z"/>
  <path fill="#8829ad" d="M100 1000H200V700H300V800H400V700H500V600H600V700H700V1000H800V800H900V600H800V500H900V200H800V100H300V200H200V300H100ZM600 400V300H700V400H800V500H700V400ZM900 1000H1000V800H900ZM300 1000H400V900H300ZM200 1100H300V1000H200ZM400 1100H500V1000H400ZM600 1100H700V1000H600ZM800 1100H900V1000H800ZM300 1200H400V1100H300ZM700 1200H800V1100H700Z"/>
  <path fill="#a23dc9" d="M400 300H500V200H400ZM300 400H400V300H300ZM200 600H300V400H200ZM300 700H400V600H300Z"/>
  <path fill="#70534a" d="M300 1000H400V1100H700V1000H800V600H700V500H400V600H300Z"/>
  <path fill="#1a1717" d="M400 800H500V600H400ZM600 800H700V600H600ZM500 1000H600V900H500Z"/>
</svg>
