<?xml version="1.0" encoding="UTF-8"?>
<svg xmlns="http://www.w3.org/2000/svg" viewBox="0 0 1200 1200" width="1200" height="1200">
  <title>emoji_u1f4ad</title>
  <path fill="#000000" d="M200 600H300V700H400V800H500V900H700V800H800V900H1000V800H1100V600H1000V500H1100V300H1000V200H900V100H700V200H600V100H400V200H300V400H200ZM100 1000H200V1100H300V1000H400V900H300V800H200V900H100ZM0 1200H100V1100H0Z"/>
  <path fill="#ffffff" d="M300 600H400V700H500V800H700V700H800V800H1000V600H900V500H1000V300H900V200H700V300H600V200H400V400H300ZM200 1000H300V900H200Z"/>
</svg>
