<?xml version="1.0" encoding="UTF-8"?>
<svg xmlns="http://www.w3.org/2000/svg" viewBox="0 0 1200 1200" width="1200" height="1200">
  <title>emoji_u1fa73</title>
  <path fill="#2a56c6" d="M100 1100H500V900H100ZM600 1100H1000V900H600Z"/>
  <path fill="#1c3aa9" d="M100 400H500V300H600V400H1000V200H900V100H200V200H100Z"/>
  <path fill="#4db6ac" d="M100 1000H500V800H100ZM600 1000H1000V800H600Z"/>
  <path fill="#82e8b6" d="M100 900H500V700H100ZM600 900H1000V700H600Z"/>
  <path fill="#29b6f6" d="M100 800H500V700H600V800H1000V300H700V200H400V300H100Z"/>
  <path fill="#1f2c5c" d="M400 300H500V400H600V300H700V200H400Z"/>
  <path fill="#fafafa" d="M400 300H500V200H400ZM600 300H700V200H600ZM300 400H400V300H300ZM400 500H700V400H600V300H500V400H400ZM700 400H800V300H700Z"/>
</svg>
