<?xml version="1.0" encoding="UTF-8"?>
<svg xmlns="http://www.w3.org/2000/svg" viewBox="0 0 1200 1200" width="1200" height="1200">
  <title>emoji_u1f1e7_1f1fe</title>
  <path fill="#e3989e" d="M0 1000H200V300H0Z"/>
  <path fill="#dd8189" d="M0 900H200V400H0V600H100V700H0Z"/>
  <path fill="#e59da3" d="M0 500H100V600H200V300H100V400H0ZM0 900H100V1000H200V700H100V800H0Z"/>
  <path fill="#6ca367" d="M100 1000H300V800H100Z"/>
  <path fill="#ce4854" d="M100 500H300V300H100Z"/>
  <path fill="#4aa657" d="M100 900H200V1000H1100V700H100Z"/>
  <path fill="#c8313e" d="M100 800H1100V300H200V400H100Z"/>
  <path fill="#9d5946" d="M100 900H200V800H1100V700H200V600H100Z"/>
  <path fill="#6da468" d="M100 900H200V700H100Z"/>
  <path fill="#ac6457" d="M100 800H200V600H100Z"/>
  <path fill="#cd4551" d="M100 700H200V400H100Z"/>
  <path fill="#ce4753" d="M100 700H200V600H100Z"/>
  <path fill="#cf4955" d="M100 500H200V400H100Z"/>
</svg>
