<?xml version="1.0" encoding="UTF-8"?>
<svg xmlns="http://www.w3.org/2000/svg" viewBox="0 0 1200 1200" width="1200" height="1200">
  <title>emoji_u1f527</title>
  <path fill="#2f7889" d="M300 300H400V200H300ZM100 500H200V700H500V800H600V900H700V1000H800V500H700V200H500V400H300V300H100Z"/>
  <path fill="#82aec0" d="M100 600H200V700H300V600H500V500H600V300H700V200H600V100H300V300H400V400H100ZM600 800H700V1000H800V1100H1100V800H1000V700H900V600H800V500H700V600H600ZM900 1000V900H1000V1000Z"/>
  <path fill="#b9e4ea" d="M400 200H500V100H400ZM500 300H600V200H500ZM700 700H800V600H700ZM800 800H900V700H800ZM900 900H1000V800H900Z"/>
</svg>
