<?xml version="1.0" encoding="UTF-8"?>
<svg xmlns="http://www.w3.org/2000/svg" viewBox="0 0 1200 1200" width="1200" height="1200">
  <title>emoji_u1f32e</title>
  <path fill="#ffb803" d="M300 1200H500V1100H800V1000H1100V900H1200V500H1100V400H1000V700H900V800H700V900H400V1000H300Z"/>
  <path fill="#ffaa00" d="M0 1100H100V1200H400V1100H500V1000H700V900H800V800H900V700H1100V300H1000V200H900V100H400V200H200V300H100V500H0Z"/>
  <path fill="#ffe265" d="M100 1100H300V1000H400V900H300V700H400V500H500V400H900V500H1000V200H400V300H200V500H100ZM700 600H800V500H700ZM500 1000H800V900H1000V800H1100V500H1000V600H800V700H700V800H600V900H500ZM600 700H700V600H600ZM500 800H600V700H500ZM400 900H500V800H400ZM400 1100H500V1000H400ZM300 1200H400V1100H300Z"/>
  <path fill="#4e8f34" d="M200 900H300V1000H400V900H500V800H600V700H500V500H1000V400H1100V300H1000V200H900V300H400V400H300V600H200Z"/>
  <path fill="#ac5832" d="M100 1100H300V1000H400V800H600V600H800V500H1000V300H800V400H700V300H600V400H300V500H400V600H200V700H300V800H200V1000H100Z"/>
  <path fill="#714c40" d="M800 500H1000V400H900V300H800ZM400 700H700V500H600V400H400V500H500V600H400ZM200 900H300V1000H400V800H200Z"/>
  <path fill="#fcecc8" d="M300 500H600V400H500V300H400V400H300ZM600 400H700V300H600ZM200 700H500V800H600V700H700V600H800V500H900V300H800V400H700V500H600V600H200ZM200 900H300V800H200ZM300 1000H400V900H300Z"/>
  <path fill="#da8119" d="M400 400H500V300H400ZM800 400H900V300H800ZM300 500H400V400H300ZM500 500H600V400H500ZM700 500H800V400H700ZM600 700H700V500H600ZM300 700H500V600H300ZM500 800H600V700H500Z"/>
</svg>
