<?xml version="1.0" encoding="UTF-8"?>
<svg xmlns="http://www.w3.org/2000/svg" viewBox="0 0 1200 1200" width="1200" height="1200">
  <title>emoji_u1f304</title>
  <path fill="#8165a3" d="M0 500H200V400H400V300H600V100H0ZM700 300H900V500H1100V100H700Z"/>
  <path fill="#4d242c" d="M0 1200H400V900H100V1000H0ZM900 1200H1100V900H900Z"/>
  <path fill="#532732" d="M900 1100H1000V1000H1100V500H900ZM100 1100H200V1000H300V1100H400V800H100Z"/>
  <path fill="#936a96" d="M0 900H200V600H300V500H400V400H600V300H700V400H800V500H1100V400H1000V200H800V100H500V200H300V300H100V400H0Z"/>
  <path fill="#773b58" d="M0 1000H200V900H300V1200H900V1000H600V900H400V700H300V600H100V800H0Z"/>
  <path fill="#3e2230" d="M200 800H300V1200H500V1100H600V1200H700V1100H800V1200H1000V700H800V800H600V700H200ZM400 1100V1000H500V1100ZM0 1200H100V1100H200V800H100V900H0Z"/>
  <path fill="#a96f85" d="M100 700H400V600H500V500H800V600H900V700H1000V600H1100V400H900V300H800V200H700V100H600V200H500V300H400V200H300V400H200V500H100Z"/>
  <path fill="#fda72c" d="M300 800H600V700H700V900H900V800H1000V500H900V300H800V400H700V100H600V400H500V300H400V500H300ZM300 300H400V200H300ZM900 300H1000V200H900ZM100 400H200V300H100ZM200 500H300V400H200ZM1000 500H1100V400H1000Z"/>
  <path fill="#a6505a" d="M100 700H200V800H300V900H400V800H500V700H400V600H100ZM500 900H600V1100H700V1000H800V900H900V800H500ZM400 1000H500V900H400Z"/>
  <path fill="#cd6159" d="M200 700H300V800H500V900H600V1000H700V900H900V800H800V700H600V600H500V700H400V500H300V600H200ZM800 600H900V500H800ZM900 800H1000V600H900Z"/>
  <path fill="#c67671" d="M300 700H400V600H500V500H800V600H900V400H400V500H300ZM500 700H600V600H500ZM700 700H800V600H700Z"/>
  <path fill="#fff7b3" d="M500 800H600V900H700V800H800V600H500Z"/>
  <path fill="#fffffc" d="M600 700H700V600H600ZM500 800H600V700H500Z"/>
</svg>
