<?xml version="1.0" encoding="UTF-8"?>
<svg xmlns="http://www.w3.org/2000/svg" viewBox="0 0 1200 1200" width="1200" height="1200">
  <title>emoji_u1fa83</title>
  <path fill="#e2a610" d="M100 300H200V400H600V200H300V100H200V200H100ZM800 1000H900V1100H1000V1000H1100V900H1000V600H800Z"/>
  <path fill="#874d36" d="M400 300H500V400H700V500H800V700H900V800H1000V400H900V300H800V200H400Z"/>
  <path fill="#c87d5e" d="M400 300H700V400H900V200H700V100H400Z"/>
  <path fill="#ffe36c" d="M200 300H600V200H500V100H200Z"/>
  <path fill="#a65f3e" d="M400 300H700V200H400ZM700 400H800V500H900V800H1100V500H1000V300H900V200H800V300H700Z"/>
  <path fill="#ffca28" d="M200 300H500V200H300V100H200ZM900 1000H1100V700H900Z"/>
</svg>
