<?xml version="1.0" encoding="UTF-8"?>
<svg xmlns="http://www.w3.org/2000/svg" viewBox="0 0 1200 1200" width="1200" height="1200">
  <title>emoji_u1f1f8_1f1e7</title>
  <path fill="#3777c9" d="M0 500H200V300H0Z"/>
  <path fill="#9b9f4e" d="M0 1000H200V800H0Z"/>
  <path fill="#a4a22a" d="M900 500H1100V300H900Z"/>
  <path fill="#0152b9" d="M700 500H1000V300H700Z"/>
  <path fill="#0b58bd" d="M0 700H200V400H0Z"/>
  <path fill="#0f5cbe" d="M0 500H300V300H100V400H0Z"/>
  <path fill="#2167c3" d="M100 500H400V300H200V400H100Z"/>
  <path fill="#225c33" d="M100 1000H400V800H100Z"/>
  <path fill="#266bc4" d="M200 500H500V300H300V400H200Z"/>
  <path fill="#4a83ce" d="M0 800H200V500H100V600H0Z"/>
  <path fill="#648479" d="M800 500H1100V400H1000V300H900V400H800Z"/>
  <path fill="#788a27" d="M0 900H100V1000H200V900H300V800H0Z"/>
  <path fill="#0051ba" d="M0 900H300V700H600V600H800V500H900V400H800V300H400V400H300V600H100V700H0Z"/>
  <path fill="#215b33" d="M200 900H300V1000H1100V400H800V500H600V600H500V700H300V800H200Z"/>
  <path fill="#1f66c2" d="M0 500H100V700H400V400H0Z"/>
  <path fill="#155fc0" d="M200 500H300V600H400V400H200Z"/>
  <path fill="#1962c1" d="M100 700H200V800H300V600H200V500H100Z"/>
  <path fill="#2067c3" d="M100 600H200V500H300V400H100ZM300 600H400V500H300Z"/>
  <path fill="#2765a1" d="M600 600H900V400H700V500H600Z"/>
  <path fill="#276cc4" d="M100 600H200V400H100Z"/>
  <path fill="#2a6ec5" d="M100 600H200V500H100ZM200 700H300V600H200Z"/>
  <path fill="#436d2f" d="M200 900H400V800H500V700H200Z"/>
  <path fill="#4e7987" d="M100 900H300V700H200V800H100Z"/>
  <path fill="#647f2a" d="M800 600H900V500H1000V400H800Z"/>
  <path fill="#a6a541" d="M700 600H900V400H800V500H700Z"/>
  <path fill="#aba62f" d="M200 900H300V800H400V700H200Z"/>
  <path fill="#0654b6" d="M400 700H700V500H500V600H400Z"/>
  <path fill="#0756bc" d="M200 700H500V600H400V500H300V600H200Z"/>
  <path fill="#0e58b1" d="M200 800H400V600H200Z"/>
  <path fill="#265e32" d="M400 800H600V700H700V600H400Z"/>
  <path fill="#2d6131" d="M700 600H900V500H700Z"/>
  <path fill="#2f71c7" d="M200 700H300V800H400V600H200Z"/>
  <path fill="#798e6a" d="M500 700H700V600H800V500H600V600H500Z"/>
  <path fill="#8a9326" d="M300 800H500V700H600V600H300Z"/>
  <path fill="#8c985b" d="M300 800H400V700H500V600H300Z"/>
  <path fill="#999c27" d="M700 600H800V500H700ZM600 700H700V600H600Z"/>
  <path fill="#3374c8" d="M300 700H500V600H300Z"/>
  <path fill="#386e95" d="M400 700H600V600H400Z"/>
  <path fill="#52752d" d="M500 700H700V600H500Z"/>
  <path fill="#aaa638" d="M500 700H600V600H500Z"/>
</svg>
