<?xml version="1.0" encoding="UTF-8"?>
<svg xmlns="http://www.w3.org/2000/svg" viewBox="0 0 1200 1200" width="1200" height="1200">
  <title>emoji_u1f93c_1f3fd_200d_2640</title>
  <path fill="#ba8d68" d="M300 500H400V600H500V500H700V600H600V700H800V800H900V900H1000V1000H1100V800H1000V700H900V200H700V400H500V200H300ZM100 900H300V800H400V700H200V800H100ZM500 800H600V700H500ZM400 1100H600V1000H500V800H400ZM700 900H800V800H700ZM0 1000H100V900H0ZM700 1100H900V900H800V1000H700Z"/>
  <path fill="#e53a36" d="M0 1000H100V900H0ZM100 1100H200V1000H100ZM400 1100H600V1000H400Z"/>
  <path fill="#5d18f6" d="M900 800H1000V700H900ZM1000 1000H1100V800H1000ZM700 1100H900V1000H700Z"/>
  <path fill="#b48866" d="M600 500H700V600H800V400H600Z"/>
  <path fill="#553a31" d="M200 400H300V500H500V400H400V300H500V200H300V300H200ZM700 500H900V400H1000V300H900V200H700V300H800V400H700Z"/>
  <path fill="#601cea" d="M700 600H800V800H1000V500H900V400H700Z"/>
  <path fill="#ea4643" d="M200 800H400V700H500V400H300V500H200Z"/>
  <path fill="#aa8064" d="M400 700H500V600H400ZM500 800H600V700H500Z"/>
</svg>
