<?xml version="1.0" encoding="UTF-8"?>
<svg xmlns="http://www.w3.org/2000/svg" viewBox="0 0 1200 1200" width="1200" height="1200">
  <title>emoji_u1f57a_1f3fe</title>
  <path fill="#b6eaef" d="M200 800H300V700H400V1200H500V900H700V800H600V600H800V500H600V400H500V500H400V600H200ZM800 500H900V400H800ZM700 1100H800V900H700ZM800 1200H900V1100H800Z"/>
  <path fill="#ffca28" d="M900 300H1000V200H900ZM800 500H900V300H800ZM200 900H300V700H200Z"/>
  <path fill="#543930" d="M300 500H600V200H300Z"/>
  <path fill="#445a65" d="M400 1200H500V1100H400ZM800 1200H900V1100H800Z"/>
  <path fill="#04bfa3" d="M800 500H900V400H800ZM400 900H500V800H600V500H400ZM200 800H300V700H200Z"/>
  <path fill="#ffe322" d="M300 500H400V600H600V400H500V300H400V400H300Z"/>
  <path fill="#eda600" d="M400 600H600V500H400Z"/>
</svg>
