<?xml version="1.0" encoding="UTF-8"?>
<svg xmlns="http://www.w3.org/2000/svg" viewBox="0 0 1200 1200" width="1200" height="1200">
  <title>emoji_u1f505</title>
  <path fill="#ffa624" d="M500 200H600V100H500ZM100 300H200V200H100ZM900 300H1000V200H900ZM400 400H700V300H400ZM300 500H400V400H300ZM700 500H800V400H700ZM200 800H300V500H200ZM800 800H900V500H800ZM0 700H100V600H0ZM1000 700H1100V600H1000ZM300 900H400V800H300ZM700 900H800V800H700ZM400 1000H700V900H400ZM100 1100H200V1000H100ZM900 1100H1000V1000H900ZM500 1200H600V1100H500Z"/>
</svg>
