<?xml version="1.0" encoding="UTF-8"?>
<svg xmlns="http://www.w3.org/2000/svg" viewBox="0 0 1200 1200" width="1200" height="1200">
  <title>emoji_u1f642_200d_2194</title>
  <path fill="#eb8f00" d="M0 1000H100V1100H800V1000H900V900H1000V800H900V600H1000V500H900V300H800V200H100V300H0Z"/>
  <path fill="#b0bec5" d="M600 1000H800V900H1000V800H800V600H1000V500H800V400H700V700H600ZM1000 500H1100V400H1000ZM1000 800H1100V700H1000Z"/>
  <path fill="#fde030" d="M100 1000H800V900H700V800H800V300H100Z"/>
  <path fill="#422b0d" d="M100 500H200V400H100ZM300 500H400V400H300ZM500 500H600V400H500ZM700 500H800V400H700ZM200 600H300V500H200ZM600 600H700V500H600ZM200 800H300V700H200ZM600 800H700V700H600ZM300 900H600V800H300Z"/>
</svg>
