<?xml version="1.0" encoding="UTF-8"?>
<svg xmlns="http://www.w3.org/2000/svg" viewBox="0 0 1200 1200" width="1200" height="1200">
  <title>emoji_u1fab0</title>
  <path fill="#000000" d="M400 500H700V200H400Z"/>
  <path fill="#868686" d="M200 300H300V100H200ZM800 300H900V100H800ZM100 400H200V300H100ZM900 400H1000V300H900ZM200 500H300V400H200ZM200 800H900V700H800V500H700V400H400V500H300V700H200ZM800 500H900V400H800ZM0 600H100V500H0ZM1000 600H1100V500H1000ZM100 700H200V600H100ZM900 700H1000V600H900Z"/>
  <path fill="#6b9ea7" d="M100 1000H200V1100H400V1200H500V1100H600V1200H700V1100H900V1000H1000V800H900V700H800V600H700V700H400V600H300V700H200V800H100Z"/>
  <path fill="#5e6366" d="M400 500H700V400H600V300H700V200H400V300H500V400H400ZM300 800H400V900H500V800H600V900H700V800H800V700H300ZM300 1000H400V900H300ZM400 1200H700V1000H600V900H500V1000H400ZM700 1000H800V900H700Z"/>
  <path fill="#858585" d="M500 1100H600V1000H500Z"/>
  <path fill="#6d8a90" d="M300 800H400V700H300ZM700 800H800V700H700ZM200 900H300V800H200ZM400 900H500V800H400ZM600 900H700V800H600ZM800 900H900V800H800ZM300 1000H400V900H300ZM700 1000H800V900H700Z"/>
</svg>
