<?xml version="1.0" encoding="UTF-8"?>
<svg xmlns="http://www.w3.org/2000/svg" viewBox="0 0 1200 1200" width="1200" height="1200">
  <title>emoji_u1f3cb_1f3fd_200d_2642</title>
  <path fill="#7c7c7c" d="M300 1100H500V1000H700V1100H900V1000H800V900H700V700H500V900H400V1000H300Z"/>
  <path fill="#4568ad" d="M300 1200H500V1000H300ZM700 1200H900V1000H700Z"/>
  <path fill="#acacac" d="M100 400H900V200H200V100H100Z"/>
  <path fill="#9e9e9e" d="M0 400H300V300H200V100H100V200H0ZM800 400H1100V200H1000V100H900V200H800Z"/>
  <path fill="#646464" d="M800 600H900V500H1000V400H1100V300H900V200H800ZM0 400H100V500H200V400H300V300H0Z"/>
  <path fill="#00b79e" d="M300 600H400V500H300ZM400 700H500V800H700V700H800V600H700V500H500V600H400ZM800 600H900V500H800Z"/>
  <path fill="#ba8d68" d="M200 400H300V600H400V400H500V300H400V200H300V300H200ZM700 400H800V600H900V200H800V300H700ZM500 600H700V400H500ZM300 1100H500V1000H300ZM700 1100H900V1000H700Z"/>
  <path fill="#919191" d="M200 400H300V300H200ZM400 400H500V500H700V400H800V300H400Z"/>
  <path fill="#543930" d="M500 500H700V400H500Z"/>
</svg>
