<?xml version="1.0" encoding="UTF-8"?>
<svg xmlns="http://www.w3.org/2000/svg" viewBox="0 0 1200 1200" width="1200" height="1200">
  <title>emoji_u1f1f0_1f1ff</title>
  <path fill="#56b68a" d="M0 600H200V300H0ZM0 1000H200V700H0Z"/>
  <path fill="#5cb785" d="M0 800H100V900H200V400H100V500H0Z"/>
  <path fill="#5fb783" d="M0 700H100V800H200V500H100V600H0Z"/>
  <path fill="#38b4a0" d="M0 400H100V500H200V300H0ZM400 900H700V600H400ZM0 1000H200V800H100V900H0Z"/>
  <path fill="#00afca" d="M100 1000H1100V300H100ZM500 800V700H600V800Z"/>
  <path fill="#13b1bb" d="M400 800H500V700H400ZM500 900H700V700H600V800H500Z"/>
  <path fill="#16b1ba" d="M500 600H800V500H700V400H500Z"/>
  <path fill="#1db1b5" d="M400 600H700V500H600V400H500V500H400Z"/>
  <path fill="#27b2ad" d="M600 900H700V800H800V700H600Z"/>
  <path fill="#01afc9" d="M600 700H800V500H600Z"/>
  <path fill="#08b0c4" d="M400 700H600V500H400Z"/>
  <path fill="#19b1b8" d="M600 800H800V600H600Z"/>
  <path fill="#1cb1b5" d="M400 800H500V700H600V600H400Z"/>
  <path fill="#33b3a4" d="M500 700H600V800H700V700H800V600H500Z"/>
  <path fill="#a9be4b" d="M500 700H800V600H700V500H500Z"/>
  <path fill="#c0c03b" d="M400 700H700V600H600V500H500V600H400Z"/>
  <path fill="#44b597" d="M400 700H800V600H400Z"/>
  <path fill="#97bc59" d="M500 700H700V600H500Z"/>
  <path fill="#acbe49" d="M500 700H600V600H500Z"/>
</svg>
