<?xml version="1.0" encoding="UTF-8"?>
<svg xmlns="http://www.w3.org/2000/svg" viewBox="0 0 1200 1200" width="1200" height="1200">
  <title>emoji_u1f1f2_1f1ea</title>
  <path fill="#c93f1a" d="M0 500H1100V300H0ZM0 1000H1100V800H0Z"/>
  <path fill="#c83216" d="M0 1000H100V900H200V400H100V300H0ZM900 900H1000V1000H1100V300H1000V400H900Z"/>
  <path fill="#cc5d23" d="M0 400H100V300H0ZM1000 400H1100V300H1000ZM100 500H200V400H100ZM900 500H1000V400H900ZM100 900H200V800H100ZM900 900H1000V800H900ZM0 1000H100V900H0ZM1000 1000H1100V900H1000Z"/>
  <path fill="#c40509" d="M300 600H800V400H300Z"/>
  <path fill="#c40d0b" d="M300 900H600V700H300Z"/>
  <path fill="#c42a14" d="M400 600H700V500H600V400H500V500H400Z"/>
  <path fill="#c74a1d" d="M400 800H500V900H700V700H400Z"/>
  <path fill="#c40308" d="M100 900H400V800H600V900H1000V400H700V500H600V700H500V500H400V400H100Z"/>
  <path fill="#c8511f" d="M300 700H700V500H400V600H300Z"/>
  <path fill="#b68331" d="M400 800H700V600H400Z"/>
  <path fill="#be5024" d="M500 700H600V800H700V600H500Z"/>
  <path fill="#c6431b" d="M300 700H400V800H500V700H600V600H300Z"/>
  <path fill="#c85c23" d="M400 700H700V600H600V500H500V600H400Z"/>
  <path fill="#867b57" d="M400 700H700V600H400Z"/>
  <path fill="#c40408" d="M300 700H500V600H300Z"/>
  <path fill="#cc802d" d="M600 700H700V600H600Z"/>
  <path fill="#cc862f" d="M400 700H500V600H400Z"/>
</svg>
