<?xml version="1.0" encoding="UTF-8"?>
<svg xmlns="http://www.w3.org/2000/svg" viewBox="0 0 1200 1200" width="1200" height="1200">
  <title>emoji_u1f9bb_1f3fb</title>
  <path fill="#b0bec5" d="M200 300H800V400H900V600H1000V500H1100V300H1000V200H900V100H300V200H200ZM300 1000H700V700H600V600H300Z"/>
  <path fill="#2686c6" d="M100 700H200V800H300V700H500V300H300V200H200V300H100Z"/>
  <path fill="#78909c" d="M200 900H400V700H500V200H200ZM300 600V400H400V600Z"/>
  <path fill="#607d8b" d="M400 400H800V700H900V600H1000V300H900V200H400ZM200 1000H300V1100H600V900H400V800H200Z"/>
  <path fill="#f9ddbd" d="M200 1100H300V1200H600V1100H700V1000H800V800H900V300H400V500H500V800H600V900H500V1000H400V900H300V800H200Z"/>
  <path fill="#b26830" d="M400 700H500V800H700V600H800V800H900V300H800V400H700V300H500V400H400ZM600 600V500H700V600ZM700 1000H800V800H700ZM200 1100H300V1000H400V900H200ZM500 1000H600V900H500ZM600 1100H700V1000H600ZM300 1200H600V1100H300Z"/>
  <path fill="#efb682" d="M800 500H900V300H800ZM500 500H700V400H500ZM700 600H800V500H700ZM500 800H600V600H500ZM800 700H900V600H800ZM200 1100H300V900H200ZM500 1000H600V900H500Z"/>
  <path fill="#546e7a" d="M200 700H300V300H200Z"/>
</svg>
