<?xml version="1.0" encoding="UTF-8"?>
<svg xmlns="http://www.w3.org/2000/svg" viewBox="0 0 1200 1200" width="1200" height="1200">
  <title>emoji_u1f929</title>
  <path fill="#eb8f00" d="M0 1000H100V1100H200V1200H900V1100H1000V1000H1100V300H1000V200H900V100H200V200H100V300H0Z"/>
  <path fill="#fde030" d="M100 1000H200V1100H900V1000H1000V300H900V200H200V300H100Z"/>
  <path fill="#f44336" d="M100 500H200V700H300V600H400V700H500V500H600V700H700V600H800V700H900V500H1000V400H800V300H700V400H400V300H300V400H100Z"/>
  <path fill="#422b0d" d="M200 900H300V1000H800V900H900V800H200Z"/>
</svg>
