<?xml version="1.0" encoding="UTF-8"?>
<svg xmlns="http://www.w3.org/2000/svg" viewBox="0 0 1200 1200" width="1200" height="1200">
  <title>emoji_u1f4b0</title>
  <path fill="#e2a610" d="M400 300H500V400H700V900H1000V800H900V500H800V400H900V300H1000V200H900V100H400Z"/>
  <path fill="#ffca28" d="M400 300H500V100H400ZM0 1000H100V1100H200V1200H1000V1100H1100V900H1000V800H800V600H900V500H800V200H900V100H600V300H500V400H200V500H100V600H0Z"/>
  <path fill="#6b4b46" d="M500 500H800V400H500ZM400 700H600V600H500V500H400ZM300 800H400V700H300ZM400 900H500V1000H600V800H400ZM300 1100H400V1200H500V1000H300Z"/>
</svg>
