<?xml version="1.0" encoding="UTF-8"?>
<svg xmlns="http://www.w3.org/2000/svg" viewBox="0 0 1200 1200" width="1200" height="1200">
  <title>emoji_u1f942</title>
  <path fill="#b0b0b0" d="M200 700H300V800H500V700H600V600H700V700H800V800H700V900H800V1100H700V1200H1000V1100H900V900H1000V400H500V500H400V600H200ZM0 900H100V800H0ZM200 900H300V800H200ZM100 1000H200V900H100ZM200 1100H300V1000H200Z"/>
  <path fill="#ff2a23" d="M700 300H800V100H700ZM1000 200H1100V100H1000ZM900 300H1000V200H900ZM600 400H700V300H600Z"/>
  <path fill="#ffffff" d="M400 400H500V500H700V600H900V500H1000V400H700V300H600V200H500V300H400Z"/>
  <path fill="#f4f4f4" d="M200 700H400V600H500V500H700V400H600V300H400V400H300V500H200ZM700 900H900V500H700Z"/>
  <path fill="#ffd61b" d="M300 700H500V600H600V500H700V400H400V500H300ZM800 900H900V600H800Z"/>
  <path fill="#fef3c0" d="M400 500H700V400H400ZM800 700H900V600H800Z"/>
</svg>
