<?xml version="1.0" encoding="UTF-8"?>
<svg xmlns="http://www.w3.org/2000/svg" viewBox="0 0 1200 1200" width="1200" height="1200">
  <title>emoji_u26b1</title>
  <path fill="#b24938" d="M300 400H800V300H700V200H800V100H300V200H400V300H300ZM500 300V200H600V300Z"/>
  <path fill="#f3ab47" d="M100 800H200V1100H300V1200H800V1100H900V800H1000V400H800V300H300V400H100Z"/>
  <path fill="#fad68c" d="M300 500H500V400H300ZM200 700H300V800H500V700H600V600H200ZM300 1100H400V1200H500V900H300Z"/>
  <path fill="#d85a41" d="M100 600H200V500H100ZM900 600H1000V500H900ZM200 700H900V600H200Z"/>
</svg>
