<?xml version="1.0" encoding="UTF-8"?>
<svg xmlns="http://www.w3.org/2000/svg" viewBox="0 0 1200 1200" width="1200" height="1200">
  <title>emoji_u1f469_1f3fb</title>
  <path fill="#312d2d" d="M100 1200H500V1000H400V900H800V1000H700V1200H1100V300H1000V200H800V100H400V200H200V300H100Z"/>
  <path fill="#f9ddbd" d="M200 900H300V1100H400V1200H800V1100H900V900H1000V700H900V500H800V400H600V500H400V600H500V800H400V600H300V700H200ZM700 800V600H800V800Z"/>
  <path fill="#dba689" d="M200 900H300V700H200ZM900 900H1000V700H900Z"/>
  <path fill="#444444" d="M400 1000H500V900H400ZM700 1000H800V900H700ZM500 1100H700V1000H500Z"/>
</svg>
