<?xml version="1.0" encoding="UTF-8"?>
<svg xmlns="http://www.w3.org/2000/svg" viewBox="0 0 1200 1200" width="1200" height="1200">
  <title>emoji_u1fa7c</title>
  <path fill="#b7855f" d="M700 300H800V400H900V500H1100V400H1000V300H900V200H800V100H700ZM400 600H500V500H400ZM800 600H900V500H800ZM500 700H600V600H500ZM600 800H700V700H600Z"/>
  <path fill="#757575" d="M100 1100H300V1000H400V900H300V800H200V900H100ZM0 1200H100V1100H0Z"/>
  <path fill="#2f7889" d="M700 300H800V200H700ZM600 400H700V300H600ZM500 500H600V400H500ZM800 600H900V500H800ZM700 700H800V600H700Z"/>
  <path fill="#b9e4ea" d="M200 1000H400V900H500V800H400V600H300V800H200Z"/>
  <path fill="#424242" d="M200 1000H300V900H200ZM100 1100H200V1000H100Z"/>
  <path fill="#e6a467" d="M700 300H800V200H700Z"/>
  <path fill="#82aec0" d="M500 500H600V400H500ZM400 600H500V500H400ZM300 700H400V600H300ZM700 700H800V600H700ZM600 800H700V700H600ZM200 1000H400V900H600V800H300V900H200Z"/>
  <path fill="#5a96a8" d="M200 1000H300V900H200Z"/>
</svg>
