<?xml version="1.0" encoding="UTF-8"?>
<svg xmlns="http://www.w3.org/2000/svg" viewBox="0 0 1200 1200" width="1200" height="1200">
  <title>emoji_u1f9b5_1f3ff</title>
  <path fill="#000000" d="M200 600H400V700H600V500H1000V400H1100V200H900V300H400V200H300V300H200ZM0 1200H500V800H300V1000H100V1100H0Z"/>
  <path fill="#58382b" d="M100 1100H400V900H500V800H600V600H500V300H1000V100H400V200H300V500H200V1000H100Z"/>
  <path fill="#70534a" d="M300 400H400V500H500V400H1000V300H1100V200H1000V100H900V200H400V300H300ZM200 1100H400V800H500V600H400V500H300V1000H200Z"/>
</svg>
