<?xml version="1.0" encoding="UTF-8"?>
<svg xmlns="http://www.w3.org/2000/svg" viewBox="0 0 1200 1200" width="1200" height="1200">
  <title>emoji_u1f935_1f3fb_200d_2642</title>
  <path fill="#464646" d="M100 1200H500V1000H400V800H200V900H100ZM600 1200H1000V900H900V800H700V1000H600Z"/>
  <path fill="#edc391" d="M200 600H300V700H400V800H300V900H400V1000H700V900H800V800H700V700H800V600H900V400H700V600H400V400H200Z"/>
  <path fill="#9e9e9e" d="M300 1100H400V1200H700V1100H800V800H600V1000H500V800H300Z"/>
  <path fill="#312d2d" d="M200 500H300V700H800V500H900V200H800V100H300V200H200Z"/>
  <path fill="#ffffff" d="M400 1100H500V1200H600V1100H700V800H600V900H500V800H400Z"/>
  <path fill="#f9ddbd" d="M300 700H800V400H700V600H600V400H700V300H400V400H500V600H400V400H300Z"/>
  <path fill="#212121" d="M400 1100H700V900H600V1000H500V900H400Z"/>
</svg>
