<?xml version="1.0" encoding="UTF-8"?>
<svg xmlns="http://www.w3.org/2000/svg" viewBox="0 0 1200 1200" width="1200" height="1200">
  <title>emoji_u1f5a5</title>
  <path fill="#eeeeee" d="M200 300H500V100H200ZM300 900H600V700H400V800H300ZM100 1200H800V1000H100Z"/>
  <path fill="#b7d5e5" d="M100 600H200V700H400V800H500V900H900V800H800V700H1000V600H1100V200H1000V100H400V200H300V100H200V200H100ZM100 1200H200V1100H700V1200H800V1000H100ZM900 1200H1100V1000H900Z"/>
  <path fill="#69a1ba" d="M400 800H800V700H400Z"/>
  <path fill="#395c64" d="M200 600H400V500H600V400H800V200H200Z"/>
  <path fill="#3d4f53" d="M200 600H800V500H1000V200H700V300H500V400H300V500H200Z"/>
  <path fill="#424242" d="M500 600H1000V300H900V400H700V500H500Z"/>
</svg>
