<?xml version="1.0" encoding="UTF-8"?>
<svg xmlns="http://www.w3.org/2000/svg" viewBox="0 0 1200 1200" width="1200" height="1200">
  <title>emoji_u1f45f</title>
  <path fill="#82aec0" d="M0 1000H1100V800H0Z"/>
  <path fill="#37474f" d="M100 700H500V400H400V500H300V400H200V300H100Z"/>
  <path fill="#bdbdbd" d="M300 700H600V600H700V400H400V600H300Z"/>
  <path fill="#9e9e9e" d="M600 800H1100V700H1000V600H900V500H600Z"/>
  <path fill="#e0e0e0" d="M0 900H1100V700H900V500H700V400H600V500H500V600H400V700H200V600H0ZM700 700V600H800V700Z"/>
  <path fill="#0277bd" d="M0 700H100V800H1100V700H900V600H800V700H700V600H600V700H500V600H200V300H0ZM600 500H700V400H600ZM500 600H600V500H500ZM700 600H800V500H700Z"/>
  <path fill="#03a9f4" d="M0 400H200V300H0ZM500 800H1000V700H500Z"/>
</svg>
