<?xml version="1.0" encoding="UTF-8"?>
<svg xmlns="http://www.w3.org/2000/svg" viewBox="0 0 1200 1200" width="1200" height="1200">
  <title>emoji_u1f37f</title>
  <path fill="#b40e1c" d="M100 500H300V200H200V300H100ZM800 500H1000V300H900V200H800Z"/>
  <path fill="#ffb91f" d="M200 500H300V600H400V700H900V500H1000V400H900V200H800V100H700V200H500V100H400V200H200Z"/>
  <path fill="#ed3d23" d="M100 1000H200V1100H300V1200H800V1100H900V1000H1000V400H800V600H700V500H600V600H500V500H300V300H200V400H100Z"/>
  <path fill="#ffffff" d="M200 1100H300V600H400V500H200ZM800 1100H900V500H800ZM400 1200H500V600H400ZM600 1200H700V600H600Z"/>
  <path fill="#e17a2c" d="M400 400H600V300H500V200H400ZM700 400H800V200H700ZM200 600H400V400H300V300H200ZM600 700H700V400H600Z"/>
  <path fill="#fce193" d="M400 400H500V200H400ZM200 400H300V300H200ZM700 400H800V300H700ZM200 600H400V700H500V500H400V400H300V500H200ZM600 500H700V400H600ZM800 600H900V400H800Z"/>
  <path fill="#dfdfdf" d="M200 600H300V500H200ZM800 600H900V500H800ZM400 700H500V600H400ZM600 700H700V600H600Z"/>
</svg>
