<?xml version="1.0" encoding="UTF-8"?>
<svg xmlns="http://www.w3.org/2000/svg" viewBox="0 0 1200 1200" width="1200" height="1200">
  <title>emoji_u1f963</title>
  <path fill="#ffffff" d="M700 400H1000V300H1100V100H900V200H800V300H700Z"/>
  <path fill="#c8c8c8" d="M300 800H700V700H800V600H900V400H1000V300H1100V100H1000V200H900V300H700V400H600V500H300Z"/>
  <path fill="#9d9c9c" d="M1000 300H1100V200H1000ZM900 400H1000V300H900ZM500 800H800V700H900V600H1000V500H900V400H800V500H700V600H600V700H500Z"/>
  <path fill="#6bb8fe" d="M0 1000H100V1100H200V1200H900V1100H1000V1000H1100V600H1000V500H800V600H700V700H400V600H500V500H100V600H0Z"/>
  <path fill="#e0ebf6" d="M100 1000H200V900H100ZM200 1100H300V1000H200Z"/>
  <path fill="#1d89fe" d="M100 700H200V800H900V700H1000V600H700V700H400V600H100Z"/>
</svg>
