<?xml version="1.0" encoding="UTF-8"?>
<svg xmlns="http://www.w3.org/2000/svg" viewBox="0 0 1200 1200" width="1200" height="1200">
  <title>emoji_u1fa9a</title>
  <path fill="#7fabb4" d="M0 800H100V700H200V800H300V700H400V800H500V700H600V800H700V700H800V600H200V400H0Z"/>
  <path fill="#9f6841" d="M600 700H800V800H1100V600H900V400H600Z"/>
  <path fill="#d68b52" d="M800 700H1100V400H800ZM900 600V500H1000V600Z"/>
  <path fill="#c9e3e6" d="M100 700H700V400H100ZM200 600V500H300V600ZM800 500H900V400H800ZM800 700H900V600H800Z"/>
</svg>
