<?xml version="1.0" encoding="UTF-8"?>
<svg xmlns="http://www.w3.org/2000/svg" viewBox="0 0 1200 1200" width="1200" height="1200">
  <title>emoji_u1f1e9_1f1f2</title>
  <path fill="#2e7e38" d="M300 500H600V300H300ZM300 1000H600V800H300Z"/>
  <path fill="#2f8662" d="M500 500H800V300H500ZM500 1000H800V800H500Z"/>
  <path fill="#8a7f4c" d="M400 500H700V400H600V300H500V400H400ZM400 900H500V1000H600V900H700V800H400Z"/>
  <path fill="#006b3f" d="M0 600H500V400H400V300H0ZM600 600H1100V300H700V400H600ZM0 1000H400V900H500V700H0ZM600 900H700V1000H1100V700H600Z"/>
  <path fill="#5d9130" d="M0 700H500V400H400V500H0ZM600 700H1100V500H700V400H600Z"/>
  <path fill="#5ea286" d="M0 800H400V900H500V600H0ZM600 900H700V800H1100V600H600Z"/>
  <path fill="#6b623b" d="M0 700H400V800H500V500H400V600H0ZM600 800H700V700H1100V600H700V500H600Z"/>
  <path fill="#2d7c38" d="M400 600H600V400H400ZM400 900H600V700H400Z"/>
  <path fill="#2e835f" d="M500 600H700V400H500ZM500 900H700V700H500Z"/>
  <path fill="#9d6e48" d="M400 600H700V500H600V400H500V500H400ZM400 800H500V900H600V800H700V700H400Z"/>
  <path fill="#864933" d="M400 700H700V500H400Z"/>
  <path fill="#864e48" d="M400 800H700V600H400Z"/>
  <path fill="#a7312b" d="M400 700H500V800H600V700H700V600H400Z"/>
  <path fill="#b62b3f" d="M400 700H700V600H600V500H500V600H400Z"/>
  <path fill="#b02e33" d="M400 700H700V600H400Z"/>
  <path fill="#863d53" d="M500 700H600V600H500Z"/>
</svg>
