<?xml version="1.0" encoding="UTF-8"?>
<svg xmlns="http://www.w3.org/2000/svg" viewBox="0 0 1200 1200" width="1200" height="1200">
  <title>emoji_u1f5b2</title>
  <path fill="#e57373" d="M300 400H600V300H700V100H400V200H300Z"/>
  <path fill="#424242" d="M100 1000H200V1100H400V1200H700V1100H900V1000H1000V300H900V200H700V500H600V600H500V500H400V200H200V300H100Z"/>
  <path fill="#e94539" d="M300 600H400V700H700V600H800V200H700V100H600V200H500V300H400V200H300Z"/>
  <path fill="#757575" d="M700 600H800V500H700ZM600 700H700V600H600ZM700 1000H800V900H900V600H800V700H700Z"/>
  <path fill="#9e9e9e" d="M300 600H400V500H300ZM200 900H300V1000H400V700H300V600H200ZM400 700H500V600H400Z"/>
  <path fill="#212121" d="M300 600H400V500H300ZM700 600H800V500H700ZM400 700H700V600H400ZM200 900H300V800H200ZM800 900H900V800H800ZM300 1000H400V900H300ZM700 1000H800V900H700Z"/>
</svg>
