<?xml version="1.0" encoding="UTF-8"?>
<svg xmlns="http://www.w3.org/2000/svg" viewBox="0 0 1200 1200" width="1200" height="1200">
  <title>emoji_u1f338</title>
  <path fill="#ffbcd8" d="M0 700H100V800H200V900H100V1100H200V1200H500V1100H600V1200H900V1100H1000V900H900V800H1000V700H1100V600H1000V500H1100V400H1000V300H800V200H700V100H600V200H500V100H400V200H300V300H100V400H0V500H100V600H0Z"/>
  <path fill="#fca2c8" d="M300 500H400V400H300ZM700 500H800V400H700ZM300 800H500V500H400V700H300ZM600 800H800V700H700V500H600ZM500 1000H600V800H500Z"/>
  <path fill="#bf0477" d="M400 800H500V900H600V800H700V500H400Z"/>
  <path fill="#fdd0b1" d="M400 700H500V800H600V700H700V600H600V500H500V600H400Z"/>
  <path fill="#f2a159" d="M500 700H600V600H500Z"/>
</svg>
