<?xml version="1.0" encoding="UTF-8"?>
<svg xmlns="http://www.w3.org/2000/svg" viewBox="0 0 1200 1200" width="1200" height="1200">
  <title>emoji_u1f1ed_1f1f7</title>
  <path fill="#171796" d="M0 1000H1100V700H600V800H500V700H0Z"/>
  <path fill="#ff0000" d="M0 600H500V500H600V600H1100V300H0Z"/>
  <path fill="#b1b1dc" d="M0 800H400V900H500V600H0ZM600 900H700V800H1100V600H600Z"/>
  <path fill="#ffa9a9" d="M0 700H500V400H400V500H0ZM600 700H1100V500H700V400H600Z"/>
  <path fill="#ffffff" d="M0 700H400V800H500V500H400V600H0ZM600 800H700V700H1100V600H700V500H600Z"/>
  <path fill="#1a1996" d="M400 900H700V700H400Z"/>
  <path fill="#523594" d="M400 800H500V900H600V800H700V700H400Z"/>
  <path fill="#6a5576" d="M400 600H700V400H400Z"/>
  <path fill="#9e3e5b" d="M400 600H600V500H500V400H400Z"/>
  <path fill="#a53a53" d="M500 600H700V400H600V500H500Z"/>
  <path fill="#c8a0be" d="M400 800H700V600H400Z"/>
  <path fill="#e67b83" d="M400 700H600V500H400Z"/>
  <path fill="#e97b82" d="M500 700H700V500H500Z"/>
  <path fill="#f76e72" d="M400 700H700V600H600V500H500V600H400Z"/>
  <path fill="#ff7c7c" d="M400 700H500V800H600V700H700V600H400Z"/>
  <path fill="#ffbcbc" d="M400 700H700V600H400Z"/>
  <path fill="#ff7e7e" d="M500 700H600V600H500Z"/>
</svg>
