<?xml version="1.0" encoding="UTF-8"?>
<svg xmlns="http://www.w3.org/2000/svg" viewBox="0 0 1200 1200" width="1200" height="1200">
  <title>emoji_u1faea</title>
  <path fill="#eb8f00" d="M0 1000H100V1100H200V1200H900V1100H1000V1000H1100V300H1000V200H900V100H200V200H100V300H0Z"/>
  <path fill="#ffffff" d="M0 600H100V900H500V800H600V900H1000V600H1100V400H1000V300H900V200H200V300H100V400H0Z"/>
  <path fill="#fde030" d="M100 1000H200V1100H900V1000H1000V700H900V800H700V700H600V300H700V200H400V300H500V700H400V800H200V700H100Z"/>
  <path fill="#35220b" d="M200 600H300V400H200ZM800 600H900V400H800ZM400 1000H700V900H400Z"/>
</svg>
