<?xml version="1.0" encoding="UTF-8"?>
<svg xmlns="http://www.w3.org/2000/svg" viewBox="0 0 1200 1200" width="1200" height="1200">
  <title>emoji_u1f1e8_1f1fb</title>
  <path fill="#013893" d="M400 1000H700V800H400Z"/>
  <path fill="#063b90" d="M200 1000H500V800H200Z"/>
  <path fill="#184787" d="M300 900H400V1000H500V900H600V800H300Z"/>
  <path fill="#003893" d="M0 700H300V600H500V700H1100V300H0ZM0 1000H300V900H400V800H0ZM500 900H600V1000H1100V800H500Z"/>
  <path fill="#3f69ae" d="M0 900H300V700H0ZM500 900H1100V700H500Z"/>
  <path fill="#e37d81" d="M0 800H200V900H600V800H1100V600H0Z"/>
  <path fill="#809cc9" d="M0 700H200V800H300V500H200V600H0ZM500 800H600V700H1100V600H600V500H500Z"/>
  <path fill="#4069a5" d="M200 900H400V800H300V700H200Z"/>
  <path fill="#4a70a8" d="M300 900H600V700H500V800H300Z"/>
  <path fill="#55759a" d="M500 900H600V700H500Z"/>
  <path fill="#5c7b9f" d="M200 800H300V700H200ZM300 900H400V800H300Z"/>
  <path fill="#e27969" d="M200 800H300V700H500V800H600V600H200Z"/>
  <path fill="#023992" d="M200 700H400V500H200Z"/>
  <path fill="#0f418b" d="M400 700H600V500H400Z"/>
  <path fill="#164688" d="M200 700H500V500H300V600H200Z"/>
  <path fill="#204c83" d="M300 700H600V600H500V500H400V600H300Z"/>
  <path fill="#7f96ae" d="M200 700H400V600H200Z"/>
  <path fill="#839dc7" d="M300 700H600V600H300Z"/>
  <path fill="#879bab" d="M500 700H600V600H500Z"/>
  <path fill="#8ba3c3" d="M300 700H400V600H300Z"/>
</svg>
