<?xml version="1.0" encoding="UTF-8"?>
<svg xmlns="http://www.w3.org/2000/svg" viewBox="0 0 1200 1200" width="1200" height="1200">
  <title>emoji_u2638</title>
  <path fill="#8e24aa" d="M0 1100H100V1200H1000V1100H1100V200H1000V100H900V1000H0Z"/>
  <path fill="#ab47bc" d="M0 1100H1000V100H100V200H0Z"/>
  <path fill="#fafafa" d="M0 700H100V900H200V700H400V800H500V1000H300V1100H500V1200H600V1100H800V1000H600V800H700V700H900V900H1000V700H1100V600H1000V400H900V600H700V500H600V300H800V200H600V100H500V200H100V600H0ZM200 600V400H300V300H500V500H400V600ZM500 700V600H600V700ZM900 300H1000V200H900ZM800 400H900V300H800ZM300 500H400V400H300ZM700 500H800V400H700ZM300 900H400V800H300ZM700 900H800V800H700ZM200 1000H300V900H200ZM800 1000H900V900H800ZM100 1100H200V1000H100ZM900 1100H1000V1000H900Z"/>
  <path fill="#c37dcf" d="M200 300H300V200H200ZM100 400H200V300H100Z"/>
</svg>
