<?xml version="1.0" encoding="UTF-8"?>
<svg xmlns="http://www.w3.org/2000/svg" viewBox="0 0 1200 1200" width="1200" height="1200">
  <title>emoji_u1f392</title>
  <path fill="#e2a610" d="M0 1000H100V1100H200V700H100V800H0ZM900 1100H1000V1000H1100V800H1000V700H900Z"/>
  <path fill="#455a64" d="M500 200H600V100H500ZM300 500H800V300H700V200H600V300H500V200H400V300H300Z"/>
  <path fill="#f44336" d="M100 1100H200V1200H900V1100H1000V500H900V400H700V500H400V400H200V500H100Z"/>
  <path fill="#ff7555" d="M200 500H300V600H800V500H900V400H800V300H700V400H600V300H500V400H400V300H300V400H200ZM300 1100H800V800H300Z"/>
  <path fill="#c62828" d="M200 500H300V400H200ZM800 500H900V400H800ZM300 600H800V500H300ZM300 900H800V700H300Z"/>
  <path fill="#ffaf75" d="M300 800H800V700H300Z"/>
</svg>
