<?xml version="1.0" encoding="UTF-8"?>
<svg xmlns="http://www.w3.org/2000/svg" viewBox="0 0 1200 1200" width="1200" height="1200">
  <title>emoji_u1f91f_1f3ff</title>
  <path fill="#000000" d="M0 500H100V900H200V1000H100V1100H200V1200H700V1100H800V1000H900V900H1000V800H1100V700H1000V600H900V200H800V100H700V200H600V300H700V400H600V500H300V400H200V300H100V400H0Z"/>
  <path fill="#58382b" d="M0 1000H100V1100H600V1000H800V900H900V800H1000V600H800V200H600V500H700V800H600V900H500V800H400V900H300V800H400V500H300V600H200V400H0ZM200 800V700H300V800ZM500 800H600V500H500Z"/>
  <path fill="#70534a" d="M700 700H800V200H700ZM100 1000H200V1100H700V1000H800V900H900V800H1000V700H800V800H700V900H500V1000H400V900H300V800H200V400H100ZM300 700H400V600H300ZM500 700H600V600H500ZM400 900H500V800H400Z"/>
</svg>
