<?xml version="1.0" encoding="UTF-8"?>
<svg xmlns="http://www.w3.org/2000/svg" viewBox="0 0 1200 1200" width="1200" height="1200">
  <title>emoji_u1f475_1f3ff</title>
  <path fill="#c2c2c2" d="M200 800H300V900H400V700H500V600H700V700H800V900H900V800H1000V400H900V300H800V200H400V300H300V400H200Z"/>
  <path fill="#1a1717" d="M300 1100H400V1200H800V1100H900V600H300Z"/>
  <path fill="#70534a" d="M300 1100H400V1000H500V1100H700V1000H800V1100H900V600H800V500H400V600H300ZM400 900V700H500V900ZM700 900V700H800V900ZM400 1200H500V1100H400ZM700 1200H800V1100H700Z"/>
  <path fill="#4a2f27" d="M400 600H800V500H400Z"/>
</svg>
