<?xml version="1.0" encoding="UTF-8"?>
<svg xmlns="http://www.w3.org/2000/svg" viewBox="0 0 1200 1200" width="1200" height="1200">
  <title>emoji_u1f68c</title>
  <path fill="#464c50" d="M0 1000H200V800H0ZM300 1000H800V800H300ZM900 1000H1100V800H900Z"/>
  <path fill="#b9a074" d="M300 400H800V300H700V200H400V300H300Z"/>
  <path fill="#f1edec" d="M0 900H100V1000H200V700H0Z"/>
  <path fill="#ff2a23" d="M900 1000H1000V900H1100V700H900Z"/>
  <path fill="#4e433d" d="M100 1000H200V1100H300V1000H400V900H500V800H400V700H100ZM600 900H700V1000H800V1100H900V1000H1000V700H700V800H600Z"/>
  <path fill="#f4daad" d="M0 800H100V900H200V500H900V600H400V900H800V800H900V900H1000V800H1100V400H1000V300H100V400H0Z"/>
  <path fill="#ffb803" d="M100 900H200V800H300V900H800V800H500V700H100ZM900 900H1000V800H900ZM200 1000H300V900H200ZM800 1000H900V900H800Z"/>
  <path fill="#b2b1b2" d="M200 1000H300V900H200ZM800 1000H900V900H800Z"/>
  <path fill="#afe3fb" d="M100 800H400V900H500V700H1000V400H100Z"/>
  <path fill="#454c52" d="M100 800H400V400H300V600H200V700H100ZM500 700H1000V400H900V600H800V400H700V600H600V400H500Z"/>
  <path fill="#858585" d="M200 800H300V600H200Z"/>
</svg>
