<?xml version="1.0" encoding="UTF-8"?>
<svg xmlns="http://www.w3.org/2000/svg" viewBox="0 0 1200 1200" width="1200" height="1200">
  <title>emoji_u1f4df</title>
  <path fill="#504f4f" d="M0 900H100V1000H1000V900H1100V300H1000V200H100V300H0Z"/>
  <path fill="#000000" d="M100 600H200V700H900V600H1000V400H900V300H200V400H100ZM200 900H300V800H200ZM400 900H500V800H400ZM600 900H700V800H600ZM800 900H900V800H800Z"/>
  <path fill="#466623" d="M200 600H900V400H200Z"/>
  <path fill="#8dcc47" d="M200 600H300V400H200ZM400 600H500V500H600V400H400ZM600 600H800V400H700V500H600Z"/>
</svg>
