<?xml version="1.0" encoding="UTF-8"?>
<svg xmlns="http://www.w3.org/2000/svg" viewBox="0 0 1200 1200" width="1200" height="1200">
  <title>emoji_u1f9af</title>
  <path fill="#90a4ae" d="M800 500H900V700H1000V300H1100V200H800ZM600 700H800V500H600ZM800 800H900V700H800Z"/>
  <path fill="#444444" d="M900 300H1100V100H900Z"/>
  <path fill="#b05965" d="M100 1100H300V1000H400V900H500V800H600V700H700V600H400V700H300V800H200V900H100Z"/>
  <path fill="#a3c2d7" d="M500 700H700V600H800V500H900V300H700V400H600V500H500ZM0 1200H300V1000H200V900H100V1000H0Z"/>
  <path fill="#e0e0e0" d="M400 800H500V700H600V600H700V500H800V400H900V200H800V300H700V400H600V500H500V600H400ZM200 900H300V800H200ZM0 1100H200V900H0Z"/>
  <path fill="#646464" d="M800 400H900V300H1000V200H1100V100H900V200H800Z"/>
  <path fill="#f44336" d="M200 900H400V800H500V600H400V700H300V800H200Z"/>
</svg>
