<?xml version="1.0" encoding="UTF-8"?>
<svg xmlns="http://www.w3.org/2000/svg" viewBox="0 0 1200 1200" width="1200" height="1200">
  <title>emoji_u1f416</title>
  <path fill="#e6508f" d="M0 600H600V500H700V400H600V300H400V400H300V300H100V500H0Z"/>
  <path fill="#ffa8a7" d="M600 1200H700V1100H800V1200H1000V900H600Z"/>
  <path fill="#ffd2b1" d="M900 400H1100V300H900ZM0 900H100V1000H200V1200H400V1000H500V1200H700V1000H900V1200H1100V600H1000V500H900V400H500V500H400V400H200V500H0Z"/>
  <path fill="#ff7d86" d="M0 900H100V1000H400V900H500V800H400V700H100V800H0Z"/>
  <path fill="#2d2d2b" d="M200 600H300V500H200ZM400 600H500V500H400ZM100 900H200V800H100ZM300 900H400V800H300Z"/>
</svg>
