<?xml version="1.0" encoding="UTF-8"?>
<svg xmlns="http://www.w3.org/2000/svg" viewBox="0 0 1200 1200" width="1200" height="1200">
  <title>emoji_u1f326</title>
  <path fill="#4fc2f7" d="M100 1200H200V1100H300V900H500V1000H400V1200H500V1100H600V900H800V1000H700V1200H800V1100H900V900H1000V800H100V900H200V1000H100Z"/>
  <path fill="#afe6f8" d="M100 1100H200V1000H100ZM400 1100H500V1000H400ZM700 1100H800V1000H700Z"/>
  <path fill="#b9ced3" d="M0 800H100V900H1000V800H1100V700H1000V500H300V600H100V700H0Z"/>
  <path fill="#fcc11a" d="M0 600H100V700H300V600H500V500H600V400H700V300H600V200H500V100H200V200H100V300H0Z"/>
  <path fill="#e2ebee" d="M100 800H200V700H400V600H500V700H700V600H900V800H1000V500H900V400H800V300H500V400H400V500H200V600H100Z"/>
  <path fill="#fee269" d="M200 300H300V200H200ZM100 400H200V300H100Z"/>
</svg>
