<?xml version="1.0" encoding="UTF-8"?>
<svg xmlns="http://www.w3.org/2000/svg" viewBox="0 0 1200 1200" width="1200" height="1200">
  <title>emoji_u1f445</title>
  <path fill="#424242" d="M0 200H100V300H200V400H900V300H1000V200H1100V100H900V200H200V100H0Z"/>
  <path fill="#f06a97" d="M100 900H200V1000H300V1100H800V1000H900V900H1000V700H800V800H700V900H400V800H300V700H100Z"/>
  <path fill="#c41b59" d="M100 500H400V800H700V500H1000V400H900V300H200V400H100Z"/>
  <path fill="#ec4b81" d="M100 800H200V900H300V1000H800V900H900V800H1000V400H800V300H700V400H600V700H500V400H400V300H300V400H100Z"/>
  <path fill="#fa8cb1" d="M200 900H300V800H200ZM800 900H900V800H800ZM300 1000H800V900H300Z"/>
</svg>
