<?xml version="1.0" encoding="UTF-8"?>
<svg xmlns="http://www.w3.org/2000/svg" viewBox="0 0 1200 1200" width="1200" height="1200">
  <title>emoji_u1f250</title>
  <path fill="#cc3333" d="M300 1100H400V1200H700V1100H900V1000H1000V800H1100V500H1000V400H900V700H800V900H600V1000H300Z"/>
  <path fill="#fc796e" d="M0 600H300V500H400V400H500V100H400V200H200V300H100V500H0Z"/>
  <path fill="#f44336" d="M0 800H100V1000H200V1100H700V1000H900V800H1000V300H900V200H700V100H400V300H300V400H200V500H0ZM200 300H300V200H200ZM100 400H200V300H100Z"/>
  <path fill="#fcd8d5" d="M400 300H500V200H400ZM300 400H400V300H300ZM500 400H600V300H500ZM200 500H300V400H200ZM400 500H500V400H400ZM300 600H400V500H300Z"/>
  <path fill="#fafafa" d="M200 700H300V1000H400V800H500V900H600V1000H800V800H900V700H800V600H900V300H500V400H400V500H500V600H700V700H400V500H300V600H200ZM600 500V400H800V500ZM600 900V800H700V900Z"/>
</svg>
