<?xml version="1.0" encoding="UTF-8"?>
<svg xmlns="http://www.w3.org/2000/svg" viewBox="0 0 1200 1200" width="1200" height="1200">
  <title>emoji_u1fae0</title>
  <path fill="#ed9004" d="M0 1000H100V1100H200V1000H300V1100H500V1200H700V1100H800V1000H900V1200H1000V1000H1100V300H1000V200H900V100H200V200H100V300H0Z"/>
  <path fill="#fddc2f" d="M100 1000H200V900H300V1000H500V1100H700V1000H800V900H900V1000H1000V300H900V200H200V300H100Z"/>
  <path fill="#412a0d" d="M300 500H400V300H300ZM600 600H700V400H600ZM300 700H400V600H300ZM400 800H700V700H400Z"/>
</svg>
