<?xml version="1.0" encoding="UTF-8"?>
<svg xmlns="http://www.w3.org/2000/svg" viewBox="0 0 1200 1200" width="1200" height="1200">
  <title>emoji_u1f9f4</title>
  <path fill="#546e7a" d="M400 400H700V300H600V200H700V100H400V200H500V300H400Z"/>
  <path fill="#78909c" d="M400 200H800V100H400ZM800 300H900V200H800ZM300 600H800V400H700V300H400V400H300Z"/>
  <path fill="#4fe8d8" d="M200 1200H900V500H800V400H700V500H400V400H300V500H200Z"/>
  <path fill="#ffffff" d="M400 1000H500V1100H600V1000H700V800H600V700H500V800H400Z"/>
</svg>
