<?xml version="1.0" encoding="UTF-8"?>
<svg xmlns="http://www.w3.org/2000/svg" viewBox="0 0 1200 1200" width="1200" height="1200">
  <title>emoji_u1f926_1f3fd_200d_2642</title>
  <path fill="#99674f" d="M200 600H300V700H400V400H200ZM700 700H800V600H900V400H700Z"/>
  <path fill="#543930" d="M200 500H300V600H400V500H500V400H600V500H700V600H800V500H900V200H800V100H300V200H200Z"/>
  <path fill="#00ae96" d="M100 1200H700V1000H800V1200H1000V900H900V800H800V700H700V900H600V600H300V800H200V900H100Z"/>
  <path fill="#00b098" d="M400 700H500V1000H600V1200H900V900H800V600H400Z"/>
  <path fill="#ba8d68" d="M300 700H600V600H800V400H700V300H400V400H300Z"/>
  <path fill="#009c88" d="M500 1000H600V800H500ZM600 1200H700V1000H600Z"/>
  <path fill="#ac8164" d="M400 600H500V700H800V500H700V400H600V500H500V400H400Z"/>
  <path fill="#49362e" d="M400 600H500V400H400Z"/>
</svg>
