<?xml version="1.0" encoding="UTF-8"?>
<svg xmlns="http://www.w3.org/2000/svg" viewBox="0 0 1200 1200" width="1200" height="1200">
  <title>emoji_u1f363</title>
  <path fill="#c9cabb" d="M0 500H100V700H300V400H0ZM800 700H1000V500H1100V400H800ZM100 1100H200V1200H900V1100H1000V900H800V1000H300V900H100Z"/>
  <path fill="#ff6110" d="M0 500H200V600H900V500H1100V300H1000V200H800V100H100V200H0Z"/>
  <path fill="#cc1935" d="M0 900H100V1000H200V1100H900V1000H1000V900H1100V700H900V800H200V700H0Z"/>
  <path fill="#fe8e6e" d="M300 200H400V100H300ZM600 200H700V100H600ZM200 300H300V200H200ZM500 300H600V200H500ZM900 300H1000V200H900ZM0 400H100V500H200V300H0ZM200 600H600V500H500V300H300V400H400V500H200ZM600 400H700V300H600ZM700 600H900V300H800V500H700Z"/>
  <path fill="#f6fffe" d="M0 400H100V300H0ZM300 400H400V300H300ZM600 400H700V300H600Z"/>
  <path fill="#ff605f" d="M0 800H100V900H1000V800H1100V700H1000V600H900V500H200V600H100V700H0Z"/>
  <path fill="#f9ffff" d="M100 800H200V700H100ZM200 900H300V800H200Z"/>
  <path fill="#ffffff" d="M200 600H900V500H200ZM200 1100H900V1000H200Z"/>
</svg>
