<?xml version="1.0" encoding="UTF-8"?>
<svg xmlns="http://www.w3.org/2000/svg" viewBox="0 0 1200 1200" width="1200" height="1200">
  <title>emoji_u1f4c6</title>
  <path fill="#c62828" d="M800 400H1100V200H900V100H800Z"/>
  <path fill="#a4a4a4" d="M0 1000H100V1200H1100V300H900V200H800V500H900V1000H300V900H0Z"/>
  <path fill="#f44336" d="M0 400H900V100H700V200H600V100H300V200H200V100H0Z"/>
  <path fill="#cecece" d="M0 1000H200V1100H800V1000H900V900H1000V400H900V300H0Z"/>
  <path fill="#fafafa" d="M100 900H600V700H800V400H100ZM200 1100H1000V400H900V800H800V900H700V1000H200Z"/>
  <path fill="#000000" d="M100 800H400V700H300V400H200V500H100V600H200V700H100ZM400 500H600V600H700V400H400ZM500 800H600V600H500Z"/>
</svg>
