<?xml version="1.0" encoding="UTF-8"?>
<svg xmlns="http://www.w3.org/2000/svg" viewBox="0 0 1200 1200" width="1200" height="1200">
  <title>emoji_u1f1e6_1f1f1</title>
  <path fill="#e41e20" d="M0 1000H1100V300H0Z"/>
  <path fill="#8b1214" d="M300 600H800V400H300Z"/>
  <path fill="#bd191b" d="M300 600H500V500H400V400H300ZM600 600H800V400H700V500H600Z"/>
  <path fill="#e21e20" d="M300 800H400V900H700V800H800V700H300Z"/>
  <path fill="#981415" d="M400 600H700V500H600V400H500V500H400Z"/>
  <path fill="#aa1618" d="M400 800H500V900H600V800H700V700H400Z"/>
  <path fill="#1c0404" d="M300 700H800V500H300Z"/>
  <path fill="#9e1516" d="M300 800H800V600H300Z"/>
  <path fill="#9f1516" d="M300 700H500V600H400V500H300ZM600 700H800V500H700V600H600Z"/>
  <path fill="#c0191b" d="M300 800H400V700H500V600H300ZM600 700H700V800H800V600H600Z"/>
  <path fill="#090101" d="M400 700H700V600H600V500H500V600H400Z"/>
  <path fill="#3a0808" d="M400 700H500V800H600V700H700V600H400Z"/>
  <path fill="#4d0a0b" d="M300 700H800V600H300Z"/>
  <path fill="#a11517" d="M300 700H400V600H300ZM700 700H800V600H700Z"/>
  <path fill="#100202" d="M500 700H600V600H500Z"/>
</svg>
