<?xml version="1.0" encoding="UTF-8"?>
<svg xmlns="http://www.w3.org/2000/svg" viewBox="0 0 1200 1200" width="1200" height="1200">
  <title>emoji_u1fadf</title>
  <path fill="#004fac" d="M300 1100H500V1000H700V1200H800V900H900V1000H1000V1100H1100V600H1000V500H1100V400H1000V300H1100V100H800V700H700V800H400V1000H300ZM0 700H200V500H0ZM200 800H300V700H200Z"/>
  <path fill="#907bf3" d="M100 300H200V400H300V700H200V900H300V800H400V1000H500V900H800V800H900V1000H1100V900H1000V600H900V500H1100V400H900V100H800V200H700V300H600V200H500V100H400V300H300V200H100ZM1000 200H1100V100H1000ZM0 600H200V500H0ZM300 1100H400V1000H300ZM700 1100H800V1000H700Z"/>
</svg>
