<?xml version="1.0" encoding="UTF-8"?>
<svg xmlns="http://www.w3.org/2000/svg" viewBox="0 0 1200 1200" width="1200" height="1200">
  <title>emoji_u26f3</title>
  <path fill="#94a61d" d="M0 1000H100V1100H200V1200H900V1100H1000V1000H1100V800H1000V700H900V600H600V500H500V600H200V700H100V800H0Z"/>
  <path fill="#ff4f28" d="M500 600H600V500H900V400H800V300H700V200H600V100H500Z"/>
  <path fill="#f7c875" d="M400 1000H700V700H600V100H500V700H400Z"/>
  <path fill="#b7d118" d="M100 1000H200V1100H900V1000H1000V800H900V700H600V900H500V700H200V800H100Z"/>
  <path fill="#4a4a29" d="M400 900H500V800H400ZM600 900H700V800H600ZM500 1000H600V900H500Z"/>
</svg>
