<?xml version="1.0" encoding="UTF-8"?>
<svg xmlns="http://www.w3.org/2000/svg" viewBox="0 0 1200 1200" width="1200" height="1200">
  <title>emoji_u1f393</title>
  <path fill="#e2a610" d="M100 1100H200V900H400V600H200V800H100Z"/>
  <path fill="#9e9e9e" d="M0 500H100V600H200V700H300V800H600V500H400V400H200V300H100V400H0Z"/>
  <path fill="#424242" d="M100 500H300V600H500V700H300V800H200V900H300V1000H500V1100H600V1000H800V900H900V600H1000V500H1100V400H1000V300H800V200H600V100H500V200H300V300H100Z"/>
  <path fill="#212121" d="M300 800H500V900H600V800H800V700H900V600H1000V500H800V600H600V700H300ZM200 700H300V600H200ZM200 900H300V800H200Z"/>
  <path fill="#616161" d="M400 500H600V300H500V400H400ZM1000 500H1100V400H1000ZM800 600H1000V500H800ZM600 700H800V600H600ZM500 800H600V700H500Z"/>
  <path fill="#ffca28" d="M400 500H600V400H400ZM300 600H400V500H300ZM200 700H300V600H200Z"/>
</svg>
