<?xml version="1.0" encoding="UTF-8"?>
<svg xmlns="http://www.w3.org/2000/svg" viewBox="0 0 1200 1200" width="1200" height="1200">
  <title>emoji_u1fa98</title>
  <path fill="#ffcc80" d="M300 500H900V200H800V100H400V200H300Z"/>
  <path fill="#424242" d="M200 700H300V1100H900V700H1000V400H900V300H800V400H400V300H300V400H200Z"/>
  <path fill="#ef8720" d="M300 500H400V400H300ZM500 500H700V400H500ZM800 500H900V400H800ZM300 700H400V600H300ZM400 900H800V700H700V600H500V700H400ZM800 700H900V600H800ZM300 1100H400V1200H800V1100H900V900H800V1000H400V900H300Z"/>
</svg>
