<?xml version="1.0" encoding="UTF-8"?>
<svg xmlns="http://www.w3.org/2000/svg" viewBox="0 0 1200 1200" width="1200" height="1200">
  <title>emoji_u1f52d</title>
  <path fill="#9e9e9e" d="M0 400H100V500H300V400H400V200H300V100H100V200H0Z"/>
  <path fill="#616161" d="M200 200H300V100H200ZM100 400H200V500H300V600H400V700H500V200H300V300H200V200H100ZM700 700H900V600H1000V500H1100V400H1000V300H1100V200H900V400H800V300H700Z"/>
  <path fill="#82aec0" d="M500 700H800V300H500ZM300 1000H400V900H500V1200H600V900H700V1000H800V800H500V700H400V800H300ZM200 1200H300V1000H200ZM800 1200H900V1000H800Z"/>
  <path fill="#b9e4ea" d="M400 900H800V800H700V700H800V600H600V500H400Z"/>
  <path fill="#cfd8dc" d="M300 500H400V600H600V700H800V300H600V200H400V400H300ZM600 600V400H700V600Z"/>
  <path fill="#212121" d="M100 400H300V300H200V200H100ZM400 400H500V300H400ZM900 400H1000V300H900ZM300 500H400V400H300ZM400 600H500V500H400Z"/>
  <path fill="#bdbdbd" d="M400 700H500V600H600V400H500V500H400ZM600 700H800V600H600ZM500 800H600V700H500Z"/>
  <path fill="#2f7889" d="M400 400H500V600H600V300H400ZM400 700H500V600H400ZM500 800H600V700H500ZM400 900H500V800H400ZM600 900H800V800H600Z"/>
  <path fill="#71bdda" d="M100 400H200V200H100Z"/>
  <path fill="#ffffff" d="M400 400H600V300H400Z"/>
</svg>
