<?xml version="1.0" encoding="UTF-8"?>
<svg xmlns="http://www.w3.org/2000/svg" viewBox="0 0 1200 1200" width="1200" height="1200">
  <title>emoji_u1f9f7</title>
  <path fill="#94d1e0" d="M700 700H1000V600H1100V300H900V400H800V600H700ZM0 1100H100V1000H200V800H300V700H400V600H500V400H400V500H300V600H200V700H100V800H0Z"/>
  <path fill="#82aec0" d="M100 1200H400V1100H500V1000H600V900H700V800H800V700H1000V600H1100V200H1000V100H600V200H500V400H400V600H500V500H700V400H800V300H900V400H1000V500H900V600H700V700H600V800H500V900H300V1100H100ZM800 500H900V400H800ZM300 700H400V600H300ZM0 900H100V1000H200V900H300V700H100V800H0ZM0 1100H100V1000H0Z"/>
  <path fill="#b9e4ea" d="M600 300H700V200H600ZM500 500H700V400H600V300H500ZM700 400H800V300H700Z"/>
  <path fill="#2f7889" d="M700 400H800V300H700ZM500 500H700V400H500ZM100 1000H200V900H300V800H100ZM400 1100H500V900H400Z"/>
</svg>
