<?xml version="1.0" encoding="UTF-8"?>
<svg xmlns="http://www.w3.org/2000/svg" viewBox="0 0 1200 1200" width="1200" height="1200">
  <title>emoji_u1f9cd_1f3fb_200d_2640</title>
  <path fill="#7c7c7c" d="M400 1200H500V1000H600V1200H700V800H400Z"/>
  <path fill="#335599" d="M400 1200H500V1100H400ZM600 1200H700V1100H600Z"/>
  <path fill="#62453b" d="M300 600H500V400H600V600H800V200H700V100H400V200H300Z"/>
  <path fill="#686868" d="M400 900H700V700H400Z"/>
  <path fill="#583ee2" d="M200 800H300V700H400V800H700V700H800V800H900V600H800V500H700V400H400V500H300V600H200Z"/>
  <path fill="#f9ddbd" d="M400 500H500V600H600V500H700V300H400ZM200 900H300V700H200ZM800 900H900V700H800Z"/>
  <path fill="#edbd82" d="M500 600H600V500H500Z"/>
</svg>
