<?xml version="1.0" encoding="UTF-8"?>
<svg xmlns="http://www.w3.org/2000/svg" viewBox="0 0 1200 1200" width="1200" height="1200">
  <title>emoji_u1f1f3_1f1fa</title>
  <path fill="#934869" d="M0 500H200V300H0Z"/>
  <path fill="#575e89" d="M200 500H500V300H200Z"/>
  <path fill="#61406b" d="M0 500H300V300H100V400H0Z"/>
  <path fill="#826a8c" d="M0 700H200V400H0Z"/>
  <path fill="#974969" d="M300 500H600V300H400V400H300Z"/>
  <path fill="#9e4766" d="M100 500H400V400H300V300H200V400H100Z"/>
  <path fill="#b74e67" d="M0 500H100V600H200V400H0Z"/>
  <path fill="#ba873d" d="M400 500H700V300H500V400H400Z"/>
  <path fill="#df8b39" d="M0 800H200V500H100V600H0Z"/>
  <path fill="#fcd116" d="M0 1000H1100V300H600V400H500V600H100V700H0Z"/>
  <path fill="#68456e" d="M100 600H400V400H100Z"/>
  <path fill="#8b8544" d="M100 700H300V500H100Z"/>
  <path fill="#c1586e" d="M200 600H500V400H300V500H200Z"/>
  <path fill="#c76d80" d="M100 600H200V700H300V500H200V400H100Z"/>
  <path fill="#c8556a" d="M300 600H600V400H400V500H300Z"/>
  <path fill="#d95365" d="M100 500H200V400H100ZM200 600H300V500H200Z"/>
  <path fill="#d98f3e" d="M400 600H600V400H500V500H400Z"/>
  <path fill="#985877" d="M200 700H400V500H200Z"/>
  <path fill="#ac829a" d="M200 700H500V500H300V600H200Z"/>
  <path fill="#af9a51" d="M400 700H600V500H400Z"/>
  <path fill="#be6d83" d="M300 700H600V600H500V500H400V600H300Z"/>
  <path fill="#cc8b3d" d="M200 700H400V600H200Z"/>
  <path fill="#99904c" d="M300 700H500V600H300Z"/>
  <path fill="#b78f45" d="M400 700H600V600H400Z"/>
  <path fill="#f0ab24" d="M500 700H600V600H500Z"/>
</svg>
