<?xml version="1.0" encoding="UTF-8"?>
<svg xmlns="http://www.w3.org/2000/svg" viewBox="0 0 1200 1200" width="1200" height="1200">
  <title>emoji_u1f468_1f3fb_200d_1f9b1</title>
  <path fill="#edc391" d="M200 800H300V900H400V600H200ZM800 900H900V800H1000V600H800Z"/>
  <path fill="#312d2d" d="M100 600H200V700H300V900H900V700H1000V600H1100V400H1000V300H900V200H800V100H600V200H500V100H400V200H300V300H200V400H100Z"/>
  <path fill="#f9ddbd" d="M300 1100H400V1200H800V1100H900V500H700V400H600V500H500V400H400V600H500V800H400V600H300ZM700 800V600H800V800Z"/>
  <path fill="#444444" d="M400 1000H500V900H400ZM700 1000H800V900H700ZM500 1100H700V1000H500Z"/>
</svg>
