<?xml version="1.0" encoding="UTF-8"?>
<svg xmlns="http://www.w3.org/2000/svg" viewBox="0 0 1200 1200" width="1200" height="1200">
  <title>emoji_u1f1e8_1f1fd</title>
  <path fill="#09428b" d="M0 500H200V300H0Z"/>
  <path fill="#136964" d="M900 1000H1100V800H900Z"/>
  <path fill="#032ca2" d="M800 1000H1000V900H1100V800H800Z"/>
  <path fill="#0e2db1" d="M100 1000H400V800H100Z"/>
  <path fill="#1432b3" d="M0 1000H200V900H300V800H0Z"/>
  <path fill="#1735b4" d="M0 800H200V500H0Z"/>
  <path fill="#197f4d" d="M0 500H300V300H100V400H0Z"/>
  <path fill="#1d3ab6" d="M0 900H200V600H100V700H0Z"/>
  <path fill="#2b8e41" d="M700 500H1000V300H700Z"/>
  <path fill="#3a9241" d="M800 500H1100V300H900V400H800Z"/>
  <path fill="#0021ad" d="M0 1000H100V900H300V1000H900V900H1000V800H800V700H500V600H300V500H200V400H0V600H100V800H0Z"/>
  <path fill="#1c8a42" d="M100 500H300V600H600V700H700V900H1100V300H1000V400H800V300H200V400H100Z"/>
  <path fill="#389141" d="M700 700H1000V600H1100V500H1000V400H800V600H700Z"/>
  <path fill="#0022ac" d="M600 800H700V900H900V800H800V700H600Z"/>
  <path fill="#0328a7" d="M100 600H300V400H100Z"/>
  <path fill="#0727af" d="M100 900H300V700H200V800H100Z"/>
  <path fill="#0b4c81" d="M700 800H800V700H700ZM800 900H1000V800H800Z"/>
  <path fill="#0c2cb1" d="M200 800H300V700H200ZM100 900H200V800H100Z"/>
  <path fill="#115f6e" d="M100 600H400V400H200V500H100Z"/>
  <path fill="#1a8448" d="M900 900H1000V800H900Z"/>
  <path fill="#1c8943" d="M200 600H500V500H400V400H300V500H200Z"/>
  <path fill="#233fb8" d="M100 600H200V700H300V500H100Z"/>
  <path fill="#519840" d="M800 700H1000V500H900V600H800Z"/>
  <path fill="#569940" d="M800 500H900V600H1000V400H800Z"/>
  <path fill="#83a53e" d="M900 600H1000V400H900Z"/>
  <path fill="#ceb93b" d="M900 600H1000V500H900ZM800 700H900V600H800Z"/>
  <path fill="#073a94" d="M200 700H500V500H200Z"/>
  <path fill="#0929b0" d="M200 800H300V700H400V600H300V500H200Z"/>
  <path fill="#112fb2" d="M200 600H300V500H200ZM300 700H400V600H300Z"/>
  <path fill="#1735b5" d="M300 700H400V600H300ZM200 800H300V700H200Z"/>
  <path fill="#1b735b" d="M600 800H800V700H900V600H600Z"/>
  <path fill="#25399c" d="M300 700H400V800H600V600H300Z"/>
  <path fill="#29498c" d="M500 800H700V700H800V600H500Z"/>
  <path fill="#378252" d="M300 700H600V500H400V600H300Z"/>
  <path fill="#419441" d="M700 700H900V600H700Z"/>
  <path fill="#9f8f5c" d="M400 700H500V800H600V700H700V600H400Z"/>
  <path fill="#b3b23c" d="M400 700H700V500H500V600H400Z"/>
  <path fill="#339041" d="M500 700H800V600H700V500H600V600H500Z"/>
  <path fill="#2b46bb" d="M300 700H500V600H300Z"/>
  <path fill="#626878" d="M400 700H600V600H400Z"/>
  <path fill="#71a03f" d="M500 700H700V600H500Z"/>
  <path fill="#76a23f" d="M600 700H700V600H600Z"/>
</svg>
