<?xml version="1.0" encoding="UTF-8"?>
<svg xmlns="http://www.w3.org/2000/svg" viewBox="0 0 1200 1200" width="1200" height="1200">
  <title>emoji_u1f58a</title>
  <path fill="#616161" d="M0 1200H300V1000H200V900H0Z"/>
  <path fill="#bdbdbd" d="M800 600H900V500H1000V600H1100V200H800ZM700 700H800V600H700ZM900 700H1000V600H900ZM0 1000H100V1100H200V1200H300V1100H400V1000H500V900H400V800H300V700H200V800H100V900H0ZM800 800H900V700H800Z"/>
  <path fill="#0d47a1" d="M900 300H1000V400H1100V100H900ZM300 1000H500V900H600V800H700V700H800V600H900V500H1000V400H900V300H800V400H700V500H600V400H500V500H400V600H300V700H400V800H300Z"/>
  <path fill="#ffc107" d="M500 600H600V700H800V400H700V300H600V400H500Z"/>
  <path fill="#1565c0" d="M600 500H700V600H800V500H900V300H1000V200H1100V100H800V200H700V300H600ZM500 600H600V500H500ZM200 900H300V1000H400V900H500V800H600V700H500V600H300V700H200ZM600 700H700V600H600Z"/>
  <path fill="#2196f3" d="M800 300H900V200H800ZM700 400H800V300H700ZM600 500H700V400H600ZM400 700H500V600H400ZM300 800H400V700H300ZM200 900H300V800H200ZM100 1000H200V900H100Z"/>
  <path fill="#eeeeee" d="M800 300H900V200H800ZM100 1000H200V900H100Z"/>
</svg>
