<?xml version="1.0" encoding="UTF-8"?>
<svg xmlns="http://www.w3.org/2000/svg" viewBox="0 0 1200 1200" width="1200" height="1200">
  <title>emoji_u1fac1</title>
  <path fill="#fed0b0" d="M700 1000H800V1100H1000V900H900V800H700Z"/>
  <path fill="#fea8a7" d="M0 1000H100V1100H300V1000H400V600H500V500H400V200H200V300H100V400H0ZM600 600H700V900H800V1000H900V1100H1000V1000H1100V400H1000V300H900V200H700V500H600Z"/>
  <path fill="#fed4b4" d="M500 500H600V100H500ZM100 600H300V500H100ZM400 600H500V500H400ZM600 600H700V500H600ZM800 600H900V500H800ZM300 700H400V600H300ZM700 700H800V600H700ZM200 800H300V700H200ZM800 800H900V700H800ZM100 900H200V800H100ZM900 900H1000V800H900Z"/>
  <path fill="#fe9895" d="M0 500H100V400H0ZM100 600H200V500H100ZM0 800H100V700H0ZM1000 800H1100V700H1000ZM100 900H200V800H100ZM900 900H1000V800H900ZM200 1000H300V900H200ZM800 1000H900V900H800Z"/>
</svg>
