<?xml version="1.0" encoding="UTF-8"?>
<svg xmlns="http://www.w3.org/2000/svg" viewBox="0 0 1200 1200" width="1200" height="1200">
  <title>emoji_u270a_1f3fe</title>
  <path fill="#422319" d="M100 700H400V1000H200V1100H300V1200H900V1100H1000V1000H1100V500H1000V200H900V100H800V200H700V100H600V200H500V100H400V200H200V400H100Z"/>
  <path fill="#824624" d="M100 1000H200V1100H400V900H500V800H600V600H400V500H500V100H400V200H200V300H100ZM200 600V500H300V300H400V500H300V600ZM600 400H700V100H600ZM800 400H900V100H800ZM600 600H700V500H600ZM500 1000H800V900H1000V500H800V600H900V700H700V800H600V900H500Z"/>
  <path fill="#a56c43" d="M400 400H500V200H400ZM600 300H700V200H600ZM800 300H900V200H800ZM200 400H300V300H200ZM600 600H1000V500H600ZM200 1000H300V1100H900V1000H1000V700H900V800H700V900H500V800H400V700H300V600H200Z"/>
</svg>
