<?xml version="1.0" encoding="UTF-8"?>
<svg xmlns="http://www.w3.org/2000/svg" viewBox="0 0 1200 1200" width="1200" height="1200">
  <title>emoji_u1f50f</title>
  <path fill="#b9e4ea" d="M200 200H400V100H200ZM100 400H200V200H100Z"/>
  <path fill="#212121" d="M500 400H800V300H900V400H1100V100H600V200H500Z"/>
  <path fill="#000000" d="M700 1100H800V1200H900V1100H1000V900H700Z"/>
  <path fill="#84b0c1" d="M300 200H500V100H300ZM600 200H700V100H600ZM400 700H700V300H600V200H500V500H400ZM0 700H300V500H200V300H100V500H0ZM600 1100H800V1000H900V1100H1000V1000H1100V800H1000V700H700V900H600Z"/>
  <path fill="#ffc107" d="M700 900H800V800H900V900H1100V700H1000V600H700Z"/>
  <path fill="#424242" d="M600 200H700V100H600ZM1000 200H1100V100H1000ZM600 900H800V700H900V800H1100V300H1000V200H700V300H600Z"/>
  <path fill="#e2a610" d="M0 1100H100V1200H600V1100H700V1000H800V800H700V500H600V600H500V500H200V600H100V500H0Z"/>
  <path fill="#fdd835" d="M700 500H800V400H700ZM0 600H100V500H0ZM200 600H500V500H200ZM600 600H700V500H600Z"/>
  <path fill="#a8e3f0" d="M700 1000H800V800H700Z"/>
  <path fill="#757575" d="M700 500H800V200H700Z"/>
  <path fill="#9e740b" d="M200 900H300V1100H400V900H500V700H200Z"/>
  <path fill="#ffee58" d="M700 900H800V800H700Z"/>
  <path fill="#4e342e" d="M200 800H300V1000H400V800H500V700H200Z"/>
</svg>
