<?xml version="1.0" encoding="UTF-8"?>
<svg xmlns="http://www.w3.org/2000/svg" viewBox="0 0 1200 1200" width="1200" height="1200">
  <title>emoji_u1f1f5_1f1fe</title>
  <path fill="#0038a8" d="M0 1000H1100V700H0Z"/>
  <path fill="#d52b1e" d="M0 600H1100V300H0Z"/>
  <path fill="#a9bce2" d="M0 800H500V600H0ZM600 800H1100V600H600Z"/>
  <path fill="#f1b7b3" d="M0 700H500V500H0ZM600 700H1100V500H600Z"/>
  <path fill="#ffffff" d="M0 700H400V800H500V500H400V600H0ZM600 800H700V700H1100V600H700V500H600Z"/>
  <path fill="#a7bae0" d="M400 800H700V600H400Z"/>
  <path fill="#efb6b1" d="M400 700H700V500H400Z"/>
  <path fill="#99acd1" d="M400 700H500V800H600V700H700V600H400Z"/>
  <path fill="#d89f9a" d="M400 700H700V600H600V500H500V600H400Z"/>
  <path fill="#ececec" d="M400 700H700V600H400Z"/>
  <path fill="#b0c0ad" d="M500 700H600V600H500Z"/>
</svg>
