<?xml version="1.0" encoding="UTF-8"?>
<svg xmlns="http://www.w3.org/2000/svg" viewBox="0 0 1200 1200" width="1200" height="1200">
  <title>emoji_u1f9c4</title>
  <path fill="#e1bec3" d="M400 300H500V600H600V700H700V800H900V1000H1100V700H1000V600H800V500H700V100H400Z"/>
  <path fill="#e9d5d6" d="M0 1000H100V1100H200V1200H500V1000H200V800H400V700H500V400H400V500H300V600H100V700H0Z"/>
  <path fill="#e4c4c8" d="M400 400H600V200H500V100H400Z"/>
  <path fill="#e6cacd" d="M400 600H600V200H500V300H400Z"/>
  <path fill="#ceafba" d="M100 1100H300V900H500V800H600V700H700V500H600V300H500V500H400V600H300V700H200V900H100ZM600 1100H800V1200H900V1100H1000V1000H1100V900H1000V800H600Z"/>
  <path fill="#e0c3ca" d="M200 1100H400V1200H900V700H800V600H700V500H600V600H500V700H400V800H300V700H200ZM700 1000V900H800V1000Z"/>
  <path fill="#aa8ca3" d="M500 400H600V200H500Z"/>
  <path fill="#edddde" d="M600 600H700V500H600ZM300 700H400V600H300ZM500 700H600V600H500ZM700 700H800V600H700ZM100 1000H200V1100H400V1000H300V700H100ZM400 800H500V700H400ZM600 800H700V700H600ZM700 1100H900V1000H1000V700H800V1000H700ZM400 1000H500V900H400ZM600 1000H700V900H600Z"/>
  <path fill="#f5f0f1" d="M400 1000H500V1100H600V1000H700V700H600V600H500V700H400ZM800 900H900V700H800Z"/>
</svg>
