<?xml version="1.0" encoding="UTF-8"?>
<svg xmlns="http://www.w3.org/2000/svg" viewBox="0 0 1200 1200" width="1200" height="1200">
  <title>emoji_u1f913</title>
  <path fill="#eb8f00" d="M0 1000H100V1100H200V1200H900V1100H1000V1000H1100V300H1000V200H900V100H200V200H100V300H0Z"/>
  <path fill="#35220b" d="M0 400H100V800H200V1000H300V1100H800V1000H900V800H1000V400H1100V300H900V200H200V300H0Z"/>
  <path fill="#fde030" d="M200 300H500V400H600V300H900V200H200ZM200 600H300V500H400V600H500V400H200ZM600 600H700V500H800V600H900V400H600ZM100 1000H200V1100H900V1000H1000V600H900V700H600V600H500V700H200V600H100ZM300 900V800H400V900H700V1000H400V900ZM700 900V800H800V900Z"/>
  <path fill="#ffffff" d="M400 900H700V800H400Z"/>
</svg>
