<?xml version="1.0" encoding="UTF-8"?>
<svg xmlns="http://www.w3.org/2000/svg" viewBox="0 0 1200 1200" width="1200" height="1200">
  <title>emoji_u1f9bf</title>
  <path fill="#537f94" d="M0 1200H500V1000H100V1100H0Z"/>
  <path fill="#babcbb" d="M500 300H1000V100H500Z"/>
  <path fill="#7497a5" d="M200 800H300V900H400V800H600V500H700V300H400V200H300V300H200ZM300 700V500H400V700Z"/>
  <path fill="#d3cac3" d="M300 400H700V200H600V100H400V200H300Z"/>
  <path fill="#466b7d" d="M500 200H600V100H500ZM300 400H400V700H500V600H600V500H1000V300H900V200H600V300H500V200H400V300H300ZM500 500V400H600V500ZM100 1100H200V1200H400V1100H500V900H200V1000H100Z"/>
  <path fill="#90a4ae" d="M700 300H800V400H900V500H1000V400H1100V200H1000V100H900V200H700ZM400 400H600V500H700V300H500V200H400ZM200 1100H400V1000H500V900H400V800H300V900H200Z"/>
  <path fill="#3a6f8a" d="M400 700H500V500H400ZM300 900H400V800H300Z"/>
  <path fill="#546e7a" d="M400 400H500V200H400Z"/>
  <path fill="#dcdad6" d="M800 400H900V300H1000V200H800Z"/>
  <path fill="#c2b5a8" d="M900 300H1000V200H900ZM400 400H500V300H400ZM800 400H900V300H800ZM300 1100H400V1000H300Z"/>
</svg>
