<?xml version="1.0" encoding="UTF-8"?>
<svg xmlns="http://www.w3.org/2000/svg" viewBox="0 0 1200 1200" width="1200" height="1200">
  <title>emoji_u1f52f</title>
  <path fill="#8e24aa" d="M0 1100H100V1200H1000V1100H1100V200H1000V100H900V1000H0Z"/>
  <path fill="#fafafa" d="M0 1100H500V1200H600V1100H1000V1000H1100V900H1000V400H1100V300H1000V200H800V100H300V200H0Z"/>
  <path fill="#ab47bc" d="M0 300H400V200H500V100H100V200H0ZM600 200H700V300H1000V100H600ZM500 300H600V200H500ZM0 900H100V700H200V600H100V400H0ZM200 500H300V400H200ZM300 800H400V900H700V800H800V500H700V400H400V500H300ZM500 700V600H600V700ZM800 500H900V400H800ZM900 700H1000V600H900ZM200 900H300V800H200ZM800 900H900V800H800ZM0 1100H400V1000H0ZM500 1100H600V1000H500ZM700 1100H1000V1000H700Z"/>
  <path fill="#c37dcf" d="M200 300H300V200H200Z"/>
</svg>
