<?xml version="1.0" encoding="UTF-8"?>
<svg xmlns="http://www.w3.org/2000/svg" viewBox="0 0 1200 1200" width="1200" height="1200">
  <title>emoji_u1f3e1</title>
  <path fill="#5a9821" d="M0 1100H200V800H100V900H0ZM800 1100H1100V1000H1000V900H900V800H800Z"/>
  <path fill="#b0b0b0" d="M300 1200H800V1000H300Z"/>
  <path fill="#728037" d="M100 1200H400V1100H500V900H200V1000H100ZM600 1100H700V1200H1000V1000H900V900H600Z"/>
  <path fill="#b7d118" d="M0 1200H200V1100H300V900H200V800H300V700H400V600H500V400H400V200H300V100H100V200H0V800H100V1000H0ZM800 1100H900V1200H1100V1000H900V900H800Z"/>
  <path fill="#875b50" d="M100 1000H200V1100H300V700H100Z"/>
  <path fill="#ed6c31" d="M100 800H200V900H300V800H400V700H500V600H600V700H700V800H800V900H900V800H1000V700H900V600H800V500H700V400H600V300H500V400H400V500H300V600H200V700H100Z"/>
  <path fill="#5f4e47" d="M200 1100H300V1000H400V700H200ZM700 1000H800V1100H900V700H700Z"/>
  <path fill="#ab5832" d="M200 800H300V900H400V800H500V700H600V800H700V900H800V800H900V700H800V600H700V500H600V400H500V500H400V600H300V700H200Z"/>
  <path fill="#ab5932" d="M300 1000H400V1100H700V700H300Z"/>
  <path fill="#fff3e1" d="M300 1000H400V800H600V900H500V1000H600V1100H700V1000H800V700H700V600H600V500H500V600H400V700H300Z"/>
  <path fill="#ffba02" d="M500 1000H600V900H500Z"/>
  <path fill="#bcaa93" d="M500 600H600V500H500ZM400 700H500V600H400ZM600 700H700V600H600ZM300 800H400V700H300ZM700 800H800V700H700Z"/>
</svg>
