<?xml version="1.0" encoding="UTF-8"?>
<svg xmlns="http://www.w3.org/2000/svg" viewBox="0 0 1200 1200" width="1200" height="1200">
  <title>emoji_u1f35c</title>
  <path fill="#d4d2d6" d="M0 1000H100V1100H200V1200H900V1100H1000V1000H1100V600H1000V500H600V700H900V900H800V1000H300V900H200V700H500V400H300V500H100V600H0Z"/>
  <path fill="#ae5731" d="M200 400H300V500H600V400H1000V300H700V200H1000V100H200V200H400V300H200ZM100 300H200V200H100Z"/>
  <path fill="#363b34" d="M700 800H800V900H1000V800H1100V700H1000V500H900V600H700Z"/>
  <path fill="#fca72e" d="M100 800H200V900H700V800H800V600H700V500H600V300H700V200H400V300H500V400H400V300H300V500H400V600H100Z"/>
  <path fill="#ff635f" d="M0 800H100V1000H1000V800H900V700H600V800H500V700H400V800H300V700H200V600H100V700H0ZM1000 800H1100V700H1000Z"/>
  <path fill="#709823" d="M100 700H200V600H100ZM200 800H300V700H200Z"/>
  <path fill="#f6f6f6" d="M800 800H900V700H800ZM100 1000H200V1100H900V1000H1000V800H900V900H200V800H100Z"/>
  <path fill="#ffffff" d="M500 700H600V600H500ZM600 800H900V700H800V600H700V700H600ZM200 800H300V700H200ZM100 900H200V800H100ZM200 1000H300V900H200Z"/>
  <path fill="#fec56c" d="M500 300H600V200H500ZM400 500H500V400H400ZM500 700H600V500H500ZM300 700H400V600H300ZM200 800H300V700H200ZM400 800H500V700H400Z"/>
  <path fill="#a7c32f" d="M200 800H300V700H200Z"/>
  <path fill="#fe8d06" d="M700 800H800V700H700Z"/>
</svg>
