<?xml version="1.0" encoding="UTF-8"?>
<svg xmlns="http://www.w3.org/2000/svg" viewBox="0 0 1200 1200" width="1200" height="1200">
  <title>emoji_u1f5dc</title>
  <path fill="#b9e4ea" d="M700 800H1000V700H1100V600H800V700H700Z"/>
  <path fill="#2f7889" d="M400 1000H700V900H600V800H800V700H700V200H800V100H500V700H400V800H500V900H400ZM0 1100H100V1200H200V1100H400V1000H200V900H100V1000H0ZM700 1100H900V1200H1000V1100H1100V1000H1000V900H900V1000H700Z"/>
  <path fill="#82aec0" d="M300 800H1000V700H600V200H800V300H1100V200H1000V100H300V200H400V700H300ZM100 1000H200V900H100ZM300 1100H400V1200H700V1100H800V1000H700V900H400V1000H300ZM0 1100H100V1000H0Z"/>
  <path fill="#94d1e0" d="M800 200H900V100H800ZM900 300H1000V200H900ZM500 1100H600V1000H500Z"/>
</svg>
