<?xml version="1.0" encoding="UTF-8"?>
<svg xmlns="http://www.w3.org/2000/svg" viewBox="0 0 1200 1200" width="1200" height="1200">
  <title>emoji_u270f</title>
  <path fill="#fdd835" d="M300 500H400V600H500V700H600V800H700V900H800V1000H1100V900H1000V800H900V700H800V600H700V500H600V400H500V300H400V200H300Z"/>
  <path fill="#ffa000" d="M100 500H200V600H300V700H400V800H500V900H600V1000H700V1100H800V1200H900V900H800V800H700V700H600V600H500V500H400V400H100Z"/>
  <path fill="#ff8383" d="M0 400H200V300H300V100H100V200H0Z"/>
  <path fill="#616161" d="M900 1200H1100V1000H900Z"/>
  <path fill="#ffecb3" d="M800 1200H1000V1100H1100V900H800Z"/>
  <path fill="#ef5350" d="M0 400H100V500H300V400H400V200H300V100H200V200H100V300H0Z"/>
  <path fill="#94d1e0" d="M100 500H300V600H400V500H500V400H400V200H300V300H200V400H100Z"/>
  <path fill="#b9e4ea" d="M300 300H400V200H300ZM200 400H300V300H200ZM300 500H400V400H300Z"/>
  <path fill="#d1762c" d="M300 600H400V700H500V800H600V900H700V1000H800V1100H900V1000H1000V900H900V800H800V700H700V600H600V500H500V400H300Z"/>
  <path fill="#f19534" d="M300 500H400V600H500V700H600V800H700V900H800V1000H1000V900H900V800H800V700H700V600H600V500H500V400H300Z"/>
  <path fill="#ffc107" d="M300 500H400V400H300ZM400 600H500V500H400ZM500 700H600V600H500ZM600 800H700V700H600ZM700 900H800V800H700ZM800 1000H900V900H800Z"/>
</svg>
