<?xml version="1.0" encoding="UTF-8"?>
<svg xmlns="http://www.w3.org/2000/svg" viewBox="0 0 1200 1200" width="1200" height="1200">
  <title>emoji_u1f3b7</title>
  <path fill="#616161" d="M800 500H900V400H1000V300H1100V200H900V100H800Z"/>
  <path fill="#fb8c00" d="M400 900H700V700H800V400H900V100H800V200H700V500H600V700H500V600H400Z"/>
  <path fill="#ffca28" d="M0 700H100V1100H200V1200H500V1100H600V1000H700V800H800V600H900V100H800V300H700V600H600V800H500V500H400V400H100V500H0Z"/>
  <path fill="#dd7341" d="M100 600H400V500H100Z"/>
  <path fill="#fff9c4" d="M200 1000H300V700H200Z"/>
</svg>
