<?xml version="1.0" encoding="UTF-8"?>
<svg xmlns="http://www.w3.org/2000/svg" viewBox="0 0 1200 1200" width="1200" height="1200">
  <title>emoji_u1f1f3_1f1e6</title>
  <path fill="#d4193c" d="M800 500H1100V300H800ZM0 1000H300V800H0Z"/>
  <path fill="#01367f" d="M0 500H300V300H0Z"/>
  <path fill="#083a7c" d="M100 500H400V300H200V400H100Z"/>
  <path fill="#305895" d="M600 500H900V300H600Z"/>
  <path fill="#30a564" d="M200 1000H500V800H200Z"/>
  <path fill="#a7887f" d="M900 600H1100V300H1000V400H900Z"/>
  <path fill="#a86e90" d="M0 1000H100V900H200V700H0Z"/>
  <path fill="#b76888" d="M700 500H1000V400H900V300H800V400H700Z"/>
  <path fill="#b77c7c" d="M100 900H200V1000H300V900H400V800H100Z"/>
  <path fill="#003580" d="M0 800H100V900H200V800H300V600H600V500H800V400H700V300H300V400H100V300H0Z"/>
  <path fill="#009543" d="M300 900H400V1000H1100V500H1000V400H900V500H800V600H600V700H500V800H300Z"/>
  <path fill="#d21034" d="M1000 400H1100V300H1000ZM100 900H500V800H700V700H900V600H1000V400H600V500H400V600H200V700H100ZM0 1000H100V900H0Z"/>
  <path fill="#d52243" d="M800 600H1000V400H900V500H800ZM100 900H200V800H300V700H100Z"/>
  <path fill="#093c85" d="M400 600H700V400H500V500H400Z"/>
  <path fill="#09994a" d="M400 900H600V800H700V700H400Z"/>
  <path fill="#184374" d="M200 600H500V500H400V400H200Z"/>
  <path fill="#526657" d="M100 600H200V700H300V400H100Z"/>
  <path fill="#596a9d" d="M100 800H300V600H200V700H100Z"/>
  <path fill="#59a776" d="M800 700H900V600H1000V500H800Z"/>
  <path fill="#747a46" d="M100 500H200V600H300V400H100Z"/>
  <path fill="#80729c" d="M500 600H700V500H800V400H600V500H500Z"/>
  <path fill="#809e7f" d="M300 900H500V800H600V700H400V800H300Z"/>
  <path fill="#b09e28" d="M200 600H400V500H300V400H200Z"/>
  <path fill="#d63c58" d="M200 800H300V700H200ZM400 800H500V700H400ZM300 900H400V800H300Z"/>
  <path fill="#d73a59" d="M700 500H800V400H700ZM600 600H700V500H600ZM800 600H900V500H800Z"/>
  <path fill="#d31337" d="M500 600H600V700H800V600H700V500H500ZM300 700H400V800H600V700H500V600H300Z"/>
  <path fill="#0a3b7b" d="M200 700H500V500H200Z"/>
  <path fill="#144589" d="M200 800H300V700H400V600H300V500H200Z"/>
  <path fill="#149d51" d="M700 700H900V500H800V600H700Z"/>
  <path fill="#416099" d="M300 700H500V600H600V500H400V600H300Z"/>
  <path fill="#41a76c" d="M500 800H700V700H800V600H600V700H500Z"/>
  <path fill="#8f8b38" d="M200 600H300V500H200ZM300 700H400V600H300Z"/>
  <path fill="#c3607e" d="M500 600H600V500H500ZM400 700H500V600H400ZM600 700H700V600H600Z"/>
  <path fill="#c36e76" d="M400 700H500V600H400ZM600 700H700V600H600ZM500 800H600V700H500Z"/>
  <path fill="#ce5471" d="M300 700H400V600H300ZM200 800H300V700H200Z"/>
  <path fill="#ce5c6d" d="M800 600H900V500H800ZM700 700H800V600H700Z"/>
  <path fill="#d72f4e" d="M300 700H500V600H300ZM600 700H800V600H600Z"/>
  <path fill="#937097" d="M300 700H400V600H300Z"/>
  <path fill="#939480" d="M700 700H800V600H700Z"/>
</svg>
