<?xml version="1.0" encoding="UTF-8"?>
<svg xmlns="http://www.w3.org/2000/svg" viewBox="0 0 1200 1200" width="1200" height="1200">
  <title>emoji_u1f1f2_1f1f2</title>
  <path fill="#ea2839" d="M0 1000H1100V700H700V800H400V700H0Z"/>
  <path fill="#fecb00" d="M0 600H1100V300H0Z"/>
  <path fill="#78ba22" d="M0 700H300V500H0ZM800 700H1100V500H800Z"/>
  <path fill="#34b233" d="M0 800H400V500H200V600H0ZM700 800H1100V600H900V500H700Z"/>
  <path fill="#728335" d="M0 800H300V900H500V600H300V700H0ZM600 900H800V800H1100V700H800V600H600Z"/>
  <path fill="#ea2a3b" d="M300 900H800V800H700V700H400V800H300Z"/>
  <path fill="#f27782" d="M400 900H500V800H600V900H700V700H400Z"/>
  <path fill="#fed73c" d="M400 600H700V500H600V400H500V500H400Z"/>
  <path fill="#79bb22" d="M200 600H300V700H400V500H200ZM700 700H800V600H900V500H700Z"/>
  <path fill="#81be2b" d="M300 700H500V500H300ZM600 700H800V500H600Z"/>
  <path fill="#85bf2e" d="M300 700H800V600H700V500H400V600H300Z"/>
  <path fill="#c5d7b5" d="M300 700H400V800H700V700H800V600H300Z"/>
  <path fill="#f9f7dd" d="M400 700H700V600H600V500H500V600H400Z"/>
  <path fill="#fde8ea" d="M400 700H500V800H600V700H700V600H400Z"/>
  <path fill="#7acc79" d="M300 700H500V600H300ZM600 700H800V600H600Z"/>
  <path fill="#f0f9f0" d="M400 700H700V600H400Z"/>
  <path fill="#ffffff" d="M500 700H600V600H500Z"/>
</svg>
