<?xml version="1.0" encoding="UTF-8"?>
<svg xmlns="http://www.w3.org/2000/svg" viewBox="0 0 1200 1200" width="1200" height="1200">
  <title>emoji_u1f308</title>
  <path fill="#ff5117" d="M0 1200H200V900H300V700H400V600H500V500H600V400H800V300H1100V100H700V200H500V300H400V400H300V500H200V600H100V800H0Z"/>
  <path fill="#8177fa" d="M400 1200H600V1100H700V900H800V800H1000V700H1100V500H900V600H700V700H600V800H500V1000H400Z"/>
  <path fill="#00c0e9" d="M300 1200H500V1100H600V900H700V800H800V700H1000V600H1100V400H800V500H600V600H500V700H400V900H300Z"/>
  <path fill="#ff8e00" d="M100 1200H300V1000H400V800H500V700H600V600H700V500H900V400H1100V200H700V300H500V400H400V500H300V600H200V800H100Z"/>
  <path fill="#97cc37" d="M200 1200H400V1000H500V800H600V700H700V600H900V500H1100V300H800V400H600V500H500V600H400V700H300V900H200Z"/>
  <path fill="#f9d81e" d="M200 1200H300V1000H400V800H500V700H600V600H700V500H900V400H1100V300H800V400H600V500H500V600H400V700H300V900H200Z"/>
</svg>
