<?xml version="1.0" encoding="UTF-8"?>
<svg xmlns="http://www.w3.org/2000/svg" viewBox="0 0 1200 1200" width="1200" height="1200">
  <title>emoji_u1faa2</title>
  <path fill="#81d4fa" d="M100 800H200V1100H400V1000H700V1100H800V1000H900V800H1000V600H900V400H1000V300H900V200H1000V100H800V200H300V100H100V200H200V600H100ZM300 700V600H500V400H600V600H700V700H600V800H500V700Z"/>
  <path fill="#c62828" d="M100 800H500V700H400V600H500V500H400V400H300V200H200V300H100V500H200V700H100ZM400 300H500V400H600V500H700V700H600V800H900V500H1000V300H800V400H700V300H800V200H400ZM100 1200H300V1100H400V1000H300V900H200V1100H100ZM700 1100H800V1200H1000V1100H900V900H700Z"/>
  <path fill="#ef5350" d="M200 400H300V300H500V200H200ZM600 300H800V200H600ZM500 400H600V300H500ZM600 500H700V600H800V500H900V400H1000V300H800V400H600ZM100 500H200V400H100ZM300 500H400V400H300ZM200 600H300V500H200ZM400 600H500V500H400ZM300 700H400V600H300ZM600 800H700V1100H800V1000H900V900H800V800H900V600H800V700H600ZM200 800H300V700H200ZM400 800H500V700H400ZM500 900H600V800H500ZM200 1000H300V900H200ZM400 1000H500V900H400ZM300 1100H400V1000H300ZM200 1200H300V1100H200ZM800 1200H900V1100H800Z"/>
  <path fill="#45a8dd" d="M200 300H400V200H200ZM700 300H800V200H700ZM800 400H900V300H800ZM300 500H400V400H300ZM600 500H800V400H600ZM400 600H500V500H400ZM100 800H300V700H100ZM800 800H900V700H800ZM500 900H600V800H500ZM700 1000H800V800H700ZM400 1000H500V900H400Z"/>
</svg>
