<?xml version="1.0" encoding="UTF-8"?>
<svg xmlns="http://www.w3.org/2000/svg" viewBox="0 0 1200 1200" width="1200" height="1200">
  <title>emoji_u1f68b</title>
  <path fill="#607d8b" d="M0 200H200V300H300V200H400V300H500V200H1100V100H0Z"/>
  <path fill="#455a64" d="M0 1100H100V1200H300V1100H400V1000H0ZM700 1100H800V1200H1000V1100H1100V1000H700Z"/>
  <path fill="#82aec0" d="M300 200H400V100H300ZM100 400H600V300H500V200H400V300H300V200H200V300H100ZM0 1100H1100V900H0Z"/>
  <path fill="#bdbdbd" d="M0 500H1100V400H1000V300H100V400H0Z"/>
  <path fill="#ffca28" d="M0 1000H1100V600H800V700H300V600H0Z"/>
  <path fill="#eeeeee" d="M0 800H100V700H200V800H300V700H500V600H600V700H800V800H900V700H1000V800H1100V400H0Z"/>
  <path fill="#bae2fd" d="M0 800H100V500H0ZM200 800H900V500H800V600H700V500H400V600H300V500H200ZM1000 800H1100V500H1000Z"/>
  <path fill="#37474f" d="M200 800H300V900H400V800H700V900H800V800H900V700H800V600H700V700H400V600H300V700H200ZM0 800H100V700H0ZM1000 800H1100V700H1000Z"/>
  <path fill="#9e740b" d="M400 600H700V500H400ZM300 1000H800V600H700V900H400V600H300Z"/>
</svg>
