<?xml version="1.0" encoding="UTF-8"?>
<svg xmlns="http://www.w3.org/2000/svg" viewBox="0 0 1200 1200" width="1200" height="1200">
  <title>emoji_u1f364</title>
  <path fill="#ed6d30" d="M0 800H100V900H200V1000H300V1100H400V1000H500V800H300V500H200V600H100V500H0Z"/>
  <path fill="#e17f13" d="M300 1100H400V1200H500V1100H600V1200H700V1100H900V1000H1000V900H1100V800H1000V700H1100V600H1000V500H1100V300H1000V200H900V300H700V800H400V900H300Z"/>
  <path fill="#d63102" d="M100 800H200V600H100Z"/>
  <path fill="#fcc11a" d="M400 900H500V1000H600V900H700V1000H900V900H1000V800H900V700H800V600H900V500H1000V200H900V100H600V200H500V500H600V700H500V800H400ZM800 500V400H900V500ZM900 700H1000V600H900ZM300 1000H400V900H300ZM400 1100H500V1000H400ZM600 1100H700V1000H600Z"/>
</svg>
