<?xml version="1.0" encoding="UTF-8"?>
<svg xmlns="http://www.w3.org/2000/svg" viewBox="0 0 1200 1200" width="1200" height="1200">
  <title>emoji_u1f9d1_200d_1f527</title>
  <path fill="#8198a3" d="M0 800H100V600H0ZM200 800H300V600H200ZM100 1200H200V800H100Z"/>
  <path fill="#543930" d="M400 800H500V900H600V300H400ZM900 800H1000V700H1100V300H900Z"/>
  <path fill="#1372c3" d="M400 400H500V500H600V400H700V300H800V400H900V500H1000V400H1100V200H1000V100H500V200H400Z"/>
  <path fill="#212c89" d="M400 1200H700V800H500V900H400ZM800 1200H1100V900H1000V800H800Z"/>
  <path fill="#4c8eea" d="M500 400H1000V300H900V200H800V100H700V200H600V300H500Z"/>
  <path fill="#5261ba" d="M500 900H600V1200H900V900H1000V700H500Z"/>
  <path fill="#f5f5f5" d="M700 1200H800V800H700Z"/>
  <path fill="#ffca28" d="M500 800H700V900H800V800H1000V400H500Z"/>
  <path fill="#5e97f6" d="M500 500H600V600H700V500H800V600H900V500H1000V300H500Z"/>
  <path fill="#404040" d="M600 700H700V500H600ZM800 700H900V500H800Z"/>
  <path fill="#e59600" d="M700 900H800V800H700Z"/>
</svg>
