<?xml version="1.0" encoding="UTF-8"?>
<svg xmlns="http://www.w3.org/2000/svg" viewBox="0 0 1200 1200" width="1200" height="1200">
  <title>emoji_u1fad1</title>
  <path fill="#e0e080" d="M400 500H700V300H600V100H500V300H400Z"/>
  <path fill="#50872c" d="M100 1000H200V1200H400V1100H500V1200H600V1100H700V1200H900V1000H1000V600H900V500H600V700H500V500H200V600H100Z"/>
  <path fill="#558b2f" d="M500 300H600V200H500ZM200 600H400V700H700V600H900V400H700V300H600V400H500V300H400V400H200Z"/>
  <path fill="#c4c451" d="M500 300H600V200H500ZM500 500H600V400H500ZM400 600H500V500H400ZM600 600H700V500H600Z"/>
  <path fill="#7cb342" d="M100 700H200V1000H300V1100H400V800H500V1100H600V800H700V1100H800V1000H900V700H1000V500H900V400H800V500H600V600H500V500H300V400H200V500H100ZM300 800V600H400V800ZM700 800V600H800V800Z"/>
  <path fill="#abd979" d="M200 700H300V600H200ZM800 700H900V600H800Z"/>
</svg>
