<?xml version="1.0" encoding="UTF-8"?>
<svg xmlns="http://www.w3.org/2000/svg" viewBox="0 0 1200 1200" width="1200" height="1200">
  <title>emoji_u1f936_1f3fc</title>
  <path fill="#e53a31" d="M100 400H700V500H800V700H1100V600H1000V400H900V300H800V200H700V100H300V200H200V300H100Z"/>
  <path fill="#969696" d="M0 1200H300V1000H200V700H400V400H0ZM500 700H700V1000H600V1200H900V800H1000V600H900V400H500Z"/>
  <path fill="#f5f5f5" d="M0 500H300V600H600V500H900V400H800V300H100V400H0ZM900 800H1000V700H1100V600H900Z"/>
  <path fill="#e0bb95" d="M100 1100H200V1200H700V1100H800V600H600V500H300V600H100Z"/>
  <path fill="#c48e6a" d="M100 800H200V700H100ZM700 800H800V700H700ZM200 1000H300V900H200ZM600 1000H700V900H600ZM100 1100H200V1000H100ZM300 1100H400V1000H300ZM500 1100H600V1000H500ZM700 1100H800V1000H700Z"/>
  <path fill="#4c4035" d="M300 800H400V600H300ZM500 800H600V600H500ZM300 1100H600V1000H300Z"/>
</svg>
