<?xml version="1.0" encoding="UTF-8"?>
<svg xmlns="http://www.w3.org/2000/svg" viewBox="0 0 1200 1200" width="1200" height="1200">
  <title>emoji_u1f52e</title>
  <path fill="#a5b0e8" d="M100 400H400V300H800V400H1100V300H1000V200H900V100H300V200H200V300H100Z"/>
  <path fill="#8b5738" d="M100 1200H400V1000H100ZM500 1200H1100V1000H500Z"/>
  <path fill="#9ab7ec" d="M100 600H300V300H100ZM900 600H1100V300H900Z"/>
  <path fill="#90b9ee" d="M100 800H300V400H200V500H100ZM900 800H1100V500H1000V400H900Z"/>
  <path fill="#8ebaee" d="M100 900H300V600H200V700H100ZM900 900H1100V700H1000V600H900Z"/>
  <path fill="#a86d44" d="M100 1100H300V1200H600V1100H700V1200H800V1100H900V1200H1000V1100H1100V800H900V900H800V1000H400V900H300V800H100Z"/>
  <path fill="#ffb17a" d="M100 900H200V1000H300V1100H900V1000H1000V900H1100V800H1000V700H900V800H800V900H400V800H300V700H200V800H100Z"/>
  <path fill="#5753be" d="M200 400H1000V300H900V200H300V300H200Z"/>
  <path fill="#efeef9" d="M200 600H400V500H500V400H600V300H500V200H400V300H200Z"/>
  <path fill="#cec9eb" d="M200 700H400V400H300V500H200ZM700 700H1000V400H700Z"/>
  <path fill="#5e58bf" d="M200 400H300V300H200ZM300 500H1000V300H400V400H300Z"/>
  <path fill="#8cbaee" d="M200 900H300V1000H900V900H1000V700H800V800H400V700H200Z"/>
  <path fill="#e8e7f6" d="M600 600H800V500H900V600H1000V400H900V300H800V400H600Z"/>
  <path fill="#6961c4" d="M200 800H1000V500H900V600H800V500H300V600H200Z"/>
  <path fill="#6d70cc" d="M200 800H300V900H900V800H1000V700H200Z"/>
  <path fill="#6d54be" d="M300 600H800V500H700V400H300ZM900 600H1000V500H900Z"/>
  <path fill="#7885d7" d="M300 900H900V800H300Z"/>
  <path fill="#6258bf" d="M300 500H700V400H300Z"/>
</svg>
