<?xml version="1.0" encoding="UTF-8"?>
<svg xmlns="http://www.w3.org/2000/svg" viewBox="0 0 1200 1200" width="1200" height="1200">
  <title>emoji_u1f5bc</title>
  <path fill="#f2a600" d="M0 1200H1100V100H900V1000H0Z"/>
  <path fill="#e18e16" d="M0 300H1000V200H1100V100H0Z"/>
  <path fill="#de7340" d="M0 1200H100V1100H200V200H0Z"/>
  <path fill="#ffcd40" d="M100 1100H1000V200H800V900H100Z"/>
  <path fill="#d1762c" d="M100 400H900V300H1000V200H100Z"/>
  <path fill="#a65f3e" d="M100 1100H200V1000H300V300H100Z"/>
  <path fill="#ffffff" d="M200 1000H900V300H200Z"/>
  <path fill="#689f38" d="M500 900H800V600H600V700H500Z"/>
  <path fill="#2e7d32" d="M400 900H600V800H700V700H400Z"/>
  <path fill="#8bc34a" d="M300 900H500V800H600V600H500V500H300Z"/>
  <path fill="#5fb2de" d="M300 600H400V700H500V800H700V700H800V400H300ZM600 600V500H700V600Z"/>
  <path fill="#c9e3e6" d="M500 600H600V500H500Z"/>
</svg>
