<?xml version="1.0" encoding="UTF-8"?>
<svg xmlns="http://www.w3.org/2000/svg" viewBox="0 0 1200 1200" width="1200" height="1200">
  <title>emoji_u1f1fc_1f1eb</title>
  <path fill="#002395" d="M0 600H200V300H0Z"/>
  <path fill="#38338e" d="M0 700H200V400H100V500H0Z"/>
  <path fill="#8999ce" d="M100 600H300V300H100Z"/>
  <path fill="#fef2f3" d="M100 600H400V300H200V500H100Z"/>
  <path fill="#ed2939" d="M0 1000H1100V300H300V500H100V600H0Z"/>
  <path fill="#ee3948" d="M300 600H500V300H400V500H300ZM600 800H800V500H600Z"/>
  <path fill="#a18eba" d="M100 600H300V500H100Z"/>
  <path fill="#f15864" d="M700 800H900V500H700Z"/>
  <path fill="#f6979e" d="M600 700H700V800H800V700H900V600H800V500H700V600H600Z"/>
  <path fill="#ee3847" d="M200 600H500V500H200Z"/>
  <path fill="#ee3c4b" d="M400 600H500V500H400Z"/>
  <path fill="#f8aeb4" d="M700 700H900V600H700Z"/>
  <path fill="#fbd3d6" d="M200 600H300V500H200Z"/>
  <path fill="#f2606c" d="M600 700H800V600H600Z"/>
  <path fill="#f68c94" d="M600 700H700V600H600Z"/>
</svg>
