<?xml version="1.0" encoding="UTF-8"?>
<svg xmlns="http://www.w3.org/2000/svg" viewBox="0 0 1200 1200" width="1200" height="1200">
  <title>emoji_u1f983</title>
  <path fill="#ffeac9" d="M400 600H700V500H800V800H700V1100H800V1000H900V900H1000V800H1100V700H1000V600H1100V400H1000V300H900V200H700V300H600V400H500V300H400Z"/>
  <path fill="#858585" d="M200 1100H300V1200H400V1100H600V1200H700V1100H800V1000H200Z"/>
  <path fill="#a22911" d="M0 500H300V300H400V100H200V200H100V400H0Z"/>
  <path fill="#ff2219" d="M0 900H300V700H200V600H300V400H0V500H100V600H0Z"/>
  <path fill="#898484" d="M0 500H200V600H300V300H200V400H0Z"/>
  <path fill="#fe5d5a" d="M200 600H300V700H500V200H400V100H300V200H200V300H300V400H200Z"/>
  <path fill="#845b52" d="M0 900H100V1000H200V1100H800V900H900V800H1000V700H900V600H1000V400H900V300H700V400H600V500H500V800H400V700H200V800H0Z"/>
  <path fill="#ffffff" d="M300 500H400V600H600V500H500V400H400V300H300Z"/>
  <path fill="#5ea4ce" d="M200 500H400V200H200ZM400 600H500V500H400Z"/>
  <path fill="#4d4d4d" d="M700 400H900V300H700ZM600 500H700V400H600ZM900 600H1000V400H900ZM200 800H300V900H600V800H900V600H800V500H700V600H600V500H400V600H300V700H200Z"/>
  <path fill="#000306" d="M200 400H300V300H200ZM500 700H600V600H500ZM700 700H800V600H700ZM600 800H700V700H600ZM500 900H600V800H500Z"/>
  <path fill="#b79277" d="M700 700H800V500H700ZM200 800H300V900H600V800H400V700H200Z"/>
</svg>
