<?xml version="1.0" encoding="UTF-8"?>
<svg xmlns="http://www.w3.org/2000/svg" viewBox="0 0 1200 1200" width="1200" height="1200">
  <title>emoji_u1f9dc_1f3fd_200d_2640</title>
  <path fill="#983ba1" d="M0 900H100V1100H200V900H400V800H300V700H200V800H100V700H0ZM200 1200H800V1100H900V1000H600V900H400V1000H300V1100H200Z"/>
  <path fill="#c37af3" d="M0 900H100V800H0ZM200 900H400V800H200ZM100 1000H200V900H100ZM400 1000H500V900H400ZM300 1100H400V1000H300ZM500 1100H600V1200H700V1100H800V1000H500ZM200 1200H300V1100H200ZM400 1200H500V1100H400Z"/>
  <path fill="#b346bd" d="M300 900H600V500H900V900H1100V200H1000V100H500V200H400V800H300Z"/>
  <path fill="#eda600" d="M800 1100H900V1000H1000V900H1100V800H1000V700H900V800H800ZM300 900H400V1000H500V1100H600V800H300Z"/>
  <path fill="#ba8d68" d="M500 1100H900V800H1000V400H800V300H600V400H500Z"/>
  <path fill="#ac8264" d="M400 900H1000V700H500V800H400Z"/>
  <path fill="#d27ee0" d="M400 900H500V1000H600V900H800V1000H900V900H1000V800H400Z"/>
  <path fill="#49362e" d="M600 600H700V400H600ZM800 600H900V400H800Z"/>
  <path fill="#af5cc8" d="M500 900H600V800H500ZM800 900H900V800H800Z"/>
</svg>
