<?xml version="1.0" encoding="UTF-8"?>
<svg xmlns="http://www.w3.org/2000/svg" viewBox="0 0 1200 1200" width="1200" height="1200">
  <title>emoji_u1faa5</title>
  <path fill="#e85c10" d="M100 1200H300V1100H400V1000H500V900H600V800H700V700H900V600H1000V500H1100V300H1000V200H900V300H800V400H700V500H600V700H500V800H400V900H300V1000H200V1100H100Z"/>
  <path fill="#fb8c00" d="M600 700H700V600H800V500H900V400H1000V200H800V300H700V400H600ZM500 800H600V700H500ZM400 900H500V800H400ZM300 1000H400V900H300ZM200 1100H300V1000H200ZM100 1200H200V1100H100Z"/>
  <path fill="#a5ceda" d="M500 500H600V600H700V500H800V400H900V300H1000V200H900V100H800V200H700V300H600V400H500Z"/>
  <path fill="#f1f1f1" d="M800 300H900V200H800ZM700 400H800V300H700ZM600 500H700V400H600Z"/>
</svg>
