<?xml version="1.0" encoding="UTF-8"?>
<svg xmlns="http://www.w3.org/2000/svg" viewBox="0 0 1200 1200" width="1200" height="1200">
  <title>emoji_u1f1f9_1f1ec</title>
  <path fill="#d31337" d="M0 600H200V500H400V300H0Z"/>
  <path fill="#d21134" d="M0 400H100V500H300V400H200V300H0Z"/>
  <path fill="#006a4e" d="M0 1000H1100V300H400V800H0Z"/>
  <path fill="#98a61f" d="M400 600H1100V400H500V300H400ZM0 900H1100V700H0Z"/>
  <path fill="#d21034" d="M0 400H100V300H0ZM0 800H500V300H300V400H100V500H0Z"/>
  <path fill="#f6a90a" d="M0 800H500V600H400V700H300V600H100V700H0Z"/>
  <path fill="#cdbb0f" d="M400 800H1100V700H500V600H1100V500H500V400H400Z"/>
  <path fill="#11634c" d="M300 500H400V800H500V300H400V400H300Z"/>
  <path fill="#9d9a21" d="M300 500H400V600H500V400H300Z"/>
  <path fill="#d31639" d="M200 600H300V500H400V400H200ZM400 600H500V500H400Z"/>
  <path fill="#e46d83" d="M100 600H300V400H100Z"/>
  <path fill="#e67b8f" d="M100 600H300V400H200V500H100Z"/>
  <path fill="#e78294" d="M100 700H300V500H100Z"/>
  <path fill="#d31437" d="M100 700H300V500H200V600H100Z"/>
  <path fill="#cdad12" d="M400 600H500V500H400Z"/>
  <path fill="#d1b90f" d="M400 800H500V700H400Z"/>
  <path fill="#ea8d9e" d="M200 600H300V500H200Z"/>
</svg>
