<?xml version="1.0" encoding="UTF-8"?>
<svg xmlns="http://www.w3.org/2000/svg" viewBox="0 0 1200 1200" width="1200" height="1200">
  <title>emoji_u1f976</title>
  <path fill="#0967d7" d="M0 1100H100V1200H200V1100H300V1200H400V1100H700V1200H800V1100H900V1200H1000V1100H1100V300H1000V200H900V100H200V200H100V300H0Z"/>
  <path fill="#b1e3ff" d="M200 1000H300V1200H400V1000H600V1100H700V1200H800V1000H900V800H200Z"/>
  <path fill="#d3f1fa" d="M200 1000H300V900H200ZM800 1000H900V900H800ZM100 1100H200V1000H100ZM900 1100H1000V1000H900Z"/>
  <path fill="#99f6fe" d="M100 900H200V1000H300V900H500V1000H600V900H800V1000H900V900H1000V300H900V200H200V300H100Z"/>
  <path fill="#b3b3b3" d="M300 900H800V700H300Z"/>
  <path fill="#ffffff" d="M400 800H500V700H400ZM600 800H700V700H600ZM300 900H400V800H300ZM500 900H600V800H500ZM700 900H800V800H700Z"/>
  <path fill="#0241bc" d="M300 600H400V400H300ZM700 600H800V400H700Z"/>
</svg>
