<?xml version="1.0" encoding="UTF-8"?>
<svg xmlns="http://www.w3.org/2000/svg" viewBox="0 0 1200 1200" width="1200" height="1200">
  <title>emoji_u1f6e9</title>
  <path fill="#799fae" d="M800 200H900V100H800ZM900 300H1000V200H900ZM800 400H900V300H800ZM1000 400H1100V300H1000Z"/>
  <path fill="#3b5361" d="M600 500H700V600H900V300H600Z"/>
  <path fill="#9a9a9a" d="M0 1000H200V1200H300V1100H400V900H300V800H100V900H0Z"/>
  <path fill="#c8c8c8" d="M0 1000H100V1100H200V1200H300V1000H400V900H600V800H700V900H800V800H900V500H800V400H700V300H400V400H300V500H400V600H300V800H200V900H0Z"/>
  <path fill="#00c1e9" d="M200 400H300V500H500V400H600V300H500V200H400V100H300V200H200ZM600 500H700V400H600ZM500 600H600V500H500ZM700 600H800V500H700ZM600 700H700V600H600ZM700 900H800V1000H1000V900H1100V800H1000V700H900V600H800V700H700Z"/>
  <path fill="#e0e0e0" d="M400 800H600V700H700V600H800V400H600V500H500V600H400ZM200 1000H300V900H200ZM100 1100H200V1000H100Z"/>
</svg>
