<?xml version="1.0" encoding="UTF-8"?>
<svg xmlns="http://www.w3.org/2000/svg" viewBox="0 0 1200 1200" width="1200" height="1200">
  <title>emoji_u1f1ec_1f1f9</title>
  <path fill="#ffffff" d="M300 600H800V300H300ZM300 1000H800V700H300Z"/>
  <path fill="#4997d0" d="M0 1000H400V300H0ZM700 1000H1100V300H700Z"/>
  <path fill="#86bae0" d="M300 1000H400V800H500V500H400V300H300ZM600 800H700V1000H800V300H700V500H600Z"/>
  <path fill="#eaeae4" d="M400 800H700V600H400Z"/>
  <path fill="#dde1d1" d="M400 700H500V800H600V700H700V600H400Z"/>
  <path fill="#eaecdb" d="M400 700H700V500H400Z"/>
  <path fill="#eef2eb" d="M400 700H600V600H500V500H400Z"/>
  <path fill="#f0f3ee" d="M500 700H700V500H600V600H500Z"/>
  <path fill="#ccd7c3" d="M500 700H700V600H500Z"/>
  <path fill="#d6ddcf" d="M400 700H600V600H400Z"/>
  <path fill="#e4dfb7" d="M500 700H600V600H500Z"/>
</svg>
