<?xml version="1.0" encoding="UTF-8"?>
<svg xmlns="http://www.w3.org/2000/svg" viewBox="0 0 1200 1200" width="1200" height="1200">
  <title>emoji_u1f3de</title>
  <path fill="#7bd1f8" d="M0 500H200V300H300V500H800V600H900V700H1100V100H0Z"/>
  <path fill="#b4d218" d="M0 1200H200V900H300V1200H1100V600H900V800H800V600H900V400H800V300H600V400H500V600H400V800H300V600H0Z"/>
  <path fill="#85dafb" d="M0 1100H100V1200H500V1100H400V900H500V600H200V800H100V900H0Z"/>
  <path fill="#e0e0e0" d="M0 700H200V500H300V700H600V500H700V400H800V300H700V200H600V400H400V200H300V100H200V200H100V400H0Z"/>
  <path fill="#00c1ed" d="M100 700H200V800H300V700H400V900H500V700H600V500H500V600H400V500H200V600H100ZM100 900H200V800H100ZM0 1100H100V900H0ZM300 1100H400V900H300ZM100 1200H200V1100H100ZM400 1200H500V1100H400Z"/>
  <path fill="#0a7e1d" d="M700 400H800V300H700ZM500 700H700V800H600V900H800V1000H900V900H1100V800H1000V700H1100V600H1000V500H900V400H800V500H700V600H600V500H500ZM0 700H300V600H400V500H100V600H0Z"/>
  <path fill="#fffffe" d="M300 400H400V300H500V200H300ZM800 300H1000V200H800ZM700 400H800V300H700Z"/>
  <path fill="#79a5ab" d="M100 700H200V600H400V200H200V400H100ZM700 400H800V300H700ZM600 500H700V400H600ZM500 700H600V500H500ZM700 600H800V500H700Z"/>
  <path fill="#02ab47" d="M200 600H300V500H200ZM700 600H900V500H700ZM100 700H200V600H100ZM500 700H600V600H500ZM700 800H900V700H700Z"/>
  <path fill="#ace4fe" d="M200 600H300V400H200Z"/>
</svg>
