<?xml version="1.0" encoding="UTF-8"?>
<svg xmlns="http://www.w3.org/2000/svg" viewBox="0 0 1200 1200" width="1200" height="1200">
  <title>emoji_u1f325</title>
  <path fill="#bacdd2" d="M0 1000H100V1100H1000V1000H1100V800H0Z"/>
  <path fill="#fcc11a" d="M100 600H200V700H500V600H600V500H800V400H700V200H600V100H200V200H100Z"/>
  <path fill="#e2ebee" d="M0 900H100V1000H300V900H500V1000H700V900H900V1000H1000V900H1100V800H1000V600H900V500H800V400H500V500H400V600H200V700H100V800H0Z"/>
  <path fill="#fee269" d="M300 300H400V200H300ZM200 400H300V300H200Z"/>
</svg>
