<?xml version="1.0" encoding="UTF-8"?>
<svg xmlns="http://www.w3.org/2000/svg" viewBox="0 0 1200 1200" width="1200" height="1200">
  <title>emoji_u1f1fa_1f1fe</title>
  <path fill="#c7d3ec" d="M400 500H1100V300H400ZM0 1000H1100V800H0Z"/>
  <path fill="#ffffff" d="M0 500H200V300H0Z"/>
  <path fill="#cbd6ed" d="M300 500H600V400H500V300H300Z"/>
  <path fill="#f5efe7" d="M100 500H400V300H100Z"/>
  <path fill="#f5f0e9" d="M0 600H200V300H100V400H0Z"/>
  <path fill="#f8f4ef" d="M100 500H300V400H200V300H100Z"/>
  <path fill="#faf7f4" d="M0 700H200V400H100V500H0Z"/>
  <path fill="#fefefe" d="M200 500H500V400H400V300H300V400H200Z"/>
  <path fill="#7190ce" d="M400 600H1100V400H400ZM0 900H1100V700H0Z"/>
  <path fill="#567bc5" d="M0 800H1100V500H500V400H400V600H0Z"/>
  <path fill="#e2e8f5" d="M0 700H500V500H100V600H0Z"/>
  <path fill="#c4d1eb" d="M400 700H1100V600H500V500H400Z"/>
  <path fill="#7c98d2" d="M300 600H500V400H300Z"/>
  <path fill="#c49933" d="M100 600H400V400H100Z"/>
  <path fill="#c49a3d" d="M100 600H300V500H200V400H100Z"/>
  <path fill="#c9a34f" d="M100 700H300V500H100Z"/>
  <path fill="#dde1eb" d="M100 700H300V500H200V600H100Z"/>
  <path fill="#f3ece2" d="M200 600H500V500H400V400H300V500H200Z"/>
  <path fill="#6385ca" d="M300 600H400V700H500V500H300Z"/>
  <path fill="#c49c43" d="M200 700H300V600H400V500H200Z"/>
  <path fill="#dbdee7" d="M300 600H400V500H300ZM200 700H300V600H200Z"/>
  <path fill="#f7f3ec" d="M300 600H400V500H300ZM400 700H500V600H400Z"/>
  <path fill="#c6d3ec" d="M400 700H500V600H400Z"/>
</svg>
