<?xml version="1.0" encoding="UTF-8"?>
<svg xmlns="http://www.w3.org/2000/svg" viewBox="0 0 1200 1200" width="1200" height="1200">
  <title>emoji_u1f578</title>
  <path fill="#5e6367" d="M500 200H600V100H500ZM0 300H100V200H0ZM300 300H500V200H300ZM600 300H800V200H600ZM1000 300H1100V200H1000ZM100 1000H300V900H200V800H300V500H200V400H300V300H100V600H200V700H100ZM500 500H600V300H500ZM800 1000H1000V700H900V600H1000V300H800V400H900V500H800V800H900V900H800ZM300 500H400V400H300ZM700 500H800V400H700ZM400 800H500V700H600V800H700V500H600V600H500V500H400ZM300 900H400V800H300ZM500 1000H600V800H500ZM700 900H800V800H700ZM0 1100H100V1000H0ZM300 1100H500V1000H300ZM600 1100H800V1000H600ZM1000 1100H1100V1000H1000ZM500 1200H600V1100H500Z"/>
</svg>
