<?xml version="1.0" encoding="UTF-8"?>
<svg xmlns="http://www.w3.org/2000/svg" viewBox="0 0 1200 1200" width="1200" height="1200">
  <title>emoji_u1f1ee_1f1f8</title>
  <path fill="#02529c" d="M0 600H1100V300H0ZM0 1000H1100V700H0Z"/>
  <path fill="#c98a9f" d="M300 600H600V500H500V300H300ZM300 1000H500V800H600V700H300Z"/>
  <path fill="#da8595" d="M200 600H500V500H400V300H300V500H200ZM200 800H300V1000H400V800H500V700H200Z"/>
  <path fill="#4781b7" d="M0 800H1100V500H0Z"/>
  <path fill="#e45264" d="M0 700H300V800H500V700H1100V600H500V500H300V600H0Z"/>
  <path fill="#d492a3" d="M300 800H500V500H300Z"/>
  <path fill="#df8997" d="M300 800H400V700H500V600H400V500H300Z"/>
  <path fill="#e0394d" d="M300 700H500V600H300Z"/>
  <path fill="#e13d51" d="M400 700H500V600H400Z"/>
</svg>
