<?xml version="1.0" encoding="UTF-8"?>
<svg xmlns="http://www.w3.org/2000/svg" viewBox="0 0 1200 1200" width="1200" height="1200">
  <title>emoji_u1f69a</title>
  <path fill="#fdedc5" d="M0 900H200V600H0Z"/>
  <path fill="#4e433d" d="M0 1100H200V1200H300V1100H500V900H400V800H100V900H0ZM600 1100H800V1200H900V1100H1100V900H1000V800H700V900H600Z"/>
  <path fill="#e0e0e0" d="M0 1000H200V900H500V600H300V500H500V200H400V300H200V400H100V500H0V700H100V800H0Z"/>
  <path fill="#b10a1b" d="M0 1100H100V1000H200V900H300V1000H400V1100H500V800H100V900H0ZM200 1100H300V1000H200Z"/>
  <path fill="#dc0d28" d="M300 900H400V1000H500V700H400V800H300ZM100 900H200V800H100ZM0 1000H100V900H0Z"/>
  <path fill="#b3afaf" d="M300 700H400V1100H500V1000H600V1100H700V1000H800V900H900V1000H1000V1100H1100V600H300ZM800 1100H900V1000H800Z"/>
  <path fill="#df8728" d="M300 700H1100V100H400V400H300Z"/>
  <path fill="#9a9a9a" d="M400 900H1100V800H400Z"/>
  <path fill="#c8c8c8" d="M200 1100H300V1000H200ZM800 1100H900V1000H800Z"/>
  <path fill="#afe3fb" d="M100 700H400V400H200V500H100Z"/>
  <path fill="#f5b03a" d="M500 600H600V200H500ZM700 600H800V200H700ZM900 600H1000V200H900Z"/>
  <path fill="#5f6369" d="M100 700H400V600H100Z"/>
</svg>
