<?xml version="1.0" encoding="UTF-8"?>
<svg xmlns="http://www.w3.org/2000/svg" viewBox="0 0 1200 1200" width="1200" height="1200">
  <title>emoji_u1f622</title>
  <path fill="#eb8f00" d="M0 1000H200V1200H900V1100H1000V1000H1100V300H1000V200H900V100H200V200H100V300H0Z"/>
  <path fill="#44b3e6" d="M0 1100H100V1200H300V1100H500V700H400V600H100V900H0Z"/>
  <path fill="#81d4fa" d="M300 1000H400V1100H500V800H400V900H300ZM200 1100H300V1000H200Z"/>
  <path fill="#fde030" d="M100 800H200V700H300V800H400V1100H900V1000H1000V300H900V200H200V300H100Z"/>
  <path fill="#422b0d" d="M200 500H300V400H400V300H200ZM700 400H800V500H900V300H700ZM300 700H400V500H300ZM700 700H800V500H700ZM400 900H700V800H400ZM700 1000H800V900H700Z"/>
</svg>
