<?xml version="1.0" encoding="UTF-8"?>
<svg xmlns="http://www.w3.org/2000/svg" viewBox="0 0 1200 1200" width="1200" height="1200">
  <title>emoji_u1f1e9_1f1ff</title>
  <path fill="#80b199" d="M400 500H700V300H400ZM400 1000H700V800H400Z"/>
  <path fill="#006233" d="M0 1000H500V900H600V800H500V700H400V600H500V500H600V400H500V300H0Z"/>
  <path fill="#ffffff" d="M500 900H600V1000H1100V300H600V400H500V500H600V800H500Z"/>
  <path fill="#095e33" d="M300 600H600V400H400V500H300ZM300 800H400V900H600V700H300Z"/>
  <path fill="#928d82" d="M400 600H700V400H500V500H400ZM400 800H500V900H700V700H400Z"/>
  <path fill="#fdf5f6" d="M500 600H700V400H600V500H500ZM500 800H600V900H700V700H500Z"/>
  <path fill="#0f5c33" d="M300 800H500V500H300Z"/>
  <path fill="#9b2634" d="M300 700H400V800H600V500H400V600H300Z"/>
  <path fill="#9b968c" d="M400 700H500V800H700V500H500V600H400Z"/>
  <path fill="#f8d8de" d="M500 700H600V800H700V700H800V600H700V500H600V600H500Z"/>
  <path fill="#3f4933" d="M300 700H500V600H300Z"/>
  <path fill="#6c3834" d="M400 700H600V600H400Z"/>
  <path fill="#75796a" d="M500 700H700V600H500Z"/>
  <path fill="#e5788c" d="M600 700H800V600H600Z"/>
  <path fill="#fffdfe" d="M700 700H800V600H700Z"/>
</svg>
