<?xml version="1.0" encoding="UTF-8"?>
<svg xmlns="http://www.w3.org/2000/svg" viewBox="0 0 1200 1200" width="1200" height="1200">
  <title>emoji_u1f690</title>
  <path fill="#d90512" d="M900 1100H1100V700H900Z"/>
  <path fill="#ffeaca" d="M0 1000H200V600H0Z"/>
  <path fill="#5e6367" d="M0 1100H300V800H100V900H0ZM800 1100H1100V1000H1000V800H800ZM400 1100H700V900H400Z"/>
  <path fill="#4e433d" d="M100 1100H200V1200H400V1100H500V1000H600V1100H700V1200H900V1100H1000V1000H900V900H1000V800H600V900H500V800H100V900H200V1000H100Z"/>
  <path fill="#e0e0e0" d="M0 700H100V900H1000V800H1100V200H1000V100H200V200H300V300H200V500H100V600H0Z"/>
  <path fill="#ffffff" d="M300 200H400V100H300ZM100 700H1000V500H600V600H500V500H300V600H100Z"/>
  <path fill="#c8c8c8" d="M400 1000H500V900H400ZM600 1000H700V900H600ZM200 1100H400V1000H200ZM700 1100H900V1000H700Z"/>
  <path fill="#b0b0b0" d="M300 900H400V1000H700V900H800V800H300Z"/>
  <path fill="#afe3fb" d="M300 600H500V300H400V400H300ZM600 600H1000V300H600Z"/>
  <path fill="#9b9c94" d="M100 900H1000V800H100Z"/>
  <path fill="#5f6367" d="M300 600H500V500H300ZM600 600H1000V500H600Z"/>
</svg>
