<?xml version="1.0" encoding="UTF-8"?>
<svg xmlns="http://www.w3.org/2000/svg" viewBox="0 0 1200 1200" width="1200" height="1200">
  <title>emoji_u1f9f6</title>
  <path fill="#d81b60" d="M600 400H700V500H800V800H1000V300H900V200H800V100H600ZM100 800H200V900H300V1000H600V800H300V600H100Z"/>
  <path fill="#ff80ab" d="M200 900H500V600H600V100H300V400H200ZM100 1100H200V900H100ZM1000 1100H1100V1000H1000ZM200 1200H1000V1100H200Z"/>
  <path fill="#ec407a" d="M400 600H600V800H500V1000H800V900H900V800H1000V700H900V500H1000V300H900V400H800V300H700V200H800V100H500V500H400ZM800 300H900V200H800Z"/>
  <path fill="#880e4f" d="M100 700H200V800H300V500H400V100H300V200H200V300H100ZM500 400H600V100H500ZM700 200H800V100H700ZM800 300H900V200H800ZM300 900H500V1000H600V900H800V800H1000V700H900V500H800V600H700V500H800V300H700V400H600V500H400V800H300ZM700 800V700H800V800ZM900 500H1000V400H900Z"/>
  <path fill="#f06292" d="M300 300H400V200H300ZM100 600H200V500H300V400H200V300H100ZM500 700H700V600H600V500H500ZM200 700H300V600H200ZM400 800H500V700H400ZM500 900H600V800H500Z"/>
</svg>
