<?xml version="1.0" encoding="UTF-8"?>
<svg xmlns="http://www.w3.org/2000/svg" viewBox="0 0 1200 1200" width="1200" height="1200">
  <title>emoji_u1f605</title>
  <path fill="#eb8f00" d="M0 1000H100V1100H200V1200H900V1100H1000V1000H1100V300H1000V100H200V200H100V300H0Z"/>
  <path fill="#81d4fa" d="M700 400H800V500H1000V400H1100V200H1000V100H900V200H700Z"/>
  <path fill="#27b0f4" d="M900 300H1000V100H900ZM700 500H800V600H1000V400H900V300H800V200H700ZM1000 400H1100V300H1000Z"/>
  <path fill="#fde030" d="M100 1000H200V1100H900V1000H1000V500H900V400H800V200H200V300H100Z"/>
  <path fill="#ed7770" d="M300 1000H800V800H300Z"/>
  <path fill="#422b0d" d="M300 500H400V400H300ZM700 500H800V400H700ZM200 600H300V500H200ZM400 600H500V500H400ZM600 600H700V500H600ZM800 600H900V500H800ZM200 900H300V1000H400V900H700V1000H800V900H900V700H800V800H300V700H200Z"/>
</svg>
