<?xml version="1.0" encoding="UTF-8"?>
<svg xmlns="http://www.w3.org/2000/svg" viewBox="0 0 1200 1200" width="1200" height="1200">
  <title>emoji_u264e</title>
  <path fill="#388e3c" d="M300 1100H400V1200H700V1100H900V1000H1000V800H1100V500H1000V400H900V700H800V900H600V1000H300Z"/>
  <path fill="#94d097" d="M0 600H400V400H500V100H400V200H200V300H100V500H0Z"/>
  <path fill="#66bb6a" d="M0 800H100V1000H200V1100H700V1000H900V800H1000V300H900V200H700V100H400V300H300V500H0ZM200 300H300V200H200ZM100 400H200V300H100Z"/>
  <path fill="#aee4b2" d="M400 300H600V200H400ZM300 500H400V300H300Z"/>
  <path fill="#fafafa" d="M500 300H700V200H500ZM700 500H800V300H700ZM300 500H400V400H300ZM200 700H500V500H400V600H200ZM600 700H900V600H700V500H600ZM200 900H900V800H200Z"/>
</svg>
