<?xml version="1.0" encoding="UTF-8"?>
<svg xmlns="http://www.w3.org/2000/svg" viewBox="0 0 1200 1200" width="1200" height="1200">
  <title>emoji_u1f4ea</title>
  <path fill="#c87d5e" d="M400 1200H700V900H400Z"/>
  <path fill="#874d36" d="M300 800H400V1000H600V1100H700V800H800V700H300Z"/>
  <path fill="#f44336" d="M700 600H900V700H1100V300H700Z"/>
  <path fill="#1976d2" d="M0 800H1100V600H1000V500H800V400H1100V300H1000V200H900V100H200V200H100V300H0Z"/>
  <path fill="#0d47a1" d="M100 400H200V500H400V300H100ZM600 500H700V600H1000V500H800V400H600ZM1000 700H1100V600H1000Z"/>
  <path fill="#4fc3f7" d="M300 200H400V100H300ZM400 300H500V200H400ZM100 400H400V300H100ZM500 800H600V500H700V300H500Z"/>
  <path fill="#ffffff" d="M600 500H800V300H600Z"/>
  <path fill="#e0e0e0" d="M600 500H800V300H700V400H600Z"/>
</svg>
