<?xml version="1.0" encoding="UTF-8"?>
<svg xmlns="http://www.w3.org/2000/svg" viewBox="0 0 1200 1200" width="1200" height="1200">
  <title>emoji_u1f362</title>
  <path fill="#bf9177" d="M400 1000H500V1100H600V1200H700V900H400Z"/>
  <path fill="#937672" d="M0 600H100V500H200V400H300V300H400V200H500V100H0ZM400 400H500V300H400ZM200 600H300V500H200Z"/>
  <path fill="#e0c290" d="M400 800H500V900H700V1100H800V1000H900V900H1000V800H700V700H600V600H400ZM900 1100H1000V1000H900ZM1000 1200H1100V1100H1000Z"/>
  <path fill="#ffa62b" d="M200 700H300V800H500V700H600V600H700V400H500V500H200ZM700 700H800V600H700ZM600 800H700V700H600ZM500 900H600V800H500Z"/>
  <path fill="#7b5e5a" d="M0 500H100V400H300V200H400V100H100V200H200V300H100V200H0ZM300 500H400V400H300Z"/>
  <path fill="#fac96d" d="M400 1000H600V1200H700V1100H800V900H1000V800H1100V700H1000V600H900V500H800V600H700V700H600V800H500V900H400Z"/>
  <path fill="#f7c876" d="M200 600H300V700H500V600H600V500H700V400H600V300H400V400H300V500H200Z"/>
  <path fill="#ffedc4" d="M800 700H900V600H800ZM700 800H800V700H700ZM900 800H1000V700H900ZM600 900H700V800H600ZM800 900H900V800H800ZM400 1000H600V900H400ZM700 1000H800V900H700ZM600 1100H700V1000H600Z"/>
  <path fill="#fefffe" d="M300 600H400V500H300Z"/>
</svg>
