<?xml version="1.0" encoding="UTF-8"?>
<svg xmlns="http://www.w3.org/2000/svg" viewBox="0 0 1200 1200" width="1200" height="1200">
  <title>emoji_u1f3e2</title>
  <path fill="#c8c8c8" d="M0 300H100V1100H300V300H800V1100H1000V300H1100V200H800V100H300V200H0Z"/>
  <path fill="#9a9a9a" d="M200 400H900V200H200ZM100 1200H1000V1000H800V700H300V1000H100Z"/>
  <path fill="#6ca4ab" d="M100 1100H400V800H700V1100H1000V1000H900V900H1000V800H900V700H1000V600H900V500H1000V400H900V300H200V400H100V500H200V600H100V700H200V800H100V900H200V1000H100Z"/>
  <path fill="#536f7b" d="M500 1100H600V900H500Z"/>
  <path fill="#e1e1e1" d="M200 1100H300V1000H400V900H300V800H800V900H700V1000H800V1100H900V300H200ZM300 500V400H400V500ZM500 500V400H600V500ZM700 500V400H800V500ZM300 700V600H400V700ZM500 700V600H600V700ZM700 700V600H800V700Z"/>
</svg>
