<?xml version="1.0" encoding="UTF-8"?>
<svg xmlns="http://www.w3.org/2000/svg" viewBox="0 0 1200 1200" width="1200" height="1200">
  <title>emoji_u1f931_1f3fe</title>
  <path fill="#957e73" d="M600 1200H1000V1000H600Z"/>
  <path fill="#4c12cf" d="M200 800H700V900H900V700H800V500H200ZM100 1200H600V1000H300V900H100ZM800 1100H900V1200H1000V1000H800Z"/>
  <path fill="#5227d8" d="M100 1000H200V1100H300V900H500V600H400V700H300V600H400V500H200V800H100ZM700 1100H1000V900H900V800H800V700H700Z"/>
  <path fill="#3c2c23" d="M200 600H400V500H600V600H800V200H700V100H300V200H200Z"/>
  <path fill="#875334" d="M300 600H400V800H600V1000H500V1200H700V1100H800V700H600V600H700V500H300Z"/>
  <path fill="#a56c43" d="M300 600H700V400H600V300H400V400H300ZM300 900H400V1100H500V1200H600V1100H700V1000H800V900H700V800H800V700H400V800H300Z"/>
  <path fill="#bdd99b" d="M200 1100H600V900H200Z"/>
  <path fill="#a7a7a7" d="M400 1000H500V1100H900V1000H800V900H400Z"/>
  <path fill="#dcdcdc" d="M400 1000H600V900H500V800H400ZM700 1000H800V900H700ZM600 1100H700V1000H600ZM800 1100H900V1000H800Z"/>
  <path fill="#c9e3aa" d="M200 1000H500V800H200Z"/>
  <path fill="#ab9eee" d="M400 900H500V800H400Z"/>
</svg>
