<?xml version="1.0" encoding="UTF-8"?>
<svg xmlns="http://www.w3.org/2000/svg" viewBox="0 0 1200 1200" width="1200" height="1200">
  <title>emoji_u1f435</title>
  <path fill="#b6885a" d="M0 700H100V1000H200V1100H900V1000H1000V700H1100V500H1000V300H900V200H700V100H400V200H200V300H100V500H0Z"/>
  <path fill="#ffcd88" d="M200 900H300V1000H800V900H900V700H800V600H900V400H800V300H700V400H400V300H300V400H200V600H300V700H200ZM0 700H100V500H0ZM1000 700H1100V500H1000Z"/>
  <path fill="#ff6b17" d="M400 900H700V800H400Z"/>
  <path fill="#393531" d="M300 600H400V400H300ZM700 600H800V400H700ZM500 700H600V600H500Z"/>
</svg>
