<?xml version="1.0" encoding="UTF-8"?>
<svg xmlns="http://www.w3.org/2000/svg" viewBox="0 0 1200 1200" width="1200" height="1200">
  <title>emoji_u1f349</title>
  <path fill="#c1ca32" d="M0 400H200V100H100V200H0ZM0 800H200V500H0ZM200 1000H300V1100H400V1200H1000V1000H600V900H200Z"/>
  <path fill="#7a9c41" d="M0 800H100V900H200V1000H500V1100H400V1200H600V1100H700V1200H800V1100H900V1200H1000V1100H1100V900H900V1000H700V900H500V800H400V700H300V500H200V300H300V100H100V300H0V600H100V700H0Z"/>
  <path fill="#fff6a0" d="M100 600H200V800H300V900H400V1000H600V1100H1000V1000H1100V900H1000V800H900V900H700V800H500V700H400V500H300V300H400V200H300V100H200V200H100Z"/>
  <path fill="#ff6c75" d="M200 600H300V800H400V900H600V1000H1000V800H900V700H800V600H700V500H600V400H500V300H400V200H200Z"/>
  <path fill="#2f2f2f" d="M300 500H400V400H300ZM500 700H600V600H500ZM700 900H800V800H700Z"/>
</svg>
