<?xml version="1.0" encoding="UTF-8"?>
<svg xmlns="http://www.w3.org/2000/svg" viewBox="0 0 1200 1200" width="1200" height="1200">
  <title>emoji_u1f574_1f3fe</title>
  <path fill="#e2e2e2" d="M400 1000H500V900H600V1000H700V800H400Z"/>
  <path fill="#a56c43" d="M300 700H400V800H500V500H600V800H700V700H800V400H700V300H800V200H300V300H400V400H300Z"/>
  <path fill="#3a3a3a" d="M300 300H800V200H700V100H400V200H300ZM300 1200H800V1100H300Z"/>
  <path fill="#464646" d="M300 600H400V900H700V600H800V400H300Z"/>
  <path fill="#ffffff" d="M400 500H500V600H600V500H700V400H400Z"/>
  <path fill="#d32f2f" d="M500 600H600V400H500Z"/>
</svg>
