<?xml version="1.0" encoding="UTF-8"?>
<svg xmlns="http://www.w3.org/2000/svg" viewBox="0 0 1200 1200" width="1200" height="1200">
  <title>emoji_u1f469_1f3fd_200d_1f393</title>
  <path fill="#504f4f" d="M200 300H300V200H200ZM100 600H200V300H100Z"/>
  <path fill="#543930" d="M300 1000H500V700H600V300H300ZM700 700H800V1000H1000V300H700Z"/>
  <path fill="#3d3d3d" d="M200 1200H400V1100H600V800H400V900H300V1000H200ZM700 1100H900V1200H1100V1000H1000V900H900V800H700Z"/>
  <path fill="#434343" d="M300 300H400V400H900V300H1000V200H900V100H400V200H300Z"/>
  <path fill="#212121" d="M200 1200H1100V1100H1000V1000H800V900H500V1000H300V1100H200Z"/>
  <path fill="#242424" d="M200 300H300V400H500V500H800V400H1000V300H1100V200H800V300H500V200H200Z"/>
  <path fill="#222222" d="M300 400H500V300H300ZM800 400H1000V300H800ZM500 600H800V400H500Z"/>
  <path fill="#ba8d68" d="M100 600H200V500H100ZM400 900H500V1000H800V900H900V600H800V500H500V600H400Z"/>
  <path fill="#99674f" d="M500 1000H600V1100H700V1000H800V900H500Z"/>
  <path fill="#49362e" d="M500 800H600V600H500ZM700 800H800V600H700Z"/>
</svg>
