<?xml version="1.0" encoding="UTF-8"?>
<svg xmlns="http://www.w3.org/2000/svg" viewBox="0 0 1200 1200" width="1200" height="1200">
  <title>emoji_u1f1e8_1f1e9</title>
  <path fill="#d24024" d="M900 500H1100V300H900ZM0 1000H200V800H0Z"/>
  <path fill="#1185ef" d="M900 700H1100V400H900ZM0 900H200V600H0Z"/>
  <path fill="#1b88e6" d="M700 500H1000V300H700ZM100 1000H400V800H100Z"/>
  <path fill="#87837a" d="M800 500H1100V400H1000V300H900V400H800ZM0 900H100V1000H200V900H300V800H0Z"/>
  <path fill="#cd4f2c" d="M900 600H1000V500H1100V400H900ZM0 900H200V700H100V800H0Z"/>
  <path fill="#0e84f2" d="M0 500H300V300H0Z"/>
  <path fill="#1185f0" d="M100 500H400V300H200V400H100Z"/>
  <path fill="#007fff" d="M0 700H100V800H200V900H300V1000H1100V600H1000V500H900V400H800V300H300V400H100V300H0Z"/>
  <path fill="#1486ec" d="M0 500H100V600H200V400H0ZM300 500H400V400H300ZM300 700H500V800H700V700H800V600H600V500H400V600H300Z"/>
  <path fill="#1887e9" d="M500 600H800V400H600V500H500ZM300 900H500V800H600V700H300Z"/>
  <path fill="#798989" d="M800 700H900V600H1000V400H800ZM100 900H300V600H200V700H100Z"/>
  <path fill="#83857e" d="M600 600H900V400H700V500H600ZM200 900H400V800H500V700H200Z"/>
  <path fill="#d24326" d="M700 600H900V500H1000V400H800V500H700ZM100 900H300V800H400V700H200V800H100Z"/>
  <path fill="#1687ea" d="M200 600H300V500H400V400H200Z"/>
  <path fill="#72a794" d="M100 600H200V700H300V400H100Z"/>
  <path fill="#a1b868" d="M100 500H200V600H300V400H100Z"/>
  <path fill="#a4b965" d="M200 600H300V400H200Z"/>
  <path fill="#ce1221" d="M900 500H1000V400H900ZM400 800H600V700H700V500H500V600H400ZM800 600H900V500H800ZM200 800H300V700H200ZM100 900H200V800H100Z"/>
  <path fill="#1386ed" d="M200 800H400V600H300V500H200ZM700 700H900V500H700Z"/>
  <path fill="#7f8783" d="M500 600H600V700H700V500H500ZM400 800H600V700H500V600H400Z"/>
  <path fill="#ce1121" d="M600 700H800V600H900V500H600ZM200 800H500V600H300V700H200Z"/>
  <path fill="#cf4c2a" d="M800 600H900V500H800ZM300 700H400V600H300ZM700 700H800V600H700ZM200 800H300V700H200Z"/>
  <path fill="#d14727" d="M600 700H800V600H700V500H600ZM300 700H400V800H500V600H300Z"/>
  <path fill="#74a893" d="M200 600H300V500H200ZM300 700H400V600H300Z"/>
  <path fill="#7b8886" d="M300 700H500V600H300ZM600 700H800V600H600Z"/>
  <path fill="#cf4a29" d="M400 700H500V600H400ZM600 700H700V600H600Z"/>
</svg>
