<?xml version="1.0" encoding="UTF-8"?>
<svg xmlns="http://www.w3.org/2000/svg" viewBox="0 0 1200 1200" width="1200" height="1200">
  <title>emoji_u1f31e</title>
  <path fill="#fdd733" d="M400 300H700V200H600V100H500V200H400ZM100 300H200V200H100ZM900 300H1000V200H900ZM200 400H300V300H200ZM800 400H900V300H800ZM0 700H100V800H200V500H100V600H0ZM900 800H1000V700H1100V600H1000V500H900ZM200 1000H300V900H200ZM800 1000H900V900H800ZM100 1100H200V1000H100ZM400 1100H500V1200H600V1100H700V1000H400ZM900 1100H1000V1000H900Z"/>
  <path fill="#fdd531" d="M100 800H200V1000H400V1100H700V1000H900V800H1000V500H900V300H700V200H400V300H200V500H100Z"/>
  <path fill="#ffb908" d="M400 300H700V200H400ZM200 400H300V300H200ZM800 400H900V300H800ZM100 800H300V900H800V800H1000V500H900V700H800V400H300V700H200V500H100ZM200 1000H300V900H200ZM800 1000H900V900H800ZM400 1100H700V1000H400Z"/>
  <path fill="#ffb504" d="M200 800H400V700H200ZM700 800H900V700H700Z"/>
  <path fill="#fba303" d="M300 800H500V700H300ZM600 800H800V700H600Z"/>
  <path fill="#5d4037" d="M400 600H500V500H400ZM600 600H700V500H600ZM400 800H500V700H400ZM600 800H700V700H600ZM500 900H600V800H500Z"/>
</svg>
