<?xml version="1.0" encoding="UTF-8"?>
<svg xmlns="http://www.w3.org/2000/svg" viewBox="0 0 1200 1200" width="1200" height="1200">
  <title>emoji_u1f45b</title>
  <path fill="#e5477d" d="M0 1100H100V1200H1000V1100H1100V900H900V1000H200V900H0Z"/>
  <path fill="#ffe36c" d="M200 400H500V100H400V200H300V300H200Z"/>
  <path fill="#9e740b" d="M400 400H700V100H600V200H500V100H400Z"/>
  <path fill="#e2a610" d="M500 400H900V300H800V200H700V100H600V300H500ZM0 800H300V500H0ZM800 800H1100V500H800Z"/>
  <path fill="#ffca28" d="M0 600H200V700H300V600H800V700H900V600H1100V400H1000V300H500V100H400V300H100V400H0ZM600 200H700V100H600Z"/>
  <path fill="#f65c90" d="M0 1000H100V1100H1000V1000H1100V900H1000V800H100V900H0Z"/>
  <path fill="#fb6396" d="M0 800H100V900H1000V800H1100V700H0Z"/>
  <path fill="#ff689b" d="M0 800H1100V700H900V500H200V700H0Z"/>
  <path fill="#f2578b" d="M100 1100H1000V1000H100Z"/>
  <path fill="#d6336b" d="M400 600H500V800H600V600H700V500H400ZM300 700H400V600H300ZM700 700H800V600H700Z"/>
</svg>
