<?xml version="1.0" encoding="UTF-8"?>
<svg xmlns="http://www.w3.org/2000/svg" viewBox="0 0 1200 1200" width="1200" height="1200">
  <title>emoji_u1f6cb</title>
  <path fill="#c87d5e" d="M100 1100H200V1200H300V1100H400V1000H100ZM700 1100H800V1200H900V1100H1000V1000H700Z"/>
  <path fill="#e6c578" d="M800 300H900V200H1000V100H800ZM1000 400H1100V200H1000Z"/>
  <path fill="#b86f4f" d="M900 800H1100V400H1000V700H900Z"/>
  <path fill="#d49968" d="M1000 500H1100V300H1000Z"/>
  <path fill="#ffd600" d="M600 400H900V100H700V200H600Z"/>
  <path fill="#188ad6" d="M0 1100H1100V700H800V800H700V500H600V600H500V500H400V800H300V700H0Z"/>
  <path fill="#0b52a0" d="M100 800H200V900H300V1000H800V900H900V800H1000V700H900V600H800V800H300V600H200V700H100Z"/>
  <path fill="#3daae0" d="M200 900H900V500H600V800H500V500H200Z"/>
  <path fill="#48cded" d="M200 900H900V800H200Z"/>
</svg>
