<?xml version="1.0" encoding="UTF-8"?>
<svg xmlns="http://www.w3.org/2000/svg" viewBox="0 0 1200 1200" width="1200" height="1200">
  <title>emoji_u1f64d_1f3fd_200d_2640</title>
  <path fill="#5c17f5" d="M100 1200H1000V800H700V900H600V1000H500V900H400V800H100Z"/>
  <path fill="#543930" d="M100 900H300V600H400V500H700V600H800V900H1000V300H900V200H800V100H300V200H200V300H100Z"/>
  <path fill="#99674f" d="M300 1000H400V1100H700V1000H800V900H300Z"/>
  <path fill="#ba8d68" d="M200 900H300V1000H800V900H900V500H800V400H300V500H200Z"/>
  <path fill="#49362e" d="M400 600H500V500H400ZM600 600H700V500H600ZM300 700H400V600H300ZM700 700H800V600H700Z"/>
  <path fill="#5d4037" d="M500 800H600V700H500ZM400 900H500V800H400ZM600 900H700V800H600Z"/>
</svg>
