<?xml version="1.0" encoding="UTF-8"?>
<svg xmlns="http://www.w3.org/2000/svg" viewBox="0 0 1200 1200" width="1200" height="1200">
  <title>emoji_u1f469_1f3fe_200d_1f52c</title>
  <path fill="#c8edfd" d="M0 1100H300V900H200V600H100V900H0Z"/>
  <path fill="#81d4fa" d="M100 700H200V600H100Z"/>
  <path fill="#ffffff" d="M100 1000H200V800H100Z"/>
  <path fill="#3c2c23" d="M400 1000H600V400H900V1000H1100V200H1000V100H500V200H400Z"/>
  <path fill="#b179d0" d="M0 1200H300V1000H200V900H100V1000H0Z"/>
  <path fill="#f5f5f5" d="M400 1200H700V800H500V900H400ZM800 1200H1100V900H1000V800H800Z"/>
  <path fill="#5dbdb4" d="M600 1200H900V900H600Z"/>
  <path fill="#cfcfcf" d="M500 900H600V1200H700V1000H800V1200H900V900H1000V700H800V800H700V700H500Z"/>
  <path fill="#f0f0f0" d="M400 600H500V800H1000V600H1100V400H1000V300H500V400H400Z"/>
  <path fill="#aba093" d="M500 600H700V500H800V600H1000V400H500Z"/>
  <path fill="#a56c43" d="M600 600H700V500H600ZM800 600H900V500H800ZM500 800H600V900H900V800H1000V700H800V600H700V700H500Z"/>
  <path fill="#696e73" d="M600 600H700V400H600ZM800 600H900V400H800Z"/>
  <path fill="#7a4c32" d="M600 900H700V1000H800V900H900V800H600Z"/>
</svg>
