<?xml version="1.0" encoding="UTF-8"?>
<svg xmlns="http://www.w3.org/2000/svg" viewBox="0 0 1200 1200" width="1200" height="1200">
  <title>emoji_u1f3a5</title>
  <path fill="#595858" d="M0 1200H100V1100H200V1000H300V800H200V700H100V600H0ZM800 900H900V800H1000V900H1100V600H1000V700H900V600H800Z"/>
  <path fill="#504f4f" d="M100 500H200V600H300V800H200V1000H300V1200H900V500H1000V300H900V200H700V300H600V200H500V100H200V200H100Z"/>
  <path fill="#3a3a3a" d="M200 1000H300V800H200ZM400 1100H800V900H400Z"/>
  <path fill="#6bea10" d="M700 1100H800V900H700Z"/>
  <path fill="#e70a1d" d="M700 1000H800V900H700Z"/>
  <path fill="#3f3f3f" d="M200 500H500V200H200ZM700 500H900V300H700ZM500 600H700V500H500Z"/>
  <path fill="#636262" d="M300 400H400V300H300ZM800 400H900V300H800ZM700 500H800V400H700Z"/>
</svg>
