<?xml version="1.0" encoding="UTF-8"?>
<svg xmlns="http://www.w3.org/2000/svg" viewBox="0 0 1200 1200" width="1200" height="1200">
  <title>emoji_u1f3b0</title>
  <path fill="#ffd61c" d="M200 300H900V100H200Z"/>
  <path fill="#9a9a9a" d="M0 1100H100V1200H1000V1100H1100V900H700V1000H400V900H0Z"/>
  <path fill="#cacaca" d="M0 400H1100V200H1000V100H800V200H300V100H100V200H0ZM0 1000H300V1100H800V1000H1100V800H0Z"/>
  <path fill="#ff2b26" d="M0 900H300V700H400V900H700V700H800V900H1100V400H800V300H0Z"/>
  <path fill="#ffffff" d="M0 900H900V700H1000V600H800V500H1100V300H0V400H300V600H200V800H100V600H200V500H0ZM400 500V400H700V600H600V800H500V600H600V500ZM1000 900H1100V700H1000Z"/>
  <path fill="#858585" d="M300 1100H800V1000H300Z"/>
</svg>
