<?xml version="1.0" encoding="UTF-8"?>
<svg xmlns="http://www.w3.org/2000/svg" viewBox="0 0 1200 1200" width="1200" height="1200">
  <title>emoji_u1f1f8_1f1e9</title>
  <path fill="#003c15" d="M0 1000H200V800H0Z"/>
  <path fill="#64432e" d="M0 500H200V300H0Z"/>
  <path fill="#d21034" d="M0 500H200V600H1100V300H100V400H0Z"/>
  <path fill="#000000" d="M0 900H100V1000H1100V700H100V800H0Z"/>
  <path fill="#007229" d="M0 900H200V800H400V500H300V400H0Z"/>
  <path fill="#a9a9a9" d="M300 800H1100V600H300Z"/>
  <path fill="#f0aeba" d="M300 700H1100V500H300Z"/>
  <path fill="#ffffff" d="M300 800H400V700H1100V600H400V500H300Z"/>
  <path fill="#004017" d="M200 800H300V700H200ZM100 900H200V800H100Z"/>
  <path fill="#5b472e" d="M100 500H200V600H300V400H100Z"/>
  <path fill="#d11034" d="M200 600H400V500H300V400H200Z"/>
  <path fill="#256b3e" d="M200 800H400V600H300V700H200Z"/>
  <path fill="#596f4b" d="M200 600H300V700H400V500H200Z"/>
  <path fill="#a6a7a7" d="M300 800H400V600H300Z"/>
  <path fill="#edadb8" d="M300 700H400V500H300Z"/>
  <path fill="#98c6a8" d="M300 700H400V600H300Z"/>
</svg>
