<?xml version="1.0" encoding="UTF-8"?>
<svg xmlns="http://www.w3.org/2000/svg" viewBox="0 0 1200 1200" width="1200" height="1200">
  <title>emoji_u1f336</title>
  <path fill="#dc0d28" d="M100 1100H200V1200H800V1100H900V1000H1000V900H1100V600H900V800H800V900H700V1000H100Z"/>
  <path fill="#98b71e" d="M800 200H900V100H800ZM500 700H900V800H1000V700H1100V400H1000V200H900V300H700V400H600V600H500Z"/>
  <path fill="#ff5117" d="M0 1000H100V1100H800V1000H900V900H1000V600H900V500H700V600H500V800H300V700H200V600H0Z"/>
  <path fill="#ffcb88" d="M700 700H800V600H700ZM600 800H700V700H600Z"/>
</svg>
