<?xml version="1.0" encoding="UTF-8"?>
<svg xmlns="http://www.w3.org/2000/svg" viewBox="0 0 1200 1200" width="1200" height="1200">
  <title>emoji_u1f3b2</title>
  <path fill="#cecece" d="M0 900H100V1000H200V1100H400V1200H700V1100H900V1000H1000V900H1100V400H1000V300H900V200H700V100H400V200H200V300H100V400H0Z"/>
  <path fill="#2f2f2f" d="M600 1000H900V900H1000V500H900V600H700V700H600ZM100 900H200V1000H500V700H400V600H100Z"/>
  <path fill="#eaeaea" d="M200 500H400V600H700V500H900V300H700V200H400V300H200ZM100 900H200V1000H400V1100H500V700H400V600H200V500H100ZM200 800V700H300V800H400V900H300V800ZM900 600H1000V500H900ZM600 1100H700V1000H900V900H1000V700H900V800H800V900H700V800H800V700H900V600H700V700H600Z"/>
  <path fill="#fe4e27" d="M400 400H500V500H600V400H700V300H600V200H500V300H400Z"/>
</svg>
