<?xml version="1.0" encoding="UTF-8"?>
<svg xmlns="http://www.w3.org/2000/svg" viewBox="0 0 1200 1200" width="1200" height="1200">
  <title>emoji_u1f466_1f3fd</title>
  <path fill="#99674f" d="M100 700H200V800H300V900H400V500H100ZM800 900H900V800H1000V700H1100V500H800Z"/>
  <path fill="#5d4037" d="M300 1000H400V1100H800V1000H900V800H300Z"/>
  <path fill="#543930" d="M100 700H200V600H300V700H900V600H1000V700H1100V300H1000V200H900V100H300V200H200V300H100Z"/>
  <path fill="#ba8d68" d="M300 1000H400V900H500V1000H700V900H800V1000H900V500H800V400H600V500H700V600H500V500H400V400H300ZM400 1100H500V1000H400ZM700 1100H800V1000H700Z"/>
  <path fill="#49362e" d="M400 800H500V600H400ZM700 800H800V600H700Z"/>
</svg>
