<?xml version="1.0" encoding="UTF-8"?>
<svg xmlns="http://www.w3.org/2000/svg" viewBox="0 0 1200 1200" width="1200" height="1200">
  <title>emoji_u1f3b3</title>
  <path fill="#d8cec9" d="M300 900H500V1000H400V1100H500V1200H700V1100H800V1200H1000V1100H1100V700H1000V200H900V100H800V700H700V200H600V100H500V200H400V700H300Z"/>
  <path fill="#fc5027" d="M400 600H500V700H700V500H600V400H700V300H600V200H500V300H400V400H500V500H400ZM800 400H1000V300H800ZM800 600H1000V500H800Z"/>
  <path fill="#5e6367" d="M0 1100H100V1200H400V1100H500V800H400V700H100V800H0Z"/>
  <path fill="#474c4f" d="M100 1200H400V1100H600V700H500V800H400V1000H300V1100H200V1000H100ZM200 1000H300V900H200Z"/>
  <path fill="#efeeec" d="M500 300H600V200H500ZM500 500H600V400H500ZM500 800H700V600H500Z"/>
  <path fill="#191919" d="M100 900H200V800H100ZM200 1000H300V900H200ZM100 1100H200V1000H100Z"/>
  <path fill="#f1edec" d="M500 1100H600V1000H700V700H600V600H500ZM800 1100H900V1000H1000V700H800Z"/>
</svg>
