<?xml version="1.0" encoding="UTF-8"?>
<svg xmlns="http://www.w3.org/2000/svg" viewBox="0 0 1200 1200" width="1200" height="1200">
  <title>emoji_u1f1e7_1f1e6</title>
  <path fill="#16369e" d="M0 500H300V300H0Z"/>
  <path fill="#3450ab" d="M500 1000H800V800H500Z"/>
  <path fill="#4d5668" d="M700 1000H1000V800H700Z"/>
  <path fill="#5769a2" d="M600 900H700V1000H800V900H900V800H600Z"/>
  <path fill="#5a71b9" d="M100 500H400V300H200V400H100Z"/>
  <path fill="#b0972f" d="M200 500H500V300H300V400H200Z"/>
  <path fill="#002395" d="M0 1000H600V900H700V800H600V700H500V600H400V400H100V300H0ZM800 900H900V1000H1100V300H800Z"/>
  <path fill="#fecb00" d="M300 500H400V600H500V700H600V900H900V300H400V400H300Z"/>
  <path fill="#696858" d="M700 900H900V300H800V800H700Z"/>
  <path fill="#1c3ba0" d="M200 500H300V600H400V400H200Z"/>
  <path fill="#213fa3" d="M400 800H500V900H700V700H400Z"/>
  <path fill="#596fb6" d="M500 800H600V900H800V800H700V700H500Z"/>
  <path fill="#6577b1" d="M300 600H500V400H300Z"/>
  <path fill="#c4a628" d="M600 800H700V700H600ZM700 900H800V800H700Z"/>
  <path fill="#d8b217" d="M300 600H600V500H500V400H400V500H300Z"/>
  <path fill="#022596" d="M300 700H400V800H600V600H300Z"/>
  <path fill="#3c57ae" d="M300 700H500V500H300Z"/>
  <path fill="#5d6b91" d="M300 700H600V500H400V600H300Z"/>
  <path fill="#5f75bc" d="M400 700H500V800H700V600H400Z"/>
  <path fill="#9c8d4a" d="M500 700H600V800H700V600H500Z"/>
  <path fill="#f2c307" d="M400 700H700V600H600V500H500V600H400Z"/>
  <path fill="#012495" d="M300 700H500V600H300Z"/>
  <path fill="#5c72bb" d="M400 700H600V600H400Z"/>
  <path fill="#636768" d="M500 700H700V600H500Z"/>
  <path fill="#fdcb00" d="M600 700H700V600H600Z"/>
</svg>
