<?xml version="1.0" encoding="UTF-8"?>
<svg xmlns="http://www.w3.org/2000/svg" viewBox="0 0 1200 1200" width="1200" height="1200">
  <title>emoji_u1f301</title>
  <path fill="#dee7e8" d="M900 1200H1000V1100H1100V700H900ZM0 1100H100V1200H200V900H0ZM300 1200H600V900H300Z"/>
  <path fill="#cddade" d="M100 1200H1000V1000H900V700H600V1000H500V1100H400V1000H100Z"/>
  <path fill="#aed0d7" d="M0 800H300V500H500V400H800V800H1100V200H1000V100H100V200H0Z"/>
  <path fill="#f9fbfb" d="M0 900H400V600H200V700H0ZM700 800H800V900H1000V800H1100V700H900V600H700Z"/>
  <path fill="#f5f8f8" d="M0 1000H100V1100H400V1000H500V1100H1000V800H800V900H700V800H0Z"/>
  <path fill="#f6f8f9" d="M0 900H500V1100H800V1000H700V800H800V700H300V800H0ZM800 900H1000V800H800Z"/>
  <path fill="#ecf1f1" d="M500 1100H1000V1000H600V900H500ZM100 1100H400V1000H100Z"/>
  <path fill="#eff3f4" d="M600 900H700V800H600ZM500 1000H600V900H500Z"/>
  <path fill="#c5535d" d="M300 800H600V300H400V400H300ZM700 800H800V700H900V300H700Z"/>
  <path fill="#ff554f" d="M400 400H500V800H600V900H700V800H800V300H400ZM200 700H300V800H400V400H200Z"/>
</svg>
