<?xml version="1.0" encoding="UTF-8"?>
<svg xmlns="http://www.w3.org/2000/svg" viewBox="0 0 1200 1200" width="1200" height="1200">
  <title>emoji_u1f3be</title>
  <path fill="#b7cdd2" d="M600 200H700V300H800V200H900V100H600ZM500 300H600V200H500ZM900 300H1000V200H900ZM400 700H500V800H600V900H900V800H1000V700H1100V300H1000V400H900V500H1000V600H900V700H800V800H700V700H600V600H500V500H600V400H500V300H400ZM600 400H700V300H600ZM800 400H900V300H800ZM700 500H800V400H700ZM600 600H700V500H600ZM800 600H900V500H800ZM700 700H800V600H700Z"/>
  <path fill="#b6d401" d="M0 1100H100V1200H400V1100H500V800H400V700H300V1000H0ZM500 800H600V700H500Z"/>
  <path fill="#1f87ff" d="M600 200H900V100H600ZM500 300H600V200H500ZM900 300H1000V200H900ZM400 700H500V300H400ZM1000 700H1100V300H1000ZM300 800H400V700H300ZM500 800H600V700H500ZM900 800H1000V700H900ZM600 1000H900V800H600Z"/>
  <path fill="#5f6369" d="M600 1200H900V900H600Z"/>
  <path fill="#ffffff" d="M0 1100H200V1200H300V1100H400V1000H500V900H400V700H100V800H0Z"/>
  <path fill="#d5f100" d="M0 900H100V1000H200V1100H400V900H300V800H200V700H100V800H0ZM300 800H400V700H300ZM0 1100H100V1000H0Z"/>
  <path fill="#858686" d="M700 1100H800V1000H700Z"/>
</svg>
