<?xml version="1.0" encoding="UTF-8"?>
<svg xmlns="http://www.w3.org/2000/svg" viewBox="0 0 1200 1200" width="1200" height="1200">
  <title>emoji_u1f971</title>
  <path fill="#eb8f00" d="M0 1200H900V1100H1000V1000H1100V300H1000V200H900V100H200V200H100V300H0Z"/>
  <path fill="#ffef70" d="M300 800H400V700H300ZM100 1100H500V1000H600V900H300V800H100Z"/>
  <path fill="#fcdb2f" d="M100 700H300V800H700V1100H900V1000H1000V300H900V200H200V300H100Z"/>
  <path fill="#35220b" d="M300 500H500V400H300ZM600 500H800V400H600ZM200 600H300V500H200ZM800 600H900V500H800ZM400 800H700V700H400ZM700 1000H800V800H700Z"/>
</svg>
