<?xml version="1.0" encoding="UTF-8"?>
<svg xmlns="http://www.w3.org/2000/svg" viewBox="0 0 1200 1200" width="1200" height="1200">
  <title>emoji_u1f537</title>
  <path fill="#1976d2" d="M400 1100H500V1200H600V1100H700V1000H800V900H900V800H1000V700H1100V600H1000V500H900V400H800V300H700V200H600V100H500V200H400V300H500V400H600V500H700V600H800V700H700V800H600V900H500V1000H400Z"/>
  <path fill="#2196f3" d="M0 700H100V800H200V900H300V1000H400V1100H600V1000H700V900H800V800H900V700H1000V600H900V500H800V400H700V300H600V200H400V300H300V400H200V500H100V600H0Z"/>
  <path fill="#90caf9" d="M400 400H500V300H400ZM300 500H400V400H300ZM100 700H200V600H100Z"/>
</svg>
