<?xml version="1.0" encoding="UTF-8"?>
<svg xmlns="http://www.w3.org/2000/svg" viewBox="0 0 1200 1200" width="1200" height="1200">
  <title>emoji_u26f0</title>
  <path fill="#b9ce46" d="M0 1200H1100V1000H0Z"/>
  <path fill="#717a7c" d="M0 1100H1100V600H1000V500H900V400H700V200H600V100H400V400H500V500H200V700H100V800H0Z"/>
  <path fill="#c0c0c0" d="M0 900H200V1000H800V800H900V500H800V400H700V500H600V300H500V100H400V200H300V300H200V400H100V600H0ZM200 900V800H300V600H600V700H500V800H300V900Z"/>
  <path fill="#9ea2a3" d="M200 400H300V600H500V400H400V300H200ZM600 900H800V500H700V600H600ZM200 800H300V600H200ZM100 900H200V800H100Z"/>
</svg>
