<?xml version="1.0" encoding="UTF-8"?>
<svg xmlns="http://www.w3.org/2000/svg" viewBox="0 0 1200 1200" width="1200" height="1200">
  <title>emoji_u1f62f</title>
  <path fill="#ea8d04" d="M0 1000H100V1100H200V1200H900V1100H1000V1000H1100V300H1000V200H900V100H200V200H100V300H0Z"/>
  <path fill="#fcdf31" d="M100 1000H200V1100H900V1000H1000V300H900V200H200V300H100Z"/>
  <path fill="#412c0c" d="M300 400H500V300H300ZM600 400H800V300H600ZM200 500H300V400H200ZM800 500H900V400H800ZM300 800H400V600H300ZM700 800H800V600H700ZM500 1000H600V900H500Z"/>
</svg>
