<?xml version="1.0" encoding="UTF-8"?>
<svg xmlns="http://www.w3.org/2000/svg" viewBox="0 0 1200 1200" width="1200" height="1200">
  <title>emoji_u1f35a</title>
  <path fill="#cdcbc0" d="M0 700H300V500H400V300H700V500H800V700H1100V600H1000V400H900V200H800V100H300V200H200V400H100V600H0Z"/>
  <path fill="#77a3ac" d="M0 800H1100V600H900V500H200V600H0ZM200 1100H300V1200H800V1100H900V1000H200Z"/>
  <path fill="#a7d0d6" d="M0 900H100V1000H200V1100H900V1000H1000V900H1100V700H0Z"/>
  <path fill="#ffffff" d="M200 600H900V400H800V200H300V400H200Z"/>
  <path fill="#d4d4d4" d="M600 300H700V200H600ZM400 400H500V300H400ZM700 500H800V400H700ZM500 600H600V500H500Z"/>
</svg>
