<?xml version="1.0" encoding="UTF-8"?>
<svg xmlns="http://www.w3.org/2000/svg" viewBox="0 0 1200 1200" width="1200" height="1200">
  <title>emoji_u1f438</title>
  <path fill="#b7d019" d="M0 900H100V1000H200V1100H900V1000H1000V900H1100V600H1000V500H1100V200H1000V100H700V200H400V100H100V200H0V500H100V600H0Z"/>
  <path fill="#ff6011" d="M200 800H300V700H200ZM800 800H900V700H800ZM300 900H800V800H300Z"/>
  <path fill="#2f2f2f" d="M200 500H400V400H200ZM700 500H900V400H700ZM400 700H500V600H400ZM600 700H700V600H600Z"/>
</svg>
