<?xml version="1.0" encoding="UTF-8"?>
<svg xmlns="http://www.w3.org/2000/svg" viewBox="0 0 1200 1200" width="1200" height="1200">
  <title>emoji_u1f99c</title>
  <path fill="#feba02" d="M300 1200H800V1100H700V1000H800V900H300V1000H400V1100H300ZM500 1100V1000H600V1100Z"/>
  <path fill="#a02a1b" d="M100 400H300V100H200V200H100Z"/>
  <path fill="#ec80af" d="M0 500H300V200H200V300H100V400H0Z"/>
  <path fill="#ff2b23" d="M200 400H400V300H600V200H500V100H200Z"/>
  <path fill="#01ab46" d="M300 600H600V200H300ZM600 1000H1100V900H1000V800H800V700H600Z"/>
  <path fill="#ffd51d" d="M0 600H100V700H400V400H300V300H200V400H0Z"/>
  <path fill="#79da88" d="M200 900H300V1000H800V900H700V800H200Z"/>
  <path fill="#46c66c" d="M100 800H200V900H500V600H100Z"/>
  <path fill="#66d37e" d="M200 900H600V700H400V800H200Z"/>
  <path fill="#37c064" d="M100 700H400V800H500V500H300V600H200V500H100Z"/>
  <path fill="#b7d019" d="M400 400H500V300H400ZM300 600H400V800H500V900H700V800H800V600H700V500H600V400H500V500H400V400H300Z"/>
  <path fill="#fbd3b3" d="M200 500H300V600H400V400H500V300H400V200H300V300H200Z"/>
  <path fill="#ff600d" d="M300 400H400V300H300ZM200 500H300V400H200ZM100 600H200V500H100ZM300 600H400V500H300Z"/>
  <path fill="#312f2a" d="M300 400H400V300H300Z"/>
  <path fill="#17b452" d="M300 600H400V500H300Z"/>
</svg>
