<?xml version="1.0" encoding="UTF-8"?>
<svg xmlns="http://www.w3.org/2000/svg" viewBox="0 0 1200 1200" width="1200" height="1200">
  <title>emoji_u1f9b7</title>
  <path fill="#e1e7ea" d="M100 700H200V1100H300V1200H500V800H600V1200H800V1100H900V700H1000V200H900V100H600V200H500V100H200V200H100Z"/>
  <path fill="#95cbde" d="M200 400H300V500H500V400H600V500H800V400H900V300H800V200H700V300H400V200H300V300H200Z"/>
  <path fill="#ffffff" d="M200 400H300V500H500V400H400V300H200ZM600 500H800V400H900V300H700V400H600Z"/>
</svg>
