<?xml version="1.0" encoding="UTF-8"?>
<svg xmlns="http://www.w3.org/2000/svg" viewBox="0 0 1200 1200" width="1200" height="1200">
  <title>emoji_u1f411</title>
  <path fill="#868686" d="M0 900H100V1000H200V1200H300V1100H400V1200H500V1000H600V1100H700V1200H800V1100H900V1200H1000V900H1100V400H1000V300H800V400H700V300H600V200H400V100H200V200H100V300H0Z"/>
  <path fill="#b1b1b1" d="M0 600H100V900H600V800H700V700H800V500H700V400H600V300H100V500H0ZM900 800H1000V700H1100V500H1000V400H900ZM200 1200H300V1100H200ZM400 1200H500V1100H400ZM700 1200H800V1100H700ZM900 1200H1000V1100H900Z"/>
  <path fill="#ffffff" d="M100 500H200V400H300V500H400V400H500V500H700V400H600V300H400V200H200V300H100ZM100 900H200V1000H500V900H600V1000H900V900H1000V400H800V500H700V600H600V700H500V800H400V700H300V800H200V600H100ZM200 600H300V500H200ZM400 600H500V500H400Z"/>
  <path fill="#2b2b2b" d="M200 600H300V500H200ZM400 600H500V500H400ZM300 800H400V700H300Z"/>
</svg>
