<?xml version="1.0" encoding="UTF-8"?>
<svg xmlns="http://www.w3.org/2000/svg" viewBox="0 0 1200 1200" width="1200" height="1200">
  <title>emoji_u1f442_1f3fb</title>
  <path fill="#f9ddbd" d="M200 1100H300V1200H600V1100H700V1000H800V800H900V600H1000V300H900V200H800V100H400V200H300V300H200Z"/>
  <path fill="#efb682" d="M800 300H900V200H800ZM300 900H400V1000H500V900H600V800H700V600H800V400H700V300H500V400H400V700H300ZM600 600V500H700V600ZM900 600H1000V300H900ZM800 800H900V600H800ZM200 1100H300V900H200ZM300 1200H500V1100H300Z"/>
  <path fill="#b26830" d="M500 400H700V300H500ZM400 700H500V600H600V500H500V400H400ZM700 500H800V400H700ZM600 800H700V600H600ZM300 900H400V700H300ZM800 800H900V700H800ZM500 900H600V800H500ZM700 1000H800V800H700ZM600 1100H700V1000H600ZM400 1200H600V1100H400Z"/>
</svg>
