<?xml version="1.0" encoding="UTF-8"?>
<svg xmlns="http://www.w3.org/2000/svg" viewBox="0 0 1200 1200" width="1200" height="1200">
  <title>emoji_u1f30e</title>
  <path fill="#1469f1" d="M0 800H100V1000H200V1100H400V1200H700V1100H900V1000H1000V800H1100V500H1000V300H900V200H700V100H400V200H200V300H100V500H0Z"/>
  <path fill="#ffffff" d="M400 300H500V400H800V300H700V200H600V100H500V200H400Z"/>
  <path fill="#e3dda6" d="M100 600H200V700H300V600H400V300H200V500H100ZM300 900H400V1000H500V1200H600V1100H700V800H600V700H300Z"/>
  <path fill="#c0dd9d" d="M200 700H400V600H500V300H200V400H300V500H200ZM400 800H500V900H600V1100H700V1000H800V800H700V700H400ZM400 1000H500V900H400Z"/>
  <path fill="#7add8a" d="M200 800H300V900H400V800H600V900H700V1000H800V900H900V400H800V300H600V200H400V300H300V400H400V500H300V600H200ZM400 1000H500V900H400Z"/>
  <path fill="#1b82f9" d="M500 700H600V600H800V700H900V400H800V500H700V400H600V500H500ZM300 700H400V600H300ZM400 800H500V700H400ZM400 1000H500V900H400Z"/>
</svg>
