<?xml version="1.0" encoding="UTF-8"?>
<svg xmlns="http://www.w3.org/2000/svg" viewBox="0 0 1200 1200" width="1200" height="1200">
  <title>emoji_u1f340</title>
  <path fill="#65a21b" d="M100 700H200V800H300V900H500V1100H600V900H800V800H900V700H1000V600H900V500H1000V300H900V200H800V100H600V200H500V100H300V200H200V300H100V500H200V600H100ZM600 1200H700V1100H600Z"/>
  <path fill="#8bc02b" d="M200 700H300V800H500V600H600V800H800V700H900V600H700V500H900V300H800V200H600V400H500V200H300V300H200V500H400V600H200Z"/>
  <path fill="#bdce46" d="M400 400H500V300H400ZM600 400H700V300H600ZM300 500H400V400H300ZM700 500H800V400H700ZM300 700H400V600H300ZM700 700H800V600H700ZM400 800H500V700H400ZM600 800H700V700H600Z"/>
</svg>
