<?xml version="1.0" encoding="UTF-8"?>
<svg xmlns="http://www.w3.org/2000/svg" viewBox="0 0 1200 1200" width="1200" height="1200">
  <title>emoji_u1f400</title>
  <path fill="#fdd3b1" d="M300 1000H600V900H700V1000H900V900H1000V1100H1100V600H900V800H400V900H300ZM900 1200H1000V1100H900Z"/>
  <path fill="#6da3af" d="M200 500H500V400H600V200H300V400H200Z"/>
  <path fill="#6ba3ab" d="M0 500H100V400H0ZM0 700H100V800H400V900H500V1000H600V900H1000V700H800V600H300V400H200V500H100V600H0Z"/>
  <path fill="#ffd3b0" d="M400 500H700V300H600V200H500V300H400ZM0 700H200V600H0Z"/>
  <path fill="#b5c2c8" d="M500 300H600V200H500ZM100 700H500V1000H600V900H700V800H1000V700H1100V500H1000V400H700V300H600V400H500V300H400V400H200V600H100ZM600 800V700H700V800Z"/>
  <path fill="#2d2b2e" d="M300 600H400V500H300ZM100 700H200V600H100Z"/>
</svg>
