<?xml version="1.0" encoding="UTF-8"?>
<svg xmlns="http://www.w3.org/2000/svg" viewBox="0 0 1200 1200" width="1200" height="1200">
  <title>emoji_u1f3d9</title>
  <path fill="#dcedf6" d="M0 1200H300V700H0ZM900 1200H1100V700H900Z"/>
  <path fill="#488086" d="M0 1200H400V500H0V800H200V900H0V1000H200V1100H0ZM500 1200H1100V1100H1000V1000H1100V900H1000V800H1100V500H700V700H500Z"/>
  <path fill="#67c9f6" d="M0 600H200V100H0ZM500 900H600V800H800V600H1100V100H500Z"/>
  <path fill="#88babc" d="M100 600H300V1200H600V100H100Z"/>
  <path fill="#abd7db" d="M200 400H300V300H200ZM400 400H500V300H400ZM200 600H300V500H200ZM400 600H500V500H400ZM400 800H500V700H400ZM400 1000H500V900H400Z"/>
</svg>
