<?xml version="1.0" encoding="UTF-8"?>
<svg xmlns="http://www.w3.org/2000/svg" viewBox="0 0 1200 1200" width="1200" height="1200">
  <title>emoji_u1f44d_1f3fb</title>
  <path fill="#efb682" d="M500 1100H600V1200H1000V1100H1100V1000H1000V900H1100V800H1000V700H1100V600H1000V500H900V400H800V300H900V200H800V100H700V200H600V400H500V500H700V700H600V800H500ZM0 800H400V600H0ZM0 1100H300V900H0Z"/>
  <path fill="#b26830" d="M100 1000H200V1100H400V1200H900V1100H1000V600H900V700H800V600H900V200H700V400H500V500H400V600H300V700H200V800H500V900H100ZM600 1000V900H700V800H900V900H700V1000H900V1100H700V1000Z"/>
  <path fill="#f9ddbd" d="M0 1000H400V1100H600V700H700V600H800V200H700V400H600V500H500V600H400V700H0ZM900 700H1000V600H900ZM900 900H1000V800H900ZM900 1100H1000V1000H900Z"/>
</svg>
