<?xml version="1.0" encoding="UTF-8"?>
<svg xmlns="http://www.w3.org/2000/svg" viewBox="0 0 1200 1200" width="1200" height="1200">
  <title>emoji_u1f487_1f3fe</title>
  <path fill="#de3e31" d="M900 200H1000V100H900ZM800 300H900V200H800ZM1000 300H1100V200H1000ZM700 400H800V300H700ZM900 400H1000V300H900ZM800 500H900V400H800ZM1000 500H1100V400H1000ZM900 600H1000V500H900Z"/>
  <path fill="#7a4c32" d="M100 1100H500V1000H400V900H500V800H100V900H200V1000H100Z"/>
  <path fill="#f47e11" d="M0 1200H700V1100H600V1000H0Z"/>
  <path fill="#82aec0" d="M500 300H700V200H500ZM400 600H600V500H700V400H500V300H400ZM700 400H800V300H700Z"/>
  <path fill="#3c2c23" d="M0 800H100V900H200V700H300V800H400V900H500V800H600V500H500V300H100V400H0Z"/>
  <path fill="#a56c43" d="M100 900H500V700H400V600H300V500H200V600H100Z"/>
</svg>
