<?xml version="1.0" encoding="UTF-8"?>
<svg xmlns="http://www.w3.org/2000/svg" viewBox="0 0 1200 1200" width="1200" height="1200">
  <title>emoji_u26cf</title>
  <path fill="#2f7889" d="M100 300H200V400H600V500H500V700H700V600H800V1000H900V1100H1000V1000H1100V900H1000V500H900V400H800V300H700V200H300V100H200V200H100Z"/>
  <path fill="#a06841" d="M700 400H800V500H1000V200H700ZM0 1200H200V1100H300V1000H400V900H500V800H600V500H500V600H400V700H300V800H200V900H100V1000H0Z"/>
  <path fill="#7d5133" d="M500 800H600V700H700V600H600V500H500Z"/>
  <path fill="#82aec0" d="M200 300H600V400H700V500H800V600H900V1000H1100V500H1000V400H900V300H800V200H700V100H200Z"/>
</svg>
