<?xml version="1.0" encoding="UTF-8"?>
<svg xmlns="http://www.w3.org/2000/svg" viewBox="0 0 1200 1200" width="1200" height="1200">
  <title>emoji_u1faa8</title>
  <path fill="#6c7376" d="M300 400H600V300H700V100H500V200H400V300H300ZM0 1000H300V800H400V500H300V600H200V700H100V900H0Z"/>
  <path fill="#696e70" d="M0 1100H100V1200H600V1100H1000V1000H1100V900H800V700H700V600H600V500H500V300H300V800H400V900H500V1000H400V900H300V800H200V900H0Z"/>
  <path fill="#b2a59b" d="M500 300H600V400H700V700H600V800H800V900H900V1000H1100V600H1000V300H900V200H800V100H600V200H500ZM400 600H500V500H400ZM200 800H300V1000H600V800H500V700H400V600H300V700H200ZM500 700H600V600H500Z"/>
  <path fill="#958e88" d="M400 600H500V700H600V800H700V1000H1100V900H1000V800H900V700H800V600H1000V400H800V300H700V200H500V300H400ZM200 1000H300V1100H600V900H400V700H200Z"/>
  <path fill="#7a7d7d" d="M700 500H800V400H700ZM600 600H700V500H600ZM800 600H1000V500H800ZM700 700H800V600H700ZM600 800H700V700H600Z"/>
  <path fill="#888582" d="M500 500H600V600H700V500H800V300H500ZM200 900H300V1100H400V1000H500V900H400V800H200ZM800 1000H900V900H1000V800H800Z"/>
</svg>
