<?xml version="1.0" encoding="UTF-8"?>
<svg xmlns="http://www.w3.org/2000/svg" viewBox="0 0 1200 1200" width="1200" height="1200">
  <title>emoji_u1f6e0</title>
  <path fill="#b9e4ea" d="M0 600H300V500H400V400H500V300H400V200H300V300H200V400H100V500H0ZM500 500H800V400H900V200H700V300H600V400H500Z"/>
  <path fill="#2f7889" d="M200 1000H300V1100H400V1000H500V900H600V800H700V700H1000V600H1100V400H900V300H700V400H500V500H600V600H500V700H400V800H300V900H200ZM0 600H100V700H200V800H300V700H400V600H300V500H0Z"/>
  <path fill="#a06841" d="M300 700H400V800H500V900H600V1000H700V1100H800V1200H900V1100H1000V1000H900V900H800V800H700V600H500V500H400V600H300Z"/>
  <path fill="#82aec0" d="M700 600H900V700H1000V600H1100V500H900V200H800V300H700ZM100 600H200V700H500V500H600V400H500V300H300V400H200V500H100ZM600 700H700V600H600ZM200 1000H300V1100H400V900H200ZM100 1100H200V1000H100ZM200 1200H300V1100H200Z"/>
  <path fill="#7d5133" d="M400 700H500V600H400Z"/>
</svg>
