<?xml version="1.0" encoding="UTF-8"?>
<svg xmlns="http://www.w3.org/2000/svg" viewBox="0 0 1200 1200" width="1200" height="1200">
  <title>emoji_u1f004</title>
  <path fill="#ffa828" d="M800 1200H1000V1100H1100V200H1000V100H800V300H900V1000H800Z"/>
  <path fill="#d8cdc9" d="M100 1100H200V1200H900V1100H1000V200H900V100H200V200H100Z"/>
  <path fill="#f1edec" d="M300 300H400V200H300ZM200 400H300V300H200ZM300 500H400V400H300ZM800 1000H900V900H800ZM700 1100H800V1000H700Z"/>
  <path fill="#df0b26" d="M300 800H500V1000H600V800H800V400H600V300H500V400H300ZM400 700V500H500V700ZM600 700V500H700V700Z"/>
</svg>
