<?xml version="1.0" encoding="UTF-8"?>
<svg xmlns="http://www.w3.org/2000/svg" viewBox="0 0 1200 1200" width="1200" height="1200">
  <title>emoji_u1f6f7</title>
  <path fill="#db0d2a" d="M0 600H100V500H0ZM100 700H200V800H300V500H200V600H100ZM0 900H100V800H0ZM100 1000H1100V900H900V800H800V900H500V800H400V900H100Z"/>
  <path fill="#af0a1b" d="M300 800H400V900H500V800H600V700H300ZM700 800H800V900H900V800H1000V700H700Z"/>
  <path fill="#f0a358" d="M200 800H1100V200H200Z"/>
  <path fill="#d2712a" d="M300 400H1000V300H300ZM300 600H1000V500H300ZM200 800H1100V700H200Z"/>
</svg>
