<?xml version="1.0" encoding="UTF-8"?>
<svg xmlns="http://www.w3.org/2000/svg" viewBox="0 0 1200 1200" width="1200" height="1200">
  <title>emoji_u1f479</title>
  <path fill="#374c57" d="M0 1200H100V1100H200V1200H400V1000H300V600H800V1000H700V1200H900V1100H1000V1200H1100V500H1000V400H1100V200H1000V100H900V200H600V100H400V200H300V100H100V200H0V400H100V500H0Z"/>
  <path fill="#cc2d2d" d="M200 1100H300V1200H800V1100H900V800H200Z"/>
  <path fill="#f04e3e" d="M100 900H200V1100H300V900H800V1100H900V900H1000V700H900V300H800V400H700V500H400V400H300V300H200V700H100ZM0 600H100V500H0ZM1000 600H1100V500H1000ZM400 1100H500V1000H400ZM600 1100H700V1000H600ZM300 1200H400V1100H300ZM700 1200H800V1100H700Z"/>
  <path fill="#281010" d="M400 1100H700V1000H400Z"/>
  <path fill="#fff8e1" d="M500 1100H600V1000H500Z"/>
  <path fill="#ffca28" d="M100 300H200V200H100ZM900 300H1000V200H900ZM200 500H300V300H200ZM800 500H900V300H800ZM300 700H400V500H300ZM700 700H800V500H700Z"/>
  <path fill="#ffecb3" d="M200 800H300V900H400V800H500V700H400V600H300V700H200ZM600 800H700V900H800V800H900V700H800V600H700V700H600Z"/>
  <path fill="#212121" d="M300 800H400V700H300ZM700 800H800V700H700Z"/>
</svg>
