<?xml version="1.0" encoding="UTF-8"?>
<svg xmlns="http://www.w3.org/2000/svg" viewBox="0 0 1200 1200" width="1200" height="1200">
  <title>emoji_u1fa94</title>
  <path fill="#ffc740" d="M800 500H900V600H1000V500H1100V200H1000V100H900V200H800Z"/>
  <path fill="#891e0d" d="M0 1000H100V1100H200V1200H800V1100H900V1000H1000V900H1100V800H1000V700H900V800H800V900H200V800H0Z"/>
  <path fill="#feef93" d="M900 600H1000V400H900ZM600 900H900V800H1000V700H900V600H600Z"/>
  <path fill="#d75010" d="M0 900H100V1000H900V900H1000V700H800V800H700V700H800V600H200V700H100V800H0Z"/>
  <path fill="#fe9700" d="M100 900H900V700H800V800H700V700H200V800H100Z"/>
  <path fill="#d85f11" d="M200 900H500V800H200ZM600 900H800V800H600Z"/>
  <path fill="#eba961" d="M400 900H700V800H400Z"/>
</svg>
