<?xml version="1.0" encoding="UTF-8"?>
<svg xmlns="http://www.w3.org/2000/svg" viewBox="0 0 1200 1200" width="1200" height="1200">
  <title>emoji_u1f982</title>
  <path fill="#ba8855" d="M0 300H100V400H200V500H300V600H200V700H300V800H500V700H600V800H800V700H900V600H800V500H900V400H700V200H600V100H100V200H0ZM200 400V300H300V200H400V400ZM100 600H200V500H100ZM900 600H1000V500H900ZM0 1000H100V1200H300V1100H400V1000H300V800H200V700H100V800H0ZM700 1100H800V1200H1000V1000H1100V800H1000V700H900V800H800V1000H700Z"/>
  <path fill="#f2a159" d="M300 200H400V100H300ZM100 300H200V200H100ZM400 500H700V300H600V200H500V300H400ZM300 800H400V900H500V1000H600V900H700V800H800V700H700V600H400V700H300ZM0 1100H100V1200H200V1100H400V1000H300V900H200V800H100V900H0ZM700 1100H900V1200H1000V1100H1100V900H1000V800H900V900H800V1000H700Z"/>
  <path fill="#372d2b" d="M400 800H500V700H400ZM600 800H700V700H600Z"/>
</svg>
