<?xml version="1.0" encoding="UTF-8"?>
<svg xmlns="http://www.w3.org/2000/svg" viewBox="0 0 1200 1200" width="1200" height="1200">
  <title>emoji_u1f466_1f3fb</title>
  <path fill="#edc391" d="M100 700H200V800H300V900H400V500H100ZM800 900H900V800H1000V700H1100V500H800Z"/>
  <path fill="#444444" d="M300 1000H400V1100H800V1000H900V800H300Z"/>
  <path fill="#312d2d" d="M100 700H200V600H300V900H900V600H1000V700H1100V300H1000V200H900V100H300V200H200V300H100Z"/>
  <path fill="#f9ddbd" d="M300 1000H400V900H500V1000H700V900H800V1000H900V500H800V400H600V500H700V600H800V800H700V600H500V800H400V600H500V500H400V400H300ZM400 1100H500V1000H400ZM700 1100H800V1000H700Z"/>
</svg>
