<?xml version="1.0" encoding="UTF-8"?>
<svg xmlns="http://www.w3.org/2000/svg" viewBox="0 0 1200 1200" width="1200" height="1200">
  <title>emoji_u1f32c</title>
  <path fill="#b7e6fe" d="M700 1100H800V1200H1100V300H800V400H700V500H800V600H700V900H800V1000H700Z"/>
  <path fill="#4fc1f5" d="M900 500H1000V400H900ZM1000 600H1100V500H1000ZM300 1000H600V900H500V800H600V700H500V600H400V700H300ZM700 700H1000V600H700ZM700 900H1000V800H700ZM1000 1000H1100V900H1000ZM900 1100H1000V1000H900Z"/>
  <path fill="#ffffff" d="M0 1100H200V900H300V600H400V500H500V200H400V100H200V300H100V400H0Z"/>
  <path fill="#afe3fe" d="M0 800H100V500H200V400H300V300H400V200H300V100H0ZM0 1200H200V1100H400V1000H500V900H400V800H500V400H300V500H200V800H100V1000H0Z"/>
  <path fill="#159df5" d="M300 700H400V500H300Z"/>
</svg>
