<?xml version="1.0" encoding="UTF-8"?>
<svg xmlns="http://www.w3.org/2000/svg" viewBox="0 0 1200 1200" width="1200" height="1200">
  <title>emoji_u1f9e2</title>
  <path fill="#0d47a1" d="M0 1200H200V1100H300V1000H0Z"/>
  <path fill="#2196f3" d="M0 1200H100V1100H400V1200H700V1100H800V1000H900V900H600V1000H500V900H100V1000H0Z"/>
  <path fill="#76c8ff" d="M100 1000H400V1100H700V1000H900V900H1000V800H800V700H200V900H100Z"/>
  <path fill="#0f60b2" d="M300 800H600V500H700V900H1000V300H900V200H700V100H600V200H400V300H300Z"/>
  <path fill="#1e88e5" d="M200 800H400V400H500V200H400V300H300V400H200ZM500 800H700V900H800V400H700V200H600V400H500ZM800 400H900V900H1000V800H1100V400H1000V300H900V200H800Z"/>
</svg>
