<?xml version="1.0" encoding="UTF-8"?>
<svg xmlns="http://www.w3.org/2000/svg" viewBox="0 0 1200 1200" width="1200" height="1200">
  <title>emoji_ue0ab</title>
  <path fill="#0a0b99" d="M200 200H300V100H200ZM400 200H800V100H400ZM100 300H200V200H100ZM300 300H400V200H300ZM800 300H900V200H800ZM0 800H100V300H0ZM200 700H400V800H500V1000H600V800H700V700H900V600H700V500H600V300H500V500H400V600H200ZM900 500H1000V300H900ZM1000 800H1100V500H1000ZM100 1000H200V800H100ZM900 1000H1000V800H900ZM200 1100H300V1000H200ZM800 1100H900V1000H800ZM300 1200H800V1100H300Z"/>
</svg>
