<?xml version="1.0" encoding="UTF-8"?>
<svg xmlns="http://www.w3.org/2000/svg" viewBox="0 0 1200 1200" width="1200" height="1200">
  <title>emoji_u1f469_1f3fb_200d_1f373</title>
  <path fill="#f2a25b" d="M0 900H100V1200H200V900H300V600H0Z"/>
  <path fill="#d27857" d="M0 800H100V900H200V800H300V700H200V600H100V700H0Z"/>
  <path fill="#dfdfdf" d="M400 1200H1100V800H800V900H700V800H400Z"/>
  <path fill="#9b9b9b" d="M300 400H1100V100H800V200H700V100H400V200H300Z"/>
  <path fill="#62453b" d="M300 400H400V900H600V700H700V600H800V700H900V900H1100V300H300Z"/>
  <path fill="#e3e3e2" d="M400 200H500V100H400ZM600 200H700V100H600ZM800 200H900V100H800ZM1000 200H1100V100H1000ZM300 400H1100V300H1000V200H900V300H800V200H700V300H600V200H500V300H400V200H300Z"/>
  <path fill="#b0b0b0" d="M300 300H400V200H300ZM500 300H600V200H500ZM700 300H800V200H700ZM900 300H1000V200H900ZM500 900H600V1000H700V1100H800V1000H900V900H1000V800H500Z"/>
  <path fill="#ffb775" d="M100 800H200V700H100Z"/>
  <path fill="#f9ddbd" d="M500 900H700V1000H800V900H1000V600H900V500H600V600H500Z"/>
  <path fill="#454140" d="M600 800H700V600H600ZM800 800H900V600H800Z"/>
  <path fill="#edbd82" d="M700 1000H800V900H700Z"/>
</svg>
