<?xml version="1.0" encoding="UTF-8"?>
<svg xmlns="http://www.w3.org/2000/svg" viewBox="0 0 1200 1200" width="1200" height="1200">
  <title>emoji_u1f699</title>
  <path fill="#31322e" d="M900 900H1000V800H1100V500H1000V400H900Z"/>
  <path fill="#d7ccc5" d="M0 800H200V500H0Z"/>
  <path fill="#4c443f" d="M0 1000H200V1100H400V1000H600V1100H800V1000H1000V800H900V700H100V800H0Z"/>
  <path fill="#506d71" d="M0 1000H100V900H200V800H400V900H600V800H800V900H900V1000H1000V700H0ZM200 1000H400V900H200ZM600 1000H800V900H600Z"/>
  <path fill="#489df6" d="M0 600H100V700H1000V100H400V200H300V400H100V500H0Z"/>
  <path fill="#1d86fb" d="M0 900H100V800H900V900H1000V600H100V700H0Z"/>
  <path fill="#c8c8c8" d="M200 1000H400V900H200ZM600 1000H800V900H600Z"/>
  <path fill="#ff2a23" d="M900 700H1000V600H900Z"/>
  <path fill="#ffffff" d="M100 700H200V600H100Z"/>
  <path fill="#afe3fb" d="M300 500H600V200H500V300H400V400H300ZM700 500H900V200H700Z"/>
  <path fill="#506d73" d="M300 500H600V400H300ZM700 500H900V400H700Z"/>
  <path fill="#0250ac" d="M400 500H500V400H400Z"/>
</svg>
