<?xml version="1.0" encoding="UTF-8"?>
<svg xmlns="http://www.w3.org/2000/svg" viewBox="0 0 1200 1200" width="1200" height="1200">
  <title>emoji_u1f528</title>
  <path fill="#2f7889" d="M0 700H100V800H200V900H300V800H400V700H300V600H200V500H100V600H0Z"/>
  <path fill="#b9e4ea" d="M100 600H400V500H500V400H600V300H700V100H500V200H400V300H300V400H200V500H100Z"/>
  <path fill="#a06841" d="M500 900H600V1000H700V1100H800V1200H1000V1100H1100V1000H1000V900H900V800H800V700H700V600H600V500H500Z"/>
  <path fill="#7d5133" d="M300 800H500V900H600V500H400V600H300Z"/>
  <path fill="#82aec0" d="M500 200H600V300H700V200H800V100H500ZM100 700H200V800H400V700H500V600H600V500H700V400H600V300H400V400H300V500H100Z"/>
</svg>
