<?xml version="1.0" encoding="UTF-8"?>
<svg xmlns="http://www.w3.org/2000/svg" viewBox="0 0 1200 1200" width="1200" height="1200">
  <title>emoji_u1fad0</title>
  <path fill="#4054b0" d="M0 1100H100V1200H500V1100H600V1200H1000V1100H1100V900H900V1000H700V800H800V500H500V600H400V1000H200V600H100V700H0Z"/>
  <path fill="#3f51b5" d="M300 700H600V600H700V700H800V600H900V200H800V100H400V200H300Z"/>
  <path fill="#303f9f" d="M200 700H300V800H500V700H600V600H400V500H300V600H200ZM700 700H1000V600H900V500H700ZM600 800H700V700H600Z"/>
  <path fill="#5064c9" d="M100 1100H500V700H400V600H100ZM600 1100H1000V1000H1100V700H1000V600H700V700H600Z"/>
  <path fill="#8092f2" d="M800 800H900V700H800ZM900 900H1000V800H900Z"/>
  <path fill="#96a3eb" d="M200 800H300V700H200ZM300 900H400V800H300Z"/>
</svg>
