<?xml version="1.0" encoding="UTF-8"?>
<svg xmlns="http://www.w3.org/2000/svg" viewBox="0 0 1200 1200" width="1200" height="1200">
  <title>emoji_u1f613</title>
  <path fill="#eb8f00" d="M0 1000H100V1100H200V1200H900V1100H1000V1000H1100V300H1000V200H900V100H300V200H200V300H800V400H900V900H800V1000H300V900H200V300H0Z"/>
  <path fill="#44b3e6" d="M0 400H100V500H300V400H400V200H200V100H100V200H0Z"/>
  <path fill="#6ac8f3" d="M100 300H200V200H100ZM100 600H300V500H400V200H300V300H200V400H100ZM0 400H100V300H0Z"/>
  <path fill="#fde030" d="M100 1000H200V1100H900V1000H1000V300H900V200H300V400H200V500H100Z"/>
  <path fill="#422b0d" d="M200 700H400V600H200ZM700 700H900V600H700ZM400 900H700V800H400ZM300 1000H400V900H300ZM700 1000H800V900H700Z"/>
</svg>
