<?xml version="1.0" encoding="UTF-8"?>
<svg xmlns="http://www.w3.org/2000/svg" viewBox="0 0 1200 1200" width="1200" height="1200">
  <title>emoji_u262a</title>
  <path fill="#8e24aa" d="M0 1100H100V1200H1000V1100H1100V200H1000V100H900V1000H0Z"/>
  <path fill="#ab47bc" d="M0 1100H1000V100H100V200H0Z"/>
  <path fill="#c37dcf" d="M100 500H300V400H400V200H200V300H100Z"/>
  <path fill="#fafafa" d="M100 800H200V900H300V1000H800V900H400V800H300V400H400V300H800V200H300V300H200V400H100ZM800 400H900V300H800ZM500 600H600V700H700V600H800V500H700V400H600V500H500ZM500 800H600V700H500ZM700 800H800V700H700ZM800 900H900V800H800Z"/>
</svg>
