<?xml version="1.0" encoding="UTF-8"?>
<svg xmlns="http://www.w3.org/2000/svg" viewBox="0 0 1200 1200" width="1200" height="1200">
  <title>emoji_u1f21a</title>
  <path fill="#f77e00" d="M0 1100H100V1200H1000V1100H1100V200H1000V100H900V1000H0Z"/>
  <path fill="#ff9800" d="M0 1100H1000V100H100V200H0Z"/>
  <path fill="#ffb43d" d="M100 500H200V400H400V200H200V300H100Z"/>
  <path fill="#fafafa" d="M200 800H900V700H800V600H900V500H800V400H900V300H400V200H300V300H200V400H300V500H200V600H300V700H200ZM400 500V400H500V500ZM600 500V400H700V500ZM400 700V600H500V700ZM600 700V600H700V700ZM100 500H200V400H100ZM200 1100H300V900H200ZM400 1100H500V900H400ZM600 1100H700V900H600ZM800 1100H900V900H800Z"/>
</svg>
