<?xml version="1.0" encoding="UTF-8"?>
<svg xmlns="http://www.w3.org/2000/svg" viewBox="0 0 1200 1200" width="1200" height="1200">
  <title>emoji_u1f6eb</title>
  <path fill="#b0b0b0" d="M0 700H100V800H500V700H700V600H900V500H1000V400H1100V200H900V300H800V400H600V500H400V600H0Z"/>
  <path fill="#e0e0df" d="M400 500H700V400H900V300H1100V100H800V200H600V300H400Z"/>
  <path fill="#5e6268" d="M0 1200H1100V900H0Z"/>
  <path fill="#014eac" d="M0 400H100V500H200V600H100V700H400V400H300V300H200V200H0Z"/>
  <path fill="#006ca8" d="M0 700H400V600H500V300H400V400H300V600H0Z"/>
  <path fill="#c8c8c8" d="M300 700H500V600H700V500H900V400H1000V300H1100V100H1000V200H800V300H600V400H500V300H400V500H300ZM100 1100H300V1000H100ZM500 1100H700V1000H500ZM900 1100H1100V1000H900Z"/>
  <path fill="#3b5361" d="M1000 200H1100V100H1000ZM900 300H1000V200H900ZM800 400H900V300H800ZM600 500H700V400H600Z"/>
</svg>
