<?xml version="1.0" encoding="UTF-8"?>
<svg xmlns="http://www.w3.org/2000/svg" viewBox="0 0 1200 1200" width="1200" height="1200">
  <title>emoji_u1f68a</title>
  <path fill="#616161" d="M100 1200H400V1000H100ZM700 1200H1000V1000H700Z"/>
  <path fill="#ffffff" d="M800 1100H900V1200H1000V1000H800Z"/>
  <path fill="#bdbdbd" d="M100 500H300V400H800V500H1000V300H900V200H700V100H600V200H500V100H400V200H200V300H100ZM100 1200H200V1100H300V1200H800V1100H900V1000H100Z"/>
  <path fill="#eeeeee" d="M100 700H300V500H400V300H200V400H100ZM700 500H800V700H1000V400H900V300H700Z"/>
  <path fill="#7f7f7f" d="M100 1100H1000V800H800V900H300V800H100Z"/>
  <path fill="#82aec0" d="M300 100H400V200H500V100H600V200H700V100H800V0H300ZM100 900H200V1100H300V1000H800V1100H900V900H1000V700H800V800H300V700H100Z"/>
  <path fill="#ffca28" d="M400 500H700V300H400ZM100 800H200V900H900V800H1000V600H900V500H700V600H400V500H200V600H100Z"/>
  <path fill="#455a64" d="M200 1100H300V1000H200ZM800 1100H900V1000H800Z"/>
  <path fill="#37474f" d="M200 600H300V800H400V700H700V800H800V600H900V400H800V300H600V400H500V300H300V400H200Z"/>
  <path fill="#fffde7" d="M300 800H400V700H300ZM700 800H800V700H700Z"/>
  <path fill="#95c0d5" d="M300 600H800V400H300Z"/>
  <path fill="#bae2fd" d="M300 600H800V500H300Z"/>
</svg>
