<?xml version="1.0" encoding="UTF-8"?>
<svg xmlns="http://www.w3.org/2000/svg" viewBox="0 0 1200 1200" width="1200" height="1200">
  <title>emoji_u1f576</title>
  <path fill="#616161" d="M0 700H100V900H500V700H600V900H1000V700H1100V400H600V500H500V400H0Z"/>
  <path fill="#618290" d="M100 700H200V800H300V700H400V500H100ZM600 700H700V800H800V700H900V500H600Z"/>
  <path fill="#000000" d="M100 600H200V500H100ZM200 800H400V700H500V500H300V600H200ZM600 600H700V500H600ZM700 800H900V700H1000V500H800V600H700Z"/>
</svg>
