<?xml version="1.0" encoding="UTF-8"?>
<svg xmlns="http://www.w3.org/2000/svg" viewBox="0 0 1200 1200" width="1200" height="1200">
  <title>emoji_u1f469_200d_1f9af</title>
  <path fill="#4568ad" d="M900 1200H1000V1100H1100V1000H1000V900H900ZM400 1200H600V1100H700V1000H500V1100H400Z"/>
  <path fill="#7c7c7c" d="M500 1100H700V900H800V1000H900V600H700V800H600V1000H500Z"/>
  <path fill="#cccccc" d="M400 700H500V600H400ZM300 900H400V700H300ZM200 1100H300V900H200ZM100 1200H200V1100H100Z"/>
  <path fill="#543930" d="M700 400H800V500H900V400H1000V300H900V100H700Z"/>
  <path fill="#616161" d="M700 700H800V1000H900V1100H1000V900H900V600H700Z"/>
  <path fill="#ff3d00" d="M200 1100H300V900H200Z"/>
  <path fill="#636262" d="M400 700H600V600H400Z"/>
  <path fill="#583ee2" d="M600 600H700V700H900V300H800V200H700V500H600Z"/>
  <path fill="#ffca28" d="M700 300H800V200H700ZM600 600H800V400H700V500H600ZM500 700H600V600H500Z"/>
</svg>
