<?xml version="1.0" encoding="UTF-8"?>
<svg xmlns="http://www.w3.org/2000/svg" viewBox="0 0 1200 1200" width="1200" height="1200">
  <title>emoji_u1f1f0_1f1f3</title>
  <path fill="#0aa047" d="M500 500H800V300H500Z"/>
  <path fill="#21a542" d="M0 900H200V600H0Z"/>
  <path fill="#4f4408" d="M700 500H1000V300H700Z"/>
  <path fill="#524207" d="M100 1000H400V800H100Z"/>
  <path fill="#5e550b" d="M0 1000H200V700H100V800H0Z"/>
  <path fill="#674f0a" d="M900 600H1100V300H900Z"/>
  <path fill="#70a52b" d="M600 500H900V400H800V300H700V400H600Z"/>
  <path fill="#ce641b" d="M200 900H300V1000H500V800H200Z"/>
  <path fill="#d01825" d="M300 900H400V1000H600V800H300Z"/>
  <path fill="#d42a24" d="M900 700H1100V500H1000V400H900Z"/>
  <path fill="#009e49" d="M0 700H100V800H300V700H400V600H600V500H700V400H600V300H0Z"/>
  <path fill="#ce1126" d="M400 900H500V1000H1100V600H1000V500H800V600H700V700H500V800H400Z"/>
  <path fill="#000000" d="M800 500H1000V400H1100V300H900V400H800ZM400 800H700V500H400ZM0 1000H200V900H300V800H100V900H0Z"/>
  <path fill="#020200" d="M800 600H1000V400H800ZM100 900H300V700H100Z"/>
  <path fill="#0c0c0c" d="M700 600H1000V500H900V400H700Z"/>
  <path fill="#0d0d0d" d="M100 800H200V900H400V700H100Z"/>
  <path fill="#42ab3b" d="M400 600H700V400H500V500H400Z"/>
  <path fill="#5a574b" d="M200 800H300V900H500V700H200Z"/>
  <path fill="#615e52" d="M600 600H900V500H800V400H600Z"/>
  <path fill="#767714" d="M500 600H800V500H700V400H600V500H500Z"/>
  <path fill="#7d931f" d="M100 800H300V600H200V700H100Z"/>
  <path fill="#9c6f1a" d="M300 800H400V900H600V700H300Z"/>
  <path fill="#b66c15" d="M800 700H900V600H1000V500H800Z"/>
  <path fill="#d94322" d="M400 800H500V900H600V800H700V700H400Z"/>
  <path fill="#030303" d="M300 800H600V700H500V600H300Z"/>
  <path fill="#0e0e0e" d="M500 600H600V700H800V500H500Z"/>
  <path fill="#12a245" d="M200 700H500V500H300V600H200Z"/>
  <path fill="#3e3305" d="M400 700H500V600H400ZM500 800H700V600H600V700H500Z"/>
  <path fill="#3e3406" d="M400 700H500V600H600V500H400ZM600 700H700V600H600Z"/>
  <path fill="#413a1b" d="M200 800H400V600H200Z"/>
  <path fill="#453e1f" d="M700 700H900V500H700Z"/>
  <path fill="#55ab36" d="M200 700H300V800H400V600H200Z"/>
  <path fill="#779e26" d="M300 700H500V500H400V600H300Z"/>
  <path fill="#989898" d="M600 700H900V600H800V500H700V600H600Z"/>
  <path fill="#a5a5a5" d="M300 800H400V700H500V600H300Z"/>
  <path fill="#c56919" d="M600 800H800V600H600Z"/>
  <path fill="#d11f25" d="M600 700H700V800H800V700H900V600H600Z"/>
  <path fill="#d95120" d="M700 700H900V600H700Z"/>
  <path fill="#080701" d="M300 700H500V600H300ZM600 700H800V600H600Z"/>
  <path fill="#6c6710" d="M300 700H400V600H300Z"/>
  <path fill="#805d0f" d="M700 700H800V600H700Z"/>
</svg>
