<?xml version="1.0" encoding="UTF-8"?>
<svg xmlns="http://www.w3.org/2000/svg" viewBox="0 0 1200 1200" width="1200" height="1200">
  <title>emoji_u27bf</title>
  <path fill="#606265" d="M0 300H200V400H400V800H500V300H600V900H700V1000H1000V800H700V500H800V400H1000V300H1100V100H900V200H700V100H400V200H200V100H0ZM0 900H100V1000H400V800H100V500H200V400H0ZM1000 800H1100V400H1000Z"/>
  <path fill="#9a9a99" d="M0 500H200V400H400V300H300V200H100V100H0V300H100V400H0ZM500 300H600V400H700V300H800V200H500ZM800 400H900V300H800ZM700 500H800V400H700ZM200 1000H400V900H500V700H400V800H300V900H200ZM800 1000H1000V900H1100V700H1000V800H900V900H800Z"/>
  <path fill="#464c4f" d="M0 300H200V200H0ZM400 300H700V200H400ZM900 300H1100V200H900ZM200 400H400V300H200ZM800 400H900V300H800ZM100 500H200V400H100ZM700 500H800V400H700ZM0 900H100V800H0ZM400 900H500V800H400ZM600 900H700V800H600ZM1000 900H1100V800H1000ZM100 1000H400V900H100ZM700 1000H1000V900H700Z"/>
</svg>
