<?xml version="1.0" encoding="UTF-8"?>
<svg xmlns="http://www.w3.org/2000/svg" viewBox="0 0 1200 1200" width="1200" height="1200">
  <title>emoji_u1f64e_1f3fe</title>
  <path fill="#f37f21" d="M0 1100H100V1200H500V1100H600V1200H1100V900H1000V800H900V700H600V800H500V700H200V800H100V900H0Z"/>
  <path fill="#3c2c23" d="M100 700H200V800H300V600H400V500H700V600H800V800H900V700H1000V300H900V200H800V100H300V200H200V300H100Z"/>
  <path fill="#a53e11" d="M300 1100H400V1200H500V1100H800V900H700V800H500V900H600V1000H300Z"/>
  <path fill="#a56c43" d="M200 800H400V900H700V800H900V500H800V400H300V500H200Z"/>
  <path fill="#875334" d="M100 1100H400V900H300V1000H200V900H100ZM700 1100H1000V900H900V1000H800V900H700Z"/>
  <path fill="#9d6540" d="M400 900H500V800H400ZM600 900H700V800H600ZM300 1100H500V1000H400V900H300ZM600 1100H800V900H700V1000H600ZM100 1100H200V1000H100ZM900 1100H1000V1000H900Z"/>
  <path fill="#42312c" d="M300 600H400V500H300ZM700 600H800V500H700Z"/>
  <path fill="#473530" d="M500 700H600V600H500ZM400 900H700V700H600V800H500V700H400Z"/>
  <path fill="#7a4c32" d="M400 900H700V800H400Z"/>
</svg>
