<?xml version="1.0" encoding="UTF-8"?>
<svg xmlns="http://www.w3.org/2000/svg" viewBox="0 0 1200 1200" width="1200" height="1200">
  <title>emoji_u1f3c3_1f3fb</title>
  <path fill="#325599" d="M900 900H1000V1000H1100V700H900ZM400 1200H600V1100H700V1000H500V1100H400Z"/>
  <path fill="#ed6d23" d="M200 800H300V700H500V500H600V600H700V500H1000V400H900V300H600V200H500V400H400V500H300V600H200Z"/>
  <path fill="#edbd82" d="M800 500H900V600H1000V400H800ZM0 700H100V800H200V600H100V500H0Z"/>
  <path fill="#616161" d="M700 900H1000V700H800V600H700Z"/>
  <path fill="#f9ddbd" d="M300 400H400V500H600V200H500V100H300ZM800 500H1000V400H800ZM100 800H300V600H100Z"/>
  <path fill="#7c7c7c" d="M500 1100H700V900H800V600H600V700H500Z"/>
  <path fill="#312d2d" d="M300 200H400V300H500V400H400V500H700V400H600V100H300Z"/>
  <path fill="#f58316" d="M400 700H500V900H600V800H700V700H800V600H700V400H400Z"/>
</svg>
