<?xml version="1.0" encoding="UTF-8"?>
<svg xmlns="http://www.w3.org/2000/svg" viewBox="0 0 1200 1200" width="1200" height="1200">
  <title>emoji_u1f37d</title>
  <path fill="#c8c8c8" d="M0 700H100V1200H200V700H300V800H400V500H100V600H0ZM900 800H1000V1200H1100V700H900Z"/>
  <path fill="#9c9c9c" d="M800 900H900V800H1100V100H1000V200H900V500H800ZM0 700H200V600H400V500H300V200H200V400H100V200H0Z"/>
  <path fill="#d4d4d4" d="M300 900H400V1000H800V900H900V500H700V800H500V700H300Z"/>
  <path fill="#e0e0e0" d="M1000 800H1100V100H1000ZM100 700H200V600H300V700H400V500H100Z"/>
  <path fill="#fdfdfd" d="M100 700H200V600H100ZM1000 800H1100V700H1000ZM100 1200H200V1100H100ZM1000 1200H1100V1100H1000Z"/>
  <path fill="#f6f6f6" d="M300 800H400V900H800V600H900V500H800V400H400V500H300Z"/>
  <path fill="#ffffff" d="M400 800H500V700H700V800H800V600H700V500H500V600H400ZM500 900H700V800H500Z"/>
  <path fill="#d5d5d5" d="M500 700H700V600H500Z"/>
</svg>
