<?xml version="1.0" encoding="UTF-8"?>
<svg xmlns="http://www.w3.org/2000/svg" viewBox="0 0 1200 1200" width="1200" height="1200">
  <title>emoji_u1f644</title>
  <path fill="#eb8f00" d="M0 1000H100V1100H200V1200H900V1100H1000V1000H1100V300H1000V200H900V100H200V200H100V300H0Z"/>
  <path fill="#fde030" d="M100 1000H200V1100H900V1000H1000V300H900V200H200V300H100Z"/>
  <path fill="#422b0d" d="M200 600H500V400H400V300H300V400H200ZM600 600H900V400H800V300H700V400H600ZM400 1000H700V900H400Z"/>
  <path fill="#ffffff" d="M300 400H400V300H300ZM700 400H800V300H700ZM200 600H300V700H400V600H500V400H400V500H300V400H200ZM600 600H700V700H800V600H900V400H800V500H700V400H600Z"/>
</svg>
