<?xml version="1.0" encoding="UTF-8"?>
<svg xmlns="http://www.w3.org/2000/svg" viewBox="0 0 1200 1200" width="1200" height="1200">
  <title>emoji_u1f1ff_1f1f2</title>
  <path fill="#ef7d00" d="M900 1000H1100V500H900Z"/>
  <path fill="#378300" d="M900 500H1100V300H900Z"/>
  <path fill="#2e8500" d="M900 600H1100V400H1000V300H900Z"/>
  <path fill="#2f8500" d="M800 500H1000V300H800Z"/>
  <path fill="#388300" d="M600 500H900V300H600Z"/>
  <path fill="#3b8400" d="M700 500H1000V400H900V300H800V400H700Z"/>
  <path fill="#838400" d="M900 700H1000V600H1100V500H1000V400H900Z"/>
  <path fill="#482600" d="M800 1000H1000V500H800Z"/>
  <path fill="#198a00" d="M0 1000H800V400H700V300H0Z"/>
  <path fill="#540c06" d="M700 1000H900V600H1000V500H700Z"/>
  <path fill="#d1270f" d="M700 1000H800V600H900V500H700Z"/>
  <path fill="#238700" d="M700 600H900V400H700Z"/>
  <path fill="#305900" d="M800 600H1000V400H800Z"/>
  <path fill="#667b00" d="M700 600H900V500H1000V400H800V500H700Z"/>
  <path fill="#737400" d="M900 500H1000V400H900ZM800 600H900V500H800Z"/>
  <path fill="#364c03" d="M700 600H900V500H700Z"/>
  <path fill="#745907" d="M700 600H800V500H700Z"/>
</svg>
