<?xml version="1.0" encoding="UTF-8"?>
<svg xmlns="http://www.w3.org/2000/svg" viewBox="0 0 1200 1200" width="1200" height="1200">
  <title>emoji_u26d4</title>
  <path fill="#cc3333" d="M300 1100H400V1200H700V1100H900V1000H1000V800H1100V500H1000V300H900V200H700V100H400V200H300V300H600V400H800V600H900V700H800V900H600V1000H300Z"/>
  <path fill="#f44336" d="M0 800H100V1000H200V1100H700V1000H900V800H1000V500H900V300H700V200H200V300H100V500H0Z"/>
  <path fill="#ff8a80" d="M300 400H400V300H300ZM200 500H300V400H200Z"/>
  <path fill="#fafafa" d="M200 700H900V600H200Z"/>
</svg>
