<?xml version="1.0" encoding="UTF-8"?>
<svg xmlns="http://www.w3.org/2000/svg" viewBox="0 0 1200 1200" width="1200" height="1200">
  <title>emoji_u1f43b</title>
  <path fill="#855b52" d="M0 900H100V1000H200V1100H900V1000H1000V900H1100V500H1000V400H1100V200H1000V100H800V200H700V100H400V200H300V100H100V200H0V400H100V500H0Z"/>
  <path fill="#b99277" d="M100 400H200V300H300V200H100ZM800 300H900V400H1000V200H800Z"/>
  <path fill="#f2a258" d="M300 900H400V1000H700V900H800V800H700V700H600V600H500V700H400V800H300Z"/>
  <path fill="#2f3030" d="M400 900H700V800H600V700H500V800H400Z"/>
  <path fill="#171716" d="M300 600H400V500H300ZM700 600H800V500H700Z"/>
</svg>
