<?xml version="1.0" encoding="UTF-8"?>
<svg xmlns="http://www.w3.org/2000/svg" viewBox="0 0 1200 1200" width="1200" height="1200">
  <title>emoji_u1f419</title>
  <path fill="#ffa8a8" d="M0 1200H400V1100H700V1200H1100V1100H1000V1000H1100V600H1000V700H900V800H800V900H700V800H400V900H300V800H200V700H100V600H0V1000H100V1100H0Z"/>
  <path fill="#a92813" d="M100 900H200V1000H500V600H400V400H500V300H600V400H700V600H600V1000H900V900H1000V700H900V800H800V700H900V300H800V200H700V100H400V200H300V300H200V700H300V800H200V700H100ZM0 700H100V600H0ZM1000 700H1100V600H1000Z"/>
  <path fill="#ff615e" d="M200 1100H400V1000H500V900H600V1000H700V1100H900V900H700V700H800V300H700V200H400V300H300V700H400V900H200ZM100 900H200V800H100ZM900 900H1000V800H900Z"/>
  <path fill="#2c2b2d" d="M400 600H500V500H400ZM600 600H700V500H600Z"/>
</svg>
