<?xml version="1.0" encoding="UTF-8"?>
<svg xmlns="http://www.w3.org/2000/svg" viewBox="0 0 1200 1200" width="1200" height="1200">
  <title>emoji_u1f6a2</title>
  <path fill="#ff7555" d="M200 400H500V100H300V300H200ZM600 400H900V100H700V300H600Z"/>
  <path fill="#356477" d="M0 1100H100V1200H1100V700H100V800H0Z"/>
  <path fill="#eeeeee" d="M100 800H1100V500H1000V300H900V200H800V300H500V200H400V300H200V600H100Z"/>
  <path fill="#f44336" d="M400 300H500V100H400ZM800 300H900V100H800ZM0 1000H1100V900H0Z"/>
  <path fill="#82aec0" d="M100 700H300V800H400V700H500V800H600V700H700V800H800V700H900V800H1000V700H1100V600H1000V400H200V500H300V600H100ZM400 600V500H500V600ZM600 600V500H700V600ZM800 600V500H900V600Z"/>
  <path fill="#365666" d="M300 600H400V500H300ZM500 600H600V500H500ZM700 600H800V500H700ZM900 600H1000V500H900ZM300 800H400V700H300ZM500 800H600V700H500ZM700 800H800V700H700ZM900 800H1000V700H900Z"/>
</svg>
