<?xml version="1.0" encoding="UTF-8"?>
<svg xmlns="http://www.w3.org/2000/svg" viewBox="0 0 1200 1200" width="1200" height="1200">
  <title>emoji_u1f6a6</title>
  <path fill="#424242" d="M300 1100H400V1200H800V1100H900V200H800V100H400V200H300Z"/>
  <path fill="#757575" d="M400 1000H500V1100H700V1000H800V900H700V700H800V600H700V400H800V300H700V200H500V300H400V400H500V600H400V700H500V900H400Z"/>
  <path fill="#4caf50" d="M500 1100H700V900H500Z"/>
  <path fill="#f44336" d="M500 500H700V300H500Z"/>
  <path fill="#ffca28" d="M500 800H700V600H500Z"/>
  <path fill="#6fd86f" d="M500 1000H600V900H500Z"/>
  <path fill="#ff8155" d="M500 400H600V300H500Z"/>
  <path fill="#fff59d" d="M500 700H600V600H500Z"/>
</svg>
