<?xml version="1.0" encoding="UTF-8"?>
<svg xmlns="http://www.w3.org/2000/svg" viewBox="0 0 1200 1200" width="1200" height="1200">
  <title>emoji_u1f457</title>
  <path fill="#0d47a1" d="M300 300H400V400H700V300H800V100H600V200H500V100H300Z"/>
  <path fill="#7fd8ff" d="M300 700H800V400H300Z"/>
  <path fill="#1565c0" d="M300 500H800V100H700V200H600V300H500V200H400V100H300ZM100 1100H200V1200H900V1100H1000V900H900V700H800V600H300V700H200V900H100Z"/>
  <path fill="#0d49a3" d="M400 1000H500V800H400ZM600 1200H800V1100H700V900H600ZM300 1200H400V1000H300Z"/>
</svg>
