<?xml version="1.0" encoding="UTF-8"?>
<svg xmlns="http://www.w3.org/2000/svg" viewBox="0 0 1200 1200" width="1200" height="1200">
  <title>emoji_u1f45d</title>
  <path fill="#82aec0" d="M0 900H100V800H300V600H400V500H800V600H900V900H1000V800H1100V500H1000V400H900V300H300V400H200V500H100V700H0Z"/>
  <path fill="#94d1e0" d="M100 800H200V900H300V600H200V700H100ZM0 900H100V800H0Z"/>
  <path fill="#f2a600" d="M200 1000H1000V500H700V800H500V500H200Z"/>
  <path fill="#ffe36c" d="M200 700H300V600H900V700H1000V500H900V400H300V500H200Z"/>
  <path fill="#ffc107" d="M300 900H900V800H800V600H900V500H300V600H400V800H300Z"/>
</svg>
