<?xml version="1.0" encoding="UTF-8"?>
<svg xmlns="http://www.w3.org/2000/svg" viewBox="0 0 1200 1200" width="1200" height="1200">
  <title>emoji_u1f1f3_1f1e8</title>
  <path fill="#0035ad" d="M0 600H300V500H500V600H1100V300H0Z"/>
  <path fill="#009543" d="M0 1000H1100V700H500V800H300V700H0Z"/>
  <path fill="#9d3d5e" d="M500 700H1100V500H600V400H500ZM0 700H200V500H0Z"/>
  <path fill="#9d5d3a" d="M0 800H200V600H0ZM500 900H600V800H1100V600H500Z"/>
  <path fill="#ed4135" d="M0 700H100V800H200V500H100V600H0ZM500 800H600V700H1100V600H600V500H500Z"/>
  <path fill="#0035ac" d="M400 600H600V400H400Z"/>
  <path fill="#009443" d="M400 900H600V700H400Z"/>
  <path fill="#24400e" d="M200 900H500V700H200Z"/>
  <path fill="#38597c" d="M100 600H400V400H200V500H100Z"/>
  <path fill="#389e30" d="M100 800H200V900H300V800H400V700H100Z"/>
  <path fill="#57951f" d="M300 800H400V900H500V800H600V700H300Z"/>
  <path fill="#708051" d="M300 600H600V500H500V400H300Z"/>
  <path fill="#8d8d24" d="M200 600H500V500H400V400H300V500H200Z"/>
  <path fill="#983d5c" d="M100 700H300V500H100Z"/>
  <path fill="#985d38" d="M100 800H300V600H100Z"/>
  <path fill="#e04c2d" d="M100 700H200V800H300V500H200V600H100Z"/>
  <path fill="#8b8000" d="M200 800H500V600H200Z"/>
  <path fill="#9e6047" d="M400 700H600V500H400Z"/>
  <path fill="#9e7b29" d="M400 800H600V600H400Z"/>
  <path fill="#9f9200" d="M200 700H500V500H200Z"/>
  <path fill="#e1d00a" d="M200 700H400V600H300V500H200Z"/>
  <path fill="#e1d604" d="M200 800H300V700H400V600H200Z"/>
  <path fill="#f4e000" d="M300 700H400V800H500V700H600V600H300Z"/>
  <path fill="#f6e200" d="M300 700H600V600H500V500H400V600H300Z"/>
  <path fill="#fae600" d="M200 700H600V600H200Z"/>
  <path fill="#978b00" d="M300 700H400V600H300Z"/>
  <path fill="#e4831b" d="M500 700H600V600H500Z"/>
</svg>
