<?xml version="1.0" encoding="UTF-8"?>
<svg xmlns="http://www.w3.org/2000/svg" viewBox="0 0 1200 1200" width="1200" height="1200">
  <title>emoji_u1f1ee_1f1f7</title>
  <path fill="#239f40" d="M0 500H1100V300H0Z"/>
  <path fill="#da0000" d="M0 1000H1100V800H0Z"/>
  <path fill="#2aa246" d="M0 600H200V400H0ZM900 600H1100V400H900Z"/>
  <path fill="#f8cfcf" d="M0 900H200V600H0ZM900 900H1100V600H900Z"/>
  <path fill="#d5edda" d="M0 700H200V400H100V500H0Z"/>
  <path fill="#d5eddb" d="M900 700H1100V500H1000V400H900Z"/>
  <path fill="#db0707" d="M0 900H200V700H100V800H0Z"/>
  <path fill="#db0808" d="M100 900H1100V800H1000V700H100Z"/>
  <path fill="#ffffff" d="M0 700H100V800H500V500H100V600H0ZM600 800H1000V700H1100V600H1000V500H600Z"/>
  <path fill="#2ba247" d="M100 600H1000V400H100Z"/>
  <path fill="#2ba246" d="M100 600H300V500H200V400H100ZM400 600H700V500H600V400H500V500H400Z"/>
  <path fill="#d9eede" d="M100 600H400V700H600V500H100Z"/>
  <path fill="#d9efde" d="M700 600H1000V500H700Z"/>
  <path fill="#f9d3d3" d="M100 800H800V700H700V600H400V700H100Z"/>
  <path fill="#f9d4d4" d="M600 700H700V600H600ZM200 800H400V700H200ZM700 800H1000V700H700Z"/>
  <path fill="#daefdf" d="M200 600H400V500H200ZM600 700H700V600H800V500H600ZM400 700H500V600H400Z"/>
  <path fill="#d5dac9" d="M400 700H700V500H500V600H400Z"/>
  <path fill="#d9eedd" d="M500 700H700V500H600V600H500Z"/>
  <path fill="#f4b1b1" d="M400 700H500V800H600V700H700V600H400Z"/>
  <path fill="#f9d5d5" d="M400 700H500V600H400ZM300 800H400V700H300Z"/>
  <path fill="#fadfdf" d="M400 700H700V600H400Z"/>
  <path fill="#f09595" d="M500 700H600V600H500Z"/>
</svg>
