<?xml version="1.0" encoding="UTF-8"?>
<svg xmlns="http://www.w3.org/2000/svg" viewBox="0 0 1200 1200" width="1200" height="1200">
  <title>emoji_u1f958</title>
  <path fill="#6c6e70" d="M100 200H300V100H100ZM0 400H100V200H0ZM100 900H200V1000H300V1100H800V1000H900V900H1000V400H900V300H800V200H300V300H200V400H100ZM1000 1100H1100V900H1000ZM800 1200H1000V1100H800Z"/>
  <path fill="#302f2f" d="M200 900H300V1000H800V900H900V400H800V300H300V400H200Z"/>
  <path fill="#d28333" d="M300 900H800V400H300Z"/>
  <path fill="#ea4333" d="M600 700H700V600H800V500H600ZM400 900H500V800H600V700H400Z"/>
  <path fill="#684d42" d="M600 800H800V700H700V600H600Z"/>
  <path fill="#768040" d="M300 700H400V800H700V500H600V400H400V600H300Z"/>
  <path fill="#c67c5d" d="M500 700H700V500H500Z"/>
  <path fill="#f2ab47" d="M400 800H500V700H600V800H700V600H600V500H400Z"/>
</svg>
