<?xml version="1.0" encoding="UTF-8"?>
<svg xmlns="http://www.w3.org/2000/svg" viewBox="0 0 1200 1200" width="1200" height="1200">
  <title>emoji_u1f965</title>
  <path fill="#8e4d2f" d="M500 300H700V100H600V200H500ZM200 300H300V200H200ZM700 400H900V200H800V300H700ZM300 400H400V300H300ZM0 500H100V400H0ZM0 700H100V800H200V500H100V600H0ZM200 1000H300V1100H500V1200H900V1100H1000V1000H1100V600H1000V500H900V700H800V800H700V900H200Z"/>
  <path fill="#532d1d" d="M100 800H200V1000H500V1100H600V1000H800V900H900V800H1000V400H900V300H700V200H400V300H300V400H200V500H100ZM1000 900H1100V800H1000ZM800 1100H900V1000H800ZM600 1200H700V1100H600Z"/>
  <path fill="#feffff" d="M200 800H300V900H800V800H900V400H700V300H400V400H300V500H200Z"/>
  <path fill="#e0e0e0" d="M300 700H400V800H700V700H800V500H700V400H400V500H300Z"/>
  <path fill="#b1b1b1" d="M400 700H700V500H400Z"/>
</svg>
