<?xml version="1.0" encoding="UTF-8"?>
<svg xmlns="http://www.w3.org/2000/svg" viewBox="0 0 1200 1200" width="1200" height="1200">
  <title>emoji_u1f1f8_1f1fd</title>
  <path fill="#ffffff" d="M0 600H200V300H0ZM0 1000H200V700H0Z"/>
  <path fill="#a4b2d4" d="M0 1000H200V800H100V900H0Z"/>
  <path fill="#f2acae" d="M0 400H100V500H200V300H0Z"/>
  <path fill="#0f368e" d="M100 1000H300V800H100Z"/>
  <path fill="#de2429" d="M100 500H300V300H100Z"/>
  <path fill="#f4ebcd" d="M0 800H100V900H200V600H0Z"/>
  <path fill="#f6ddc6" d="M0 700H100V800H200V500H0Z"/>
  <path fill="#fcf1f2" d="M0 600H100V700H200V400H100V500H0Z"/>
  <path fill="#012a87" d="M100 900H200V1000H1100V600H400V700H200V800H100Z"/>
  <path fill="#dc171d" d="M100 500H200V600H400V700H1100V300H200V400H100Z"/>
  <path fill="#6f2152" d="M400 800H500V700H1100V600H500V500H400Z"/>
  <path fill="#3959a2" d="M100 900H300V800H400V700H100Z"/>
  <path fill="#94a8b5" d="M100 800H300V500H100Z"/>
  <path fill="#c0a485" d="M100 600H200V700H300V400H100Z"/>
  <path fill="#dcb988" d="M100 900H200V800H300V600H200V700H100Z"/>
  <path fill="#dde3ef" d="M200 800H300V700H200ZM100 900H200V800H100Z"/>
  <path fill="#e44b4f" d="M100 500H200V600H400V500H300V400H100Z"/>
  <path fill="#fae0e1" d="M100 500H200V400H100ZM200 600H300V500H200Z"/>
  <path fill="#042d88" d="M300 800H500V600H300Z"/>
  <path fill="#788aa8" d="M200 800H400V700H500V600H200Z"/>
  <path fill="#a7a2b1" d="M200 800H300V700H400V500H200Z"/>
  <path fill="#d3b3ac" d="M200 600H300V700H400V500H200Z"/>
  <path fill="#dc1a20" d="M300 700H500V500H300Z"/>
  <path fill="#dfbe8e" d="M300 700H400V600H300ZM200 800H300V700H200Z"/>
  <path fill="#ed898c" d="M300 700H500V600H400V500H300Z"/>
  <path fill="#bc98af" d="M300 700H500V600H300Z"/>
  <path fill="#faf7df" d="M300 700H400V600H300Z"/>
</svg>
