<?xml version="1.0" encoding="UTF-8"?>
<svg xmlns="http://www.w3.org/2000/svg" viewBox="0 0 1200 1200" width="1200" height="1200">
  <title>emoji_u1f4a9</title>
  <path fill="#35220b" d="M300 1100H900V500H300Z"/>
  <path fill="#885742" d="M100 1000H200V1100H500V1000H400V900H800V1000H700V1100H1000V1000H1100V800H1000V700H900V500H800V400H700V300H500V200H400V500H300V700H200V800H100ZM400 700V600H500V700ZM700 700V600H800V700Z"/>
  <path fill="#ffffff" d="M400 600H500V500H400ZM700 600H800V500H700ZM300 700H400V600H300ZM500 700H700V600H500ZM800 700H900V600H800ZM400 800H500V700H400ZM700 800H800V700H700Z"/>
</svg>
