<?xml version="1.0" encoding="UTF-8"?>
<svg xmlns="http://www.w3.org/2000/svg" viewBox="0 0 1200 1200" width="1200" height="1200">
  <title>emoji_u1f420</title>
  <path fill="#008c9a" d="M0 700H300V500H500V400H700V600H800V700H1100V400H1000V500H900V300H1000V200H1100V100H600V200H400V300H200V400H100V600H0Z"/>
  <path fill="#797c00" d="M800 1000H900V900H1000V1000H1100V400H1000V600H900V700H800Z"/>
  <path fill="#7a7d02" d="M0 900H200V600H0Z"/>
  <path fill="#d5c60e" d="M0 900H100V1000H200V1100H300V1200H600V1100H900V800H1000V700H700V900H500V1000H400V900H300V800H200V700H100V800H0Z"/>
  <path fill="#ffd61c" d="M100 900H200V1000H300V1100H600V1000H800V800H900V700H400V800H300V700H100Z"/>
  <path fill="#0ac1e1" d="M300 600H400V700H1000V600H900V500H800V300H900V200H600V300H400V400H300Z"/>
  <path fill="#abce5f" d="M100 800H200V900H300V500H200V600H100ZM400 900H500V800H600V900H700V800H1000V600H700V500H600V600H500V500H400Z"/>
  <path fill="#b4e0b4" d="M200 900H300V1000H400V900H500V500H400V400H200ZM600 900H700V400H600Z"/>
  <path fill="#464c4f" d="M300 800H400V700H300Z"/>
</svg>
