<?xml version="1.0" encoding="UTF-8"?>
<svg xmlns="http://www.w3.org/2000/svg" viewBox="0 0 1200 1200" width="1200" height="1200">
  <title>emoji_u1f968</title>
  <path fill="#e07f14" d="M0 800H100V900H200V1000H100V1100H200V1200H300V1100H400V1200H800V1100H900V1200H1000V1100H1100V1000H1000V900H1100V300H1000V200H900V100H600V200H500V100H200V200H100V300H0ZM300 700V400H400V700ZM700 700V400H800V700ZM500 1000V900H700V1000Z"/>
  <path fill="#fdffff" d="M300 200H400V100H300ZM700 400H800V200H700ZM400 600H500V500H600V600H700V400H500V300H400ZM100 500H200V800H300V900H400V700H300V400H100ZM900 500H1000V400H900ZM1000 600H1100V500H1000ZM0 700H100V600H0ZM800 700H900V600H800ZM700 800H800V700H700Z"/>
  <path fill="#ad5834" d="M300 400H400V500H500V300H300ZM700 400H800V300H700ZM200 700H300V400H200ZM300 900H400V800H500V900H700V800H800V700H700V400H600V600H400V700H300ZM500 800V700H600V800ZM1000 900H1100V500H1000ZM800 900H900V800H800ZM200 1000H300V900H200ZM400 1000H500V900H400ZM700 1000H800V900H700ZM900 1000H1000V900H900ZM100 1100H200V1000H100ZM300 1100H400V1000H300ZM800 1100H900V1000H800ZM1000 1100H1100V1000H1000ZM200 1200H300V1100H200ZM400 1200H800V1100H400ZM900 1200H1000V1100H900Z"/>
  <path fill="#ffb502" d="M500 300H600V200H500ZM400 800H500V700H600V600H500V300H400ZM300 900H400V800H300ZM600 900H700V800H600ZM200 1000H300V900H200ZM700 1000H800V900H700ZM100 1100H200V1000H100ZM800 1100H900V1000H800Z"/>
</svg>
