<?xml version="1.0" encoding="UTF-8"?>
<svg xmlns="http://www.w3.org/2000/svg" viewBox="0 0 1200 1200" width="1200" height="1200">
  <title>emoji_u1f6ec</title>
  <path fill="#e1e1e1" d="M200 400H800V500H1100V400H1000V300H900V200H300V300H200Z"/>
  <path fill="#5d6268" d="M400 700H500V800H600V700H700V800H800V700H900V800H1000V600H400Z"/>
  <path fill="#5e6268" d="M0 1200H1100V900H0Z"/>
  <path fill="#014eac" d="M0 500H400V300H200V100H0Z"/>
  <path fill="#006ca8" d="M0 800H300V700H500V400H100V300H0V500H100V700H0Z"/>
  <path fill="#c8c8c8" d="M0 400H100V300H0ZM100 500H400V700H1000V600H1100V400H900V300H300V400H100ZM100 1100H300V1000H100ZM500 1100H700V1000H500ZM900 1100H1100V1000H900Z"/>
  <path fill="#385662" d="M500 500H600V400H500ZM700 500H800V400H700ZM900 500H1100V400H900Z"/>
</svg>
