<?xml version="1.0" encoding="UTF-8"?>
<svg xmlns="http://www.w3.org/2000/svg" viewBox="0 0 1200 1200" width="1200" height="1200">
  <title>emoji_u1f44e_1f3fb</title>
  <path fill="#efb682" d="M500 900H600V1100H700V1200H800V1100H900V1000H800V900H900V800H1000V700H1100V600H1000V500H1100V400H1000V300H1100V200H1000V100H600V200H500V500H600V600H700V800H500ZM0 400H300V200H0ZM0 700H400V500H0Z"/>
  <path fill="#b26830" d="M100 400H500V500H200V600H300V700H400V800H500V900H700V1100H900V700H1000V200H900V300H700V400H900V500H700V400H600V300H700V200H900V100H400V200H200V300H100ZM800 700V600H900V700Z"/>
  <path fill="#f9ddbd" d="M0 600H400V700H500V800H600V900H700V1100H800V700H700V600H600V200H400V300H0ZM900 300H1000V200H900ZM900 500H1000V400H900ZM900 700H1000V600H900Z"/>
</svg>
