<?xml version="1.0" encoding="UTF-8"?>
<svg xmlns="http://www.w3.org/2000/svg" viewBox="0 0 1200 1200" width="1200" height="1200">
  <title>emoji_u1f452</title>
  <path fill="#e6a467" d="M0 900H300V1000H800V900H900V800H800V700H900V400H800V300H700V200H500V800H400V700H100V800H0Z"/>
  <path fill="#4b0dd4" d="M600 800H700V900H1100V800H1000V700H900V600H700V700H600Z"/>
  <path fill="#8954ff" d="M100 800H300V900H600V800H800V700H900V600H700V700H600V600H500V500H200V700H100ZM600 600H700V500H600ZM900 900H1000V1000H1100V800H900Z"/>
  <path fill="#fada80" d="M200 600H400V700H600V600H700V500H600V400H700V300H600V200H400V300H300V400H200ZM700 500H800V400H700ZM100 800H300V900H600V800H400V700H100Z"/>
</svg>
