<?xml version="1.0" encoding="UTF-8"?>
<svg xmlns="http://www.w3.org/2000/svg" viewBox="0 0 1200 1200" width="1200" height="1200">
  <title>emoji_u1f52a</title>
  <path fill="#474c4f" d="M0 300H100V400H200V500H300V600H400V700H500V400H400V300H300V200H200V100H100V200H0Z"/>
  <path fill="#b0b0b0" d="M100 300H200V400H300V500H400V700H300V800H400V900H500V1000H600V1100H700V1200H1100V1000H800V900H700V800H600V700H700V600H600V500H500V400H400V300H300V200H200V100H100Z"/>
  <path fill="#5e6367" d="M100 200H200V100H100ZM200 400H400V300H300V200H200ZM400 600H500V400H400ZM500 700H600V600H500Z"/>
  <path fill="#e0e0e0" d="M400 800H500V900H600V1000H700V1100H1100V1000H1000V900H900V800H800V700H700V600H500V700H400Z"/>
</svg>
