<?xml version="1.0" encoding="UTF-8"?>
<svg xmlns="http://www.w3.org/2000/svg" viewBox="0 0 1200 1200" width="1200" height="1200">
  <title>emoji_u1f520</title>
  <path fill="#427687" d="M0 1100H100V1200H1000V1100H1100V200H1000V100H900V1000H0Z"/>
  <path fill="#8cafbf" d="M0 1100H300V1200H500V1100H600V1200H800V1100H1000V100H100V200H0Z"/>
  <path fill="#fafafa" d="M300 200H400V100H300ZM600 600H800V500H900V200H800V300H700V200H800V100H600ZM700 500V400H800V500ZM100 400H200V600H300V400H400V600H500V200H400V300H300V200H200V300H100ZM300 800H500V700H300ZM600 1200H800V1100H700V800H800V700H600ZM200 1100H300V800H200ZM800 1100H900V800H800ZM300 1200H500V1100H300Z"/>
  <path fill="#a0c8d6" d="M100 400H200V300H100Z"/>
</svg>
