<?xml version="1.0" encoding="UTF-8"?>
<svg xmlns="http://www.w3.org/2000/svg" viewBox="0 0 1200 1200" width="1200" height="1200">
  <title>emoji_u1f1e7_1f1f8</title>
  <path fill="#002c33" d="M0 500H200V300H0ZM0 1000H200V800H0Z"/>
  <path fill="#007184" d="M0 500H300V300H100V400H0ZM0 900H100V1000H300V800H0Z"/>
  <path fill="#00778b" d="M100 500H200V600H1100V300H200V400H100ZM100 900H200V1000H1100V700H200V800H100Z"/>
  <path fill="#000000" d="M0 900H300V800H500V500H300V400H0Z"/>
  <path fill="#a9ac4c" d="M400 800H1100V500H400Z"/>
  <path fill="#ffc72c" d="M400 800H500V700H1100V600H500V500H400Z"/>
  <path fill="#001215" d="M100 500H200V600H300V400H100ZM100 900H300V700H200V800H100Z"/>
  <path fill="#006071" d="M200 600H400V500H300V400H200ZM200 900H300V800H400V700H200Z"/>
  <path fill="#000304" d="M200 600H400V500H200ZM200 800H400V700H200Z"/>
  <path fill="#3f5838" d="M300 800H500V500H300V600H400V700H300Z"/>
  <path fill="#a8ac4c" d="M400 800H500V500H400Z"/>
  <path fill="#937319" d="M400 700H500V600H400Z"/>
</svg>
