<?xml version="1.0" encoding="UTF-8"?>
<svg xmlns="http://www.w3.org/2000/svg" viewBox="0 0 1200 1200" width="1200" height="1200">
  <title>emoji_u1f1fb_1f1ee</title>
  <path fill="#fcfbf7" d="M0 500H200V300H0ZM900 500H1100V300H900Z"/>
  <path fill="#eff5f8" d="M900 900H1100V400H900Z"/>
  <path fill="#faf7ef" d="M0 500H300V300H100V400H0ZM800 500H1100V400H1000V300H800Z"/>
  <path fill="#fcfcfa" d="M0 600H200V400H0ZM900 600H1000V500H1100V400H900Z"/>
  <path fill="#d3e6f0" d="M900 800H1000V700H1100V600H1000V500H900Z"/>
  <path fill="#e4eef4" d="M0 700H200V400H100V500H0Z"/>
  <path fill="#e4eff5" d="M0 800H200V500H100V600H0Z"/>
  <path fill="#f3f6f8" d="M600 1000H900V800H600Z"/>
  <path fill="#f8f4e7" d="M400 500H700V300H400Z"/>
  <path fill="#fcfcfd" d="M500 1000H700V900H800V800H500Z"/>
  <path fill="#ffffff" d="M100 500H1000V400H900V300H600V400H500V300H200V400H100ZM0 1000H600V900H800V1000H1100V800H1000V700H700V800H400V700H200V600H100V700H0Z"/>
  <path fill="#dbbb5d" d="M100 600H400V400H100ZM700 600H1000V400H700Z"/>
  <path fill="#debf67" d="M100 600H300V500H200V400H100ZM800 600H1000V400H900V500H800Z"/>
  <path fill="#eed796" d="M200 600H500V400H300V500H200ZM600 600H900V500H800V400H600Z"/>
  <path fill="#76a9c0" d="M600 900H800V800H900V700H600Z"/>
  <path fill="#87b9d4" d="M100 800H300V500H100Z"/>
  <path fill="#c8cdb7" d="M500 900H700V800H800V700H500Z"/>
  <path fill="#dae3d5" d="M200 800H300V900H500V700H200Z"/>
  <path fill="#dcb852" d="M400 900H600V800H700V700H400Z"/>
  <path fill="#dfebf2" d="M100 800H300V600H200V700H100Z"/>
  <path fill="#e0ba4f" d="M400 600H700V400H400Z"/>
  <path fill="#e0eaee" d="M100 600H200V700H300V500H100Z"/>
  <path fill="#e2eef4" d="M800 800H1000V500H800Z"/>
  <path fill="#ede3c5" d="M300 800H400V900H500V800H600V700H300Z"/>
  <path fill="#f2f5f6" d="M800 700H900V600H1000V500H800Z"/>
  <path fill="#f3f0e6" d="M300 600H600V500H500V400H400V500H300Z"/>
  <path fill="#f4f8fa" d="M800 800H1000V700H900V600H800Z"/>
  <path fill="#f8f7f2" d="M500 600H800V500H700V400H600V500H500Z"/>
  <path fill="#d7af3c" d="M200 700H500V500H200ZM600 700H900V500H600Z"/>
  <path fill="#2e3366" d="M400 700H700V500H400Z"/>
  <path fill="#585366" d="M300 700H600V600H500V500H400V600H300Z"/>
  <path fill="#585467" d="M500 700H800V600H700V500H600V600H500Z"/>
  <path fill="#84b0c8" d="M700 800H900V500H800V600H700Z"/>
  <path fill="#88a98d" d="M200 800H400V600H300V500H200Z"/>
  <path fill="#a1aa73" d="M200 800H500V600H300V700H200Z"/>
  <path fill="#b3b89d" d="M600 800H900V700H800V600H600Z"/>
  <path fill="#b8885e" d="M400 800H700V600H400Z"/>
  <path fill="#c6d6c8" d="M300 700H400V600H300ZM200 800H300V700H200Z"/>
  <path fill="#c8a556" d="M500 700H600V800H700V700H800V600H500Z"/>
  <path fill="#c9a556" d="M300 700H400V800H500V700H600V600H300Z"/>
  <path fill="#cdc084" d="M200 600H300V500H200ZM300 700H400V600H300Z"/>
  <path fill="#dee8ee" d="M700 700H800V600H700ZM800 800H900V700H800Z"/>
  <path fill="#e0cd97" d="M800 600H900V500H800ZM700 700H800V600H700Z"/>
  <path fill="#be8172" d="M300 700H800V600H300Z"/>
  <path fill="#bb8293" d="M500 700H600V600H500Z"/>
  <path fill="#c8cdb9" d="M700 700H800V600H700Z"/>
  <path fill="#dad5b3" d="M300 700H400V600H300Z"/>
</svg>
