<?xml version="1.0" encoding="UTF-8"?>
<svg xmlns="http://www.w3.org/2000/svg" viewBox="0 0 1200 1200" width="1200" height="1200">
  <title>emoji_u1f48d</title>
  <path fill="#8e8e8e" d="M600 600H700V700H1000V600H900V500H800V300H600Z"/>
  <path fill="#b3e5fc" d="M200 300H400V400H700V300H900V200H800V100H300V200H200Z"/>
  <path fill="#64b5f6" d="M200 300H300V400H500V200H200Z"/>
  <path fill="#1e88e5" d="M300 600H600V400H800V300H900V200H600V300H500V200H400V300H300Z"/>
  <path fill="#81d4fa" d="M500 600H800V500H700V400H800V300H700V200H600V300H500Z"/>
  <path fill="#bdbdbd" d="M100 1000H200V1100H300V1200H800V1100H900V1000H1000V600H800V500H600V400H500V500H400V400H300V500H200V600H100ZM300 800V700H400V600H700V700H800V800H700V900H400V800Z"/>
  <path fill="#ffffff" d="M200 600H300V500H200ZM100 700H200V600H100ZM500 1000H600V1100H700V1000H800V900H900V800H700V900H500Z"/>
  <path fill="#e1f5fe" d="M400 300H500V200H400ZM600 300H700V200H600ZM500 500H600V300H500Z"/>
  <path fill="#4b8a99" d="M300 900H400V800H300ZM700 900H800V800H700ZM400 1000H700V900H400Z"/>
  <path fill="#b2ebf2" d="M500 400H600V300H500Z"/>
</svg>
