<?xml version="1.0" encoding="UTF-8"?>
<svg xmlns="http://www.w3.org/2000/svg" viewBox="0 0 1200 1200" width="1200" height="1200">
  <title>emoji_u1f498</title>
  <path fill="#d9266d" d="M100 300H300V400H400V500H700V300H800V400H900V500H800V600H700V800H500V900H400V1000H500V1100H600V1000H800V800H900V700H1000V600H1100V300H1000V200H900V100H700V200H600V300H500V200H400V100H200V200H100Z"/>
  <path fill="#ffc107" d="M800 1100H900V1200H1000V1100H1100V1000H900V900H800Z"/>
  <path fill="#ffa000" d="M0 400H300V200H100V100H0ZM400 800H500V900H700V1000H800V1100H900V900H800V600H700V500H400Z"/>
  <path fill="#c67500" d="M0 500H300V200H200V300H100V200H0ZM400 900H500V1000H600V900H700V800H600V700H500V600H400ZM600 700H700V600H600ZM700 800H800V700H700ZM700 1000H800V900H700ZM800 1100H900V1000H800Z"/>
  <path fill="#f05a94" d="M0 600H100V700H200V800H300V900H400V1000H600V800H500V600H600V700H700V800H800V700H900V600H1000V300H900V200H600V400H500V300H400V200H200V400H100V300H0Z"/>
  <path fill="#f386ab" d="M200 300H300V200H200ZM700 400H800V300H700Z"/>
  <path fill="#c2185b" d="M500 600H600V500H500ZM400 700H500V600H400Z"/>
</svg>
