<?xml version="1.0" encoding="UTF-8"?>
<svg xmlns="http://www.w3.org/2000/svg" viewBox="0 0 1200 1200" width="1200" height="1200">
  <title>emoji_u1f1f9_1f1f1</title>
  <path fill="#6f2b10" d="M0 500H200V300H0ZM0 1000H200V800H0Z"/>
  <path fill="#000000" d="M0 900H100V1000H200V300H100V400H0Z"/>
  <path fill="#df3520" d="M100 500H300V300H100ZM100 1000H300V800H100Z"/>
  <path fill="#030303" d="M0 700H200V400H100V500H0Z"/>
  <path fill="#232323" d="M0 700H100V800H200V500H100V600H0Z"/>
  <path fill="#dc241f" d="M100 900H200V1000H1100V300H200V400H100V500H300V600H400V700H300V800H100Z"/>
  <path fill="#6d4d10" d="M100 600H300V400H100ZM100 900H300V700H100Z"/>
  <path fill="#dc251f" d="M200 600H500V500H400V400H200ZM200 900H400V800H500V700H200Z"/>
  <path fill="#e96622" d="M100 600H400V500H300V400H200V500H100ZM100 800H200V900H300V800H400V700H100Z"/>
  <path fill="#212121" d="M100 800H300V600H100Z"/>
  <path fill="#2c2c2c" d="M100 700H300V500H100Z"/>
  <path fill="#d3d3d3" d="M100 700H200V800H300V500H200V600H100Z"/>
  <path fill="#f49f24" d="M200 800H500V500H200Z"/>
  <path fill="#060606" d="M200 800H300V700H400V600H300V500H200Z"/>
  <path fill="#654f10" d="M200 600H300V500H200ZM300 700H400V600H300Z"/>
  <path fill="#665011" d="M300 700H400V600H300ZM200 800H300V700H200Z"/>
  <path fill="#e23e20" d="M300 700H400V800H500V700H600V600H500V500H400V600H300Z"/>
  <path fill="#987617" d="M300 700H500V600H300Z"/>
  <path fill="#fdbe26" d="M400 700H500V600H400Z"/>
</svg>
