<?xml version="1.0" encoding="UTF-8"?>
<svg xmlns="http://www.w3.org/2000/svg" viewBox="0 0 1200 1200" width="1200" height="1200">
  <title>emoji_u1f383</title>
  <path fill="#2e7d32" d="M400 200H500V100H400ZM400 500H700V300H600V200H500V300H400Z"/>
  <path fill="#f57c00" d="M0 1000H100V1100H200V1200H900V1100H1000V1000H1100V500H1000V400H900V300H700V400H500V300H200V400H100V500H0Z"/>
  <path fill="#ff9800" d="M100 1000H200V900H300V1000H400V1100H500V1000H600V1100H700V1000H800V900H900V1000H1000V500H900V600H800V500H900V400H800V300H600V400H500V300H300V400H400V500H300V600H200V500H100ZM400 800V700H500V500H600V700H700V800ZM200 800V700H300V800ZM800 800V700H900V800ZM200 500H300V400H200ZM200 1100H300V1000H200ZM800 1100H900V1000H800ZM300 1200H400V1100H300ZM500 1200H600V1100H500ZM700 1200H800V1100H700Z"/>
  <path fill="#422b0d" d="M200 700H500V600H400V500H300V600H200ZM600 700H900V600H800V500H700V600H600ZM200 900H300V1000H400V900H500V1000H600V900H700V1000H800V900H900V800H200Z"/>
</svg>
