<?xml version="1.0" encoding="UTF-8"?>
<svg xmlns="http://www.w3.org/2000/svg" viewBox="0 0 1200 1200" width="1200" height="1200">
  <title>emoji_u1fabf</title>
  <path fill="#fd774d" d="M400 1200H600V1000H800V1100H700V1200H900V1000H1000V900H400V1000H500V1100H400Z"/>
  <path fill="#fe6011" d="M0 400H200V500H300V100H200V200H100V300H0Z"/>
  <path fill="#b4b5b7" d="M200 500H400V600H300V900H400V1000H1000V900H1100V600H700V300H600V200H500V100H200Z"/>
  <path fill="#302f2f" d="M200 400H500V200H200Z"/>
  <path fill="#ffffff" d="M600 800H700V900H900V700H700V600H600Z"/>
  <path fill="#f1f6f7" d="M200 400H400V500H500V600H400V900H600V800H700V600H600V300H500V200H400V300H300V200H200ZM500 800V700H600V800ZM700 900H1000V700H800V800H700Z"/>
</svg>
