<?xml version="1.0" encoding="UTF-8"?>
<svg xmlns="http://www.w3.org/2000/svg" viewBox="0 0 1200 1200" width="1200" height="1200">
  <title>emoji_u1f526</title>
  <path fill="#80deea" d="M0 600H100V700H200V800H400V700H500V600H600V500H700V300H600V200H500V100H200V200H100V300H0Z"/>
  <path fill="#2f7889" d="M400 400H500V300H400ZM200 800H400V900H500V1000H600V1100H700V1200H1000V1100H1100V800H1000V700H900V600H800V500H700V300H600V400H500V500H400V600H300V700H200ZM300 500H400V400H300Z"/>
  <path fill="#e2a610" d="M100 600H300V400H500V200H200V300H100Z"/>
  <path fill="#ffee58" d="M100 600H300V500H400V400H500V200H400V300H200V500H100Z"/>
  <path fill="#49a4ba" d="M200 600H300V500H200ZM300 700H400V600H300ZM400 800H500V700H400ZM700 800H800V700H700ZM800 900H900V800H800Z"/>
  <path fill="#212121" d="M600 600H700V500H600ZM500 700H600V600H500ZM400 800H500V700H400ZM800 900H900V800H800Z"/>
  <path fill="#ffff8d" d="M200 400H300V300H200ZM300 500H400V400H300Z"/>
  <path fill="#ffffff" d="M400 400H500V300H400ZM300 500H400V400H300ZM200 600H300V500H200Z"/>
</svg>
