<?xml version="1.0" encoding="UTF-8"?>
<svg xmlns="http://www.w3.org/2000/svg" viewBox="0 0 1200 1200" width="1200" height="1200">
  <title>emoji_u1f68f</title>
  <path fill="#616161" d="M0 500H100V600H200V500H400V600H500V300H400V400H200V300H100V400H0Z"/>
  <path fill="#9e9e9e" d="M0 900H200V1200H400V700H200V100H100V700H0Z"/>
  <path fill="#99bccb" d="M0 1200H300V800H0Z"/>
  <path fill="#2196f3" d="M400 600H500V700H600V800H900V700H1000V600H1100V300H1000V200H900V100H600V200H500V300H400Z"/>
  <path fill="#f5f5f5" d="M0 1100H200V1200H300V800H0V900H200V1000H0Z"/>
  <path fill="#ffffff" d="M600 600H700V500H800V600H900V300H600Z"/>
</svg>
