<?xml version="1.0" encoding="UTF-8"?>
<svg xmlns="http://www.w3.org/2000/svg" viewBox="0 0 1200 1200" width="1200" height="1200">
  <title>emoji_u1f4ef</title>
  <path fill="#fff59d" d="M300 400H500V300H600V100H400V200H300ZM800 700H1100V400H1000V500H900V400H800Z"/>
  <path fill="#5d4037" d="M900 800H1100V500H1000V600H900Z"/>
  <path fill="#e2a610" d="M0 600H100V700H200V800H400V700H600V600H500V300H700V900H800V800H1000V900H1100V700H1000V600H900V200H800V100H500V200H400V300H300V500H200V400H100V500H0ZM1000 600H1100V400H1000Z"/>
  <path fill="#b51616" d="M300 800H400V900H500V800H700V1000H800V600H900V500H700V600H300ZM800 1100H900V1000H800Z"/>
  <path fill="#f44336" d="M700 600H800V500H700ZM300 800H400V700H500V600H300ZM600 700H700V600H600ZM500 800H600V700H500ZM700 800H800V700H700ZM400 1000H500V800H400ZM300 1100H400V1000H300Z"/>
  <path fill="#9e740b" d="M700 600H900V500H800V400H700ZM200 600H300V500H200ZM100 700H200V600H100ZM200 800H400V600H300V700H200Z"/>
</svg>
