<?xml version="1.0" encoding="UTF-8"?>
<svg xmlns="http://www.w3.org/2000/svg" viewBox="0 0 1200 1200" width="1200" height="1200">
  <title>emoji_u1f1ed_1f1f9</title>
  <path fill="#00209f" d="M0 700H500V600H600V700H1100V300H0Z"/>
  <path fill="#d21034" d="M0 1000H1100V600H600V700H500V600H0Z"/>
  <path fill="#69186a" d="M0 700H400V800H500V500H400V600H0ZM600 800H700V700H1100V600H700V500H600Z"/>
  <path fill="#344db2" d="M400 700H700V500H400Z"/>
  <path fill="#37579c" d="M400 700H700V600H600V500H500V600H400Z"/>
  <path fill="#a33939" d="M400 800H700V600H400Z"/>
  <path fill="#b62837" d="M400 800H500V700H600V600H400Z"/>
  <path fill="#b62937" d="M500 700H600V800H700V600H500Z"/>
  <path fill="#9f8166" d="M400 700H700V600H400Z"/>
  <path fill="#a2799f" d="M400 700H500V600H400Z"/>
  <path fill="#a27a9f" d="M600 700H700V600H600Z"/>
</svg>
