<?xml version="1.0" encoding="UTF-8"?>
<svg xmlns="http://www.w3.org/2000/svg" viewBox="0 0 1200 1200" width="1200" height="1200">
  <title>emoji_u1f1e7_1f1f9</title>
  <path fill="#ff7916" d="M900 500H1100V300H900Z"/>
  <path fill="#ffaa1c" d="M0 1000H200V800H0Z"/>
  <path fill="#fd6735" d="M300 1000H600V800H300Z"/>
  <path fill="#ff5c13" d="M0 900H100V1000H300V800H0Z"/>
  <path fill="#ffc71f" d="M800 500H1100V400H1000V300H800Z"/>
  <path fill="#ffd521" d="M700 500H1000V400H900V300H700Z"/>
  <path fill="#ff4e12" d="M100 900H200V1000H400V900H500V1000H1100V400H900V500H800V700H500V800H100Z"/>
  <path fill="#ffd520" d="M0 900H300V800H400V700H500V600H600V500H900V400H800V300H0Z"/>
  <path fill="#ece0aa" d="M500 600H800V400H500Z"/>
  <path fill="#f2ab93" d="M300 900H600V700H300Z"/>
  <path fill="#f2e29f" d="M600 600H900V400H700V500H600Z"/>
  <path fill="#f5aa6b" d="M100 900H400V700H200V800H100Z"/>
  <path fill="#f7ca70" d="M700 600H1000V400H800V500H700Z"/>
  <path fill="#f8784c" d="M200 800H300V900H400V800H500V700H200Z"/>
  <path fill="#fad63a" d="M400 600H700V500H600V400H500V500H400Z"/>
  <path fill="#fd5b19" d="M800 600H1000V400H900V500H800Z"/>
  <path fill="#fd612c" d="M600 800H700V900H900V700H600Z"/>
  <path fill="#fdd029" d="M200 800H300V700H200ZM100 900H200V800H100Z"/>
  <path fill="#fe5014" d="M800 700H900V600H1000V500H800Z"/>
  <path fill="#fe5218" d="M700 800H800V900H900V700H700Z"/>
  <path fill="#fe541a" d="M400 800H500V900H600V800H700V700H400Z"/>
  <path fill="#ece9e0" d="M500 700H800V500H500Z"/>
  <path fill="#edc8ba" d="M300 800H600V600H300Z"/>
  <path fill="#f0a991" d="M700 700H900V500H700Z"/>
  <path fill="#f0ae93" d="M600 700H900V600H800V500H700V600H600Z"/>
  <path fill="#f3da75" d="M200 800H400V700H500V600H300V700H200Z"/>
  <path fill="#f48661" d="M500 800H800V600H500Z"/>
  <path fill="#f6ac93" d="M600 700H700V800H900V600H600Z"/>
  <path fill="#fad846" d="M400 700H700V600H600V500H400Z"/>
  <path fill="#fb7142" d="M700 700H800V800H900V600H700Z"/>
  <path fill="#fb7243" d="M400 700H500V800H600V700H700V600H400Z"/>
  <path fill="#fd5c26" d="M700 700H800V600H700ZM800 800H900V700H800Z"/>
  <path fill="#fdd62c" d="M300 700H400V600H300ZM200 800H300V700H200Z"/>
  <path fill="#fed522" d="M300 700H600V600H500V500H400V600H300Z"/>
  <path fill="#ede5e1" d="M500 700H800V600H500Z"/>
  <path fill="#efd4b3" d="M400 700H600V600H400Z"/>
  <path fill="#efe1b9" d="M300 700H500V600H300Z"/>
  <path fill="#f58b68" d="M700 700H800V600H700Z"/>
  <path fill="#fed629" d="M300 700H400V600H300Z"/>
</svg>
