<?xml version="1.0" encoding="UTF-8"?>
<svg xmlns="http://www.w3.org/2000/svg" viewBox="0 0 1200 1200" width="1200" height="1200">
  <title>emoji_u1f40d</title>
  <path fill="#ee6d33" d="M100 600H200V700H300V400H100ZM0 800H100V600H0Z"/>
  <path fill="#ffffff" d="M500 1200H900V1100H1000V1000H500Z"/>
  <path fill="#e4dda2" d="M200 700H300V1000H400V1100H500V1200H600V1100H1000V1000H1100V700H900V800H700V400H600V300H500V500H200Z"/>
  <path fill="#bed04a" d="M100 500H200V600H400V1000H500V1100H900V1000H1000V800H1100V600H1000V700H900V900H800V1000H700V900H500V800H700V700H500V600H700V500H600V300H500V200H200V300H100Z"/>
  <path fill="#323234" d="M300 500H400V400H300Z"/>
</svg>
