<?xml version="1.0" encoding="UTF-8"?>
<svg xmlns="http://www.w3.org/2000/svg" viewBox="0 0 1200 1200" width="1200" height="1200">
  <title>emoji_u1f986</title>
  <path fill="#5e6367" d="M800 1100H900V1000H1100V600H1000V500H800V700H900V800H800Z"/>
  <path fill="#ff5d10" d="M300 1100H400V1200H500V1100H700V1200H800V1100H900V1000H300Z"/>
  <path fill="#ffbf18" d="M0 400H200V500H300V200H200V300H0Z"/>
  <path fill="#01ab46" d="M200 700H700V600H600V200H500V100H300V200H200Z"/>
  <path fill="#84574e" d="M100 900H200V1000H300V1100H900V900H1000V600H900V500H800V600H700V700H600V800H500V600H200V700H100Z"/>
  <path fill="#ffffff" d="M200 700H400V800H700V600H200Z"/>
  <path fill="#b79277" d="M400 900H700V800H800V600H600V700H400Z"/>
  <path fill="#b0b0b1" d="M900 900H1000V600H900Z"/>
  <path fill="#73df86" d="M300 400H400V300H300ZM400 500H500V400H400Z"/>
  <path fill="#2d2b33" d="M300 400H400V300H300Z"/>
</svg>
