<?xml version="1.0" encoding="UTF-8"?>
<svg xmlns="http://www.w3.org/2000/svg" viewBox="0 0 1200 1200" width="1200" height="1200">
  <title>emoji_u1f236</title>
  <path fill="#f77e00" d="M0 1100H100V1200H1000V1100H1100V200H1000V100H900V1000H0Z"/>
  <path fill="#ff9800" d="M0 1100H1000V100H100V200H0Z"/>
  <path fill="#ffb43d" d="M100 400H400V300H300V200H200V300H100Z"/>
  <path fill="#fafafa" d="M200 600H300V1000H400V800H700V900H600V1000H800V500H400V400H900V300H500V200H400V300H200V400H300V500H200ZM400 700V600H700V700Z"/>
</svg>
