<?xml version="1.0" encoding="UTF-8"?>
<svg xmlns="http://www.w3.org/2000/svg" viewBox="0 0 1200 1200" width="1200" height="1200">
  <title>emoji_u1f4da</title>
  <path fill="#616161" d="M0 800H200V100H0Z"/>
  <path fill="#424242" d="M200 800H300V1000H600V1200H800V900H500V700H200Z"/>
  <path fill="#f5f5f5" d="M0 800H400V900H300V1000H700V1100H600V1200H1100V1000H900V800H600V600H100V700H0Z"/>
  <path fill="#0091ea" d="M700 1100H1100V400H800V1000H700Z"/>
  <path fill="#f44336" d="M100 700H500V800H600V300H500V100H100Z"/>
  <path fill="#01579b" d="M700 900H800V1000H900V400H800V300H700ZM700 1100H800V1000H700Z"/>
  <path fill="#689f38" d="M400 900H700V300H500V800H400Z"/>
  <path fill="#9ccc65" d="M500 900H800V300H600V800H500Z"/>
</svg>
