<?xml version="1.0" encoding="UTF-8"?>
<svg xmlns="http://www.w3.org/2000/svg" viewBox="0 0 1200 1200" width="1200" height="1200">
  <title>emoji_u1f511</title>
  <path fill="#9e740b" d="M100 1200H300V1100H400V1000H500V900H600V800H900V700H1000V600H1100V300H1000V200H600V600H500V700H400V800H300V900H200V1000H100ZM800 500V400H900V500Z"/>
  <path fill="#dba010" d="M0 1200H200V1100H300V1000H400V900H500V800H600V500H400V600H300V700H200V800H100V900H0Z"/>
  <path fill="#ffca28" d="M0 1200H200V1100H300V1000H400V900H500V800H600V700H900V600H1000V200H900V100H600V200H500V300H400V600H500V700H400V800H300V900H200V1000H100V1100H0ZM700 500V300H900V500ZM300 700H400V600H300ZM200 800H300V700H200ZM100 900H200V800H100ZM0 1000H100V900H0Z"/>
  <path fill="#fff59d" d="M600 300H700V200H600ZM500 600H600V300H500Z"/>
</svg>
