<?xml version="1.0" encoding="UTF-8"?>
<svg xmlns="http://www.w3.org/2000/svg" viewBox="0 0 1200 1200" width="1200" height="1200">
  <title>emoji_u1f5d1</title>
  <path fill="#94d1e0" d="M0 500H100V600H1000V500H1100V200H1000V100H100V200H0ZM100 400V300H200V200H300V300H400V200H500V300H600V200H700V300H800V200H900V300H1000V400H900V500H800V400H700V500H600V400H500V500H400V400H300V500H200V400ZM200 400H300V300H200ZM400 400H500V300H400ZM600 400H700V300H600ZM800 400H900V300H800ZM200 1200H900V900H800V800H300V900H200Z"/>
  <path fill="#84b0c1" d="M100 200H1000V100H100ZM0 500H100V200H0ZM1000 500H1100V200H1000ZM100 1000H200V1200H900V1000H1000V500H100ZM200 800V700H300V600H400V700H500V800H400V700H300V800ZM500 700V600H600V700H700V800H600V700ZM700 700V600H800V700H900V800H800V700ZM300 1100V1000H400V900H500V1000H600V1100H500V1000H400V1100ZM600 1000V900H700V1000H800V1100H700V1000Z"/>
  <path fill="#b9e4ea" d="M300 900H400V800H300ZM500 900H600V800H500ZM700 900H800V800H700ZM200 1000H300V900H200ZM800 1000H900V900H800Z"/>
</svg>
