<?xml version="1.0" encoding="UTF-8"?>
<svg xmlns="http://www.w3.org/2000/svg" viewBox="0 0 1200 1200" width="1200" height="1200">
  <title>emoji_u1f481_1f3fc</title>
  <path fill="#d8b28b" d="M700 700H800V600H700ZM800 900H1000V800H1100V700H800Z"/>
  <path fill="#f07003" d="M500 1200H900V1000H1000V800H800V900H700V800H600V1000H500Z"/>
  <path fill="#ab872f" d="M0 700H100V800H200V600H300V500H500V600H600V800H700V700H800V300H700V200H600V100H200V200H100V300H0Z"/>
  <path fill="#f38114" d="M0 1200H600V1100H700V700H100V900H0Z"/>
  <path fill="#e0bb95" d="M100 800H300V900H500V800H700V500H600V400H200V500H100Z"/>
  <path fill="#c96912" d="M600 1100H700V900H600Z"/>
  <path fill="#5d4037" d="M200 700H300V500H200ZM500 700H600V500H500Z"/>
  <path fill="#c48e6a" d="M300 900H500V800H300Z"/>
</svg>
