<?xml version="1.0" encoding="UTF-8"?>
<svg xmlns="http://www.w3.org/2000/svg" viewBox="0 0 1200 1200" width="1200" height="1200">
  <title>emoji_u1f95c</title>
  <path fill="#f7c875" d="M0 900H300V800H400V600H600V300H400V500H200V600H100V700H0Z"/>
  <path fill="#d97a08" d="M100 1100H200V1200H500V1100H600V1000H700V800H900V700H1000V600H1100V300H1000V200H700V300H600V400H500V500H400V600H300V800H100Z"/>
  <path fill="#f3ae38" d="M0 1000H100V1100H300V1000H500V800H600V700H700V600H900V400H1000V200H900V100H600V200H500V300H400V400H500V500H600V600H500V500H200V600H300V700H200V800H100V700H0ZM700 500V400H800V300H900V400H800V500ZM400 800V700H500V800ZM200 1000V900H300V1000ZM100 700H200V600H100Z"/>
</svg>
