<?xml version="1.0" encoding="UTF-8"?>
<svg xmlns="http://www.w3.org/2000/svg" viewBox="0 0 1200 1200" width="1200" height="1200">
  <title>emoji_u1fad8</title>
  <path fill="#871e0c" d="M0 500H100V600H500V500H600V400H700V300H800V200H700V100H500V300H400V400H200V300H0ZM0 1000H100V1100H200V1200H500V1100H600V1000H700V900H800V1000H1000V900H1100V700H1000V500H900V400H700V500H800V800H500V900H400V1000H300V900H200V800H0ZM600 600H700V500H600Z"/>
  <path fill="#d16250" d="M0 400H100V500H200V400H300V300H600V100H300V200H100V300H0ZM500 900H900V700H800V600H900V400H700V500H600V700H500ZM0 900H100V1000H200V900H300V700H100V800H0Z"/>
  <path fill="#fbcb89" d="M100 400H500V200H400V100H300V200H200V300H100ZM700 800H800V900H1000V700H900V500H700ZM200 1000H600V700H400V800H300V700H200Z"/>
  <path fill="#a62714" d="M300 200H400V100H300ZM100 500H500V400H600V300H700V200H600V100H500V200H400V300H100ZM600 600H700V800H800V900H1000V800H900V700H800V600H900V400H800V500H600ZM100 1000H200V1100H500V1000H600V900H700V800H600V700H400V800H500V900H300V700H200V800H100Z"/>
</svg>
