<?xml version="1.0" encoding="UTF-8"?>
<svg xmlns="http://www.w3.org/2000/svg" viewBox="0 0 1200 1200" width="1200" height="1200">
  <title>emoji_u1f34c</title>
  <path fill="#875b54" d="M300 1200H500V1000H300Z"/>
  <path fill="#ff8e00" d="M700 800H800V900H900V1100H1000V1000H1100V700H1000V600H800V500H700Z"/>
  <path fill="#ffe4b4" d="M300 700H800V200H700V100H500V200H400V600H300Z"/>
  <path fill="#fee4b4" d="M0 1100H200V1000H300V900H500V600H200V700H100V800H0ZM600 1000H800V1100H900V1200H1000V800H900V700H800V600H600Z"/>
  <path fill="#ffa726" d="M300 1100H400V1200H600V1100H700V1000H800V900H700V700H600V600H400V800H300V900H400V1000H300ZM200 1000H300V900H200ZM100 1100H200V1000H100Z"/>
  <path fill="#ffb803" d="M500 800H600V700H500ZM300 1100H500V1000H600V900H500V800H400V1000H300ZM700 1000H800V900H700ZM800 1100H900V1000H800ZM900 1200H1000V1100H900Z"/>
  <path fill="#ffe265" d="M600 200H700V100H600ZM400 700H500V800H700V700H800V200H700V600H400Z"/>
</svg>
