<?xml version="1.0" encoding="UTF-8"?>
<svg xmlns="http://www.w3.org/2000/svg" viewBox="0 0 1200 1200" width="1200" height="1200">
  <title>emoji_u1f1fa_1f1ff</title>
  <path fill="#069cb7" d="M0 500H200V300H0Z"/>
  <path fill="#049bb6" d="M100 500H400V300H100Z"/>
  <path fill="#069bb7" d="M300 500H600V300H300Z"/>
  <path fill="#0a9db8" d="M200 500H500V400H400V300H300V400H200Z"/>
  <path fill="#0e9eb9" d="M0 600H200V300H100V400H0Z"/>
  <path fill="#22a6bf" d="M100 500H300V400H200V300H100Z"/>
  <path fill="#1eb53a" d="M0 1000H1100V700H0Z"/>
  <path fill="#0099b5" d="M400 600H1100V300H500V400H400Z"/>
  <path fill="#bac5ce" d="M0 700H1100V500H500V400H100V500H0Z"/>
  <path fill="#c1ccb0" d="M0 800H1100V600H0Z"/>
  <path fill="#ffffff" d="M0 700H1100V600H0Z"/>
  <path fill="#14a1bb" d="M100 500H500V400H100Z"/>
  <path fill="#0b9db8" d="M400 500H500V400H400Z"/>
  <path fill="#2eabc2" d="M100 500H200V400H100Z"/>
</svg>
