<?xml version="1.0" encoding="UTF-8"?>
<svg xmlns="http://www.w3.org/2000/svg" viewBox="0 0 1200 1200" width="1200" height="1200">
  <title>emoji_u1f33d</title>
  <path fill="#307b32" d="M0 1100H100V1200H400V1100H500V1200H800V1000H300V900H400V500H200V400H100V800H0Z"/>
  <path fill="#649726" d="M0 700H100V800H200V400H0ZM0 1000H100V1100H700V1200H800V900H900V800H800V700H600V800H400V900H300V800H200V900H100V800H0Z"/>
  <path fill="#ffc01e" d="M200 1000H500V900H700V800H800V700H900V600H1000V500H1100V200H1000V100H700V200H600V300H500V400H400V500H300V800H200Z"/>
  <path fill="#f99628" d="M700 300H800V200H700ZM900 300H1000V200H900ZM600 400H700V300H600ZM800 400H900V300H800ZM500 500H600V400H500ZM700 500H800V400H700ZM900 500H1000V400H900ZM400 600H500V500H400ZM600 600H700V500H600ZM800 600H900V500H800ZM300 700H400V600H300ZM500 700H600V600H500ZM700 700H800V600H700ZM400 800H500V700H400ZM600 800H700V700H600ZM300 900H400V800H300ZM500 900H600V800H500ZM400 1000H500V900H400Z"/>
</svg>
