<?xml version="1.0" encoding="UTF-8"?>
<svg xmlns="http://www.w3.org/2000/svg" viewBox="0 0 1200 1200" width="1200" height="1200">
  <title>emoji_u1f1ef_1f1ea</title>
  <path fill="#e74f63" d="M0 500H200V300H0ZM900 500H1100V300H900ZM0 1000H200V800H0ZM900 1000H1100V800H900Z"/>
  <path fill="#ef8997" d="M0 500H300V300H100V400H0ZM800 500H1100V400H1000V300H800ZM0 900H100V1000H300V800H0ZM800 1000H1000V900H1100V800H800Z"/>
  <path fill="#fef9fa" d="M100 500H400V300H200V400H100ZM700 500H1000V400H900V300H700ZM100 900H200V1000H400V800H100ZM700 1000H900V900H1000V800H700Z"/>
  <path fill="#fffdfd" d="M0 600H200V400H0ZM900 600H1100V400H900ZM0 900H200V700H0ZM900 900H1100V700H900Z"/>
  <path fill="#fdfbed" d="M300 500H800V300H300Z"/>
  <path fill="#f6e4a7" d="M400 500H700V400H600V300H500V400H400Z"/>
  <path fill="#ffffff" d="M0 800H100V900H300V1000H800V900H1000V800H1100V500H1000V400H800V300H700V400H600V700H500V400H400V300H300V400H100V500H0Z"/>
  <path fill="#e6465c" d="M100 500H200V600H400V400H100ZM700 600H900V500H1000V400H700ZM100 900H400V700H200V800H100ZM700 900H1000V800H900V700H700Z"/>
  <path fill="#f29da8" d="M100 500H200V400H100ZM900 500H1000V400H900ZM200 600H300V500H200ZM800 600H900V500H800ZM200 800H300V700H200ZM800 800H900V700H800ZM100 900H200V800H100ZM900 900H1000V800H900Z"/>
  <path fill="#f8c8cf" d="M200 600H500V400H300V500H200ZM600 600H900V500H800V400H600ZM200 800H300V900H400V800H500V700H200ZM600 800H700V900H800V800H900V700H600Z"/>
  <path fill="#d85e22" d="M400 600H700V400H400Z"/>
  <path fill="#f8e5e7" d="M300 600H600V500H500V400H400V500H300Z"/>
  <path fill="#fae5e5" d="M500 600H800V500H700V400H600V500H500Z"/>
  <path fill="#e95d70" d="M200 800H500V500H200V600H400V700H200ZM600 800H900V700H700V600H900V500H600Z"/>
  <path fill="#fce6e9" d="M200 600H300V500H200ZM800 600H900V500H800ZM200 800H300V700H200ZM800 800H900V700H800Z"/>
  <path fill="#ec7484" d="M400 800H700V600H400Z"/>
  <path fill="#e37167" d="M400 700H700V500H400Z"/>
  <path fill="#ec7181" d="M500 700H700V500H600V600H500Z"/>
  <path fill="#ec7182" d="M400 700H600V600H500V500H400Z"/>
  <path fill="#fbe5e8" d="M400 700H500V800H600V700H700V600H400Z"/>
  <path fill="#eb6e7f" d="M400 700H700V600H400Z"/>
  <path fill="#df132f" d="M500 700H600V600H500Z"/>
</svg>
