<?xml version="1.0" encoding="UTF-8"?>
<svg xmlns="http://www.w3.org/2000/svg" viewBox="0 0 1200 1200" width="1200" height="1200">
  <title>emoji_u1f6d2</title>
  <path fill="#424242" d="M0 1100H200V1200H300V1100H600V1200H700V1100H900V1000H800V900H700V800H600V1000H300V900H200V1000H0Z"/>
  <path fill="#f44336" d="M900 200H1100V100H900Z"/>
  <path fill="#2f7889" d="M500 800H600V900H700V800H800V900H900V700H500ZM700 1000H800V900H700ZM900 1000H1000V900H900Z"/>
  <path fill="#84b0c1" d="M900 200H1000V100H900ZM0 800H900V200H800V300H0ZM100 500V400H200V500ZM300 500V400H400V500ZM500 500V400H600V500ZM700 500V400H800V500ZM100 700V600H200V700ZM300 700V600H400V700ZM500 700V600H600V700ZM700 700V600H800V700ZM700 1000H800V900H700ZM800 1100H1000V900H900V1000H800ZM0 1100H100V1000H0ZM400 1100H500V1000H400ZM600 1100H700V1000H600Z"/>
  <path fill="#a8e3f0" d="M200 1100H300V1000H200ZM600 1100H700V1000H600Z"/>
</svg>
