<?xml version="1.0" encoding="UTF-8"?>
<svg xmlns="http://www.w3.org/2000/svg" viewBox="0 0 1200 1200" width="1200" height="1200">
  <title>emoji_u1f96a</title>
  <path fill="#d45e51" d="M0 900H300V600H0V700H100V800H0Z"/>
  <path fill="#e38211" d="M0 900H100V1000H200V1100H400V1200H700V1000H500V900H700V600H500V500H400V400H500V300H600V400H700V500H1100V400H1000V300H800V200H700V100H400V200H300V300H100V400H0V500H100V600H0V700H200V800H0Z"/>
  <path fill="#d46f1e" d="M500 1100H600V1200H700V1100H900V1000H1000V900H1100V800H1000V700H1100V600H1000V500H1100V400H700V500H600V600H500V700H600V800H500V900H600V1000H500Z"/>
  <path fill="#b7d019" d="M0 700H200V1000H400V1100H700V1000H900V900H1000V700H1100V600H800V700H700V800H400V700H300V600H0Z"/>
  <path fill="#ec8b7a" d="M0 700H100V600H0ZM100 900H200V1000H400V1100H700V1000H800V800H400V900H300V800H400V700H200V800H100ZM500 1000V900H600V1000Z"/>
  <path fill="#96a819" d="M200 800H400V700H300V600H200ZM400 900H700V1000H900V900H800V800H900V700H1000V600H800V700H700V800H400ZM100 900H200V800H100ZM900 900H1000V800H900Z"/>
  <path fill="#fadfb1" d="M100 500H300V600H400V700H700V600H800V500H1000V400H800V300H700V200H400V300H300V400H100ZM200 700H300V600H200ZM800 700H900V600H800ZM300 800H400V700H300ZM700 800H800V700H700ZM100 900H200V800H100ZM400 900H500V800H400ZM600 900H700V800H600ZM900 900H1000V800H900ZM200 1000H400V900H200ZM700 1000H900V900H700ZM400 1100H700V1000H400Z"/>
  <path fill="#dc0d2a" d="M200 700H300V600H200ZM800 700H1000V600H800ZM300 800H400V700H300ZM700 800H800V700H700ZM400 900H500V800H400ZM600 900H700V800H600Z"/>
  <path fill="#fedf64" d="M200 700H300V600H200ZM800 700H900V600H800ZM700 800H800V700H700Z"/>
</svg>
