<?xml version="1.0" encoding="UTF-8"?>
<svg xmlns="http://www.w3.org/2000/svg" viewBox="0 0 1200 1200" width="1200" height="1200">
  <title>emoji_u1f5c2</title>
  <path fill="#7cb342" d="M700 300H1100V100H800V200H700Z"/>
  <path fill="#de7340" d="M0 500H500V200H0ZM600 500H1100V200H600Z"/>
  <path fill="#f44336" d="M0 700H400V400H0Z"/>
  <path fill="#f3ab47" d="M0 300H400V400H200V500H300V600H200V700H1100V400H700V300H1100V200H0Z"/>
  <path fill="#ffe36c" d="M0 1200H1100V600H0Z"/>
  <path fill="#ffca28" d="M0 500H1100V400H700V300H400V400H0Z"/>
  <path fill="#0288d1" d="M400 400H700V300H400Z"/>
</svg>
