<?xml version="1.0" encoding="UTF-8"?>
<svg xmlns="http://www.w3.org/2000/svg" viewBox="0 0 1200 1200" width="1200" height="1200">
  <title>emoji_u1f687</title>
  <path fill="#455a64" d="M0 1100H100V1200H1000V1100H1100V200H1000V100H100V200H0Z"/>
  <path fill="#263238" d="M100 1200H300V1100H400V1000H500V900H300V1000H200V1100H100ZM600 1000H700V1100H800V1200H1000V1100H900V1000H800V900H600ZM400 1200H500V1100H400ZM600 1200H700V1100H600Z"/>
  <path fill="#82aec0" d="M200 800H300V1000H800V800H900V300H800V200H300V300H200ZM200 1100H300V1000H200ZM800 1100H900V1000H800ZM100 1200H200V1100H100ZM400 1200H700V1100H400ZM900 1200H1000V1100H900Z"/>
  <path fill="#000000" d="M100 900H200V800H400V600H300V400H400V300H700V400H800V600H700V800H900V900H1000V300H900V200H200V300H100ZM400 500H500V400H400ZM600 500H700V400H600ZM300 1000H500V900H300ZM600 1000H800V900H600Z"/>
  <path fill="#424242" d="M400 1000H700V900H400Z"/>
  <path fill="#ffff8d" d="M300 800H500V600H300ZM600 800H800V600H600Z"/>
  <path fill="#37474f" d="M300 700H400V800H700V700H800V600H700V400H600V600H500V400H400V600H300Z"/>
  <path fill="#f44336" d="M400 600H500V500H400ZM600 600H700V500H600ZM300 700H400V600H300ZM400 800H700V700H600V600H500V700H400ZM700 700H800V600H700Z"/>
  <path fill="#bae2fd" d="M400 600H500V500H400ZM600 600H700V500H600Z"/>
</svg>
