<?xml version="1.0" encoding="UTF-8"?>
<svg xmlns="http://www.w3.org/2000/svg" viewBox="0 0 1200 1200" width="1200" height="1200">
  <title>emoji_u1f634</title>
  <path fill="#eb8f00" d="M0 1000H100V1100H200V1200H900V1100H1000V1000H1100V200H900V100H200V200H100V300H0Z"/>
  <path fill="#5f7aff" d="M500 500H600V600H1000V300H1100V200H1000V100H800V200H500Z"/>
  <path fill="#fde030" d="M100 1000H200V1100H900V1000H1000V300H900V200H200V300H100ZM600 400V300H800V400H900V500H700V400Z"/>
  <path fill="#422b0d" d="M200 700H300V600H200ZM400 700H500V600H400ZM600 700H700V600H600ZM800 700H900V600H800ZM300 800H400V700H300ZM700 800H800V700H700ZM400 1000H700V900H600V800H500V900H400Z"/>
</svg>
