<?xml version="1.0" encoding="UTF-8"?>
<svg xmlns="http://www.w3.org/2000/svg" viewBox="0 0 1200 1200" width="1200" height="1200">
  <title>emoji_u1f358</title>
  <path fill="#f47a00" d="M0 900H100V1000H200V1100H300V1200H400V900H300V600H500V500H600V600H900V800H800V900H700V1200H800V1100H900V1000H1000V900H1100V500H1000V300H900V200H700V100H400V200H200V300H100V500H0Z"/>
  <path fill="#3c3c3c" d="M200 1000H300V1200H800V1000H900V600H800V500H300V600H200Z"/>
  <path fill="#ffa726" d="M100 900H200V1000H300V700H400V600H700V700H800V1000H900V900H1000V500H900V300H700V200H400V300H200V500H100V600H200V700H100ZM500 400V300H600V400ZM300 500V400H400V500ZM700 500V400H800V500ZM400 800H500V700H400Z"/>
  <path fill="#858585" d="M400 1100H500V800H600V700H400Z"/>
</svg>
