<?xml version="1.0" encoding="UTF-8"?>
<svg xmlns="http://www.w3.org/2000/svg" viewBox="0 0 1200 1200" width="1200" height="1200">
  <title>emoji_u1f922</title>
  <path fill="#789e46" d="M0 1000H100V1100H200V1200H900V1100H1000V1000H1100V300H1000V200H900V100H200V200H100V300H0Z"/>
  <path fill="#fadf31" d="M100 1000H200V1100H900V1000H1000V300H900V200H200V300H100Z"/>
  <path fill="#3f2c13" d="M300 400H400V300H300ZM700 400H800V300H700ZM200 500H300V400H200ZM800 500H900V400H800ZM300 600H400V500H300ZM700 600H800V500H700ZM300 800H400V700H300ZM700 800H800V700H700ZM400 900H700V800H400ZM300 1000H400V900H300ZM700 1000H800V900H700Z"/>
</svg>
