<?xml version="1.0" encoding="UTF-8"?>
<svg xmlns="http://www.w3.org/2000/svg" viewBox="0 0 1200 1200" width="1200" height="1200">
  <title>emoji_u23e9</title>
  <path fill="#f77e00" d="M0 1100H100V1200H1000V1100H1100V200H1000V100H900V1000H0Z"/>
  <path fill="#ff9800" d="M0 1100H1000V100H100V200H0Z"/>
  <path fill="#ffb43d" d="M200 300H300V200H200ZM100 400H200V300H100ZM200 500H300V400H200Z"/>
  <path fill="#fafafa" d="M200 900H400V800H500V700H600V900H800V800H900V700H1000V600H900V500H800V400H600V600H500V500H400V400H200Z"/>
</svg>
