<?xml version="1.0" encoding="UTF-8"?>
<svg xmlns="http://www.w3.org/2000/svg" viewBox="0 0 1200 1200" width="1200" height="1200">
  <title>emoji_u1f468_1f3fc_200d_1f9b0</title>
  <path fill="#c48e6a" d="M200 800H300V900H400V600H200ZM800 900H900V800H1000V600H800Z"/>
  <path fill="#e63d00" d="M200 700H300V800H400V600H500V500H700V600H800V800H900V700H1000V300H900V200H800V100H400V200H300V300H200Z"/>
  <path fill="#e0bb95" d="M300 1100H400V1200H800V1100H900V500H800V400H400V500H300Z"/>
  <path fill="#6d4c41" d="M400 1000H500V900H400ZM700 1000H800V900H700ZM500 1100H700V1000H500Z"/>
  <path fill="#5d4037" d="M400 800H500V600H400ZM700 800H800V600H700Z"/>
</svg>
