<?xml version="1.0" encoding="UTF-8"?>
<svg xmlns="http://www.w3.org/2000/svg" viewBox="0 0 1200 1200" width="1200" height="1200">
  <title>emoji_u1f38f</title>
  <path fill="#e07f16" d="M100 300H200V500H300V300H400V200H300V100H200V200H100Z"/>
  <path fill="#fbc219" d="M100 1000H200V1200H300V1000H400V900H300V600H400V500H300V400H200V500H100V600H200V900H100Z"/>
  <path fill="#fec516" d="M700 1000H800V1100H1100V1000H1000V900H1100V800H800V700H700Z"/>
  <path fill="#39bde3" d="M700 600H800V700H1100V600H1000V500H1100V400H800V300H700ZM700 800H800V700H700Z"/>
  <path fill="#b6ced5" d="M100 600H400V700H500V400H400V500H100ZM100 1000H400V1100H500V800H400V900H100Z"/>
  <path fill="#f26d31" d="M500 700H600V600H500ZM400 1100H600V1000H900V900H800V700H600V800H400ZM900 900H1000V800H900ZM900 1100H1000V1000H900Z"/>
  <path fill="#016ba2" d="M400 700H600V600H900V500H800V300H600V400H400ZM900 500H1000V400H900ZM900 700H1000V600H900Z"/>
  <path fill="#dde2e1" d="M500 700H600V600H700V500H800V400H500ZM500 1100H600V1000H700V900H800V800H500Z"/>
  <path fill="#2d2d2e" d="M600 500H800V400H600ZM600 900H800V800H600Z"/>
  <path fill="#ffffff" d="M700 500H800V400H700ZM700 900H800V800H700Z"/>
  <path fill="#ffc020" d="M200 300H300V200H200Z"/>
</svg>
