<?xml version="1.0" encoding="UTF-8"?>
<svg xmlns="http://www.w3.org/2000/svg" viewBox="0 0 1200 1200" width="1200" height="1200">
  <title>emoji_u1face</title>
  <path fill="#c26948" d="M0 300H100V400H200V500H600V400H1000V100H900V200H800V100H700V200H600V100H500V300H300V100H200V200H100V100H0Z"/>
  <path fill="#4d3129" d="M200 1100H300V1200H500V1100H600V1200H800V1000H700V900H400V1000H200Z"/>
  <path fill="#533731" d="M0 1100H300V900H0Z"/>
  <path fill="#6c4b41" d="M0 1000H200V700H100V800H0Z"/>
  <path fill="#e69267" d="M0 300H100V200H0ZM100 400H200V500H300V600H200V700H800V600H900V500H800V400H1000V200H900V300H800V200H700V300H500V400H300V200H200V300H100Z"/>
  <path fill="#a4725e" d="M100 1000H200V1100H400V900H300V700H100Z"/>
  <path fill="#875e51" d="M100 800H200V1000H300V1100H500V1000H600V1100H700V1200H1100V700H1000V600H900V500H700V600H600V500H500V600H200V700H100Z"/>
  <path fill="#292928" d="M400 800H500V700H400Z"/>
</svg>
