<?xml version="1.0" encoding="UTF-8"?>
<svg xmlns="http://www.w3.org/2000/svg" viewBox="0 0 1200 1200" width="1200" height="1200">
  <title>emoji_u1f6cd</title>
  <path fill="#d7578a" d="M700 700H1100V500H1000V400H900V500H800V400H700ZM400 1100H500V1200H700V1000H400Z"/>
  <path fill="#26a69a" d="M0 500H200V600H700V500H800V400H700V300H500V200H400V300H300V200H200V300H0Z"/>
  <path fill="#ff9f9f" d="M800 400H900V300H800ZM500 1100H600V1200H1100V600H1000V400H900V600H800V400H600V1000H500Z"/>
  <path fill="#61de9f" d="M300 200H400V100H300ZM0 1100H700V400H600V500H500V200H400V500H300V200H200V400H0Z"/>
</svg>
