<?xml version="1.0" encoding="UTF-8"?>
<svg xmlns="http://www.w3.org/2000/svg" viewBox="0 0 1200 1200" width="1200" height="1200">
  <title>emoji_u1f3e6</title>
  <path fill="#97aec0" d="M100 1200H1100V1000H1000V600H1100V300H1000V200H800V100H400V200H200V300H100V600H200V1000H100Z"/>
  <path fill="#cddfee" d="M200 400H500V200H400V300H200ZM700 400H1000V300H800V200H700ZM100 1100H1100V1000H800V900H1000V700H800V600H700V900H500V600H400V700H200V900H400V1000H100Z"/>
  <path fill="#024fac" d="M400 600H800V500H700V400H800V200H700V100H500V200H400V400H500V500H400Z"/>
  <path fill="#647584" d="M100 600H400V700H800V600H1100V500H100Z"/>
  <path fill="#94adbc" d="M400 400H600V300H500V200H400ZM600 300H700V400H800V200H600Z"/>
  <path fill="#54636e" d="M400 1000H800V600H400Z"/>
  <path fill="#6ba4ae" d="M500 1000H700V700H500Z"/>
  <path fill="#95acbc" d="M500 800H700V700H500Z"/>
</svg>
