<?xml version="1.0" encoding="UTF-8"?>
<svg xmlns="http://www.w3.org/2000/svg" viewBox="0 0 1200 1200" width="1200" height="1200">
  <title>emoji_u1f3da</title>
  <path fill="#553a30" d="M200 400H300V500H500V400H600V500H700V600H900V400H800V300H600V100H500V200H400V300H300V200H200ZM0 700H100V800H200V700H300V500H200V400H100V600H0ZM900 800H1000V700H1100V600H900Z"/>
  <path fill="#ab5832" d="M100 300H200V400H300V200H100ZM100 500H200V400H100ZM300 500H400V400H300ZM200 600H300V500H200Z"/>
  <path fill="#5e6367" d="M300 1100H400V1200H800V1100H900V1000H300Z"/>
  <path fill="#728035" d="M100 1100H500V800H100ZM700 1100H1100V1000H1000V800H800V900H700Z"/>
  <path fill="#9e7b65" d="M100 1000H200V900H300V800H400V700H500V600H700V800H800V900H1000V600H900V500H800V400H700V300H600V200H500V300H400V400H300V500H200V600H100Z"/>
  <path fill="#2e1914" d="M500 300H600V200H500ZM300 700H600V400H500V300H400V400H300V500H400V600H300ZM600 400H700V300H600ZM200 600H300V500H200ZM600 1100H800V1000H900V900H1000V800H900V700H800V600H900V500H700V800H600ZM100 700H200V600H100ZM900 700H1000V600H900ZM200 800H300V700H200Z"/>
  <path fill="#858585" d="M400 1100H800V1000H700V900H400Z"/>
  <path fill="#c8a68f" d="M200 900H400V1000H700V900H800V800H900V700H800V500H600V400H500V600H300V700H200Z"/>
  <path fill="#865c51" d="M300 900H400V1000H500V700H300Z"/>
  <path fill="#3e2723" d="M600 800H800V600H600Z"/>
  <path fill="#6d4c41" d="M700 700H800V600H700ZM600 800H700V700H600Z"/>
</svg>
