<?xml version="1.0" encoding="UTF-8"?>
<svg xmlns="http://www.w3.org/2000/svg" viewBox="0 0 1200 1200" width="1200" height="1200">
  <title>emoji_u1f1f3_1f1f5</title>
  <path fill="#ae1b4e" d="M0 1000H900V900H800V800H0Z"/>
  <path fill="#84225f" d="M0 900H200V300H0Z"/>
  <path fill="#253183" d="M800 1000H1000V900H800Z"/>
  <path fill="#7a2361" d="M700 700H900V600H800V500H700Z"/>
  <path fill="#532972" d="M0 400H100V500H200V300H0Z"/>
  <path fill="#69276a" d="M0 1000H100V900H200V800H0Z"/>
  <path fill="#732564" d="M600 900H800V800H600ZM800 1000H900V900H800Z"/>
  <path fill="#732566" d="M100 500H300V400H200V300H100Z"/>
  <path fill="#752464" d="M300 600H600V500H500V400H300Z"/>
  <path fill="#792463" d="M600 700H800V500H600Z"/>
  <path fill="#84225e" d="M800 1000H900V900H800Z"/>
  <path fill="#7a2463" d="M400 900H700V800H600V700H700V600H400Z"/>
  <path fill="#852662" d="M0 900H200V700H100V800H0Z"/>
  <path fill="#862762" d="M0 600H100V700H200V400H100V500H0Z"/>
  <path fill="#9c1e54" d="M200 600H500V500H400V400H200Z"/>
  <path fill="#9e1d53" d="M500 700H800V600H700V500H500Z"/>
  <path fill="#af1e50" d="M100 900H200V1000H300V900H400V800H100Z"/>
  <path fill="#b91949" d="M500 900H700V800H500Z"/>
  <path fill="#ca1743" d="M100 600H400V500H300V400H100Z"/>
  <path fill="#cd1642" d="M400 700H700V600H600V500H400Z"/>
  <path fill="#901f58" d="M400 800H500V700H800V600H500V500H400Z"/>
  <path fill="#dc143c" d="M100 600H300V500H200V400H100ZM400 900H600V800H500V700H400Z"/>
  <path fill="#c12753" d="M300 900H500V600H300Z"/>
  <path fill="#dd1d44" d="M100 800H300V500H100Z"/>
  <path fill="#e03154" d="M300 700H500V500H300Z"/>
  <path fill="#e13658" d="M300 900H500V800H400V700H300Z"/>
  <path fill="#e8647e" d="M100 600H200V700H300V500H100Z"/>
  <path fill="#e96a84" d="M100 900H300V600H200V700H100Z"/>
  <path fill="#ef91a3" d="M200 700H500V600H400V500H200Z"/>
  <path fill="#ef92a5" d="M100 900H300V700H200V800H100Z"/>
  <path fill="#f6c0cb" d="M200 900H400V700H200Z"/>
  <path fill="#f7cbd4" d="M200 700H400V600H300V500H200Z"/>
  <path fill="#fadfe4" d="M200 900H300V800H400V700H200Z"/>
  <path fill="#742564" d="M300 800H400V700H500V600H300Z"/>
  <path fill="#b13664" d="M200 800H400V600H200Z"/>
  <path fill="#e34464" d="M200 800H400V700H300V600H200Z"/>
  <path fill="#ef97a8" d="M200 800H400V700H200Z"/>
  <path fill="#f5b9c5" d="M200 800H300V700H200Z"/>
</svg>
