<?xml version="1.0" encoding="UTF-8"?>
<svg xmlns="http://www.w3.org/2000/svg" viewBox="0 0 1200 1200" width="1200" height="1200">
  <title>emoji_u1f3c7</title>
  <path fill="#523730" d="M800 700H1100V600H1000V500H1100V300H1000V400H800V500H900V600H800ZM0 700H400V600H500V500H100V600H0ZM800 1100H900V1200H1000V1100H1100V1000H1000V900H900V1000H800ZM300 1200H400V1100H500V1200H600V1000H300Z"/>
  <path fill="#5d6266" d="M300 200H400V300H600V100H300Z"/>
  <path fill="#ff8e00" d="M500 300H600V200H500ZM600 600H800V500H900V400H800V300H600V400H700V500H600ZM500 500H600V400H500ZM400 600H500V500H400ZM300 700H400V600H300ZM500 700H600V600H500Z"/>
  <path fill="#ffca28" d="M400 300H600V200H400ZM200 800H500V700H400V600H200Z"/>
  <path fill="#a95531" d="M300 1100H600V1000H800V1100H1000V700H700V800H400V1000H300Z"/>
  <path fill="#d17858" d="M0 900H200V800H400V900H500V1100H600V900H800V800H900V1000H1000V900H1100V600H700V700H600V600H500V700H300V600H0Z"/>
  <path fill="#c8c8c8" d="M800 500H900V400H800ZM500 800H800V700H900V600H800V500H600V600H500Z"/>
  <path fill="#2a2725" d="M100 700H200V600H100Z"/>
  <path fill="#0468a6" d="M500 800H600V900H700V800H800V700H900V600H700V700H600V600H500Z"/>
  <path fill="#37b5e1" d="M800 700H900V600H800ZM500 800H800V700H500Z"/>
  <path fill="#444444" d="M600 800H700V700H600Z"/>
  <path fill="#ffffff" d="M800 700H900V600H800Z"/>
</svg>
