<?xml version="1.0" encoding="UTF-8"?>
<svg xmlns="http://www.w3.org/2000/svg" viewBox="0 0 1200 1200" width="1200" height="1200">
  <title>emoji_u1f1f5_1f1f3</title>
  <path fill="#934770" d="M0 500H200V300H0Z"/>
  <path fill="#01257b" d="M700 500H1000V300H700Z"/>
  <path fill="#01257c" d="M600 500H900V400H800V300H600Z"/>
  <path fill="#01267a" d="M700 1000H1000V800H700Z"/>
  <path fill="#02257c" d="M800 900H900V1000H1100V800H800Z"/>
  <path fill="#3c3075" d="M400 500H700V300H400Z"/>
  <path fill="#575b97" d="M200 500H500V300H200Z"/>
  <path fill="#61346e" d="M0 800H200V500H0Z"/>
  <path fill="#613e77" d="M0 500H300V300H100V400H0Z"/>
  <path fill="#826895" d="M0 600H100V700H200V400H0Z"/>
  <path fill="#97486f" d="M300 500H600V400H500V300H400V400H300Z"/>
  <path fill="#9e466b" d="M100 500H400V400H300V300H200V400H100Z"/>
  <path fill="#b74e6b" d="M0 500H100V600H200V400H0Z"/>
  <path fill="#00247d" d="M0 1000H800V900H1000V1000H1100V300H900V400H700V300H600V400H500V500H900V800H800V700H700V600H100V700H0Z"/>
  <path fill="#0d2d81" d="M100 700H300V500H100Z"/>
  <path fill="#113370" d="M600 600H900V400H600Z"/>
  <path fill="#173b67" d="M800 600H1000V400H800Z"/>
  <path fill="#18386e" d="M800 900H1000V700H800Z"/>
  <path fill="#1d3a6f" d="M500 600H800V500H700V400H500Z"/>
  <path fill="#2c5052" d="M800 800H1000V500H800Z"/>
  <path fill="#36466c" d="M700 600H1000V500H900V400H800V500H700Z"/>
  <path fill="#44604e" d="M800 900H900V800H1000V700H900V600H800Z"/>
  <path fill="#46634a" d="M600 800H700V900H900V700H600Z"/>
  <path fill="#507435" d="M700 800H800V900H900V700H700Z"/>
  <path fill="#5b3974" d="M400 600H700V500H600V400H400Z"/>
  <path fill="#737c47" d="M800 700H900V600H1000V500H800Z"/>
  <path fill="#c76c83" d="M100 600H200V700H300V400H100Z"/>
  <path fill="#c8556c" d="M300 600H600V500H500V400H300Z"/>
  <path fill="#d63c4f" d="M100 500H200V600H400V400H100Z"/>
  <path fill="#d95365" d="M100 500H200V400H100ZM200 600H300V500H200Z"/>
  <path fill="#dc5768" d="M200 600H500V500H400V400H300V500H200Z"/>
  <path fill="#11356d" d="M500 700H600V800H800V600H500Z"/>
  <path fill="#133d60" d="M500 700H800V500H500Z"/>
  <path fill="#2e504f" d="M600 700H900V500H700V600H600Z"/>
  <path fill="#31438b" d="M400 700H700V600H600V500H400Z"/>
  <path fill="#4e3474" d="M200 700H400V500H200Z"/>
  <path fill="#52825c" d="M600 700H700V800H900V600H600Z"/>
  <path fill="#576947" d="M700 700H900V500H800V600H700Z"/>
  <path fill="#578378" d="M700 700H800V800H900V600H700Z"/>
  <path fill="#61916c" d="M700 700H800V600H700ZM800 800H900V700H800Z"/>
  <path fill="#b2829f" d="M200 600H300V700H500V500H200Z"/>
  <path fill="#be6d86" d="M300 700H600V600H500V500H400V600H300Z"/>
  <path fill="#bf5670" d="M200 600H300V500H200ZM300 700H400V600H300Z"/>
  <path fill="#1b3888" d="M300 700H500V600H300Z"/>
  <path fill="#1e3d6b" d="M500 700H800V600H500Z"/>
  <path fill="#332972" d="M400 700H600V600H400Z"/>
  <path fill="#39377d" d="M400 700H500V600H400Z"/>
  <path fill="#608762" d="M700 700H800V600H700Z"/>
</svg>
