<?xml version="1.0" encoding="UTF-8"?>
<svg xmlns="http://www.w3.org/2000/svg" viewBox="0 0 1200 1200" width="1200" height="1200">
  <title>emoji_u1f6be</title>
  <path fill="#194fa5" d="M0 1100H100V1200H1000V1100H1100V200H1000V100H900V1000H0Z"/>
  <path fill="#2262dd" d="M0 1100H1000V100H100V200H0Z"/>
  <path fill="#6591e7" d="M200 300H300V200H200ZM100 400H200V300H100Z"/>
  <path fill="#fbf9f9" d="M100 800H200V500H100ZM300 800H400V500H300ZM500 800H600V500H500ZM800 600H1000V500H800ZM700 800H800V600H700ZM200 900H300V800H200ZM400 900H500V800H400ZM800 900H1000V800H800Z"/>
</svg>
