<?xml version="1.0" encoding="UTF-8"?>
<svg xmlns="http://www.w3.org/2000/svg" viewBox="0 0 1200 1200" width="1200" height="1200">
  <title>emoji_u1f587</title>
  <path fill="#94d1e0" d="M600 200H700V100H600ZM500 300H600V200H500ZM700 300H800V200H700ZM400 400H500V300H400ZM600 400H700V300H600ZM500 500H600V400H500ZM400 600H500V500H400ZM600 600H700V500H600ZM500 700H600V600H500ZM700 700H800V600H700ZM600 800H700V700H600ZM500 900H600V800H500ZM700 900H800V800H700ZM400 1000H500V900H400ZM600 1000H700V900H600ZM500 1100H600V1000H500Z"/>
  <path fill="#d6f1f2" d="M600 200H700V100H600ZM500 300H600V200H500ZM500 500H600V400H500ZM400 600H500V500H400ZM600 800H700V700H600ZM500 900H600V800H500ZM400 1000H500V900H400Z"/>
  <path fill="#2f7889" d="M500 500H600V400H500ZM600 800H700V700H600Z"/>
</svg>
