<?xml version="1.0" encoding="UTF-8"?>
<svg xmlns="http://www.w3.org/2000/svg" viewBox="0 0 1200 1200" width="1200" height="1200">
  <title>emoji_u1f6d6</title>
  <path fill="#d2a590" d="M200 500H900V300H800V200H600V100H500V200H300V300H200Z"/>
  <path fill="#bd9177" d="M100 600H1000V400H900V300H800V400H700V300H600V400H500V300H400V400H300V300H200V400H100Z"/>
  <path fill="#51362f" d="M400 1200H800V800H400Z"/>
  <path fill="#f78a51" d="M0 800H100V1200H500V900H700V1200H1000V800H1100V700H0Z"/>
  <path fill="#ed6d30" d="M0 800H200V900H300V800H400V900H500V800H600V900H700V800H800V900H900V800H1100V600H0ZM100 1200H500V1100H100ZM700 1200H1000V1100H700Z"/>
  <path fill="#a37f69" d="M0 800H100V700H200V800H300V700H400V800H500V700H600V800H700V700H800V800H900V700H1000V800H1100V500H1000V400H900V500H800V400H700V500H600V400H500V500H400V400H300V500H200V400H100V500H0Z"/>
  <path fill="#6c4d43" d="M100 700H200V600H100ZM300 700H400V600H300ZM500 700H600V600H500ZM700 700H800V600H700ZM900 700H1000V600H900ZM0 800H100V700H0ZM200 800H300V700H200ZM400 800H500V700H400ZM600 800H700V700H600ZM800 800H900V700H800ZM1000 800H1100V700H1000Z"/>
</svg>
