<?xml version="1.0" encoding="UTF-8"?>
<svg xmlns="http://www.w3.org/2000/svg" viewBox="0 0 1200 1200" width="1200" height="1200">
  <title>emoji_u1f196</title>
  <path fill="#427687" d="M0 1100H100V1200H1000V1100H1100V200H1000V100H900V1000H0Z"/>
  <path fill="#8cafbf" d="M0 1100H1000V100H100V200H0Z"/>
  <path fill="#a0c8d6" d="M200 300H300V200H200ZM100 500H300V400H200V300H100Z"/>
  <path fill="#fafafa" d="M100 900H200V600H300V400H100ZM300 900H500V400H400V600H300ZM700 500H1000V400H700ZM600 800H700V500H600ZM700 900H1000V600H800V700H900V800H700Z"/>
</svg>
