<?xml version="1.0" encoding="UTF-8"?>
<svg xmlns="http://www.w3.org/2000/svg" viewBox="0 0 1200 1200" width="1200" height="1200">
  <title>emoji_u1f1e6_1f1f6</title>
  <path fill="#3b7ece" d="M500 500H800V300H500Z"/>
  <path fill="#5891d5" d="M600 1000H900V800H600Z"/>
  <path fill="#5992d6" d="M400 500H700V400H600V300H400Z"/>
  <path fill="#5a92d6" d="M400 1000H700V800H400Z"/>
  <path fill="#88b1e1" d="M500 900H600V1000H700V900H800V800H500Z"/>
  <path fill="#3a7dce" d="M0 1000H500V900H600V800H400V700H300V600H500V300H0ZM600 500H700V600H800V800H700V900H800V1000H1100V300H700V400H600Z"/>
  <path fill="#4181d0" d="M400 500H600V400H500V300H400ZM100 600H300V500H200V400H100Z"/>
  <path fill="#4786d1" d="M100 600H200V700H300V500H100Z"/>
  <path fill="#4c89d3" d="M700 900H900V700H700Z"/>
  <path fill="#80ace0" d="M300 900H600V700H300Z"/>
  <path fill="#97bae5" d="M600 600H900V500H800V400H600Z"/>
  <path fill="#b1cbeb" d="M400 800H500V900H700V700H400Z"/>
  <path fill="#c9dbf1" d="M300 600H600V400H400V500H300Z"/>
  <path fill="#e3edf8" d="M500 600H800V500H700V400H500Z"/>
  <path fill="#eff4fb" d="M600 900H800V800H900V700H600Z"/>
  <path fill="#699cda" d="M200 800H300V900H400V800H500V700H400V600H200Z"/>
  <path fill="#ffffff" d="M200 700H300V800H600V900H700V800H900V500H600V400H500V500H200Z"/>
  <path fill="#4e8ad3" d="M800 700H900V500H800Z"/>
  <path fill="#95b9e5" d="M200 700H300V600H400V500H200ZM300 800H400V700H300Z"/>
  <path fill="#96b9e5" d="M200 600H500V500H200Z"/>
  <path fill="#a0c0e7" d="M800 800H900V600H800Z"/>
  <path fill="#a7c5e9" d="M800 800H900V700H800Z"/>
  <path fill="#b2ccec" d="M200 600H300V500H200Z"/>
  <path fill="#fcfdfe" d="M400 600H500V500H400Z"/>
  <path fill="#feffff" d="M300 800H400V700H300Z"/>
</svg>
