<?xml version="1.0" encoding="UTF-8"?>
<svg xmlns="http://www.w3.org/2000/svg" viewBox="0 0 1200 1200" width="1200" height="1200">
  <title>emoji_u1f98e</title>
  <path fill="#00821d" d="M0 900H200V800H300V900H400V1000H300V1200H400V1100H500V1000H600V1100H700V900H800V800H700V700H900V500H800V600H600V300H500V500H400V400H300V600H100V800H0Z"/>
  <path fill="#0c090c" d="M0 500H400V200H0Z"/>
  <path fill="#02ab47" d="M0 500H100V700H300V600H400V400H300V300H400V200H300V100H100V200H0V300H100V400H0ZM500 400H600V300H500ZM800 700H900V500H800ZM300 900H500V800H600V600H400V700H300ZM0 900H100V800H0ZM600 1100H700V1200H1000V1100H1100V800H1000V900H600ZM300 1200H400V1000H300Z"/>
  <path fill="#a8d154" d="M200 700H300V800H400V900H600V1000H700V1100H800V1000H900V900H800V800H600V700H500V600H400V500H200Z"/>
  <path fill="#ea7032" d="M200 600H300V500H200ZM400 800H500V700H400ZM700 1000H800V900H700Z"/>
</svg>
