<?xml version="1.0" encoding="UTF-8"?>
<svg xmlns="http://www.w3.org/2000/svg" viewBox="0 0 1200 1200" width="1200" height="1200">
  <title>emoji_u1f6ae</title>
  <path fill="#194fa5" d="M0 1100H100V1200H1000V1100H1100V200H1000V100H900V1000H0Z"/>
  <path fill="#2262dd" d="M0 1100H1000V100H100V200H0Z"/>
  <path fill="#68abe6" d="M200 300H300V200H200ZM100 400H200V300H100Z"/>
  <path fill="#ffffff" d="M400 600H600V700H700V1000H800V700H900V600H800V500H700V400H800V300H700V200H600V300H500V400H600V500H400ZM300 700H400V600H300ZM500 1000H600V700H500ZM200 900H300V800H200ZM300 1000H400V900H300Z"/>
</svg>
