<?xml version="1.0" encoding="UTF-8"?>
<svg xmlns="http://www.w3.org/2000/svg" viewBox="0 0 1200 1200" width="1200" height="1200">
  <title>emoji_u2600</title>
  <path fill="#ffa722" d="M500 300H600V100H500ZM100 300H200V200H100ZM900 300H1000V200H900ZM200 400H300V300H200ZM800 400H900V300H800ZM0 700H200V600H0ZM900 700H1100V600H900ZM200 1000H300V900H200ZM800 1000H900V900H800ZM100 1100H200V1000H100ZM500 1200H600V1000H500ZM900 1100H1000V1000H900Z"/>
  <path fill="#fcc11a" d="M300 800H400V900H700V800H800V500H700V400H400V500H300Z"/>
  <path fill="#fee269" d="M400 600H500V500H400Z"/>
</svg>
