<?xml version="1.0" encoding="UTF-8"?>
<svg xmlns="http://www.w3.org/2000/svg" viewBox="0 0 1200 1200" width="1200" height="1200">
  <title>emoji_u1f9bd</title>
  <path fill="#c62828" d="M900 600H1100V300H900ZM200 800H500V500H200V600H300V700H200Z"/>
  <path fill="#78909c" d="M100 1200H200V1100H300V1200H400V1100H600V1200H1000V1100H1100V500H500V600H400V800H500V1000H400V900H300V1000H200V900H100ZM600 1000V800H1000V1000H900V1100H700V1000Z"/>
  <path fill="#424242" d="M700 500H1000V400H1100V100H700ZM200 600H400V700H500V600H600V400H200ZM0 1100H100V1200H200V900H100V1000H0ZM300 1100H400V900H300Z"/>
  <path fill="#f44336" d="M1000 400H1100V100H1000ZM100 1200H200V900H300V800H500V700H600V800H700V900H900V800H1000V700H1100V500H1000V400H800V300H700V400H500V500H400V700H200V800H100ZM600 700V600H700V700ZM800 700V600H1000V700ZM300 500H400V400H300ZM500 900H600V800H500ZM300 1000H400V900H300Z"/>
  <path fill="#757575" d="M700 400H800V200H900V100H700ZM200 500H400V400H200ZM600 800H700V700H600ZM900 800H1000V700H900ZM700 1000H900V800H700ZM600 1100H700V1000H600ZM900 1100H1000V1000H900Z"/>
  <path fill="#82aec0" d="M700 700H800V600H700ZM600 800H700V700H600ZM900 800H1000V700H900ZM500 900H600V800H500ZM600 1100H700V1000H600ZM900 1100H1000V1000H900Z"/>
  <path fill="#8ec4d2" d="M700 700H800V600H700ZM500 900H600V800H500Z"/>
</svg>
