<?xml version="1.0" encoding="UTF-8"?>
<svg xmlns="http://www.w3.org/2000/svg" viewBox="0 0 1200 1200" width="1200" height="1200">
  <title>emoji_u1f36e</title>
  <path fill="#d4d4d4" d="M0 1000H100V1100H200V1200H900V1100H1000V1000H1100V600H1000V500H900V900H800V1000H300V900H200V500H100V600H0Z"/>
  <path fill="#ffffff" d="M600 700H900V600H1000V300H900V200H700V100H600Z"/>
  <path fill="#e07f14" d="M100 700H300V800H800V700H1000V300H900V500H800V600H700V500H800V300H700V100H400V200H200V300H100ZM800 300H900V200H800Z"/>
  <path fill="#f5b03e" d="M200 500H300V400H200ZM100 800H300V900H600V1100H900V1000H1000V500H900V600H700V700H400V600H500V500H300V600H200V500H100Z"/>
  <path fill="#fbdf96" d="M100 1000H200V1100H700V700H600V800H400V700H200V600H100Z"/>
  <path fill="#f7c876" d="M600 1100H700V700H600Z"/>
  <path fill="#ffba02" d="M200 500H300V400H200ZM300 600H600V500H300Z"/>
</svg>
