<?xml version="1.0" encoding="UTF-8"?>
<svg xmlns="http://www.w3.org/2000/svg" viewBox="0 0 1200 1200" width="1200" height="1200">
  <title>emoji_u1f9cf_1f3fb_200d_2640</title>
  <path fill="#b0bec5" d="M0 500H100V600H200V500H300V400H200V100H100V400H0Z"/>
  <path fill="#4918b6" d="M200 1200H600V800H300V1000H200Z"/>
  <path fill="#312d2d" d="M300 1000H400V900H500V1000H600V900H700V700H800V900H900V1000H1100V200H1000V100H500V200H400V600H300Z"/>
  <path fill="#5611ef" d="M500 1200H1100V900H1000V800H900V700H600V800H500ZM0 1200H200V1000H0Z"/>
  <path fill="#f9ddbd" d="M500 700H600V800H900V700H1000V400H900V600H800V300H600V400H700V600H600V400H500ZM0 1100H100V1200H300V1100H400V600H300V700H200V800H100V900H0Z"/>
  <path fill="#edbd82" d="M200 900H300V800H200ZM100 1000H200V900H100ZM300 1000H400V900H300ZM200 1100H300V1000H200Z"/>
  <path fill="#edc391" d="M600 800H900V700H600Z"/>
</svg>
