<?xml version="1.0" encoding="UTF-8"?>
<svg xmlns="http://www.w3.org/2000/svg" viewBox="0 0 1200 1200" width="1200" height="1200">
  <title>emoji_u1f39a</title>
  <path fill="#797979" d="M700 1200H900V1100H1000V200H900V100H700V300H800V1000H700Z"/>
  <path fill="#e9e9e9" d="M100 1100H200V1200H400V1000H300V300H400V100H200V200H100Z"/>
  <path fill="#bdbdbd" d="M200 1100H300V1200H800V1100H900V200H800V100H300V200H200Z"/>
  <path fill="#424242" d="M600 1100H700V1000H900V900H700V800H900V700H700V600H900V500H700V400H900V300H700V200H600ZM200 400H400V300H200ZM200 600H400V500H200ZM200 800H400V700H200ZM200 1000H500V800H400V900H200Z"/>
  <path fill="#e0e0e0" d="M500 1100H700V200H500Z"/>
  <path fill="#212121" d="M400 1000H500V1100H600V1000H700V800H600V200H500V800H400Z"/>
  <path fill="#8c8c8c" d="M400 1000H500V900H600V800H400Z"/>
  <path fill="#a6a6a6" d="M500 900H600V1000H700V800H500Z"/>
  <path fill="#000000" d="M400 900H700V800H400Z"/>
</svg>
