<?xml version="1.0" encoding="UTF-8"?>
<svg xmlns="http://www.w3.org/2000/svg" viewBox="0 0 1200 1200" width="1200" height="1200">
  <title>emoji_u1f93d_1f3fd_200d_2640</title>
  <path fill="#954a06" d="M100 400H200V500H300V600H400V300H300V200H100Z"/>
  <path fill="#5e6367" d="M400 600H700V200H600V300H500V200H400V400H500V500H400ZM800 500H1000V300H900V200H800Z"/>
  <path fill="#858585" d="M600 500H900V200H600Z"/>
  <path fill="#85e4ff" d="M0 1100H100V1200H300V1100H600V1200H900V1100H1100V800H900V900H800V800H700V700H400V800H300V900H100V800H0ZM800 800H900V700H800Z"/>
  <path fill="#ffa726" d="M100 300H200V400H500V200H400V100H200V200H100Z"/>
  <path fill="#99674f" d="M500 700H900V600H800V500H900V400H600V500H500Z"/>
  <path fill="#4b0fce" d="M300 600H500V700H400V800H600V900H800V800H900V600H600V500H400V400H300Z"/>
  <path fill="#f47a00" d="M100 300H200V400H300V500H400V400H500V200H400V300H300V200H100Z"/>
  <path fill="#ba8d68" d="M300 600H400V300H300ZM600 500H900V400H800V300H700V400H600ZM500 600H600V500H500ZM700 700H800V800H900V600H700Z"/>
  <path fill="#ad5910" d="M300 200H400V100H300ZM200 300H300V200H200ZM400 300H500V200H400ZM300 400H400V300H300Z"/>
  <path fill="#16ccff" d="M600 900H700V800H600ZM0 1000H100V900H0ZM300 1000H600V900H300ZM900 1000H1100V900H900ZM100 1100H300V1000H100ZM600 1100H900V1000H600Z"/>
  <path fill="#583ee2" d="M500 600H600V500H500ZM500 800H600V900H700V700H900V600H600V700H500Z"/>
</svg>
