<?xml version="1.0" encoding="UTF-8"?>
<svg xmlns="http://www.w3.org/2000/svg" viewBox="0 0 1200 1200" width="1200" height="1200">
  <title>emoji_u1f1ff_1f1e6</title>
  <path fill="#268344" d="M0 500H300V300H0ZM0 1000H300V800H0Z"/>
  <path fill="#8a7918" d="M0 600H200V400H100V300H0ZM0 1000H100V900H200V700H0Z"/>
  <path fill="#32407c" d="M200 1000H500V800H200Z"/>
  <path fill="#8c8a3c" d="M100 900H200V1000H300V900H400V800H100Z"/>
  <path fill="#b88e28" d="M100 500H400V300H200V400H100Z"/>
  <path fill="#e4512b" d="M200 500H500V300H300V400H200Z"/>
  <path fill="#000000" d="M0 800H100V900H200V800H300V500H200V400H100V500H0Z"/>
  <path fill="#002395" d="M300 900H400V1000H1100V700H500V800H300Z"/>
  <path fill="#de3831" d="M300 500H500V600H1100V300H400V400H300Z"/>
  <path fill="#057b4c" d="M0 400H100V300H0ZM100 500H200V400H100ZM300 800H600V500H300ZM100 900H200V800H100ZM0 1000H100V900H0Z"/>
  <path fill="#779bb9" d="M600 800H1100V600H600Z"/>
  <path fill="#c2a297" d="M600 700H1100V500H600Z"/>
  <path fill="#007a4d" d="M400 800H700V700H1100V600H700V500H400V600H500V700H400Z"/>
  <path fill="#017a4d" d="M100 600H400V400H100ZM100 900H400V700H100Z"/>
  <path fill="#358741" d="M100 600H300V500H200V400H100ZM100 900H200V800H300V700H100Z"/>
  <path fill="#5a4207" d="M100 800H300V500H100V600H200V700H100Z"/>
  <path fill="#0a2990" d="M400 900H600V800H700V700H400Z"/>
  <path fill="#5e8f38" d="M200 800H300V900H500V700H200Z"/>
  <path fill="#628f37" d="M200 600H500V400H300V500H200Z"/>
  <path fill="#786f53" d="M300 800H400V900H500V800H600V700H300Z"/>
  <path fill="#de7825" d="M300 600H600V400H400V500H300Z"/>
  <path fill="#df3d30" d="M400 600H700V500H600V400H500V500H400Z"/>
  <path fill="#0c7d4a" d="M200 800H500V700H400V600H500V500H200Z"/>
  <path fill="#188048" d="M400 600H600V500H400ZM300 700H400V600H300ZM400 800H600V700H400Z"/>
  <path fill="#7b8d2a" d="M200 800H300V700H400V600H300V500H200Z"/>
  <path fill="#271c03" d="M200 700H400V600H200Z"/>
  <path fill="#77929d" d="M500 800H700V700H500Z"/>
  <path fill="#818d3a" d="M500 800H600V700H500Z"/>
  <path fill="#9f902d" d="M500 600H700V500H500Z"/>
  <path fill="#c2997b" d="M600 600H700V500H600Z"/>
  <path fill="#b49d1f" d="M300 700H400V600H300Z"/>
</svg>
