<?xml version="1.0" encoding="UTF-8"?>
<svg xmlns="http://www.w3.org/2000/svg" viewBox="0 0 1200 1200" width="1200" height="1200">
  <title>emoji_u1f34d</title>
  <path fill="#2f7c31" d="M300 700H800V500H700V400H800V300H700V100H600V200H500V100H400V300H300V400H400V500H300ZM200 300H300V200H200ZM800 300H900V200H800ZM200 500H300V400H200ZM800 500H900V400H800Z"/>
  <path fill="#ffbe1f" d="M200 1100H300V1200H800V1100H900V700H800V500H700V600H400V500H300V700H200Z"/>
  <path fill="#709921" d="M300 400H400V300H300ZM500 400H600V300H500ZM700 400H800V300H700ZM400 500H500V400H400ZM600 500H700V400H600ZM300 600H400V500H300ZM400 700H500V800H600V700H700V600H600V500H500V600H400ZM700 600H800V500H700ZM300 800H400V700H300ZM700 800H800V700H700Z"/>
  <path fill="#f79429" d="M300 800H400V700H300ZM500 800H600V700H500ZM700 800H800V700H700ZM400 900H500V800H400ZM600 900H700V800H600ZM300 1000H400V900H300ZM500 1000H600V900H500ZM700 1000H800V900H700ZM400 1100H500V1000H400ZM600 1100H700V1000H600Z"/>
</svg>
