<?xml version="1.0" encoding="UTF-8"?>
<svg xmlns="http://www.w3.org/2000/svg" viewBox="0 0 1200 1200" width="1200" height="1200">
  <title>emoji_u1f3cf</title>
  <path fill="#d06f1d" d="M600 1100H700V1200H1000V1100H1100V500H1000V400H900V300H800V400H700V500H600V600H900V1000H600Z"/>
  <path fill="#e0e0e0" d="M800 400H900V100H800Z"/>
  <path fill="#a52415" d="M0 1000H100V1100H400V1000H500V700H400V600H100V700H0Z"/>
  <path fill="#fde7c4" d="M300 700H400V600H300ZM100 900H200V800H300V700H100ZM400 800H500V700H400ZM300 900H400V800H300ZM0 1000H100V900H0ZM200 1000H300V900H200ZM100 1100H200V1000H100Z"/>
  <path fill="#474c4f" d="M700 600H1000V500H900V300H800V500H700Z"/>
  <path fill="#eb8b34" d="M600 1100H1000V500H600Z"/>
  <path fill="#af570c" d="M800 200H900V100H800ZM800 800H900V500H800Z"/>
  <path fill="#d26051" d="M100 800H200V700H100Z"/>
</svg>
