<?xml version="1.0" encoding="UTF-8"?>
<svg xmlns="http://www.w3.org/2000/svg" viewBox="0 0 1200 1200" width="1200" height="1200">
  <title>emoji_u1f1e8_1f1ec</title>
  <path fill="#78b846" d="M0 1000H200V800H0Z"/>
  <path fill="#eb7d34" d="M900 500H1100V300H900Z"/>
  <path fill="#3da745" d="M500 500H800V300H500Z"/>
  <path fill="#e4522a" d="M300 1000H600V800H300Z"/>
  <path fill="#eeda4a" d="M600 500H900V300H700V400H600Z"/>
  <path fill="#f9d448" d="M200 1000H400V900H500V800H200Z"/>
  <path fill="#009543" d="M0 900H100V1000H200V900H300V800H400V700H500V600H600V500H700V400H600V300H0Z"/>
  <path fill="#dc241f" d="M400 900H500V1000H1100V400H1000V300H900V400H800V500H700V600H600V700H500V800H400Z"/>
  <path fill="#fbde4a" d="M100 1000H300V900H600V800H700V700H800V600H900V500H1000V300H800V400H500V500H400V600H300V700H200V800H100Z"/>
  <path fill="#45a945" d="M400 600H600V500H700V400H500V500H400Z"/>
  <path fill="#6eb546" d="M100 900H300V700H200V800H100Z"/>
  <path fill="#e5572b" d="M400 900H600V800H700V700H500V800H400Z"/>
  <path fill="#ea7632" d="M800 600H900V500H1000V400H800Z"/>
  <path fill="#f1db4a" d="M600 500H700V400H600ZM500 600H600V500H500ZM700 600H800V500H700Z"/>
  <path fill="#fad748" d="M300 800H400V700H300ZM500 800H600V700H500ZM400 900H500V800H400Z"/>
  <path fill="#fade4a" d="M200 900H300V800H400V700H200Z"/>
  <path fill="#fbdd4a" d="M700 600H900V400H800V500H700Z"/>
  <path fill="#4dab45" d="M300 700H500V600H600V500H400V600H300Z"/>
  <path fill="#63b246" d="M200 800H400V600H300V700H200Z"/>
  <path fill="#e65d2c" d="M500 800H700V700H800V600H600V700H500Z"/>
  <path fill="#e86d30" d="M700 700H800V600H900V500H700Z"/>
  <path fill="#f4dc4a" d="M500 600H600V500H500ZM400 700H500V600H400ZM600 700H700V600H600Z"/>
  <path fill="#f9dd4a" d="M300 800H400V700H500V600H300Z"/>
  <path fill="#fad949" d="M400 700H500V600H400ZM600 700H700V600H600ZM500 800H600V700H500Z"/>
  <path fill="#fbdc4a" d="M600 700H800V500H700V600H600Z"/>
  <path fill="#57ae45" d="M300 700H500V600H300Z"/>
  <path fill="#e7652e" d="M600 700H800V600H600Z"/>
  <path fill="#f6dd4a" d="M400 700H500V600H400Z"/>
  <path fill="#fada49" d="M600 700H700V600H600Z"/>
</svg>
