<?xml version="1.0" encoding="UTF-8"?>
<svg xmlns="http://www.w3.org/2000/svg" viewBox="0 0 1200 1200" width="1200" height="1200">
  <title>emoji_u1f1e6_1f1ff</title>
  <path fill="#00b9e4" d="M0 600H1100V300H0Z"/>
  <path fill="#3f9c35" d="M0 1000H1100V700H0Z"/>
  <path fill="#9d5a73" d="M0 700H1100V500H0Z"/>
  <path fill="#b25038" d="M0 800H1100V600H0Z"/>
  <path fill="#ed2939" d="M0 700H400V800H500V500H400V600H0ZM600 700H1100V600H600Z"/>
  <path fill="#9f7189" d="M400 700H600V500H400Z"/>
  <path fill="#a07c92" d="M400 700H700V600H600V500H500V600H400Z"/>
  <path fill="#b4684e" d="M400 800H600V600H400Z"/>
  <path fill="#b57257" d="M400 700H500V800H600V700H700V600H400Z"/>
  <path fill="#ee3241" d="M400 700H700V600H400Z"/>
  <path fill="#f36f7a" d="M400 700H500V600H400Z"/>
  <path fill="#f37680" d="M600 700H700V600H600Z"/>
</svg>
