<?xml version="1.0" encoding="UTF-8"?>
<svg xmlns="http://www.w3.org/2000/svg" viewBox="0 0 1200 1200" width="1200" height="1200">
  <title>emoji_u1fa96</title>
  <path fill="#784d30" d="M800 700H900V1000H1000V600H800ZM500 1100H900V1000H600V900H500Z"/>
  <path fill="#8d6e63" d="M300 900H400V1100H600V900H500V800H300Z"/>
  <path fill="#90a4ae" d="M400 900H500V800H400ZM500 1000H600V900H500ZM400 1100H500V1000H400Z"/>
  <path fill="#757f40" d="M100 700H400V500H500V200H300V300H200V500H100Z"/>
  <path fill="#939957" d="M100 900H500V800H800V700H1000V600H1100V500H1000V400H900V500H700V600H400V700H100Z"/>
  <path fill="#506b3f" d="M100 800H500V700H800V600H1000V300H900V200H300V300H400V400H300V600H200V500H100ZM200 400H300V300H200Z"/>
</svg>
