<?xml version="1.0" encoding="UTF-8"?>
<svg xmlns="http://www.w3.org/2000/svg" viewBox="0 0 1200 1200" width="1200" height="1200">
  <title>emoji_u1f1f8_1f1f7</title>
  <path fill="#377e3f" d="M0 500H1100V300H0ZM0 1000H1100V800H0Z"/>
  <path fill="#aecbb2" d="M0 600H1100V400H0ZM0 900H1100V700H0Z"/>
  <path fill="#bc2443" d="M0 800H500V700H600V800H1100V500H0Z"/>
  <path fill="#b40a2d" d="M0 700H400V800H500V600H0ZM600 800H700V700H1100V600H600Z"/>
  <path fill="#c33c41" d="M400 800H700V600H400Z"/>
  <path fill="#c74940" d="M400 700H700V600H600V500H500V600H400Z"/>
  <path fill="#cf643d" d="M400 700H500V800H600V700H700V600H400Z"/>
  <path fill="#c44028" d="M400 700H700V600H400Z"/>
  <path fill="#e7b81e" d="M500 700H600V600H500Z"/>
</svg>
