<?xml version="1.0" encoding="UTF-8"?>
<svg xmlns="http://www.w3.org/2000/svg" viewBox="0 0 1200 1200" width="1200" height="1200">
  <title>emoji_u1f36c</title>
  <path fill="#ffacb0" d="M300 400H400V300H300ZM200 500H300V400H200ZM300 800H400V900H700V800H800V500H700V400H400V500H300ZM800 900H900V800H800ZM700 1000H800V900H700Z"/>
  <path fill="#ffbec2" d="M300 700H400V800H500V900H600V800H700V700H800V600H700V500H600V400H500V500H400V600H300Z"/>
  <path fill="#ffffff" d="M0 500H300V400H400V100H200V200H100V300H0ZM400 800H600V700H700V500H400ZM700 1200H900V1100H1000V1000H1100V800H800V900H700Z"/>
  <path fill="#e0e0e0" d="M300 200H400V100H300ZM0 500H100V400H200V500H300V400H400V300H300V200H200V300H0ZM800 900H900V800H800ZM1000 900H1100V800H1000ZM700 1200H800V1100H1000V900H900V1000H800V900H700Z"/>
  <path fill="#ff5960" d="M400 800H700V500H600V600H500V700H400Z"/>
  <path fill="#fe7c84" d="M400 600H500V500H400ZM600 600H700V500H600ZM500 700H600V600H500ZM400 800H500V700H400ZM600 800H700V700H600Z"/>
</svg>
