<?xml version="1.0" encoding="UTF-8"?>
<svg xmlns="http://www.w3.org/2000/svg" viewBox="0 0 1200 1200" width="1200" height="1200">
  <title>emoji_u1f1e9_1f1ec</title>
  <path fill="#6680b2" d="M0 1000H500V800H0Z"/>
  <path fill="#6882b3" d="M900 900H1100V600H900ZM500 1000H800V800H500Z"/>
  <path fill="#6c84b5" d="M100 900H200V1000H300V900H400V800H100ZM800 1000H1100V800H800Z"/>
  <path fill="#7c6694" d="M400 500H700V300H400ZM0 700H200V400H0Z"/>
  <path fill="#617cb0" d="M900 900H1000V1000H1100V800H900Z"/>
  <path fill="#6c85b5" d="M0 1000H100V900H200V800H0Z"/>
  <path fill="#879bc3" d="M900 500H1100V300H900Z"/>
  <path fill="#934770" d="M0 500H200V300H0Z"/>
  <path fill="#575b97" d="M200 500H500V300H200Z"/>
  <path fill="#613e77" d="M0 500H300V300H100V400H0Z"/>
  <path fill="#627db0" d="M900 900H1100V800H1000V700H900Z"/>
  <path fill="#6881b3" d="M400 1000H600V900H700V800H400Z"/>
  <path fill="#6983b4" d="M800 500H1100V400H1000V300H800Z"/>
  <path fill="#6f789b" d="M700 1000H900V900H1000V800H700Z"/>
  <path fill="#8096bf" d="M900 800H1000V700H1100V500H900Z"/>
  <path fill="#8498c1" d="M0 900H200V700H0Z"/>
  <path fill="#8b9ec5" d="M900 600H1100V400H900Z"/>
  <path fill="#8b9fc5" d="M900 700H1000V600H1100V500H1000V400H900Z"/>
  <path fill="#8c628b" d="M0 800H200V500H100V600H0Z"/>
  <path fill="#8da0c6" d="M0 800H100V900H200V600H100V700H0Z"/>
  <path fill="#97486f" d="M300 500H600V400H500V300H400V400H300Z"/>
  <path fill="#9e466b" d="M100 500H400V400H300V300H200V400H100Z"/>
  <path fill="#b74e6b" d="M0 500H100V600H200V400H0Z"/>
  <path fill="#6a83b4" d="M100 900H400V1000H500V900H700V1000H800V900H900V800H300V700H100Z"/>
  <path fill="#7088b7" d="M600 500H900V300H600ZM200 900H500V700H200Z"/>
  <path fill="#7c92bd" d="M500 500H800V400H700V300H600V400H500ZM500 900H800V600H500ZM100 800H200V900H300V800H400V700H100Z"/>
  <path fill="#8ca2bf" d="M600 700H700V800H900V500H1000V400H900V300H800V400H700V500H600Z"/>
  <path fill="#869ebb" d="M800 800H1000V400H800Z"/>
  <path fill="#599567" d="M700 600H900V500H1000V400H700Z"/>
  <path fill="#738bb9" d="M500 900H800V700H700V800H600V700H500Z"/>
  <path fill="#748bb9" d="M400 900H600V700H400Z"/>
  <path fill="#758cba" d="M100 800H300V600H100Z"/>
  <path fill="#788fbb" d="M300 800H400V900H500V800H600V700H300Z"/>
  <path fill="#7a94b6" d="M900 500H1000V400H900ZM800 600H900V500H800Z"/>
  <path fill="#7b8bb9" d="M100 700H200V800H300V500H100Z"/>
  <path fill="#7f94bf" d="M800 900H1000V700H800Z"/>
  <path fill="#8294b8" d="M700 900H900V700H700Z"/>
  <path fill="#8a9ec4" d="M800 900H900V800H1000V700H900V600H800Z"/>
  <path fill="#90929f" d="M700 800H800V900H900V700H700Z"/>
  <path fill="#92749a" d="M500 600H800V400H500Z"/>
  <path fill="#c0556f" d="M400 600H700V500H600V400H400Z"/>
  <path fill="#c76c83" d="M100 600H200V700H300V400H100Z"/>
  <path fill="#c8556c" d="M300 600H600V500H500V400H300Z"/>
  <path fill="#d63c4f" d="M100 500H200V600H400V400H100Z"/>
  <path fill="#d95365" d="M100 500H200V400H100ZM200 600H300V500H200Z"/>
  <path fill="#dc5768" d="M200 600H500V500H400V400H300V500H200Z"/>
  <path fill="#90acb5" d="M600 600H800V700H700V800H900V500H800V400H700V500H600Z"/>
  <path fill="#8095bf" d="M300 800H600V700H700V600H300Z"/>
  <path fill="#4a9051" d="M700 600H900V500H700Z"/>
  <path fill="#548975" d="M600 700H700V600H800V500H600Z"/>
  <path fill="#8a9ac1" d="M200 800H400V700H500V600H200Z"/>
  <path fill="#9892b6" d="M400 700H700V500H400Z"/>
  <path fill="#9a909a" d="M600 700H700V600H600ZM700 800H900V700H700Z"/>
  <path fill="#a3aeb9" d="M500 700H700V500H600V600H500Z"/>
  <path fill="#a77292" d="M200 800H300V700H400V600H200Z"/>
  <path fill="#aa7554" d="M800 800H900V700H800Z"/>
  <path fill="#b2829f" d="M200 700H500V500H200Z"/>
  <path fill="#be6d86" d="M300 700H600V600H500V500H400V600H300Z"/>
  <path fill="#bf5670" d="M200 700H400V600H300V500H200Z"/>
  <path fill="#bf637c" d="M200 700H400V600H200Z"/>
  <path fill="#889cc3" d="M500 700H700V600H500Z"/>
  <path fill="#8a7ea7" d="M300 700H600V600H300Z"/>
  <path fill="#8d98c0" d="M300 700H400V600H300Z"/>
  <path fill="#98789c" d="M500 700H600V600H500Z"/>
</svg>
