<?xml version="1.0" encoding="UTF-8"?>
<svg xmlns="http://www.w3.org/2000/svg" viewBox="0 0 1200 1200" width="1200" height="1200">
  <title>emoji_u1f402</title>
  <path fill="#f7c515" d="M100 200H200V100H100ZM200 400H400V200H200Z"/>
  <path fill="#2c2f33" d="M0 700H100V800H200V500H0Z"/>
  <path fill="#be9079" d="M0 600H100V800H300V300H200V400H100V500H0Z"/>
  <path fill="#51362f" d="M200 500H400V600H500V700H300V1200H400V1100H600V1000H800V1200H900V1100H1000V800H800V400H700V300H500V200H300V300H200Z"/>
  <path fill="#865b52" d="M300 300H500V200H300ZM100 600H200V800H300V900H400V1100H500V1200H600V900H900V1100H1000V1200H1100V500H800V300H500V400H600V500H700V700H600V500H500V400H200V500H100ZM400 900V800H500V900Z"/>
  <path fill="#0c090c" d="M300 600H400V500H300Z"/>
</svg>
