<?xml version="1.0" encoding="UTF-8"?>
<svg xmlns="http://www.w3.org/2000/svg" viewBox="0 0 1200 1200" width="1200" height="1200">
  <title>emoji_u1f6c5</title>
  <path fill="#194fa5" d="M0 1100H100V1200H1000V1100H1100V200H1000V100H900V1000H0Z"/>
  <path fill="#2262dd" d="M0 1100H400V900H700V1100H1000V100H100V200H0Z"/>
  <path fill="#68abe6" d="M100 400H200V500H300V200H200V300H100Z"/>
  <path fill="#cee2f4" d="M200 400H300V300H400V200H200Z"/>
  <path fill="#fafafa" d="M200 500H500V400H600V500H700V400H800V500H900V300H500V200H300V300H400V400H300V300H200ZM300 1100H800V800H700V600H400V800H300ZM500 800V700H600V800Z"/>
</svg>
