<?xml version="1.0" encoding="UTF-8"?>
<svg xmlns="http://www.w3.org/2000/svg" viewBox="0 0 1200 1200" width="1200" height="1200">
  <title>emoji_u1f50c</title>
  <path fill="#c9c9c9" d="M200 400H400V100H200ZM700 400H900V100H700Z"/>
  <path fill="#9e9e9e" d="M100 500H500V400H400V300H200V400H100ZM600 500H1000V400H900V300H700V400H600Z"/>
  <path fill="#808080" d="M600 1200H700V1100H800V900H900V700H1000V400H700V600H600Z"/>
  <path fill="#616161" d="M100 700H200V900H300V1100H400V1200H500V1100H600V1200H700V1000H800V900H900V700H1000V400H900V600H800V400H100ZM700 900V700H800V900Z"/>
  <path fill="#424242" d="M100 700H1000V600H100ZM400 1000H700V900H400ZM400 1200H500V1100H400ZM600 1200H700V1100H600Z"/>
</svg>
