<?xml version="1.0" encoding="UTF-8"?>
<svg xmlns="http://www.w3.org/2000/svg" viewBox="0 0 1200 1200" width="1200" height="1200">
  <title>emoji_u1f61c</title>
  <path fill="#eb8f00" d="M0 1000H100V1100H200V1200H500V1000H300V900H200V400H300V300H800V400H900V900H800V1000H600V1200H900V1100H1000V1000H1100V300H1000V200H900V100H200V200H100V300H0Z"/>
  <path fill="#ff4081" d="M300 1100H400V1200H700V1100H800V800H300Z"/>
  <path fill="#e62b6b" d="M400 900H500V1100H600V900H700V800H400Z"/>
  <path fill="#fde030" d="M100 1000H200V1100H400V900H700V1100H900V1000H1000V300H900V200H200V300H100Z"/>
  <path fill="#422b0d" d="M200 500H300V400H200ZM600 600H700V700H800V600H900V500H800V400H700V500H600ZM200 700H400V500H300V600H200ZM200 900H300V1000H400V900H700V1000H800V900H900V800H200Z"/>
  <path fill="#ffffff" d="M700 500H800V400H700ZM600 600H700V500H600ZM800 600H900V500H800ZM700 700H800V600H700Z"/>
</svg>
