<?xml version="1.0" encoding="UTF-8"?>
<svg xmlns="http://www.w3.org/2000/svg" viewBox="0 0 1200 1200" width="1200" height="1200">
  <title>emoji_u1f41d</title>
  <path fill="#5a6066" d="M300 900H400V1000H500V1100H600V800H300ZM300 1100H400V1000H300Z"/>
  <path fill="#5c6063" d="M900 900H1100V600H900Z"/>
  <path fill="#848484" d="M0 200H100V500H300V600H600V200H500V100H300V200H400V400H200V100H0ZM500 1100H600V1000H700V1100H800V1000H900V1100H1000V900H1100V800H600V900H500Z"/>
  <path fill="#bed7db" d="M500 500H700V400H800V200H700V100H600V200H500Z"/>
  <path fill="#febb00" d="M0 800H100V900H600V700H700V900H800V1000H900V900H1100V800H1000V700H1100V500H1000V400H500V500H400V400H100V500H0Z"/>
  <path fill="#9abfc8" d="M500 600H700V500H800V600H900V500H1000V400H1100V200H1000V100H800V200H700V300H600V400H500Z"/>
  <path fill="#414340" d="M800 600H900V500H800ZM700 700H800V600H700ZM900 900H1000V600H900ZM700 900H800V800H700ZM800 1000H900V900H800Z"/>
  <path fill="#fe8d00" d="M400 900H500V1000H700V900H800V600H700V500H500V800H400ZM100 900H200V800H100Z"/>
  <path fill="#000000" d="M200 700H300V500H200Z"/>
</svg>
