<?xml version="1.0" encoding="UTF-8"?>
<svg xmlns="http://www.w3.org/2000/svg" viewBox="0 0 1200 1200" width="1200" height="1200">
  <title>emoji_u1f974</title>
  <path fill="#eb8f00" d="M0 1000H100V1100H200V1200H900V1100H1000V1000H1100V300H1000V200H900V100H200V200H100V300H0Z"/>
  <path fill="#ee8267" d="M100 900H300V600H100ZM800 900H1000V600H800Z"/>
  <path fill="#fde030" d="M100 1000H200V1100H900V1000H1000V800H900V700H1000V300H900V200H200V300H100V700H200V800H100Z"/>
  <path fill="#35220b" d="M300 300H400V200H300ZM700 300H800V200H700ZM200 400H300V300H200ZM800 400H900V300H800ZM600 600H700V400H600ZM300 600H400V500H300ZM200 900H300V700H200ZM800 800H900V700H800ZM400 900H600V800H400ZM700 900H800V800H700ZM300 1000H400V900H300ZM600 1000H700V900H600Z"/>
</svg>
