<?xml version="1.0" encoding="UTF-8"?>
<svg xmlns="http://www.w3.org/2000/svg" viewBox="0 0 1200 1200" width="1200" height="1200">
  <title>emoji_u1f9d1_1f3fc_200d_1f9bc</title>
  <path fill="#616161" d="M300 1100H500V900H400V1000H300ZM100 1200H300V1100H200V1000H100Z"/>
  <path fill="#d6af87" d="M500 600H900V300H800V400H600V500H500Z"/>
  <path fill="#4568ad" d="M300 900H400V1000H500V800H300Z"/>
  <path fill="#e0bb95" d="M700 300H800V400H900V100H700Z"/>
  <path fill="#ffffff" d="M800 1200H1000V1000H800Z"/>
  <path fill="#78909c" d="M500 1100H600V1200H900V1100H1000V900H700V1000H500ZM0 1200H200V1000H0Z"/>
  <path fill="#7c7c7c" d="M400 1000H600V900H700V800H900V500H500V600H600V700H500V800H400Z"/>
  <path fill="#ab872f" d="M700 200H800V400H1000V100H700Z"/>
  <path fill="#8ec4d2" d="M500 1100H800V900H500ZM0 1100H100V1000H0Z"/>
  <path fill="#424242" d="M500 900H1000V700H1100V100H900V300H800V500H500V600H800V700H600V800H500Z"/>
  <path fill="#757575" d="M800 500H900V400H1000V100H900V300H800Z"/>
  <path fill="#c62828" d="M400 1100H600V1000H700V1100H800V1000H900V1100H1000V800H500V900H400Z"/>
  <path fill="#f44336" d="M400 1000H600V900H900V1000H1000V800H500V900H400Z"/>
  <path fill="#ec6e24" d="M800 500H900V300H800ZM900 600H1000V500H900ZM800 700H900V600H800Z"/>
  <path fill="#141111" d="M700 1100H800V1000H700Z"/>
  <path fill="#212121" d="M900 600H1000V500H900Z"/>
</svg>
