<?xml version="1.0" encoding="UTF-8"?>
<svg xmlns="http://www.w3.org/2000/svg" viewBox="0 0 1200 1200" width="1200" height="1200">
  <title>emoji_u2b50</title>
  <path fill="#f4b400" d="M600 900H800V700H900V600H1000V500H700V600H600Z"/>
  <path fill="#ffff8d" d="M500 600H800V500H700V300H600V200H500Z"/>
  <path fill="#fdd835" d="M0 600H200V700H300V900H200V1100H400V1000H500V900H600V1000H700V1100H900V900H800V800H700V700H800V600H1100V500H600V100H500V300H400V500H0ZM100 1200H200V1100H100ZM900 1200H1000V1100H900Z"/>
</svg>
