<?xml version="1.0" encoding="UTF-8"?>
<svg xmlns="http://www.w3.org/2000/svg" viewBox="0 0 1200 1200" width="1200" height="1200">
  <title>emoji_u1f1f8_1f1ea</title>
  <path fill="#006aa7" d="M0 600H1100V300H0ZM0 1000H1100V700H0Z"/>
  <path fill="#8ea149" d="M200 600H500V300H300V500H200ZM200 800H300V1000H500V700H200Z"/>
  <path fill="#cfba1f" d="M300 600H600V500H500V300H400V500H300ZM300 800H400V1000H500V800H600V700H300Z"/>
  <path fill="#317d87" d="M0 800H1100V500H0Z"/>
  <path fill="#fecc00" d="M0 700H300V800H500V700H1100V600H500V500H300V600H0Z"/>
  <path fill="#a4a93b" d="M300 600H500V500H300ZM300 800H500V700H300Z"/>
  <path fill="#d8be19" d="M400 600H500V500H400ZM400 800H500V700H400Z"/>
</svg>
