<?xml version="1.0" encoding="UTF-8"?>
<svg xmlns="http://www.w3.org/2000/svg" viewBox="0 0 1200 1200" width="1200" height="1200">
  <title>emoji_u1f96b</title>
  <path fill="#b0b0b0" d="M100 400H200V500H900V400H1000V300H900V200H800V100H300V200H200V300H100ZM100 1100H200V1200H900V1100H1000V900H800V1000H300V900H100Z"/>
  <path fill="#feb502" d="M100 1000H200V1100H900V1000H1000V300H800V400H300V300H100Z"/>
  <path fill="#e0e0e0" d="M300 300H800V200H300ZM100 400H300V300H100ZM800 400H1000V300H800ZM300 500H800V400H300Z"/>
  <path fill="#719921" d="M300 900H400V1000H700V900H800V700H700V600H400V700H300Z"/>
  <path fill="#e5dda0" d="M400 900H600V700H400Z"/>
  <path fill="#ff5119" d="M500 900H700V700H500Z"/>
</svg>
