<?xml version="1.0" encoding="UTF-8"?>
<svg xmlns="http://www.w3.org/2000/svg" viewBox="0 0 1200 1200" width="1200" height="1200">
  <title>emoji_u1f1e7_1f1e7</title>
  <path fill="#ffc726" d="M300 600H800V300H300ZM300 1000H800V700H300Z"/>
  <path fill="#00267f" d="M0 1000H400V300H0ZM700 1000H1100V300H700Z"/>
  <path fill="#545b62" d="M300 1000H400V800H500V500H400V300H300ZM600 800H700V1000H800V300H700V500H600Z"/>
  <path fill="#edb923" d="M400 800H500V900H600V800H700V700H400Z"/>
  <path fill="#fbc425" d="M400 600H700V500H600V400H500V500H400Z"/>
  <path fill="#535a62" d="M300 600H400V700H500V500H300ZM600 700H700V600H800V500H600Z"/>
  <path fill="#b8901c" d="M400 700H700V500H400Z"/>
  <path fill="#e0af21" d="M400 800H700V600H400Z"/>
  <path fill="#715811" d="M400 700H500V800H600V700H700V600H400Z"/>
  <path fill="#8d6e15" d="M400 700H700V600H600V500H500V600H400Z"/>
  <path fill="#ad871a" d="M400 700H700V600H400Z"/>
  <path fill="#997717" d="M500 700H600V600H500Z"/>
</svg>
