<?xml version="1.0" encoding="UTF-8"?>
<svg xmlns="http://www.w3.org/2000/svg" viewBox="0 0 1200 1200" width="1200" height="1200">
  <title>emoji_u1f1ec_1f1f8</title>
  <path fill="#9b7696" d="M0 500H200V300H0Z"/>
  <path fill="#082165" d="M800 1000H1100V800H800Z"/>
  <path fill="#0a2464" d="M700 1000H900V900H1000V800H700Z"/>
  <path fill="#0c2764" d="M700 500H1000V300H700Z"/>
  <path fill="#0f2963" d="M600 500H900V400H800V300H600Z"/>
  <path fill="#14255e" d="M600 1000H800V900H900V800H600Z"/>
  <path fill="#434c82" d="M400 500H700V300H400Z"/>
  <path fill="#57598a" d="M200 500H500V300H200Z"/>
  <path fill="#675683" d="M0 800H200V500H0Z"/>
  <path fill="#6b6b97" d="M0 500H300V300H100V400H0Z"/>
  <path fill="#8780a3" d="M0 600H100V700H200V400H0Z"/>
  <path fill="#9b4368" d="M100 500H400V400H300V300H200V400H100Z"/>
  <path fill="#a07a99" d="M300 500H600V400H500V300H400V400H300Z"/>
  <path fill="#b34b69" d="M0 500H100V600H200V400H0Z"/>
  <path fill="#012169" d="M0 1000H700V900H800V500H900V900H1000V1000H1100V300H900V400H700V300H600V400H500V600H100V700H0Z"/>
  <path fill="#0d275d" d="M800 700H1000V400H800Z"/>
  <path fill="#0e2a6e" d="M100 700H300V500H100Z"/>
  <path fill="#102d71" d="M800 600H900V500H1000V400H800Z"/>
  <path fill="#122247" d="M800 800H1000V600H900V500H800Z"/>
  <path fill="#293d71" d="M700 600H900V400H700Z"/>
  <path fill="#383450" d="M700 600H900V400H800V500H700Z"/>
  <path fill="#384569" d="M800 900H1000V700H900V600H800Z"/>
  <path fill="#3a384b" d="M800 900H1000V800H900V700H800Z"/>
  <path fill="#4c5141" d="M700 900H900V700H700Z"/>
  <path fill="#5a3669" d="M400 600H600V400H400Z"/>
  <path fill="#675132" d="M600 800H700V900H800V800H900V700H600Z"/>
  <path fill="#c55a73" d="M300 600H600V500H500V400H300Z"/>
  <path fill="#cc91a4" d="M100 600H200V700H300V400H100Z"/>
  <path fill="#d23d56" d="M100 500H200V600H400V400H100Z"/>
  <path fill="#d65c71" d="M100 500H200V400H100ZM200 600H300V500H200Z"/>
  <path fill="#d95c71" d="M200 600H500V500H400V400H300V500H200Z"/>
  <path fill="#092565" d="M500 700H600V800H800V600H500Z"/>
  <path fill="#31407b" d="M400 700H700V600H600V500H400Z"/>
  <path fill="#31418f" d="M600 700H900V500H700V600H600Z"/>
  <path fill="#48488c" d="M700 700H900V500H800V600H700Z"/>
  <path fill="#4d3168" d="M200 700H400V500H200Z"/>
  <path fill="#5c544b" d="M600 700H700V800H900V600H600Z"/>
  <path fill="#607955" d="M700 700H800V800H900V600H700Z"/>
  <path fill="#6c8e8f" d="M700 700H800V600H700ZM800 800H900V700H800Z"/>
  <path fill="#b8a1b8" d="M200 600H300V700H500V500H200Z"/>
  <path fill="#bc536f" d="M200 600H300V500H200ZM300 700H400V600H300Z"/>
  <path fill="#c28aa0" d="M300 700H600V600H500V500H400V600H300Z"/>
  <path fill="#022269" d="M500 700H800V600H500Z"/>
  <path fill="#1b3576" d="M300 700H500V600H300Z"/>
  <path fill="#373873" d="M400 700H600V600H400Z"/>
  <path fill="#40538a" d="M400 700H500V600H400Z"/>
  <path fill="#4a5868" d="M700 700H800V600H700Z"/>
</svg>
