<?xml version="1.0" encoding="UTF-8"?>
<svg xmlns="http://www.w3.org/2000/svg" viewBox="0 0 1200 1200" width="1200" height="1200">
  <title>emoji_u1f58d</title>
  <path fill="#c62828" d="M700 300H800V400H900V500H1000V400H1100V200H1000V100H800V200H700ZM100 1100H300V1000H500V800H400V700H200V900H100Z"/>
  <path fill="#f44336" d="M500 900H600V800H700V700H800V600H900V500H1000V400H700V500H600V600H500ZM300 900H400V800H300ZM200 1000H300V900H200ZM100 1100H200V1000H100Z"/>
  <path fill="#ef5350" d="M200 800H300V900H400V1000H500V900H600V700H700V600H800V500H1000V300H900V200H700V300H600V400H500V500H400V600H300V700H200Z"/>
  <path fill="#424242" d="M700 400H800V300H700ZM800 500H900V400H800ZM300 800H400V700H300ZM400 900H500V800H400Z"/>
</svg>
