<?xml version="1.0" encoding="UTF-8"?>
<svg xmlns="http://www.w3.org/2000/svg" viewBox="0 0 1200 1200" width="1200" height="1200">
  <title>emoji_u1f93f</title>
  <path fill="#4485f6" d="M900 1100H1000V400H1100V300H900ZM400 1100H500V1000H400ZM500 1200H800V1100H500Z"/>
  <path fill="#484d4f" d="M900 800H1000V600H900ZM300 1000H400V1100H500V1000H600V900H300Z"/>
  <path fill="#7fdafb" d="M900 400H1100V100H900Z"/>
  <path fill="#1664c0" d="M900 1100H1000V1000H900ZM700 1200H900V1100H700Z"/>
  <path fill="#5c727d" d="M100 400H700V300H600V200H200V300H100Z"/>
  <path fill="#5c727f" d="M400 1100H500V1000H400Z"/>
  <path fill="#81d7ff" d="M0 700H100V800H300V700H500V800H700V700H800V400H700V300H100V400H0Z"/>
  <path fill="#1565c4" d="M100 700H200V600H600V700H700V500H600V400H200V500H100Z"/>
  <path fill="#b5dff5" d="M200 500H600V400H200ZM100 600H200V500H100ZM600 600H700V500H600Z"/>
</svg>
