<?xml version="1.0" encoding="UTF-8"?>
<svg xmlns="http://www.w3.org/2000/svg" viewBox="0 0 1200 1200" width="1200" height="1200">
  <title>emoji_u1f4e3</title>
  <path fill="#82aec0" d="M0 900H100V1000H200V900H300V800H0ZM300 1100H600V900H500V1000H400V900H300Z"/>
  <path fill="#c62828" d="M0 900H300V1000H400V900H500V1000H600V900H700V1000H1000V800H900V700H400V600H600V500H800V400H1000V200H700V300H500V400H300V500H100V600H0Z"/>
  <path fill="#b8dade" d="M700 800H800V900H900V1000H1000V900H1100V300H1000V200H900V300H800V400H700ZM0 900H100V800H200V600H0Z"/>
  <path fill="#2f7889" d="M800 500H900V900H1000V300H800ZM300 1000H400V900H300ZM500 1000H600V900H500Z"/>
  <path fill="#ffffff" d="M700 600H800V500H900V300H700Z"/>
  <path fill="#f44336" d="M100 800H800V300H700V400H500V500H300V600H100Z"/>
  <path fill="#f98030" d="M700 500H800V400H700ZM500 600H700V500H500ZM300 700H500V600H300ZM200 800H300V700H200Z"/>
</svg>
