<?xml version="1.0" encoding="UTF-8"?>
<svg xmlns="http://www.w3.org/2000/svg" viewBox="0 0 1200 1200" width="1200" height="1200">
  <title>emoji_u1f3d6</title>
  <path fill="#4ea4b0" d="M400 300H700V200H600V100H500V200H400ZM400 500H500V400H400ZM100 1000H400V800H500V700H400V500H300V700H100Z"/>
  <path fill="#fefefe" d="M200 400H400V500H500V400H600V500H800V600H900V300H800V200H200Z"/>
  <path fill="#04c1ea" d="M0 900H200V700H0ZM300 900H400V1000H1100V700H300Z"/>
  <path fill="#ee5948" d="M100 500H200V400H300V300H400V200H200V300H100ZM400 500H500V600H600V500H700V300H600V200H500V300H400ZM700 300H800V200H700ZM800 600H900V300H800Z"/>
  <path fill="#f5c876" d="M0 1200H1100V800H1000V900H500V1000H400V900H200V800H0Z"/>
  <path fill="#dcecf6" d="M0 1000H100V900H200V800H0ZM200 1000H400V1100H600V1000H1000V900H800V800H600V900H500V800H300V900H200ZM1000 900H1100V800H1000Z"/>
  <path fill="#f2a159" d="M200 1000H300V1100H400V1200H500V1100H600V1000H500V900H200ZM600 1000H800V900H600Z"/>
  <path fill="#ffffff" d="M400 400H500V300H400Z"/>
</svg>
