<?xml version="1.0" encoding="UTF-8"?>
<svg xmlns="http://www.w3.org/2000/svg" viewBox="0 0 1200 1200" width="1200" height="1200">
  <title>emoji_u1f1f0_1f1f7</title>
  <path fill="#e7e7e7" d="M100 500H400V300H100ZM700 500H1000V300H700ZM100 1000H400V800H100ZM700 1000H1000V800H700Z"/>
  <path fill="#fdfdfd" d="M200 500H500V300H300V400H200ZM600 500H900V400H800V300H600ZM200 900H300V1000H500V800H200ZM600 1000H800V900H900V800H600Z"/>
  <path fill="#ffffff" d="M0 1000H200V900H400V1000H700V900H900V1000H1100V300H900V400H700V300H400V400H200V300H0Z"/>
  <path fill="#efefef" d="M100 600H300V400H100ZM800 600H1000V400H800ZM100 900H300V700H100ZM800 900H1000V700H800Z"/>
  <path fill="#f5f5f5" d="M100 500H200V600H300V400H100ZM800 600H900V500H1000V400H800ZM100 900H300V700H200V800H100ZM800 900H1000V800H900V700H800Z"/>
  <path fill="#9f9f9f" d="M200 600H500V400H200ZM200 900H500V700H200Z"/>
  <path fill="#a6a6a6" d="M600 600H900V400H600ZM600 900H900V700H600Z"/>
  <path fill="#f4f7fb" d="M300 800H400V900H700V800H800V700H300Z"/>
  <path fill="#fdf6f6" d="M300 600H800V500H700V400H400V500H300Z"/>
  <path fill="#666666" d="M200 600H400V500H300V400H200Z"/>
  <path fill="#717171" d="M200 900H300V800H400V700H200Z"/>
  <path fill="#737373" d="M700 600H900V400H800V500H700Z"/>
  <path fill="#7f7f7f" d="M700 800H800V900H900V700H700Z"/>
  <path fill="#c6d5e9" d="M400 800H500V900H600V800H700V700H400Z"/>
  <path fill="#f4d0d3" d="M400 600H700V500H600V400H500V500H400Z"/>
  <path fill="#9a9a9a" d="M200 800H400V500H200V600H300V700H200ZM700 800H900V700H800V600H900V500H700Z"/>
  <path fill="#1f5dab" d="M300 800H800V600H300Z"/>
  <path fill="#d34752" d="M300 700H800V500H300Z"/>
  <path fill="#0047a0" d="M400 700H500V800H600V700H700V600H400Z"/>
  <path fill="#cd2e3a" d="M400 700H700V600H600V500H500V600H400Z"/>
  <path fill="#e1e6ed" d="M300 800H400V700H500V600H300Z"/>
  <path fill="#e7e9ef" d="M600 700H700V800H800V600H600Z"/>
  <path fill="#ede5e7" d="M300 700H500V600H400V500H300Z"/>
  <path fill="#f3e8e9" d="M600 700H800V500H700V600H600Z"/>
  <path fill="#28428c" d="M500 700H800V600H500Z"/>
  <path fill="#663b6d" d="M400 700H600V600H400Z"/>
  <path fill="#a5334e" d="M300 700H500V600H300Z"/>
  <path fill="#bfc5db" d="M300 700H400V600H300Z"/>
  <path fill="#e3c1ca" d="M700 700H800V600H700Z"/>
</svg>
