<?xml version="1.0" encoding="UTF-8"?>
<svg xmlns="http://www.w3.org/2000/svg" viewBox="0 0 1200 1200" width="1200" height="1200">
  <title>emoji_u1f9a1</title>
  <path fill="#e0e0e0" d="M200 1000H400V1100H600V1000H800V1100H1000V900H900V800H600V900H400V800H300V900H200Z"/>
  <path fill="#afafaf" d="M500 700H600V800H800V900H1100V500H1000V400H500Z"/>
  <path fill="#999999" d="M500 600H600V500H700V400H600V300H500ZM700 600H800V500H700ZM900 600H1000V500H900ZM600 900H900V700H700V600H600ZM1000 800H1100V600H1000Z"/>
  <path fill="#575a5b" d="M0 600H100V700H300V1000H500V1100H600V1000H700V900H800V1000H900V1100H1000V1000H1100V700H1000V800H900V700H800V800H700V600H600V200H500V100H400V200H200V300H100V400H0Z"/>
  <path fill="#dfdfdf" d="M400 200H500V100H400ZM200 300H400V200H200ZM500 300H600V200H500ZM100 400H200V300H100ZM200 500H300V400H200ZM100 600H200V500H100ZM300 700H600V600H500V500H400V600H300Z"/>
  <path fill="#171717" d="M500 900H600V800H500ZM800 1000H900V800H800ZM400 1000H500V900H400Z"/>
  <path fill="#191919" d="M200 500H300V400H200Z"/>
</svg>
