<?xml version="1.0" encoding="UTF-8"?>
<svg xmlns="http://www.w3.org/2000/svg" viewBox="0 0 1200 1200" width="1200" height="1200">
  <title>emoji_u1faf1_1f3fd</title>
  <path fill="#9a6648" d="M0 900H200V600H300V500H400V1000H700V1100H900V1000H1000V900H1100V500H1000V400H700V300H800V100H600V200H400V300H200V400H100V500H0Z"/>
  <path fill="#62392b" d="M500 400H700V300H800V200H600V300H500ZM0 900H100V1000H200V1100H900V1000H800V900H1100V800H900V700H1100V600H1000V500H600V900H300V800H200V700H100V800H0Z"/>
  <path fill="#ba8d68" d="M600 300H700V200H600ZM100 900H200V1000H800V900H700V800H900V700H700V600H1000V500H500V400H600V300H400V400H200V500H100ZM500 700V600H600V700ZM500 900V800H600V900Z"/>
</svg>
