<?xml version="1.0" encoding="UTF-8"?>
<svg xmlns="http://www.w3.org/2000/svg" viewBox="0 0 1200 1200" width="1200" height="1200">
  <title>emoji_u1f972</title>
  <path fill="#eb8f00" d="M0 1000H200V400H300V300H800V400H900V900H800V1000H300V1200H900V1100H1000V1000H1100V300H1000V200H900V100H200V200H100V300H0Z"/>
  <path fill="#29b6f6" d="M0 1100H100V1200H400V1100H600V800H500V600H400V500H100V900H0Z"/>
  <path fill="#81d4fa" d="M400 900H500V800H400ZM300 1100H400V900H300Z"/>
  <path fill="#fde030" d="M100 700H200V600H300V700H400V900H500V1100H900V1000H1000V300H900V200H200V300H100Z"/>
  <path fill="#422b0d" d="M300 600H400V400H300ZM700 600H800V400H700ZM700 900H800V800H700ZM500 1000H700V900H500Z"/>
</svg>
