<?xml version="1.0" encoding="UTF-8"?>
<svg xmlns="http://www.w3.org/2000/svg" viewBox="0 0 1200 1200" width="1200" height="1200">
  <title>emoji_u1f96c</title>
  <path fill="#b5cf17" d="M100 1200H300V1000H100Z"/>
  <path fill="#598b15" d="M300 200H400V100H300ZM100 600H400V500H500V400H700V500H800V600H900V700H800V800H700V900H500V1000H300V1200H600V1100H800V1000H900V900H1000V800H1100V400H1000V200H900V300H800V200H900V100H500V200H400V300H300V200H200V400H100Z"/>
  <path fill="#eae0a9" d="M0 900H100V1100H200V1200H400V1100H500V900H400V700H100V800H0Z"/>
  <path fill="#85bb41" d="M400 400H600V700H700V800H1000V500H900V400H800V300H700V200H500V300H400ZM100 900H200V800H300V500H200V400H100Z"/>
  <path fill="#e9e7d7" d="M200 1100H300V1000H400V1100H600V1000H800V900H900V800H1000V600H900V700H800V600H700V300H400V400H300V500H200V800H300V900H200ZM100 500H200V400H100ZM100 900H200V800H100Z"/>
  <path fill="#8fbf4c" d="M400 400H500V600H600V500H700V400H600V300H400ZM300 500H400V400H300ZM500 800H600V900H800V800H900V700H700V600H600V700H500Z"/>
  <path fill="#d4d892" d="M300 800H400V500H300ZM600 900H700V800H600ZM400 1000H600V900H400Z"/>
  <path fill="#afcb6d" d="M300 600H400V400H300ZM500 600H600V500H500ZM500 800H600V900H800V800H700V700H500Z"/>
</svg>
