<?xml version="1.0" encoding="UTF-8"?>
<svg xmlns="http://www.w3.org/2000/svg" viewBox="0 0 1200 1200" width="1200" height="1200">
  <title>emoji_u1f1e8_1f1ed</title>
  <path fill="#ff0000" d="M0 1000H1100V300H0Z"/>
  <path fill="#ff5d5d" d="M300 600H800V500H700V400H400V500H300ZM300 800H400V900H700V800H800V700H300Z"/>
  <path fill="#ffafaf" d="M400 600H700V500H600V400H500V500H400ZM400 800H500V900H600V800H700V700H400Z"/>
  <path fill="#ff2424" d="M200 800H400V500H200ZM700 800H900V500H700Z"/>
  <path fill="#ff2626" d="M200 700H300V800H500V500H300V600H200ZM600 800H800V700H900V600H800V500H600Z"/>
  <path fill="#ff9a9a" d="M300 700H400V800H700V700H800V600H700V500H400V600H300Z"/>
  <path fill="#ffefef" d="M200 700H400V600H200ZM700 700H900V600H700Z"/>
  <path fill="#ffffff" d="M300 700H500V800H600V700H800V600H600V500H500V600H300Z"/>
</svg>
