<?xml version="1.0" encoding="UTF-8"?>
<svg xmlns="http://www.w3.org/2000/svg" viewBox="0 0 1200 1200" width="1200" height="1200">
  <title>emoji_u1f426_200d_1f525</title>
  <path fill="#feb726" d="M0 1000H100V1100H200V1200H400V1000H300V900H0ZM700 1200H900V1100H1100V900H800V1000H700Z"/>
  <path fill="#8a1e0d" d="M400 500H700V300H500V400H400Z"/>
  <path fill="#fbb67d" d="M300 600H600V400H400V300H300Z"/>
  <path fill="#ffe67e" d="M100 1000H200V1100H300V1200H800V1100H900V1000H1000V900H100Z"/>
  <path fill="#e8491a" d="M400 600H800V200H700V300H600V400H500V500H400Z"/>
  <path fill="#f2511b" d="M100 1000H300V1100H400V1000H600V1100H800V1000H1000V900H900V800H700V900H400V800H200V900H100Z"/>
  <path fill="#af0c1a" d="M0 700H100V800H200V900H300V1000H800V900H900V800H1000V700H1100V300H1000V200H900V100H700V500H400V100H200V200H100V300H0Z"/>
  <path fill="#e13920" d="M100 700H200V800H400V700H500V600H400V500H300V200H200V300H100ZM600 700H700V800H900V700H1000V300H900V200H800V500H700V600H600ZM500 800H600V700H500ZM400 900H500V800H400ZM600 900H700V800H600Z"/>
  <path fill="#fe7f07" d="M400 1000H600V900H700V800H600V700H500V800H400Z"/>
</svg>
