<?xml version="1.0" encoding="UTF-8"?>
<svg xmlns="http://www.w3.org/2000/svg" viewBox="0 0 1200 1200" width="1200" height="1200">
  <title>emoji_u1f1f1_1f1ee</title>
  <path fill="#072e79" d="M100 500H400V300H100Z"/>
  <path fill="#002b7f" d="M0 700H200V500H300V700H1100V300H300V400H200V300H0Z"/>
  <path fill="#ce1126" d="M0 1000H1100V600H0Z"/>
  <path fill="#671e53" d="M0 700H1100V600H400V500H100V600H0Z"/>
  <path fill="#364b62" d="M100 600H300V400H100Z"/>
  <path fill="#3b4c5c" d="M200 600H400V400H200Z"/>
  <path fill="#4c5653" d="M100 500H200V600H300V400H100Z"/>
  <path fill="#746a33" d="M200 600H400V500H300V400H200Z"/>
  <path fill="#2b4569" d="M200 600H400V500H200Z"/>
  <path fill="#63613e" d="M200 600H300V500H200Z"/>
</svg>
