<?xml version="1.0" encoding="UTF-8"?>
<svg xmlns="http://www.w3.org/2000/svg" viewBox="0 0 1200 1200" width="1200" height="1200">
  <title>emoji_u1f52c</title>
  <path fill="#4b727b" d="M300 800H400V700H300ZM400 900H500V800H400ZM100 1200H400V1100H300V1000H400V900H100V1000H200V1100H100ZM500 1000H600V900H500Z"/>
  <path fill="#545454" d="M300 400H400V500H500V600H600V300H300ZM300 600H400V500H300Z"/>
  <path fill="#757575" d="M300 400H500V200H400V300H300ZM500 600H600V500H700V400H500Z"/>
  <path fill="#81d4fa" d="M200 800H400V700H200Z"/>
  <path fill="#616161" d="M500 300H600V400H800V200H700V100H500Z"/>
  <path fill="#94d1e0" d="M400 300H700V200H600V100H500V200H400ZM400 1200H700V1000H800V900H900V500H700V800H600V900H500V1100H400Z"/>
  <path fill="#82aec0" d="M100 1200H1100V1100H1000V500H900V400H800V300H700V200H500V400H700V600H800V800H700V900H600V1100H100Z"/>
  <path fill="#424242" d="M500 500H700V600H800V500H900V400H800V300H500ZM600 1100H700V1200H800V1100H900V1000H800V900H700V1000H600Z"/>
  <path fill="#e0e0e0" d="M400 400H500V500H600V400H700V300H600V200H400ZM700 500H800V400H700Z"/>
  <path fill="#bdbdbd" d="M700 500H800V400H700ZM700 1100H800V1000H700Z"/>
  <path fill="#f5f5f5" d="M500 300H600V200H500ZM400 400H500V300H400Z"/>
</svg>
