<?xml version="1.0" encoding="UTF-8"?>
<svg xmlns="http://www.w3.org/2000/svg" viewBox="0 0 1200 1200" width="1200" height="1200">
  <title>emoji_u1f6f5</title>
  <path fill="#4d453c" d="M0 1100H100V1200H200V1100H300V1000H200V900H300V800H0V900H100V1000H0ZM800 1100H900V1200H1000V1100H1100V1000H1000V900H1100V800H800V900H900V1000H800ZM300 1000H400V900H300ZM700 1000H800V900H700Z"/>
  <path fill="#dedfe2" d="M100 300H200V400H300V100H100Z"/>
  <path fill="#fc8f0b" d="M200 800H400V300H200Z"/>
  <path fill="#5e636f" d="M100 500H300V400H400V200H200V400H100Z"/>
  <path fill="#ff281d" d="M900 900H1100V700H1000V600H900Z"/>
  <path fill="#fc8f02" d="M0 900H300V600H100V800H0Z"/>
  <path fill="#fe8d00" d="M800 800H1000V600H1100V500H800Z"/>
  <path fill="#ffffff" d="M100 700H200V800H300V500H100Z"/>
  <path fill="#464c4f" d="M300 300H400V200H600V100H300ZM600 700H900V600H1100V500H1000V400H800V500H600Z"/>
  <path fill="#fed519" d="M200 300H400V100H200ZM100 600H200V700H300V400H100ZM500 900H800V800H1000V700H900V600H600V800H500Z"/>
  <path fill="#fcb90a" d="M200 300H400V100H300V200H200Z"/>
  <path fill="#ffa726" d="M0 900H300V700H200V800H0Z"/>
  <path fill="#5f6364" d="M200 900H300V1000H400V1100H700V1000H800V800H400V700H300V600H200Z"/>
  <path fill="#fdb700" d="M200 900H300V400H200ZM600 700H700V600H600ZM600 900H700V1000H800V900H1100V800H1000V700H700V800H600ZM300 1000H400V900H300ZM400 1100H700V1000H400Z"/>
  <path fill="#b0b0b0" d="M100 1100H200V1000H100ZM900 1100H1000V1000H900Z"/>
</svg>
