<?xml version="1.0" encoding="UTF-8"?>
<svg xmlns="http://www.w3.org/2000/svg" viewBox="0 0 1200 1200" width="1200" height="1200">
  <title>emoji_u1f9d1_1f3fb_200d_1f9b1</title>
  <path fill="#edc391" d="M100 800H200V900H300V1000H400V600H100ZM800 1000H900V900H1000V800H1100V600H800Z"/>
  <path fill="#312d2d" d="M100 800H200V700H300V900H900V700H1000V800H1100V600H1000V500H1100V300H1000V200H900V100H700V200H600V100H300V200H200V300H100V500H200V600H100Z"/>
  <path fill="#f9ddbd" d="M300 1100H400V1200H800V1100H900V600H800V800H700V600H800V500H700V400H600V500H400V600H500V800H400V600H300Z"/>
  <path fill="#444444" d="M400 1000H500V900H400ZM700 1000H800V900H700ZM500 1100H700V1000H500Z"/>
</svg>
