<?xml version="1.0" encoding="UTF-8"?>
<svg xmlns="http://www.w3.org/2000/svg" viewBox="0 0 1200 1200" width="1200" height="1200">
  <title>emoji_u1f1f3_1f1eb</title>
  <path fill="#d9ebe1" d="M400 1000H700V800H400Z"/>
  <path fill="#f7fbf9" d="M400 500H700V300H400Z"/>
  <path fill="#ffffff" d="M300 600H800V300H600V400H500V300H300ZM300 1000H500V900H600V1000H800V800H300Z"/>
  <path fill="#007934" d="M0 1000H400V300H0ZM700 1000H1100V300H700Z"/>
  <path fill="#a5d0b8" d="M300 1000H400V900H500V500H400V300H300ZM600 900H700V1000H800V300H700V500H600Z"/>
  <path fill="#60ab80" d="M400 900H700V700H400Z"/>
  <path fill="#98c9ad" d="M400 900H500V800H600V700H400Z"/>
  <path fill="#9acaaf" d="M400 600H700V500H600V400H500V500H400Z"/>
  <path fill="#b7d9c6" d="M500 800H600V900H700V700H500Z"/>
  <path fill="#248c51" d="M400 800H700V600H400Z"/>
  <path fill="#4ba170" d="M400 700H700V500H400Z"/>
  <path fill="#7bba96" d="M500 700H600V800H700V600H500Z"/>
  <path fill="#9ccbb0" d="M400 800H500V700H600V600H400Z"/>
  <path fill="#deeee5" d="M400 700H600V600H500V500H400Z"/>
  <path fill="#e0efe7" d="M500 700H700V500H600V600H500Z"/>
  <path fill="#36955f" d="M400 700H700V600H400Z"/>
  <path fill="#97c8ac" d="M600 700H700V600H600Z"/>
  <path fill="#b3d7c3" d="M400 700H500V600H400Z"/>
</svg>
