<?xml version="1.0" encoding="UTF-8"?>
<svg xmlns="http://www.w3.org/2000/svg" viewBox="0 0 1200 1200" width="1200" height="1200">
  <title>emoji_u2614</title>
  <path fill="#70d3ff" d="M200 200H300V100H200ZM600 200H700V100H600ZM1000 200H1100V100H1000ZM400 300H500V200H400ZM800 300H900V200H800ZM0 400H100V300H0ZM500 400H600V300H500ZM900 500H1000V400H900ZM800 600H900V500H800Z"/>
  <path fill="#3f7377" d="M500 1100H600V900H500ZM300 1100H400V1000H300ZM400 1200H500V1100H400Z"/>
  <path fill="#6aa5ad" d="M400 800H500V1000H600V800H700V700H400Z"/>
  <path fill="#004dae" d="M0 900H100V800H300V900H400V800H700V900H800V800H1000V900H1100V700H1000V600H100V700H0Z"/>
  <path fill="#5547f4" d="M500 600H600V700H700V800H800V700H1000V600H900V500H800V400H600V300H500ZM1000 800H1100V700H1000Z"/>
  <path fill="#937ef3" d="M100 700H300V800H400V700H500V600H600V300H500V400H300V500H200V600H100ZM0 800H100V700H0Z"/>
  <path fill="#6ca4ab" d="M400 600H700V500H600V300H500V500H400Z"/>
  <path fill="#6e62ed" d="M300 800H400V700H700V800H800V600H700V500H400V600H300Z"/>
</svg>
