<?xml version="1.0" encoding="UTF-8"?>
<svg xmlns="http://www.w3.org/2000/svg" viewBox="0 0 1200 1200" width="1200" height="1200">
  <title>emoji_u1f3dc</title>
  <path fill="#f8ab59" d="M0 1200H800V1100H1100V800H0Z"/>
  <path fill="#ffca29" d="M0 400H100V500H400V400H500V100H0Z"/>
  <path fill="#ffe4af" d="M0 800H200V700H300V800H600V700H700V600H900V700H1100V100H300V200H400V300H300V400H200V300H100V200H200V100H0Z"/>
  <path fill="#ef8848" d="M0 900H400V800H800V400H700V500H600V600H500V700H400V600H300V500H200V600H100V700H0ZM700 1200H1100V1000H900V900H800V1000H700ZM100 1100H400V1000H100Z"/>
  <path fill="#378016" d="M500 900H700V1100H900V900H1100V600H1000V500H800V400H700V700H500Z"/>
  <path fill="#c76831" d="M700 600H800V400H700ZM200 700H300V900H600V700H400V600H300V500H200ZM800 800H900V900H1100V800H1000V500H900V700H800Z"/>
  <path fill="#5f9a22" d="M500 900H700V1100H800V800H1000V600H900V700H800V500H700V800H600V700H500Z"/>
  <path fill="#8bc12d" d="M700 600H800V500H700ZM500 800H600V700H500ZM700 800H800V700H700ZM900 800H1000V700H900ZM600 900H700V800H600ZM700 1000H800V900H700Z"/>
</svg>
