<?xml version="1.0" encoding="UTF-8"?>
<svg xmlns="http://www.w3.org/2000/svg" viewBox="0 0 1200 1200" width="1200" height="1200">
  <title>emoji_u23ee</title>
  <path fill="#f77e00" d="M0 1100H100V1200H1000V1100H1100V200H1000V100H900V1000H0Z"/>
  <path fill="#ff9800" d="M0 1100H1000V800H900V700H800V600H900V500H1000V100H100V200H0Z"/>
  <path fill="#ffb43d" d="M200 300H300V200H200ZM100 500H200V300H100Z"/>
  <path fill="#fafafa" d="M100 900H200V700H300V800H400V900H600V700H700V800H800V900H1000V400H800V500H700V600H600V400H400V500H300V600H200V400H100Z"/>
</svg>
