<?xml version="1.0" encoding="UTF-8"?>
<svg xmlns="http://www.w3.org/2000/svg" viewBox="0 0 1200 1200" width="1200" height="1200">
  <title>emoji_u1f9a8</title>
  <path fill="#ffa7a6" d="M0 900H100V1000H200V700H0Z"/>
  <path fill="#dddddd" d="M0 800H100V900H200V800H300V900H900V1000H1100V300H1000V200H900V100H600V200H500V400H700V500H900V600H400V500H200V600H100V700H0Z"/>
  <path fill="#4d4d4d" d="M600 200H900V100H600ZM400 300H500V400H700V500H900V400H800V300H600V200H400ZM900 300H1000V200H900ZM900 600H1000V700H1100V300H1000V500H900ZM100 1000H300V1200H600V1100H800V1200H1100V900H1000V800H900V700H700V800H400V700H500V600H200V700H100Z"/>
  <path fill="#141414" d="M400 700H500V600H400ZM200 800H300V700H200Z"/>
</svg>
