<?xml version="1.0" encoding="UTF-8"?>
<svg xmlns="http://www.w3.org/2000/svg" viewBox="0 0 1200 1200" width="1200" height="1200">
  <title>emoji_u1f34b</title>
  <path fill="#f7932a" d="M100 1000H300V1100H800V1000H900V900H1000V800H1100V700H800V800H700V900H400V800H100Z"/>
  <path fill="#94a61d" d="M0 900H100V1000H200V900H300V800H200V300H100V400H0Z"/>
  <path fill="#757f3e" d="M0 300H100V900H300V500H400V300H200V200H100V100H0Z"/>
  <path fill="#fcc219" d="M200 900H300V1000H800V900H900V800H1100V600H1000V500H900V400H800V300H300V400H200Z"/>
  <path fill="#ffebc9" d="M400 500H600V400H400ZM300 600H400V500H300ZM600 600H700V500H600Z"/>
</svg>
