<?xml version="1.0" encoding="UTF-8"?>
<svg xmlns="http://www.w3.org/2000/svg" viewBox="0 0 1200 1200" width="1200" height="1200">
  <title>emoji_u1f415</title>
  <path fill="#865b52" d="M0 500H100V600H300V400H200V300H0ZM400 600H600V500H700V300H500V400H400Z"/>
  <path fill="#d27856" d="M100 1200H300V1100H400V1200H600V1000H700V1100H900V700H800V600H600V700H500V1000H100Z"/>
  <path fill="#ffd2b1" d="M0 900H100V1100H600V1000H900V700H800V900H600V800H700V700H800V600H600V500H500V400H400V300H300V400H200V500H100V600H0ZM1000 600H1100V500H1000ZM900 700H1000V600H900Z"/>
  <path fill="#060401" d="M200 800H300V600H200ZM400 800H500V600H400ZM300 900H400V800H300Z"/>
</svg>
