<?xml version="1.0" encoding="UTF-8"?>
<svg xmlns="http://www.w3.org/2000/svg" viewBox="0 0 1200 1200" width="1200" height="1200">
  <title>emoji_u1f3a3</title>
  <path fill="#40717b" d="M500 200H900V100H500ZM400 300H500V200H400ZM900 300H1000V200H900ZM900 800H1100V300H1000V700H900Z"/>
  <path fill="#f5a055" d="M700 1100H900V900H800V1000H700Z"/>
  <path fill="#6aa5ad" d="M800 1100H1000V800H900V900H800Z"/>
  <path fill="#e3c08c" d="M800 1100H900V1200H1100V700H900V1000H800Z"/>
  <path fill="#bbccd3" d="M400 300H500V200H400ZM200 700H500V500H400V300H300V500H200Z"/>
  <path fill="#90cfec" d="M300 1100H400V1000H500V900H600V600H500V500H400V600H300Z"/>
  <path fill="#40727b" d="M900 1000H1000V800H900ZM800 1100H900V1000H800Z"/>
  <path fill="#1966a4" d="M0 800H100V900H200V800H300V1100H400V900H500V800H400V600H300V500H200V600H100V700H0ZM400 600H500V500H400ZM200 1200H300V1100H200ZM400 1200H500V1100H400Z"/>
  <path fill="#1383bb" d="M100 900H200V1000H300V1100H400V700H300V600H100Z"/>
  <path fill="#292d26" d="M200 800H300V700H200Z"/>
</svg>
