<?xml version="1.0" encoding="UTF-8"?>
<svg xmlns="http://www.w3.org/2000/svg" viewBox="0 0 1200 1200" width="1200" height="1200">
  <title>emoji_u1f1e6_1f1f8</title>
  <path fill="#be7d93" d="M900 500H1100V300H900ZM900 1000H1100V800H900Z"/>
  <path fill="#010066" d="M600 500H900V300H600ZM600 1000H900V800H600Z"/>
  <path fill="#270358" d="M700 500H1000V300H800V400H700ZM700 900H800V1000H1000V800H700Z"/>
  <path fill="#6c2b63" d="M800 500H1100V400H1000V300H900V400H800ZM800 900H900V1000H1000V900H1100V800H800Z"/>
  <path fill="#3b0550" d="M0 800H200V500H0Z"/>
  <path fill="#cfc9c6" d="M900 700H1100V400H900Z"/>
  <path fill="#e1d8d3" d="M900 600H1000V500H1100V400H900Z"/>
  <path fill="#fefefd" d="M900 900H1100V600H900Z"/>
  <path fill="#000066" d="M0 1000H700V900H800V800H500V700H200V600H500V500H800V400H700V300H0V600H100V700H0Z"/>
  <path fill="#ffffff" d="M200 800H500V900H800V700H900V900H1100V800H1000V700H1100V600H1000V500H900V400H500V500H200Z"/>
  <path fill="#020065" d="M300 600H600V400H400V500H300ZM300 800H400V900H600V700H300Z"/>
  <path fill="#050064" d="M100 800H300V500H100Z"/>
  <path fill="#2f0455" d="M400 600H600V500H700V400H500V500H400ZM400 800H500V900H700V800H600V700H400Z"/>
  <path fill="#783769" d="M600 500H800V400H600ZM500 600H600V500H500ZM500 800H600V700H500ZM600 900H800V700H700V800H600Z"/>
  <path fill="#55321b" d="M800 700H1000V400H800Z"/>
  <path fill="#826e5c" d="M800 800H1000V600H900V500H800Z"/>
  <path fill="#b64158" d="M100 700H200V800H300V500H200V600H100Z"/>
  <path fill="#bea08f" d="M800 600H900V500H1000V400H800Z"/>
  <path fill="#c88799" d="M700 900H900V700H700Z"/>
  <path fill="#c8889a" d="M700 500H800V600H900V400H700Z"/>
  <path fill="#d1a58a" d="M700 800H800V900H1000V700H700Z"/>
  <path fill="#dccba2" d="M800 800H900V900H1000V700H900V600H800Z"/>
  <path fill="#e2d9c4" d="M800 800H900V700H800ZM900 900H1000V800H900Z"/>
  <path fill="#edcdcf" d="M800 600H900V400H800Z"/>
  <path fill="#370754" d="M200 800H400V700H300V600H400V500H200Z"/>
  <path fill="#824170" d="M300 600H500V500H300ZM200 700H300V600H200ZM300 800H500V700H300Z"/>
  <path fill="#d192a1" d="M400 600H600V500H400ZM400 800H600V700H400Z"/>
  <path fill="#f6e0e2" d="M500 600H600V500H500ZM500 800H600V700H500Z"/>
  <path fill="#7f6656" d="M700 700H900V500H800V600H700Z"/>
  <path fill="#cdc5b7" d="M700 800H900V600H700Z"/>
  <path fill="#cfba86" d="M700 800H900V700H800V600H700Z"/>
  <path fill="#f1ebdf" d="M700 800H800V600H700Z"/>
  <path fill="#f3d2d6" d="M200 700H300V600H200Z"/>
  <path fill="#fcfaf4" d="M700 700H800V600H700Z"/>
</svg>
