<?xml version="1.0" encoding="UTF-8"?>
<svg xmlns="http://www.w3.org/2000/svg" viewBox="0 0 1200 1200" width="1200" height="1200">
  <title>emoji_u1f9f9</title>
  <path fill="#a65f3e" d="M500 700H600V800H700V900H900V600H1000V400H1100V100H900V400H800V500H600V600H500Z"/>
  <path fill="#f9c248" d="M700 600H800V500H700ZM800 700H900V600H800ZM600 1200H800V1100H900V800H800V700H600Z"/>
  <path fill="#e2a610" d="M100 1000H200V1100H400V1200H800V1100H700V1000H800V900H700V800H600V700H400V800H200V900H100ZM800 1100H900V1000H800Z"/>
  <path fill="#ffe082" d="M700 600H800V500H700ZM400 1000H600V900H700V800H800V700H700V600H500V700H400V800H500V900H400ZM300 900H400V800H300ZM700 1000H800V900H700ZM600 1100H700V1000H600Z"/>
  <path fill="#f44336" d="M500 800H600V700H500ZM600 900H700V800H600ZM700 1000H800V900H700ZM800 1100H900V1000H800Z"/>
</svg>
