<?xml version="1.0" encoding="UTF-8"?>
<svg xmlns="http://www.w3.org/2000/svg" viewBox="0 0 1200 1200" width="1200" height="1200">
  <title>emoji_u1f429</title>
  <path fill="#aeaeae" d="M800 400H900V600H1000V400H1100V300H1000V200H900V300H800Z"/>
  <path fill="#878789" d="M300 1200H400V1000H300ZM700 1200H800V1000H700Z"/>
  <path fill="#494949" d="M100 400H200V300H100ZM0 500H100V400H0ZM100 600H200V500H100Z"/>
  <path fill="#f37eaa" d="M100 600H200V500H100ZM0 700H100V600H0ZM100 800H200V700H100Z"/>
  <path fill="#dfdfdf" d="M200 400H700V200H600V100H300V200H200ZM100 900H200V1000H300V1100H400V1000H700V1100H800V1000H900V800H1000V500H900V600H700V500H600V600H200V700H100Z"/>
  <path fill="#cdcdcd" d="M300 200H600V100H300ZM100 400H200V500H700V200H600V300H300V200H200V300H100Z"/>
  <path fill="#828282" d="M100 400H200V500H300V600H700V300H600V400H300V300H100Z"/>
  <path fill="#dcdcdc" d="M900 400H1000V300H900ZM300 800H400V700H500V800H600V700H700V400H600V500H400V400H300Z"/>
  <path fill="#a3a3a3" d="M100 400H200V300H100ZM100 600H200V700H300V800H400V400H200V500H100Z"/>
  <path fill="#ffffff" d="M300 800H400V700H300ZM200 900H300V800H200ZM300 1000H400V900H300Z"/>
  <path fill="#d0d0d0" d="M500 700H600V500H500Z"/>
  <path fill="#060405" d="M200 500H300V400H200Z"/>
</svg>
