<?xml version="1.0" encoding="UTF-8"?>
<svg xmlns="http://www.w3.org/2000/svg" viewBox="0 0 1200 1200" width="1200" height="1200">
  <title>emoji_u1f5a8</title>
  <path fill="#424242" d="M100 500H400V200H200V400H100ZM700 500H1000V400H900V200H700Z"/>
  <path fill="#616161" d="M200 300H300V400H400V100H300V200H200ZM700 400H800V300H900V200H800V100H700ZM100 900H200V1200H900V900H1000V700H700V1000H400V700H100Z"/>
  <path fill="#cfd8dc" d="M0 700H400V300H300V400H0ZM700 700H1100V400H800V300H700Z"/>
  <path fill="#ffffff" d="M300 400H800V100H300ZM300 1100H800V800H300Z"/>
  <path fill="#90a4ae" d="M0 900H200V800H900V900H1100V600H800V300H300V600H0Z"/>
  <path fill="#b6b6b6" d="M400 1100H600V1000H400Z"/>
  <path fill="#99d45b" d="M800 800H1000V700H800Z"/>
  <path fill="#bdbdbd" d="M300 400H800V300H300ZM200 800H300V900H800V800H900V700H200Z"/>
  <path fill="#212121" d="M200 800H400V900H500V800H600V900H700V800H900V700H600V600H500V700H200Z"/>
  <path fill="#757575" d="M400 900H500V800H400ZM600 900H700V800H600Z"/>
  <path fill="#607d8b" d="M300 600H500V700H600V600H800V500H300Z"/>
</svg>
