<?xml version="1.0" encoding="UTF-8"?>
<svg xmlns="http://www.w3.org/2000/svg" viewBox="0 0 1200 1200" width="1200" height="1200">
  <title>emoji_u26ce</title>
  <path fill="#0097a7" d="M300 1100H400V1200H700V1100H900V1000H1000V800H1100V500H1000V300H900V200H800V600H900V700H800V900H600V1000H300Z"/>
  <path fill="#4dd0e1" d="M0 700H300V600H400V500H500V100H400V200H200V300H100V500H0Z"/>
  <path fill="#00bcd4" d="M0 800H100V1000H200V1100H700V1000H900V800H1000V500H900V200H700V100H400V400H300V500H200V600H100V500H0ZM200 300H300V200H200ZM100 400H200V300H100Z"/>
  <path fill="#fafafa" d="M200 700H300V900H400V600H500V500H400V400H300V600H200ZM600 800H700V900H800V700H900V600H800V400H700V700H600ZM500 700H600V600H500ZM400 1000H700V900H400Z"/>
</svg>
