<?xml version="1.0" encoding="UTF-8"?>
<svg xmlns="http://www.w3.org/2000/svg" viewBox="0 0 1200 1200" width="1200" height="1200">
  <title>emoji_u1f501</title>
  <path fill="#f77e00" d="M0 1100H100V1200H1000V1100H1100V200H1000V100H900V1000H0Z"/>
  <path fill="#ff9800" d="M0 1100H1000V100H100V200H0Z"/>
  <path fill="#ffb43e" d="M200 300H300V200H200ZM100 400H200V300H100Z"/>
  <path fill="#fafafa" d="M300 500H700V700H800V600H900V500H1000V400H900V300H800V200H700V400H300ZM200 600H300V500H200ZM200 900H300V1000H400V1100H500V900H900V800H500V600H400V700H300V800H200ZM900 800H1000V700H900Z"/>
</svg>
