<?xml version="1.0" encoding="UTF-8"?>
<svg xmlns="http://www.w3.org/2000/svg" viewBox="0 0 1200 1200" width="1200" height="1200">
  <title>emoji_u1f1f9_1f1f9</title>
  <path fill="#d46d7b" d="M0 500H200V300H0ZM900 1000H1100V800H900Z"/>
  <path fill="#050505" d="M100 500H400V300H100ZM700 1000H1000V800H700Z"/>
  <path fill="#313030" d="M0 500H300V400H200V300H100V400H0ZM800 900H900V1000H1000V900H1100V800H800Z"/>
  <path fill="#9b787d" d="M200 500H500V300H300V400H200ZM600 1000H800V900H900V800H600Z"/>
  <path fill="#dd3048" d="M300 500H600V300H400V400H300ZM500 1000H700V900H800V800H500Z"/>
  <path fill="#da1a35" d="M400 500H500V600H600V700H700V800H800V900H1100V300H500V400H400ZM0 1000H600V900H700V800H600V700H500V600H400V500H300V400H0Z"/>
  <path fill="#010101" d="M200 600H500V400H200ZM600 900H900V700H600Z"/>
  <path fill="#3f3c3d" d="M100 500H200V600H400V500H300V400H100ZM700 800H800V900H1000V800H900V700H700Z"/>
  <path fill="#896f72" d="M300 600H600V400H400V500H300ZM500 900H700V800H800V700H500Z"/>
  <path fill="#da6374" d="M100 500H200V400H100ZM200 600H300V500H200ZM800 800H900V700H800ZM900 900H1000V800H900Z"/>
  <path fill="#df3950" d="M400 600H700V500H600V400H500V500H400ZM400 800H500V900H600V800H700V700H400Z"/>
  <path fill="#4f4849" d="M200 600H300V700H500V500H200ZM600 800H900V700H800V600H600Z"/>
  <path fill="#766466" d="M400 800H700V500H400Z"/>
  <path fill="#dd596c" d="M200 600H300V500H200ZM300 700H400V600H300ZM700 700H800V600H700ZM800 800H900V700H800Z"/>
  <path fill="#e04359" d="M300 700H400V800H500V700H800V600H700V500H600V600H300Z"/>
  <path fill="#000000" d="M300 700H600V800H700V700H800V600H500V500H400V600H300Z"/>
  <path fill="#625657" d="M300 700H500V600H300ZM600 700H800V600H600Z"/>
  <path fill="#e04f63" d="M300 700H400V600H300ZM700 700H800V600H700Z"/>
</svg>
