<?xml version="1.0" encoding="UTF-8"?>
<svg xmlns="http://www.w3.org/2000/svg" viewBox="0 0 1200 1200" width="1200" height="1200">
  <title>emoji_u1f1f2_1f1f4</title>
  <path fill="#00785e" d="M0 1000H1100V300H0Z"/>
  <path fill="#097b5b" d="M300 600H800V500H700V400H400V500H300Z"/>
  <path fill="#1e8871" d="M300 800H400V900H700V800H800V700H300Z"/>
  <path fill="#2c8752" d="M400 600H700V500H600V400H500V500H400Z"/>
  <path fill="#4a9f8d" d="M400 800H500V900H600V800H700V700H400Z"/>
  <path fill="#107e59" d="M300 700H500V500H300ZM600 700H800V500H600Z"/>
  <path fill="#14826a" d="M300 800H500V600H300ZM600 800H800V600H600Z"/>
  <path fill="#1f8562" d="M300 700H800V600H700V500H400V600H300Z"/>
  <path fill="#7ebbae" d="M400 700H700V600H600V500H500V600H400Z"/>
  <path fill="#82bdb0" d="M400 800H700V600H400Z"/>
  <path fill="#95c7bc" d="M300 700H400V800H500V700H600V600H300Z"/>
  <path fill="#96c7bc" d="M500 700H600V800H700V700H800V600H500Z"/>
  <path fill="#1d8770" d="M300 700H500V600H300ZM600 700H800V600H600Z"/>
  <path fill="#a1cdc4" d="M400 700H700V600H400Z"/>
  <path fill="#f0f7f6" d="M500 700H600V600H500Z"/>
</svg>
