<?xml version="1.0" encoding="UTF-8"?>
<svg xmlns="http://www.w3.org/2000/svg" viewBox="0 0 1200 1200" width="1200" height="1200">
  <title>emoji_u1f306</title>
  <path fill="#3657ae" d="M0 300H200V100H0ZM500 300H1100V100H500Z"/>
  <path fill="#a463b0" d="M900 1200H1100V700H900ZM0 1200H300V900H0Z"/>
  <path fill="#3e58ae" d="M0 400H200V100H100V200H0ZM500 400H1100V200H600V100H500Z"/>
  <path fill="#43286b" d="M0 1200H400V500H0V1000H200V1100H0ZM500 1200H1100V1100H1000V1000H1100V900H1000V800H1100V500H700V700H500Z"/>
  <path fill="#525aaf" d="M0 500H200V200H100V300H0ZM500 500H1100V300H600V200H500Z"/>
  <path fill="#fde064" d="M100 600H300V700H400V500H600V200H100ZM0 900H200V800H0Z"/>
  <path fill="#5b5baf" d="M0 600H200V300H100V400H0ZM500 600H1100V400H600V300H500Z"/>
  <path fill="#745eaf" d="M0 600H200V400H100V500H0ZM500 700H800V600H1100V500H600V400H500Z"/>
  <path fill="#a47fcd" d="M100 600H200V500H300V1200H600V800H700V600H600V100H100ZM200 400V300H300V400ZM400 400V300H500V400Z"/>
  <path fill="#a363b0" d="M400 600H500V500H400ZM400 800H500V700H400ZM400 1000H500V900H400Z"/>
  <path fill="#815faf" d="M600 800H800V600H600Z"/>
  <path fill="#9b62b0" d="M600 800H800V700H600Z"/>
</svg>
