<?xml version="1.0" encoding="UTF-8"?>
<svg xmlns="http://www.w3.org/2000/svg" viewBox="0 0 1200 1200" width="1200" height="1200">
  <title>emoji_u1f47c_1f3fc</title>
  <path fill="#40bfe6" d="M100 200H1100V100H100Z"/>
  <path fill="#e0e0e0" d="M100 1100H200V1200H400V1000H300V900H200V1000H100ZM800 1200H1000V1100H1100V1000H1000V900H900V1000H800Z"/>
  <path fill="#c48e6a" d="M100 900H200V1000H300V600H200V700H100ZM900 1000H1000V900H1100V700H1000V600H900Z"/>
  <path fill="#ab872f" d="M400 700H800V600H900V300H400Z"/>
  <path fill="#e0bb95" d="M200 1100H300V1200H900V1100H1000V400H900V300H800V500H700V600H500V500H700V400H500V300H300V400H200Z"/>
  <path fill="#6d4c41" d="M400 1000H500V900H400ZM700 1000H800V900H700ZM500 1100H700V1000H500Z"/>
  <path fill="#5d4037" d="M400 800H500V700H400ZM700 800H800V700H700Z"/>
</svg>
