<?xml version="1.0" encoding="UTF-8"?>
<svg xmlns="http://www.w3.org/2000/svg" viewBox="0 0 1200 1200" width="1200" height="1200">
  <title>emoji_u1f5dd</title>
  <path fill="#b9e4ea" d="M800 500H1000V600H1100V400H1000V300H800ZM0 700H400V500H0Z"/>
  <path fill="#2f7889" d="M700 600H800V500H1000V400H900V300H800V400H700ZM100 1000H200V900H300V1000H400V700H500V800H600V400H500V500H300V700H100ZM1000 600H1100V500H1000ZM700 900H800V1000H1000V900H1100V700H1000V800H800V700H700Z"/>
  <path fill="#90a4af" d="M800 400H900V300H800ZM500 800H600V700H700V800H800V400H700V500H600V400H500ZM0 700H100V900H200V800H300V900H400V500H300V600H100V500H0ZM1000 800H1100V500H1000ZM800 900H1000V800H800Z"/>
</svg>
