<?xml version="1.0" encoding="UTF-8"?>
<svg xmlns="http://www.w3.org/2000/svg" viewBox="0 0 1200 1200" width="1200" height="1200">
  <title>emoji_u1f1ec_1f1f7</title>
  <path fill="#4282c1" d="M400 500H1100V300H400ZM0 1000H1100V800H0Z"/>
  <path fill="#0d5eaf" d="M0 500H500V300H0Z"/>
  <path fill="#3e7fbf" d="M300 500H600V400H500V300H400V400H300Z"/>
  <path fill="#689acd" d="M0 500H300V300H100V400H0Z"/>
  <path fill="#78a5d2" d="M0 600H500V400H300V300H200V400H0Z"/>
  <path fill="#79a6d3" d="M0 800H300V300H200V400H100V500H0Z"/>
  <path fill="#94b8dc" d="M400 600H1100V400H400ZM0 900H1100V700H0Z"/>
  <path fill="#5f94ca" d="M0 700H100V600H200V700H500V400H400V500H300V400H100V500H0Z"/>
  <path fill="#adc9e4" d="M0 800H1100V500H500V400H400V600H200V700H100V600H0Z"/>
  <path fill="#2971b8" d="M100 600H200V700H500V500H400V600H300V500H100ZM0 700H100V600H0Z"/>
  <path fill="#4583c1" d="M400 700H1100V600H500V500H400Z"/>
  <path fill="#92b6db" d="M400 600H500V400H400Z"/>
  <path fill="#9bbcde" d="M100 600H200V700H300V400H100Z"/>
  <path fill="#abc7e3" d="M100 500H200V600H300V400H100Z"/>
  <path fill="#b4cde6" d="M200 600H300V400H200Z"/>
  <path fill="#88b0d8" d="M200 700H300V500H200Z"/>
  <path fill="#a6c4e2" d="M200 600H300V500H200Z"/>
  <path fill="#a7c4e2" d="M400 700H500V500H400Z"/>
  <path fill="#4382c1" d="M400 700H500V600H400Z"/>
</svg>
