<?xml version="1.0" encoding="UTF-8"?>
<svg xmlns="http://www.w3.org/2000/svg" viewBox="0 0 1200 1200" width="1200" height="1200">
  <title>emoji_u1f423</title>
  <path fill="#ff8e01" d="M0 800H100V900H300V800H400V500H100V600H0ZM700 800H800V900H1000V800H1100V600H1000V500H700Z"/>
  <path fill="#ffb903" d="M0 700H200V800H900V700H1100V600H1000V500H900V300H800V200H700V100H400V200H300V300H200V500H100V600H0ZM200 700V600H300V700ZM800 700V600H900V700Z"/>
  <path fill="#dedede" d="M100 1000H200V1100H300V1200H800V1100H900V1000H1000V800H900V700H700V600H600V700H500V600H400V700H200V800H100Z"/>
  <path fill="#fbfbfb" d="M200 1000H300V900H200ZM300 1100H400V1000H300Z"/>
  <path fill="#2e3030" d="M400 400H500V300H400ZM600 400H700V300H600ZM500 500H600V400H500Z"/>
  <path fill="#ff5f02" d="M500 500H600V400H500Z"/>
</svg>
