<?xml version="1.0" encoding="UTF-8"?>
<svg xmlns="http://www.w3.org/2000/svg" viewBox="0 0 1200 1200" width="1200" height="1200">
  <title>emoji_u1f403</title>
  <path fill="#b79277" d="M300 200H500V100H300ZM400 500H700V300H600V200H500V300H400Z"/>
  <path fill="#dfdfdf" d="M0 700H100V800H300V900H400V600H300V500H0Z"/>
  <path fill="#858585" d="M300 1200H400V1100H500V1200H800V1100H900V1200H1100V1000H1000V700H900V500H800V300H600V400H500V300H400V600H500V700H300Z"/>
  <path fill="#333333" d="M200 700H500V400H200ZM100 800H200V700H100Z"/>
  <path fill="#adadb7" d="M0 600H200V700H300V800H400V1000H500V1200H600V1100H700V900H800V800H900V1100H1000V1200H1100V500H800V600H700V700H600V500H500V300H200V400H100V500H0ZM300 600V500H400V600ZM600 500H700V400H600Z"/>
</svg>
