<?xml version="1.0" encoding="UTF-8"?>
<svg xmlns="http://www.w3.org/2000/svg" viewBox="0 0 1200 1200" width="1200" height="1200">
  <title>emoji_u1f624</title>
  <path fill="#eb8f00" d="M0 1000H100V1200H1000V1000H1100V300H1000V200H900V100H200V200H100V300H0Z"/>
  <path fill="#92cbeb" d="M0 1200H200V1100H400V1000H500V700H100V900H0ZM600 1000H700V1100H900V1200H1100V900H1000V700H600Z"/>
  <path fill="#ffffff" d="M200 900H300V800H200ZM800 900H900V800H800ZM100 1100H200V900H100ZM900 1100H1000V900H900Z"/>
  <path fill="#fde030" d="M100 800H200V900H300V1100H800V900H900V800H1000V300H900V200H200V300H100ZM300 900V800H400V900ZM700 900V800H800V900Z"/>
  <path fill="#422b0d" d="M200 400H300V300H200ZM800 400H900V300H800ZM300 500H400V400H300ZM700 500H800V400H700ZM200 700H400V600H200ZM700 700H900V600H700ZM500 900H600V800H500ZM400 1000H500V900H400ZM600 1000H700V900H600Z"/>
</svg>
