<?xml version="1.0" encoding="UTF-8"?>
<svg xmlns="http://www.w3.org/2000/svg" viewBox="0 0 1200 1200" width="1200" height="1200">
  <title>emoji_u1f346</title>
  <path fill="#6f9823" d="M0 300H100V100H0ZM0 600H500V300H100V400H0Z"/>
  <path fill="#8e2f97" d="M100 700H200V900H300V1000H400V1100H600V1200H1000V1100H1100V1000H800V900H600V800H500V700H400V600H100Z"/>
  <path fill="#bdcf46" d="M0 600H100V700H500V600H600V500H500V400H400V500H300V400H200V500H0Z"/>
  <path fill="#a057a1" d="M200 700H300V800H400V900H500V1000H700V1100H1100V800H1000V700H800V600H700V500H400V600H300V500H200Z"/>
</svg>
