<?xml version="1.0" encoding="UTF-8"?>
<svg xmlns="http://www.w3.org/2000/svg" viewBox="0 0 1200 1200" width="1200" height="1200">
  <title>emoji_u1f385_1f3fe</title>
  <path fill="#e53a31" d="M100 400H700V500H800V700H1100V600H1000V400H900V300H800V200H700V100H300V200H200V300H100Z"/>
  <path fill="#f3f3f3" d="M100 1100H200V1200H700V1100H800V900H200V1000H100Z"/>
  <path fill="#ebebeb" d="M0 1000H100V1100H300V1000H400V1100H500V1000H700V1100H800V1000H900V800H1000V600H900V400H600V700H700V800H200V700H300V400H0Z"/>
  <path fill="#f5f5f5" d="M0 500H200V600H700V500H900V400H800V300H100V400H0ZM900 800H1000V700H1100V600H900Z"/>
  <path fill="#473530" d="M200 900H300V1000H400V900H500V1000H600V900H700V800H200ZM400 1100H500V1000H400Z"/>
  <path fill="#a56c43" d="M100 1000H200V900H700V1000H800V600H700V500H200V600H100Z"/>
  <path fill="#42312c" d="M300 800H400V600H300ZM500 800H600V600H500Z"/>
</svg>
