<?xml version="1.0" encoding="UTF-8"?>
<svg xmlns="http://www.w3.org/2000/svg" viewBox="0 0 1200 1200" width="1200" height="1200">
  <title>emoji_u1f60d</title>
  <path fill="#eb8f00" d="M0 1000H100V1100H200V1200H900V1100H1000V1000H1100V300H1000V200H900V100H200V200H100V300H0Z"/>
  <path fill="#fde030" d="M100 1000H200V1100H900V1000H1000V300H900V200H200V300H100Z"/>
  <path fill="#ff847a" d="M200 600H400V500H300V400H200ZM600 600H800V500H700V400H600Z"/>
  <path fill="#422b0d" d="M400 900H500V800H400ZM600 900H700V800H600ZM500 1000H600V900H500Z"/>
  <path fill="#c62828" d="M200 600H300V700H400V600H500V400H400V500H200ZM600 600H700V700H800V600H900V400H800V500H600Z"/>
  <path fill="#f44336" d="M200 600H400V500H200ZM600 600H800V500H600Z"/>
</svg>
