<?xml version="1.0" encoding="UTF-8"?>
<svg xmlns="http://www.w3.org/2000/svg" viewBox="0 0 1200 1200" width="1200" height="1200">
  <title>emoji_u1f1ec_1f1fc</title>
  <path fill="#ce1126" d="M0 1000H400V300H0Z"/>
  <path fill="#009e49" d="M300 1000H1100V600H300Z"/>
  <path fill="#fcd116" d="M300 700H1100V300H300Z"/>
  <path fill="#8a4032" d="M200 800H300V1000H400V700H500V600H200Z"/>
  <path fill="#dd5021" d="M200 700H500V600H400V300H300V600H200Z"/>
  <path fill="#7eb830" d="M300 700H1100V600H300Z"/>
  <path fill="#4e060e" d="M100 800H300V600H200V500H100Z"/>
  <path fill="#b70f22" d="M100 600H200V500H100ZM200 700H300V600H200Z"/>
  <path fill="#bd1023" d="M100 800H300V600H200V700H100Z"/>
  <path fill="#910c1b" d="M200 800H300V700H400V600H200Z"/>
  <path fill="#bf1023" d="M300 700H400V600H300ZM200 800H300V700H200Z"/>
  <path fill="#b4482a" d="M300 700H400V600H300Z"/>
</svg>
