<?xml version="1.0" encoding="UTF-8"?>
<svg xmlns="http://www.w3.org/2000/svg" viewBox="0 0 1200 1200" width="1200" height="1200">
  <title>emoji_u26bd</title>
  <path fill="#c8c8c8" d="M300 300H800V600H1100V500H1000V300H900V200H700V100H400V200H300ZM0 800H100V900H200V400H100V500H0ZM600 1200H700V1100H900V900H600Z"/>
  <path fill="#474c4f" d="M100 1000H200V1100H400V1200H700V1000H800V1100H900V1000H1000V800H1100V500H900V200H200V300H100Z"/>
  <path fill="#ffffff" d="M400 300H500V400H700V200H400ZM800 500H900V300H800ZM300 700H400V600H500V400H300ZM100 800H200V500H100ZM800 700H900V800H1000V500H900V600H800ZM400 900H500V1000H700V900H800V700H600V600H500V700H400ZM400 1100H500V1000H400Z"/>
</svg>
