<?xml version="1.0" encoding="UTF-8"?>
<svg xmlns="http://www.w3.org/2000/svg" viewBox="0 0 1200 1200" width="1200" height="1200">
  <title>emoji_u1f3eb</title>
  <path fill="#7db240" d="M0 1200H300V1000H200V900H0ZM700 1200H1100V900H800V1000H700Z"/>
  <path fill="#a62714" d="M0 700H300V500H400V400H600V500H700V700H1100V500H900V400H800V300H700V200H600V100H400V200H300V300H200V400H100V500H0Z"/>
  <path fill="#a7d0d7" d="M0 1000H100V1100H200V600H0ZM800 1100H900V1000H1100V600H800ZM300 1200H700V800H300Z"/>
  <path fill="#f5b03f" d="M0 900H100V1100H200V1200H300V500H200V600H0V700H100V800H0ZM700 1200H800V1100H900V900H1000V800H900V700H1100V600H800V500H700Z"/>
  <path fill="#f8c778" d="M200 1200H400V900H600V1200H800V500H600V600H400V500H200ZM0 900H100V800H0ZM900 900H1100V800H900Z"/>
  <path fill="#cf6150" d="M300 1200H400V900H600V1000H500V1100H600V1200H700V800H600V700H400V800H300Z"/>
  <path fill="#3e737c" d="M200 600H300V700H400V800H600V700H700V600H800V400H700V300H600V200H400V300H300V400H200ZM500 1100H600V1000H500Z"/>
  <path fill="#ffffff" d="M300 600H400V700H600V600H700V400H600V300H400V400H300Z"/>
  <path fill="#2f2f2f" d="M400 600H600V500H500V400H400Z"/>
</svg>
