<?xml version="1.0" encoding="UTF-8"?>
<svg xmlns="http://www.w3.org/2000/svg" viewBox="0 0 1200 1200" width="1200" height="1200">
  <title>emoji_u1f1e6_1f1fd</title>
  <path fill="#0053a5" d="M0 600H400V300H0ZM500 600H1100V300H500ZM0 1000H400V700H0ZM500 1000H1100V700H500Z"/>
  <path fill="#809052" d="M400 600H700V500H600V300H400ZM400 1000H600V800H700V700H400Z"/>
  <path fill="#9e9f3f" d="M200 600H500V300H300V500H200ZM200 800H300V1000H500V700H200Z"/>
  <path fill="#d92d2c" d="M300 800H400V1000H500V800H600V500H500V300H400V500H300Z"/>
  <path fill="#86944e" d="M0 800H400V500H0ZM500 800H1100V500H500Z"/>
  <path fill="#da332a" d="M0 700H300V800H400V700H500V800H600V700H1100V600H600V500H500V600H400V500H300V600H0Z"/>
  <path fill="#c3b127" d="M500 600H600V500H500ZM400 700H500V600H400ZM500 800H600V700H500Z"/>
  <path fill="#d1b81e" d="M300 600H400V500H300ZM400 700H500V600H400ZM300 800H400V700H300Z"/>
  <path fill="#d31533" d="M400 700H500V600H400Z"/>
</svg>
