<?xml version="1.0" encoding="UTF-8"?>
<svg xmlns="http://www.w3.org/2000/svg" viewBox="0 0 1200 1200" width="1200" height="1200">
  <title>emoji_u1f9c8</title>
  <path fill="#6ca4ae" d="M0 900H100V1000H200V1100H300V1200H600V1100H700V1000H800V900H900V800H1000V700H1100V400H1000V300H900V400H800V600H700V700H600V800H400V700H300V500H200V600H100V700H0Z"/>
  <path fill="#a8cfd7" d="M500 300H600V400H700V500H800V600H900V500H1000V300H900V200H800V100H600V200H500ZM200 800H300V700H200ZM100 900H200V800H100ZM300 900H400V800H300ZM200 1000H300V900H200ZM400 1000H500V900H400ZM300 1100H400V1000H300Z"/>
  <path fill="#ffe265" d="M200 700H300V800H700V700H800V600H900V400H800V300H700V200H500V300H400V400H300V500H200Z"/>
  <path fill="#ffebc9" d="M200 800H300V900H400V1000H600V700H400V600H300V500H200Z"/>
  <path fill="#feb502" d="M500 1000H600V900H700V800H800V700H900V400H800V500H700V600H600V700H500Z"/>
</svg>
