<?xml version="1.0" encoding="UTF-8"?>
<svg xmlns="http://www.w3.org/2000/svg" viewBox="0 0 1200 1200" width="1200" height="1200">
  <title>emoji_u1f468_1f3fd_200d_1f3a4</title>
  <path fill="#546e7a" d="M0 500H200V200H300V100H100V300H0Z"/>
  <path fill="#424242" d="M100 1200H300V900H100Z"/>
  <path fill="#757575" d="M0 800H100V1000H300V800H400V700H300V600H100V700H0Z"/>
  <path fill="#81aec0" d="M0 800H200V700H0Z"/>
  <path fill="#05c19d" d="M400 400H1100V200H1000V100H500V200H400Z"/>
  <path fill="#93d1e0" d="M100 800H400V900H500V600H400V700H100ZM100 1000H300V900H100Z"/>
  <path fill="#048196" d="M700 200H800V100H700ZM400 700H600V400H900V700H1100V300H1000V200H800V300H700V200H500V300H400Z"/>
  <path fill="#1f82a3" d="M400 1000H600V900H700V600H600V500H500V600H400ZM800 900H900V1000H1100V600H1000V500H900V600H800Z"/>
  <path fill="#4eb0d3" d="M400 1200H1100V900H1000V800H900V700H800V1000H700V700H600V800H500V900H400Z"/>
  <path fill="#2a898b" d="M600 1100H700V1200H800V1100H900V700H600ZM400 1200H500V900H400ZM1000 1200H1100V900H1000Z"/>
  <path fill="#184aad" d="M400 400H500V500H1000V400H1100V300H400Z"/>
  <path fill="#ffca28" d="M500 700H600V800H900V700H1000V400H500Z"/>
  <path fill="#49352e" d="M600 600H700V400H600ZM800 600H900V400H800Z"/>
  <path fill="#99674f" d="M600 800H700V900H800V800H900V700H600Z"/>
</svg>
