<?xml version="1.0" encoding="UTF-8"?>
<svg xmlns="http://www.w3.org/2000/svg" viewBox="0 0 1200 1200" width="1200" height="1200">
  <title>emoji_u1faa6</title>
  <path fill="#aeb2b4" d="M0 1200H1100V1100H1000V1000H100V1100H0Z"/>
  <path fill="#e0e0e0" d="M200 500H400V400H500V300H600V400H700V500H900V300H800V200H700V100H400V200H300V300H200ZM100 1100H1000V1000H900V900H200V1000H100Z"/>
  <path fill="#abafb1" d="M200 1000H900V400H800V300H700V200H400V300H300V400H200Z"/>
  <path fill="#979797" d="M400 600H700V300H400ZM300 800H800V700H300ZM400 1000H700V900H400Z"/>
</svg>
