<?xml version="1.0" encoding="UTF-8"?>
<svg xmlns="http://www.w3.org/2000/svg" viewBox="0 0 1200 1200" width="1200" height="1200">
  <title>emoji_u2694</title>
  <path fill="#9e740b" d="M0 700H100V600H0ZM1000 700H1100V600H1000ZM100 800H200V700H100ZM900 800H1000V700H900ZM200 1000H400V900H500V800H200ZM600 900H700V1000H900V800H600ZM400 1100H500V1000H400ZM600 1100H700V1000H600Z"/>
  <path fill="#693928" d="M0 1100H200V1000H300V900H400V800H300V700H100V900H0ZM700 900H800V1000H900V1100H1100V900H1000V700H800V800H700Z"/>
  <path fill="#e2a610" d="M100 800H200V900H400V700H300V600H200V700H100ZM700 900H900V800H1000V700H900V600H800V700H700ZM100 1000H200V900H100ZM900 1000H1000V900H900ZM0 1100H100V1000H0ZM1000 1100H1100V1000H1000Z"/>
  <path fill="#c9e3e6" d="M200 800H300V900H400V800H500V700H600V900H800V800H900V600H800V400H900V200H600V300H500V200H200V500H300V600H200Z"/>
  <path fill="#82aec0" d="M300 900H500V800H600V900H800V800H700V700H800V500H900V200H800V300H700V400H600V500H500V600H400V700H300ZM200 500H400V400H300V300H200Z"/>
  <path fill="#2f7889" d="M700 700H800V600H700ZM600 800H700V700H600Z"/>
  <path fill="#a65f3e" d="M100 1000H200V900H100ZM900 1000H1000V900H900Z"/>
</svg>
