<?xml version="1.0" encoding="UTF-8"?>
<svg xmlns="http://www.w3.org/2000/svg" viewBox="0 0 1200 1200" width="1200" height="1200">
  <title>emoji_u1f4bd</title>
  <path fill="#616161" d="M0 1100H100V1200H1000V1100H1100V700H900V800H800V900H700V1000H400V900H300V800H200V500H300V400H400V300H700V400H800V500H900V600H1100V200H1000V100H100V200H0ZM400 800H700V500H400Z"/>
  <path fill="#eeeeee" d="M600 900H1000V800H1100V500H1000V400H600Z"/>
  <path fill="#82aec0" d="M100 900H200V1000H300V1100H800V1000H900V900H1000V800H700V500H1000V400H900V300H800V200H300V300H200V400H100ZM500 700V600H600V700Z"/>
  <path fill="#b9e4ea" d="M200 900H300V1000H800V800H700V700H600V800H500V700H400V600H500V500H600V600H700V500H800V300H300V500H200Z"/>
  <path fill="#d2dae0" d="M200 600H300V800H500V700H400V600H500V500H400V400H200ZM700 1000H800V900H900V800H700Z"/>
  <path fill="#caebef" d="M600 600H700V500H900V400H800V300H700V400H600ZM200 900H300V1000H400V900H500V700H300V800H200Z"/>
  <path fill="#9ee1e9" d="M200 500H300V600H500V400H400V300H300V400H200ZM600 900H700V1000H800V800H700V700H600Z"/>
  <path fill="#f1c9cf" d="M200 500H300V600H500V500H400V400H200Z"/>
  <path fill="#e3f1d3" d="M300 500H400V400H300ZM400 600H500V500H400ZM600 800H700V700H600ZM700 900H800V800H700Z"/>
  <path fill="#e3f5f7" d="M700 500H800V400H700ZM600 600H700V500H600ZM400 800H500V700H400ZM300 900H400V800H300Z"/>
</svg>
