<?xml version="1.0" encoding="UTF-8"?>
<svg xmlns="http://www.w3.org/2000/svg" viewBox="0 0 1200 1200" width="1200" height="1200">
  <title>emoji_u1f38e</title>
  <path fill="#c0b699" d="M0 1200H500V1000H0ZM600 1200H1100V1000H600Z"/>
  <path fill="#ff4f1c" d="M600 1100H1100V600H900V800H800V600H600Z"/>
  <path fill="#2f2f2f" d="M0 700H500V600H400V500H500V200H300V100H200V200H0V500H100V600H0ZM600 700H800V600H900V700H1100V300H1000V200H900V100H800V200H700V300H600Z"/>
  <path fill="#fbc21f" d="M800 300H900V100H800Z"/>
  <path fill="#7ed989" d="M600 1100H1100V1000H1000V800H700V1000H600ZM800 1000V900H900V1000Z"/>
  <path fill="#172d86" d="M0 1100H500V600H0Z"/>
  <path fill="#db0d2a" d="M100 500H400V400H300V300H200V400H100ZM600 700H700V900H1000V700H1100V600H1000V500H900V400H800V500H700V600H600ZM0 900H100V1000H200V800H0ZM300 1000H400V900H300ZM0 1100H100V1000H0ZM400 1100H500V1000H400ZM700 1100H1000V1000H700Z"/>
  <path fill="#091238" d="M0 900H200V700H400V600H100V800H0ZM300 1000H400V800H300Z"/>
  <path fill="#d9cbc7" d="M100 900H200V700H100ZM300 1000H400V900H300Z"/>
  <path fill="#f2edec" d="M200 400H300V300H200ZM100 500H200V400H100ZM300 500H400V400H300ZM800 500H900V400H800ZM700 700H1000V500H900V600H800V500H700Z"/>
  <path fill="#d8cdc7" d="M700 700H800V800H900V700H1000V600H700Z"/>
  <path fill="#f9df96" d="M100 800H200V700H100ZM700 900H1000V800H900V700H800V800H700Z"/>
</svg>
