<?xml version="1.0" encoding="UTF-8"?>
<svg xmlns="http://www.w3.org/2000/svg" viewBox="0 0 1200 1200" width="1200" height="1200">
  <title>emoji_u1f5de</title>
  <path fill="#cfcfcf" d="M200 1100H300V1200H900V1100H1000V900H800V1000H400V600H200Z"/>
  <path fill="#eeeeee" d="M200 700H300V1100H900V1000H1000V200H900V100H300V200H200Z"/>
  <path fill="#a3a3a3" d="M200 700H400V600H300V200H200ZM400 400H500V200H400ZM600 400H900V200H600ZM800 700H900V600H800ZM400 800H600V700H400ZM700 800H800V700H700ZM400 1000H800V900H400Z"/>
  <path fill="#dea076" d="M400 600H800V500H400ZM200 700H400V600H200ZM800 700H1000V600H800Z"/>
</svg>
