<?xml version="1.0" encoding="UTF-8"?>
<svg xmlns="http://www.w3.org/2000/svg" viewBox="0 0 1200 1200" width="1200" height="1200">
  <title>emoji_u1f9eb</title>
  <path fill="#e0f5fe" d="M0 500H200V400H300V600H1100V300H1000V200H100V300H0Z"/>
  <path fill="#96dbfb" d="M0 900H100V1000H200V500H300V700H900V800H300V1000H1000V900H1100V400H1000V500H400V400H1000V300H100V400H0Z"/>
  <path fill="#c6ecfd" d="M100 700H500V600H400V400H100ZM100 1000H400V900H500V800H100Z"/>
  <path fill="#c42828" d="M300 900H1000V700H300Z"/>
  <path fill="#e08b8b" d="M100 900H400V800H500V700H100Z"/>
  <path fill="#ffa1a1" d="M100 800H500V600H100Z"/>
  <path fill="#ffffff" d="M100 500H400V400H100Z"/>
  <path fill="#ff5252" d="M300 700H400V800H1000V600H300Z"/>
  <path fill="#ea80fc" d="M800 700H900V600H800Z"/>
  <path fill="#75dcce" d="M200 700H400V600H200Z"/>
  <path fill="#00bfa5" d="M500 700H700V600H500Z"/>
</svg>
