<?xml version="1.0" encoding="UTF-8"?>
<svg xmlns="http://www.w3.org/2000/svg" viewBox="0 0 1200 1200" width="1200" height="1200">
  <title>emoji_u1f1f8_1f1f0</title>
  <path fill="#ffffff" d="M0 600H300V500H500V600H1100V300H0Z"/>
  <path fill="#ee1c25" d="M0 1000H1100V700H0Z"/>
  <path fill="#583d78" d="M0 800H300V600H0ZM500 800H1100V600H500Z"/>
  <path fill="#5d8ac1" d="M0 700H300V400H200V500H0ZM500 700H1100V500H600V400H500Z"/>
  <path fill="#0b4ea2" d="M0 700H200V800H300V500H200V600H0ZM500 800H600V700H1100V600H600V500H500Z"/>
  <path fill="#dc3a48" d="M200 800H300V900H500V700H200Z"/>
  <path fill="#e82e38" d="M300 800H400V900H500V800H600V700H300Z"/>
  <path fill="#fbc9cb" d="M300 600H600V400H300Z"/>
  <path fill="#fbcfd1" d="M200 600H500V500H400V400H200Z"/>
  <path fill="#fde0e1" d="M200 600H400V500H300V400H200Z"/>
  <path fill="#feeff0" d="M400 600H600V400H500V500H400Z"/>
  <path fill="#26539e" d="M200 800H500V600H200Z"/>
  <path fill="#495796" d="M300 700H400V800H600V600H300Z"/>
  <path fill="#734879" d="M400 700H500V800H600V600H400Z"/>
  <path fill="#83507c" d="M200 800H300V700H400V600H200Z"/>
  <path fill="#a27798" d="M400 700H600V500H400Z"/>
  <path fill="#ae4b68" d="M200 700H400V500H200Z"/>
  <path fill="#c95a6e" d="M200 600H300V700H400V500H200Z"/>
  <path fill="#f1474f" d="M300 700H600V600H500V500H300Z"/>
  <path fill="#f68287" d="M300 700H500V600H400V500H300Z"/>
  <path fill="#705688" d="M400 700H600V600H400Z"/>
  <path fill="#e8818a" d="M300 700H500V600H300Z"/>
  <path fill="#ee4f57" d="M400 700H500V600H400Z"/>
</svg>
