<?xml version="1.0" encoding="UTF-8"?>
<svg xmlns="http://www.w3.org/2000/svg" viewBox="0 0 1200 1200" width="1200" height="1200">
  <title>emoji_u1f379</title>
  <path fill="#d5d5d5" d="M200 500H300V800H400V900H500V1000H600V1100H700V800H600V700H500V400H200Z"/>
  <path fill="#9f9f9f" d="M400 1200H900V1100H700V1000H800V900H900V800H1000V400H800V700H700V800H500V900H600V1100H400Z"/>
  <path fill="#ff8e00" d="M100 400H200V500H500V400H600V200H500V100H200V200H100Z"/>
  <path fill="#c9c9c9" d="M300 500H400V600H500V400H600V700H900V500H1000V300H900V200H1000V100H800V200H500V300H400V400H300ZM200 400H300V300H200Z"/>
  <path fill="#ff2a23" d="M800 200H1000V100H800ZM500 600H700V500H900V300H800V200H700V300H500Z"/>
  <path fill="#ffa500" d="M300 300H400V200H300ZM200 400H300V300H200ZM400 400H500V300H400Z"/>
  <path fill="#ffffff" d="M400 800H500V900H700V700H600V600H400Z"/>
  <path fill="#eaeaea" d="M400 600H700V500H600V400H700V300H400ZM700 500H900V300H800V400H700Z"/>
  <path fill="#ff4006" d="M500 800H600V900H800V800H900V700H500Z"/>
  <path fill="#ffb538" d="M400 700H500V800H900V600H700V500H400Z"/>
  <path fill="#ff7003" d="M500 800H900V700H500Z"/>
  <path fill="#f9fbfa" d="M400 600H700V500H400Z"/>
</svg>
