<?xml version="1.0" encoding="UTF-8"?>
<svg xmlns="http://www.w3.org/2000/svg" viewBox="0 0 1200 1200" width="1200" height="1200">
  <title>emoji_u1f3ce</title>
  <path fill="#636866" d="M0 900H100V1000H1100V800H300V700H200V500H100V400H0Z"/>
  <path fill="#b50d22" d="M300 700H500V600H400V500H300ZM0 800H100V900H200V700H100V600H0ZM500 900H800V1000H1000V900H1100V800H800V700H500Z"/>
  <path fill="#ff2a23" d="M0 700H100V500H0ZM100 900H600V800H700V900H1100V800H1000V700H800V600H700V700H500V600H300V700H100Z"/>
  <path fill="#f8a128" d="M100 900H200V1000H300V900H500V800H300V700H200V800H100ZM700 900H800V1000H900V900H1000V800H900V700H800V800H700Z"/>
  <path fill="#4c4038" d="M200 900H300V800H200ZM800 900H900V800H800Z"/>
  <path fill="#cf1a35" d="M400 900H600V800H400Z"/>
</svg>
