<?xml version="1.0" encoding="UTF-8"?>
<svg xmlns="http://www.w3.org/2000/svg" viewBox="0 0 1200 1200" width="1200" height="1200">
  <title>emoji_u1fa9d</title>
  <path fill="#ffca28" d="M100 500H200V600H300V1000H400V1100H500V1200H800V1100H900V1000H1000V600H900V800H800V900H600V500H700V300H600V200H500V100H300V200H200V300H100ZM400 500V300H500V500ZM800 600H900V500H800Z"/>
  <path fill="#e2a610" d="M200 400H300V500H400V200H300V300H200ZM500 1000H600V1100H800V1000H900V800H800V900H600V600H500Z"/>
  <path fill="#fff59d" d="M300 300H400V200H300ZM200 400H300V300H200ZM800 600H900V500H800ZM500 1000H600V900H500ZM800 1000H900V900H800ZM600 1100H800V1000H600Z"/>
</svg>
