<?xml version="1.0" encoding="UTF-8"?>
<svg xmlns="http://www.w3.org/2000/svg" viewBox="0 0 1200 1200" width="1200" height="1200">
  <title>emoji_u1fa91</title>
  <path fill="#9e5737" d="M300 700H800V600H700V500H800V400H300V500H400V600H300ZM500 600V500H600V600ZM300 1000H400V1100H500V1000H600V1100H700V1000H800V900H300Z"/>
  <path fill="#ba793e" d="M200 400H300V500H800V400H900V100H200ZM100 1000H200V1200H300V1000H800V1200H900V1000H1000V800H100Z"/>
  <path fill="#f0aa6b" d="M100 900H1000V800H900V600H200V800H100Z"/>
</svg>
