<?xml version="1.0" encoding="UTF-8"?>
<svg xmlns="http://www.w3.org/2000/svg" viewBox="0 0 1200 1200" width="1200" height="1200">
  <title>emoji_u1f1e8_1f1f1</title>
  <path fill="#0039a6" d="M0 700H200V500H400V300H0Z"/>
  <path fill="#013aa6" d="M100 500H300V400H200V300H100Z"/>
  <path fill="#d52b1e" d="M0 1000H1100V600H0Z"/>
  <path fill="#ffffff" d="M300 700H1100V300H300Z"/>
  <path fill="#547ac3" d="M200 700H500V600H400V300H300V400H200Z"/>
  <path fill="#6b3262" d="M0 700H400V600H300V500H100V600H0Z"/>
  <path fill="#ea958f" d="M300 700H1100V600H300Z"/>
  <path fill="#2354b2" d="M100 600H300V400H100Z"/>
  <path fill="#315fb7" d="M100 500H200V600H300V400H100Z"/>
  <path fill="#7b98d1" d="M100 500H200V400H100ZM200 600H300V500H200Z"/>
  <path fill="#164aae" d="M200 600H300V500H200ZM300 700H400V600H300Z"/>
  <path fill="#955371" d="M300 700H400V600H300Z"/>
</svg>
