<?xml version="1.0" encoding="UTF-8"?>
<svg xmlns="http://www.w3.org/2000/svg" viewBox="0 0 1200 1200" width="1200" height="1200">
  <title>emoji_u1f9d4_1f3fb_200d_2642</title>
  <path fill="#edc391" d="M200 800H300V900H400V600H200ZM800 900H900V800H1000V600H800Z"/>
  <path fill="#312d2d" d="M200 700H300V1100H400V1200H800V1100H900V700H1000V300H900V200H800V100H400V200H300V300H200Z"/>
  <path fill="#795548" d="M400 1000H500V900H700V1000H800V800H400ZM500 1100H700V1000H500Z"/>
  <path fill="#f9ddbd" d="M300 800H400V900H800V800H900V500H800V400H400V500H300ZM400 800V600H500V800ZM700 800V600H800V800Z"/>
</svg>
