<?xml version="1.0" encoding="UTF-8"?>
<svg xmlns="http://www.w3.org/2000/svg" viewBox="0 0 1200 1200" width="1200" height="1200">
  <title>emoji_u1f369</title>
  <path fill="#f5b03e" d="M0 1000H100V1100H200V1200H900V1100H1000V1000H1100V700H900V800H800V900H300V800H200V700H0Z"/>
  <path fill="#875b4f" d="M0 800H100V900H200V1000H900V900H1000V800H1100V300H1000V200H900V100H200V200H100V300H0ZM300 700V500H800V700Z"/>
  <path fill="#93c9ef" d="M100 400H200V300H100Z"/>
  <path fill="#f47ba8" d="M500 300H600V200H500Z"/>
  <path fill="#fd5e5b" d="M900 800H1000V700H900Z"/>
  <path fill="#fdba02" d="M900 400H1000V300H900Z"/>
  <path fill="#b79279" d="M100 900H200V800H100ZM300 900H400V800H300ZM600 900H700V800H600ZM200 1000H300V900H200ZM400 1000H600V900H400ZM800 1000H900V900H800Z"/>
  <path fill="#df8013" d="M300 500H800V400H300ZM200 600H300V500H200ZM800 600H900V500H800Z"/>
  <path fill="#fea8a6" d="M300 900H400V800H300Z"/>
  <path fill="#ffb502" d="M600 900H700V800H600Z"/>
</svg>
