<?xml version="1.0" encoding="UTF-8"?>
<svg xmlns="http://www.w3.org/2000/svg" viewBox="0 0 1200 1200" width="1200" height="1200">
  <title>emoji_u1f482_200d_2640</title>
  <path fill="#62453b" d="M100 1200H400V600H200V1100H100ZM800 1200H1100V1100H1000V600H800Z"/>
  <path fill="#da342e" d="M200 1200H1000V1100H900V1000H300V1100H200Z"/>
  <path fill="#474c4f" d="M300 1100H500V900H300ZM700 1100H900V900H700ZM100 1200H300V1100H100ZM900 1200H1100V1100H900Z"/>
  <path fill="#fefefe" d="M300 1000H400V1100H500V1200H700V1100H800V1000H900V900H300Z"/>
  <path fill="#464c4f" d="M200 700H1000V200H900V100H300V200H200Z"/>
  <path fill="#3e4346" d="M700 300H800V200H700ZM800 500H900V400H800ZM200 700H300V800H900V700H1000V600H800V500H700V600H400V500H300V600H200Z"/>
  <path fill="#e59502" d="M400 1000H500V1100H700V1000H800V900H400Z"/>
  <path fill="#50565c" d="M300 300H400V200H300ZM400 500H500V400H400ZM300 600H400V500H300Z"/>
  <path fill="#ffca26" d="M300 1000H900V700H300Z"/>
  <path fill="#3f4040" d="M400 900H500V700H400ZM700 900H800V700H700Z"/>
</svg>
