<?xml version="1.0" encoding="UTF-8"?>
<svg xmlns="http://www.w3.org/2000/svg" viewBox="0 0 1200 1200" width="1200" height="1200">
  <title>emoji_u1f9f1</title>
  <path fill="#e04e2c" d="M0 900H100V1200H600V900H400V600H600V300H400V100H0V300H100V600H0ZM700 900H900V1200H1100V100H700V300H900V600H700Z"/>
  <path fill="#751c00" d="M0 1200H1100V1100H1000V1000H1100V800H800V700H1100V500H1000V400H1100V200H800V100H300V200H0V700H300V800H0ZM200 500V400H500V500ZM200 1100V1000H500V1100Z"/>
  <path fill="#e0e0e0" d="M0 1100H100V1200H200V1000H500V1200H600V1100H900V1200H1000V1000H1100V900H800V700H1100V600H1000V400H1100V300H800V100H600V200H700V300H400V200H500V100H300V300H0V500H100V600H0V700H300V900H0ZM200 600V400H500V600ZM600 600V500H900V600ZM400 900V800H700V900Z"/>
  <path fill="#bf360c" d="M400 200H700V100H400ZM0 500H100V400H0ZM600 500H900V400H600ZM400 800H700V700H400ZM0 1100H100V1000H0ZM600 1100H900V1000H600Z"/>
</svg>
