<?xml version="1.0" encoding="UTF-8"?>
<svg xmlns="http://www.w3.org/2000/svg" viewBox="0 0 1200 1200" width="1200" height="1200">
  <title>emoji_u264a</title>
  <path fill="#f57c00" d="M300 1100H400V1200H700V1100H900V1000H1000V800H1100V500H1000V400H900V700H800V900H600V1000H300Z"/>
  <path fill="#fac377" d="M0 600H300V500H500V400H600V100H400V200H200V300H100V500H0Z"/>
  <path fill="#ffa726" d="M0 800H100V1000H200V1100H700V1000H900V800H1000V300H900V200H700V100H400V200H500V300H400V400H200V500H0ZM200 300H300V200H200ZM100 400H200V300H100Z"/>
  <path fill="#faead5" d="M200 500H300V400H200ZM300 600H400V500H300Z"/>
  <path fill="#fafafa" d="M800 500H900V400H800ZM300 900H800V800H700V600H800V500H300V600H400V800H300ZM500 800V600H600V800ZM200 1000H300V900H200ZM800 1000H900V900H800Z"/>
</svg>
