<?xml version="1.0" encoding="UTF-8"?>
<svg xmlns="http://www.w3.org/2000/svg" viewBox="0 0 1200 1200" width="1200" height="1200">
  <title>emoji_u1f3d8</title>
  <path fill="#de7541" d="M200 500H300V600H400V500H500V400H600V500H700V600H800V500H900V400H800V300H700V200H600V100H500V200H400V100H300V400H200Z"/>
  <path fill="#5f4e47" d="M300 800H400V700H500V400H300ZM600 700H700V800H800V400H600ZM0 1100H100V1200H300V1000H0ZM400 1200H700V1000H400ZM800 1200H1000V1100H1100V1000H800Z"/>
  <path fill="#ab5832" d="M100 1000H300V800H200V700H100ZM600 1200H900V1000H1000V700H900V800H800V1000H600Z"/>
  <path fill="#865c51" d="M200 1200H500V1000H200Z"/>
  <path fill="#c67260" d="M600 700H700V600H600ZM500 1000H800V1100H1100V1000H1000V900H900V800H800V700H700V800H600V900H500Z"/>
  <path fill="#bb8064" d="M400 700H500V600H400ZM0 1100H300V1000H400V1100H700V900H500V800H400V700H300V800H200V900H100V1000H0Z"/>
  <path fill="#ede0d6" d="M100 1100H200V1200H300V1100H400V1200H500V1100H600V1000H500V900H400V800H300V900H200V1000H100Z"/>
  <path fill="#f5e1d1" d="M500 1100H600V1200H700V1100H800V1200H900V1100H1000V1000H900V900H800V800H700V900H600V1000H500Z"/>
  <path fill="#904625" d="M300 500H400V600H500V500H600V600H700V500H800V400H700V300H600V200H500V300H400V400H300Z"/>
  <path fill="#7f4935" d="M300 900H400V800H300ZM200 1000H300V900H200ZM400 1000H500V900H400ZM600 1000H700V900H600ZM100 1100H200V1000H100ZM500 1100H600V1000H500Z"/>
  <path fill="#893f2e" d="M700 900H800V800H700ZM600 1000H700V900H600ZM800 1000H900V900H800ZM900 1100H1000V1000H900Z"/>
  <path fill="#fff3e1" d="M400 700H700V400H600V300H500V400H400Z"/>
  <path fill="#d27857" d="M500 700H600V500H500Z"/>
</svg>
