<?xml version="1.0" encoding="UTF-8"?>
<svg xmlns="http://www.w3.org/2000/svg" viewBox="0 0 1200 1200" width="1200" height="1200">
  <title>emoji_u1f97d</title>
  <path fill="#37474f" d="M700 200H1000V100H700ZM100 300H700V200H100ZM0 600H100V700H200V500H100V400H0ZM900 700H1000V600H1100V400H1000V500H900Z"/>
  <path fill="#2f7889" d="M900 200H1000V100H900ZM100 300H200V200H100ZM1000 500H1100V200H1000ZM0 500H100V300H0ZM100 600H200V500H100ZM900 600H1000V500H900Z"/>
  <path fill="#e5e5e5" d="M0 1100H100V1200H500V1100H600V1200H1000V1100H1100V700H1000V500H100V700H0Z"/>
  <path fill="#455a64" d="M100 1100H500V1000H600V1100H1000V800H800V900H700V800H400V900H300V800H100Z"/>
  <path fill="#aedde8" d="M100 900H200V1000H500V900H600V1000H900V900H1000V800H900V700H200V800H100Z"/>
  <path fill="#bdbdbd" d="M100 600H1000V500H100Z"/>
</svg>
