<?xml version="1.0" encoding="UTF-8"?>
<svg xmlns="http://www.w3.org/2000/svg" viewBox="0 0 1200 1200" width="1200" height="1200">
  <title>emoji_u1f932_1f3fc</title>
  <path fill="#d19661" d="M0 1000H100V1100H400V1000H600V1100H900V900H1000V800H1100V400H1000V300H900V200H800V300H700V200H600V300H500V200H400V300H300V200H200V300H100V400H0Z"/>
  <path fill="#8d542e" d="M100 800H200V700H300V800H400V900H200V1000H300V1100H500V1000H800V1100H1000V1000H1100V700H1000V400H900V300H600V400H500V300H200V400H100ZM500 800V700H600V800ZM700 900V800H800V700H900V900Z"/>
  <path fill="#e0bb95" d="M200 600H300V300H200ZM400 600H500V300H400ZM600 600H700V300H600ZM800 600H900V300H800ZM100 1000H500V700H300V800H400V900H300V800H200V600H100ZM500 700H600V600H500ZM600 1000H1000V600H900V800H800V900H700V800H800V700H600Z"/>
</svg>
