<?xml version="1.0" encoding="UTF-8"?>
<svg xmlns="http://www.w3.org/2000/svg" viewBox="0 0 1200 1200" width="1200" height="1200">
  <title>emoji_u260e</title>
  <path fill="#c62828" d="M0 400H200V300H900V400H1100V200H1000V100H100V200H0ZM0 1200H1100V900H0Z"/>
  <path fill="#912221" d="M0 400H200V300H300V400H400V300H700V400H800V300H900V200H100V300H0ZM900 400H1100V200H1000V300H900Z"/>
  <path fill="#f44336" d="M100 300H200V200H100ZM1000 300H1100V200H1000Z"/>
  <path fill="#ff4638" d="M0 1000H1100V700H1000V600H900V500H800V300H700V400H400V300H300V500H200V600H100V700H0Z"/>
  <path fill="#4e342e" d="M300 900H800V500H300Z"/>
  <path fill="#f5f5f5" d="M500 600H600V500H500ZM400 700H500V600H400ZM600 700H700V600H600ZM500 800H600V700H500Z"/>
</svg>
