<?xml version="1.0" encoding="UTF-8"?>
<svg xmlns="http://www.w3.org/2000/svg" viewBox="0 0 1200 1200" width="1200" height="1200">
  <title>emoji_u1f9d1_1f3fd_200d_2695</title>
  <path fill="#f5f5f5" d="M100 1200H500V1000H400V700H300V800H200V900H100ZM600 1200H1000V900H900V800H800V700H700V1000H600Z"/>
  <path fill="#2c2c2c" d="M200 1000H300V900H200ZM600 1200H700V1100H800V900H600ZM100 1100H200V1000H100ZM300 1100H400V1000H300ZM200 1200H300V1100H200Z"/>
  <path fill="#543930" d="M200 600H300V700H400V500H500V400H600V500H700V700H800V600H900V200H800V100H300V200H200Z"/>
  <path fill="#03a9f4" d="M200 1000H300V1100H400V1200H500V600H300V900H200ZM600 1100H700V1000H800V600H600Z"/>
  <path fill="#d3d3d3" d="M400 1200H700V800H400Z"/>
  <path fill="#ba8d68" d="M300 700H400V800H700V700H800V400H700V300H400V400H300Z"/>
  <path fill="#81d4fa" d="M400 900H500V1200H600V900H700V700H400Z"/>
  <path fill="#99674f" d="M400 800H700V700H400Z"/>
  <path fill="#49362e" d="M400 600H500V400H400ZM600 600H700V400H600Z"/>
</svg>
