<?xml version="1.0" encoding="UTF-8"?>
<svg xmlns="http://www.w3.org/2000/svg" viewBox="0 0 1200 1200" width="1200" height="1200">
  <title>emoji_u1f637</title>
  <path fill="#eb8f00" d="M0 1000H100V1100H200V1200H900V1100H1000V1000H1100V300H1000V200H900V100H200V200H100V300H0Z"/>
  <path fill="#f5f5f5" d="M100 1100H1000V800H1100V700H1000V600H100Z"/>
  <path fill="#fde030" d="M100 1000H200V1100H300V700H800V1100H900V1000H1000V800H900V700H1000V300H900V200H200V300H100V700H200V800H100Z"/>
  <path fill="#808080" d="M200 1000H300V800H200ZM800 1000H900V800H800Z"/>
  <path fill="#422b0d" d="M300 600H400V400H300ZM700 600H800V400H700Z"/>
</svg>
