<?xml version="1.0" encoding="UTF-8"?>
<svg xmlns="http://www.w3.org/2000/svg" viewBox="0 0 1200 1200" width="1200" height="1200">
  <title>emoji_u23f3</title>
  <path fill="#8b5738" d="M100 200H200V300H900V200H1000V100H100ZM100 1200H1000V1100H900V1000H200V1100H100Z"/>
  <path fill="#a1dffc" d="M200 1100H900V800H800V700H700V600H800V500H900V200H700V400H600V200H200V500H300V600H400V700H300V800H200Z"/>
  <path fill="#6ea3df" d="M200 300H300V400H400V300H500V400H800V300H900V200H200Z"/>
  <path fill="#daf3fe" d="M300 500H500V400H400V300H300ZM300 1000H500V900H600V600H500V700H400V800H300Z"/>
  <path fill="#ffeaa9" d="M300 500H400V600H500V400H300Z"/>
  <path fill="#ffca28" d="M300 1000H800V900H700V800H600V600H700V500H800V300H500V400H400V600H500V800H400V900H300Z"/>
  <path fill="#e2a610" d="M400 500H600V400H800V300H500V400H400Z"/>
</svg>
