<?xml version="1.0" encoding="UTF-8"?>
<svg xmlns="http://www.w3.org/2000/svg" viewBox="0 0 1200 1200" width="1200" height="1200">
  <title>emoji_u1f1f2_1f1e9</title>
  <path fill="#ffd200" d="M300 500H800V300H300ZM300 1000H800V700H300Z"/>
  <path fill="#0046ae" d="M0 1000H400V300H0Z"/>
  <path fill="#cc092f" d="M700 1000H1100V300H700Z"/>
  <path fill="#547475" d="M300 1000H400V800H500V400H400V300H300Z"/>
  <path fill="#dd4b20" d="M600 800H700V1000H800V300H700V400H600Z"/>
  <path fill="#facd01" d="M400 600H700V400H400Z"/>
  <path fill="#e7bc09" d="M400 600H700V500H600V400H500V500H400Z"/>
  <path fill="#ecc203" d="M400 800H500V900H600V800H700V700H400Z"/>
  <path fill="#997829" d="M400 800H700V600H400Z"/>
  <path fill="#b68b17" d="M400 700H600V500H400Z"/>
  <path fill="#b76119" d="M400 700H700V500H500V600H400Z"/>
  <path fill="#b89116" d="M500 700H700V500H600V600H500Z"/>
  <path fill="#c9a209" d="M400 800H500V700H600V600H400Z"/>
  <path fill="#d8ac08" d="M500 700H600V800H700V600H500Z"/>
  <path fill="#76603f" d="M400 700H700V600H400Z"/>
  <path fill="#a18522" d="M400 700H500V600H400Z"/>
  <path fill="#be971f" d="M600 700H700V600H600Z"/>
</svg>
