<?xml version="1.0" encoding="UTF-8"?>
<svg xmlns="http://www.w3.org/2000/svg" viewBox="0 0 1200 1200" width="1200" height="1200">
  <title>emoji_u1f6ce</title>
  <path fill="#cc8552" d="M0 1000H200V700H100V800H0ZM900 1000H1100V800H1000V700H900Z"/>
  <path fill="#9e740b" d="M400 400H700V300H600V200H700V100H400V200H500V300H400Z"/>
  <path fill="#8b5738" d="M0 1100H1100V900H1000V800H100V900H0Z"/>
  <path fill="#fff59d" d="M400 200H600V100H400ZM200 700H500V600H600V300H300V400H200Z"/>
  <path fill="#ffca28" d="M500 200H700V100H500ZM100 900H300V800H800V900H1000V500H900V400H800V300H300V400H200V500H100ZM300 600V500H400V400H500V500H400V600Z"/>
  <path fill="#e2a610" d="M100 700H200V600H100ZM900 700H1000V600H900ZM100 900H1000V800H900V700H200V800H100Z"/>
  <path fill="#4e342e" d="M100 900H1000V800H100Z"/>
</svg>
