<?xml version="1.0" encoding="UTF-8"?>
<svg xmlns="http://www.w3.org/2000/svg" viewBox="0 0 1200 1200" width="1200" height="1200">
  <title>emoji_u1f3d5</title>
  <path fill="#c67c5d" d="M700 1200H1000V1000H700Z"/>
  <path fill="#4da852" d="M600 700H1100V600H1000V500H1100V400H1000V300H900V200H800V300H700V400H600V500H700V600H600Z"/>
  <path fill="#89af50" d="M0 1200H800V1100H900V1200H1000V1100H1100V900H1000V800H900V700H800V800H600V700H500V1000H200V700H100V800H0Z"/>
  <path fill="#367c2d" d="M800 400H900V300H800ZM600 500H800V400H600ZM900 500H1100V400H900ZM600 700H800V800H900V700H1100V600H900V500H800V600H600ZM500 800H600V700H500Z"/>
  <path fill="#a05c3c" d="M800 900H900V600H800ZM800 1100H1000V900H900V1000H800Z"/>
  <path fill="#ec5f32" d="M300 900H400V1000H500V1100H700V900H600V700H500V600H400V500H300Z"/>
  <path fill="#f19f40" d="M0 1100H300V1000H400V900H500V800H400V500H300V600H200V700H100V900H0Z"/>
  <path fill="#9c2d1b" d="M100 400H200V500H300V600H400V200H300V300H100ZM0 1100H600V900H500V800H300V900H200V1000H0Z"/>
  <path fill="#2f2f2f" d="M300 600H400V200H300ZM300 1100H500V900H400V800H300Z"/>
  <path fill="#f5bd40" d="M900 1000H1000V900H900ZM800 1100H900V1000H800Z"/>
</svg>
