<?xml version="1.0" encoding="UTF-8"?>
<svg xmlns="http://www.w3.org/2000/svg" viewBox="0 0 1200 1200" width="1200" height="1200">
  <title>emoji_u1f1e6_1f1ec</title>
  <path fill="#51070f" d="M0 500H200V300H0ZM900 500H1100V300H900Z"/>
  <path fill="#080701" d="M300 500H800V300H300Z"/>
  <path fill="#c81025" d="M0 600H200V300H100V400H0ZM900 600H1100V400H1000V300H900Z"/>
  <path fill="#d01d31" d="M300 1000H800V800H300Z"/>
  <path fill="#0f0c01" d="M400 500H700V400H600V300H500V400H400Z"/>
  <path fill="#efb3ba" d="M400 900H500V1000H600V900H700V800H400Z"/>
  <path fill="#000000" d="M100 600H400V500H500V400H400V300H100ZM600 500H700V600H1000V300H700V400H600Z"/>
  <path fill="#ce1126" d="M0 1000H400V900H500V800H400V600H300V500H200V400H100V500H0ZM600 900H700V1000H1100V500H1000V400H900V500H800V600H700V800H600Z"/>
  <path fill="#0b0901" d="M200 600H500V400H300V500H200ZM600 600H900V500H800V400H600Z"/>
  <path fill="#2a0308" d="M100 600H300V500H200V400H100ZM800 600H1000V400H900V500H800Z"/>
  <path fill="#79650b" d="M300 600H800V500H700V400H400V500H300Z"/>
  <path fill="#b50f21" d="M100 600H200V700H300V500H100ZM800 700H900V600H1000V500H800Z"/>
  <path fill="#ce1227" d="M300 900H500V700H300ZM600 900H800V700H600Z"/>
  <path fill="#efb1b8" d="M300 800H400V900H700V800H800V700H300Z"/>
  <path fill="#af910f" d="M400 600H700V500H600V400H500V500H400Z"/>
  <path fill="#ffffff" d="M400 800H500V900H600V800H700V700H400Z"/>
  <path fill="#bedbf0" d="M300 800H800V600H300Z"/>
  <path fill="#101729" d="M200 700H400V500H200ZM700 700H900V500H700Z"/>
  <path fill="#263c36" d="M200 700H500V500H300V600H200ZM600 700H900V600H800V500H600Z"/>
  <path fill="#982a50" d="M200 700H300V800H400V600H200ZM700 800H800V700H900V600H700Z"/>
  <path fill="#aaaa41" d="M300 700H800V600H700V500H400V600H300Z"/>
  <path fill="#b4627e" d="M300 800H400V700H500V600H300ZM600 700H700V800H800V600H600Z"/>
  <path fill="#bcb943" d="M400 700H700V600H600V500H500V600H400Z"/>
  <path fill="#0072c6" d="M300 700H800V600H300Z"/>
  <path fill="#0371c4" d="M300 700H400V600H300ZM700 700H800V600H700Z"/>
</svg>
