<?xml version="1.0" encoding="UTF-8"?>
<svg xmlns="http://www.w3.org/2000/svg" viewBox="0 0 1200 1200" width="1200" height="1200">
  <title>emoji_u1f4d0</title>
  <path fill="#7eaab3" d="M0 1200H1100V1100H1000V1000H600V800H500V700H400V600H200V200H100V100H0ZM200 1000V800H300V900H400V1000Z"/>
  <path fill="#367a8b" d="M100 700H300V800H400V900H500V1100H1000V1000H900V900H800V800H700V700H600V600H500V500H400V400H300V300H200V200H100Z"/>
  <path fill="#c9e3e6" d="M100 600H200V500H300V400H200V300H100ZM200 700H300V800H400V700H500V600H400V500H300V600H200ZM400 900H500V1000H600V900H700V800H600V700H500V800H400ZM600 1100H900V1000H800V900H700V1000H600Z"/>
  <path fill="#a6cfd6" d="M100 1100H700V1000H600V900H500V1000H200V700H300V600H200V500H100ZM300 800H400V700H300ZM400 900H500V800H400Z"/>
</svg>
