<?xml version="1.0" encoding="UTF-8"?>
<svg xmlns="http://www.w3.org/2000/svg" viewBox="0 0 1200 1200" width="1200" height="1200">
  <title>emoji_u1f9d8_1f3fc_200d_2640</title>
  <path fill="#62453b" d="M300 700H500V500H700V700H900V200H800V100H400V200H300Z"/>
  <path fill="#c48e6a" d="M100 1200H500V800H700V1000H600V1100H700V1200H1100V1100H1000V700H800V500H400V700H200V1100H100ZM300 1000V900H400V1000ZM800 1000V900H900V1000Z"/>
  <path fill="#a87254" d="M100 1000H200V1100H400V1200H500V1100H800V1200H900V1100H1000V1000H1100V900H1000V800H900V1000H800V900H600V1000H500V900H400V1000H300V800H200V900H100Z"/>
  <path fill="#e0bb95" d="M200 900H300V800H400V700H500V600H700V700H800V800H900V900H1000V700H900V600H800V400H700V300H500V400H400V600H300V700H200ZM100 1000H200V900H100ZM400 1100H700V1000H800V900H400ZM1000 1000H1100V900H1000ZM200 1100H300V1000H200ZM800 1100H1000V1000H800Z"/>
  <path fill="#5b16f5" d="M200 800H400V1000H800V800H1000V700H900V600H700V700H500V600H300V700H200Z"/>
  <path fill="#7c7c7c" d="M400 1000H800V900H400Z"/>
  <path fill="#3615af" d="M400 700H500V600H400ZM700 700H800V600H700ZM500 800H700V700H500Z"/>
</svg>
