<?xml version="1.0" encoding="UTF-8"?>
<svg xmlns="http://www.w3.org/2000/svg" viewBox="0 0 1200 1200" width="1200" height="1200">
  <title>emoji_u1f6fa</title>
  <path fill="#536f7d" d="M100 200H200V400H400V100H100Z"/>
  <path fill="#ffffff" d="M0 1000H200V700H100V800H0Z"/>
  <path fill="#afe3fb" d="M100 700H400V200H300V300H200V400H100Z"/>
  <path fill="#4e433d" d="M0 1000H100V1100H200V1200H300V1100H400V1000H500V900H400V800H100V900H0ZM600 1000H700V1100H800V1200H900V1100H1000V1000H1100V900H1000V800H700V900H600Z"/>
  <path fill="#ffb803" d="M100 800H500V700H400V400H600V500H700V400H800V700H700V800H1100V300H1000V200H400V100H200V200H300V600H100Z"/>
  <path fill="#02ab46" d="M100 900H300V1000H800V900H900V1000H1100V700H700V600H600V700H100Z"/>
  <path fill="#2f7c31" d="M600 700H700V600H600ZM400 900H500V800H600V700H400ZM700 1000H800V900H900V800H800V700H700ZM900 800H1000V700H900ZM0 1000H200V900H300V800H100V900H0ZM300 1000H400V900H300ZM900 1000H1000V900H900ZM200 1100H300V1000H200ZM800 1100H900V1000H800Z"/>
  <path fill="#1c1d1e" d="M200 1100H300V1000H200ZM800 1100H900V1000H800Z"/>
  <path fill="#ff8b00" d="M900 800H1000V700H900Z"/>
  <path fill="#b0b0b0" d="M600 700H700V400H600ZM100 900H200V800H100Z"/>
</svg>
