<?xml version="1.0" encoding="UTF-8"?>
<svg xmlns="http://www.w3.org/2000/svg" viewBox="0 0 1200 1200" width="1200" height="1200">
  <title>emoji_u1f95e</title>
  <path fill="#fce9c5" d="M0 1000H100V1100H200V1200H1000V1100H1100V900H1000V800H1100V600H1000V500H1100V300H1000V200H900V400H200V200H100V300H0V500H100V600H0V700H100V800H0Z"/>
  <path fill="#ffa828" d="M100 500H500V300H700V500H1000V200H900V100H200V200H100ZM100 1000H200V1100H300V1000H400V1100H700V1200H800V1100H1000V900H800V800H1000V600H100V700H200V800H400V700H600V800H700V900H200V800H100Z"/>
  <path fill="#d17020" d="M200 400H400V500H600V600H500V700H700V900H600V1000H700V1200H800V1000H900V900H800V700H900V600H700V500H800V400H900V200H700V300H600V200H400V300H200Z"/>
  <path fill="#fade62" d="M500 400H800V200H500Z"/>
  <path fill="#ac5813" d="M600 400H800V200H700V300H600ZM500 700H900V600H500ZM500 1000H900V900H500Z"/>
  <path fill="#f5ad02" d="M500 400H700V300H500Z"/>
  <path fill="#fdfffc" d="M500 400H600V300H500Z"/>
</svg>
