<?xml version="1.0" encoding="UTF-8"?>
<svg xmlns="http://www.w3.org/2000/svg" viewBox="0 0 1200 1200" width="1200" height="1200">
  <title>emoji_u1f4f3</title>
  <path fill="#b0bec5" d="M0 400H100V200H0ZM1000 400H1100V200H1000ZM100 800H200V900H300V300H200V400H100V500H200V700H100ZM800 900H900V800H1000V700H900V500H1000V400H900V300H800ZM0 700H100V500H0ZM1000 700H1100V500H1000ZM0 1000H100V800H0ZM1000 1000H1100V800H1000Z"/>
  <path fill="#757575" d="M200 1100H300V1200H800V1100H900V200H800V100H300V200H200Z"/>
  <path fill="#212121" d="M300 400H800V200H300Z"/>
  <path fill="#424242" d="M300 400H500V300H400V200H300ZM600 400H800V200H700V300H600Z"/>
  <path fill="#000000" d="M300 1100H800V300H300Z"/>
  <path fill="#0288d1" d="M600 1000H700V900H600Z"/>
  <path fill="#81d4fa" d="M400 1000H500V900H400Z"/>
  <path fill="#eab56e" d="M400 500H500V400H400Z"/>
  <path fill="#ff80ab" d="M600 500H700V400H600Z"/>
  <path fill="#00bfa5" d="M400 700H500V600H400Z"/>
</svg>
