<?xml version="1.0" encoding="UTF-8"?>
<svg xmlns="http://www.w3.org/2000/svg" viewBox="0 0 1200 1200" width="1200" height="1200">
  <title>emoji_u1fa95</title>
  <path fill="#784d30" d="M100 1100H300V1200H500V1100H600V900H700V700H800V600H1000V500H1100V300H900V400H700V500H600V600H500V900H400V800H100Z"/>
  <path fill="#b0bec5" d="M0 1000H100V1100H200V1200H400V1100H500V1000H600V700H700V600H800V500H900V600H1000V400H1100V300H1000V200H900V100H800V200H600V300H700V400H600V500H500V600H200V700H100V800H0ZM200 1000V900H300V1000Z"/>
  <path fill="#c87d5e" d="M700 400H800V300H900V200H700ZM800 500H1000V300H900V400H800ZM600 500H700V400H600ZM500 600H600V500H500ZM700 600H800V500H700ZM0 1000H200V900H300V800H400V700H500V600H300V700H100V900H0ZM600 700H700V600H600ZM200 1200H300V1100H500V900H600V700H500V800H400V900H300V1000H200Z"/>
  <path fill="#fef6e0" d="M100 1000H200V900H300V800H400V700H200V800H100ZM200 1100H400V1000H500V800H400V900H300V1000H200Z"/>
</svg>
