<?xml version="1.0" encoding="UTF-8"?>
<svg xmlns="http://www.w3.org/2000/svg" viewBox="0 0 1200 1200" width="1200" height="1200">
  <title>emoji_u1f3ac</title>
  <path fill="#616161" d="M0 700H100V1200H300V700H1100V500H300V400H600V300H1100V100H600V200H0Z"/>
  <path fill="#eeeeee" d="M600 300H1100V200H1000V100H900V200H700V100H600ZM100 700H200V800H900V700H1000V600H900V500H800V600H600V500H500V600H300V400H600V300H500V200H400V300H200V200H100Z"/>
  <path fill="#424242" d="M600 300H700V200H600ZM800 300H1000V200H800ZM100 600H200V500H300V400H200V300H100ZM300 400H500V300H300ZM200 1200H1000V700H1100V600H800V700H700V600H500V700H400V600H200Z"/>
  <path fill="#ffffff" d="M200 800H300V900H900V800H1000V700H200ZM300 1100H400V1200H500V1100H700V1200H800V1100H900V1000H300Z"/>
  <path fill="#000000" d="M200 800H1000V700H200Z"/>
</svg>
