<?xml version="1.0" encoding="UTF-8"?>
<svg xmlns="http://www.w3.org/2000/svg" viewBox="0 0 1200 1200" width="1200" height="1200">
  <title>emoji_u1f950</title>
  <path fill="#cf7118" d="M300 1200H500V1100H600V1000H500V800H600V700H800V800H900V900H1000V800H1100V600H1000V400H500V500H400V600H300Z"/>
  <path fill="#f6af3d" d="M0 900H100V1100H200V1200H400V900H300V700H400V600H500V500H600V400H900V200H800V100H500V200H300V300H200V400H100V700H0Z"/>
  <path fill="#f8c975" d="M400 300H500V200H400ZM400 500H700V400H1000V300H900V200H800V300H500V400H400ZM300 400H400V300H300ZM100 1100H200V1000H300V1100H400V500H300V600H100V800H200V900H100Z"/>
  <path fill="#f9e0ca" d="M300 400H400V300H300ZM200 500H300V400H200ZM400 500H500V400H400ZM300 600H400V500H300ZM100 800H200V900H300V700H100ZM100 1100H200V1000H100Z"/>
  <path fill="#fcb444" d="M500 600H600V500H700V600H800V500H900V600H1000V300H600V400H500ZM200 900H300V1100H500V1000H400V900H500V800H400V700H500V600H300V700H200Z"/>
  <path fill="#e78d22" d="M600 400H700V500H800V300H600ZM900 700H1100V400H1000V300H900ZM300 700H500V600H600V400H400V500H300ZM200 900H400V800H300V700H200ZM300 1200H400V1100H500V1000H300Z"/>
</svg>
