<?xml version="1.0" encoding="UTF-8"?>
<svg xmlns="http://www.w3.org/2000/svg" viewBox="0 0 1200 1200" width="1200" height="1200">
  <title>emoji_u26e9</title>
  <path fill="#474c4f" d="M0 200H100V100H0ZM1000 200H1100V100H1000ZM100 400H1000V200H100ZM100 1200H400V1100H300V1000H200V1100H100ZM700 1200H1000V1100H900V1000H800V1100H700Z"/>
  <path fill="#8a1e0c" d="M100 800H200V900H300V800H800V900H900V800H1000V300H100ZM400 600V500H500V600ZM600 600V500H700V600Z"/>
  <path fill="#eb2901" d="M100 700H200V1100H300V700H800V1100H900V700H1000V500H900V400H1000V300H100V400H200V500H100ZM300 500V400H500V600H400V500ZM600 600V400H800V500H700V600Z"/>
</svg>
