<?xml version="1.0" encoding="UTF-8"?>
<svg xmlns="http://www.w3.org/2000/svg" viewBox="0 0 1200 1200" width="1200" height="1200">
  <title>emoji_u1f3bb</title>
  <path fill="#455a64" d="M300 700H600V300H700V200H600V100H400V200H300V300H400V400H300ZM100 1100H200V1200H600V900H100ZM800 1100H1000V1200H1100V900H800Z"/>
  <path fill="#f7cf92" d="M800 1100H900V1000H1000V1100H1100V400H1000V300H900V500H800V800H900V900H800Z"/>
  <path fill="#ff7043" d="M500 200H600V100H500ZM100 1000H300V1100H400V1000H500V1200H800V1100H900V900H800V800H900V500H800V400H600V300H500V600H400V400H200V500H100V800H200V900H100ZM900 400H1000V300H900ZM1000 1100H1100V400H1000Z"/>
  <path fill="#a65f3e" d="M700 500H800V400H700ZM800 800H900V500H800ZM300 1000H600V900H500V800H400V900H300ZM700 900H800V800H700ZM800 1100H900V900H800ZM700 1200H800V1100H700Z"/>
  <path fill="#cfd8dc" d="M300 800H400V900H500V800H600V700H500V600H400V700H300Z"/>
  <path fill="#37474f" d="M300 800H400V700H300ZM500 800H600V700H500Z"/>
</svg>
