<?xml version="1.0" encoding="UTF-8"?>
<svg xmlns="http://www.w3.org/2000/svg" viewBox="0 0 1200 1200" width="1200" height="1200">
  <title>emoji_u1f1fa_1f1ec</title>
  <path fill="#000000" d="M0 500H1100V300H0Z"/>
  <path fill="#d90000" d="M0 1000H1100V800H0Z"/>
  <path fill="#d1b703" d="M0 600H1100V400H0Z"/>
  <path fill="#f6b703" d="M0 900H1100V700H0Z"/>
  <path fill="#554a01" d="M0 800H500V600H0ZM600 800H1100V600H600Z"/>
  <path fill="#e54a01" d="M0 700H500V500H0ZM600 700H1100V500H600Z"/>
  <path fill="#6d0000" d="M0 700H400V800H500V500H400V600H0ZM600 800H700V700H1100V600H700V500H600Z"/>
  <path fill="#ea7027" d="M400 700H700V500H400Z"/>
  <path fill="#796c23" d="M500 800H700V600H500Z"/>
  <path fill="#7b7027" d="M400 800H600V600H400Z"/>
  <path fill="#c6ba71" d="M400 700H500V800H600V700H700V600H400Z"/>
  <path fill="#deb364" d="M400 700H700V600H600V500H500V600H400Z"/>
  <path fill="#a39897" d="M400 700H700V600H400Z"/>
  <path fill="#bf8080" d="M600 700H700V600H600Z"/>
  <path fill="#c49898" d="M400 700H500V600H400Z"/>
</svg>
