<?xml version="1.0" encoding="UTF-8"?>
<svg xmlns="http://www.w3.org/2000/svg" viewBox="0 0 1200 1200" width="1200" height="1200">
  <title>emoji_u1f69b</title>
  <path fill="#c7c9c9" d="M0 1000H200V700H0Z"/>
  <path fill="#f92610" d="M0 1000H400V700H200V600H300V500H400V300H500V100H300V200H200V400H100V500H0V800H100V900H0Z"/>
  <path fill="#524745" d="M0 1100H100V1200H200V1100H300V1200H400V1100H700V1200H800V1100H900V1200H1000V1100H1100V800H600V900H500V800H300V900H0Z"/>
  <path fill="#808378" d="M300 900H400V1000H500V1100H600V1000H700V900H800V1000H900V900H1000V1000H1100V800H300ZM200 1000H300V900H200ZM100 1100H200V1000H100ZM300 1100H400V1000H300ZM700 1100H800V1000H700ZM900 1100H1000V1000H900Z"/>
  <path fill="#c6c7c1" d="M300 300H1100V100H400V200H300ZM300 900H1100V700H300Z"/>
  <path fill="#4f8b26" d="M300 400H1100V200H300ZM300 900H400V800H1100V600H300Z"/>
  <path fill="#d70617" d="M100 800H300V900H400V700H500V300H400V200H300V400H200V600H100ZM0 1000H100V900H0ZM100 1100H200V1000H100Z"/>
  <path fill="#e1e1e1" d="M400 700H1100V300H400Z"/>
  <path fill="#c8c8c8" d="M100 1100H200V1000H100ZM300 1100H400V1000H300ZM700 1100H800V1000H700ZM900 1100H1000V1000H900Z"/>
  <path fill="#b0e2fd" d="M100 700H300V400H200V500H100Z"/>
  <path fill="#b0b0b0" d="M500 700H600V300H500ZM700 700H800V300H700ZM900 700H1000V300H900Z"/>
</svg>
