<?xml version="1.0" encoding="UTF-8"?>
<svg xmlns="http://www.w3.org/2000/svg" viewBox="0 0 1200 1200" width="1200" height="1200">
  <title>emoji_u1f1f2_1f1ed</title>
  <path fill="#51648c" d="M0 1000H200V800H0Z"/>
  <path fill="#835c3c" d="M900 500H1100V300H900Z"/>
  <path fill="#053c95" d="M100 500H400V300H100Z"/>
  <path fill="#083e96" d="M100 1000H400V800H100Z"/>
  <path fill="#0a3f97" d="M0 700H200V400H0Z"/>
  <path fill="#103c88" d="M800 500H1100V400H1000V300H800Z"/>
  <path fill="#12469b" d="M900 800H1100V500H900Z"/>
  <path fill="#526fa1" d="M0 900H100V1000H200V900H300V800H0Z"/>
  <path fill="#e69b46" d="M900 600H1100V400H900Z"/>
  <path fill="#f8fafc" d="M900 700H1000V600H1100V500H1000V400H900Z"/>
  <path fill="#003893" d="M0 900H300V1000H1100V700H1000V600H800V500H1000V400H900V300H300V400H200V300H0V500H100V600H0Z"/>
  <path fill="#013993" d="M400 900H600V800H700V700H400Z"/>
  <path fill="#023992" d="M600 600H900V400H700V500H600Z"/>
  <path fill="#3461a9" d="M100 600H300V400H100Z"/>
  <path fill="#354b7a" d="M100 900H300V700H200V800H100Z"/>
  <path fill="#3c67ac" d="M300 900H500V800H600V700H300Z"/>
  <path fill="#466eb0" d="M100 700H200V800H300V500H100Z"/>
  <path fill="#5278b6" d="M100 600H400V400H200V500H100Z"/>
  <path fill="#585059" d="M700 600H1000V400H800V500H700Z"/>
  <path fill="#6889bf" d="M800 700H1000V500H800Z"/>
  <path fill="#96a0b7" d="M200 900H400V800H500V700H200Z"/>
  <path fill="#adbfdc" d="M100 600H200V700H300V500H100Z"/>
  <path fill="#b39982" d="M200 900H300V800H400V700H200Z"/>
  <path fill="#cc700c" d="M800 600H1000V400H900V500H800Z"/>
  <path fill="#f8e2c9" d="M800 700H900V600H1000V500H800Z"/>
  <path fill="#023a94" d="M200 800H500V600H400V400H300V500H200Z"/>
  <path fill="#0a3e94" d="M200 800H400V700H300V600H200Z"/>
  <path fill="#184b9d" d="M200 700H300V600H400V500H200ZM400 700H500V600H400Z"/>
  <path fill="#2353a2" d="M600 800H800V700H900V600H600Z"/>
  <path fill="#2e4574" d="M500 700H800V500H600V600H500Z"/>
  <path fill="#5f555b" d="M200 700H300V600H200ZM300 800H500V600H400V700H300Z"/>
  <path fill="#688abf" d="M200 700H300V500H200Z"/>
  <path fill="#809cc9" d="M500 800H700V700H800V600H500Z"/>
  <path fill="#af6920" d="M600 700H900V500H700V600H600Z"/>
  <path fill="#c4d1e6" d="M700 700H900V500H800V600H700Z"/>
  <path fill="#d8d1cd" d="M400 800H600V700H700V600H400Z"/>
  <path fill="#dae2ef" d="M200 600H300V500H200Z"/>
  <path fill="#dca76e" d="M400 800H500V700H600V600H400Z"/>
  <path fill="#e8a04f" d="M800 600H900V500H800ZM700 700H800V600H700Z"/>
  <path fill="#133d87" d="M400 700H600V600H400Z"/>
  <path fill="#885f3d" d="M500 700H700V600H500Z"/>
  <path fill="#e7a55b" d="M600 700H800V600H600Z"/>
  <path fill="#f8e6d2" d="M700 700H800V600H700Z"/>
</svg>
