<?xml version="1.0" encoding="UTF-8"?>
<svg xmlns="http://www.w3.org/2000/svg" viewBox="0 0 1200 1200" width="1200" height="1200">
  <title>emoji_u1f99d</title>
  <path fill="#a0a0a0" d="M0 600H300V500H500V400H600V500H800V600H1100V500H1000V200H800V300H700V200H400V300H300V200H100V500H0ZM0 900H100V1000H200V1100H900V1000H1000V900H1100V800H800V900H300V800H0Z"/>
  <path fill="#797b7e" d="M0 900H300V500H0V700H100V800H0ZM800 900H1100V800H1000V700H1100V500H800Z"/>
  <path fill="#5b626a" d="M200 500H400V400H300V300H200ZM700 500H900V300H800V400H700Z"/>
  <path fill="#202121" d="M200 900H300V1000H800V900H900V600H600V800H500V600H200Z"/>
  <path fill="#c8c8c8" d="M100 900H200V1000H400V900H700V1000H900V900H1000V800H700V600H800V700H900V600H1000V500H900V400H700V300H400V400H200V500H100V600H200V700H300V600H400V800H100Z"/>
  <path fill="#54595f" d="M100 900H400V800H500V500H200V800H100ZM300 800V700H400V800ZM600 800H700V900H1000V800H900V500H600ZM700 800V700H800V800ZM500 900H600V800H500Z"/>
  <path fill="#474c52" d="M500 900H600V800H500Z"/>
  <path fill="#ffffff" d="M300 700H400V600H300ZM700 700H800V600H700Z"/>
</svg>
