<?xml version="1.0" encoding="UTF-8"?>
<svg xmlns="http://www.w3.org/2000/svg" viewBox="0 0 1200 1200" width="1200" height="1200">
  <title>emoji_u1f696</title>
  <path fill="#e1e1e1" d="M300 400H900V300H800V200H700V100H500V200H400V300H300Z"/>
  <path fill="#4e433d" d="M200 1200H300V1100H400V1000H200ZM800 1100H900V1200H1000V1000H800Z"/>
  <path fill="#ffa828" d="M100 1000H200V1100H1000V1000H1100V800H800V900H400V800H100Z"/>
  <path fill="#ffeaca" d="M100 900H500V600H100ZM700 900H1100V600H700Z"/>
  <path fill="#ffd61c" d="M100 900H300V1000H900V900H1100V800H1000V700H1100V500H1000V400H900V300H700V200H500V300H300V400H200V500H100V700H200V800H100ZM300 800V700H400V800ZM800 800V700H900V800Z"/>
  <path fill="#444e47" d="M100 600H200V500H100ZM1000 600H1100V500H1000ZM400 800H800V700H400ZM300 1000H900V900H300Z"/>
  <path fill="#4a4542" d="M500 300H700V200H500Z"/>
  <path fill="#ffffff" d="M200 800H300V700H200ZM900 800H1000V700H900Z"/>
  <path fill="#afe3fb" d="M300 600H900V400H300Z"/>
  <path fill="#96c8eb" d="M400 600H500V500H400ZM700 600H800V500H700Z"/>
</svg>
