<?xml version="1.0" encoding="UTF-8"?>
<svg xmlns="http://www.w3.org/2000/svg" viewBox="0 0 1200 1200" width="1200" height="1200">
  <title>emoji_u1f412</title>
  <path fill="#b5885e" d="M100 1200H400V800H200V1000H100Z"/>
  <path fill="#ffcd88" d="M200 1100H300V1200H600V800H200V900H300V1000H200Z"/>
  <path fill="#b5885d" d="M0 500H100V700H200V900H500V1000H400V1100H500V1200H800V1100H900V1000H800V700H700V500H800V600H900V200H800V400H700V200H600V100H200V200H100V400H0ZM900 200H1000V100H900ZM1000 400H1100V200H1000ZM900 1000H1000V600H900Z"/>
  <path fill="#845a54" d="M200 900H600V800H200ZM600 1000H700V900H600ZM100 1100H500V1000H100ZM500 1200H600V1100H500Z"/>
  <path fill="#000504" d="M100 500H200V600H600V500H700V400H600V200H200V400H100Z"/>
  <path fill="#ffcf8c" d="M200 700H600V500H500V300H600V200H200V300H300V500H200ZM100 500H200V400H100ZM600 500H700V400H600Z"/>
  <path fill="#ff6b19" d="M300 600H500V500H300Z"/>
</svg>
