<?xml version="1.0" encoding="UTF-8"?>
<svg xmlns="http://www.w3.org/2000/svg" viewBox="0 0 1200 1200" width="1200" height="1200">
  <title>emoji_u1f940</title>
  <path fill="#cc0b1e" d="M700 700H900V600H1000V500H1100V300H900V500H700Z"/>
  <path fill="#f7153a" d="M800 600H1000V400H800Z"/>
  <path fill="#748138" d="M400 200H600V100H400ZM500 400H600V600H800V500H900V400H1000V200H800V100H700V200H600V300H500ZM0 800H100V700H200V600H300V1200H400V800H500V900H600V1000H700V800H600V700H400V200H300V500H100V600H0Z"/>
  <path fill="#cd0e1e" d="M600 600H700V700H800V600H900V500H1000V400H1100V300H1000V200H900V300H800V400H700V500H600ZM1000 900H1100V700H1000ZM800 1100H900V1000H800ZM900 1200H1000V1100H900Z"/>
  <path fill="#96030d" d="M1000 400H1100V300H1000ZM800 600H900V500H1000V400H800ZM700 700H800V600H700Z"/>
</svg>
