<?xml version="1.0" encoding="UTF-8"?>
<svg xmlns="http://www.w3.org/2000/svg" viewBox="0 0 1200 1200" width="1200" height="1200">
  <title>emoji_u1f47b</title>
  <path fill="#e0e0e0" d="M0 700H100V800H200V500H100V600H0ZM900 800H1000V700H1100V600H1000V500H900Z"/>
  <path fill="#cccccc" d="M100 1100H300V1000H400V1100H500V1000H600V1100H700V1000H800V1100H1000V300H900V200H800V600H700V700H600V800H200V900H100Z"/>
  <path fill="#ffffff" d="M100 1000H300V900H700V800H800V700H900V200H800V100H300V200H200V300H100Z"/>
  <path fill="#ef337d" d="M400 700H500V800H600V700H700V600H400Z"/>
  <path fill="#362510" d="M300 500H500V300H400V400H300ZM600 500H700V400H600ZM400 700H700V600H400Z"/>
</svg>
