<?xml version="1.0" encoding="UTF-8"?>
<svg xmlns="http://www.w3.org/2000/svg" viewBox="0 0 1200 1200" width="1200" height="1200">
  <title>emoji_u1f995</title>
  <path fill="#04841f" d="M100 1200H400V800H200V1100H100ZM500 1100H600V1200H900V1000H500Z"/>
  <path fill="#bdce46" d="M0 700H100V800H200V900H300V1100H400V1200H500V1100H800V1200H900V1100H1000V1000H1100V800H1000V900H500V700H400V600H300V500H400V400H500V300H400V200H200V300H100V400H0Z"/>
  <path fill="#02ab47" d="M0 700H100V500H200V400H300V300H400V200H300V100H200V200H100V300H0ZM800 700H900V800H1000V900H1100V600H1000V500H800ZM300 1200H500V1000H800V1200H1000V900H900V800H800V700H700V600H500V700H400V600H300V800H400V1000H300Z"/>
  <path fill="#7cdb8a" d="M600 700H700V600H600ZM400 800H500V700H400ZM500 900H600V800H500ZM700 900H800V800H700Z"/>
  <path fill="#303030" d="M200 400H300V300H200Z"/>
</svg>
