<?xml version="1.0" encoding="UTF-8"?>
<svg xmlns="http://www.w3.org/2000/svg" viewBox="0 0 1200 1200" width="1200" height="1200">
  <title>emoji_u1f3ad</title>
  <path fill="#fcc21b" d="M300 800H400V1000H500V1100H600V1200H900V1100H1000V1000H1100V600H1000V500H700V400H600V500H500V600H400V700H300Z"/>
  <path fill="#429adf" d="M0 600H100V700H200V800H500V700H600V600H700V200H600V100H100V200H0ZM600 800H700V700H600Z"/>
  <path fill="#9b7515" d="M600 800H700V700H600ZM800 800H900V700H800ZM600 1100H700V1000H800V1100H900V900H600Z"/>
  <path fill="#193d51" d="M200 400H300V300H200ZM400 400H500V300H400ZM200 600H300V500H200ZM400 600H500V500H400ZM300 700H400V600H300Z"/>
</svg>
