<?xml version="1.0" encoding="UTF-8"?>
<svg xmlns="http://www.w3.org/2000/svg" viewBox="0 0 1200 1200" width="1200" height="1200">
  <title>emoji_u1f514</title>
  <path fill="#9e740b" d="M500 200H600V100H500ZM500 400H800V300H700V200H600V300H500Z"/>
  <path fill="#4e342e" d="M100 1100H400V1200H700V1100H1000V900H100Z"/>
  <path fill="#e2a610" d="M500 200H600V100H500ZM300 400H500V800H600V900H900V400H800V300H500V200H400V300H300ZM400 1200H700V1100H400Z"/>
  <path fill="#ffca28" d="M100 1000H1000V800H900V400H800V300H300V400H200V800H100ZM600 700V400H700V500H800V800H700V700Z"/>
  <path fill="#fff59d" d="M300 800H400V600H500V400H300ZM200 1000H500V900H200ZM600 1000H700V900H600Z"/>
</svg>
