<?xml version="1.0" encoding="UTF-8"?>
<svg xmlns="http://www.w3.org/2000/svg" viewBox="0 0 1200 1200" width="1200" height="1200">
  <title>emoji_u1f9ab</title>
  <path fill="#694d42" d="M600 1000H800V900H1000V800H1100V600H900V700H800V600H600ZM0 1200H300V1100H400V1200H600V1000H500V900H100V1100H0Z"/>
  <path fill="#8a6c5b" d="M700 700H800V600H700ZM900 700H1000V600H900ZM600 1000H700V900H800V800H700V700H600ZM800 800H900V700H800ZM1000 800H1100V700H1000ZM900 900H1000V800H900Z"/>
  <path fill="#b38a6d" d="M0 900H100V1000H200V1100H300V1000H400V1100H600V1000H700V700H800V500H700V400H600V200H500V100H100V200H0V500H100V700H0Z"/>
  <path fill="#825b4e" d="M0 300H100V200H0ZM500 300H600V200H500ZM100 400H200V300H100ZM600 500H700V400H600ZM100 700H400V600H300V500H200V600H100ZM500 600H600V500H500ZM0 800H100V700H0ZM400 800H600V700H400Z"/>
  <path fill="#ffecb3" d="M200 700H300V400H200Z"/>
  <path fill="#212121" d="M100 400H200V300H100ZM300 400H400V300H300ZM200 500H300V400H200Z"/>
</svg>
