<?xml version="1.0" encoding="UTF-8"?>
<svg xmlns="http://www.w3.org/2000/svg" viewBox="0 0 1200 1200" width="1200" height="1200">
  <title>emoji_u1f9ce_1f3fe_200d_2642_200d_27a1</title>
  <path fill="#7c7c7c" d="M400 1000H500V900H700V1200H900V1100H800V700H400Z"/>
  <path fill="#616161" d="M200 1200H500V900H400V1100H200Z"/>
  <path fill="#4568ac" d="M200 1200H300V1100H200ZM700 1200H900V1100H700Z"/>
  <path fill="#3c2c23" d="M400 400H600V300H700V100H400Z"/>
  <path fill="#00b49c" d="M400 800H700V700H600V400H700V300H400Z"/>
  <path fill="#a56c43" d="M400 400H700V200H500V300H400ZM500 700H600V500H500ZM600 800H800V700H600Z"/>
</svg>
