<?xml version="1.0" encoding="UTF-8"?>
<svg xmlns="http://www.w3.org/2000/svg" viewBox="0 0 1200 1200" width="1200" height="1200">
  <title>emoji_u1f606</title>
  <path fill="#eb8f00" d="M0 1000H100V1100H200V1200H900V1100H1000V1000H1100V300H1000V200H900V100H200V200H100V300H0Z"/>
  <path fill="#fde030" d="M100 1000H200V1100H900V1000H1000V300H900V200H200V300H100Z"/>
  <path fill="#ed7770" d="M300 1000H800V800H300Z"/>
  <path fill="#422b0d" d="M300 400H400V300H300ZM700 400H800V300H700ZM400 500H500V400H400ZM600 500H700V400H600ZM300 600H400V500H300ZM700 600H800V500H700ZM200 900H300V1000H400V900H700V1000H800V900H900V700H800V800H300V700H200Z"/>
</svg>
