<?xml version="1.0" encoding="UTF-8"?>
<svg xmlns="http://www.w3.org/2000/svg" viewBox="0 0 1200 1200" width="1200" height="1200">
  <title>emoji_u1f366</title>
  <path fill="#f5b03e" d="M300 900H400V1200H800V800H300Z"/>
  <path fill="#e27f13" d="M300 900H500V1100H400V1200H800V900H900V700H300ZM600 1100V900H700V1100Z"/>
  <path fill="#ffffff" d="M200 700H300V800H500V600H600V400H700V100H400V200H500V300H400V400H300V600H200Z"/>
  <path fill="#eac084" d="M300 800H900V700H1000V600H900V400H800V200H700V100H500V200H600V300H400V400H500V500H400V400H300V600H400V700H300ZM200 700H300V600H200Z"/>
  <path fill="#ffebca" d="M400 200H600V100H400ZM600 300H700V200H600ZM400 400H500V300H400ZM300 600H400V400H300ZM500 500H800V400H500ZM200 700H300V600H200ZM400 700H800V600H400Z"/>
</svg>
