<?xml version="1.0" encoding="UTF-8"?>
<svg xmlns="http://www.w3.org/2000/svg" viewBox="0 0 1200 1200" width="1200" height="1200">
  <title>emoji_u1f92c</title>
  <path fill="#d84213" d="M0 1000H100V1100H200V1200H300V900H200V400H300V300H800V400H900V900H800V1200H900V1100H1000V1000H1100V300H1000V200H900V100H200V200H100V300H0Z"/>
  <path fill="#ffffff" d="M300 1200H800V700H300Z"/>
  <path fill="#000000" d="M100 1000H200V1200H400V800H700V900H500V1000H700V1100H500V1200H900V1000H1000V600H100Z"/>
  <path fill="#fac742" d="M100 1000H200V700H900V1000H1000V300H900V200H200V300H100Z"/>
  <path fill="#422b0d" d="M200 400H300V600H400V500H500V400H400V300H200ZM600 500H700V600H800V400H900V300H700V400H600Z"/>
</svg>
