<?xml version="1.0" encoding="UTF-8"?>
<svg xmlns="http://www.w3.org/2000/svg" viewBox="0 0 1200 1200" width="1200" height="1200">
  <title>emoji_u1f9d1_1f3fd_200d_2764_200d_1f9d1_1f3fb</title>
  <path fill="#da2e75" d="M300 400H400V500H500V600H600V500H700V400H800V200H700V100H600V200H500V100H400V200H300ZM300 600H400V500H300ZM700 600H800V500H700ZM400 700H500V600H400ZM600 700H700V600H600Z"/>
  <path fill="#5fa62c" d="M0 1200H500V1100H400V1000H500V900H0V1000H100V1100H0Z"/>
  <path fill="#ef7422" d="M600 1200H1100V1100H1000V1000H1100V900H600V1000H700V1100H600Z"/>
  <path fill="#312d2d" d="M600 1000H1100V600H1000V500H700V600H600Z"/>
  <path fill="#543930" d="M0 1000H500V600H400V500H100V600H0Z"/>
  <path fill="#ef5592" d="M400 400H500V500H600V400H700V200H600V300H500V200H400Z"/>
  <path fill="#99674f" d="M100 1000H200V1100H300V1000H400V900H100Z"/>
  <path fill="#edc391" d="M700 1000H800V1100H900V1000H1000V900H700Z"/>
  <path fill="#ba8d68" d="M100 1000H400V900H300V800H400V700H100V800H200V900H100Z"/>
  <path fill="#f9ddbd" d="M700 1000H1000V900H900V800H1000V700H700V800H800V900H700Z"/>
</svg>
