<?xml version="1.0" encoding="UTF-8"?>
<svg xmlns="http://www.w3.org/2000/svg" viewBox="0 0 1200 1200" width="1200" height="1200">
  <title>emoji_u1f9fd</title>
  <path fill="#b0e3a8" d="M0 400H100V600H300V500H200V400H300V300H200V200H100V300H0ZM300 500H400V400H300ZM700 1000H900V1100H1000V1000H1100V900H1000V700H800V800H700Z"/>
  <path fill="#d19600" d="M0 900H100V1000H200V1100H300V1200H600V1100H700V1000H800V900H900V800H1000V700H1100V400H900V500H700V700H600V900H400V600H100V800H0Z"/>
  <path fill="#eebd1c" d="M0 900H200V1000H400V1200H600V1100H700V1000H800V900H900V700H1100V600H1000V500H1100V400H1000V300H800V100H500V200H400V400H300V500H100V600H0V700H100V800H0ZM800 700V600H900V700ZM200 900V700H300V900ZM700 900V800H800V900ZM500 1100V1000H600V1100ZM900 1000H1000V900H900Z"/>
  <path fill="#ffeb3b" d="M100 700H300V900H500V800H700V700H800V600H900V500H1000V300H900V200H800V100H500V200H700V300H600V400H500V200H400V500H200V600H100ZM800 500V400H900V500ZM600 600V500H700V600ZM400 700V600H500V700Z"/>
  <path fill="#eff6ea" d="M100 400H200V300H100ZM900 1000H1000V900H900Z"/>
</svg>
