<?xml version="1.0" encoding="UTF-8"?>
<svg xmlns="http://www.w3.org/2000/svg" viewBox="0 0 1200 1200" width="1200" height="1200">
  <title>emoji_u1f9c2</title>
  <path fill="#aeb0b1" d="M200 700H300V800H800V700H900V600H800V500H700V400H800V200H700V100H400V200H300V400H400V500H300V600H200Z"/>
  <path fill="#a6cfd6" d="M400 600H500V500H400ZM600 600H700V500H600ZM200 1100H300V1200H800V1100H900V600H700V700H400V600H200Z"/>
  <path fill="#ffffff" d="M300 1100H400V800H300ZM500 1100H600V800H500ZM700 1100H800V800H700Z"/>
  <path fill="#e0e0e0" d="M400 400H700V200H400ZM400 600H700V500H400ZM300 900H400V700H300ZM500 900H600V700H500ZM700 900H800V700H700ZM500 1100H600V1000H500Z"/>
  <path fill="#5e6367" d="M400 300H500V200H400ZM600 300H700V200H600ZM500 400H600V300H500Z"/>
  <path fill="#dcedf6" d="M300 800H400V700H300ZM500 800H600V700H500ZM700 800H800V700H700Z"/>
</svg>
