<?xml version="1.0" encoding="UTF-8"?>
<svg xmlns="http://www.w3.org/2000/svg" viewBox="0 0 1200 1200" width="1200" height="1200">
  <title>emoji_u1f4e6</title>
  <path fill="#dea66c" d="M100 500H300V600H700V500H1100V300H900V200H700V100H400V200H200V300H100Z"/>
  <path fill="#966239" d="M500 1200H700V1100H900V1000H1100V300H1000V400H600V500H500Z"/>
  <path fill="#b38251" d="M200 300H300V200H200ZM0 1000H200V1100H400V1200H600V500H400V400H200V300H0ZM400 400H500V300H400ZM600 500H700V400H600Z"/>
  <path fill="#ffe0b2" d="M200 300H400V400H600V500H700V800H800V700H900V400H800V300H600V200H200Z"/>
  <path fill="#6a5139" d="M100 900H200V800H100ZM200 1000H300V900H200Z"/>
</svg>
