<?xml version="1.0" encoding="UTF-8"?>
<svg xmlns="http://www.w3.org/2000/svg" viewBox="0 0 1200 1200" width="1200" height="1200">
  <title>emoji_u1f492</title>
  <path fill="#709923" d="M0 1200H300V1000H100V1100H0ZM400 1200H800V1000H400Z"/>
  <path fill="#d82e75" d="M700 300H800V400H900V300H1000V100H900V200H700Z"/>
  <path fill="#5f4d4e" d="M0 1000H100V1100H200V1200H300V900H0ZM400 1200H500V1100H700V900H400ZM800 1200H1000V900H800Z"/>
  <path fill="#c0b5b1" d="M0 1000H200V800H0ZM500 1000H600V1100H700V1200H1000V1100H900V1000H1000V900H1100V800H500ZM200 1200H500V1000H200Z"/>
  <path fill="#d27856" d="M200 1100H300V1200H400V1100H500V900H200Z"/>
  <path fill="#f687a9" d="M700 300H900V200H800V100H700ZM0 900H1100V800H1000V700H900V600H500V500H600V400H500V300H400V200H300V300H200V400H100V500H200V600H100V700H0Z"/>
  <path fill="#ef5593" d="M900 200H1000V100H900ZM700 300H900V200H700ZM100 500H200V600H500V500H600V400H100ZM0 900H100V1000H200V1100H300V1000H400V1100H500V1000H600V900H1100V800H400V700H300V800H0ZM600 1100H700V1000H600Z"/>
  <path fill="#ebe7e6" d="M200 600H500V500H200ZM200 1100H300V1000H400V1100H500V900H400V800H300V900H200ZM600 1100H900V1000H600Z"/>
  <path fill="#feb804" d="M300 600H400V500H300Z"/>
</svg>
