<?xml version="1.0" encoding="UTF-8"?>
<svg xmlns="http://www.w3.org/2000/svg" viewBox="0 0 1200 1200" width="1200" height="1200">
  <title>emoji_u1f9fb</title>
  <path fill="#b7d5e5" d="M100 1100H200V1200H900V1100H1000V300H900V200H800V100H300V200H200V300H100Z"/>
  <path fill="#81b6cc" d="M800 400H900V300H800ZM900 1100H1000V400H900ZM400 1100H700V1000H600V900H700V800H600V700H700V600H400ZM700 1200H900V1100H700Z"/>
  <path fill="#e0e0e0" d="M100 400H200V700H300V800H500V700H600V600H400V500H800V400H900V300H800V200H200V300H100Z"/>
  <path fill="#ffffff" d="M200 1100H600V1000H500V900H600V800H500V700H400V600H300V500H200Z"/>
  <path fill="#2f7889" d="M400 400H700V300H400Z"/>
</svg>
