<?xml version="1.0" encoding="UTF-8"?>
<svg xmlns="http://www.w3.org/2000/svg" viewBox="0 0 1200 1200" width="1200" height="1200">
  <title>emoji_u1fae6</title>
  <path fill="#ff80ab" d="M500 1000H900V800H800V700H500Z"/>
  <path fill="#ef4d8f" d="M0 700H100V800H200V900H400V1000H700V900H800V1000H900V900H1000V800H1100V500H1000V400H900V300H800V200H600V300H500V200H300V300H200V400H100V500H0ZM600 900V800H700V900Z"/>
  <path fill="#c51162" d="M100 700H200V800H400V700H500V600H100Z"/>
  <path fill="#3e2723" d="M100 700H300V600H100ZM500 700H600V800H900V700H1000V600H500Z"/>
  <path fill="#ffffff" d="M200 700H900V600H800V500H300V600H200Z"/>
</svg>
