<?xml version="1.0" encoding="UTF-8"?>
<svg xmlns="http://www.w3.org/2000/svg" viewBox="0 0 1200 1200" width="1200" height="1200">
  <title>emoji_u1f961</title>
  <path fill="#e0e0e0" d="M100 1000H200V1100H400V1200H600V500H400V400H300V300H100Z"/>
  <path fill="#b0b0b0" d="M100 400H200V500H300V600H500V800H400V900H500V1000H400V1100H500V1200H700V1100H900V1000H1000V300H900V200H700V100H400V200H200V300H100Z"/>
  <path fill="#fe2a28" d="M100 700H200V600H100ZM200 1000H400V900H500V800H400V700H200V800H300V900H200ZM100 900H200V800H100ZM400 1100H500V1200H600V1000H400Z"/>
  <path fill="#858585" d="M500 700H600V600H700V900H800V500H900V400H1000V300H700V400H600V500H500ZM600 1000H700V900H600ZM800 1000H1000V900H800ZM500 1200H600V1000H500Z"/>
  <path fill="#ffffff" d="M400 300H500V400H600V300H700V200H400ZM200 400H300V500H500V400H400V300H200ZM600 500H800V400H900V300H700V400H600ZM500 600H600V500H500Z"/>
</svg>
