<?xml version="1.0" encoding="UTF-8"?>
<svg xmlns="http://www.w3.org/2000/svg" viewBox="0 0 1200 1200" width="1200" height="1200">
  <title>emoji_u1f1eb_1f1f2</title>
  <path fill="#78b4de" d="M400 500H700V300H400ZM400 1000H700V800H400Z"/>
  <path fill="#75b2dd" d="M0 1000H500V900H600V1000H1100V300H600V400H500V300H0Z"/>
  <path fill="#b0d3ec" d="M500 500H600V400H500ZM500 900H600V800H500Z"/>
  <path fill="#76b3dd" d="M300 800H400V700H500V600H400V500H300ZM600 700H700V800H800V500H700V600H600Z"/>
  <path fill="#7eb7df" d="M300 700H500V600H300ZM600 700H800V600H600Z"/>
  <path fill="#a7cee9" d="M300 700H400V600H300ZM700 700H800V600H700Z"/>
</svg>
