<?xml version="1.0" encoding="UTF-8"?>
<svg xmlns="http://www.w3.org/2000/svg" viewBox="0 0 1200 1200" width="1200" height="1200">
  <title>emoji_u1f3b9</title>
  <path fill="#82aec0" d="M0 1100H100V1200H1000V1100H1100V200H900V700H200V200H0Z"/>
  <path fill="#000000" d="M0 300H100V800H1000V300H1100V100H0Z"/>
  <path fill="#ffffff" d="M100 1100H300V800H400V1100H600V800H700V1100H900V800H1000V700H800V300H700V700H500V300H400V700H200V300H100Z"/>
  <path fill="#757575" d="M200 800H400V700H200ZM500 800H700V700H500ZM800 800H1000V700H800Z"/>
</svg>
