<?xml version="1.0" encoding="UTF-8"?>
<svg xmlns="http://www.w3.org/2000/svg" viewBox="0 0 1200 1200" width="1200" height="1200">
  <title>emoji_u1f4f9</title>
  <path fill="#b9e4ea" d="M0 700H300V400H200V500H0Z"/>
  <path fill="#37474f" d="M700 300H800V400H1000V200H900V100H800V200H700ZM0 800H200V900H300V1000H400V400H200V600H100V500H0Z"/>
  <path fill="#455a64" d="M500 500H1000V300H900V200H700V300H600V400H500Z"/>
  <path fill="#5c7986" d="M200 600H300V700H400V400H300V500H200ZM0 600H100V500H0ZM100 700H200V600H100Z"/>
  <path fill="#546e7a" d="M300 1100H400V1200H1100V400H1000V300H900V400H800V300H700V400H300Z"/>
  <path fill="#82aec0" d="M700 400H800V300H700ZM900 400H1000V300H900ZM600 600H900V1000H800V1100H1000V500H600ZM100 800H200V600H100ZM500 800H600V700H500Z"/>
  <path fill="#f44336" d="M400 600H500V500H400Z"/>
  <path fill="#263238" d="M500 1000H600V1100H900V1000H700V900H500Z"/>
</svg>
