<?xml version="1.0" encoding="UTF-8"?>
<svg xmlns="http://www.w3.org/2000/svg" viewBox="0 0 1200 1200" width="1200" height="1200">
  <title>emoji_u1f6bc</title>
  <path fill="#194fa5" d="M0 1100H100V1200H1000V1100H1100V200H1000V100H900V1000H0Z"/>
  <path fill="#2262dd" d="M0 1100H1000V100H100V200H0Z"/>
  <path fill="#579ae4" d="M200 300H300V200H200ZM100 400H200V300H100Z"/>
  <path fill="#ffffff" d="M400 400H600V200H400ZM100 600H200V500H100ZM300 600H400V700H600V600H700V500H300ZM800 600H900V500H800ZM200 700H300V600H200ZM700 700H800V600H700ZM300 900H400V1000H600V900H700V800H300ZM200 1000H300V900H200ZM700 1000H800V900H700ZM300 1100H400V1000H300ZM600 1100H700V1000H600Z"/>
</svg>
