<?xml version="1.0" encoding="UTF-8"?>
<svg xmlns="http://www.w3.org/2000/svg" viewBox="0 0 1200 1200" width="1200" height="1200">
  <title>emoji_u1f504</title>
  <path fill="#427687" d="M0 1100H100V1200H1000V1100H1100V200H1000V100H900V1000H0Z"/>
  <path fill="#8cafbf" d="M0 1100H1000V100H100V200H0Z"/>
  <path fill="#a0c8d6" d="M100 500H300V400H400V200H200V300H100Z"/>
  <path fill="#fafafa" d="M100 500H200V600H300V700H400V500H800V400H400V200H300V300H200V400H100ZM800 600H900V500H800ZM200 900H600V1100H700V1000H800V900H900V800H800V700H700V600H600V800H200ZM100 800H200V700H100Z"/>
</svg>
