<?xml version="1.0" encoding="UTF-8"?>
<svg xmlns="http://www.w3.org/2000/svg" viewBox="0 0 1200 1200" width="1200" height="1200">
  <title>emoji_u1f36b</title>
  <path fill="#e4e0e8" d="M600 1200H700V1100H800V1000H900V900H1000V800H1100V700H1000V600H900V700H800V800H700V900H600Z"/>
  <path fill="#b0b3af" d="M500 1100H600V1200H700V1000H500Z"/>
  <path fill="#dc0d28" d="M500 1100H700V1000H800V900H900V800H1000V600H900V400H700V700H600V800H500Z"/>
  <path fill="#865c50" d="M0 600H100V700H200V800H500V700H600V600H700V500H800V400H700V300H600V200H500V100H400V200H300V300H200V400H100V500H0Z"/>
  <path fill="#50352f" d="M400 300H500V200H400ZM300 400H400V300H300ZM500 400H600V300H500ZM200 500H300V400H200ZM400 500H500V400H400ZM0 600H100V700H200V800H300V900H500V800H600V600H800V400H600V500H500V600H400V700H300V600H200V500H0ZM300 600H400V500H300Z"/>
  <path fill="#e0e0e0" d="M300 1000H600V900H700V800H800V500H900V400H700V500H500V700H400V800H300Z"/>
  <path fill="#b0091b" d="M500 800H600V900H700V800H800V700H700V600H600V700H500ZM300 900H400V800H300ZM400 1000H500V1100H600V900H400Z"/>
  <path fill="#ffffff" d="M500 600H600V500H500ZM700 600H800V500H700ZM600 700H700V600H600ZM500 800H600V700H500ZM300 900H400V800H300Z"/>
</svg>
