<?xml version="1.0" encoding="UTF-8"?>
<svg xmlns="http://www.w3.org/2000/svg" viewBox="0 0 1200 1200" width="1200" height="1200">
  <title>emoji_u1fa74</title>
  <path fill="#006ca8" d="M0 600H100V700H200V800H300V900H400V1000H500V1100H900V1000H1000V900H1100V700H900V800H800V900H600V800H500V700H400V600H300V500H200V400H0Z"/>
  <path fill="#0d6bdb" d="M300 500H500V700H600V900H900V600H800V400H600V300H400V200H300Z"/>
  <path fill="#34a9ae" d="M0 500H100V600H200V700H300V800H400V900H500V1000H900V900H1000V800H1100V700H1000V600H900V700H800V800H600V700H500V600H400V500H300V400H200V300H0Z"/>
  <path fill="#86cdc7" d="M0 400H100V500H200V600H300V700H400V800H500V900H900V800H1000V600H900V500H800V400H700V600H600V400H400V200H100V300H0ZM700 800V700H800V800Z"/>
  <path fill="#00a5ff" d="M400 700H700V600H400Z"/>
</svg>
