<?xml version="1.0" encoding="UTF-8"?>
<svg xmlns="http://www.w3.org/2000/svg" viewBox="0 0 1200 1200" width="1200" height="1200">
  <title>emoji_u1f422</title>
  <path fill="#bdcf47" d="M0 900H100V1200H300V1100H500V1200H700V1100H900V1200H1000V1100H1100V700H900V800H700V700H600V400H100V500H0Z"/>
  <path fill="#484e23" d="M100 500H500V800H600V900H1000V800H1100V500H1000V300H900V200H400V300H300V400H100Z"/>
  <path fill="#6e823a" d="M400 400H500V500H800V400H900V300H400ZM800 600H900V800H1000V500H800ZM600 800H800V600H600Z"/>
  <path fill="#2a2b28" d="M100 700H200V600H100ZM300 700H400V600H300ZM200 800H300V700H200Z"/>
</svg>
