<?xml version="1.0" encoding="UTF-8"?>
<svg xmlns="http://www.w3.org/2000/svg" viewBox="0 0 1200 1200" width="1200" height="1200">
  <title>emoji_u1f68e</title>
  <path fill="#607d8b" d="M0 200H800V300H900V200H1100V100H0Z"/>
  <path fill="#82aec0" d="M900 200H1000V100H900ZM800 300H900V200H800ZM500 500H900V400H800V300H600V400H500Z"/>
  <path fill="#608c3d" d="M0 1100H200V1200H300V900H0ZM400 1100H800V900H400Z"/>
  <path fill="#5c9aad" d="M900 200H1000V100H900Z"/>
  <path fill="#f44336" d="M900 1100H1100V800H900Z"/>
  <path fill="#ffa000" d="M0 1000H200V800H0Z"/>
  <path fill="#e0e0e0" d="M0 900H300V600H900V900H1100V500H1000V400H100V500H0Z"/>
  <path fill="#5d4037" d="M100 1000H200V1200H400V1100H500V1000H700V1100H800V1200H1000V1100H1100V1000H1000V900H1100V800H700V900H500V800H100Z"/>
  <path fill="#ffca28" d="M0 900H100V1000H200V900H400V1000H800V900H1100V800H1000V700H200V800H0Z"/>
  <path fill="#37474f" d="M0 700H100V500H0ZM200 800H1000V600H900V500H300V600H200Z"/>
  <path fill="#88b151" d="M100 1000H200V900H100ZM400 1000H800V900H400ZM200 1100H400V1000H200ZM800 1100H900V1000H800Z"/>
  <path fill="#9e9e9e" d="M200 1100H400V1000H200ZM800 1100H1000V1000H800Z"/>
  <path fill="#bae2fd" d="M200 700H400V500H200ZM500 700H700V500H500ZM800 700H1000V500H800Z"/>
</svg>
