<?xml version="1.0" encoding="UTF-8"?>
<svg xmlns="http://www.w3.org/2000/svg" viewBox="0 0 1200 1200" width="1200" height="1200">
  <title>emoji_u1faa1</title>
  <path fill="#0091ea" d="M100 200H300V100H100ZM0 400H100V200H0ZM500 300H600V400H700V500H900V400H1000V300H1100V200H500ZM400 400H500V300H400ZM100 500H400V400H100ZM500 500H600V400H500ZM1000 700H1100V400H1000ZM300 900H400V800H500V700H600V600H300ZM900 800H1000V700H900ZM500 900H900V800H500Z"/>
  <path fill="#badadf" d="M400 700H600V600H700V500H800V300H1000V100H800V200H700V300H600V400H500V600H400ZM0 1200H100V1100H200V1000H300V900H400V700H300V800H200V900H100V1000H0Z"/>
  <path fill="#bdbdbd" d="M800 300H1100V100H900V200H800ZM600 600H800V500H900V400H800V300H700V400H600ZM500 700H600V600H500ZM300 900H400V800H300ZM200 1000H300V900H200ZM100 1100H200V1000H100ZM0 1200H100V1100H0Z"/>
  <path fill="#2f7889" d="M900 300H1000V200H900ZM700 500H800V400H700Z"/>
</svg>
