<?xml version="1.0" encoding="UTF-8"?>
<svg xmlns="http://www.w3.org/2000/svg" viewBox="0 0 1200 1200" width="1200" height="1200">
  <title>emoji_u1f330</title>
  <path fill="#cf701e" d="M100 1000H200V1100H900V1000H1000V900H900V800H100Z"/>
  <path fill="#a82209" d="M100 500H1000V400H900V300H800V200H300V300H200V400H100Z"/>
  <path fill="#f5b03e" d="M400 500H700V400H600V300H700V200H600V100H500V200H400V300H500V400H400Z"/>
  <path fill="#912610" d="M0 700H200V600H900V700H1100V500H1000V400H100V500H0Z"/>
  <path fill="#543121" d="M0 900H100V1000H200V900H300V1000H400V900H600V1000H700V900H800V1000H1000V900H1100V600H1000V500H900V400H800V500H600V700H400V600H500V500H400V400H200V500H100V800H0Z"/>
  <path fill="#5b301f" d="M0 900H200V600H0ZM300 800H700V600H300ZM800 800H900V600H800ZM1000 900H1100V700H1000Z"/>
  <path fill="#812914" d="M200 500H300V400H200ZM0 800H100V700H200V500H100V600H0ZM300 700H700V600H800V700H900V500H300ZM1000 800H1100V600H1000Z"/>
  <path fill="#6a2d1b" d="M100 700H200V600H100ZM300 700H700V600H300ZM800 700H900V600H800ZM0 800H100V700H0ZM1000 800H1100V700H1000Z"/>
  <path fill="#d06150" d="M200 500H300V400H200ZM100 700H200V500H100Z"/>
</svg>
