<?xml version="1.0" encoding="UTF-8"?>
<svg xmlns="http://www.w3.org/2000/svg" viewBox="0 0 1200 1200" width="1200" height="1200">
  <title>emoji_u1f351</title>
  <path fill="#82b032" d="M100 200H200V300H400V400H700V300H900V200H1000V100H600V200H500V100H100Z"/>
  <path fill="#e71932" d="M200 1000H300V1100H500V1200H600V1100H800V1000H900V900H200Z"/>
  <path fill="#69a246" d="M100 400H1000V300H900V200H600V300H500V200H200V300H100Z"/>
  <path fill="#f0372f" d="M100 900H200V1000H500V1100H600V1000H900V900H1000V800H100Z"/>
  <path fill="#ff9759" d="M0 500H1100V400H1000V300H100V400H0Z"/>
  <path fill="#f4432e" d="M0 800H100V900H600V1000H700V900H1000V800H1100V700H0Z"/>
  <path fill="#ff8e51" d="M0 600H1100V400H600V300H500V400H300V300H200V400H0Z"/>
  <path fill="#fd6933" d="M0 800H600V900H700V800H1100V600H0Z"/>
  <path fill="#ff8146" d="M0 700H1100V500H700V400H600V500H200V400H100V500H0Z"/>
  <path fill="#fe743c" d="M0 700H600V800H700V700H1100V600H700V500H600V600H0Z"/>
  <path fill="#febd92" d="M200 400H300V300H200ZM100 500H200V400H100Z"/>
  <path fill="#e72f23" d="M600 1000H700V600H600ZM500 1100H600V1000H500Z"/>
  <path fill="#f34124" d="M500 400H600V300H500ZM600 700H700V400H600Z"/>
</svg>
