<?xml version="1.0" encoding="UTF-8"?>
<svg xmlns="http://www.w3.org/2000/svg" viewBox="0 0 1200 1200" width="1200" height="1200">
  <title>emoji_u1f3a9</title>
  <path fill="#757575" d="M200 400H300V800H600V400H900V200H800V100H300V200H200ZM0 1000H100V1100H200V1200H900V1100H1000V1000H1100V800H900V900H800V1000H300V900H200V800H0Z"/>
  <path fill="#424242" d="M300 200H800V100H300ZM100 1000H200V1100H800V1000H1000V800H900V200H800V300H300V200H200V800H100ZM400 700V400H500V700Z"/>
  <path fill="#bb303d" d="M100 1000H300V900H600V1000H1000V900H900V700H800V600H600V700H200V900H100Z"/>
  <path fill="#212121" d="M600 700H800V400H600ZM100 1000H200V1100H300V900H100ZM600 1000H700V1100H900V1000H1000V900H600Z"/>
  <path fill="#ed6c66" d="M400 900H500V700H400Z"/>
</svg>
