<?xml version="1.0" encoding="UTF-8"?>
<svg xmlns="http://www.w3.org/2000/svg" viewBox="0 0 1200 1200" width="1200" height="1200">
  <title>emoji_u2668</title>
  <path fill="#ff8a80" d="M0 1100H100V1200H800V1000H300V900H0Z"/>
  <path fill="#f44336" d="M100 500H200V800H400V500H300V300H400V100H200V300H100ZM400 500H500V800H700V500H600V300H700V100H500V300H400ZM700 500H800V800H1000V500H900V300H1000V100H800V300H700ZM0 1100H100V1000H200V1100H700V1200H1000V1100H1100V800H1000V900H200V800H0ZM100 1200H200V1100H100Z"/>
  <path fill="#cc3333" d="M300 300H400V100H300ZM600 300H700V100H600ZM900 300H1000V100H900ZM200 500H300V300H200ZM500 500H600V300H500ZM800 500H900V300H800ZM300 800H400V500H300ZM600 800H700V500H600ZM900 800H1000V500H900ZM100 900H200V800H100ZM1000 1100H1100V800H1000ZM200 1000H600V900H200ZM900 1200H1000V1100H900Z"/>
</svg>
