<?xml version="1.0" encoding="UTF-8"?>
<svg xmlns="http://www.w3.org/2000/svg" viewBox="0 0 1200 1200" width="1200" height="1200">
  <title>emoji_u1fa80</title>
  <path fill="#d8ccc7" d="M500 200H600V300H800V100H500ZM300 800H600V600H500V200H400V700H300Z"/>
  <path fill="#db0d2a" d="M200 1100H300V1200H700V1100H800V1000H900V800H800V700H700V600H500V700H300V800H200Z"/>
  <path fill="#871e0e" d="M500 700H600V600H500ZM600 800H700V700H600ZM700 1000H800V800H700Z"/>
  <path fill="#ff5f5f" d="M300 1100H400V1000H500V1100H600V900H500V800H400V900H300Z"/>
</svg>
