<?xml version="1.0" encoding="UTF-8"?>
<svg xmlns="http://www.w3.org/2000/svg" viewBox="0 0 1200 1200" width="1200" height="1200">
  <title>emoji_u1f6c4</title>
  <path fill="#194fa5" d="M0 1100H100V1200H1000V1100H1100V200H1000V100H900V1000H0Z"/>
  <path fill="#2262dd" d="M0 1100H1000V100H100V200H0Z"/>
  <path fill="#68abe6" d="M200 300H300V200H200ZM100 500H200V300H100Z"/>
  <path fill="#fafafa" d="M300 900H800V400H700V200H400V400H300ZM500 400V300H600V400ZM100 900H200V400H100ZM900 900H1000V400H900ZM100 1100H200V1000H100ZM300 1100H400V1000H300ZM500 1100H600V1000H500ZM700 1100H800V1000H700ZM900 1100H1000V1000H900Z"/>
</svg>
