<?xml version="1.0" encoding="UTF-8"?>
<svg xmlns="http://www.w3.org/2000/svg" viewBox="0 0 1200 1200" width="1200" height="1200">
  <title>emoji_u1f524</title>
  <path fill="#427687" d="M0 1100H100V1200H1000V1100H1100V200H1000V100H900V1000H0Z"/>
  <path fill="#8cafbf" d="M0 1100H1000V900H1100V800H1000V500H1100V400H1000V100H100V200H0Z"/>
  <path fill="#fafafa" d="M100 500H200V300H100ZM400 900H600V800H500V700H600V600H500V500H600V400H400ZM900 500H1100V400H900ZM0 900H100V700H200V900H300V500H200V600H100V500H0ZM600 600H700V500H600ZM800 800H900V500H800ZM600 800H700V700H600ZM900 900H1100V800H900Z"/>
  <path fill="#a0c8d6" d="M200 300H300V200H200ZM100 400H200V300H100Z"/>
</svg>
