<?xml version="1.0" encoding="UTF-8"?>
<svg xmlns="http://www.w3.org/2000/svg" viewBox="0 0 1200 1200" width="1200" height="1200">
  <title>emoji_u1f39f</title>
  <path fill="#ed6c66" d="M0 900H100V1000H1000V900H1100V800H1000V700H1100V600H1000V500H1100V400H1000V300H100V400H0V500H100V600H0V700H100V800H0Z"/>
  <path fill="#bb303d" d="M200 900H900V400H200ZM400 700V600H700V800H600V700Z"/>
  <path fill="#6e3f39" d="M300 800H600V700H400V600H700V700H800V500H300Z"/>
  <path fill="#9d504a" d="M300 800H400V500H300ZM700 800H800V500H700Z"/>
</svg>
