<?xml version="1.0" encoding="UTF-8"?>
<svg xmlns="http://www.w3.org/2000/svg" viewBox="0 0 1200 1200" width="1200" height="1200">
  <title>emoji_u1f468_1f3fd_200d_1f692</title>
  <path fill="#d2302c" d="M0 500H100V600H300V500H500V400H600V500H800V600H1000V500H1100V400H900V200H800V100H300V200H200V400H0Z"/>
  <path fill="#e83b32" d="M100 1200H1000V1000H900V900H800V800H600V1000H500V800H300V900H200V1000H100Z"/>
  <path fill="#543930" d="M100 600H200V800H400V400H200V500H100ZM700 800H900V600H1000V500H900V400H700Z"/>
  <path fill="#99674f" d="M200 800H300V900H400V1100H700V900H800V800H900V700H800V600H700V800H400V600H300V700H200Z"/>
  <path fill="#ffe322" d="M300 1200H500V1100H600V1200H800V1100H700V900H800V800H300V900H400V1100H300ZM500 1000V900H600V1000Z"/>
  <path fill="#ef5350" d="M200 500H300V600H800V500H900V400H700V300H400V400H200ZM100 600H200V500H100ZM900 600H1000V500H900Z"/>
  <path fill="#ba8d68" d="M300 900H800V500H300Z"/>
  <path fill="#ffec54" d="M400 400H700V300H600V200H500V300H400Z"/>
  <path fill="#49362e" d="M400 800H500V600H400ZM600 800H700V600H600Z"/>
  <path fill="#613e31" d="M500 400H600V300H500Z"/>
</svg>
