<?xml version="1.0" encoding="UTF-8"?>
<svg xmlns="http://www.w3.org/2000/svg" viewBox="0 0 1200 1200" width="1200" height="1200">
  <title>emoji_u1f62d</title>
  <path fill="#eb8f00" d="M0 1000H100V1100H200V400H300V300H800V400H900V1100H1000V1000H1100V300H1000V200H900V100H200V200H100V300H0ZM400 1200H700V1000H400Z"/>
  <path fill="#29b6f6" d="M100 1100H200V1200H500V1100H600V1200H900V1100H1000V500H700V900H500V400H200V900H100Z"/>
  <path fill="#fde030" d="M100 1000H200V1100H300V500H400V800H800V600H900V1000H1000V300H900V200H200V300H100ZM400 1000H500V1100H600V1000H700V900H400Z"/>
  <path fill="#81d4fa" d="M600 1000H700V1100H800V600H900V500H800V400H700V500H600V600H700V700H600ZM200 1100H300V500H200Z"/>
  <path fill="#422b0d" d="M200 300H300V200H200ZM800 300H900V200H800ZM100 400H200V300H100ZM900 400H1000V300H900ZM300 500H400V400H300ZM700 500H800V400H700ZM200 600H300V500H200ZM400 600H500V500H400ZM600 600H700V500H600ZM800 600H900V500H800ZM400 1000H700V700H400Z"/>
  <path fill="#ffffff" d="M400 800H700V700H400Z"/>
</svg>
