<?xml version="1.0" encoding="UTF-8"?>
<svg xmlns="http://www.w3.org/2000/svg" viewBox="0 0 1200 1200" width="1200" height="1200">
  <title>emoji_u1f5fd</title>
  <path fill="#ffffff" d="M0 400H300V300H200V200H300V100H100V200H0Z"/>
  <path fill="#25836e" d="M800 1100H900V1200H1100V900H1000V700H1100V400H1000V300H900V600H800Z"/>
  <path fill="#ffe365" d="M100 200H300V100H100ZM0 500H300V300H100V200H0Z"/>
  <path fill="#42a18e" d="M400 300H500V200H400ZM400 1200H1000V1000H900V700H1000V300H800V200H700V300H500V400H400V700H500V900H400ZM1000 300H1100V200H1000ZM0 800H100V900H200V800H300V400H0Z"/>
  <path fill="#add4c1" d="M500 500H600V400H500ZM600 800H700V900H800V800H900V700H800V600H900V500H800V400H700V500H600V600H700V700H600ZM900 500H1000V400H900ZM0 700H100V600H200V700H300V500H0ZM100 1100H200V700H100ZM400 1200H500V1100H600V1000H500V900H400ZM700 1100H800V1000H700ZM600 1200H700V1100H600ZM800 1200H900V1100H800Z"/>
  <path fill="#484a4e" d="M500 500H600V400H500ZM700 500H800V400H700ZM900 500H1000V400H900Z"/>
</svg>
