<?xml version="1.0" encoding="UTF-8"?>
<svg xmlns="http://www.w3.org/2000/svg" viewBox="0 0 1200 1200" width="1200" height="1200">
  <title>emoji_u1f1ff_1f1fc</title>
  <path fill="#006400" d="M100 500H1100V300H100ZM100 1000H1100V800H100Z"/>
  <path fill="#85a285" d="M0 500H200V300H0ZM0 1000H200V800H0Z"/>
  <path fill="#006100" d="M0 500H300V400H200V300H100V400H0ZM0 900H100V1000H200V900H300V800H0Z"/>
  <path fill="#ffffff" d="M0 600H200V400H0ZM0 900H200V700H0Z"/>
  <path fill="#f5c7c6" d="M0 800H200V500H0Z"/>
  <path fill="#fae1e1" d="M0 600H100V700H200V400H100V500H0Z"/>
  <path fill="#fbe6e6" d="M0 800H100V900H200V600H100V700H0Z"/>
  <path fill="#fed200" d="M200 600H1100V400H200ZM200 900H1100V700H200Z"/>
  <path fill="#d40100" d="M300 800H1100V500H300Z"/>
  <path fill="#020000" d="M300 800H400V700H1100V600H400V500H300Z"/>
  <path fill="#f4c901" d="M100 600H400V500H300V400H100ZM100 900H300V800H400V700H100Z"/>
  <path fill="#c9820b" d="M100 800H300V500H100Z"/>
  <path fill="#d1c28c" d="M100 600H300V500H200V400H100Z"/>
  <path fill="#d1c690" d="M100 900H200V800H300V700H100Z"/>
  <path fill="#e99c80" d="M100 600H200V700H300V500H100Z"/>
  <path fill="#f0d6c1" d="M100 800H300V600H200V700H100Z"/>
  <path fill="#ca0302" d="M200 800H400V500H200Z"/>
  <path fill="#c78786" d="M200 700H400V600H300V500H200Z"/>
  <path fill="#ca9695" d="M200 800H300V700H400V600H200Z"/>
  <path fill="#fceded" d="M200 700H400V600H200Z"/>
  <path fill="#696767" d="M300 700H400V600H300Z"/>
</svg>
