<?xml version="1.0" encoding="UTF-8"?>
<svg xmlns="http://www.w3.org/2000/svg" viewBox="0 0 1200 1200" width="1200" height="1200">
  <title>emoji_u1f1e6_1f1f4</title>
  <path fill="#1f1916" d="M0 1000H1100V600H600V800H500V700H400V600H0Z"/>
  <path fill="#d8241b" d="M0 700H500V600H700V700H1100V300H0Z"/>
  <path fill="#7a1e18" d="M0 700H300V800H500V500H400V600H0ZM700 700H1100V600H800V500H700Z"/>
  <path fill="#251e16" d="M400 900H700V700H400Z"/>
  <path fill="#272016" d="M300 800H400V900H500V800H600V700H300Z"/>
  <path fill="#352c16" d="M500 800H600V900H800V800H700V700H500Z"/>
  <path fill="#3b3116" d="M600 800H700V700H600ZM700 900H800V800H700Z"/>
  <path fill="#de481a" d="M500 600H800V500H700V400H500Z"/>
  <path fill="#df4a1a" d="M400 600H700V500H600V400H500V500H400Z"/>
  <path fill="#241d16" d="M300 800H500V600H400V700H300Z"/>
  <path fill="#6d5d17" d="M400 800H600V600H400Z"/>
  <path fill="#766417" d="M500 800H700V700H800V600H500Z"/>
  <path fill="#9e8717" d="M400 700H500V800H600V700H700V600H400Z"/>
  <path fill="#d8261b" d="M600 700H800V500H600Z"/>
  <path fill="#d9281b" d="M400 700H600V500H400Z"/>
  <path fill="#e3611a" d="M500 700H800V600H700V500H500Z"/>
  <path fill="#e56e1a" d="M400 700H700V600H600V500H500V600H400Z"/>
  <path fill="#7b2418" d="M600 700H800V600H600Z"/>
  <path fill="#8a2d19" d="M400 700H700V600H400Z"/>
  <path fill="#a35a18" d="M600 700H700V600H600Z"/>
  <path fill="#a84f19" d="M400 700H500V600H400Z"/>
</svg>
