<?xml version="1.0" encoding="UTF-8"?>
<svg xmlns="http://www.w3.org/2000/svg" viewBox="0 0 1200 1200" width="1200" height="1200">
  <title>emoji_u1f474_1f3fd</title>
  <path fill="#c2c2c2" d="M200 800H400V300H300V400H200ZM800 800H1000V400H900V300H800Z"/>
  <path fill="#99674f" d="M200 800H300V900H400V600H300V700H200ZM800 900H900V800H1000V700H900V600H800Z"/>
  <path fill="#ba8d68" d="M300 1100H400V1200H800V1100H900V300H800V200H400V300H300Z"/>
  <path fill="#5d4037" d="M400 1000H500V900H400ZM700 1000H800V900H700ZM500 1100H700V1000H500Z"/>
  <path fill="#49362e" d="M400 800H500V600H400ZM700 800H800V600H700Z"/>
  <path fill="#91674d" d="M400 500H800V400H400Z"/>
</svg>
