<?xml version="1.0" encoding="UTF-8"?>
<svg xmlns="http://www.w3.org/2000/svg" viewBox="0 0 1200 1200" width="1200" height="1200">
  <title>emoji_u1f9b9_200d_2640</title>
  <path fill="#1c1e1e" d="M100 700H200V800H400V500H700V800H900V700H1000V600H900V500H1000V400H900V200H800V100H300V200H200V400H100V500H200V600H100Z"/>
  <path fill="#0e2b52" d="M0 400H100V200H0ZM1000 400H1100V200H1000ZM100 500H200V400H100ZM900 500H1000V400H900ZM0 700H200V600H0ZM0 1200H500V1100H600V1200H1100V900H1000V800H900V700H800V600H600V700H500V600H300V700H200V800H100V900H0ZM900 700H1100V600H900Z"/>
  <path fill="#04559a" d="M200 1200H900V900H800V1100H700V900H600V1000H500V900H400V1100H300V900H200Z"/>
  <path fill="#e90000" d="M300 700H800V400H500V300H400V400H300ZM500 1200H600V1100H500Z"/>
  <path fill="#eaeaea" d="M300 700H400V800H700V700H800V500H700V600H600V500H700V400H600V300H400V500H500V600H400V500H300Z"/>
  <path fill="#c9c9c9" d="M400 800H700V700H400Z"/>
</svg>
