<?xml version="1.0" encoding="UTF-8"?>
<svg xmlns="http://www.w3.org/2000/svg" viewBox="0 0 1200 1200" width="1200" height="1200">
  <title>emoji_u1f9b9_1f3fb_200d_2642</title>
  <path fill="#312d2d" d="M100 500H200V600H400V400H700V600H900V500H1000V400H900V200H800V100H300V200H200V400H100Z"/>
  <path fill="#0e2b52" d="M0 400H100V200H0ZM1000 400H1100V200H1000ZM100 500H200V400H100ZM900 500H1000V400H900ZM200 600H300V500H200ZM800 600H900V500H800ZM0 700H200V600H0ZM0 1200H500V1100H600V1200H1100V900H1000V800H900V700H800V600H600V700H500V600H300V700H200V800H100V900H0ZM900 700H1100V600H900Z"/>
  <path fill="#04559a" d="M200 1200H900V900H800V1100H700V900H600V1000H500V900H400V1100H300V900H200Z"/>
  <path fill="#edc391" d="M200 600H300V700H400V800H700V700H800V600H900V500H800V400H700V600H400V400H300V500H200Z"/>
  <path fill="#e90000" d="M300 700H800V300H600V400H500V300H300ZM500 1200H600V1100H500Z"/>
  <path fill="#fcd8ae" d="M300 700H800V500H700V600H600V500H700V400H800V300H300V400H400V500H500V600H400V500H300Z"/>
</svg>
