<?xml version="1.0" encoding="UTF-8"?>
<svg xmlns="http://www.w3.org/2000/svg" viewBox="0 0 1200 1200" width="1200" height="1200">
  <title>emoji_u1f647_1f3ff_200d_2640</title>
  <path fill="#b0bec5" d="M500 200H600V100H500ZM100 300H200V200H100ZM900 300H1000V200H900Z"/>
  <path fill="#232020" d="M100 900H400V700H500V600H600V700H700V900H1000V700H900V400H800V300H300V400H200V700H100Z"/>
  <path fill="#5d18f6" d="M0 1100H100V1200H500V700H300V800H100V900H0ZM600 1200H1000V1100H1100V900H1000V800H800V700H600Z"/>
  <path fill="#4710c2" d="M300 1000H400V1200H700V1000H800V900H700V800H400V900H300Z"/>
  <path fill="#70534a" d="M300 800H400V900H700V800H800V600H700V500H400V600H300ZM300 1200H500V1000H400V1100H300ZM600 1200H800V1100H700V1000H600Z"/>
  <path fill="#1a1717" d="M400 700H500V600H400ZM600 700H700V600H600Z"/>
  <path fill="#3c2b24" d="M400 900H700V800H400Z"/>
</svg>
