<?xml version="1.0" encoding="UTF-8"?>
<svg xmlns="http://www.w3.org/2000/svg" viewBox="0 0 1200 1200" width="1200" height="1200">
  <title>emoji_u1f37b</title>
  <path fill="#ff2a23" d="M100 200H200V100H100ZM400 300H500V100H400ZM700 200H800V100H700ZM100 400H400V300H300V200H200V300H100ZM600 400H800V300H700V200H600Z"/>
  <path fill="#eaeaea" d="M0 1200H500V900H600V1100H1100V900H1000V600H800V800H700V600H400V800H300V600H100V900H0Z"/>
  <path fill="#ffebc9" d="M0 600H100V700H200V900H500V700H600V800H900V700H1000V600H1100V400H1000V300H600V400H400V300H100V400H0Z"/>
  <path fill="#fdb408" d="M600 900H700V1000H1000V900H900V800H600ZM100 1100H400V900H100Z"/>
  <path fill="#ebc990" d="M700 600H800V500H700ZM900 600H1000V500H900ZM300 700H400V600H300ZM700 800H900V600H800V700H700ZM200 900H400V800H300V700H200Z"/>
  <path fill="#ffe265" d="M600 900H800V1000H900V700H600ZM100 1000H200V1100H300V1000H400V900H500V800H200V900H100Z"/>
  <path fill="#ffffff" d="M100 600H300V700H400V600H500V500H400V400H100ZM600 600H800V500H900V600H1000V400H600ZM400 800H500V700H400Z"/>
  <path fill="#e89411" d="M100 1000H300V900H500V700H400V800H200V900H100ZM600 900H900V700H800V800H700V700H600Z"/>
  <path fill="#f7ac0a" d="M600 900H900V800H600ZM100 1000H300V900H100Z"/>
  <path fill="#db8116" d="M400 800H500V700H400Z"/>
</svg>
