<?xml version="1.0" encoding="UTF-8"?>
<svg xmlns="http://www.w3.org/2000/svg" viewBox="0 0 1200 1200" width="1200" height="1200">
  <title>emoji_u1fa8e</title>
  <path fill="#02ab47" d="M800 1200H1000V1100H900V1000H800ZM1000 1100H1100V1000H1000Z"/>
  <path fill="#d6f100" d="M900 1000H1000V1100H1100V900H900Z"/>
  <path fill="#ffa826" d="M0 1200H200V1100H300V1000H100V1100H0Z"/>
  <path fill="#76ff8b" d="M700 1200H900V1000H700Z"/>
  <path fill="#ffffff" d="M900 1000H1100V800H900Z"/>
  <path fill="#5e6367" d="M0 1000H100V1100H400V1200H800V1000H500V900H800V300H1000V200H900V100H200V200H100V300H200V400H100V500H0ZM0 1200H100V1100H0Z"/>
  <path fill="#474d50" d="M200 300H500V200H200ZM400 1100H700V1200H800V1100H900V1000H1000V900H1100V300H1000V200H600V300H500V400H700V500H600V700H700V800H400ZM400 500H500V400H400ZM100 1000H300V700H100Z"/>
  <path fill="#ec8717" d="M0 600H300V700H800V500H500V400H100V500H0ZM800 800H900V700H800Z"/>
  <path fill="#fcc219" d="M200 500H300V700H700V600H800V500H500V600H400V500H500V400H200ZM800 500H900V400H800ZM100 600H200V500H100ZM0 1200H100V1100H0Z"/>
  <path fill="#ffc0a6" d="M200 500H400V400H200Z"/>
  <path fill="#ab5832" d="M800 300H900V200H800ZM700 400H800V300H700ZM800 500H1000V300H900V400H800ZM800 1000H900V900H1000V600H900V700H800Z"/>
  <path fill="#d27857" d="M300 300H500V200H300ZM600 400H800V300H900V200H700V300H600ZM300 700H400V600H300ZM200 1000H300V700H200ZM500 1100H700V800H500Z"/>
  <path fill="#ff2a23" d="M300 500H400V400H300Z"/>
  <path fill="#ffb803" d="M300 700H500V600H300Z"/>
  <path fill="#0868d4" d="M400 700H600V600H700V500H500V600H400Z"/>
  <path fill="#ff8e00" d="M400 700H600V600H400Z"/>
  <path fill="#1f87fd" d="M600 600H700V500H600ZM500 700H600V600H500Z"/>
</svg>
