<?xml version="1.0" encoding="UTF-8"?>
<svg xmlns="http://www.w3.org/2000/svg" viewBox="0 0 1200 1200" width="1200" height="1200">
  <title>emoji_u1f1eb_1f1ef</title>
  <path fill="#924766" d="M0 500H200V300H0Z"/>
  <path fill="#575e89" d="M200 500H500V300H200Z"/>
  <path fill="#613f69" d="M0 500H300V300H100V400H0Z"/>
  <path fill="#707da3" d="M400 500H700V300H400Z"/>
  <path fill="#82698b" d="M0 700H200V400H0Z"/>
  <path fill="#94819f" d="M0 800H200V500H100V600H0Z"/>
  <path fill="#974866" d="M300 500H600V400H500V300H400V400H300Z"/>
  <path fill="#9d4563" d="M100 500H400V400H300V300H200V400H100Z"/>
  <path fill="#b74d64" d="M0 500H100V600H200V400H0Z"/>
  <path fill="#68bfe5" d="M0 1000H1100V300H600V400H500V600H100V700H0Z"/>
  <path fill="#417cac" d="M100 700H300V500H100Z"/>
  <path fill="#6abde2" d="M700 900H900V700H700Z"/>
  <path fill="#6fabcb" d="M800 600H1000V400H800Z"/>
  <path fill="#74adcf" d="M700 800H800V900H900V800H1000V700H700Z"/>
  <path fill="#7a93a9" d="M700 600H900V400H700Z"/>
  <path fill="#7d91a0" d="M700 600H1000V500H900V400H800V500H700Z"/>
  <path fill="#7ec0da" d="M800 800H1000V600H800Z"/>
  <path fill="#81a1ae" d="M800 700H1000V500H800Z"/>
  <path fill="#8aaac5" d="M800 800H900V700H1000V600H900V500H800Z"/>
  <path fill="#8f86a4" d="M400 600H600V400H400Z"/>
  <path fill="#c66b7e" d="M100 600H200V700H300V400H100Z"/>
  <path fill="#c75367" d="M300 600H600V500H500V400H300Z"/>
  <path fill="#d5394b" d="M100 500H200V600H400V400H100Z"/>
  <path fill="#d85161" d="M100 500H200V400H100ZM200 600H300V500H200Z"/>
  <path fill="#db5564" d="M200 600H500V500H400V400H300V500H200Z"/>
  <path fill="#6591b8" d="M400 700H600V500H400Z"/>
  <path fill="#8181a3" d="M200 700H400V500H200Z"/>
  <path fill="#b19971" d="M700 700H900V500H700Z"/>
  <path fill="#b28298" d="M200 600H300V700H500V500H200Z"/>
  <path fill="#b7d1db" d="M700 800H900V600H700Z"/>
  <path fill="#be6c80" d="M300 700H600V600H500V500H400V600H300Z"/>
  <path fill="#be9688" d="M700 700H800V800H900V600H700Z"/>
  <path fill="#bf556a" d="M200 600H300V500H200ZM300 700H400V600H300Z"/>
  <path fill="#c67f44" d="M700 700H900V500H800V600H700Z"/>
  <path fill="#cb6373" d="M700 700H900V600H700Z"/>
  <path fill="#4f87b4" d="M300 700H500V600H300Z"/>
  <path fill="#6d85ab" d="M400 700H600V600H400Z"/>
  <path fill="#819dbe" d="M500 700H600V600H500Z"/>
  <path fill="#b18790" d="M700 700H800V600H700Z"/>
</svg>
