<?xml version="1.0" encoding="UTF-8"?>
<svg xmlns="http://www.w3.org/2000/svg" viewBox="0 0 1200 1200" width="1200" height="1200">
  <title>emoji_u1f1fa_1f1f3</title>
  <path fill="#0981cf" d="M0 1000H1100V300H0Z"/>
  <path fill="#1286d1" d="M300 800H400V900H700V800H800V700H300Z"/>
  <path fill="#0e83d0" d="M300 600H600V400H400V500H300Z"/>
  <path fill="#0e84d0" d="M500 600H800V500H700V400H500Z"/>
  <path fill="#1487d1" d="M400 800H500V900H600V800H700V700H400Z"/>
  <path fill="#1688d2" d="M400 600H700V500H600V400H500V500H400Z"/>
  <path fill="#2a92d5" d="M300 800H500V600H300ZM600 800H800V600H600Z"/>
  <path fill="#429eda" d="M300 700H500V500H300ZM600 700H800V500H600Z"/>
  <path fill="#3999d8" d="M300 700H600V500H400V600H300Z"/>
  <path fill="#48a1db" d="M400 700H700V500H500V600H400Z"/>
  <path fill="#57a9de" d="M400 800H700V600H400Z"/>
  <path fill="#5cacdf" d="M500 700H800V600H700V500H600V600H500Z"/>
  <path fill="#6cb4e2" d="M300 700H400V800H500V700H600V600H300Z"/>
  <path fill="#72b7e4" d="M500 700H600V800H700V700H800V600H500Z"/>
  <path fill="#56a9de" d="M300 700H500V600H300ZM600 700H800V600H600Z"/>
  <path fill="#58a9de" d="M500 700H700V600H500Z"/>
  <path fill="#7bbbe5" d="M400 700H600V600H400Z"/>
  <path fill="#acd5ef" d="M500 700H600V600H500Z"/>
</svg>
