<?xml version="1.0" encoding="UTF-8"?>
<svg xmlns="http://www.w3.org/2000/svg" viewBox="0 0 1200 1200" width="1200" height="1200">
  <title>emoji_u1f97e</title>
  <path fill="#e2a610" d="M0 1000H200V1100H600V1200H1000V1100H1100V800H900V900H600V800H300V700H0Z"/>
  <path fill="#a06841" d="M0 400H100V600H300V500H700V200H600V100H100V200H0ZM600 1000H1000V800H600Z"/>
  <path fill="#4e342e" d="M0 800H200V900H400V400H200V500H100V600H0Z"/>
  <path fill="#c62828" d="M400 700H500V800H600V900H900V800H1000V700H900V600H800V500H700V400H600V300H500V400H400Z"/>
  <path fill="#784d30" d="M100 700H300V800H200V900H500V1000H700V900H900V1000H1000V900H1100V800H1000V700H800V800H700V700H600V600H500V500H600V300H400V400H300V200H600V100H200V200H100V400H200V500H300V600H100ZM600 600H700V500H600ZM700 700H800V600H700ZM0 800H100V700H0Z"/>
  <path fill="#263238" d="M100 400H300V200H100Z"/>
  <path fill="#78a3ac" d="M400 700H500V600H400ZM500 800H600V700H500Z"/>
</svg>
