<?xml version="1.0" encoding="UTF-8"?>
<svg xmlns="http://www.w3.org/2000/svg" viewBox="0 0 1200 1200" width="1200" height="1200">
  <title>emoji_u1f4af</title>
  <path fill="#f44336" d="M900 200H1100V100H900ZM400 300H600V200H400ZM800 500H900V200H800ZM1100 500H1200V200H1100ZM0 500H100V700H200V800H300V600H200V300H100V400H0ZM300 600H400V300H300ZM600 600H700V700H800V500H700V300H600ZM1000 700H1100V500H1000ZM500 800H600V600H500ZM0 1000H100V700H0ZM800 800H1000V700H800ZM300 900H500V800H300ZM800 1000H1200V900H800ZM300 1100H800V1000H300ZM0 1200H300V1100H0Z"/>
</svg>
