<?xml version="1.0" encoding="UTF-8"?>
<svg xmlns="http://www.w3.org/2000/svg" viewBox="0 0 1200 1200" width="1200" height="1200">
  <title>emoji_u1f500</title>
  <path fill="#f77e00" d="M0 1100H100V1200H1000V1100H1100V200H1000V100H900V1000H0Z"/>
  <path fill="#ff9800" d="M0 1100H1000V100H100V200H0Z"/>
  <path fill="#ffb43e" d="M200 300H300V200H200ZM100 400H200V300H100ZM200 500H300V400H200Z"/>
  <path fill="#fafafa" d="M700 500H800V600H900V500H1000V400H900V300H800V400H700ZM200 500H400V400H200ZM400 600H500V500H400ZM600 600H700V500H600ZM500 700H600V600H500ZM400 800H500V700H400ZM600 800H700V700H600ZM700 900H800V1000H900V900H1000V800H900V700H800V800H700ZM200 900H400V800H200Z"/>
</svg>
