<?xml version="1.0" encoding="UTF-8"?>
<svg xmlns="http://www.w3.org/2000/svg" viewBox="0 0 1200 1200" width="1200" height="1200">
  <title>emoji_u1f47e</title>
  <path fill="#b574c3" d="M200 500H500V400H400V200H300V100H200V300H300V400H200ZM600 500H900V400H800V300H900V100H800V200H700V400H600Z"/>
  <path fill="#995aa8" d="M200 1200H400V1000H500V900H200V1000H300V1100H200ZM600 1000H700V1200H900V1100H800V1000H900V900H600Z"/>
  <path fill="#b271c0" d="M0 700H400V600H500V700H600V600H700V700H1100V400H1000V600H900V400H200V600H100V400H0Z"/>
  <path fill="#a666b5" d="M100 800H200V1000H900V800H1000V700H700V800H600V600H500V800H400V700H100Z"/>
  <path fill="#ae6ebc" d="M0 700H100V800H400V600H0ZM500 700H600V600H500ZM700 800H1000V700H1100V600H700Z"/>
</svg>
