<?xml version="1.0" encoding="UTF-8"?>
<svg xmlns="http://www.w3.org/2000/svg" viewBox="0 0 1200 1200" width="1200" height="1200">
  <title>emoji_u1f9be</title>
  <path fill="#819eab" d="M800 900H900V1100H1100V800H1000V700H800Z"/>
  <path fill="#9aacb2" d="M800 1200H1000V1100H1100V1000H1000V900H900V1000H800Z"/>
  <path fill="#b4baba" d="M0 1000H200V500H0Z"/>
  <path fill="#93a8b0" d="M0 1100H200V800H100V900H0Z"/>
  <path fill="#d3cac3" d="M200 300H600V100H300V200H200ZM0 600H100V1000H500V1200H900V1100H1000V1000H800V900H1000V800H900V700H600V800H400V700H200V300H100V400H0Z"/>
  <path fill="#d9c6b6" d="M100 500H400V200H200V300H100Z"/>
  <path fill="#466b7d" d="M0 1100H100V1200H700V1100H600V800H500V900H400V1000H300V900H200V800H400V500H500V400H600V100H500V200H300V400H200V300H100V1000H0ZM700 1100H1000V900H700Z"/>
  <path fill="#90a4ae" d="M500 400H600V100H500ZM300 500H500V400H400V200H300ZM100 800H200V700H400V600H300V500H200V400H100ZM700 1000H900V1100H1000V800H700ZM100 1100H300V1200H600V1100H500V900H100Z"/>
  <path fill="#c6b3a1" d="M500 200H600V100H500ZM500 400H600V300H500ZM300 500H400V400H300ZM100 1100H300V1000H200V900H100ZM700 1000H900V900H700Z"/>
  <path fill="#89a3ad" d="M100 1100H200V900H100Z"/>
  <path fill="#cec7c1" d="M100 1000H200V900H100Z"/>
</svg>
