<?xml version="1.0" encoding="UTF-8"?>
<svg xmlns="http://www.w3.org/2000/svg" viewBox="0 0 1200 1200" width="1200" height="1200">
  <title>emoji_u1f9b1</title>
  <path fill="#000000" d="M0 300H100V200H200V100H0ZM300 200H500V100H300ZM600 200H800V100H600ZM900 200H1000V300H1100V100H900ZM0 600H100V400H0ZM1000 600H1100V400H1000ZM0 900H100V700H0ZM1000 900H1100V700H1000ZM0 1200H200V1100H100V1000H0ZM900 1200H1100V1000H1000V1100H900ZM300 1200H500V1100H300ZM600 1200H800V1100H600Z"/>
  <path fill="#3f2720" d="M200 900H300V1000H400V900H500V800H400V700H500V600H700V800H600V900H700V1000H800V900H900V800H800V700H900V500H800V400H700V300H600V400H500V300H400V400H300V500H200V700H300V800H200Z"/>
  <path fill="#67473d" d="M300 700H500V600H600V700H700V800H600V900H800V500H700V400H600V500H500V400H400V500H300ZM300 900H500V800H300Z"/>
</svg>
