<?xml version="1.0" encoding="UTF-8"?>
<svg xmlns="http://www.w3.org/2000/svg" viewBox="0 0 1200 1200" width="1200" height="1200">
  <title>emoji_u1f3af</title>
  <path fill="#1f87fd" d="M800 400H1000V300H1100V200H1000V100H900V200H800Z"/>
  <path fill="#006ca9" d="M800 400H1000V300H1100V200H900V300H800ZM500 700H800V600H900V500H800V400H700V300H600V400H500Z"/>
  <path fill="#fb2b22" d="M0 1000H100V1100H200V1200H700V1000H900V500H700V600H600V500H700V300H200V400H100V500H0Z"/>
  <path fill="#cc1935" d="M500 1100H600V1200H700V1100H800V1000H900V900H800V600H700V700H600V600H500V900H600V1000H500Z"/>
  <path fill="#ffffff" d="M100 1000H200V1100H700V900H600V1000H300V900H200V600H300V500H700V400H200V500H100ZM700 900H800V500H700ZM300 900H600V600H300Z"/>
  <path fill="#c8c8c8" d="M400 800H500V900H600V600H500V700H400ZM600 1100H700V1000H800V800H700V900H600Z"/>
  <path fill="#acb1b5" d="M500 700H600V600H500ZM400 800H500V700H400Z"/>
</svg>
