<?xml version="1.0" encoding="UTF-8"?>
<svg xmlns="http://www.w3.org/2000/svg" viewBox="0 0 1200 1200" width="1200" height="1200">
  <title>emoji_u1f516</title>
  <path fill="#de7340" d="M200 200H300V100H200ZM100 500H500V300H400V200H300V400H100ZM0 400H100V300H0Z"/>
  <path fill="#4e342e" d="M100 500H200V600H400V400H100Z"/>
  <path fill="#874d36" d="M200 600H400V500H500V300H400V400H300V500H200ZM100 500H200V400H100Z"/>
  <path fill="#f44336" d="M100 700H200V800H300V900H400V1000H500V1100H600V1200H700V1100H800V900H1000V800H1100V700H1000V600H900V500H800V400H700V300H600V200H500V300H400V500H500V600H400V500H200V600H100Z"/>
  <path fill="#fcebcd" d="M500 800H600V900H700V800H800V700H700V600H600V700H500Z"/>
</svg>
