<?xml version="1.0" encoding="UTF-8"?>
<svg xmlns="http://www.w3.org/2000/svg" viewBox="0 0 1200 1200" width="1200" height="1200">
  <title>emoji_u1f3ea</title>
  <path fill="#9a9a9a" d="M0 1200H1100V1100H1000V1000H100V1100H0Z"/>
  <path fill="#ed6d30" d="M0 600H900V500H800V100H100V500H0Z"/>
  <path fill="#ffffff" d="M100 600H700V500H600V400H700V300H600V100H500V200H400V100H200V200H300V300H400V400H500V500H400V400H300V300H200V500H100Z"/>
  <path fill="#e1e1e1" d="M0 800H100V1100H500V800H600V1100H1000V800H1100V500H0Z"/>
  <path fill="#02ab46" d="M0 600H1100V500H0Z"/>
  <path fill="#178bfd" d="M0 800H400V900H700V800H1100V700H0Z"/>
  <path fill="#a7d0d6" d="M200 1000H300V900H200ZM800 1000H900V900H800Z"/>
  <path fill="#00c1ec" d="M400 1100H700V800H400Z"/>
  <path fill="#b0e4ff" d="M500 1100H600V800H500Z"/>
</svg>
