<?xml version="1.0" encoding="UTF-8"?>
<svg xmlns="http://www.w3.org/2000/svg" viewBox="0 0 1200 1200" width="1200" height="1200">
  <title>emoji_u2615</title>
  <path fill="#b6a99b" d="M100 400H200V300H300V100H200V200H100ZM400 400H500V300H600V100H500V200H400ZM700 400H800V300H900V100H800V200H700Z"/>
  <path fill="#e0e0e0" d="M0 1000H100V1100H200V1200H700V1100H800V1000H900V900H1000V800H1100V600H800V500H100V600H0Z"/>
  <path fill="#6aa5ac" d="M900 800H1000V700H900Z"/>
  <path fill="#ffffff" d="M200 800H300V700H200ZM100 1000H200V1100H300V900H200V800H100Z"/>
  <path fill="#b59075" d="M200 800H700V600H200Z"/>
  <path fill="#6d4b41" d="M200 700H300V600H200ZM500 800H700V600H600V700H500ZM300 800H400V700H300Z"/>
</svg>
