<?xml version="1.0" encoding="UTF-8"?>
<svg xmlns="http://www.w3.org/2000/svg" viewBox="0 0 1200 1200" width="1200" height="1200">
  <title>emoji_u1f695</title>
  <path fill="#feead0" d="M0 900H200V500H0Z"/>
  <path fill="#ff2825" d="M900 900H1100V500H900Z"/>
  <path fill="#9a9a9a" d="M300 400H900V300H800V200H700V100H500V200H400V300H300Z"/>
  <path fill="#ffd61c" d="M0 1000H1100V800H1000V600H1100V500H1000V400H900V300H300V400H200V500H0V600H100V800H0Z"/>
  <path fill="#4e433d" d="M400 700H500V800H600V700H700V800H800V700H900V600H400ZM100 1000H200V1100H300V1000H400V900H300V800H200V900H100ZM400 900H500V800H400ZM600 900H700V800H600ZM700 1000H800V1100H900V1000H1000V900H900V800H800V900H700Z"/>
  <path fill="#c8c8c8" d="M200 1000H300V900H200ZM800 1000H900V900H800Z"/>
  <path fill="#ffffff" d="M100 700H200V600H100Z"/>
  <path fill="#afe3fb" d="M300 700H900V500H800V400H400V500H300Z"/>
  <path fill="#536f7d" d="M300 700H900V600H300Z"/>
  <path fill="#dd801b" d="M400 700H500V600H400Z"/>
</svg>
