<?xml version="1.0" encoding="UTF-8"?>
<svg xmlns="http://www.w3.org/2000/svg" viewBox="0 0 1200 1200" width="1200" height="1200">
  <title>emoji_u1f4ba</title>
  <path fill="#858585" d="M500 700H700V600H500ZM400 1100H500V1200H600V1100H700V1000H400Z"/>
  <path fill="#172789" d="M300 900H600V800H500V700H600V600H300ZM800 1100H1000V1000H900V900H800Z"/>
  <path fill="#182b85" d="M200 500H400V200H300V100H200Z"/>
  <path fill="#9b9b9b" d="M200 1000H300V1100H900V900H200Z"/>
  <path fill="#0c66c8" d="M100 700H200V800H300V1000H900V800H400V400H300V100H100Z"/>
  <path fill="#024fac" d="M300 700H600V600H500V500H400V400H300Z"/>
  <path fill="#b0b0b0" d="M200 1000H800V900H400V700H600V600H300V700H200Z"/>
</svg>
