<?xml version="1.0" encoding="UTF-8"?>
<svg xmlns="http://www.w3.org/2000/svg" viewBox="0 0 1200 1200" width="1200" height="1200">
  <title>emoji_u1f595_1f3ff</title>
  <path fill="#58382b" d="M100 800H200V1000H300V1100H400V1200H800V1100H900V1000H1000V800H400V700H600V500H700V700H1000V500H900V400H800V200H700V100H600V200H500V400H300V500H200V600H100Z"/>
  <path fill="#000000" d="M300 800H800V900H900V1000H1000V500H900V600H800V200H600V400H500V600H400V500H300ZM700 1000H800V900H700ZM800 1100H900V1000H800ZM700 1200H800V1100H700Z"/>
  <path fill="#70534a" d="M300 900H400V1000H500V900H700V1000H800V900H900V600H800V700H700V200H600V700H500V600H400V700H300Z"/>
</svg>
