<?xml version="1.0" encoding="UTF-8"?>
<svg xmlns="http://www.w3.org/2000/svg" viewBox="0 0 1200 1200" width="1200" height="1200">
  <title>emoji_u1f3dd</title>
  <path fill="#179cf5" d="M0 1200H1100V1000H1000V900H800V1000H300V900H100V1000H0Z"/>
  <path fill="#76f8ff" d="M0 1100H100V1200H200V1100H300V1000H0ZM400 1100H500V1200H600V1100H700V1000H400ZM800 1100H900V1200H1000V1100H1100V1000H800Z"/>
  <path fill="#728137" d="M200 600H400V500H500V600H600V500H700V600H900V400H800V300H900V100H600V200H500V100H200V300H300V400H200Z"/>
  <path fill="#a2672b" d="M200 1100H500V900H700V800H600V400H500V800H300V900H200Z"/>
  <path fill="#dc8124" d="M500 700H600V600H500ZM400 1000H700V800H400Z"/>
  <path fill="#f6c973" d="M100 1100H1000V1000H900V900H800V800H600V900H500V800H300V900H400V1000H300V900H200V1000H100Z"/>
  <path fill="#eda052" d="M400 1000H700V800H600V900H500V800H400Z"/>
  <path fill="#bdcf47" d="M400 400H500V500H600V400H700V300H600V200H500V300H400Z"/>
</svg>
