<?xml version="1.0" encoding="UTF-8"?>
<svg xmlns="http://www.w3.org/2000/svg" viewBox="0 0 1200 1200" width="1200" height="1200">
  <title>emoji_u1f417</title>
  <path fill="#ffeac9" d="M100 700H300V600H200V400H100Z"/>
  <path fill="#543731" d="M500 500H700V600H1100V500H1000V400H1100V300H1000V200H900V100H800V200H700V300H500Z"/>
  <path fill="#ffd3b0" d="M0 900H100V1000H200V1100H300V1000H400V600H100V700H0Z"/>
  <path fill="#503430" d="M200 1100H300V1200H600V1100H700V800H400V900H200Z"/>
  <path fill="#865b52" d="M200 1000H500V1100H300V1200H1000V1100H1100V500H800V400H900V200H800V300H700V400H600V300H500V400H400V600H200V700H300V900H200ZM500 1000V900H600V1000ZM100 900H200V700H100Z"/>
  <path fill="#47302d" d="M100 900H200V700H100Z"/>
  <path fill="#090a0b" d="M600 700H700V500H600Z"/>
  <path fill="#b79277" d="M700 900H800V800H700ZM800 1000H900V900H800Z"/>
  <path fill="#ffeaca" d="M400 1000H500V800H400Z"/>
</svg>
