<?xml version="1.0" encoding="UTF-8"?>
<svg xmlns="http://www.w3.org/2000/svg" viewBox="0 0 1200 1200" width="1200" height="1200">
  <title>emoji_u2622</title>
  <path fill="#f2a600" d="M300 1100H400V1200H700V1100H900V1000H1000V800H1100V500H1000V400H900V700H800V900H600V1000H300Z"/>
  <path fill="#ffec8c" d="M0 600H400V500H500V400H600V100H400V200H200V300H100V500H0Z"/>
  <path fill="#ffcc32" d="M0 800H100V1000H200V1100H700V1000H900V800H1000V300H900V200H700V100H400V200H500V300H400V400H300V500H0ZM200 300H300V200H200ZM100 400H200V300H100Z"/>
  <path fill="#000000" d="M200 700H400V600H500V400H300V500H200ZM600 600H700V700H900V500H800V400H600ZM500 700H600V600H500ZM300 900H400V1000H700V900H800V800H700V700H600V800H500V700H400V800H300Z"/>
</svg>
