<?xml version="1.0" encoding="UTF-8"?>
<svg xmlns="http://www.w3.org/2000/svg" viewBox="0 0 1200 1200" width="1200" height="1200">
  <title>emoji_u1f478_1f3fd</title>
  <path fill="#fff59d" d="M100 600H200V700H400V300H300V200H200V100H100ZM400 300H700V100H500V200H400ZM800 400H1100V100H1000V200H900V300H800Z"/>
  <path fill="#583c33" d="M100 600H200V500H100ZM200 1200H500V1000H400V900H500V800H700V900H800V1000H700V1200H1000V600H1100V500H300V600H200Z"/>
  <path fill="#ffca28" d="M100 600H200V500H300V600H1100V100H1000V300H800V200H700V100H600V200H400V300H200V200H100Z"/>
  <path fill="#ba8d68" d="M300 1100H400V1200H800V1100H900V800H800V700H400V800H300Z"/>
  <path fill="#ab47bc" d="M100 600H200V400H100ZM400 600H800V500H700V400H500V500H400ZM900 600H1100V400H1000V500H900Z"/>
  <path fill="#e2a610" d="M300 600H1100V500H900V400H800V500H400V400H300ZM100 600H200V500H100Z"/>
  <path fill="#6119ff" d="M300 500H400V400H300ZM800 500H900V400H800Z"/>
  <path fill="#49362e" d="M400 1000H500V800H400ZM700 1000H800V800H700Z"/>
</svg>
