<?xml version="1.0" encoding="UTF-8"?>
<svg xmlns="http://www.w3.org/2000/svg" viewBox="0 0 1200 1200" width="1200" height="1200">
  <title>emoji_u1f5fc</title>
  <path fill="#ee3e23" d="M300 700H400V800H500V700H600V100H500V300H400V600H300ZM300 1000H400V800H300ZM400 1200H600V900H500V1000H400ZM200 1200H300V1000H200Z"/>
  <path fill="#e3e1df" d="M300 700H400V800H500V900H600V300H500V400H400V500H500V600H300Z"/>
  <path fill="#cd3001" d="M500 1200H700V1000H600V800H700V700H800V600H700V300H600V200H500ZM700 1000H800V800H700ZM800 1200H900V1000H800Z"/>
  <path fill="#c9c7ca" d="M500 300H600V200H500ZM500 500H700V400H500ZM500 800H700V700H800V600H500Z"/>
</svg>
