<?xml version="1.0" encoding="UTF-8"?>
<svg xmlns="http://www.w3.org/2000/svg" viewBox="0 0 1200 1200" width="1200" height="1200">
  <title>emoji_u1f94b</title>
  <path fill="#c9c9c9" d="M0 800H100V900H200V1100H400V1200H700V1100H900V900H1000V800H1100V400H1000V300H900V200H700V100H600V200H500V100H400V200H200V300H100V400H0Z"/>
  <path fill="#434343" d="M100 800H200V700H100ZM200 900H400V1000H300V1200H500V1100H600V1200H800V1000H700V900H900V800H400V700H300V800H200ZM900 800H1000V700H900Z"/>
  <path fill="#9a9a9a" d="M300 800H400V700H600V600H700V500H800V300H700V100H400V300H500V400H400V300H300Z"/>
  <path fill="#fefefe" d="M200 400H300V600H400V500H500V400H400V300H200ZM400 700H800V400H900V300H700V400H600V500H500V600H400ZM100 800H200V400H100ZM900 800H1000V400H900ZM400 1000H500V900H400ZM600 1000H700V900H600ZM200 1200H400V1000H200ZM700 1200H900V1000H700Z"/>
  <path fill="#606568" d="M500 900H600V800H500ZM400 1000H500V900H400ZM600 1000H700V900H600ZM500 1100H600V1000H500Z"/>
</svg>
