<?xml version="1.0" encoding="UTF-8"?>
<svg xmlns="http://www.w3.org/2000/svg" viewBox="0 0 1200 1200" width="1200" height="1200">
  <title>emoji_u1f920</title>
  <path fill="#eb8f00" d="M100 1000H200V1100H300V1200H800V1100H900V1000H1000V600H800V900H700V1000H400V900H300V600H100Z"/>
  <path fill="#4a251a" d="M0 600H100V700H200V800H300V400H200V300H0ZM800 800H900V700H1000V600H1100V300H900V400H800Z"/>
  <path fill="#826156" d="M200 400H900V200H800V100H600V200H500V100H300V200H200Z"/>
  <path fill="#a1887f" d="M100 400H200V500H900V400H1000V300H900V200H800V300H300V200H200V300H100Z"/>
  <path fill="#7a5549" d="M0 400H100V500H200V700H900V500H1000V400H1100V300H800V400H300V300H0Z"/>
  <path fill="#fde030" d="M200 1000H300V1100H800V1000H900V500H800V600H300V500H200Z"/>
  <path fill="#422b0d" d="M400 800H500V600H400ZM600 800H700V600H600ZM400 1000H500V900H400ZM600 1000H700V900H600ZM500 1100H600V1000H500Z"/>
</svg>
