<?xml version="1.0" encoding="UTF-8"?>
<svg xmlns="http://www.w3.org/2000/svg" viewBox="0 0 1200 1200" width="1200" height="1200">
  <title>emoji_u1f6d8</title>
  <path fill="#778183" d="M400 200H500V100H400ZM500 1200H1100V100H900V200H800V800H700V900H500ZM200 300H400V200H200ZM0 600H100V700H200V500H0ZM300 800H500V600H300ZM0 1200H200V1100H300V1000H200V900H0Z"/>
  <path fill="#9ea2a3" d="M400 200H500V100H400ZM400 1200H600V1000H800V900H900V800H1000V700H900V300H1000V100H900V200H800V300H700V500H600V800H500V900H400ZM200 300H300V200H200ZM500 400H600V300H500ZM1000 500H1100V400H1000ZM0 600H100V500H0ZM300 700H400V600H300ZM400 800H500V700H400ZM1000 900H1100V800H1000ZM0 1100H200V1000H100V900H0Z"/>
  <path fill="#c0c0c0" d="M800 800H900V400H800ZM700 900H800V800H700ZM600 1000H700V900H600ZM500 1200H600V1000H500Z"/>
</svg>
