<?xml version="1.0" encoding="UTF-8"?>
<svg xmlns="http://www.w3.org/2000/svg" viewBox="0 0 1200 1200" width="1200" height="1200">
  <title>emoji_u1f428</title>
  <path fill="#606468" d="M0 700H100V800H200V700H300V600H400V500H500V400H600V500H700V600H800V700H900V800H1000V700H1100V200H1000V100H700V200H400V100H100V200H0Z"/>
  <path fill="#b0b0b0" d="M100 1000H200V1100H300V1200H800V1100H900V1000H1000V600H900V500H800V400H700V300H600V200H500V300H400V400H300V500H200V600H100ZM200 400H300V300H200ZM800 400H900V300H800ZM100 500H200V400H100ZM900 500H1000V400H900Z"/>
  <path fill="#fabdbc" d="M400 1100H700V900H400Z"/>
  <path fill="#febdbe" d="M100 500H200V400H300V300H100ZM800 400H900V500H1000V300H800Z"/>
  <path fill="#303030" d="M300 700H400V600H300ZM400 1000H700V900H600V600H500V900H400ZM700 700H800V600H700Z"/>
</svg>
