<?xml version="1.0" encoding="UTF-8"?>
<svg xmlns="http://www.w3.org/2000/svg" viewBox="0 0 1200 1200" width="1200" height="1200">
  <title>emoji_u1fab2</title>
  <path fill="#728037" d="M0 300H100V100H0ZM300 200H400V100H300ZM700 200H800V100H700ZM1000 300H1100V100H1000ZM100 600H300V800H200V900H300V1000H400V500H700V1000H800V900H900V800H800V600H1000V500H900V400H800V300H700V200H400V300H300V400H200V500H100ZM100 400H200V300H100ZM900 400H1000V300H900ZM0 700H100V600H0ZM1000 700H1100V600H1000ZM100 1100H200V900H100ZM900 1100H1000V900H900ZM0 1200H100V1100H0ZM1000 1200H1100V1100H1000Z"/>
  <path fill="#02ab47" d="M300 1000H400V1100H700V1000H800V300H600V400H500V300H300Z"/>
  <path fill="#4e5725" d="M300 200H400V100H300ZM700 200H800V100H700ZM300 600H400V700H500V1000H400V1100H700V1000H600V900H700V600H800V500H700V400H400V500H300ZM500 600V500H600V600ZM300 1000H400V700H300ZM700 1000H800V900H700Z"/>
  <path fill="#79dc8a" d="M400 500H700V300H600V400H500V300H400ZM300 900H400V700H300ZM600 900H700V700H600Z"/>
  <path fill="#2f2f2f" d="M400 400H500V300H400ZM600 400H700V300H600Z"/>
</svg>
