<?xml version="1.0" encoding="UTF-8"?>
<svg xmlns="http://www.w3.org/2000/svg" viewBox="0 0 1200 1200" width="1200" height="1200">
  <title>emoji_u1f54b</title>
  <path fill="#474b4f" d="M500 1200H800V1100H1000V1000H1100V300H900V200H700V100H500V400H600V500H500Z"/>
  <path fill="#6d7276" d="M0 1000H100V1100H300V1200H600V500H500V400H600V100H400V200H200V300H0Z"/>
  <path fill="#e07e17" d="M500 700H600V600H700V700H1000V800H1100V500H1000V400H700V300H600V200H500Z"/>
  <path fill="#f5b23f" d="M0 800H100V700H400V600H500V700H600V500H700V400H600V200H500V300H400V400H100V500H0ZM700 600H1000V500H700ZM1000 700H1100V600H1000Z"/>
  <path fill="#f9df9b" d="M400 500H500V600H600V300H500V400H400ZM100 600H400V500H100ZM0 700H100V600H0Z"/>
  <path fill="#5a5f63" d="M500 400H600V100H500ZM500 1200H600V500H500Z"/>
  <path fill="#eb982b" d="M500 600H600V300H500Z"/>
  <path fill="#f6bd56" d="M500 500H600V400H500Z"/>
</svg>
