<?xml version="1.0" encoding="UTF-8"?>
<svg xmlns="http://www.w3.org/2000/svg" viewBox="0 0 1200 1200" width="1200" height="1200">
  <title>emoji_u1fa84</title>
  <path fill="#cecfd1" d="M0 1100H100V1200H200V1100H300V1000H400V900H100V1000H0Z"/>
  <path fill="#e8d7a5" d="M500 800H600V700H700V600H800V500H700V400H600V500H500Z"/>
  <path fill="#4d4d4d" d="M200 1000H400V900H500V800H600V700H300V800H200Z"/>
  <path fill="#746d59" d="M400 800H600V600H400Z"/>
  <path fill="#ffeb3b" d="M300 200H400V100H300ZM800 300H900V400H1000V300H1100V200H1000V100H900V200H800ZM200 300H300V200H200ZM400 300H500V200H400ZM300 400H400V300H300ZM800 800H900V700H800ZM1000 800H1100V700H1000ZM900 900H1000V800H900ZM800 1000H900V900H800ZM1000 1000H1100V900H1000Z"/>
  <path fill="#d4d7df" d="M0 1100H200V1000H300V800H200V900H100V1000H0Z"/>
  <path fill="#f6e4b2" d="M400 700H600V600H700V400H600V500H500V600H400Z"/>
  <path fill="#7d7663" d="M300 800H500V700H600V600H400V700H300Z"/>
  <path fill="#616161" d="M200 1000H300V900H400V800H500V700H300V800H200Z"/>
</svg>
