<?xml version="1.0" encoding="UTF-8"?>
<svg xmlns="http://www.w3.org/2000/svg" viewBox="0 0 1200 1200" width="1200" height="1200">
  <title>emoji_u1f9d2_1f3ff</title>
  <path fill="#232020" d="M100 800H200V1000H400V700H700V600H800V1000H1000V800H1100V300H1000V200H900V100H300V200H200V300H100Z"/>
  <path fill="#1a1717" d="M300 1000H400V1100H800V1000H900V500H600V600H500V500H300Z"/>
  <path fill="#70534a" d="M200 800H300V1000H400V900H500V1000H700V900H800V1000H900V800H1000V600H900V500H800V400H700V500H600V600H500V800H400V600H500V400H400V500H300V600H200ZM700 800V600H800V800ZM400 1100H500V1000H400ZM700 1100H800V1000H700Z"/>
  <path fill="#3c2b24" d="M200 800H300V600H200ZM900 800H1000V600H900Z"/>
</svg>
