<?xml version="1.0" encoding="UTF-8"?>
<svg xmlns="http://www.w3.org/2000/svg" viewBox="0 0 1200 1200" width="1200" height="1200">
  <title>emoji_u1f313</title>
  <path fill="#22404c" d="M0 800H100V1000H200V1100H400V1200H600V100H400V200H200V300H100V500H0Z"/>
  <path fill="#f1c688" d="M500 500H600V800H700V900H600V1200H700V1100H900V1000H1000V800H1100V500H1000V300H900V200H700V100H500Z"/>
  <path fill="#fce5ac" d="M600 200H700V100H600ZM400 800H500V1200H700V1000H800V900H900V1000H1000V800H1100V500H1000V700H900V600H800V700H700V400H600V200H500V300H400V500H500V600H400ZM700 300H800V400H1000V300H900V200H700ZM800 1100H900V1000H800Z"/>
  <path fill="#1b2e35" d="M300 300H400V200H300ZM200 400H300V300H200ZM100 600H200V700H300V800H500V600H400V500H500V300H400V400H300V500H200V400H100ZM200 1000H300V900H200ZM300 1100H400V1000H300Z"/>
</svg>
