<?xml version="1.0" encoding="UTF-8"?>
<svg xmlns="http://www.w3.org/2000/svg" viewBox="0 0 1200 1200" width="1200" height="1200">
  <title>emoji_u1f5d3</title>
  <path fill="#c62828" d="M900 600H1100V300H1000V200H900Z"/>
  <path fill="#94d1e0" d="M100 400H1000V200H900V300H800V200H900V100H700V200H600V300H500V200H600V100H400V200H300V300H200V200H300V100H100Z"/>
  <path fill="#a2a2a2" d="M100 1200H1100V500H1000V400H900V700H800V800H700V900H600V1000H100Z"/>
  <path fill="#af1e1e" d="M100 500H1000V300H100Z"/>
  <path fill="#fafafa" d="M100 1100H700V1000H800V900H900V800H1000V400H100ZM900 1000H1000V900H900ZM800 1100H900V1000H800Z"/>
  <path fill="#f44336" d="M100 500H500V600H600V500H1000V400H900V300H800V400H600V300H500V400H300V300H200V400H100Z"/>
  <path fill="#757575" d="M800 1100H1000V900H900V1000H800Z"/>
  <path fill="#252525" d="M400 1000H700V900H600V500H500V600H400V700H500V900H400Z"/>
</svg>
