<?xml version="1.0" encoding="UTF-8"?>
<svg xmlns="http://www.w3.org/2000/svg" viewBox="0 0 1200 1200" width="1200" height="1200">
  <title>emoji_u1f647_1f3fb</title>
  <path fill="#b0bec5" d="M500 200H600V100H500ZM100 300H200V200H100ZM900 300H1000V200H900Z"/>
  <path fill="#f9ddbc" d="M200 1200H900V1000H800V900H300V1000H200Z"/>
  <path fill="#312d2d" d="M100 900H400V800H700V900H1000V800H900V400H800V300H300V400H200V800H100Z"/>
  <path fill="#f58417" d="M0 1100H100V1200H300V1100H400V1000H500V700H300V800H100V900H0ZM600 1000H700V1100H800V1200H1000V1100H1100V900H1000V800H800V700H600Z"/>
  <path fill="#c25e08" d="M300 1000H500V1200H600V1000H800V900H700V800H400V900H300Z"/>
  <path fill="#f9ddbd" d="M300 800H400V900H700V800H800V600H700V700H600V600H700V500H400V600H500V700H400V600H300Z"/>
  <path fill="#edc391" d="M400 900H700V800H400Z"/>
</svg>
