<?xml version="1.0" encoding="UTF-8"?>
<svg xmlns="http://www.w3.org/2000/svg" viewBox="0 0 1200 1200" width="1200" height="1200">
  <title>emoji_u1f95a</title>
  <path fill="#f2a05b" d="M100 1000H200V1100H300V1200H800V1100H900V1000H1000V500H900V300H800V200H700V100H400V200H300V300H200V500H100Z"/>
  <path fill="#fecc88" d="M400 300H500V200H400ZM300 500H400V300H300Z"/>
  <path fill="#d47858" d="M800 700H900V600H800ZM600 800H700V700H600ZM300 1000H400V900H300ZM700 1000H800V900H700ZM500 1100H600V1000H500Z"/>
</svg>
