<?xml version="1.0" encoding="UTF-8"?>
<svg xmlns="http://www.w3.org/2000/svg" viewBox="0 0 1200 1200" width="1200" height="1200">
  <title>emoji_u2705</title>
  <path fill="#689f38" d="M0 1100H100V1200H1000V1100H1100V200H1000V100H900V1000H0Z"/>
  <path fill="#7cb342" d="M0 1100H1000V100H100V200H0Z"/>
  <path fill="#a4ca7b" d="M200 300H300V200H200ZM100 400H200V300H100Z"/>
  <path fill="#fbf9f9" d="M100 700H200V800H300V900H400V1000H500V900H600V800H700V700H800V600H900V500H1000V400H900V300H800V400H700V500H600V600H500V700H400V600H300V500H200V600H100Z"/>
</svg>
