<?xml version="1.0" encoding="UTF-8"?>
<svg xmlns="http://www.w3.org/2000/svg" viewBox="0 0 1200 1200" width="1200" height="1200">
  <title>emoji_u1f6d0</title>
  <path fill="#8e24aa" d="M0 1100H100V1200H1000V1100H1100V200H1000V100H900V1000H0Z"/>
  <path fill="#ab47bc" d="M0 1100H1000V100H100V200H0Z"/>
  <path fill="#b673c7" d="M100 400H400V300H300V200H200V300H100Z"/>
  <path fill="#e6d6ec" d="M100 400H300V300H100Z"/>
  <path fill="#fafafa" d="M400 300H700V200H400ZM200 400H400V300H200ZM700 400H1000V300H700ZM400 600H600V400H400ZM200 700H300V600H200ZM500 800H600V900H700V600H600V700H500ZM300 800H400V700H300ZM400 900H500V800H400ZM400 1100H900V1000H600V900H500V1000H400Z"/>
</svg>
