<?xml version="1.0" encoding="UTF-8"?>
<svg xmlns="http://www.w3.org/2000/svg" viewBox="0 0 1200 1200" width="1200" height="1200">
  <title>emoji_u1f9de</title>
  <path fill="#fece4a" d="M100 1000H200V1100H400V1000H500V900H300V800H200V900H100ZM600 1100H700V1000H600ZM400 1200H600V1100H400Z"/>
  <path fill="#ea6100" d="M600 1100H700V1200H900V1100H1000V1200H1100V1000H600Z"/>
  <path fill="#ff9b04" d="M600 1100H700V1000H600ZM700 1200H800V1100H700ZM1000 1200H1100V1100H1000Z"/>
  <path fill="#f9bf2c" d="M700 1200H900V1100H700Z"/>
  <path fill="#4fc3f7" d="M200 900H500V800H600V600H700V800H800V700H900V800H1000V500H800V200H500V500H300V800H200ZM400 800V700H500V800Z"/>
  <path fill="#f78c1f" d="M200 1000H500V900H700V800H800V600H600V700H500V800H200Z"/>
  <path fill="#0f3b7c" d="M500 300H700V400H800V300H900V200H800V100H600V200H500ZM900 200H1000V100H900Z"/>
  <path fill="#0277bd" d="M500 800H600V700H500ZM200 1000H300V900H500V800H200Z"/>
  <path fill="#f58520" d="M500 800H700V700H800V500H500Z"/>
  <path fill="#23aced" d="M500 800H700V500H600V700H500Z"/>
</svg>
