<?xml version="1.0" encoding="UTF-8"?>
<svg xmlns="http://www.w3.org/2000/svg" viewBox="0 0 1200 1200" width="1200" height="1200">
  <title>emoji_u1f917</title>
  <path fill="#eb8f00" d="M0 1100H100V1200H1000V1100H1100V300H1000V200H900V100H200V200H100V300H0Z"/>
  <path fill="#f39f53" d="M100 800H300V500H100ZM800 800H1000V500H800Z"/>
  <path fill="#fff176" d="M300 900H400V800H300ZM700 900H800V800H700ZM100 1100H300V900H200V1000H100ZM800 1100H1000V1000H900V900H800Z"/>
  <path fill="#fde030" d="M100 800H300V900H400V1100H700V900H800V800H1000V700H900V600H1000V300H900V200H200V300H100V600H200V700H100Z"/>
  <path fill="#422b0d" d="M300 400H400V300H300ZM700 400H800V300H700ZM200 500H300V400H200ZM400 500H500V400H400ZM600 500H700V400H600ZM800 500H900V400H800ZM200 700H300V600H200ZM800 700H900V600H800ZM300 800H800V700H300Z"/>
</svg>
