<?xml version="1.0" encoding="UTF-8"?>
<svg xmlns="http://www.w3.org/2000/svg" viewBox="0 0 1200 1200" width="1200" height="1200">
  <title>emoji_u1f377</title>
  <path fill="#9e9e9e" d="M300 1200H800V1100H600V900H700V800H800V700H900V200H800V100H700V600H600V700H500V800H400V900H500V1100H300Z"/>
  <path fill="#d4d4d4" d="M200 700H300V800H400V900H600V700H500V600H400V100H300V200H200Z"/>
  <path fill="#c8c8c8" d="M300 300H800V100H300Z"/>
  <path fill="#a60c18" d="M300 700H400V800H500V900H600V800H700V700H800V400H600V500H300Z"/>
  <path fill="#ffffff" d="M300 600H600V200H300Z"/>
  <path fill="#eaeaea" d="M300 600H400V700H600V600H700V500H800V200H300V300H500V500H300ZM500 900H600V800H500Z"/>
  <path fill="#cc1935" d="M700 500H800V400H700ZM300 600H400V500H300ZM600 600H700V500H600ZM400 700H600V600H400Z"/>
</svg>
