<?xml version="1.0" encoding="UTF-8"?>
<svg xmlns="http://www.w3.org/2000/svg" viewBox="0 0 1200 1200" width="1200" height="1200">
  <title>emoji_u1f94e</title>
  <path fill="#b6d401" d="M100 1000H200V1100H400V1200H700V1100H900V1000H1000V800H1100V500H1000V400H900V500H800V800H700V900H600V1000H500V900H100Z"/>
  <path fill="#da0a23" d="M0 700H300V900H500V1100H600V1200H700V1000H800V900H900V800H1100V700H900V600H800V400H600V100H400V200H300V400H100V500H0Z"/>
  <path fill="#d5f100" d="M0 800H100V1000H400V1100H700V1000H800V900H900V800H800V700H900V600H1000V300H900V200H700V100H500V200H200V300H100V600H0ZM400 400V300H500V400ZM200 600V500H300V600ZM600 600V500H700V600ZM400 800V700H500V800ZM600 1000V900H700V1000ZM900 800H1000V700H900Z"/>
  <path fill="#738613" d="M400 300H500V200H400ZM500 500H600V400H500ZM100 600H200V500H100ZM300 700H400V600H300ZM700 700H800V600H700ZM900 800H1000V700H900ZM500 900H600V800H500ZM600 1100H700V1000H600Z"/>
</svg>
