<?xml version="1.0" encoding="UTF-8"?>
<svg xmlns="http://www.w3.org/2000/svg" viewBox="0 0 1200 1200" width="1200" height="1200">
  <title>emoji_u1f40f</title>
  <path fill="#5d6164" d="M200 1200H300V1000H200ZM400 1200H500V1000H400ZM700 1200H800V1000H700ZM900 1200H1000V1000H900Z"/>
  <path fill="#98999a" d="M900 700H1100V400H900ZM100 1000H200V1100H300V1000H400V1100H500V1000H700V1100H800V1000H900V1100H1000V900H1100V800H800V900H100Z"/>
  <path fill="#b88658" d="M0 700H200V400H300V300H400V100H100V200H0ZM500 600H600V700H1000V300H900V200H800V100H600V200H500Z"/>
  <path fill="#dedede" d="M0 900H100V1000H900V900H1100V600H1000V500H1100V400H1000V300H900V600H700V500H600V400H700V300H600V200H500V100H300V200H200V300H100V600H0Z"/>
  <path fill="#6f4b41" d="M600 400H700V500H800V200H700V300H600ZM100 500H300V400H200V300H100ZM500 700H600V600H700V500H600V400H500Z"/>
  <path fill="#979899" d="M100 700H200V800H500V700H600V400H100Z"/>
  <path fill="#2f2f2f" d="M200 600H300V400H200ZM400 600H500V400H400ZM300 800H400V700H300Z"/>
</svg>
