<?xml version="1.0" encoding="UTF-8"?>
<svg xmlns="http://www.w3.org/2000/svg" viewBox="0 0 1200 1200" width="1200" height="1200">
  <title>emoji_u1f56f</title>
  <path fill="#bbc6cb" d="M300 1200H800V1000H300Z"/>
  <path fill="#ffd429" d="M400 400H700V200H600V100H500V200H400Z"/>
  <path fill="#ffad1d" d="M400 400H500V500H600V400H700V300H600V200H500V300H400Z"/>
  <path fill="#a08755" d="M400 600H700V500H600V300H500V500H400Z"/>
  <path fill="#faf09c" d="M200 700H400V800H700V700H900V600H800V500H300V600H200Z"/>
  <path fill="#c2cbcf" d="M300 1100H800V900H300Z"/>
  <path fill="#eeeeee" d="M200 800H300V1000H800V700H900V600H600V700H500V600H200Z"/>
  <path fill="#ced3d6" d="M400 1000H600V800H400ZM700 1000H800V800H700Z"/>
  <path fill="#d7d9db" d="M400 900H600V800H400ZM700 900H800V800H700Z"/>
  <path fill="#fffde7" d="M500 600H600V500H500ZM300 700H500V600H300ZM600 700H800V600H600Z"/>
  <path fill="#546e7a" d="M500 600H600V500H500Z"/>
  <path fill="#efa22e" d="M500 400H600V200H500Z"/>
  <path fill="#ffca26" d="M500 300H600V200H500Z"/>
</svg>
