<?xml version="1.0" encoding="UTF-8"?>
<svg xmlns="http://www.w3.org/2000/svg" viewBox="0 0 1200 1200" width="1200" height="1200">
  <title>emoji_u1f9c6</title>
  <path fill="#d4d4d4" d="M0 1100H100V1200H1000V1100H1100V800H900V1000H200V900H0Z"/>
  <path fill="#6f9923" d="M900 700H1100V500H1000V400H900ZM500 1100H800V900H500Z"/>
  <path fill="#f4b54c" d="M0 1000H100V1100H600V1000H700V1100H1000V900H1100V700H900V800H800V900H200V800H0Z"/>
  <path fill="#974f2f" d="M0 900H100V1000H900V900H1000V800H1100V600H1000V400H800V200H700V100H300V200H200V400H100V500H0Z"/>
  <path fill="#66361f" d="M200 400H500V500H600V800H700V700H800V600H700V400H800V300H700V200H600V300H400V200H300V300H200ZM1000 800H1100V600H1000ZM400 800H500V700H400ZM300 900H400V800H300ZM400 1000H500V1100H600V1000H900V900H800V800H700V900H600V800H500V900H400ZM900 900H1000V800H900ZM900 1100H1000V1000H900Z"/>
  <path fill="#f6f6f7" d="M900 1100H1000V1000H900Z"/>
  <path fill="#307b37" d="M100 800H200V900H400V800H500V600H400V500H200V600H100ZM500 1100H600V1000H700V900H500Z"/>
  <path fill="#f8910a" d="M300 300H400V200H300ZM600 300H700V200H600ZM500 400H600V300H500ZM200 600H300V700H400V800H500V600H400V500H200ZM800 600H900V500H800ZM100 800H200V900H400V800H300V700H200V600H100ZM700 700H800V600H700ZM700 900H800V800H700ZM600 1000H700V900H600Z"/>
  <path fill="#ffe0b1" d="M500 1000H700V900H500Z"/>
  <path fill="#9acd66" d="M300 700H400V600H300ZM200 800H300V700H200Z"/>
</svg>
