<?xml version="1.0" encoding="UTF-8"?>
<svg xmlns="http://www.w3.org/2000/svg" viewBox="0 0 1200 1200" width="1200" height="1200">
  <title>emoji_u1f1e8_1f1f3</title>
  <path fill="#df2e10" d="M0 500H300V300H0Z"/>
  <path fill="#de2910" d="M0 1000H1100V300H200V400H100V300H0Z"/>
  <path fill="#e3430e" d="M300 400H400V300H300ZM200 500H300V400H200ZM300 700H400V600H500V400H400V500H300Z"/>
  <path fill="#df2c10" d="M0 500H100V600H300V700H400V500H300V400H0Z"/>
  <path fill="#e5510c" d="M100 600H300V400H100Z"/>
  <path fill="#e85d0b" d="M100 500H200V600H300V400H100Z"/>
  <path fill="#f29506" d="M100 500H200V400H100ZM200 600H300V500H200Z"/>
  <path fill="#e3440e" d="M200 600H300V500H200ZM300 700H400V600H300Z"/>
  <path fill="#e2400e" d="M300 700H400V600H300Z"/>
</svg>
