<?xml version="1.0" encoding="UTF-8"?>
<svg xmlns="http://www.w3.org/2000/svg" viewBox="0 0 1200 1200" width="1200" height="1200">
  <title>emoji_u1f3c4_1f3fd</title>
  <path fill="#85e4ff" d="M600 700H900V900H800V1100H1000V1000H1100V600H1000V500H700V400H600ZM1000 500H1100V400H1000ZM600 1100H700V1000H600ZM700 1200H800V1100H700Z"/>
  <path fill="#543930" d="M300 300H500V100H300Z"/>
  <path fill="#464c4f" d="M100 800H400V600H500V400H600V300H500V200H300V300H100V400H300V500H200V700H100ZM0 500H100V400H0ZM600 500H700V400H600Z"/>
  <path fill="#f47a00" d="M0 1000H100V1100H700V1000H800V1100H900V1000H1000V700H800V800H600V900H0Z"/>
  <path fill="#ba8d68" d="M300 300H500V200H300ZM0 500H100V400H0ZM500 600H700V400H600V500H500ZM200 1000H700V700H200Z"/>
  <path fill="#0fcaff" d="M400 700H500V800H800V900H900V800H1000V600H700V500H500V400H400ZM100 900H300V700H100ZM900 1000H1000V900H900ZM800 1100H900V1000H800Z"/>
  <path fill="#ff940d" d="M0 1000H700V900H900V700H600V600H300V700H200V800H100V900H0ZM300 900V800H400V900ZM500 900V800H600V900Z"/>
  <path fill="#ffebc9" d="M300 800H400V700H300ZM500 800H600V700H500ZM400 900H500V800H400ZM600 900H900V800H600ZM100 1000H400V900H100Z"/>
  <path fill="#5e6367" d="M300 800H400V700H500V800H600V600H500V400H400V500H300Z"/>
</svg>
