<?xml version="1.0" encoding="UTF-8"?>
<svg xmlns="http://www.w3.org/2000/svg" viewBox="0 0 1200 1200" width="1200" height="1200">
  <title>emoji_u1f6df</title>
  <path fill="#858585" d="M100 200H200V300H500V100H100ZM600 300H900V200H1000V100H600ZM0 600H200V300H100V200H0ZM900 600H1100V200H1000V300H900ZM0 1100H100V1000H200V700H0ZM900 1000H1000V1100H1100V700H900ZM100 1200H500V1000H200V1100H100ZM600 1200H1000V1100H900V1000H600Z"/>
  <path fill="#9d9d9d" d="M300 300H400V500H700V300H800V200H700V100H400V200H300ZM0 800H100V900H200V800H400V500H200V400H100V500H0ZM700 800H900V900H1000V800H1100V500H1000V400H900V500H700ZM300 1100H400V1200H700V1100H800V1000H700V800H400V1000H300Z"/>
  <path fill="#e0e0e0" d="M400 500H500V400H600V500H700V200H400ZM100 800H400V700H300V600H400V500H100ZM700 800H1000V500H700V600H800V700H700ZM400 1100H700V800H600V900H500V800H400Z"/>
  <path fill="#de2b01" d="M100 600H400V500H500V200H200V300H100ZM600 500H700V600H1000V300H900V200H600ZM100 1000H200V1100H500V800H400V700H100ZM600 1100H900V1000H1000V700H700V800H600Z"/>
  <path fill="#ff3d00" d="M100 600H300V500H400V400H500V200H400V300H200V500H100ZM600 400H700V500H800V600H1000V500H900V300H700V200H600ZM100 800H200V1000H400V1100H500V900H400V800H300V700H100ZM600 1100H700V1000H900V800H1000V700H800V800H700V900H600Z"/>
</svg>
