<?xml version="1.0" encoding="UTF-8"?>
<svg xmlns="http://www.w3.org/2000/svg" viewBox="0 0 1200 1200" width="1200" height="1200">
  <title>emoji_u1f171</title>
  <path fill="#cc3333" d="M0 1100H100V1200H1000V1100H1100V200H1000V100H900V1000H0Z"/>
  <path fill="#f44336" d="M0 1100H1000V100H100V200H0Z"/>
  <path fill="#ff8a80" d="M200 300H300V200H200ZM100 400H200V300H100ZM300 400H400V300H300Z"/>
  <path fill="#fafafa" d="M300 1000H700V900H400V700H700V600H400V400H700V300H300ZM700 600H800V400H700ZM700 900H800V700H700Z"/>
</svg>
