<?xml version="1.0" encoding="UTF-8"?>
<svg xmlns="http://www.w3.org/2000/svg" viewBox="0 0 1200 1200" width="1200" height="1200">
  <title>emoji_u1f928</title>
  <path fill="#eb8f00" d="M0 1000H100V1100H200V1200H900V1100H1000V1000H1100V300H1000V200H900V100H200V200H100V300H0Z"/>
  <path fill="#fde030" d="M100 1000H200V1100H900V1000H1000V300H900V200H200V300H100Z"/>
  <path fill="#422b0d" d="M700 300H800V400H900V200H700ZM300 400H400V300H300ZM600 400H700V300H600ZM200 500H300V400H200ZM400 500H500V400H400ZM700 700H800V500H700ZM300 700H400V600H300ZM400 1000H700V900H400Z"/>
</svg>
