<?xml version="1.0" encoding="UTF-8"?>
<svg xmlns="http://www.w3.org/2000/svg" viewBox="0 0 1200 1200" width="1200" height="1200">
  <title>emoji_u1f3a2</title>
  <path fill="#71de81" d="M1000 1200H1100V700H1000ZM700 1200H800V800H700ZM400 1200H500V1000H400Z"/>
  <path fill="#1b2a89" d="M700 300H1100V100H1000V200H900V100H800V200H700ZM400 400H700V300H600V200H500V300H400ZM200 500H400V400H300V300H200Z"/>
  <path fill="#02ab46" d="M900 600H1000V800H1100V500H900ZM600 800H700V900H800V700H900V600H600ZM300 1000H400V1100H500V800H300Z"/>
  <path fill="#07bff0" d="M700 300H800V400H1100V200H700ZM400 400H600V500H800V400H700V300H400ZM100 600H200V700H400V600H300V500H400V400H200V500H100ZM400 600H500V500H400Z"/>
  <path fill="#fb3028" d="M0 1200H300V1000H400V900H500V800H700V700H900V600H1100V300H800V400H600V500H400V600H200V800H100V900H0Z"/>
  <path fill="#cf1636" d="M200 800H300V700H500V600H700V500H900V400H1100V300H800V400H600V500H400V600H200ZM900 600H1000V500H900ZM700 700H800V600H700ZM500 800H600V700H500ZM100 900H200V800H100ZM300 900H400V800H300ZM0 1200H200V1100H100V900H0ZM200 1000H300V900H200Z"/>
  <path fill="#4b4c4e" d="M800 400H900V300H800ZM1000 400H1100V300H1000ZM600 500H700V400H600ZM400 600H500V500H400ZM200 700H300V600H200Z"/>
</svg>
