<?xml version="1.0" encoding="UTF-8"?>
<svg xmlns="http://www.w3.org/2000/svg" viewBox="0 0 1200 1200" width="1200" height="1200">
  <title>emoji_u1f1f5_1f1eb</title>
  <path fill="#ce1126" d="M0 500H1100V300H0ZM0 1000H1100V800H0Z"/>
  <path fill="#da4c5c" d="M0 600H1100V400H0ZM0 900H1100V700H0Z"/>
  <path fill="#ffffff" d="M0 800H400V500H0ZM600 800H1100V500H600Z"/>
  <path fill="#ce4257" d="M400 800H500V900H600V800H700V700H400Z"/>
  <path fill="#da4b5a" d="M400 600H700V500H600V400H400Z"/>
  <path fill="#da4b5b" d="M300 600H600V500H500V400H400V500H300Z"/>
  <path fill="#6571ab" d="M400 800H700V600H400Z"/>
  <path fill="#a0a5c9" d="M300 800H500V700H600V600H300Z"/>
  <path fill="#a4abcd" d="M500 700H600V800H700V700H800V600H500Z"/>
  <path fill="#dd725b" d="M400 700H700V500H400Z"/>
  <path fill="#f9bf7a" d="M300 700H600V600H500V500H300Z"/>
  <path fill="#f9c991" d="M500 700H800V600H700V500H600V600H500Z"/>
  <path fill="#fefeff" d="M300 800H400V700H500V600H300Z"/>
  <path fill="#fffefd" d="M300 700H500V600H400V500H300Z"/>
  <path fill="#c38a89" d="M400 700H700V600H400Z"/>
  <path fill="#d89168" d="M300 700H500V600H300Z"/>
  <path fill="#d99165" d="M600 700H800V600H600Z"/>
  <path fill="#fdf7ef" d="M300 700H400V600H300Z"/>
  <path fill="#fffcf9" d="M700 700H800V600H700Z"/>
</svg>
