<?xml version="1.0" encoding="UTF-8"?>
<svg xmlns="http://www.w3.org/2000/svg" viewBox="0 0 1200 1200" width="1200" height="1200">
  <title>emoji_u1f4c0</title>
  <path fill="#f4a55d" d="M0 800H100V1000H200V1100H400V1200H700V1100H900V1000H1000V800H1100V500H1000V300H900V200H700V100H400V200H200V300H100V500H0ZM400 700V600H500V500H600V600H700V700H600V800H500V700Z"/>
  <path fill="#fad56e" d="M100 800H300V1000H400V1100H700V1000H800V900H900V800H1000V500H800V300H700V200H400V300H300V400H200V500H100ZM300 700V600H400V500H500V400H600V500H700V600H800V700H700V800H600V900H500V800H400V700Z"/>
  <path fill="#fdeaa1" d="M200 600H400V500H500V400H400V300H200ZM600 900H700V1000H900V700H700V800H600Z"/>
  <path fill="#fdeab7" d="M600 500H700V600H1000V500H900V300H700V400H600ZM100 800H200V1000H400V900H500V800H400V700H100Z"/>
  <path fill="#fbdb83" d="M700 400H900V300H700ZM600 500H700V400H600ZM700 600H1000V500H700ZM100 800H400V700H100ZM400 900H500V800H400ZM200 1000H400V900H200Z"/>
  <path fill="#bddeb6" d="M300 400H400V300H300ZM200 500H300V400H200ZM400 500H500V400H400ZM300 600H400V500H300ZM700 800H800V700H700ZM600 900H700V800H600ZM800 900H900V800H800ZM700 1000H800V900H700Z"/>
  <path fill="#fec6b5" d="M200 600H400V500H300V400H200ZM700 800H800V900H900V700H700Z"/>
  <path fill="#fed9b0" d="M200 600H300V500H200ZM700 800H800V700H700ZM800 900H900V800H800Z"/>
</svg>
