<?xml version="1.0" encoding="UTF-8"?>
<svg xmlns="http://www.w3.org/2000/svg" viewBox="0 0 1200 1200" width="1200" height="1200">
  <title>emoji_u1faa3</title>
  <path fill="#03a9f4" d="M100 800H200V1000H300V1100H700V1000H800V800H600V700H500V600H400V400H300V300H100ZM600 700H900V600H1000V400H900V300H700V400H600Z"/>
  <path fill="#81d4fa" d="M100 400H200V500H300V600H700V500H800V400H900V200H800V100H200V200H100Z"/>
  <path fill="#1f6abf" d="M200 300H300V200H200ZM700 300H800V200H700ZM100 400H200V300H100ZM300 400H400V300H300ZM600 400H700V300H600ZM800 400H900V300H800ZM200 500H300V400H200ZM700 500H800V400H700ZM900 500H1000V400H900ZM300 700H400V800H500V900H800V800H900V500H800V600H700V500H300Z"/>
  <path fill="#9e9e9e" d="M300 600H400V700H500V800H800V700H900V600H1000V400H900V500H800V600H500V500H300Z"/>
  <path fill="#e0e0e0" d="M900 500H1000V400H900ZM400 600H500V500H400ZM800 600H900V500H800ZM500 700H800V600H500Z"/>
  <path fill="#1a62b4" d="M200 300H300V400H700V300H800V200H200Z"/>
</svg>
