<?xml version="1.0" encoding="UTF-8"?>
<svg xmlns="http://www.w3.org/2000/svg" viewBox="0 0 1200 1200" width="1200" height="1200">
  <title>emoji_u1f9a7</title>
  <path fill="#e26e3c" d="M500 300H900V900H1000V800H1100V200H1000V100H600V200H500Z"/>
  <path fill="#d27856" d="M0 1200H200V1000H300V800H200V700H100V800H0ZM800 1200H1100V1000H1000V900H900V1000H800ZM300 1200H600V1000H400V1100H300Z"/>
  <path fill="#6b4d42" d="M500 400H800V200H500ZM0 1200H200V1100H0Z"/>
  <path fill="#e36f3c" d="M100 900H200V1000H300V900H400V500H300V600H200V700H100Z"/>
  <path fill="#8d5e50" d="M300 900H400V1100H500V1200H900V1100H1000V700H800V900H600V800H300Z"/>
  <path fill="#ff5d15" d="M300 900H500V600H600V500H700V600H1000V300H900V400H800V300H900V200H700V300H500V400H400V500H300Z"/>
  <path fill="#fe5e12" d="M300 900H500V1000H400V1100H500V1200H900V1100H800V1000H1000V900H900V700H400V800H300ZM600 1100V1000H700V1100ZM300 1200H400V1100H300Z"/>
  <path fill="#50362d" d="M400 900H500V800H800V900H900V800H1000V400H900V500H800V400H500V500H400ZM500 1000H800V900H500ZM500 1200H900V1100H500Z"/>
  <path fill="#8d5f55" d="M700 300H900V200H700ZM900 800H1000V300H900Z"/>
  <path fill="#010103" d="M500 700H800V500H500Z"/>
  <path fill="#ba957e" d="M500 800H800V600H700V500H600V600H500Z"/>
  <path fill="#543527" d="M600 800H700V700H600Z"/>
</svg>
