<?xml version="1.0" encoding="UTF-8"?>
<svg xmlns="http://www.w3.org/2000/svg" viewBox="0 0 1200 1200" width="1200" height="1200">
  <title>emoji_u1f352</title>
  <path fill="#366918" d="M200 400H700V300H1000V200H900V100H400V200H300V300H200Z"/>
  <path fill="#759937" d="M100 900H400V700H300V400H500V500H700V400H800V300H200V700H100ZM600 800H900V600H800V500H700V600H600Z"/>
  <path fill="#af0c1a" d="M0 1100H100V1200H500V1100H1000V1000H1100V700H900V800H700V600H600V700H400V900H200V700H100V800H0Z"/>
  <path fill="#518e30" d="M400 400H900V300H1000V200H600V300H400Z"/>
  <path fill="#dc0d27" d="M600 900H700V1000H900V900H1000V800H1100V700H1000V600H800V700H700V600H600ZM100 1000H200V1100H400V1000H500V700H300V800H200V700H100Z"/>
  <path fill="#ff605f" d="M100 800H200V700H100ZM600 800H700V700H600ZM200 900H300V800H200ZM700 900H800V800H700Z"/>
</svg>
