<?xml version="1.0" encoding="UTF-8"?>
<svg xmlns="http://www.w3.org/2000/svg" viewBox="0 0 1200 1200" width="1200" height="1200">
  <title>emoji_u1f69d</title>
  <path fill="#82aec0" d="M0 1200H1100V1000H200V900H0Z"/>
  <path fill="#bdbdbd" d="M800 300H1100V100H800ZM0 1000H100V1100H300V800H0Z"/>
  <path fill="#bae2fd" d="M200 600H600V500H800V600H1100V200H900V100H700V200H500V300H400V400H300V500H200Z"/>
  <path fill="#455a64" d="M0 1000H100V900H200V700H0ZM100 1100H1100V900H200V1000H100Z"/>
  <path fill="#37474f" d="M100 700H600V600H700V700H1100V500H900V400H1000V300H1100V200H900V100H700V200H800V300H700V400H500V500H200V600H100Z"/>
  <path fill="#c62828" d="M0 800H100V900H200V1000H1100V700H200V600H100V700H0Z"/>
  <path fill="#e0e0e0" d="M900 300H1000V200H900ZM800 400H900V300H800ZM100 800H1100V600H800V400H700V500H500V600H400V500H300V600H100ZM200 1000H1100V900H200Z"/>
  <path fill="#f44336" d="M100 800H1100V700H200V600H100Z"/>
  <path fill="#ffca28" d="M300 600H400V500H300Z"/>
</svg>
