<?xml version="1.0" encoding="UTF-8"?>
<svg xmlns="http://www.w3.org/2000/svg" viewBox="0 0 1200 1200" width="1200" height="1200">
  <title>emoji_u1f401</title>
  <path fill="#feacab" d="M300 1100H600V1000H700V1100H900V1000H1000V1100H1100V700H1000V600H900V900H300ZM900 1200H1000V1100H900Z"/>
  <path fill="#434b55" d="M0 700H100V800H300V600H0Z"/>
  <path fill="#a8a8a8" d="M0 700H200V800H300V1000H500V1100H600V1000H800V1100H900V1000H1000V800H900V600H300V500H600V300H700V100H400V200H300V400H200V500H100V600H0ZM0 500H100V400H0Z"/>
  <path fill="#dfdfdf" d="M100 700H500V800H400V1000H600V800H700V1000H900V900H1000V600H900V500H800V400H900V200H800V100H600V200H500V400H200V600H100ZM700 800V700H800V800Z"/>
  <path fill="#ffa7a6" d="M600 400H800V200H600ZM100 700H200V600H100Z"/>
  <path fill="#2a2a2a" d="M300 600H400V500H300Z"/>
</svg>
