<?xml version="1.0" encoding="UTF-8"?>
<svg xmlns="http://www.w3.org/2000/svg" viewBox="0 0 1200 1200" width="1200" height="1200">
  <title>emoji_u1f33c</title>
  <path fill="#febb01" d="M0 900H100V1000H200V1100H300V1200H500V1100H600V1200H800V1100H900V1000H1000V900H1100V700H1000V600H1100V400H1000V200H800V100H600V200H500V100H300V200H100V400H0V600H100V700H0Z"/>
  <path fill="#fec624" d="M200 900H300V1000H800V900H900V400H800V300H300V400H200Z"/>
  <path fill="#ed6c31" d="M300 900H800V400H300Z"/>
  <path fill="#ffd551" d="M300 600H400V500H500V400H300ZM600 500H700V600H800V400H600ZM500 600H600V500H500ZM400 700H500V600H400ZM600 700H700V600H600ZM300 900H500V800H400V700H300ZM500 800H600V700H500ZM600 900H800V700H700V800H600Z"/>
  <path fill="#f2a05b" d="M300 500H400V400H300ZM700 500H800V400H700ZM400 700H500V800H600V700H700V600H600V500H500V600H400ZM300 900H400V800H300ZM700 900H800V800H700Z"/>
</svg>
