<?xml version="1.0" encoding="UTF-8"?>
<svg xmlns="http://www.w3.org/2000/svg" viewBox="0 0 1200 1200" width="1200" height="1200">
  <title>emoji_u264d</title>
  <path fill="#689f38" d="M300 1100H400V1200H700V1100H900V1000H1000V800H1100V500H1000V400H900V700H800V900H600V1000H300Z"/>
  <path fill="#b7db88" d="M0 600H300V500H400V400H600V100H400V200H200V300H100V500H0Z"/>
  <path fill="#9ccc65" d="M0 800H100V1000H200V1100H700V1000H900V800H1000V300H900V200H700V100H400V200H500V300H300V400H200V500H0ZM200 300H300V200H200ZM100 400H200V300H100Z"/>
  <path fill="#d4e9b8" d="M300 400H400V300H300ZM200 600H300V400H200ZM400 500H500V400H400Z"/>
  <path fill="#fafafa" d="M500 400H600V300H500ZM400 900H500V400H400ZM600 900H700V800H800V700H700V500H800V400H600ZM200 900H300V500H200ZM800 700H900V500H800ZM500 1000H600V900H500ZM700 1000H900V900H700Z"/>
</svg>
