<?xml version="1.0" encoding="UTF-8"?>
<svg xmlns="http://www.w3.org/2000/svg" viewBox="0 0 1200 1200" width="1200" height="1200">
  <title>emoji_u1f1ec_1f1ea</title>
  <path fill="#ff5e5e" d="M0 500H200V300H0ZM900 500H1100V300H900ZM0 1000H200V800H0ZM900 1000H1100V800H900Z"/>
  <path fill="#ff1414" d="M0 500H300V300H100V400H0ZM800 500H1100V400H1000V300H800ZM0 900H100V1000H300V800H0ZM800 1000H1000V900H1100V800H800Z"/>
  <path fill="#ff1a1a" d="M200 500H500V300H200ZM600 500H900V300H600ZM200 1000H500V800H200ZM600 1000H900V800H600Z"/>
  <path fill="#ff2222" d="M0 900H200V400H0ZM900 900H1100V400H900Z"/>
  <path fill="#ff5757" d="M0 500H100V600H200V400H0ZM900 600H1000V500H1100V400H900ZM0 900H200V700H100V800H0ZM900 900H1100V800H1000V700H900Z"/>
  <path fill="#ff6262" d="M300 500H800V400H700V300H400V400H300ZM300 900H400V1000H700V900H800V800H300Z"/>
  <path fill="#ff0000" d="M0 700H100V900H200V1000H300V900H500V1000H600V900H800V1000H900V900H1000V700H1100V600H1000V400H900V300H800V400H600V300H500V400H300V300H200V400H100V600H0Z"/>
  <path fill="#ff6060" d="M400 600H500V400H400ZM600 600H700V400H600ZM400 900H500V700H400ZM600 900H700V700H600Z"/>
  <path fill="#ff2727" d="M400 600H500V500H400ZM600 600H700V500H600ZM400 800H500V700H400ZM600 800H700V700H600Z"/>
</svg>
