<?xml version="1.0" encoding="UTF-8"?>
<svg xmlns="http://www.w3.org/2000/svg" viewBox="0 0 1200 1200" width="1200" height="1200">
  <title>emoji_u1f6f4</title>
  <path fill="#bdbdbd" d="M200 200H300V300H400V200H500V100H200ZM200 500H300V300H200ZM600 1100H900V1000H1000V900H1100V800H800V900H600Z"/>
  <path fill="#78909c" d="M0 1100H100V1200H200V1100H400V900H100V1000H0ZM800 1100H900V1200H1000V1100H1100V1000H1000V900H800Z"/>
  <path fill="#616161" d="M100 200H300V100H100ZM400 200H600V100H400Z"/>
  <path fill="#1976d2" d="M200 500H300V400H200ZM0 900H100V1100H200V1000H300V1100H1000V1000H900V900H800V1000H700V900H300V800H200V500H100V800H0Z"/>
  <path fill="#42a5f5" d="M100 900H200V800H100ZM200 1000H300V900H200ZM400 1000H700V900H400ZM300 1100H400V1000H300Z"/>
  <path fill="#1e4ea6" d="M200 1000H300V900H200ZM300 1100H400V1000H300Z"/>
  <path fill="#90a4ae" d="M800 1000H900V900H800Z"/>
</svg>
