<?xml version="1.0" encoding="UTF-8"?>
<svg xmlns="http://www.w3.org/2000/svg" viewBox="0 0 1200 1200" width="1200" height="1200">
  <title>emoji_u1f37a</title>
  <path fill="#9e9e9e" d="M800 1200H1000V1000H1100V600H1000V500H800V800H900V700H1000V900H800Z"/>
  <path fill="#eaeaea" d="M0 1200H1000V1100H900V1000H1000V900H900V600H1000V500H900V400H700V1000H300V500H100V1100H0ZM1000 900H1100V600H1000Z"/>
  <path fill="#fadfb1" d="M0 500H100V600H200V800H500V700H700V600H800V500H900V400H1000V300H900V200H700V100H300V200H100V300H0Z"/>
  <path fill="#fdb408" d="M200 1100H800V900H200Z"/>
  <path fill="#ffffff" d="M100 500H300V600H400V500H600V400H900V300H700V200H300V300H100ZM600 600H700V500H600ZM200 1000H400V700H300V600H200ZM400 700H500V600H400Z"/>
  <path fill="#ffe265" d="M300 1000H500V1100H600V1000H800V600H500V700H300Z"/>
  <path fill="#f7ac0a" d="M300 1000H600V900H700V1000H800V800H500V900H400V800H300Z"/>
  <path fill="#e89411" d="M300 900H400V800H500V900H800V700H700V800H600V700H300Z"/>
  <path fill="#ebc990" d="M300 800H600V700H700V800H800V500H600V600H400V700H300Z"/>
  <path fill="#db8116" d="M300 800H600V700H300ZM700 800H800V700H700Z"/>
</svg>
