<?xml version="1.0" encoding="UTF-8"?>
<svg xmlns="http://www.w3.org/2000/svg" viewBox="0 0 1200 1200" width="1200" height="1200">
  <title>emoji_u2764_200d_1f525</title>
  <path fill="#fd8c08" d="M400 400H700V100H500V200H400ZM100 400H300V200H200V300H100ZM800 300H900V200H800ZM900 400H1000V300H900Z"/>
  <path fill="#ff9c00" d="M0 500H1100V400H1000V300H900V400H700V300H600V200H500V300H400V400H300V300H100V400H0Z"/>
  <path fill="#ffb100" d="M0 700H200V400H0ZM900 700H1100V400H900Z"/>
  <path fill="#ffb500" d="M0 800H200V500H100V600H0ZM900 800H1100V600H1000V500H900Z"/>
  <path fill="#fa7516" d="M500 300H600V200H700V100H500Z"/>
  <path fill="#ffb900" d="M0 900H100V1000H200V1100H300V1200H800V1000H300V700H200V600H100V700H0ZM800 1000H1000V900H1100V700H1000V600H900V700H800Z"/>
  <path fill="#ffa800" d="M0 500H100V600H600V300H500V400H0ZM800 600H1000V500H1100V400H800Z"/>
  <path fill="#ce2b26" d="M100 600H300V700H800V600H1000V500H900V400H500V500H400V400H200V500H100Z"/>
  <path fill="#ffeb3b" d="M600 1100H700V1200H800V1100H900V1000H1000V900H900V800H1000V600H700V900H600ZM200 1100H300V1200H400V1100H500V700H200Z"/>
  <path fill="#ff6d00" d="M400 1100H500V1200H600V1100H700V1000H800V900H700V800H400Z"/>
  <path fill="#ffdd24" d="M600 200H700V100H600ZM400 700H700V600H600V500H700V400H600V200H500V600H400ZM700 600H800V500H700Z"/>
  <path fill="#e63a30" d="M100 700H300V500H100ZM800 700H1000V500H800Z"/>
  <path fill="#f04034" d="M100 800H200V900H300V800H800V700H900V800H1000V600H900V500H700V600H400V500H200V600H100Z"/>
  <path fill="#fc620f" d="M300 800H400V1000H500V900H600V1000H800V700H300Z"/>
  <path fill="#f74e28" d="M200 900H300V800H500V700H200ZM600 800H700V900H800V700H600Z"/>
  <path fill="#f9561e" d="M400 800H700V700H400ZM700 900H800V800H700Z"/>
</svg>
