<?xml version="1.0" encoding="UTF-8"?>
<svg xmlns="http://www.w3.org/2000/svg" viewBox="0 0 1200 1200" width="1200" height="1200">
  <title>emoji_u1f991</title>
  <path fill="#2d2e31" d="M200 1000H500V700H300V900H200ZM600 1000H900V900H800V700H600Z"/>
  <path fill="#ee7fac" d="M200 1000H400V1100H500V1000H600V1100H700V1000H900V900H700V800H800V500H900V400H800V300H700V200H600V100H500V200H400V300H300V400H200V500H300V800H400V900H200ZM0 800H100V900H200V600H100V400H0ZM900 900H1000V800H1100V400H1000V600H900ZM0 1100H100V1000H0ZM1000 1100H1100V1000H1000ZM100 1200H400V1100H100ZM700 1200H1000V1100H700Z"/>
  <path fill="#a363af" d="M400 400H500V300H400ZM600 400H700V300H600ZM300 500H400V400H300ZM500 500H600V400H500ZM700 500H800V400H700ZM0 800H100V600H0ZM1000 800H1100V600H1000ZM100 900H200V800H100ZM400 900H700V800H400ZM900 900H1000V800H900ZM200 1000H300V900H200ZM800 1000H900V900H800Z"/>
  <path fill="#fea7a5" d="M500 500H600V400H500ZM300 700H400V600H300ZM500 700H600V600H500ZM700 700H800V600H700Z"/>
</svg>
