<?xml version="1.0" encoding="UTF-8"?>
<svg xmlns="http://www.w3.org/2000/svg" viewBox="0 0 1200 1200" width="1200" height="1200">
  <title>emoji_u1f4ab</title>
  <path fill="#fec215" d="M600 300H800V200H600ZM800 400H900V300H800ZM900 500H1000V400H900ZM1000 700H1100V500H1000Z"/>
  <path fill="#fee238" d="M200 200H500V100H200ZM100 400H200V200H100Z"/>
  <path fill="#fdcf29" d="M400 200H600V100H400ZM600 300H700V200H600Z"/>
  <path fill="#ffb909" d="M900 900H1100V600H1000V800H900Z"/>
  <path fill="#ffff8d" d="M300 800H600V700H500V500H300Z"/>
  <path fill="#ffb300" d="M400 1100H500V1200H900V1100H1000V1000H1100V800H900V900H600V700H400V900H500V1000H400ZM300 1000H400V900H300Z"/>
  <path fill="#fdd835" d="M0 900H200V1100H300V1000H400V900H500V800H600V700H400V600H500V400H400V500H300V600H200V500H0V700H100V800H0Z"/>
  <path fill="#f4b400" d="M400 900H500V800H400Z"/>
</svg>
