<?xml version="1.0" encoding="UTF-8"?>
<svg xmlns="http://www.w3.org/2000/svg" viewBox="0 0 1200 1200" width="1200" height="1200">
  <title>emoji_u1faa9</title>
  <path fill="#81d4fa" d="M0 800H100V1000H200V1100H400V1200H700V1100H900V1000H1000V800H1100V500H1000V300H900V200H700V100H400V200H200V300H100V500H0Z"/>
  <path fill="#85bdf0" d="M800 500H900V400H800ZM900 700H1000V600H900Z"/>
  <path fill="#6d4ab6" d="M600 1100H700V1000H600Z"/>
  <path fill="#ffffff" d="M600 300H700V200H600ZM200 500H300V400H200ZM400 900H600V800H400Z"/>
  <path fill="#8b7cd3" d="M700 700H800V600H700ZM700 900H900V800H700Z"/>
  <path fill="#bce8fc" d="M400 300H500V200H400ZM500 500H700V400H500ZM100 700H200V600H100ZM300 700H500V600H300ZM200 900H300V800H200ZM400 1100H500V1000H400Z"/>
</svg>
