<?xml version="1.0" encoding="UTF-8"?>
<svg xmlns="http://www.w3.org/2000/svg" viewBox="0 0 1200 1200" width="1200" height="1200">
  <title>emoji_u1f94d</title>
  <path fill="#ff6011" d="M100 1000H200V1100H400V1000H500V800H400V700H200V800H100Z"/>
  <path fill="#9a9a99" d="M600 800H700V1200H800V800H900V700H600Z"/>
  <path fill="#5f6367" d="M700 1200H800V1100H700Z"/>
  <path fill="#5e6367" d="M400 400H500V700H600V800H900V700H1000V400H1100V300H1000V200H900V300H800V200H900V100H600V200H700V300H600V200H500V300H400ZM700 600V500H800V600Z"/>
  <path fill="#9b9b9c" d="M700 300H800V200H700ZM400 400H500V300H400ZM600 400H700V300H600ZM800 400H900V300H800ZM1000 400H1100V300H1000ZM700 500H800V400H700ZM600 600H700V500H600ZM800 600H900V500H800ZM500 700H600V600H500ZM900 700H1000V600H900Z"/>
  <path fill="#ff8f50" d="M200 1000H400V800H200Z"/>
  <path fill="#ffaf76" d="M200 900H300V800H200Z"/>
</svg>
