<?xml version="1.0" encoding="UTF-8"?>
<svg xmlns="http://www.w3.org/2000/svg" viewBox="0 0 1200 1200" width="1200" height="1200">
  <title>emoji_u1f69e</title>
  <path fill="#74adba" d="M100 300H200V400H300V500H700V400H600V300H400V200H300V100H200V200H100ZM900 800H1100V400H900Z"/>
  <path fill="#ba793e" d="M0 1200H1100V1000H0Z"/>
  <path fill="#608c3d" d="M900 1000H1100V700H1000V600H900ZM0 1000H200V700H0Z"/>
  <path fill="#b9e4ea" d="M0 700H200V500H300V200H100V300H0Z"/>
  <path fill="#9bc4d1" d="M600 500H900V600H1000V500H1100V300H1000V200H900V100H800V300H700V400H600ZM0 800H100V900H200V500H500V400H400V300H300V200H200V400H100V600H0ZM0 400H100V300H0Z"/>
  <path fill="#9ccc65" d="M0 1200H100V1100H200V1200H300V1100H400V1200H500V1100H600V1200H700V1100H800V1200H900V1100H1000V1200H1100V900H1000V800H100V900H0Z"/>
  <path fill="#757575" d="M0 1100H1100V1000H1000V900H900V1000H800V900H700V1000H400V900H300V1000H200V900H100V1000H0Z"/>
  <path fill="#00796b" d="M100 600H1000V400H100Z"/>
  <path fill="#455a64" d="M100 1000H200V900H300V1000H400V900H500V800H100ZM600 900H700V1000H800V900H900V1000H1000V800H600Z"/>
  <path fill="#ffecb3" d="M100 800H1000V500H100Z"/>
  <path fill="#82aec0" d="M100 900H1000V700H100Z"/>
  <path fill="#4ca854" d="M100 800H1000V700H900V600H800V700H700V600H600V700H500V600H400V700H300V600H200V700H100Z"/>
  <path fill="#bae2fd" d="M200 700H300V600H200ZM400 700H500V600H400ZM600 700H700V600H600ZM800 700H900V600H800Z"/>
</svg>
