<?xml version="1.0" encoding="UTF-8"?>
<svg xmlns="http://www.w3.org/2000/svg" viewBox="0 0 1200 1200" width="1200" height="1200">
  <title>emoji_u1f60a</title>
  <path fill="#eb8f00" d="M0 1000H100V1100H200V1200H900V1100H1000V1000H1100V300H1000V200H900V100H200V200H100V300H0Z"/>
  <path fill="#ef8a62" d="M100 1000H300V900H400V600H100ZM700 1000H1000V600H800V700H700Z"/>
  <path fill="#fde030" d="M100 1000H200V1100H900V1000H1000V800H900V900H800V800H900V700H1000V300H900V200H200V300H100V800H200V900H100ZM200 800V700H300V800Z"/>
  <path fill="#422b0d" d="M300 500H400V400H300ZM700 500H800V400H700ZM200 600H300V500H200ZM400 600H500V500H400ZM600 600H700V500H600ZM800 600H900V500H800ZM400 900H500V800H400ZM600 900H700V800H600ZM500 1000H600V900H500Z"/>
</svg>
