<?xml version="1.0" encoding="UTF-8"?>
<svg xmlns="http://www.w3.org/2000/svg" viewBox="0 0 1200 1200" width="1200" height="1200">
  <title>emoji_u1f9d4_1f3fe</title>
  <path fill="#3c2c23" d="M100 200H200V100H100ZM100 900H200V1100H300V1200H900V1100H1000V900H1100V300H1000V200H900V100H400V200H200V300H100Z"/>
  <path fill="#7a4c32" d="M200 900H300V1000H400V600H300V700H200ZM800 1000H900V900H1000V700H900V600H800Z"/>
  <path fill="#795548" d="M300 1000H500V900H700V1000H900V800H300ZM500 1100H700V1000H500Z"/>
  <path fill="#a56c43" d="M300 1000H400V900H800V1000H900V500H800V400H600V500H400V600H300Z"/>
  <path fill="#42312c" d="M400 800H500V600H400ZM700 800H800V600H700Z"/>
</svg>
