<?xml version="1.0" encoding="UTF-8"?>
<svg xmlns="http://www.w3.org/2000/svg" viewBox="0 0 1200 1200" width="1200" height="1200">
  <title>emoji_u1f40e</title>
  <path fill="#865b52" d="M100 300H400V400H500V600H800V800H900V700H1100V400H1000V600H900V500H700V300H600V200H500V100H100Z"/>
  <path fill="#e09a5c" d="M300 800H400V900H500V800H600V700H300ZM700 900H800V1100H900V700H700ZM300 1100H400V900H300ZM400 1200H500V1100H400ZM700 1200H800V1100H700Z"/>
  <path fill="#6b4733" d="M100 1100H200V900H100ZM600 1100H700V900H600ZM400 1200H500V1100H400ZM700 1200H800V1100H700Z"/>
  <path fill="#b17957" d="M0 600H200V500H300V400H200V300H0Z"/>
  <path fill="#523226" d="M100 500H200V400H100ZM0 600H100V500H0Z"/>
  <path fill="#a67b5a" d="M200 800H700V900H800V800H900V600H300V700H200ZM100 1000H200V800H100ZM600 1000H700V900H600Z"/>
  <path fill="#feaf5f" d="M0 400H100V500H300V800H400V700H500V800H700V700H800V800H900V500H600V300H500V100H400V200H300V100H200V200H100V300H0Z"/>
  <path fill="#b3875d" d="M400 500H500V400H400ZM300 600H400V500H300Z"/>
  <path fill="#2f2927" d="M200 400H300V300H200Z"/>
</svg>
