<?xml version="1.0" encoding="UTF-8"?>
<svg xmlns="http://www.w3.org/2000/svg" viewBox="0 0 1200 1200" width="1200" height="1200">
  <title>emoji_u1f517</title>
  <path fill="#84b0c1" d="M700 200H1000V100H700ZM600 300H700V200H600ZM1000 500H1100V200H1000ZM500 400H600V300H500ZM400 500H500V400H400ZM300 600H400V500H300ZM500 600H600V500H500ZM900 600H1000V500H900ZM200 700H300V600H200ZM500 800H600V900H700V800H800V700H700V600H600V700H500ZM800 700H900V600H800ZM100 800H200V700H100ZM0 1100H100V800H0ZM500 1000H600V900H500ZM400 1100H500V1000H400ZM100 1200H300V1100H100Z"/>
  <path fill="#a8e3f0" d="M300 600H400V700H500V600H600V500H500V400H400V500H300ZM500 800H800V700H500ZM400 1100H500V1000H400ZM200 1200H400V1100H200Z"/>
  <path fill="#2f7889" d="M300 600H400V500H300ZM500 600H600V500H500ZM500 800H600V700H500ZM700 800H800V700H700Z"/>
</svg>
