<?xml version="1.0" encoding="UTF-8"?>
<svg xmlns="http://www.w3.org/2000/svg" viewBox="0 0 1200 1200" width="1200" height="1200">
  <title>emoji_u1f988</title>
  <path fill="#9a9a9a" d="M0 600H200V500H500V600H400V700H500V800H600V700H700V900H300V1000H500V1100H400V1200H600V1100H900V1000H1000V900H1100V500H1000V400H900V300H1000V100H800V200H200V300H100V400H0Z"/>
  <path fill="#e0e0e0" d="M0 600H100V700H800V900H900V800H1000V600H800V500H700V600H600V400H400V300H300V400H100V500H0ZM700 1000H800V900H700Z"/>
  <path fill="#ff2b25" d="M100 600H300V500H100Z"/>
  <path fill="#2f2f2f" d="M300 400H400V300H300Z"/>
  <path fill="#606568" d="M500 500H600V400H500ZM400 600H500V500H400Z"/>
</svg>
