<?xml version="1.0" encoding="UTF-8"?>
<svg xmlns="http://www.w3.org/2000/svg" viewBox="0 0 1200 1200" width="1200" height="1200">
  <title>emoji_u1f192</title>
  <path fill="#427687" d="M0 1100H100V1200H1000V1100H1100V200H1000V100H900V1000H0Z"/>
  <path fill="#8cafbf" d="M0 1100H1000V100H100V200H0Z"/>
  <path fill="#a0c8d6" d="M100 400H200V500H300V200H200V300H100Z"/>
  <path fill="#fafafa" d="M200 600H500V500H300V300H500V200H200ZM600 600H900V200H600ZM700 500V300H800V500ZM200 1100H500V700H200ZM300 1000V800H400V1000ZM600 1100H900V1000H700V700H600Z"/>
</svg>
