<?xml version="1.0" encoding="UTF-8"?>
<svg xmlns="http://www.w3.org/2000/svg" viewBox="0 0 1200 1200" width="1200" height="1200">
  <title>emoji_u2328</title>
  <path fill="#c3d2d9" d="M0 1000H100V1100H1000V1000H1100V300H1000V200H100V300H0Z"/>
  <path fill="#2f7889" d="M100 900H200V700H300V500H200V300H100ZM300 500H400V300H300ZM500 500H600V300H500ZM700 500H800V300H700ZM800 700H900V900H1000V300H900V500H800ZM300 900H800V700H700V500H600V700H500V500H400V700H300ZM0 1000H100V900H0ZM1000 1000H1100V900H1000ZM100 1100H1000V1000H100Z"/>
  <path fill="#ffffff" d="M100 400H200V300H100ZM300 400H400V300H300ZM500 400H600V300H500ZM700 400H800V300H700ZM900 400H1000V300H900ZM100 600H300V500H100ZM400 600H500V500H400ZM600 600H700V500H600ZM800 600H1000V500H800ZM100 800H200V700H100ZM300 800H800V700H300ZM900 800H1000V700H900Z"/>
</svg>
