<?xml version="1.0" encoding="UTF-8"?>
<svg xmlns="http://www.w3.org/2000/svg" viewBox="0 0 1200 1200" width="1200" height="1200">
  <title>emoji_u2733</title>
  <path fill="#7cb342" d="M0 800H200V700H400V800H500V1000H400V1200H700V1000H600V800H700V700H900V800H1100V500H900V600H700V500H600V300H700V100H400V300H500V500H400V600H200V500H0ZM100 400H300V200H100ZM800 400H1000V200H800ZM300 500H400V400H300ZM700 500H800V400H700ZM300 900H400V800H300ZM700 900H800V800H700ZM100 1100H300V900H100ZM800 1100H1000V900H800Z"/>
</svg>
