<?xml version="1.0" encoding="UTF-8"?>
<svg xmlns="http://www.w3.org/2000/svg" viewBox="0 0 1200 1200" width="1200" height="1200">
  <title>emoji_u1f1f9_1f1f0</title>
  <path fill="#143273" d="M900 1000H1100V800H900Z"/>
  <path fill="#07297a" d="M0 1000H300V800H0Z"/>
  <path fill="#143587" d="M100 500H400V300H100Z"/>
  <path fill="#183471" d="M700 500H1000V300H700Z"/>
  <path fill="#1d3d8c" d="M0 700H200V400H0Z"/>
  <path fill="#515b55" d="M100 900H200V1000H400V800H100Z"/>
  <path fill="#545d53" d="M200 900H300V1000H500V800H200Z"/>
  <path fill="#586052" d="M300 900H400V1000H600V800H300Z"/>
  <path fill="#5b6250" d="M400 900H500V1000H700V800H400Z"/>
  <path fill="#5f654e" d="M500 900H600V1000H800V800H500Z"/>
  <path fill="#62674d" d="M600 900H700V1000H900V800H600Z"/>
  <path fill="#66694b" d="M700 900H800V1000H1000V800H700Z"/>
  <path fill="#686b4a" d="M800 900H900V1000H1000V900H1100V800H800Z"/>
  <path fill="#04277f" d="M0 500H200V600H500V300H300V400H200V300H0Z"/>
  <path fill="#00247d" d="M0 1000H100V900H200V800H500V700H600V600H700V500H800V900H1100V300H900V400H800V300H300V400H400V500H300V400H100V300H0V500H100V600H0Z"/>
  <path fill="#01257e" d="M100 600H200V500H300V400H100Z"/>
  <path fill="#02257e" d="M100 500H300V400H100Z"/>
  <path fill="#03277e" d="M100 900H300V700H100Z"/>
  <path fill="#05287f" d="M200 500H300V400H200ZM300 600H400V500H300Z"/>
  <path fill="#062a80" d="M100 900H300V700H200V800H100Z"/>
  <path fill="#0e2d76" d="M500 600H800V400H600V500H500Z"/>
  <path fill="#41505d" d="M700 600H900V400H700Z"/>
  <path fill="#48555a" d="M800 900H1000V800H900V700H800Z"/>
  <path fill="#767858" d="M200 900H400V700H200Z"/>
  <path fill="#a5942c" d="M600 600H900V500H800V400H700V500H600Z"/>
  <path fill="#f8cd03" d="M200 800H300V900H500V700H200Z"/>
  <path fill="#fdd001" d="M700 900H900V700H700Z"/>
  <path fill="#fed100" d="M300 800H400V900H800V800H900V500H500V600H400V700H300Z"/>
  <path fill="#0c2e83" d="M200 800H400V700H200Z"/>
  <path fill="#113386" d="M300 600H400V500H300ZM400 700H500V600H400Z"/>
  <path fill="#273e6a" d="M400 700H600V600H700V500H500V600H400Z"/>
  <path fill="#294069" d="M800 700H900V500H800Z"/>
  <path fill="#44525c" d="M300 800H500V600H400V700H300Z"/>
  <path fill="#505b56" d="M800 800H900V600H800Z"/>
  <path fill="#aa9829" d="M800 800H900V700H800Z"/>
  <path fill="#d7b613" d="M600 600H700V500H600ZM500 700H600V600H500Z"/>
  <path fill="#f4ca05" d="M400 800H500V700H600V600H400Z"/>
  <path fill="#3d4e5f" d="M400 700H600V600H400Z"/>
  <path fill="#edc509" d="M500 700H600V600H500Z"/>
</svg>
