<?xml version="1.0" encoding="UTF-8"?>
<svg xmlns="http://www.w3.org/2000/svg" viewBox="0 0 1200 1200" width="1200" height="1200">
  <title>emoji_u1f1fe_1f1f9</title>
  <path fill="#f5f5f5" d="M300 1000H800V800H300Z"/>
  <path fill="#f6f6f6" d="M200 1000H400V900H500V1000H600V900H700V800H200Z"/>
  <path fill="#f7f7f7" d="M600 900H700V1000H900V800H600Z"/>
  <path fill="#f8ddd8" d="M400 500H700V300H400Z"/>
  <path fill="#f9e0dc" d="M500 500H800V300H600V400H500Z"/>
  <path fill="#f9e3e0" d="M300 500H600V400H500V300H300Z"/>
  <path fill="#fae6e3" d="M200 500H500V400H400V300H200Z"/>
  <path fill="#fbeeec" d="M100 500H400V400H300V300H100Z"/>
  <path fill="#fef8f7" d="M700 500H1000V300H700Z"/>
  <path fill="#ffffff" d="M0 1000H300V900H400V800H300V700H200V600H300V400H200V300H0ZM700 900H800V1000H1100V300H900V400H800V600H900V700H800V800H700Z"/>
  <path fill="#f7dad5" d="M400 600H700V500H900V400H800V300H700V400H400Z"/>
  <path fill="#e4e4e4" d="M100 800H200V900H400V700H100ZM700 900H900V800H1000V700H700Z"/>
  <path fill="#f3f3f3" d="M100 800H300V500H100ZM800 800H1000V500H800Z"/>
  <path fill="#fdfdfd" d="M100 600H200V700H300V400H200V500H100ZM800 700H900V600H1000V500H900V400H800Z"/>
  <path fill="#fefefe" d="M100 800H300V600H200V700H100ZM800 800H1000V700H900V600H800Z"/>
  <path fill="#d1c9c8" d="M400 900H700V700H400Z"/>
  <path fill="#d9d9d9" d="M200 800H300V900H500V700H200Z"/>
  <path fill="#dadada" d="M600 900H800V800H900V700H600Z"/>
  <path fill="#dbd7d6" d="M300 800H400V900H500V800H600V700H300Z"/>
  <path fill="#ddd8d7" d="M500 800H600V900H700V800H800V700H500Z"/>
  <path fill="#f3c4bc" d="M200 600H500V400H200Z"/>
  <path fill="#f6d2cc" d="M600 600H900V400H600Z"/>
  <path fill="#f6d3cd" d="M300 600H600V500H500V400H400V500H300Z"/>
  <path fill="#fae8e5" d="M500 600H800V500H700V400H600V500H500Z"/>
  <path fill="#fbece9" d="M200 600H400V500H300V400H200Z"/>
  <path fill="#fcf0ee" d="M700 600H900V400H800V500H700Z"/>
  <path fill="#c6c6c6" d="M200 800H400V500H200ZM700 800H900V500H700Z"/>
  <path fill="#cbcbcb" d="M200 600H300V700H400V500H200ZM700 700H800V600H900V500H700Z"/>
  <path fill="#cecece" d="M200 800H500V600H300V700H200ZM600 800H900V700H800V600H600Z"/>
  <path fill="#d3d3d3" d="M300 700H400V600H300ZM700 700H800V600H700ZM200 800H300V700H200ZM800 800H900V700H800Z"/>
  <path fill="#dcdcdc" d="M300 700H500V500H300ZM600 700H800V500H600Z"/>
  <path fill="#5353a2" d="M400 700H700V500H400Z"/>
  <path fill="#7070b1" d="M500 700H800V600H700V500H600V600H500Z"/>
  <path fill="#7171b1" d="M300 700H600V600H500V500H400V600H300Z"/>
  <path fill="#c14714" d="M400 800H700V600H400Z"/>
  <path fill="#c76449" d="M500 700H600V800H700V700H800V600H500Z"/>
  <path fill="#c8694d" d="M300 700H400V800H500V700H600V600H300Z"/>
  <path fill="#795181" d="M500 700H800V600H500Z"/>
  <path fill="#7a5384" d="M300 700H600V600H300Z"/>
  <path fill="#7d466c" d="M500 700H600V600H500Z"/>
  <path fill="#d1d1d1" d="M300 700H400V600H300Z"/>
  <path fill="#d2d2d2" d="M700 700H800V600H700Z"/>
</svg>
