<?xml version="1.0" encoding="UTF-8"?>
<svg xmlns="http://www.w3.org/2000/svg" viewBox="0 0 1200 1200" width="1200" height="1200">
  <title>emoji_u1f45e</title>
  <path fill="#4e342e" d="M0 900H200V800H300V900H1100V700H500V600H0Z"/>
  <path fill="#263238" d="M100 700H400V800H900V700H1000V600H900V500H700V400H500V500H200V400H100Z"/>
  <path fill="#d98850" d="M0 600H200V400H0ZM700 800H1100V700H1000V600H800V700H700Z"/>
  <path fill="#a06841" d="M0 700H400V800H800V700H700V600H600V700H500V600H200V500H100V400H0ZM500 600H600V500H700V400H500ZM800 700H1000V600H800ZM1000 800H1100V700H1000Z"/>
</svg>
