<?xml version="1.0" encoding="UTF-8"?>
<svg xmlns="http://www.w3.org/2000/svg" viewBox="0 0 1200 1200" width="1200" height="1200">
  <title>emoji_u1f34b_200d_1f7e9</title>
  <path fill="#6ea517" d="M0 700H100V800H200V900H300V1000H400V1100H1000V1000H1100V600H1000V500H900V800H800V900H600V800H400V700H300V600H200V100H0Z"/>
  <path fill="#f0f4c3" d="M100 700H200V800H300V900H500V1000H900V900H1000V500H800V400H600V300H400V200H200V100H100Z"/>
  <path fill="#b0e244" d="M200 500H300V400H400V200H200ZM200 700H300V800H400V700H500V600H600V400H400V500H300V600H200ZM700 600H800V900H900V500H800V400H700ZM500 900H700V600H600V700H500Z"/>
</svg>
