<?xml version="1.0" encoding="UTF-8"?>
<svg xmlns="http://www.w3.org/2000/svg" viewBox="0 0 1200 1200" width="1200" height="1200">
  <title>emoji_u1f1ec_1f1f6</title>
  <path fill="#268b51" d="M0 500H200V300H0Z"/>
  <path fill="#8a415f" d="M0 1000H200V800H0Z"/>
  <path fill="#0274c8" d="M0 600H200V300H100V400H0Z"/>
  <path fill="#0771c8" d="M0 900H100V1000H200V700H0Z"/>
  <path fill="#0073ce" d="M0 800H100V900H200V800H300V500H200V400H100V500H0Z"/>
  <path fill="#3e9a00" d="M100 600H1100V300H100Z"/>
  <path fill="#e32118" d="M100 1000H1100V700H100Z"/>
  <path fill="#bedda9" d="M200 700H500V500H200ZM600 700H1100V500H600Z"/>
  <path fill="#f6b4b1" d="M200 800H500V600H200ZM600 800H1100V600H600Z"/>
  <path fill="#ffffff" d="M200 800H300V700H400V800H500V500H400V600H300V500H200ZM600 800H700V700H1100V600H700V500H600Z"/>
  <path fill="#0b7aba" d="M100 600H200V700H300V500H200V400H100Z"/>
  <path fill="#1c6dbc" d="M100 900H200V800H300V600H200V700H100Z"/>
  <path fill="#31922a" d="M100 500H200V400H100ZM200 600H300V500H200Z"/>
  <path fill="#b5323d" d="M200 800H300V700H200ZM100 900H200V800H100Z"/>
  <path fill="#bad9a0" d="M400 700H700V500H400Z"/>
  <path fill="#efadaa" d="M400 800H700V600H400Z"/>
  <path fill="#72b2e4" d="M200 800H300V500H200Z"/>
  <path fill="#aad2a5" d="M200 600H300V500H200Z"/>
  <path fill="#aece88" d="M400 700H700V600H600V500H500V600H400Z"/>
  <path fill="#e09d99" d="M400 700H500V800H600V700H700V600H400Z"/>
  <path fill="#e2a9ad" d="M200 800H300V700H200Z"/>
  <path fill="#f9f9f9" d="M400 700H700V600H400Z"/>
  <path fill="#b7d5bc" d="M500 700H600V600H500Z"/>
</svg>
