<?xml version="1.0" encoding="UTF-8"?>
<svg xmlns="http://www.w3.org/2000/svg" viewBox="0 0 1200 1200" width="1200" height="1200">
  <title>emoji_u1f6f0</title>
  <path fill="#9dd4e0" d="M0 500H100V600H200V400H300V300H500V200H400V100H300V200H200V300H100V400H0ZM300 500H400V400H300ZM600 1100H700V1200H800V1100H900V1000H1000V900H1100V800H1000V700H900V900H800V1000H600ZM0 900H100V800H0ZM300 900H400V800H300ZM700 900H800V800H700ZM100 1100H300V900H100ZM300 1200H400V1100H300Z"/>
  <path fill="#875d00" d="M500 500H600V600H700V700H800V600H900V500H800V400H700V300H600V400H500ZM400 600H500V500H400ZM600 800H700V700H600Z"/>
  <path fill="#6392a5" d="M100 1100H200V1000H100ZM0 1200H100V1100H0Z"/>
  <path fill="#2f7889" d="M300 1200H400V1100H300Z"/>
  <path fill="#e2a610" d="M300 500H400V400H300ZM200 800H300V900H400V1000H500V900H600V800H700V700H600V600H500V500H400V600H300V700H200ZM700 900H800V800H700Z"/>
  <path fill="#ffca28" d="M600 600H700V500H600ZM400 700H500V800H600V600H400ZM300 900H500V800H400V700H300Z"/>
  <path fill="#bf8904" d="M600 600H800V400H600Z"/>
</svg>
