<?xml version="1.0" encoding="UTF-8"?>
<svg xmlns="http://www.w3.org/2000/svg" viewBox="0 0 1200 1200" width="1200" height="1200">
  <title>emoji_u1f456</title>
  <path fill="#64b5f6" d="M200 1200H500V1000H200ZM600 1200H900V1000H600Z"/>
  <path fill="#94d1e0" d="M400 300H700V100H400Z"/>
  <path fill="#174da1" d="M200 1100H500V500H600V1100H900V100H600V200H500V100H200Z"/>
  <path fill="#113773" d="M200 500H300V400H200ZM800 500H900V400H800ZM300 600H400V500H300ZM700 600H800V500H700Z"/>
  <path fill="#10356e" d="M200 300H400V400H500V300H600V400H700V300H900V200H700V100H600V200H500V100H400V200H200ZM200 1100H500V1000H200ZM600 1100H900V1000H600Z"/>
  <path fill="#1976d2" d="M400 400H500V100H400Z"/>
</svg>
