<?xml version="1.0" encoding="UTF-8"?>
<svg xmlns="http://www.w3.org/2000/svg" viewBox="0 0 1200 1200" width="1200" height="1200">
  <title>emoji_u1f6b5_200d_2640</title>
  <path fill="#899394" d="M0 1200H200V1000H0ZM300 1200H800V1000H300ZM900 1200H1100V1000H900Z"/>
  <path fill="#5f6467" d="M600 300H1000V100H600Z"/>
  <path fill="#5f6366" d="M0 1100H100V1200H400V1100H700V1200H1000V1100H1100V800H600V900H500V800H400V700H500V400H0V700H100V800H0Z"/>
  <path fill="#c0c0c0" d="M100 1100H400V1000H500V1100H1000V1000H1100V200H1000V100H900V200H800V700H500V600H600V300H500V400H400V300H300V200H100V400H200V500H400V600H300V700H200V1000H100ZM300 1000V900H400V1000ZM700 1000V900H800V1000ZM900 1000V900H1000V1000ZM0 1000H100V900H0Z"/>
  <path fill="#dcdcdc" d="M0 1000H100V900H200V1000H300V800H800V300H700V200H600V300H500V500H400V700H200V600H100V500H300V300H200V200H100V300H0Z"/>
  <path fill="#ffca26" d="M400 600H700V700H800V500H900V200H600V400H700V500H400ZM400 800H500V1100H700V700H400Z"/>
  <path fill="#9a9a9a" d="M200 1100H300V900H200ZM800 1100H900V900H800Z"/>
  <path fill="#e0e0e0" d="M500 1100H700V900H600V1000H500Z"/>
  <path fill="#62453b" d="M700 500H800V600H900V500H1000V400H900V200H700V300H800V400H700Z"/>
  <path fill="#858585" d="M600 900H700V800H800V900H900V400H700V700H600Z"/>
  <path fill="#b0b0b0" d="M700 700H800V600H700ZM200 1000H300V800H600V900H700V700H200ZM800 1000H900V700H800Z"/>
  <path fill="#f09e00" d="M600 1000H700V700H600Z"/>
  <path fill="#583ee2" d="M700 700H800V400H700ZM600 800H700V700H600Z"/>
</svg>
