<?xml version="1.0" encoding="UTF-8"?>
<svg xmlns="http://www.w3.org/2000/svg" viewBox="0 0 1200 1200" width="1200" height="1200">
  <title>emoji_u1f6d1</title>
  <path fill="#cc3333" d="M200 1100H300V1200H800V1100H900V1000H1000V900H1100V400H1000V300H900V800H800V900H700V1000H200Z"/>
  <path fill="#f44336" d="M0 900H100V1000H200V1100H800V1000H900V900H1000V300H900V200H800V100H300V200H200V300H100V400H0Z"/>
  <path fill="#fe8378" d="M300 300H600V200H300ZM200 400H300V300H200ZM100 600H200V400H100Z"/>
</svg>
