<?xml version="1.0" encoding="UTF-8"?>
<svg xmlns="http://www.w3.org/2000/svg" viewBox="0 0 1200 1200" width="1200" height="1200">
  <title>emoji_u1f376</title>
  <path fill="#c8c8c8" d="M800 600H900V900H1100V500H1000V300H800Z"/>
  <path fill="#6ca4ae" d="M0 1100H100V1200H400V1100H600V1200H1000V1100H1100V800H1000V700H900V1000H800V800H400V1000H0Z"/>
  <path fill="#e0e0e0" d="M0 1100H500V900H1000V500H900V400H1000V300H1100V100H500V300H600V500H500V800H400V700H100V800H0Z"/>
  <path fill="#fefefe" d="M500 300H700V200H500ZM700 600H800V500H700ZM500 900H800V800H700V600H600V800H500ZM100 900H200V800H100ZM0 1100H300V1000H100V900H0Z"/>
  <path fill="#a6cfd6" d="M300 900H400V800H300ZM500 900H700V1200H900V1100H1000V800H500ZM200 1100H500V900H400V1000H200ZM0 1100H100V1000H0Z"/>
  <path fill="#b0b0b0" d="M600 300H1000V200H600ZM100 900H400V800H100Z"/>
</svg>
