<?xml version="1.0" encoding="UTF-8"?>
<svg xmlns="http://www.w3.org/2000/svg" viewBox="0 0 1200 1200" width="1200" height="1200">
  <title>emoji_u1fabb</title>
  <path fill="#bbd047" d="M900 900H1000V700H900ZM700 1100H900V900H800V1000H700ZM300 1100H400V1000H300ZM400 1200H700V1100H600V1000H500V1100H400Z"/>
  <path fill="#388e3c" d="M100 900H200V700H100ZM200 1100H400V1000H300V900H200Z"/>
  <path fill="#7cb243" d="M400 900H500V1100H600V900H700V700H400Z"/>
  <path fill="#7350d3" d="M200 500H300V800H400V900H500V700H600V900H700V800H800V500H900V400H800V200H600V300H500V200H300V400H200Z"/>
  <path fill="#ab7cf7" d="M300 300H400V500H500V400H600V500H700V300H800V200H600V100H500V200H300ZM300 700H400V900H500V800H600V900H700V700H800V600H600V500H500V600H300Z"/>
  <path fill="#fcebcd" d="M500 300H600V200H500ZM500 700H600V600H500Z"/>
</svg>
