<?xml version="1.0" encoding="UTF-8"?>
<svg xmlns="http://www.w3.org/2000/svg" viewBox="0 0 1200 1200" width="1200" height="1200">
  <title>emoji_u1f933_1f3fb</title>
  <path fill="#757575" d="M400 700H600V100H400Z"/>
  <path fill="#d36600" d="M300 1100H600V1000H700V700H600V800H300Z"/>
  <path fill="#f78c1f" d="M0 1100H100V1200H600V1100H900V1000H1000V900H1100V700H600V900H500V1000H400V900H500V800H100V900H0Z"/>
  <path fill="#efb682" d="M500 700H600V800H900V900H1000V800H1100V300H900V200H800V300H600V500H500Z"/>
  <path fill="#9e9e9e" d="M500 600H600V700H700V600H800V500H700V400H900V200H800V100H500Z"/>
  <path fill="#424242" d="M600 300H700V200H600ZM700 400H800V300H700Z"/>
  <path fill="#f9ddbd" d="M700 400H900V300H700ZM600 700H700V600H900V700H800V800H900V900H1000V400H900V500H600Z"/>
</svg>
