<?xml version="1.0" encoding="UTF-8"?>
<svg xmlns="http://www.w3.org/2000/svg" viewBox="0 0 1200 1200" width="1200" height="1200">
  <title>emoji_u1f3cd</title>
  <path fill="#aee3fd" d="M300 500H500V200H400V300H300Z"/>
  <path fill="#d9e3df" d="M0 600H200V700H300V400H100V500H0Z"/>
  <path fill="#4d453c" d="M100 800H200V900H300V1000H400V900H500V800H300V600H200V700H100ZM700 1000H800V1100H1000V1000H1100V800H1000V700H900V600H700ZM900 1000V900H1000V1000ZM0 1000H100V800H0ZM100 1100H300V1000H100Z"/>
  <path fill="#dc0d2a" d="M300 900H500V1000H800V700H900V600H1100V400H800V500H700V600H400V700H300Z"/>
  <path fill="#464c4f" d="M100 500H200V700H400V800H500V900H800V600H900V500H1100V400H800V500H500V400H400V300H200V400H100ZM500 800V700H600V800Z"/>
  <path fill="#fe2a22" d="M100 500H200V900H400V800H500V700H700V800H800V600H700V500H600V600H300V500H400V300H300V400H100Z"/>
  <path fill="#e0e0e0" d="M600 900H700V1000H900V900H1000V800H800V700H700V800H600Z"/>
  <path fill="#c8c8c8" d="M700 800H800V600H700Z"/>
  <path fill="#5e6268" d="M600 900H800V700H700V800H600Z"/>
  <path fill="#db0d2a" d="M200 900H400V800H300V700H200Z"/>
</svg>
