<?xml version="1.0" encoding="UTF-8"?>
<svg xmlns="http://www.w3.org/2000/svg" viewBox="0 0 1200 1200" width="1200" height="1200">
  <title>emoji_u26fa</title>
  <path fill="#9c2d1b" d="M0 1100H100V1000H200V600H100V700H0ZM400 1000H500V1100H600V1000H700V600H400ZM900 1000H1000V1100H1100V700H1000V600H900Z"/>
  <path fill="#f19f40" d="M0 1000H200V900H300V1000H500V300H400V200H200V400H100V800H0Z"/>
  <path fill="#2f2f2f" d="M300 400H400V300H300ZM100 1000H400V800H300V400H200V800H100ZM400 800H500V700H400Z"/>
  <path fill="#ec5f32" d="M300 400H400V800H500V700H600V1000H1000V400H900V200H300Z"/>
</svg>
