<?xml version="1.0" encoding="UTF-8"?>
<svg xmlns="http://www.w3.org/2000/svg" viewBox="0 0 1200 1200" width="1200" height="1200">
  <title>emoji_u1f387</title>
  <path fill="#191919" d="M0 300H200V100H0ZM900 300H1100V100H900ZM0 1200H200V1000H0ZM900 1200H1100V1000H900Z"/>
  <path fill="#1d1a19" d="M0 400H200V300H300V100H100V200H0ZM800 300H900V400H1100V200H1000V100H800ZM800 1200H1000V1100H1100V900H900V1000H800ZM0 1100H100V1200H300V1000H0Z"/>
  <path fill="#351f19" d="M0 1000H200V1200H900V1100H1000V900H1100V300H1000V200H900V100H200V200H100V300H0Z"/>
  <path fill="#241b19" d="M100 300H200V400H300V300H400V200H300V100H200V200H100ZM800 200H900V100H800ZM700 300H800V200H700ZM900 500H1000V400H1100V300H1000V200H900ZM0 400H100V300H0ZM100 500H200V400H100ZM0 1100H200V1200H300V1100H400V1000H300V900H200V800H100V900H0ZM800 1000H900V1100H1000V1000H1100V800H900V900H800ZM700 1100H800V1000H700ZM800 1200H900V1100H800Z"/>
  <path fill="#ffe268" d="M600 600H800V700H700V1000H1000V900H1100V800H1000V200H900V300H800V200H700V300H600ZM100 1000H200V1100H400V700H500V400H400V300H200V400H100ZM0 1100H100V1000H0Z"/>
  <path fill="#e99656" d="M400 1100H500V1200H600V1100H700V700H400Z"/>
  <path fill="#3a201a" d="M200 400H300V500H400V400H800V200H200ZM100 500H200V400H100ZM800 800H900V700H1000V500H900V400H800ZM100 800H200V900H300V700H200V600H100ZM600 1100H800V1000H900V900H800V800H700V900H600ZM300 1100H500V900H300Z"/>
  <path fill="#ffffff" d="M200 300H300V200H200ZM200 900H300V1000H500V800H600V1000H700V1100H800V800H900V400H800V500H700V300H600V200H500V300H300V500H400V600H300V700H200Z"/>
  <path fill="#53251a" d="M400 400H500V300H400ZM600 500H700V400H800V300H600ZM300 500H400V400H300ZM800 500H900V400H800ZM200 900H300V800H400V600H300V700H200ZM700 700H800V800H900V600H700ZM300 1000H500V800H400V900H300ZM700 900H800V800H700ZM600 1000H700V900H600Z"/>
  <path fill="#63291a" d="M300 500H400V400H300ZM600 500H700V400H600ZM300 800H400V700H500V600H300ZM700 700H800V600H700ZM400 900H500V800H400ZM700 900H800V800H700Z"/>
  <path fill="#87301b" d="M400 700H500V600H400Z"/>
</svg>
