<?xml version="1.0" encoding="UTF-8"?>
<svg xmlns="http://www.w3.org/2000/svg" viewBox="0 0 1200 1200" width="1200" height="1200">
  <title>emoji_u1f388</title>
  <path fill="#64b5f6" d="M500 900H600V800H500ZM400 1100H500V900H400ZM700 1100H800V1000H700ZM500 1200H700V1100H500ZM800 1200H900V1100H800Z"/>
  <path fill="#c62828" d="M400 800H500V900H600V800H700V700H400Z"/>
  <path fill="#f44336" d="M200 600H300V700H400V800H700V700H800V600H900V300H800V200H700V100H400V200H300V300H200Z"/>
  <path fill="#ff847a" d="M600 300H700V200H600ZM700 400H800V300H700Z"/>
</svg>
