<?xml version="1.0" encoding="UTF-8"?>
<svg xmlns="http://www.w3.org/2000/svg" viewBox="0 0 1200 1200" width="1200" height="1200">
  <title>emoji_u1f418</title>
  <path fill="#878787" d="M0 1000H100V1100H300V800H400V1200H700V1100H800V1200H1100V500H1000V400H900V200H800V100H600V200H300V100H100V200H0V500H100V600H0Z"/>
  <path fill="#bebebe" d="M100 400H200V300H300V200H100ZM100 1000H200V800H300V700H600V600H700V500H800V200H600V300H300V400H200V700H100ZM500 1100H700V1000H800V1100H1000V500H800V600H700V700H600V800H500Z"/>
  <path fill="#010101" d="M400 600H500V500H400Z"/>
</svg>
