<?xml version="1.0" encoding="UTF-8"?>
<svg xmlns="http://www.w3.org/2000/svg" viewBox="0 0 1200 1200" width="1200" height="1200">
  <title>emoji_u1f1f9_1f1f4</title>
  <path fill="#ffffff" d="M0 700H200V500H500V300H0Z"/>
  <path fill="#e9a3a3" d="M100 500H400V400H300V300H100Z"/>
  <path fill="#fdf8f8" d="M100 500H300V400H200V300H100Z"/>
  <path fill="#c10000" d="M0 1000H1100V300H400V600H0Z"/>
  <path fill="#e59696" d="M300 700H500V300H400V400H300Z"/>
  <path fill="#e08080" d="M0 700H500V600H400V500H100V600H0Z"/>
  <path fill="#c81d1d" d="M100 600H400V400H100Z"/>
  <path fill="#df7a7a" d="M100 600H300V500H200V400H100Z"/>
  <path fill="#e07f7f" d="M100 700H300V500H100Z"/>
  <path fill="#f1c6c6" d="M200 600H400V400H300V500H200Z"/>
  <path fill="#f4d0d0" d="M100 600H200V700H300V500H100Z"/>
  <path fill="#d34a4a" d="M200 700H300V600H400V500H200Z"/>
  <path fill="#dd7474" d="M300 600H400V500H300ZM200 700H300V600H200Z"/>
  <path fill="#fbefef" d="M300 600H400V500H300ZM400 700H500V600H400Z"/>
  <path fill="#d34b4b" d="M400 700H500V600H400Z"/>
</svg>
