<?xml version="1.0" encoding="UTF-8"?>
<svg xmlns="http://www.w3.org/2000/svg" viewBox="0 0 1200 1200" width="1200" height="1200">
  <title>emoji_u1f3f4_e0067_e0062_e0073_e0063_e0074_e007f</title>
  <path fill="#f8fbfd" d="M0 500H200V300H0ZM900 500H1100V300H900ZM0 1000H200V800H0ZM900 1000H1100V800H900Z"/>
  <path fill="#2a7ec8" d="M0 600H200V300H100V400H0ZM900 600H1100V400H1000V300H900ZM0 900H100V1000H200V700H0ZM900 1000H1000V900H1100V700H900Z"/>
  <path fill="#3b88cc" d="M100 500H400V300H100ZM700 500H1000V300H700ZM100 1000H400V800H100ZM700 1000H1000V800H700Z"/>
  <path fill="#d5e6f4" d="M100 500H300V400H200V300H100ZM800 500H1000V300H900V400H800ZM100 1000H200V900H300V800H100ZM800 900H900V1000H1000V800H800Z"/>
  <path fill="#0065bd" d="M0 800H100V900H300V1000H800V900H1000V800H1100V500H1000V400H800V300H300V400H100V500H0Z"/>
  <path fill="#0266bd" d="M100 600H300V400H100ZM800 600H1000V400H800ZM100 900H300V700H100ZM800 900H1000V700H800Z"/>
  <path fill="#0e6ec1" d="M300 600H800V400H600V500H500V400H300ZM300 900H500V800H600V900H800V700H300Z"/>
  <path fill="#95bfe4" d="M200 600H500V500H400V400H200ZM600 600H900V400H700V500H600ZM200 900H400V800H500V700H200ZM600 800H700V900H900V700H600Z"/>
  <path fill="#c4dbf0" d="M100 500H200V600H300V400H100ZM800 600H900V500H1000V400H800ZM100 900H300V700H200V800H100ZM800 900H1000V800H900V700H800Z"/>
  <path fill="#fdfeff" d="M200 600H400V500H300V400H200ZM700 600H900V400H800V500H700ZM200 900H300V800H400V700H200ZM700 800H800V900H900V700H700Z"/>
  <path fill="#69a5d8" d="M200 800H400V500H200V600H300V700H200ZM700 800H900V700H800V600H900V500H700Z"/>
  <path fill="#e3eef8" d="M300 800H800V500H300Z"/>
  <path fill="#f1f6fb" d="M300 800H400V700H500V600H400V500H300ZM600 700H700V800H800V500H700V600H600Z"/>
  <path fill="#78addc" d="M400 700H500V800H600V700H700V600H600V500H500V600H400Z"/>
  <path fill="#3585cb" d="M300 700H500V600H300ZM600 700H800V600H600Z"/>
  <path fill="#f7fafd" d="M400 700H700V600H400Z"/>
  <path fill="#ffffff" d="M500 700H600V600H500Z"/>
</svg>
