<?xml version="1.0" encoding="UTF-8"?>
<svg xmlns="http://www.w3.org/2000/svg" viewBox="0 0 1200 1200" width="1200" height="1200">
  <title>emoji_u274e</title>
  <path fill="#689f38" d="M0 1100H100V1200H1000V1100H1100V200H1000V100H900V1000H0Z"/>
  <path fill="#7cb342" d="M0 1100H1000V100H100V200H0Z"/>
  <path fill="#a1c375" d="M100 400H300V200H200V300H100Z"/>
  <path fill="#fbf9f9" d="M200 400H300V300H200ZM800 400H900V300H800ZM300 500H400V400H300ZM700 500H800V400H700ZM400 600H500V500H400ZM600 600H700V500H600ZM500 700H600V600H500ZM400 800H500V700H400ZM600 800H700V700H600ZM300 900H400V800H300ZM700 900H800V800H700ZM200 1000H300V900H200ZM800 1000H900V900H800Z"/>
</svg>
