<?xml version="1.0" encoding="UTF-8"?>
<svg xmlns="http://www.w3.org/2000/svg" viewBox="0 0 1200 1200" width="1200" height="1200">
  <title>emoji_u1fa9e</title>
  <path fill="#f5ad71" d="M100 1100H200V1200H1000V1100H1100V200H1000V100H200V200H100Z"/>
  <path fill="#ba793e" d="M200 1000H300V1100H900V1000H1000V300H900V200H300V300H200Z"/>
  <path fill="#cdeefd" d="M300 1000H900V300H300Z"/>
  <path fill="#e6f6fe" d="M500 400H600V300H500ZM400 500H500V400H400ZM700 500H800V400H700ZM300 600H400V500H300ZM600 600H700V500H600ZM800 800H900V700H800ZM700 900H800V800H700ZM600 1000H700V900H600Z"/>
</svg>
