<?xml version="1.0" encoding="UTF-8"?>
<svg xmlns="http://www.w3.org/2000/svg" viewBox="0 0 1200 1200" width="1200" height="1200">
  <title>emoji_u3297</title>
  <path fill="#cc3333" d="M300 1100H400V1200H700V1100H900V1000H1000V800H1100V500H1000V400H900V700H800V900H600V1000H300Z"/>
  <path fill="#fc796e" d="M0 600H300V500H400V400H600V100H400V200H200V300H100V500H0Z"/>
  <path fill="#f44336" d="M0 800H100V1000H200V1100H700V1000H900V800H1000V300H900V200H700V100H400V200H500V300H300V400H200V500H0ZM200 300H300V200H200ZM100 400H200V300H100Z"/>
  <path fill="#fafafa" d="M200 500H400V600H500V400H400V300H300V400H200ZM600 900H700V700H800V1000H1000V900H900V300H600ZM700 600V400H800V600ZM200 800H300V1000H400V800H500V700H400V600H300V700H200ZM500 1000H600V900H500Z"/>
  <path fill="#fcd8d5" d="M300 400H400V300H300ZM200 500H300V400H200Z"/>
</svg>
