<?xml version="1.0" encoding="UTF-8"?>
<svg xmlns="http://www.w3.org/2000/svg" viewBox="0 0 1200 1200" width="1200" height="1200">
  <title>emoji_u1f450</title>
  <path fill="#b55e19" d="M0 900H100V1000H200V1100H400V1000H500V900H600V1000H700V1100H900V1000H1000V900H1100V400H1000V300H900V200H700V400H600V500H500V300H400V200H200V300H100V400H0Z"/>
  <path fill="#faa700" d="M0 800H100V900H200V800H500V700H600V1000H800V800H1000V400H900V600H800V400H900V300H800V200H700V300H600V600H500V500H400V300H300V200H200V400H300V600H200V700H100V600H200V400H0Z"/>
  <path fill="#ffca28" d="M300 600H400V400H300ZM700 600H800V400H700ZM100 600H200V500H100ZM900 600H1000V500H900ZM100 900H200V1000H400V900H500V600H400V700H300V600H200V700H100ZM600 900H700V1000H900V900H1000V700H900V600H800V700H700V600H600Z"/>
</svg>
