<?xml version="1.0" encoding="UTF-8"?>
<svg xmlns="http://www.w3.org/2000/svg" viewBox="0 0 1200 1200" width="1200" height="1200">
  <title>emoji_u1f9ec</title>
  <path fill="#ab47bc" d="M200 800H300V900H400V800H500V700H300V600H400V500H200ZM400 1000H500V900H400ZM600 1000H700V900H600ZM600 1200H900V1100H800V1000H700V1100H600Z"/>
  <path fill="#00897b" d="M200 200H300V300H400V200H500V100H200ZM400 400H500V300H400ZM600 400H700V300H600ZM600 600H900V500H800V400H700V500H600Z"/>
  <path fill="#00bfa5" d="M200 1200H600V1100H500V1000H700V900H800V800H900V500H700V600H800V700H500V800H600V900H400V1000H300V1100H200Z"/>
  <path fill="#ee8cff" d="M200 600H600V500H500V400H700V300H800V200H900V100H500V200H600V300H400V400H300V500H200ZM400 800H700V700H400ZM400 1200H700V1100H400Z"/>
  <path fill="#2e5fe6" d="M300 800H500V700H300ZM600 1200H800V1100H600Z"/>
  <path fill="#40c4ff" d="M300 200H600V100H300ZM500 600H800V500H500Z"/>
  <path fill="#9ed839" d="M500 200H700V100H500ZM400 600H600V500H400Z"/>
</svg>
