<?xml version="1.0" encoding="UTF-8"?>
<svg xmlns="http://www.w3.org/2000/svg" viewBox="0 0 1200 1200" width="1200" height="1200">
  <title>emoji_u1f9db_1f3fc_200d_2640</title>
  <path fill="#363535" d="M0 1000H100V1100H200V1200H300V900H200V600H0ZM800 1200H900V1100H1000V1000H1100V600H900V900H800Z"/>
  <path fill="#ee0000" d="M100 1000H200V1100H300V500H200V600H100ZM800 1100H900V1000H1000V600H900V500H800Z"/>
  <path fill="#ab872f" d="M200 1100H400V500H700V1100H900V200H800V100H300V200H200Z"/>
  <path fill="#212121" d="M200 1200H500V800H300V1000H200ZM600 1200H900V1000H800V800H600Z"/>
  <path fill="#ffffff" d="M300 900H400V1200H700V900H800V600H300Z"/>
  <path fill="#e0bb95" d="M300 900H800V400H600V300H400V400H300ZM400 800V700H500V800ZM600 800V700H700V800Z"/>
  <path fill="#5d4037" d="M400 600H500V400H400ZM600 600H700V400H600Z"/>
  <path fill="#6d4c41" d="M500 800H600V700H500Z"/>
</svg>
