<?xml version="1.0" encoding="UTF-8"?>
<svg xmlns="http://www.w3.org/2000/svg" viewBox="0 0 1200 1200" width="1200" height="1200">
  <title>emoji_u1f575_1f3ff_200d_2640</title>
  <path fill="#232020" d="M700 1200H1000V600H1100V500H700V800H800V1000H700ZM100 1100H200V1200H500V1000H400V900H100Z"/>
  <path fill="#ff9902" d="M0 1200H100V1100H200V1000H300V1100H400V800H200V900H100V1000H0Z"/>
  <path fill="#686868" d="M100 600H200V700H800V600H1100V500H1000V200H900V100H700V200H500V100H300V200H200V500H100Z"/>
  <path fill="#404042" d="M200 500H300V600H500V500H1000V400H200Z"/>
  <path fill="#70534a" d="M300 1100H400V1200H800V1100H900V700H800V600H500V800H400V900H300Z"/>
  <path fill="#a7a7a7" d="M200 900H300V1000H500V900H600V600H500V500H300V600H200Z"/>
  <path fill="#9f9d9d" d="M300 800H500V600H300Z"/>
  <path fill="#beb2af" d="M300 900H500V600H400V700H300Z"/>
  <path fill="#1a1717" d="M700 900H800V700H700Z"/>
  <path fill="#9d9c9c" d="M400 900H500V700H400Z"/>
</svg>
