<?xml version="1.0" encoding="UTF-8"?>
<svg xmlns="http://www.w3.org/2000/svg" viewBox="0 0 1200 1200" width="1200" height="1200">
  <title>emoji_u1f1ec_1f1e9</title>
  <path fill="#bd1a2b" d="M0 1000H200V300H0ZM900 1000H1100V300H900Z"/>
  <path fill="#ce1526" d="M0 400H100V500H1000V400H1100V300H0ZM0 1000H1100V900H1000V800H100V900H0Z"/>
  <path fill="#ce1126" d="M0 400H100V300H0ZM1000 400H1100V300H1000ZM100 500H200V400H100ZM900 500H1000V400H900ZM100 900H200V800H100ZM900 900H1000V800H900ZM0 1000H100V900H0ZM1000 1000H1100V900H1000Z"/>
  <path fill="#ce1626" d="M100 500H400V300H200V400H100ZM700 500H1000V400H900V300H700ZM100 900H200V1000H400V800H100ZM700 1000H900V900H1000V800H700Z"/>
  <path fill="#d83e22" d="M200 500H500V400H400V300H300V400H200ZM600 500H900V400H800V300H700V400H600ZM200 900H300V1000H400V900H500V800H200ZM600 900H700V1000H800V900H900V800H600Z"/>
  <path fill="#d83f22" d="M400 500H700V400H600V300H500V400H400ZM400 900H500V1000H600V900H700V800H400Z"/>
  <path fill="#fcd116" d="M200 600H900V400H200ZM200 900H900V700H200Z"/>
  <path fill="#4c9448" d="M100 600H300V400H100ZM800 600H1000V400H800ZM100 900H300V700H100ZM800 900H1000V700H800Z"/>
  <path fill="#d3c322" d="M100 600H400V500H300V400H200V500H100ZM700 600H1000V500H900V400H800V500H700ZM100 800H200V900H300V800H400V700H100ZM700 800H800V900H900V800H1000V700H700Z"/>
  <path fill="#037b5d" d="M100 800H300V500H100Z"/>
  <path fill="#8c9b36" d="M100 700H200V800H300V500H200V600H100Z"/>
  <path fill="#007a5e" d="M200 800H500V500H200ZM600 800H1000V500H600Z"/>
  <path fill="#047b5d" d="M200 800H400V700H300V600H400V500H200ZM700 600H900V500H700ZM700 800H900V700H700Z"/>
  <path fill="#669d41" d="M300 800H500V500H300V600H400V700H300ZM600 800H800V700H700V600H800V500H600ZM200 700H300V600H200Z"/>
  <path fill="#e4c71d" d="M400 800H700V500H400Z"/>
  <path fill="#118059" d="M200 700H300V600H200Z"/>
  <path fill="#f09f1a" d="M400 700H500V800H600V700H700V600H400Z"/>
  <path fill="#f0a01a" d="M400 700H700V600H600V500H500V600H400Z"/>
  <path fill="#3b664e" d="M400 700H700V600H400Z"/>
  <path fill="#e87d1d" d="M500 700H600V600H500Z"/>
</svg>
