<?xml version="1.0" encoding="UTF-8"?>
<svg xmlns="http://www.w3.org/2000/svg" viewBox="0 0 1200 1200" width="1200" height="1200">
  <title>emoji_u1f307</title>
  <path fill="#c2625b" d="M0 300H200V100H0ZM600 300H1100V100H600Z"/>
  <path fill="#e07039" d="M0 600H200V300H0ZM900 600H1100V300H900Z"/>
  <path fill="#ff844b" d="M900 1200H1100V700H900ZM0 1200H300V900H0Z"/>
  <path fill="#d46946" d="M0 400H100V500H200V200H0ZM800 500H1000V400H1100V200H800Z"/>
  <path fill="#fcb95a" d="M0 1000H300V700H0Z"/>
  <path fill="#cb6451" d="M0 300H100V400H200V100H100V200H0ZM600 400H900V300H1100V200H700V100H600Z"/>
  <path fill="#710e38" d="M0 1200H400V500H0V800H200V900H0V1000H200V1100H0ZM500 1200H1100V1100H1000V1000H1100V900H1000V800H1100V500H700V700H500Z"/>
  <path fill="#f19e4c" d="M500 900H600V800H800V300H700V100H500ZM0 600H300V700H400V400H100V500H0ZM900 600H1100V500H1000V400H900Z"/>
  <path fill="#d17757" d="M100 500H300V1200H600V600H700V400H600V100H100Z"/>
  <path fill="#fff6b2" d="M600 600H700V700H800V600H1000V400H900V300H700V400H600Z"/>
  <path fill="#ffe066" d="M200 400H300V300H200ZM400 400H500V300H400ZM400 600H500V500H400ZM400 800H500V700H400ZM400 1000H500V900H400Z"/>
</svg>
