<?xml version="1.0" encoding="UTF-8"?>
<svg xmlns="http://www.w3.org/2000/svg" viewBox="0 0 1200 1200" width="1200" height="1200">
  <title>emoji_u1f954</title>
  <path fill="#875b52" d="M0 900H100V1000H200V1100H600V1000H900V900H1000V800H1100V300H1000V200H600V400H500V200H400V300H200V500H100V700H0Z"/>
  <path fill="#b8885a" d="M0 800H100V900H200V800H400V700H600V800H700V600H800V500H1000V200H900V100H500V200H400V400H300V300H200V400H100V500H0ZM700 400V300H800V400ZM500 600V500H600V600ZM200 700V600H300V700Z"/>
  <path fill="#513531" d="M900 700H1000V600H900ZM600 800H700V700H600ZM700 900H800V800H700ZM300 1000H400V900H300Z"/>
  <path fill="#d9ac82" d="M600 300H700V200H600ZM500 400H600V300H500ZM400 500H500V400H400ZM200 600H400V500H200ZM100 700H200V600H100Z"/>
</svg>
