<?xml version="1.0" encoding="UTF-8"?>
<svg xmlns="http://www.w3.org/2000/svg" viewBox="0 0 1200 1200" width="1200" height="1200">
  <title>emoji_u1f43c</title>
  <path fill="#4d4d4d" d="M0 900H100V1000H200V1100H900V1000H1000V900H1100V500H1000V400H1100V200H1000V100H800V300H700V200H400V300H300V100H100V200H0V400H100V500H0Z"/>
  <path fill="#fda4a5" d="M400 1000H700V800H400Z"/>
  <path fill="#030200" d="M300 1000H500V900H600V1000H800V800H700V700H400V800H300Z"/>
  <path fill="#ffffff" d="M100 900H200V1000H400V900H500V800H600V900H700V1000H900V900H1000V500H900V300H800V400H700V300H400V400H300V300H200V500H100ZM200 800V600H300V500H500V700H400V800ZM600 700V500H800V600H900V800H700V700ZM300 700H400V600H300ZM700 700H800V600H700Z"/>
  <path fill="#040301" d="M300 700H400V600H300ZM700 700H800V600H700Z"/>
</svg>
