<?xml version="1.0" encoding="UTF-8"?>
<svg xmlns="http://www.w3.org/2000/svg" viewBox="0 0 1200 1200" width="1200" height="1200">
  <title>emoji_u1f41b</title>
  <path fill="#70853c" d="M200 400H300V500H500V300H400V100H200V200H300V300H200ZM500 300H600V200H500ZM0 700H100V800H200V900H100V1000H300V1100H500V1200H600V1100H700V1200H800V1100H900V1200H1000V1100H1100V1000H500V900H400V800H300V600H0ZM200 1200H300V1100H200Z"/>
  <path fill="#b7d019" d="M0 700H200V900H300V1000H400V1100H1100V900H1000V800H600V700H500V400H400V300H100V400H0Z"/>
  <path fill="#2e2e27" d="M200 600H300V500H200ZM300 800H500V700H300ZM500 900H600V800H500ZM700 1000H800V800H700ZM900 1000H1000V800H900ZM400 1000H500V900H400Z"/>
  <path fill="#fe6014" d="M300 800H400V700H300ZM400 1000H500V900H400ZM700 1000H800V900H700ZM900 1000H1000V900H900Z"/>
</svg>
