<?xml version="1.0" encoding="UTF-8"?>
<svg xmlns="http://www.w3.org/2000/svg" viewBox="0 0 1200 1200" width="1200" height="1200">
  <title>emoji_u1f0cf</title>
  <path fill="#d9cdc9" d="M100 1200H1000V100H800V1000H100Z"/>
  <path fill="#ffffff" d="M100 1100H900V100H100Z"/>
  <path fill="#da0e21" d="M200 300H300V200H200ZM800 1100H900V1000H800Z"/>
  <path fill="#ffb803" d="M700 300H800V200H700ZM500 500H800V400H700V300H600V400H500Z"/>
  <path fill="#00c1ec" d="M500 600H700V700H800V600H900V500H800V400H500Z"/>
  <path fill="#ff605e" d="M300 500H400V600H700V500H600V400H500V300H400V400H300Z"/>
  <path fill="#7958c2" d="M300 800H400V900H500V600H700V900H800V500H400V700H300ZM500 1000H700V900H500Z"/>
</svg>
