<?xml version="1.0" encoding="UTF-8"?>
<svg xmlns="http://www.w3.org/2000/svg" viewBox="0 0 1200 1200" width="1200" height="1200">
  <title>emoji_u1f1fb_1f1e6</title>
  <path fill="#fdfdfd" d="M900 900H1100V600H900Z"/>
  <path fill="#fefefe" d="M900 700H1100V400H900Z"/>
  <path fill="#ffffff" d="M500 1000H1100V800H1000V700H1100V600H1000V500H1100V300H500V600H900V700H500Z"/>
  <path fill="#ffe000" d="M0 1000H600V300H0Z"/>
  <path fill="#fff080" d="M500 1000H600V800H700V500H600V300H500Z"/>
  <path fill="#e6e3df" d="M800 900H900V800H1000V600H800Z"/>
  <path fill="#e7e0ad" d="M800 700H1000V500H900V400H800Z"/>
  <path fill="#ece8cd" d="M800 800H900V700H1000V600H900V500H800Z"/>
  <path fill="#f3f0db" d="M700 600H900V400H700Z"/>
  <path fill="#faeaea" d="M700 900H900V700H700Z"/>
  <path fill="#fbfaf3" d="M600 600H900V500H800V400H700V500H600Z"/>
  <path fill="#fefdfd" d="M600 800H700V900H800V800H900V700H600Z"/>
  <path fill="#d1b293" d="M700 800H900V500H700Z"/>
  <path fill="#dbbf7c" d="M700 700H800V600H900V500H700Z"/>
  <path fill="#dfd3a2" d="M600 700H800V500H600Z"/>
  <path fill="#e3c0bb" d="M700 800H900V700H800V600H700Z"/>
  <path fill="#eceadc" d="M600 700H800V600H700V500H600Z"/>
  <path fill="#f0e0cf" d="M600 800H800V600H600Z"/>
  <path fill="#f4f0d2" d="M600 800H700V700H800V600H600Z"/>
  <path fill="#e2d7ac" d="M600 700H800V600H600Z"/>
  <path fill="#f2f0e1" d="M600 700H700V600H600Z"/>
</svg>
