<?xml version="1.0" encoding="UTF-8"?>
<svg xmlns="http://www.w3.org/2000/svg" viewBox="0 0 1200 1200" width="1200" height="1200">
  <title>emoji_u1f44c</title>
  <path fill="#b55e19" d="M100 1000H200V1100H300V1200H600V1000H700V1200H900V1000H1000V600H900V300H800V200H700V100H500V200H400V400H500V500H300V600H200V700H100V800H200V900H100ZM300 900V800H500V900Z"/>
  <path fill="#faa700" d="M500 200H600V100H500ZM400 400H500V500H600V600H700V700H800V300H700V400H600V300H500V200H400ZM600 300H700V200H600ZM100 800H300V700H600V600H400V500H300V600H200V700H100ZM200 1000H300V1100H600V900H200Z"/>
  <path fill="#ffca28" d="M600 300H700V200H600ZM300 1100H500V1200H800V1000H900V600H800V300H700V700H800V800H700V700H600V600H300V700H500V800H600V900H500V1000H300ZM200 800H300V700H200ZM200 1000H300V900H200Z"/>
</svg>
