<?xml version="1.0" encoding="UTF-8"?>
<svg xmlns="http://www.w3.org/2000/svg" viewBox="0 0 1200 1200" width="1200" height="1200">
  <title>emoji_u1f382</title>
  <path fill="#ff9f19" d="M200 200H300V100H200ZM800 200H900V100H800ZM500 300H600V200H500Z"/>
  <path fill="#93c7ee" d="M100 700H400V500H300V300H200V500H100Z"/>
  <path fill="#fea8a8" d="M700 700H1000V500H900V300H800V500H700Z"/>
  <path fill="#fbb75a" d="M0 1200H1100V800H0Z"/>
  <path fill="#ff6e45" d="M0 700H300V800H900V700H1100V600H1000V500H900V600H800V500H300V600H200V500H100V600H0Z"/>
  <path fill="#f2a05b" d="M0 1100H1100V900H1000V1000H900V900H700V1000H500V900H300V1000H100V900H0Z"/>
  <path fill="#ec7fae" d="M400 800H700V500H600V400H500V500H400V600H500V700H400Z"/>
  <path fill="#ffdaa7" d="M0 1000H100V900H300V1000H500V900H700V1000H900V900H1000V1000H1100V600H800V700H700V600H800V500H600V700H400V600H500V500H300V600H0Z"/>
  <path fill="#fdffff" d="M100 700H200V600H100ZM0 800H100V700H0ZM400 800H500V700H400ZM100 900H300V1000H400V800H100Z"/>
  <path fill="#ee5b4a" d="M100 700H200V600H100ZM900 700H1000V600H900ZM400 800H500V700H400ZM700 800H800V700H700Z"/>
  <path fill="#fce9ca" d="M300 1000H400V900H300ZM700 1000H800V900H700Z"/>
</svg>
