<?xml version="1.0" encoding="UTF-8"?>
<svg xmlns="http://www.w3.org/2000/svg" viewBox="0 0 1200 1200" width="1200" height="1200">
  <title>emoji_u1f1ed_1f1f3</title>
  <path fill="#0073cf" d="M0 600H1100V300H0ZM0 1000H1100V700H0Z"/>
  <path fill="#ffffff" d="M0 800H400V500H0ZM700 800H1100V500H700Z"/>
  <path fill="#a9d0ef" d="M0 800H1100V700H800V600H1100V500H0V600H300V700H0Z"/>
  <path fill="#99c7ec" d="M300 700H500V500H300ZM600 700H800V500H600Z"/>
  <path fill="#9ecaed" d="M300 800H500V600H300ZM600 800H800V600H600Z"/>
  <path fill="#9fcaed" d="M300 700H800V600H700V500H600V600H500V500H400V600H300Z"/>
  <path fill="#a0cbed" d="M300 700H400V800H500V700H600V800H700V700H800V600H300Z"/>
  <path fill="#f2f8fc" d="M300 700H500V600H300ZM600 700H800V600H600Z"/>
  <path fill="#f6fafd" d="M400 700H700V600H400Z"/>
  <path fill="#deedf9" d="M500 700H600V600H500Z"/>
</svg>
