<?xml version="1.0" encoding="UTF-8"?>
<svg xmlns="http://www.w3.org/2000/svg" viewBox="0 0 1200 1200" width="1200" height="1200">
  <title>emoji_u1f470_1f3fd_200d_2640</title>
  <path fill="#dedede" d="M100 1100H300V300H200V400H100ZM800 1100H1000V400H900V300H800Z"/>
  <path fill="#2e7d32" d="M300 1200H800V1000H300Z"/>
  <path fill="#43a047" d="M400 1100H500V1200H600V1100H700V1000H400Z"/>
  <path fill="#ec407a" d="M200 1200H400V1100H700V1200H900V1000H700V900H400V1000H200Z"/>
  <path fill="#f2f2f2" d="M200 500H400V400H700V500H900V200H800V100H300V200H200Z"/>
  <path fill="#543930" d="M300 200H800V100H300ZM200 300H300V200H200ZM800 300H900V200H800ZM200 1000H400V600H700V1000H900V400H800V300H300V400H200Z"/>
  <path fill="#fafafa" d="M100 1200H300V1100H500V1000H600V1100H800V1200H1000V1000H900V900H800V700H600V800H500V700H300V900H200V1000H100Z"/>
  <path fill="#c2185b" d="M500 1000H600V900H500ZM400 1100H500V1000H400ZM600 1100H700V1000H600Z"/>
  <path fill="#99674f" d="M300 800H400V900H500V1000H600V900H700V800H800V700H300Z"/>
  <path fill="#ba8d68" d="M300 800H800V500H600V400H400V500H300Z"/>
  <path fill="#49362e" d="M400 700H500V500H400ZM600 700H700V500H600Z"/>
</svg>
