<?xml version="1.0" encoding="UTF-8"?>
<svg xmlns="http://www.w3.org/2000/svg" viewBox="0 0 1200 1200" width="1200" height="1200">
  <title>emoji_u1f47a</title>
  <path fill="#b31b1b" d="M500 1200H700V1100H800V1000H500Z"/>
  <path fill="#b71c1c" d="M0 1000H100V1100H200V1200H600V1100H700V1000H900V900H1000V800H1100V600H900V400H700V700H600V200H300V100H100V200H0Z"/>
  <path fill="#ff8a66" d="M700 800H1000V700H1100V600H700Z"/>
  <path fill="#f44336" d="M0 900H100V1000H200V1100H800V1000H900V900H600V800H800V700H900V600H800V500H900V200H800V100H200V200H100V800H0ZM400 700V300H500V700ZM1000 700H1100V600H1000ZM900 800H1000V700H900Z"/>
  <path fill="#281010" d="M200 300H300V200H200ZM600 300H700V200H600ZM300 400H400V300H300ZM500 400H600V300H500ZM200 500H300V400H200ZM600 500H700V400H600ZM0 900H100V800H0ZM100 1000H300V900H400V800H200V900H100ZM500 900H600V800H500ZM400 1000H500V900H400ZM600 1000H800V900H600ZM300 1100H400V1000H300ZM500 1100H600V1000H500Z"/>
  <path fill="#fff8e1" d="M400 1000H500V900H400ZM300 1100H400V1000H300ZM500 1100H600V1000H500Z"/>
  <path fill="#ffecb3" d="M100 600H200V700H400V500H300V400H100ZM500 700H700V600H800V400H600V500H500Z"/>
  <path fill="#212121" d="M200 600H300V500H200ZM600 600H700V500H600Z"/>
</svg>
