<?xml version="1.0" encoding="UTF-8"?>
<svg xmlns="http://www.w3.org/2000/svg" viewBox="0 0 1200 1200" width="1200" height="1200">
  <title>emoji_u1f3f0</title>
  <path fill="#ff2a23" d="M100 400H200V300H300V200H200V100H100ZM900 400H1000V300H1100V200H1000V100H900ZM300 400H400V300H300Z"/>
  <path fill="#6e4d42" d="M400 1200H700V900H400Z"/>
  <path fill="#a62714" d="M0 600H400V500H700V600H1100V400H1000V300H900V400H800V300H700V200H600V100H500V200H400V300H300V400H200V300H100V400H0Z"/>
  <path fill="#6f6a67" d="M300 1200H500V1000H600V1200H800V900H700V800H400V900H300Z"/>
  <path fill="#89847e" d="M0 1000H100V1200H400V700H0ZM700 1200H1000V1000H1100V700H700Z"/>
  <path fill="#aca299" d="M0 800H300V1200H400V1000H500V900H600V1000H700V1200H800V800H1100V500H800V400H600V500H500V400H300V500H0ZM0 1200H200V900H0ZM900 1200H1100V900H900Z"/>
  <path fill="#2f2f2f" d="M400 600H700V400H400ZM0 700H100V500H0ZM200 700H300V500H200ZM800 700H900V500H800ZM1000 700H1100V500H1000ZM300 800H400V700H300ZM700 800H800V700H700Z"/>
  <path fill="#e5ddd2" d="M300 900H800V700H700V800H600V700H500V800H400V700H300Z"/>
</svg>
