<?xml version="1.0" encoding="UTF-8"?>
<svg xmlns="http://www.w3.org/2000/svg" viewBox="0 0 1200 1200" width="1200" height="1200">
  <title>emoji_u1f1f9_1f1fb</title>
  <path fill="#6e9d9d" d="M900 500H1100V300H900Z"/>
  <path fill="#934770" d="M0 500H200V300H0Z"/>
  <path fill="#575b97" d="M200 500H500V300H200Z"/>
  <path fill="#5c97b0" d="M700 1000H1000V800H700Z"/>
  <path fill="#5f98ad" d="M900 900H1100V600H900Z"/>
  <path fill="#613e77" d="M0 500H300V300H100V400H0Z"/>
  <path fill="#6199aa" d="M800 500H1100V400H1000V300H800Z"/>
  <path fill="#689ca2" d="M600 1000H800V900H900V800H600Z"/>
  <path fill="#6a698f" d="M400 500H700V300H400Z"/>
  <path fill="#6c9d9e" d="M900 600H1100V400H900Z"/>
  <path fill="#6c9d9f" d="M500 1000H700V900H800V800H500Z"/>
  <path fill="#7aa18f" d="M400 1000H600V900H700V800H400Z"/>
  <path fill="#826895" d="M0 700H200V400H0Z"/>
  <path fill="#8e6e88" d="M0 800H200V500H100V600H0Z"/>
  <path fill="#97486f" d="M300 500H600V400H500V300H400V400H300Z"/>
  <path fill="#9e466b" d="M100 500H400V400H300V300H200V400H100Z"/>
  <path fill="#b74e6b" d="M0 500H100V600H200V400H0Z"/>
  <path fill="#7ba28e" d="M600 900H900V800H1000V700H1100V500H900V700H600Z"/>
  <path fill="#5b97b1" d="M0 1000H500V900H700V800H800V900H900V1000H1100V800H1000V600H1100V500H1000V400H900V300H600V400H500V600H100V700H0Z"/>
  <path fill="#3a669b" d="M100 700H300V500H100Z"/>
  <path fill="#5d98af" d="M500 900H700V800H800V700H600V800H500Z"/>
  <path fill="#5e98ae" d="M600 800H700V700H600ZM500 900H600V800H500Z"/>
  <path fill="#659aa6" d="M800 800H1000V500H800V600H900V700H800Z"/>
  <path fill="#76a094" d="M800 600H1000V400H900V500H800Z"/>
  <path fill="#78a192" d="M900 500H1000V400H900ZM800 600H900V500H800Z"/>
  <path fill="#84a585" d="M800 900H900V800H1000V700H800Z"/>
  <path fill="#89728e" d="M400 600H600V400H400Z"/>
  <path fill="#8ca77c" d="M700 800H800V900H900V700H700Z"/>
  <path fill="#c76c83" d="M100 600H200V700H300V400H100Z"/>
  <path fill="#c8556c" d="M300 600H600V500H500V400H300Z"/>
  <path fill="#d63c4f" d="M100 500H200V600H400V400H100Z"/>
  <path fill="#d95365" d="M100 500H200V400H100ZM200 600H300V500H200Z"/>
  <path fill="#dc5768" d="M200 600H500V500H400V400H300V500H200Z"/>
  <path fill="#5e7ca5" d="M400 700H600V500H400Z"/>
  <path fill="#5f98ac" d="M500 700H600V600H500ZM600 800H800V700H600Z"/>
  <path fill="#669ba5" d="M700 800H900V700H700Z"/>
  <path fill="#7b6e8e" d="M200 700H400V500H200Z"/>
  <path fill="#88a680" d="M700 800H800V700H700Z"/>
  <path fill="#8da87b" d="M800 600H900V500H800Z"/>
  <path fill="#b2829f" d="M200 600H300V700H500V500H200Z"/>
  <path fill="#be6d86" d="M300 700H600V600H500V500H400V600H300Z"/>
  <path fill="#bf5670" d="M200 600H300V500H200ZM300 700H400V600H300Z"/>
  <path fill="#4872a2" d="M300 700H500V600H300Z"/>
  <path fill="#677197" d="M400 700H600V600H400Z"/>
  <path fill="#788099" d="M500 700H600V600H500Z"/>
</svg>
