<?xml version="1.0" encoding="UTF-8"?>
<svg xmlns="http://www.w3.org/2000/svg" viewBox="0 0 1200 1200" width="1200" height="1200">
  <title>emoji_u2753</title>
  <path fill="#cc3333" d="M200 500H400V400H500V300H700V400H800V500H700V600H600V700H500V900H700V800H800V700H900V600H1000V300H900V200H800V100H600V200H300V300H200ZM500 1200H700V1000H500Z"/>
  <path fill="#f44336" d="M100 500H300V400H400V300H600V400H700V500H600V600H500V700H400V900H600V800H700V700H800V600H900V300H800V200H700V100H300V200H200V300H100ZM400 1200H600V1000H400Z"/>
</svg>
