<?xml version="1.0" encoding="UTF-8"?>
<svg xmlns="http://www.w3.org/2000/svg" viewBox="0 0 1200 1200" width="1200" height="1200">
  <title>emoji_u2764_200d_1fa79</title>
  <path fill="#cc3333" d="M100 300H300V400H600V300H500V200H400V100H200V200H100ZM600 300H1000V200H900V100H700V200H600ZM400 1100H500V1200H600V1100H700V1000H800V900H900V800H1000V700H1100V500H900V600H800V700H700V800H600V900H500V1000H400Z"/>
  <path fill="#aaaaaa" d="M0 700H100V800H200V900H300V1000H400V900H500V800H600V700H1000V600H1100V300H1000V200H600V300H400V200H100V300H0Z"/>
  <path fill="#f44336" d="M100 300H400V200H100ZM600 300H800V200H600ZM800 400H900V300H800ZM400 600H500V500H400ZM300 700H400V600H300ZM300 1000H400V1100H600V1000H700V900H800V800H900V700H1000V600H500V700H400V800H300ZM200 800H300V700H200Z"/>
  <path fill="#ff8a80" d="M200 300H300V200H200Z"/>
  <path fill="#f5f5f5" d="M700 500H1000V300H800V400H700ZM100 600H200V500H300V400H100ZM200 800H300V700H400V600H500V500H600V400H400V500H300V600H200Z"/>
</svg>
