<?xml version="1.0" encoding="UTF-8"?>
<svg xmlns="http://www.w3.org/2000/svg" viewBox="0 0 1200 1200" width="1200" height="1200">
  <title>emoji_u1f943</title>
  <path fill="#c0c0c0" d="M100 800H200V1100H300V1200H800V1100H900V800H1000V300H800V700H700V1000H400V700H300V300H100Z"/>
  <path fill="#c8c8c8" d="M100 400H200V700H900V400H1000V300H900V200H800V100H300V200H200V300H100Z"/>
  <path fill="#ac5810" d="M600 1100H800V800H600ZM300 1100H500V900H300Z"/>
  <path fill="#cf701e" d="M300 1000H400V1100H700V900H300Z"/>
  <path fill="#f8c977" d="M300 1000H700V900H800V800H900V700H600V800H300Z"/>
  <path fill="#eaeaea" d="M200 400H300V500H800V400H900V300H800V200H300V300H200ZM200 800H300V900H400V800H900V500H800V600H300V500H200Z"/>
  <path fill="#ffffff" d="M200 400H300V300H200ZM800 400H900V300H800ZM300 500H800V400H300Z"/>
  <path fill="#dd821d" d="M300 900H700V800H800V700H300Z"/>
  <path fill="#f6af3b" d="M300 800H600V700H300Z"/>
</svg>
