<?xml version="1.0" encoding="UTF-8"?>
<svg xmlns="http://www.w3.org/2000/svg" viewBox="0 0 1200 1200" width="1200" height="1200">
  <title>emoji_u1f91d_1f3fc</title>
  <path fill="#d19661" d="M0 800H200V900H300V1000H400V1100H600V1000H700V1100H800V1000H900V900H1000V800H1100V500H1000V400H1100V200H0V400H500V500H400V700H200V600H0Z"/>
  <path fill="#8d542e" d="M600 300H700V200H600ZM0 700H100V800H200V900H300V800H400V900H500V1000H400V1100H600V1000H700V900H800V800H900V900H1000V800H1100V600H1000V700H900V600H800V700H500V600H800V500H900V400H800V300H700V400H600V300H200V600H0ZM900 600H1000V500H900ZM300 1000H400V900H300ZM800 1000H900V900H800ZM700 1100H800V1000H700Z"/>
  <path fill="#e0bb95" d="M0 700H200V800H300V700H400V800H500V900H700V800H800V700H500V600H400V500H300V400H400V300H0ZM400 500H900V600H1000V800H1100V300H700V400H400Z"/>
</svg>
