<?xml version="1.0" encoding="UTF-8"?>
<svg xmlns="http://www.w3.org/2000/svg" viewBox="0 0 1200 1200" width="1200" height="1200">
  <title>emoji_u267b</title>
  <path fill="#7cb342" d="M0 1000H100V1100H400V1000H500V1100H600V1200H700V1100H900V1000H1000V900H1100V600H1000V200H900V300H800V200H700V100H300V200H200V400H0V500H100V600H0ZM400 900V400H500V300H600V400H700V500H600V600H800V800H700V700H600V800H500V900ZM200 800V700H300V800Z"/>
  <path fill="#a4ca7b" d="M400 400H500V300H800V200H400ZM0 800H100V600H0ZM600 800H700V700H600ZM100 900H200V800H100ZM500 900H600V800H500Z"/>
  <path fill="#34700d" d="M200 400H500V200H300V300H200ZM800 800H1000V600H800ZM100 1000H400V800H100Z"/>
</svg>
