<?xml version="1.0" encoding="UTF-8"?>
<svg xmlns="http://www.w3.org/2000/svg" viewBox="0 0 1200 1200" width="1200" height="1200">
  <title>emoji_u1f6f8</title>
  <path fill="#4cf9ff" d="M200 1100H300V1000H200ZM500 1200H600V1000H500ZM800 1100H900V1000H800ZM100 1200H200V1100H100ZM900 1200H1000V1100H900Z"/>
  <path fill="#848484" d="M100 900H1000V700H100Z"/>
  <path fill="#6e9990" d="M0 800H100V900H200V800H300V900H400V800H600V900H700V800H900V900H1000V800H1100V600H0Z"/>
  <path fill="#64dac1" d="M200 500H900V300H800V200H700V100H400V200H300V300H200Z"/>
  <path fill="#9cfcec" d="M400 300H500V400H600V200H400ZM200 500H500V400H400V300H300V400H200ZM0 700H100V800H200V700H300V800H400V700H500V800H600V700H700V800H800V700H900V800H1000V700H1100V600H1000V500H900V400H700V600H0Z"/>
  <path fill="#9a9a9a" d="M0 700H1100V600H1000V500H100V600H0Z"/>
  <path fill="#53b4a0" d="M100 600H900V500H800V400H600V300H700V200H500V400H200V500H100Z"/>
  <path fill="#b0b0b0" d="M100 700H200V600H300V700H400V600H500V700H600V600H700V700H800V600H900V700H1000V500H100Z"/>
  <path fill="#e3e3df" d="M200 600H300V700H400V500H200ZM100 700H200V600H100Z"/>
  <path fill="#72968f" d="M100 700H200V600H100ZM300 700H400V600H300ZM500 700H600V600H500ZM700 700H800V600H700ZM900 700H1000V600H900Z"/>
</svg>
