<?xml version="1.0" encoding="UTF-8"?>
<svg xmlns="http://www.w3.org/2000/svg" viewBox="0 0 1200 1200" width="1200" height="1200">
  <title>emoji_u1f413</title>
  <path fill="#ffb70c" d="M200 1100H300V1200H400V1100H600V1200H700V1100H800V1000H200Z"/>
  <path fill="#a42e1a" d="M100 400H500V300H600V100H200V200H100Z"/>
  <path fill="#ffb903" d="M0 500H100V700H400V600H500V300H100V400H0Z"/>
  <path fill="#315427" d="M600 1000H700V1100H800V1000H900V900H1000V800H1100V700H1000V600H1100V400H800V500H700V700H600Z"/>
  <path fill="#ff6157" d="M0 800H300V600H200V500H300V400H400V300H100V600H0ZM300 600H400V500H300Z"/>
  <path fill="#d27856" d="M200 700H300V1000H800V900H700V700H600V600H500V500H300V600H200Z"/>
  <path fill="#8d5e50" d="M0 900H100V1000H200V1100H800V900H400V600H200V700H100V600H0Z"/>
  <path fill="#29292a" d="M200 400H300V300H200Z"/>
</svg>
