<?xml version="1.0" encoding="UTF-8"?>
<svg xmlns="http://www.w3.org/2000/svg" viewBox="0 0 1200 1200" width="1200" height="1200">
  <title>emoji_u1f1f4_1f1f2</title>
  <path fill="#dd2025" d="M0 500H200V300H0Z"/>
  <path fill="#dd2328" d="M0 700H200V400H0Z"/>
  <path fill="#e0373b" d="M0 500H100V600H200V300H100V400H0Z"/>
  <path fill="#e13d41" d="M100 500H300V300H100Z"/>
  <path fill="#e45053" d="M100 500H400V300H200V400H100Z"/>
  <path fill="#008000" d="M200 1000H1100V700H200Z"/>
  <path fill="#ffffff" d="M200 600H1100V300H300V400H200Z"/>
  <path fill="#a53014" d="M100 1000H300V800H400V700H100Z"/>
  <path fill="#db161b" d="M0 1000H200V800H1100V500H100V600H0Z"/>
  <path fill="#913a12" d="M200 800H1100V700H200Z"/>
  <path fill="#e76568" d="M200 600H1100V500H300V400H200Z"/>
  <path fill="#dd2126" d="M100 600H300V400H100Z"/>
  <path fill="#e5575a" d="M100 500H200V600H300V400H100Z"/>
  <path fill="#ec8487" d="M100 500H200V400H100ZM200 600H300V500H200Z"/>
  <path fill="#c91f19" d="M200 800H300V700H200Z"/>
  <path fill="#df2e32" d="M200 600H300V500H200Z"/>
</svg>
