<?xml version="1.0" encoding="UTF-8"?>
<svg xmlns="http://www.w3.org/2000/svg" viewBox="0 0 1200 1200" width="1200" height="1200">
  <title>emoji_u1fa81</title>
  <path fill="#bfccd2" d="M1000 600H1100V500H1000ZM900 700H1000V600H900ZM800 1100H900V700H800ZM400 1100H500V800H400ZM500 1200H800V1100H500Z"/>
  <path fill="#917bf1" d="M100 500H200V700H300V800H400V900H500V300H200V400H100Z"/>
  <path fill="#ec3e24" d="M200 400H400V500H600V200H500V100H400V200H300V300H200Z"/>
  <path fill="#ff8e00" d="M400 900H500V800H600V700H700V500H800V400H400Z"/>
  <path fill="#feb804" d="M400 500H800V400H700V300H600V200H500V400H400Z"/>
</svg>
