<?xml version="1.0" encoding="UTF-8"?>
<svg xmlns="http://www.w3.org/2000/svg" viewBox="0 0 1200 1200" width="1200" height="1200">
  <title>emoji_u1f64d_1f3ff</title>
  <path fill="#f2780b" d="M100 1200H1000V900H900V800H700V900H600V1000H500V900H400V800H200V900H100Z"/>
  <path fill="#232020" d="M100 800H200V900H300V600H400V500H700V600H800V900H900V800H1000V300H900V200H800V100H300V200H200V300H100Z"/>
  <path fill="#70534a" d="M200 900H300V1000H400V1100H700V1000H800V900H900V500H800V400H300V500H200Z"/>
  <path fill="#3c2b24" d="M400 1100H700V1000H400Z"/>
  <path fill="#1a1717" d="M400 600H500V500H400ZM600 600H700V500H600ZM300 700H400V600H300ZM700 700H800V600H700ZM500 800H600V700H500ZM400 900H500V800H400ZM600 900H700V800H600Z"/>
</svg>
