<?xml version="1.0" encoding="UTF-8"?>
<svg xmlns="http://www.w3.org/2000/svg" viewBox="0 0 1200 1200" width="1200" height="1200">
  <title>emoji_u1f440</title>
  <path fill="#b0bec5" d="M0 900H100V1000H200V1100H400V1000H500V900H600V1000H700V1100H900V1000H1000V900H1100V400H1000V300H900V200H700V300H600V400H500V300H400V200H200V300H100V400H0Z"/>
  <path fill="#fafafa" d="M100 900H200V1000H400V900H500V400H400V300H200V400H100ZM600 900H700V1000H900V900H1000V400H900V300H700V400H600Z"/>
  <path fill="#2e2e2e" d="M200 800H400V700H300V600H400V500H200ZM700 800H900V700H800V600H900V500H700Z"/>
</svg>
