<?xml version="1.0" encoding="UTF-8"?>
<svg xmlns="http://www.w3.org/2000/svg" viewBox="0 0 1200 1200" width="1200" height="1200">
  <title>emoji_u2623</title>
  <path fill="#f2a600" d="M300 1200H900V1000H1100V500H1000V400H900V700H800V900H600V1000H300Z"/>
  <path fill="#4d4d4d" d="M100 600H400V400H500V100H400V200H200V300H100Z"/>
  <path fill="#ffec8c" d="M300 500H500V400H600V100H400V300H300ZM200 300H300V200H200ZM0 600H300V500H200V300H100V500H0Z"/>
  <path fill="#ffcc32" d="M0 1000H200V1200H400V1100H700V1000H900V800H1000V300H900V200H700V100H400V200H500V300H400V400H300V500H0ZM200 300H300V200H200ZM100 400H200V300H100Z"/>
  <path fill="#000000" d="M400 200H500V100H400ZM600 200H700V100H600ZM700 300H800V200H700ZM800 500H900V300H800ZM400 500H700V400H400ZM200 700H300V800H400V700H500V600H400V500H300V600H200ZM600 700H700V800H800V700H900V600H800V500H700V600H600ZM100 800H200V700H100ZM400 900H500V1000H600V900H700V800H600V700H500V800H400ZM900 800H1000V700H900ZM0 1000H100V800H0ZM1000 1000H1100V800H1000ZM400 1100H500V1000H400ZM600 1100H700V1000H600ZM200 1200H400V1100H200ZM700 1200H900V1100H700Z"/>
</svg>
