<?xml version="1.0" encoding="UTF-8"?>
<svg xmlns="http://www.w3.org/2000/svg" viewBox="0 0 1200 1200" width="1200" height="1200">
  <title>emoji_u1f30f</title>
  <path fill="#1469f1" d="M0 800H100V1000H200V1100H400V1200H700V1100H900V1000H1000V800H1100V500H1000V300H900V200H700V100H400V300H700V500H800V800H700V900H400V800H300V600H200V500H0Z"/>
  <path fill="#c0dd9d" d="M0 600H100V700H500V600H600V200H500V100H400V200H200V300H100V500H0ZM400 1000H500V1100H700V1000H800V900H900V700H600V800H400Z"/>
  <path fill="#7add8a" d="M0 600H100V700H200V900H300V1000H500V800H600V900H700V800H800V900H900V400H800V300H900V200H700V100H600V200H500V100H400V300H500V500H400V600H200V500H0ZM200 500H400V300H300V400H200ZM700 1000H800V900H700ZM500 1100H700V1000H500Z"/>
  <path fill="#e3dda6" d="M200 500H400V300H200ZM400 1000H500V900H700V800H800V700H400Z"/>
  <path fill="#1b82f9" d="M200 900H400V1000H500V800H900V700H1000V600H900V400H700V500H800V600H700V700H600V600H500V700H400V600H300V800H200ZM600 600H700V500H600Z"/>
</svg>
