<?xml version="1.0" encoding="UTF-8"?>
<svg xmlns="http://www.w3.org/2000/svg" viewBox="0 0 1200 1200" width="1200" height="1200">
  <title>emoji_u1f9d1_1f3fe_200d_1f9bd</title>
  <path fill="#4568ad" d="M0 1100H200V800H100V900H0Z"/>
  <path fill="#c62828" d="M900 600H1100V300H900Z"/>
  <path fill="#3c2c23" d="M500 400H600V500H900V400H800V100H500Z"/>
  <path fill="#424242" d="M800 500H1000V400H1100V100H900V400H800ZM0 1100H100V1200H200V1100H300V1200H400V1100H500V1000H400V900H300V1000H200V900H100V1000H0Z"/>
  <path fill="#7c7c7c" d="M100 1100H300V1000H200V900H300V800H600V500H500V600H300V700H200V800H100Z"/>
  <path fill="#a56c43" d="M500 500H800V400H700V300H600V200H500Z"/>
  <path fill="#78909c" d="M400 1100H600V1200H1000V1100H1100V500H500V700H400V800H500V1000H400ZM600 1000V800H1000V1000H900V1100H700V1000ZM300 1000H400V900H300ZM100 1200H200V1100H300V1000H100ZM300 1200H400V1100H300Z"/>
  <path fill="#ec6e24" d="M500 700H600V600H700V700H800V600H900V400H500Z"/>
  <path fill="#f44336" d="M1000 400H1100V100H1000ZM600 800H700V900H900V800H1000V700H1100V500H1000V400H800V500H700V700H600ZM800 700V600H1000V700ZM500 700H600V600H500ZM400 800H500V700H400ZM200 900H300V800H200ZM500 900H600V800H500ZM300 1000H400V900H300ZM100 1200H200V1000H100Z"/>
  <path fill="#82aec0" d="M700 700H800V600H700ZM600 800H700V700H600ZM900 800H1000V700H900ZM500 900H600V800H500ZM700 1000H900V800H700ZM600 1100H700V1000H600ZM900 1100H1000V1000H900Z"/>
  <path fill="#8ec4d2" d="M500 900H600V800H500Z"/>
  <path fill="#a36a42" d="M700 700H800V500H700Z"/>
  <path fill="#757575" d="M700 1000H900V800H700Z"/>
</svg>
