<?xml version="1.0" encoding="UTF-8"?>
<svg xmlns="http://www.w3.org/2000/svg" viewBox="0 0 1200 1200" width="1200" height="1200">
  <title>emoji_u26b0</title>
  <path fill="#874d36" d="M200 1000H300V1100H500V1000H800V900H1100V600H700V700H400V800H200Z"/>
  <path fill="#c87d5e" d="M0 900H200V1000H300V900H500V800H800V700H1100V300H800V200H500V100H300V200H100V300H0Z"/>
  <path fill="#ab664b" d="M800 600H1000V400H800ZM100 700H200V600H100ZM500 700H800V600H500ZM0 900H100V1000H300V800H100V700H0ZM300 800H500V700H300Z"/>
  <path fill="#844d37" d="M300 300H500V200H300ZM100 500H200V400H300V300H100ZM500 400H800V300H500ZM800 500H1000V400H800Z"/>
  <path fill="#eeb875" d="M100 700H300V600H200V400H100ZM300 800H400V700H300Z"/>
</svg>
