<?xml version="1.0" encoding="UTF-8"?>
<svg xmlns="http://www.w3.org/2000/svg" viewBox="0 0 1200 1200" width="1200" height="1200">
  <title>emoji_u1f489</title>
  <path fill="#848484" d="M1000 200H1100V100H1000ZM900 300H1000V200H900ZM700 500H900V300H700Z"/>
  <path fill="#00937a" d="M600 500H700V600H800V500H900V400H800V300H700V400H600Z"/>
  <path fill="#212121" d="M400 700H500V800H600V700H700V600H800V500H700V400H600V500H500V600H400Z"/>
  <path fill="#ffffff" d="M600 600H800V400H600ZM300 800H600V600H400V700H300Z"/>
  <path fill="#82aec0" d="M600 600H700V500H600ZM0 1000H100V1100H200V1200H300V1000H400V1100H500V1000H600V900H500V800H600V600H500V700H300V600H200V700H100V800H200V900H0Z"/>
  <path fill="#b9e4ea" d="M600 600H800V400H700V500H600ZM200 800H300V900H400V1000H600V900H500V800H400V700H300V600H200ZM500 800H600V700H500ZM100 1000H200V1100H300V900H100Z"/>
</svg>
