<?xml version="1.0" encoding="UTF-8"?>
<svg xmlns="http://www.w3.org/2000/svg" viewBox="0 0 1200 1200" width="1200" height="1200">
  <title>emoji_u1faaf</title>
  <path fill="#8e24aa" d="M0 1100H100V1200H1000V1100H1100V200H1000V100H900V1000H0Z"/>
  <path fill="#ab47bc" d="M0 1100H1000V100H100V200H0Z"/>
  <path fill="#c47fd0" d="M200 300H300V200H200ZM100 400H200V300H100Z"/>
  <path fill="#fafafa" d="M100 800H200V900H400V1000H500V1100H600V1000H700V900H900V800H1000V600H900V500H800V600H700V500H800V400H700V300H600V200H500V300H400V400H300V500H400V600H300V500H200V600H100ZM300 800V700H400V800H500V900H400V800ZM600 900V800H700V700H800V800H700V900ZM300 1100H400V1000H300ZM700 1100H800V1000H700Z"/>
</svg>
