<?xml version="1.0" encoding="UTF-8"?>
<svg xmlns="http://www.w3.org/2000/svg" viewBox="0 0 1200 1200" width="1200" height="1200">
  <title>emoji_u1f5ef</title>
  <path fill="#2f2f2f" d="M0 700H100V800H200V900H100V1200H300V1100H400V1000H500V900H700V1000H800V900H900V800H1100V700H900V600H1100V500H900V400H1000V300H900V200H700V100H600V200H500V100H400V200H300V100H100V300H0V400H100V600H0ZM900 200H1000V100H900ZM900 1000H1000V900H900Z"/>
  <path fill="#ffffff" d="M100 700H200V800H300V900H200V1100H300V1000H400V900H500V700H600V800H700V900H800V800H900V700H800V600H900V500H800V400H900V300H700V200H600V300H500V200H400V300H300V200H200V300H100V400H200V600H100Z"/>
</svg>
