<?xml version="1.0" encoding="UTF-8"?>
<svg xmlns="http://www.w3.org/2000/svg" viewBox="0 0 1200 1200" width="1200" height="1200">
  <title>emoji_u1fa8f</title>
  <path fill="#a06841" d="M800 200H900V300H1000V400H1100V200H1000V100H800ZM400 800H600V700H700V600H800V400H900V300H700V400H600V500H500V600H400Z"/>
  <path fill="#2f7889" d="M700 500H1000V400H900V300H800V200H700ZM0 1100H100V1200H400V1100H600V1000H700V900H600V700H500V600H400V700H200V800H100V1000H0Z"/>
  <path fill="#7d5133" d="M700 600H800V500H900V400H800V300H700Z"/>
  <path fill="#82aec0" d="M800 200H900V100H800ZM700 400H800V200H700ZM1000 400H1100V300H1000ZM800 500H1000V400H800ZM0 1100H400V1000H600V900H500V600H300V500H200V600H100V800H0ZM200 1000V900H300V800H400V900H300V1000Z"/>
</svg>
