<?xml version="1.0" encoding="UTF-8"?>
<svg xmlns="http://www.w3.org/2000/svg" viewBox="0 0 1200 1200" width="1200" height="1200">
  <title>emoji_u1f1f2_1f1f0</title>
  <path fill="#e04900" d="M0 500H200V300H0ZM900 500H1100V300H900ZM0 1000H200V800H0ZM900 1000H1100V800H900Z"/>
  <path fill="#d20100" d="M300 500H800V300H300ZM300 1000H800V800H300Z"/>
  <path fill="#d81e00" d="M0 900H200V400H0ZM900 900H1100V400H900Z"/>
  <path fill="#de3f00" d="M100 500H400V300H100ZM700 500H1000V300H700ZM100 1000H400V800H100ZM700 1000H1000V800H700Z"/>
  <path fill="#f8c200" d="M0 500H300V400H200V300H100V400H0ZM800 500H1100V400H1000V300H900V400H800ZM0 900H100V1000H200V900H300V800H0ZM800 900H900V1000H1000V900H1100V800H800Z"/>
  <path fill="#face00" d="M400 500H700V400H600V300H500V400H400ZM400 900H500V1000H600V900H700V800H400Z"/>
  <path fill="#d20000" d="M0 900H300V1000H400V900H700V1000H800V900H1100V800H1000V500H1100V400H800V300H700V400H400V300H300V400H0V500H100V800H0Z"/>
  <path fill="#ffe600" d="M0 700H100V800H200V500H100V600H0ZM400 800H700V500H400ZM900 800H1000V700H1100V600H1000V500H900Z"/>
  <path fill="#d30400" d="M100 900H300V800H200V700H300V600H200V500H300V400H100ZM800 900H1000V400H800V500H900V600H800V700H900V800H800Z"/>
  <path fill="#d50e00" d="M100 500H300V400H100ZM800 500H1000V400H800ZM100 900H300V800H100ZM800 900H1000V800H800Z"/>
  <path fill="#e35600" d="M200 500H300V600H500V500H400V400H200ZM600 600H800V500H900V400H700V500H600ZM200 900H400V800H500V700H300V800H200ZM600 800H700V900H900V800H800V700H600Z"/>
  <path fill="#ec8400" d="M200 500H300V400H200ZM800 500H900V400H800ZM300 600H400V500H300ZM700 600H800V500H700ZM300 800H400V700H300ZM700 800H800V700H700ZM200 900H300V800H200ZM800 900H900V800H800Z"/>
  <path fill="#eb7e00" d="M400 600H700V500H600V400H500V500H400ZM400 800H500V900H600V800H700V700H400Z"/>
  <path fill="#fee000" d="M100 700H300V600H100ZM800 700H1000V600H800Z"/>
  <path fill="#dc3600" d="M200 700H300V800H500V500H300V600H200ZM600 800H800V700H900V600H800V500H600Z"/>
  <path fill="#e04600" d="M300 700H400V800H700V700H800V600H700V500H400V600H300ZM500 700V600H600V700Z"/>
  <path fill="#e97500" d="M500 600H600V500H500ZM400 700H500V600H400ZM600 700H700V600H600ZM500 800H600V700H500Z"/>
  <path fill="#f4ae00" d="M200 700H400V600H200ZM700 700H900V600H700Z"/>
  <path fill="#e45f00" d="M300 700H500V600H300ZM600 700H800V600H600Z"/>
  <path fill="#e97400" d="M300 700H400V600H300ZM700 700H800V600H700Z"/>
</svg>
