<?xml version="1.0" encoding="UTF-8"?>
<svg xmlns="http://www.w3.org/2000/svg" viewBox="0 0 1200 1200" width="1200" height="1200">
  <title>emoji_u1f9f8</title>
  <path fill="#a65f3e" d="M0 1100H100V1200H400V1100H700V1200H1000V1100H1100V1000H1000V700H900V600H1000V400H900V300H1000V200H900V100H800V200H700V100H400V200H300V100H200V200H100V300H200V400H100V600H200V700H100V1000H0Z"/>
  <path fill="#703b26" d="M100 1100H200V1200H300V1100H400V1000H500V800H300V1000H200V900H100ZM600 1000H700V1100H800V1200H900V1100H1000V900H900V1000H800V800H600Z"/>
  <path fill="#db854f" d="M300 500H400V400H300ZM400 700H700V500H600V400H500V500H400ZM700 500H800V400H700ZM100 1100H200V1000H100ZM300 1100H400V1000H300ZM700 1100H800V1000H700ZM900 1100H1000V1000H900ZM200 1200H300V1100H200ZM800 1200H900V1100H800Z"/>
  <path fill="#874d36" d="M200 300H300V200H200ZM800 300H900V200H800Z"/>
  <path fill="#ffca28" d="M300 900H400V1000H500V900H600V1000H700V900H800V800H300ZM300 1100H400V1000H300ZM700 1100H800V1000H700Z"/>
  <path fill="#4b2b1c" d="M300 500H400V400H300ZM700 500H800V400H700Z"/>
  <path fill="#633c24" d="M400 700H700V600H600V500H500V600H400Z"/>
</svg>
