<?xml version="1.0" encoding="UTF-8"?>
<svg xmlns="http://www.w3.org/2000/svg" viewBox="0 0 1200 1200" width="1200" height="1200">
  <title>emoji_u1f32a</title>
  <path fill="#b0bec5" d="M200 1200H1000V1100H900V1000H700V900H400V1000H300V1100H200Z"/>
  <path fill="#afc5cc" d="M100 200H200V100H100ZM200 700H300V800H400V900H500V1100H600V1000H700V900H800V800H900V600H800V500H900V200H800V100H400V200H300V300H200V400H300V500H200ZM0 300H100V200H0ZM1000 600H1100V400H1000ZM0 900H100V700H0Z"/>
  <path fill="#e3ebee" d="M200 600H400V700H600V800H400V1000H500V1100H600V900H700V800H900V600H500V500H800V100H400V300H600V200H700V400H300V500H200ZM200 400H300V300H200Z"/>
</svg>
