<?xml version="1.0" encoding="UTF-8"?>
<svg xmlns="http://www.w3.org/2000/svg" viewBox="0 0 1200 1200" width="1200" height="1200">
  <title>emoji_u1f1f5_1f1ec</title>
  <path fill="#42050c" d="M0 500H200V300H0Z"/>
  <path fill="#8c0c1a" d="M900 1000H1100V800H900Z"/>
  <path fill="#020202" d="M200 1000H500V800H200Z"/>
  <path fill="#141414" d="M100 1000H300V900H400V800H100Z"/>
  <path fill="#150204" d="M800 1000H1000V900H1100V800H800Z"/>
  <path fill="#b90f22" d="M0 500H300V300H100V400H0Z"/>
  <path fill="#d01b25" d="M600 500H900V300H600Z"/>
  <path fill="#ce1126" d="M100 500H300V600H700V500H800V600H900V900H1100V300H800V400H700V300H200V400H100Z"/>
  <path fill="#000000" d="M0 1000H200V900H400V1000H900V900H1000V800H800V700H700V600H300V400H0Z"/>
  <path fill="#010000" d="M600 800H700V900H900V700H600Z"/>
  <path fill="#090909" d="M200 900H400V800H500V700H300V800H200Z"/>
  <path fill="#0c0102" d="M100 500H200V600H300V400H100Z"/>
  <path fill="#262626" d="M100 800H200V700H300V500H200V600H100Z"/>
  <path fill="#2a2a2a" d="M200 700H300V600H200ZM100 800H200V700H100ZM200 900H300V800H200Z"/>
  <path fill="#333333" d="M300 800H400V700H300ZM200 900H300V800H200Z"/>
  <path fill="#540710" d="M700 800H800V900H1000V700H700Z"/>
  <path fill="#7a0a16" d="M200 600H400V400H200Z"/>
  <path fill="#c21024" d="M800 800H900V900H1000V700H800Z"/>
  <path fill="#cd1126" d="M200 600H500V500H400V400H300V500H200Z"/>
  <path fill="#ce1326" d="M800 700H1000V500H900V400H800Z"/>
  <path fill="#cf1426" d="M800 800H1000V600H800Z"/>
  <path fill="#d32724" d="M800 800H900V700H1000V600H900V500H800Z"/>
  <path fill="#da4322" d="M700 600H900V400H700Z"/>
  <path fill="#f09d1a" d="M600 600H900V500H800V400H600Z"/>
  <path fill="#d63123" d="M500 600H600V800H900V500H700V400H600V500H500Z"/>
  <path fill="#010101" d="M200 700H300V800H400V500H200Z"/>
  <path fill="#0f0f0f" d="M300 800H500V700H600V600H300Z"/>
  <path fill="#1f1f1f" d="M300 800H400V700H500V600H300Z"/>
  <path fill="#210306" d="M500 700H600V800H800V700H700V600H500Z"/>
  <path fill="#390c11" d="M200 600H300V700H500V500H200Z"/>
  <path fill="#464646" d="M200 600H300V500H200ZM300 700H400V600H300Z"/>
  <path fill="#9e0d1d" d="M600 700H700V600H600ZM700 800H900V600H800V700H700Z"/>
  <path fill="#ad0e20" d="M300 700H600V500H400V600H300Z"/>
  <path fill="#d01a25" d="M800 800H900V600H800Z"/>
  <path fill="#d42a24" d="M400 700H700V500H500V600H400Z"/>
  <path fill="#d94122" d="M700 600H800V700H900V500H700Z"/>
  <path fill="#ec8e1c" d="M500 700H700V600H800V500H600V600H500Z"/>
  <path fill="#ee971b" d="M700 600H900V500H700Z"/>
  <path fill="#fcd016" d="M700 600H800V500H700ZM600 700H700V600H600Z"/>
  <path fill="#181818" d="M300 700H500V600H300Z"/>
  <path fill="#211c1d" d="M400 700H600V600H400Z"/>
  <path fill="#670913" d="M500 700H700V600H500Z"/>
  <path fill="#c91125" d="M600 700H700V600H600Z"/>
</svg>
