<?xml version="1.0" encoding="UTF-8"?>
<svg xmlns="http://www.w3.org/2000/svg" viewBox="0 0 1200 1200" width="1200" height="1200">
  <title>emoji_u1f6de</title>
  <path fill="#5e5e5e" d="M400 1200H700V1100H900V1000H1000V800H1100V600H900V800H800V900H700V1000H400Z"/>
  <path fill="#464646" d="M0 800H100V1000H200V1100H400V1200H500V1100H800V1000H900V900H1000V700H1100V500H1000V300H900V200H700V100H400V200H200V300H100V500H0ZM300 600V500H400V400H500V500H400V600ZM600 500V400H700V500H800V600H700V500ZM300 800V700H400V800H500V900H400V800ZM600 900V800H700V700H800V800H700V900Z"/>
  <path fill="#707070" d="M100 800H200V900H400V800H300V500H400V400H700V500H800V300H700V200H400V300H300V400H200V500H100ZM800 700H900V600H1000V500H800Z"/>
  <path fill="#ffffff" d="M400 400H500V500H600V400H700V300H400ZM300 500H400V400H300ZM200 800H300V700H400V600H300V500H200ZM400 600H500V500H400Z"/>
  <path fill="#b0b0b0" d="M600 400H700V300H600ZM300 700H400V800H500V900H400V1000H700V900H600V800H700V700H800V800H900V500H800V600H700V500H600V400H500V500H400V600H300ZM700 500H800V400H700ZM200 800H300V700H200ZM300 900H400V800H300ZM700 900H800V800H700Z"/>
  <path fill="#e0e0e0" d="M400 800H700V500H400Z"/>
  <path fill="#5e6367" d="M400 600H500V500H400ZM600 600H700V500H600ZM500 700H600V600H500ZM400 800H500V700H400ZM600 800H700V700H600Z"/>
  <path fill="#464c4f" d="M500 700H600V600H500Z"/>
</svg>
