<?xml version="1.0" encoding="UTF-8"?>
<svg xmlns="http://www.w3.org/2000/svg" viewBox="0 0 1200 1200" width="1200" height="1200">
  <title>emoji_u2666</title>
  <path fill="#db0a28" d="M100 800H200V900H300V1100H400V1200H700V1100H800V900H900V800H1000V600H800V700H700V900H600V1000H500V900H400V700H300V600H100Z"/>
  <path fill="#ff262e" d="M100 700H200V800H300V1000H400V1100H500V1200H600V1100H700V1000H800V800H900V700H1000V600H900V500H800V300H700V200H600V100H500V200H400V300H300V500H200V600H100Z"/>
</svg>
