<?xml version="1.0" encoding="UTF-8"?>
<svg xmlns="http://www.w3.org/2000/svg" viewBox="0 0 1200 1200" width="1200" height="1200">
  <title>emoji_u1f3a8</title>
  <path fill="#ac5810" d="M0 900H100V1000H200V1100H300V1200H600V1100H700V900H800V800H1000V700H1100V500H900V600H800V500H400V800H500V1000H400V900H300V800H200V700H0ZM500 800V700H700V800Z"/>
  <path fill="#f2a259" d="M0 800H100V900H200V1000H300V1100H600V900H700V800H800V700H1000V600H1100V400H1000V300H900V200H800V100H300V200H200V300H100V400H0ZM500 800V600H700V800Z"/>
  <path fill="#ffee58" d="M500 400H700V200H500Z"/>
  <path fill="#01579b" d="M100 800H300V600H100ZM300 900H400V800H300Z"/>
  <path fill="#2686c6" d="M100 700H300V600H100Z"/>
  <path fill="#f44336" d="M200 500H400V300H200Z"/>
  <path fill="#b0b0b0" d="M300 1000H500V800H300Z"/>
  <path fill="#df7f14" d="M500 400H700V300H500ZM700 500H800V400H700Z"/>
  <path fill="#558b2f" d="M700 600H900V400H700Z"/>
  <path fill="#7cb342" d="M700 500H900V400H700Z"/>
  <path fill="#c62828" d="M200 500H400V400H200Z"/>
  <path fill="#eeeeee" d="M300 900H500V800H300Z"/>
</svg>
