<?xml version="1.0" encoding="UTF-8"?>
<svg xmlns="http://www.w3.org/2000/svg" viewBox="0 0 1200 1200" width="1200" height="1200">
  <title>emoji_u1f9a0</title>
  <path fill="#7adc8a" d="M100 200H200V100H100ZM500 200H600V100H500ZM200 300H300V200H200ZM400 300H500V200H400ZM0 500H100V600H200V300H100V400H0ZM900 600H1000V500H900ZM800 700H900V600H800ZM300 800H400V700H300ZM900 900H1100V800H1000V700H900ZM200 900H300V800H200ZM600 1100H700V1200H800V1000H600Z"/>
  <path fill="#02ab47" d="M100 600H200V700H300V800H500V1000H600V1100H800V1000H900V900H1000V700H900V600H800V500H700V400H600V300H500V200H400V100H300V200H200V300H100ZM700 400H800V300H700ZM0 700H100V600H0ZM400 1100H500V1000H400ZM900 1100H1000V1000H900Z"/>
  <path fill="#7cdb8d" d="M200 600H300V700H500V800H600V1000H800V900H900V700H800V600H700V700H600V600H700V500H600V400H500V300H200ZM700 900V800H800V900Z"/>
  <path fill="#fbc219" d="M300 600H500V400H300Z"/>
</svg>
