<?xml version="1.0" encoding="UTF-8"?>
<svg xmlns="http://www.w3.org/2000/svg" viewBox="0 0 1200 1200" width="1200" height="1200">
  <title>emoji_u2626</title>
  <path fill="#8e24aa" d="M0 1100H100V1200H1000V1100H1100V200H1000V100H900V1000H0Z"/>
  <path fill="#ab47bc" d="M0 1100H1000V100H100V200H0Z"/>
  <path fill="#c37dcf" d="M200 300H300V200H200ZM100 400H200V300H100ZM300 400H400V300H300Z"/>
  <path fill="#fafafa" d="M200 600H500V700H300V800H500V1100H600V900H800V800H600V600H900V500H600V400H800V300H600V200H500V300H300V400H500V500H200Z"/>
</svg>
