<?xml version="1.0" encoding="UTF-8"?>
<svg xmlns="http://www.w3.org/2000/svg" viewBox="0 0 1200 1200" width="1200" height="1200">
  <title>emoji_u1f999</title>
  <path fill="#957155" d="M1000 500H1100V400H1000ZM900 600H1000V500H900ZM400 1000H500V1200H600V1000H700V900H400ZM800 1000H900V1200H1000V1000H1100V900H800Z"/>
  <path fill="#7b5b52" d="M0 500H100V600H200V300H0Z"/>
  <path fill="#ae957f" d="M100 800H200V1000H300V1200H400V1000H700V1200H800V1000H1100V600H1000V500H400V100H300V200H200V100H100Z"/>
  <path fill="#ffd3b2" d="M0 400H100V500H200V600H300V300H200V100H100V300H0ZM300 300H400V100H300Z"/>
  <path fill="#2b2a32" d="M200 400H300V300H200Z"/>
  <path fill="#f8f9fc" d="M200 800H300V1000H400V900H500V800H600V900H700V700H800V900H900V1000H1000V600H300V500H200Z"/>
</svg>
