<?xml version="1.0" encoding="UTF-8"?>
<svg xmlns="http://www.w3.org/2000/svg" viewBox="0 0 1200 1200" width="1200" height="1200">
  <title>emoji_u1f64a</title>
  <path fill="#865b52" d="M0 1100H100V1200H500V1100H700V1200H1000V1100H1100V1000H800V700H600V600H200V900H400V1000H0Z"/>
  <path fill="#b6885b" d="M0 1100H500V1000H600V900H500V800H700V1100H1100V900H1000V700H1100V500H1000V300H900V200H700V100H400V200H200V300H100V500H0V700H100V900H0ZM300 800V400H500V300H600V400H800V600H600V700H500V800Z"/>
  <path fill="#ffcd88" d="M200 800H300V700H500V800H700V700H800V800H900V300H700V200H400V300H200ZM0 700H100V500H0ZM1000 700H1100V500H1000Z"/>
  <path fill="#393531" d="M300 600H400V400H300ZM700 600H800V400H700ZM500 700H600V600H500Z"/>
</svg>
