<?xml version="1.0" encoding="UTF-8"?>
<svg xmlns="http://www.w3.org/2000/svg" viewBox="0 0 1200 1200" width="1200" height="1200">
  <title>emoji_u1f9ef</title>
  <path fill="#616161" d="M400 400H500V300H400ZM300 500H400V400H300ZM200 600H300V500H200Z"/>
  <path fill="#9e9e9e" d="M400 400H600V500H700V200H600V300H400ZM100 1000H200V1100H300V1000H400V1100H500V800H400V900H300V800H200V900H100Z"/>
  <path fill="#424242" d="M600 400H700V500H800V400H1000V300H900V200H1000V100H800V200H600ZM400 400H500V300H400ZM200 900H300V500H200ZM400 1100H1000V700H800V800H600V700H400ZM200 1100H300V1000H200Z"/>
  <path fill="#212121" d="M600 600H900V500H800V300H600Z"/>
  <path fill="#db3427" d="M400 800H500V900H900V800H1000V600H900V500H700V400H600V500H500V600H400ZM400 1100H500V1200H900V1100H1000V900H900V1000H500V900H400Z"/>
  <path fill="#fafafa" d="M700 400H800V300H700ZM600 600H800V500H700V400H600Z"/>
  <path fill="#ba2626" d="M600 600H800V500H600Z"/>
  <path fill="#f85421" d="M600 900H800V700H600Z"/>
  <path fill="#ff7a00" d="M600 900H800V800H700V700H600Z"/>
  <path fill="#ffee58" d="M600 900H700V800H600Z"/>
</svg>
