<?xml version="1.0" encoding="UTF-8"?>
<svg xmlns="http://www.w3.org/2000/svg" viewBox="0 0 1200 1200" width="1200" height="1200">
  <title>emoji_u1f6e4</title>
  <path fill="#a7d0d6" d="M0 600H1100V100H1000V200H900V300H800V400H700V500H500V400H400V300H300V200H100V100H0Z"/>
  <path fill="#528d30" d="M0 800H300V600H400V500H300V400H200V500H0ZM700 700H900V800H1100V500H900V400H800V500H700Z"/>
  <path fill="#7db240" d="M0 1100H200V900H300V800H400V700H500V500H100V600H200V700H0ZM600 700H700V800H800V900H900V1200H1100V700H1000V500H900V600H800V500H600Z"/>
  <path fill="#b88956" d="M0 1200H1100V1100H1000V800H900V700H800V600H700V500H400V600H300V700H200V800H100V1000H0Z"/>
  <path fill="#88857c" d="M200 1200H400V1100H700V1200H900V1000H800V800H700V600H400V800H300V1000H200ZM500 1000V900H600V1000Z"/>
  <path fill="#dad0c5" d="M300 700H400V800H500V500H400V600H300ZM600 800H700V700H800V600H700V500H600ZM0 1200H100V1100H200V1200H300V1000H400V800H300V700H200V800H100V1000H0ZM200 1000V900H300V1000ZM700 1000H800V1200H900V1100H1000V800H900V700H800V800H700ZM800 1000V900H900V1000ZM1000 1200H1100V1100H1000Z"/>
  <path fill="#c8c9c6" d="M200 1200H300V1100H500V1000H400V900H700V1000H600V1100H800V1200H900V1000H800V800H700V500H600V600H500V500H400V800H300V1000H200ZM500 800V700H600V800Z"/>
  <path fill="#543529" d="M500 700H600V600H500ZM300 900H400V800H300ZM500 900H600V800H500ZM700 900H800V800H700ZM200 1100H300V1000H200ZM400 1100H700V1000H400ZM800 1100H900V1000H800Z"/>
</svg>
