<?xml version="1.0" encoding="UTF-8"?>
<svg xmlns="http://www.w3.org/2000/svg" viewBox="0 0 1200 1200" width="1200" height="1200">
  <title>emoji_u1f30b</title>
  <path fill="#e0e0e0" d="M200 300H300V400H400V300H800V400H900V300H1000V100H300V200H200ZM100 400H200V300H100Z"/>
  <path fill="#e24f31" d="M300 400H400V500H800V400H900V200H700V100H600V200H400V100H300ZM100 400H200V300H100ZM0 500H100V400H0ZM200 500H300V400H200Z"/>
  <path fill="#ed823a" d="M900 200H1000V100H900ZM800 400H900V200H800ZM900 500H1000V400H900ZM600 1100H1100V1000H1000V800H600Z"/>
  <path fill="#cb2d30" d="M300 800H1000V700H900V600H800V400H600V200H300V400H400V600H300ZM400 400V300H500V400ZM700 300H800V400H900V200H700ZM100 400H200V300H100Z"/>
  <path fill="#474b4e" d="M100 1200H1100V1000H900V900H1000V700H500V900H200V1000H100ZM700 1000V900H800V1000Z"/>
  <path fill="#e0d5d1" d="M300 400H400V200H300ZM500 400H700V300H800V200H500ZM800 400H900V300H800ZM400 500H500V400H400ZM700 500H800V400H700Z"/>
  <path fill="#e1bcad" d="M400 500H800V400H700V300H500V400H400Z"/>
  <path fill="#717578" d="M200 1000H300V1100H500V1000H600V800H700V700H600V600H500V700H300V800H200ZM100 1100H200V1000H100Z"/>
  <path fill="#d84030" d="M500 800H700V900H800V800H900V900H1000V700H700V600H500ZM300 800H400V700H300ZM400 900H500V800H400Z"/>
  <path fill="#ea5c31" d="M400 900H500V800H400ZM700 900H800V800H700ZM900 900H1000V800H900Z"/>
  <path fill="#e2b09c" d="M500 500H700V400H500Z"/>
  <path fill="#ec5f32" d="M500 700H700V600H500Z"/>
</svg>
