<?xml version="1.0" encoding="UTF-8"?>
<svg xmlns="http://www.w3.org/2000/svg" viewBox="0 0 1200 1200" width="1200" height="1200">
  <title>emoji_u1f410</title>
  <path fill="#46484a" d="M100 1000H200V900H300V1200H500V1000H400V700H100ZM600 1200H800V1000H600ZM900 1200H1100V1000H900Z"/>
  <path fill="#855b52" d="M0 600H100V700H700V600H600V500H500V300H400V400H300V300H200V400H100V500H0ZM300 1100H500V1000H600V1100H800V1000H900V1100H1100V900H300Z"/>
  <path fill="#b68859" d="M300 300H400V200H300ZM500 300H600V200H500ZM200 500H300V300H200ZM400 500H500V300H400ZM300 1000H1100V700H1000V600H1100V500H1000V400H900V500H800V600H500V700H400V800H300Z"/>
  <path fill="#2e2e2e" d="M100 800H500V600H100Z"/>
  <path fill="#fff3dd" d="M100 700H200V800H300V900H500V800H600V600H400V700H300V600H100Z"/>
  <path fill="#6d4938" d="M300 900H500V800H600V600H500V700H400V800H300Z"/>
</svg>
