<?xml version="1.0" encoding="UTF-8"?>
<svg xmlns="http://www.w3.org/2000/svg" viewBox="0 0 1200 1200" width="1200" height="1200">
  <title>emoji_u2702</title>
  <path fill="#ff7555" d="M100 200H300V100H100ZM800 200H1000V100H800ZM0 400H100V200H0ZM700 400H800V200H700Z"/>
  <path fill="#b9e4ea" d="M400 1000H500V900H600V1000H700V1100H800V1200H900V900H800V800H700V500H400Z"/>
  <path fill="#de3e31" d="M200 200H300V100H200ZM900 200H1000V100H900ZM100 500H200V600H300V700H500V600H600V700H800V600H900V500H1000V400H800V300H700V400H600V500H500V400H400V200H300V400H100ZM1000 400H1100V200H1000ZM0 400H100V300H0Z"/>
  <path fill="#82aec0" d="M200 1200H300V1100H400V1000H500V800H600V900H700V1000H800V1100H900V900H800V800H700V700H800V600H700V500H400V600H300V700H400V800H300V900H200ZM500 700V600H600V700Z"/>
  <path fill="#2f7889" d="M400 900H500V800H400Z"/>
</svg>
