<?xml version="1.0" encoding="UTF-8"?>
<svg xmlns="http://www.w3.org/2000/svg" viewBox="0 0 1200 1200" width="1200" height="1200">
  <title>emoji_u1f98f</title>
  <path fill="#a6cdd1" d="M300 1200H600V1000H300ZM800 1200H1100V1000H800Z"/>
  <path fill="#40727b" d="M0 600H300V400H200V300H100V200H0V400H100V500H0ZM100 900H200V1200H400V1100H500V1000H700V1200H900V1100H1000V1000H1100V600H800V400H500V600H400V700H100Z"/>
  <path fill="#6da3af" d="M0 800H100V900H200V800H500V900H400V1100H600V1000H800V900H900V1100H1100V300H1000V200H900V300H800V200H700V100H600V200H500V100H400V300H300V400H200V500H0ZM500 800V700H600V500H700V700H600V800ZM900 900V700H1000V900ZM700 900V800H800V900Z"/>
  <path fill="#45494f" d="M100 800H200V700H100Z"/>
  <path fill="#352a2d" d="M400 600H500V500H400Z"/>
</svg>
