<?xml version="1.0" encoding="UTF-8"?>
<svg xmlns="http://www.w3.org/2000/svg" viewBox="0 0 1200 1200" width="1200" height="1200">
  <title>emoji_u1f434</title>
  <path fill="#2d3133" d="M0 1000H300V900H500V700H200V800H0Z"/>
  <path fill="#825948" d="M200 400H300V500H700V600H800V800H900V1200H1100V500H1000V300H900V200H800V100H600V200H400V300H200Z"/>
  <path fill="#cd935f" d="M300 800H400V900H500V1000H400V1100H700V1000H800V900H900V600H600V700H300Z"/>
  <path fill="#feaf5f" d="M0 900H300V800H700V900H600V1000H400V1200H1000V700H900V500H800V400H700V200H600V400H300V500H200V600H100V700H0ZM700 800V700H800V800Z"/>
  <path fill="#ffe5c6" d="M100 900H300V700H100Z"/>
  <path fill="#513635" d="M200 800H300V700H200Z"/>
  <path fill="#00000d" d="M500 600H600V500H500Z"/>
</svg>
