<?xml version="1.0" encoding="UTF-8"?>
<svg xmlns="http://www.w3.org/2000/svg" viewBox="0 0 1200 1200" width="1200" height="1200">
  <title>emoji_u1f990</title>
  <path fill="#fe6117" d="M0 600H100V700H200V800H400V900H500V1100H600V800H800V900H1000V1100H1100V600H1000V500H900V400H600V300H1000V200H900V100H300V200H200V300H0ZM100 900H200V800H100ZM0 1000H100V900H0ZM200 1000H300V1200H400V900H200ZM700 1000H800V900H700ZM100 1100H200V1000H100ZM800 1100H900V1000H800ZM900 1200H1000V1100H900Z"/>
  <path fill="#fe8e06" d="M200 500H300V400H200ZM600 700H700V400H600ZM300 600H500V500H300ZM900 600H1000V500H900ZM100 700H200V600H100ZM800 700H900V600H800ZM200 800H400V700H200ZM500 800H600V700H500ZM700 800H800V700H700ZM800 900H1100V800H800Z"/>
  <path fill="#302c30" d="M200 500H300V400H200Z"/>
</svg>
