<?xml version="1.0" encoding="UTF-8"?>
<svg xmlns="http://www.w3.org/2000/svg" viewBox="0 0 1200 1200" width="1200" height="1200">
  <title>emoji_u1f3fa</title>
  <path fill="#a15d38" d="M100 200H200V100H100ZM200 500H600V100H400V300H300V400H200ZM0 400H100V200H0ZM200 300H300V200H200ZM300 1100H400V1200H600V1000H300Z"/>
  <path fill="#723f22" d="M100 800H200V1000H400V1100H500V1200H700V1100H800V1000H900V800H1000V500H900V400H800V300H700V100H500V200H400V300H500V400H400V500H300V400H200V500H100ZM900 200H1000V100H900ZM200 300H300V200H200ZM800 300H900V200H800ZM1000 500H1100V200H1000ZM0 500H100V300H0Z"/>
  <path fill="#ff7e45" d="M400 300H700V200H400ZM200 600H900V400H200ZM100 800H300V700H200V600H100ZM200 1000H300V1100H800V1000H900V900H800V800H900V700H700V900H500V800H600V700H400V900H200Z"/>
  <path fill="#ffa364" d="M300 500H800V400H300Z"/>
</svg>
