<?xml version="1.0" encoding="UTF-8"?>
<svg xmlns="http://www.w3.org/2000/svg" viewBox="0 0 1200 1200" width="1200" height="1200">
  <title>emoji_u1f1f5_1f1f7</title>
  <path fill="#423aae" d="M0 500H200V300H0ZM0 1000H200V800H0Z"/>
  <path fill="#c20e2b" d="M0 500H300V300H100V400H0ZM0 900H100V1000H300V800H0Z"/>
  <path fill="#ed0000" d="M100 900H200V1000H1100V300H200V400H100V500H600V800H100Z"/>
  <path fill="#0050f0" d="M0 900H200V400H0ZM300 800H600V500H300Z"/>
  <path fill="#f89898" d="M300 600H1100V400H300ZM300 900H1100V700H300Z"/>
  <path fill="#fbcdcd" d="M500 800H1100V700H700V600H1100V500H500Z"/>
  <path fill="#024fed" d="M100 600H300V400H100ZM100 900H300V700H100Z"/>
  <path fill="#5b40a3" d="M100 600H400V400H200V500H100ZM100 800H200V900H400V700H100Z"/>
  <path fill="#dc8597" d="M200 600H500V500H400V400H300V500H200ZM200 800H300V900H400V800H500V700H200Z"/>
  <path fill="#0553f0" d="M100 700H300V500H100Z"/>
  <path fill="#1b62f2" d="M100 800H300V600H100Z"/>
  <path fill="#80a8f8" d="M100 700H200V800H300V500H200V600H100Z"/>
  <path fill="#0a57f1" d="M200 800H500V700H400V600H500V500H200Z"/>
  <path fill="#7ba5f7" d="M400 800H600V500H400V600H500V700H400ZM300 700H400V600H300Z"/>
  <path fill="#efd1d9" d="M500 800H600V700H700V600H600V500H500Z"/>
  <path fill="#1b63f2" d="M200 800H300V700H400V600H200Z"/>
  <path fill="#2267f2" d="M200 700H400V600H300V500H200Z"/>
  <path fill="#b3cbfb" d="M200 700H400V600H200Z"/>
  <path fill="#0755f0" d="M300 700H400V600H300Z"/>
  <path fill="#2a42c6" d="M500 700H700V600H500Z"/>
  <path fill="#dd0510" d="M600 700H700V600H600Z"/>
</svg>
