<?xml version="1.0" encoding="UTF-8"?>
<svg xmlns="http://www.w3.org/2000/svg" viewBox="0 0 1200 1200" width="1200" height="1200">
  <title>emoji_u1f396</title>
  <path fill="#176bc6" d="M100 300H200V400H300V500H400V100H100ZM700 500H800V400H900V300H1000V100H700Z"/>
  <path fill="#fbc21f" d="M200 1200H500V1100H600V1200H900V1100H800V1000H700V900H800V800H900V700H700V600H600V500H800V300H300V500H500V600H400V700H200V800H300V900H400V1000H300V1100H200Z"/>
  <path fill="#f6922c" d="M300 800H500V700H600V500H500V600H400V700H300ZM600 800H800V700H600ZM300 1200H400V1100H500V900H400V1000H300ZM600 1100H700V1000H600ZM700 1200H800V1100H700Z"/>
  <path fill="#ffffff" d="M300 500H400V400H500V100H300ZM600 400H700V500H800V100H600Z"/>
  <path fill="#fdefaa" d="M400 800H500V600H400ZM600 800H700V700H600ZM500 900H600V800H500ZM400 1000H500V900H400ZM300 1100H400V1000H300Z"/>
  <path fill="#db0d2a" d="M400 400H700V100H400Z"/>
</svg>
