<?xml version="1.0" encoding="UTF-8"?>
<svg xmlns="http://www.w3.org/2000/svg" viewBox="0 0 1200 1200" width="1200" height="1200">
  <title>emoji_u1f469_1f3ff_200d_1faef_200d_1f469_1f3fc</title>
  <path fill="#e53935" d="M100 900H200V800H100ZM0 1000H100V900H0ZM400 1100H600V1000H500V900H400ZM100 1100H200V1000H100Z"/>
  <path fill="#e0bb95" d="M400 600H500V500H700V600H600V700H800V800H900V900H1000V1000H1100V800H1000V700H900V200H700V400H500V300H400ZM500 800H600V700H500ZM700 900H800V800H700ZM700 1100H900V900H800V1000H700Z"/>
  <path fill="#5d18f6" d="M900 800H1000V700H900ZM1000 1000H1100V800H1000ZM700 1100H900V1000H700Z"/>
  <path fill="#70534a" d="M100 900H300V800H400V700H500V200H300V700H200V800H100ZM600 500H700V600H800V400H600ZM500 800H600V700H500ZM400 1000H500V800H400Z"/>
  <path fill="#232020" d="M200 400H300V500H500V400H400V300H500V200H300V300H200Z"/>
  <path fill="#ab872f" d="M700 500H900V400H1000V300H900V200H700V300H800V400H700Z"/>
  <path fill="#5a15f3" d="M700 600H800V800H1000V500H900V400H700Z"/>
  <path fill="#ea4542" d="M200 800H400V600H500V400H300V500H200Z"/>
</svg>
