<?xml version="1.0" encoding="UTF-8"?>
<svg xmlns="http://www.w3.org/2000/svg" viewBox="0 0 1200 1200" width="1200" height="1200">
  <title>emoji_u1f1fa_1f1f8</title>
  <path fill="#4e4d7b" d="M0 500H200V300H0Z"/>
  <path fill="#51507e" d="M200 500H500V300H200Z"/>
  <path fill="#52517e" d="M0 700H200V400H0Z"/>
  <path fill="#545380" d="M100 500H400V400H300V300H100Z"/>
  <path fill="#555481" d="M0 500H100V600H200V300H100V400H0Z"/>
  <path fill="#565581" d="M100 500H300V400H200V300H100Z"/>
  <path fill="#777699" d="M0 800H200V500H100V600H0Z"/>
  <path fill="#d58891" d="M0 1000H1100V300H400V600H100V700H0Z"/>
  <path fill="#9e6f88" d="M300 700H600V600H500V300H400V400H300Z"/>
  <path fill="#d68993" d="M400 700H1100V600H400Z"/>
  <path fill="#5a5984" d="M100 700H300V400H100Z"/>
  <path fill="#5b5a85" d="M200 600H400V500H500V400H200Z"/>
  <path fill="#63628b" d="M100 500H200V600H300V400H100Z"/>
  <path fill="#7e7d9f" d="M100 700H300V500H200V600H100Z"/>
  <path fill="#a3748b" d="M400 500H500V400H400ZM300 600H400V500H300Z"/>
  <path fill="#5b5b85" d="M200 700H400V500H300V400H200Z"/>
  <path fill="#565582" d="M200 700H500V600H400V500H300V600H200Z"/>
  <path fill="#7a799c" d="M200 700H400V600H200Z"/>
  <path fill="#7a799b" d="M300 700H500V600H300Z"/>
  <path fill="#b08296" d="M400 700H500V600H400Z"/>
</svg>
