<?xml version="1.0" encoding="UTF-8"?>
<svg xmlns="http://www.w3.org/2000/svg" viewBox="0 0 1200 1200" width="1200" height="1200">
  <title>emoji_u1f9e3</title>
  <path fill="#c62828" d="M400 1100H500V1200H600V1100H700V1200H800V1100H900V900H400ZM900 1200H1000V1100H900Z"/>
  <path fill="#f44336" d="M200 900H300V1000H400V1100H500V1000H900V700H800V600H900V500H1000V200H900V100H300V200H200V700H300V800H200ZM400 500V300H800V400H700V500H600V600H500V500ZM100 1000H200V900H100ZM200 1100H300V1000H200ZM300 1200H400V1100H300Z"/>
  <path fill="#823b1f" d="M400 300H800V200H400ZM900 400H1000V200H900ZM300 500H400V300H300ZM400 900H500V1000H600V700H800V600H700V500H400Z"/>
  <path fill="#ff7555" d="M300 900H500V700H600V500H400V600H300Z"/>
</svg>
