<?xml version="1.0" encoding="UTF-8"?>
<svg xmlns="http://www.w3.org/2000/svg" viewBox="0 0 1200 1200" width="1200" height="1200">
  <title>emoji_u1f1fc_1f1f8</title>
  <path fill="#012c80" d="M200 500H500V300H200Z"/>
  <path fill="#254a92" d="M100 500H400V400H300V300H100Z"/>
  <path fill="#002b7f" d="M0 700H600V300H400V400H200V300H0Z"/>
  <path fill="#ce1126" d="M0 1000H1100V300H500V600H0Z"/>
  <path fill="#671e52" d="M400 700H600V300H500V600H400Z"/>
  <path fill="#671e53" d="M0 700H600V600H400V500H200V600H0Z"/>
  <path fill="#093284" d="M100 500H200V600H400V400H100Z"/>
  <path fill="#1d438d" d="M100 500H200V400H100ZM200 600H300V500H200Z"/>
  <path fill="#264b92" d="M200 600H400V400H300V500H200Z"/>
  <path fill="#0b3485" d="M200 700H300V600H400V500H200Z"/>
  <path fill="#234891" d="M200 700H300V500H200Z"/>
  <path fill="#7d305d" d="M200 700H300V600H200Z"/>
  <path fill="#9b183c" d="M500 700H600V600H500Z"/>
</svg>
