<?xml version="1.0" encoding="UTF-8"?>
<svg xmlns="http://www.w3.org/2000/svg" viewBox="0 0 1200 1200" width="1200" height="1200">
  <title>emoji_u1f914</title>
  <path fill="#eb8f00" d="M0 1200H900V1100H1000V1000H1100V300H1000V200H900V100H200V200H100V300H0Z"/>
  <path fill="#fff176" d="M200 800H300V700H200ZM100 1100H300V1000H400V900H200V800H100ZM400 1100H500V1000H400Z"/>
  <path fill="#fde030" d="M100 700H200V800H500V1000H400V1100H900V1000H1000V300H900V200H200V300H100Z"/>
  <path fill="#422b0d" d="M300 500H400V300H300ZM600 500H700V400H800V300H600ZM300 700H700V600H300ZM700 800H800V700H700Z"/>
</svg>
