<?xml version="1.0" encoding="UTF-8"?>
<svg xmlns="http://www.w3.org/2000/svg" viewBox="0 0 1200 1200" width="1200" height="1200">
  <title>emoji_u1f9dc_1f3fd_200d_2642</title>
  <path fill="#99674f" d="M400 600H500V700H600V400H400ZM900 700H1000V600H1100V400H900Z"/>
  <path fill="#009984" d="M0 900H100V1100H200V900H400V800H300V700H200V800H100V700H0ZM200 1200H800V1100H900V1000H600V900H400V1000H300V1100H200Z"/>
  <path fill="#00c8b2" d="M0 900H100V800H0ZM200 900H400V800H200ZM100 1000H200V900H100ZM400 1000H500V900H400ZM300 1100H400V1000H300ZM500 1100H600V1200H700V1100H800V1000H500ZM200 1200H300V1100H200ZM400 1200H500V1100H400Z"/>
  <path fill="#31c5b3" d="M400 500H500V600H600V400H900V600H1000V500H1100V200H1000V100H500V200H400Z"/>
  <path fill="#91674d" d="M300 900H400V1000H500V1100H600V1000H800V1100H900V1000H1000V900H1100V800H1000V700H500V800H300Z"/>
  <path fill="#ad8365" d="M500 800H600V900H800V800H900V900H1000V600H500ZM400 900H500V800H400Z"/>
  <path fill="#ba8d68" d="M500 700H1000V300H500ZM400 900H500V800H400ZM500 1100H900V900H800V800H600V900H500ZM900 900H1000V800H900Z"/>
  <path fill="#49362e" d="M600 600H700V400H600ZM800 600H900V400H800Z"/>
</svg>
