<?xml version="1.0" encoding="UTF-8"?>
<svg xmlns="http://www.w3.org/2000/svg" viewBox="0 0 1200 1200" width="1200" height="1200">
  <title>emoji_u1f939_1f3fb_200d_2642</title>
  <path fill="#7c7c7c" d="M200 1200H500V800H400V900H300V1100H200ZM700 1200H1000V1100H900V900H800V800H700Z"/>
  <path fill="#dbdbdb" d="M100 900H200V700H100ZM1000 1000H1100V800H1000Z"/>
  <path fill="#e59700" d="M300 800H400V900H500V600H300ZM700 900H800V800H900V600H700Z"/>
  <path fill="#0099ef" d="M1000 600H1100V500H1000Z"/>
  <path fill="#e12e00" d="M100 500H200V400H100Z"/>
  <path fill="#00c853" d="M600 300H800V100H700V200H600Z"/>
  <path fill="#00bda3" d="M400 1200H800V700H400ZM100 1100H200V800H100ZM1000 1100H1100V900H1000ZM200 1200H300V1100H200ZM900 1200H1000V1100H900Z"/>
  <path fill="#312d2d" d="M300 700H400V800H500V700H700V800H800V700H900V400H300Z"/>
  <path fill="#525151" d="M300 500H500V600H700V500H900V400H800V200H400V400H300Z"/>
  <path fill="#edc391" d="M400 800H500V1000H700V800H800V700H400Z"/>
  <path fill="#f9ddbd" d="M400 800H800V600H700V500H500V600H400Z"/>
  <path fill="#212121" d="M500 1000H700V900H500Z"/>
</svg>
