<?xml version="1.0" encoding="UTF-8"?>
<svg xmlns="http://www.w3.org/2000/svg" viewBox="0 0 1200 1200" width="1200" height="1200">
  <title>emoji_u1f633</title>
  <path fill="#eb8f00" d="M0 1000H100V1100H200V1200H900V1100H1000V1000H1100V300H1000V200H900V100H200V200H100V300H0Z"/>
  <path fill="#f1915d" d="M0 1000H100V1100H400V800H300V700H100V900H0ZM700 1100H1000V1000H1100V900H1000V700H800V800H700Z"/>
  <path fill="#fde030" d="M100 800H200V900H300V1000H200V1100H900V1000H800V900H900V800H1000V300H900V200H200V300H100ZM100 1000H200V900H100ZM900 1000H1000V900H900Z"/>
  <path fill="#422b0d" d="M200 400H400V300H200ZM700 400H900V300H700ZM200 700H300V800H400V700H500V600H400V500H300V600H200ZM600 700H700V800H800V700H900V600H800V500H700V600H600ZM400 1000H700V900H400Z"/>
  <path fill="#ffffff" d="M300 600H400V500H300ZM700 600H800V500H700ZM200 700H300V600H200ZM400 700H500V600H400ZM600 700H700V600H600ZM800 700H900V600H800ZM300 800H400V700H300ZM700 800H800V700H700Z"/>
</svg>
