<?xml version="1.0" encoding="UTF-8"?>
<svg xmlns="http://www.w3.org/2000/svg" viewBox="0 0 1200 1200" width="1200" height="1200">
  <title>emoji_u2734</title>
  <path fill="#f77e00" d="M0 200H100V100H0ZM1000 200H1100V100H1000ZM100 400H200V600H500V300H300V200H100ZM600 600H900V400H1000V200H800V300H600ZM100 1100H300V1000H500V700H200V900H100ZM600 1000H800V1100H1000V900H900V700H600ZM0 1200H100V1100H0ZM1000 1200H1100V1100H1000Z"/>
  <path fill="#ff9800" d="M0 700H200V800H400V1000H500V1200H600V1000H700V800H900V700H1100V600H900V500H700V300H600V100H500V300H400V500H200V600H0Z"/>
  <path fill="#ffb43d" d="M500 600H600V500H500ZM400 700H500V600H400Z"/>
</svg>
