<?xml version="1.0" encoding="UTF-8"?>
<svg xmlns="http://www.w3.org/2000/svg" viewBox="0 0 1200 1200" width="1200" height="1200">
  <title>emoji_u1f955</title>
  <path fill="#2f7c31" d="M500 600H600V700H800V600H1000V500H1100V400H1000V300H900V200H800V100H700V200H600V400H500Z"/>
  <path fill="#709921" d="M700 400H800V300H900V200H800V100H700ZM800 500H1000V300H900V400H800Z"/>
  <path fill="#ed6c31" d="M0 1200H300V1100H500V1000H600V900H700V800H800V600H700V500H600V400H400V500H300V600H200V700H100V1000H0Z"/>
  <path fill="#ff8d02" d="M0 1100H200V1000H300V900H400V1000H500V900H600V800H700V700H600V600H500V500H600V400H400V500H300V600H400V700H500V800H400V700H300V600H200V700H100V900H0ZM200 900V800H300V900ZM600 600H700V500H600ZM700 700H800V600H700Z"/>
</svg>
