<?xml version="1.0" encoding="UTF-8"?>
<svg xmlns="http://www.w3.org/2000/svg" viewBox="0 0 1200 1200" width="1200" height="1200">
  <title>emoji_u1f43d</title>
  <path fill="#f17fae" d="M0 1000H100V1100H200V1200H500V1100H600V1200H900V1100H1000V1000H1100V800H900V900H800V1000H700V900H400V1000H300V900H200V800H0Z"/>
  <path fill="#ffa8a7" d="M0 900H100V1000H200V1100H500V1000H600V1100H900V1000H1000V900H1100V500H1000V400H900V300H800V200H600V100H500V200H300V300H200V400H100V500H0Z"/>
  <path fill="#eb81aa" d="M300 900H500V700H300ZM600 900H800V700H600Z"/>
  <path fill="#ea4b8d" d="M300 800H500V500H300ZM600 800H800V500H600Z"/>
</svg>
