<?xml version="1.0" encoding="UTF-8"?>
<svg xmlns="http://www.w3.org/2000/svg" viewBox="0 0 1200 1200" width="1200" height="1200">
  <title>emoji_u1f9db_1f3fe</title>
  <path fill="#363535" d="M0 1000H100V1100H200V1200H300V900H200V600H0ZM800 1200H900V1100H1000V1000H1100V600H900V900H800Z"/>
  <path fill="#3c2c23" d="M100 800H400V500H500V400H600V500H700V800H1000V600H900V200H800V100H300V200H200V600H100Z"/>
  <path fill="#212121" d="M100 1000H200V1200H500V800H200V900H100ZM600 1200H900V1000H1000V900H900V800H600Z"/>
  <path fill="#ee0000" d="M100 1000H300V900H400V600H300V700H200V600H100ZM700 900H800V1000H1000V600H900V700H800V600H700Z"/>
  <path fill="#ffffff" d="M300 900H400V1200H700V900H800V600H300Z"/>
  <path fill="#a56c43" d="M300 900H800V400H700V300H400V400H300ZM400 800V700H500V800ZM600 800V700H700V800Z"/>
  <path fill="#42312c" d="M400 600H500V400H400ZM600 600H700V400H600Z"/>
  <path fill="#473530" d="M500 800H600V700H500Z"/>
</svg>
