<?xml version="1.0" encoding="UTF-8"?>
<svg xmlns="http://www.w3.org/2000/svg" viewBox="0 0 1200 1200" width="1200" height="1200">
  <title>emoji_u1f373</title>
  <path fill="#6c6d6f" d="M0 700H100V800H200V900H600V1000H700V1100H800V1200H1000V1100H1100V900H1000V800H900V700H800V300H700V200H600V100H200V200H100V300H0ZM800 1000V900H900V1000Z"/>
  <path fill="#2f2f2f" d="M100 700H200V800H600V900H700V1000H800V900H900V800H800V700H700V300H600V200H200V300H300V400H200V300H100ZM200 700V600H300V700ZM500 700V600H600V700ZM800 1100H1000V900H900V1000H800Z"/>
  <path fill="#ffffff" d="M200 600H300V700H500V600H600V300H300V400H200Z"/>
  <path fill="#ff8e00" d="M300 600H500V400H400V500H300Z"/>
  <path fill="#ffb502" d="M300 600H400V500H300Z"/>
</svg>
