<?xml version="1.0" encoding="UTF-8"?>
<svg xmlns="http://www.w3.org/2000/svg" viewBox="0 0 1200 1200" width="1200" height="1200">
  <title>emoji_u1f427</title>
  <path fill="#adadb7" d="M200 400H300V500H400V600H600V100H500V200H300V300H200ZM400 1200H800V1100H900V1000H500V1100H400Z"/>
  <path fill="#4d4d4d" d="M200 900H300V1000H500V1100H1000V400H900V200H800V100H500V300H300V400H500V500H400V600H300V700H200Z"/>
  <path fill="#ff9700" d="M600 400H700V300H600ZM600 700H800V600H900V400H700V600H600Z"/>
  <path fill="#ffffff" d="M400 900H500V1000H800V900H700V800H400Z"/>
  <path fill="#ffcc5b" d="M400 800H700V700H800V600H400Z"/>
  <path fill="#fff5e1" d="M400 900H700V700H400Z"/>
  <path fill="#000409" d="M600 400H700V300H600Z"/>
  <path fill="#ffde96" d="M400 800H700V700H400Z"/>
</svg>
