<?xml version="1.0" encoding="UTF-8"?>
<svg xmlns="http://www.w3.org/2000/svg" viewBox="0 0 1200 1200" width="1200" height="1200">
  <title>emoji_u26c4</title>
  <path fill="#303030" d="M300 500H800V100H300ZM0 700H100V800H300V500H200V600H100V400H0ZM800 800H1000V700H1100V400H1000V600H900V500H800ZM400 1200H700V700H400Z"/>
  <path fill="#e0e0e0" d="M100 1100H200V1200H900V1100H1000V700H900V200H800V100H300V200H200V700H100ZM400 400V200H500V400ZM600 400V200H700V400ZM500 900V800H600V900ZM500 1100V1000H600V1100Z"/>
  <path fill="#a42718" d="M200 700H700V900H800V700H900V600H200Z"/>
  <path fill="#ffa72b" d="M500 500H600V400H500Z"/>
</svg>
