<?xml version="1.0" encoding="UTF-8"?>
<svg xmlns="http://www.w3.org/2000/svg" viewBox="0 0 1200 1200" width="1200" height="1200">
  <title>emoji_u1f632</title>
  <path fill="#eb8f00" d="M0 1000H100V1100H200V1200H900V1100H1000V1000H1100V300H1000V200H900V100H200V200H100V300H0Z"/>
  <path fill="#fde030" d="M100 1000H200V1100H900V1000H1000V300H900V200H200V300H100Z"/>
  <path fill="#422b0d" d="M200 400H400V300H200ZM700 400H900V300H700ZM100 500H200V400H100ZM900 500H1000V400H900ZM300 700H400V500H300ZM700 700H800V500H700ZM400 1000H700V800H600V700H500V800H400Z"/>
</svg>
