<?xml version="1.0" encoding="UTF-8"?>
<svg xmlns="http://www.w3.org/2000/svg" viewBox="0 0 1200 1200" width="1200" height="1200">
  <title>emoji_u1f1f9_1f1e6</title>
  <path fill="#9c789c" d="M0 500H200V300H0Z"/>
  <path fill="#02257d" d="M800 1000H1100V800H800Z"/>
  <path fill="#092777" d="M900 900H1100V600H900Z"/>
  <path fill="#0e2b77" d="M900 800H1000V700H1100V500H900Z"/>
  <path fill="#0f3181" d="M700 500H1000V300H700Z"/>
  <path fill="#0f3183" d="M600 1000H900V800H600Z"/>
  <path fill="#2c4b8f" d="M700 900H800V1000H900V900H1000V800H700Z"/>
  <path fill="#434e90" d="M400 500H700V300H400Z"/>
  <path fill="#575c97" d="M200 500H500V300H200Z"/>
  <path fill="#68588e" d="M0 800H200V500H0Z"/>
  <path fill="#6b6da2" d="M0 500H300V300H100V400H0Z"/>
  <path fill="#8781ac" d="M0 600H100V700H200V400H0Z"/>
  <path fill="#9e466b" d="M100 500H400V400H300V300H200V400H100Z"/>
  <path fill="#a27c9e" d="M300 500H600V400H500V300H400V400H300Z"/>
  <path fill="#b74e6b" d="M0 500H100V600H200V400H0Z"/>
  <path fill="#00247d" d="M500 500H900V900H1000V1000H1100V800H1000V600H1100V300H900V400H800V300H600V400H500ZM0 1000H700V900H800V800H700V600H100V700H0Z"/>
  <path fill="#00277f" d="M800 600H1000V400H800Z"/>
  <path fill="#01257e" d="M500 600H800V400H500Z"/>
  <path fill="#0c2b7a" d="M600 900H800V700H600Z"/>
  <path fill="#0d2d81" d="M100 700H300V500H100Z"/>
  <path fill="#245fa8" d="M800 700H1000V500H900V400H800Z"/>
  <path fill="#2c4c8a" d="M600 600H900V400H700V500H600Z"/>
  <path fill="#484f79" d="M800 900H1000V700H800Z"/>
  <path fill="#52698a" d="M700 600H900V400H800V500H700Z"/>
  <path fill="#5b3974" d="M400 600H700V500H600V400H400Z"/>
  <path fill="#645d69" d="M800 800H1000V600H900V500H800Z"/>
  <path fill="#716262" d="M800 900H900V800H1000V700H900V600H800Z"/>
  <path fill="#98909b" d="M600 800H700V900H900V700H600Z"/>
  <path fill="#a1aabe" d="M700 800H800V900H900V700H700Z"/>
  <path fill="#c95d74" d="M300 600H600V500H500V400H300Z"/>
  <path fill="#ce93a6" d="M100 600H200V700H300V400H100Z"/>
  <path fill="#d74053" d="M100 500H200V600H400V400H100Z"/>
  <path fill="#db5f70" d="M100 500H200V400H100ZM200 600H300V500H200Z"/>
  <path fill="#de5f6f" d="M200 600H500V500H400V400H300V500H200Z"/>
  <path fill="#093086" d="M500 700H800V500H500Z"/>
  <path fill="#31438b" d="M400 700H700V600H600V500H400Z"/>
  <path fill="#40759d" d="M600 700H900V500H700V600H600Z"/>
  <path fill="#4281c1" d="M700 800H900V500H800V600H700Z"/>
  <path fill="#4e3474" d="M200 700H400V500H200Z"/>
  <path fill="#4f4f69" d="M500 700H600V800H800V600H500Z"/>
  <path fill="#507889" d="M800 600H900V500H800ZM700 700H800V600H700Z"/>
  <path fill="#6d88a6" d="M600 700H700V800H900V700H800V600H600Z"/>
  <path fill="#81bae3" d="M700 700H800V600H700ZM800 800H900V700H800Z"/>
  <path fill="#b9a3bc" d="M200 600H300V700H500V500H200Z"/>
  <path fill="#c05670" d="M200 600H300V500H200ZM300 700H400V600H300Z"/>
  <path fill="#c58ca2" d="M300 700H600V600H500V500H400V600H300Z"/>
  <path fill="#1b3888" d="M300 700H500V600H300Z"/>
  <path fill="#373b82" d="M400 700H700V600H400Z"/>
  <path fill="#405598" d="M400 700H500V600H400Z"/>
  <path fill="#4c709d" d="M600 700H800V600H600Z"/>
  <path fill="#4f516e" d="M600 700H700V600H600Z"/>
</svg>
