<?xml version="1.0" encoding="UTF-8"?>
<svg xmlns="http://www.w3.org/2000/svg" viewBox="0 0 1200 1200" width="1200" height="1200">
  <title>emoji_u1f9c3</title>
  <path fill="#feb804" d="M700 300H800V200H1000V100H700Z"/>
  <path fill="#02ab46" d="M700 1200H900V1100H1000V600H800V700H700Z"/>
  <path fill="#ffd816" d="M800 200H900V100H800ZM600 600H900V300H800V200H700V300H600Z"/>
  <path fill="#2d802d" d="M600 800H700V900H800V800H900V700H1000V400H800V500H600Z"/>
  <path fill="#c3fece" d="M200 600H400V700H700V600H900V500H1000V400H900V300H800V500H700V300H600V200H400V300H300V400H200Z"/>
  <path fill="#79dd8a" d="M500 500H600V400H500ZM200 1000H300V1100H500V1200H800V700H700V600H500V500H200ZM700 600H800V500H700Z"/>
  <path fill="#ffffff" d="M300 400H500V300H300ZM500 500H700V400H500ZM700 600H800V700H900V500H700ZM300 900H400V1000H500V900H600V700H500V600H400V700H300Z"/>
  <path fill="#5bd179" d="M800 700H900V600H800ZM700 1200H800V700H700Z"/>
  <path fill="#dbdfe1" d="M700 600H800V500H700ZM800 700H900V600H800Z"/>
  <path fill="#a281d0" d="M400 900H500V800H600V700H400Z"/>
  <path fill="#acb1b2" d="M700 600H800V500H700Z"/>
  <path fill="#fd8f01" d="M400 800H600V700H400Z"/>
  <path fill="#ef5b44" d="M500 800H600V700H500Z"/>
</svg>
