<?xml version="1.0" encoding="UTF-8"?>
<svg xmlns="http://www.w3.org/2000/svg" viewBox="0 0 1200 1200" width="1200" height="1200">
  <title>emoji_u1f48c</title>
  <path fill="#6fbff0" d="M0 1100H1100V200H0Z"/>
  <path fill="#ffffff" d="M100 1000H1000V900H900V800H1000V400H900V500H800V400H900V300H200V400H300V500H200V400H100V800H200V900H100ZM200 800V700H300V800ZM800 800V700H900V800Z"/>
  <path fill="#b71c1c" d="M300 700H400V800H500V900H600V800H700V700H800V500H700V400H600V500H500V400H400V500H300Z"/>
  <path fill="#f44336" d="M400 700H500V800H600V700H700V500H600V600H500V500H400Z"/>
</svg>
