<?xml version="1.0" encoding="UTF-8"?>
<svg xmlns="http://www.w3.org/2000/svg" viewBox="0 0 1200 1200" width="1200" height="1200">
  <title>emoji_u1f91b_1f3fb</title>
  <path fill="#efb682" d="M0 500H100V800H200V1100H500V1000H700V900H800V800H900V700H1100V500H700V400H600V300H1100V100H300V200H100V300H0Z"/>
  <path fill="#b26830" d="M0 1000H200V1100H300V900H500V800H600V700H500V500H400V700H200V600H300V500H400V400H500V300H100V400H0ZM500 500H600V400H500ZM700 700H800V600H700ZM800 800H900V700H800ZM700 900H800V800H700ZM600 1000H700V900H600Z"/>
  <path fill="#f9ddbd" d="M100 900H200V800H400V700H200V500H300V400H500V500H600V700H800V600H1100V200H300V300H100ZM500 800H600V700H500ZM400 900H500V800H400Z"/>
</svg>
