<?xml version="1.0" encoding="UTF-8"?>
<svg xmlns="http://www.w3.org/2000/svg" viewBox="0 0 1200 1200" width="1200" height="1200">
  <title>emoji_u2708</title>
  <path fill="#014eac" d="M100 300H200V400H400V600H600V300H500V200H100ZM600 800H800V1000H900V1100H1000V700H900V600H600Z"/>
  <path fill="#848484" d="M400 400H700V300H600V200H500V100H400ZM900 900H1000V800H1100V700H1000V600H900Z"/>
  <path fill="#dfdfdf" d="M200 800H500V700H600V600H700V500H800V200H700V300H400V400H500V500H400V600H300V700H200Z"/>
  <path fill="#006ca8" d="M300 300H400V400H600V300H500V100H400V200H300ZM200 400H300V300H200ZM600 500H700V400H600ZM700 700H800V800H900V900H1000V600H900V500H700ZM0 800H100V1000H200V1100H400V1200H500V900H600V800H400V700H0ZM800 1000H900V900H800Z"/>
  <path fill="#9a9a9a" d="M400 200H500V100H400ZM800 600H900V500H800ZM900 700H1000V600H900ZM100 1100H300V1000H400V900H500V700H300V800H200V900H100Z"/>
  <path fill="#3b5361" d="M400 900H600V800H700V700H800V600H900V500H1000V400H1100V100H800V200H700V500H600V600H500V700H400Z"/>
  <path fill="#c8c8c8" d="M800 200H1000V400H1100V100H800ZM300 800H400V900H500V800H600V700H700V600H800V500H1000V400H900V300H800V200H700V400H600V500H500V600H400V700H300ZM100 1000H200V1100H300V1000H400V900H300V800H200V900H100Z"/>
</svg>
