<?xml version="1.0" encoding="UTF-8"?>
<svg xmlns="http://www.w3.org/2000/svg" viewBox="0 0 1200 1200" width="1200" height="1200">
  <title>emoji_u1f60b</title>
  <path fill="#eb8f00" d="M0 1000H100V1100H200V1200H900V1100H1100V300H1000V200H900V100H200V200H100V300H0Z"/>
  <path fill="#ff4081" d="M600 1100H800V1200H1000V1100H1100V1000H1000V700H700V900H600Z"/>
  <path fill="#e62b6b" d="M600 1100H700V1000H800V1100H1000V1000H900V900H800V800H600ZM900 900H1000V800H900Z"/>
  <path fill="#fde030" d="M100 1000H200V1100H700V900H800V800H900V900H1000V300H900V200H200V300H100Z"/>
  <path fill="#422b0d" d="M300 500H400V400H300ZM700 500H800V400H700ZM200 600H300V500H200ZM400 600H500V500H400ZM600 600H700V500H600ZM800 600H900V500H800ZM200 800H300V700H200ZM800 800H900V700H800ZM300 900H400V800H300ZM700 900H800V800H700ZM400 1000H700V900H400Z"/>
</svg>
