<?xml version="1.0" encoding="UTF-8"?>
<svg xmlns="http://www.w3.org/2000/svg" viewBox="0 0 1200 1200" width="1200" height="1200">
  <title>emoji_u1f449_1f3fe</title>
  <path fill="#824624" d="M0 500H300V600H500V1100H700V1000H800V700H900V600H1100V500H1000V400H600V300H700V200H600V100H400V200H200V300H0Z"/>
  <path fill="#422319" d="M400 400H600V300H700V200H400ZM0 1000H100V1100H700V1000H600V900H800V800H600V700H1000V600H1100V500H400V900H200V800H0Z"/>
  <path fill="#a56c43" d="M0 900H100V1000H600V900H500V800H600V700H500V600H1000V500H400V400H500V300H600V200H400V300H200V400H0Z"/>
</svg>
