<?xml version="1.0" encoding="UTF-8"?>
<svg xmlns="http://www.w3.org/2000/svg" viewBox="0 0 1200 1200" width="1200" height="1200">
  <title>emoji_u1f916</title>
  <path fill="#c62828" d="M400 300H500V400H600V300H700V200H600V100H500V200H400ZM0 1000H100V1100H200V500H100V600H0ZM900 1100H1000V1000H1100V600H1000V500H900ZM400 900H700V600H400Z"/>
  <path fill="#90a4ae" d="M500 200H600V100H500ZM400 300H500V200H400ZM600 300H700V200H600ZM100 1200H1000V400H600V300H500V400H100ZM500 800V700H600V800Z"/>
  <path fill="#636363" d="M300 1100H800V900H300Z"/>
  <path fill="#ffffff" d="M200 700H400V500H200ZM700 700H900V500H700ZM300 1100H400V1000H500V1100H600V1000H700V1100H800V900H300Z"/>
  <path fill="#fdfdfd" d="M300 1000H800V900H300Z"/>
  <path fill="#414141" d="M400 1000H500V900H400ZM600 1000H700V900H600Z"/>
</svg>
