<?xml version="1.0" encoding="UTF-8"?>
<svg xmlns="http://www.w3.org/2000/svg" viewBox="0 0 1200 1200" width="1200" height="1200">
  <title>emoji_u1f3a7</title>
  <path fill="#616161" d="M0 900H200V700H100V400H200V300H900V400H1000V700H900V900H1100V300H1000V200H900V100H200V200H100V300H0Z"/>
  <path fill="#5b5b5b" d="M200 1200H400V600H200ZM700 1200H900V600H700Z"/>
  <path fill="#424242" d="M100 400H200V300H900V200H300V100H200V200H100ZM900 400H1000V300H900ZM0 1000H100V1100H200V1200H300V600H200V700H100V800H0ZM800 1200H900V1100H1000V1000H1100V800H1000V700H900V600H800Z"/>
  <path fill="#757575" d="M200 200H300V100H200ZM100 300H200V200H100ZM200 1200H300V600H200ZM800 1200H900V600H800Z"/>
</svg>
