<?xml version="1.0" encoding="UTF-8"?>
<svg xmlns="http://www.w3.org/2000/svg" viewBox="0 0 1200 1200" width="1200" height="1200">
  <title>emoji_u1f34a</title>
  <path fill="#5c6a23" d="M400 600H700V400H800V300H900V100H600V200H500V300H400Z"/>
  <path fill="#767e3a" d="M600 500H900V200H700V300H600Z"/>
  <path fill="#ff8e00" d="M0 1000H100V1100H200V1200H900V1100H1000V1000H1100V500H1000V400H900V300H800V400H600V500H500V300H200V400H100V500H0Z"/>
  <path fill="#ffe265" d="M200 600H300V500H200ZM100 800H200V600H100Z"/>
  <path fill="#ff6110" d="M700 600H800V500H700ZM900 700H1000V600H900ZM800 800H900V700H800ZM700 1000H800V900H700ZM500 1100H600V1000H500Z"/>
</svg>
