<?xml version="1.0" encoding="UTF-8"?>
<svg xmlns="http://www.w3.org/2000/svg" viewBox="0 0 1200 1200" width="1200" height="1200">
  <title>emoji_u1fab8</title>
  <path fill="#da4d32" d="M0 600H200V700H300V1000H200V1100H100V1200H400V1100H600V600H700V500H800V300H700V200H600V400H500V500H400V200H300V100H200V300H100V400H0ZM800 1200H1100V1100H1000V900H1100V700H900V800H800Z"/>
  <path fill="#fbebcc" d="M1000 200H1100V100H1000ZM300 800H400V900H500V700H600V500H700V200H600V300H500V500H400V600H300ZM100 500H200V600H300V300H100ZM900 400H1000V300H900ZM700 1100H900V900H1000V700H900V600H800V800H700ZM100 900H200V800H100Z"/>
  <path fill="#ee6f5d" d="M100 400H200V600H300V700H400V1000H300V1100H200V1200H1000V1100H900V900H1000V800H900V600H800V700H700V900H800V1000H700V1100H600V1000H500V600H600V500H700V400H600V300H500V500H300V100H200V200H100ZM600 300H700V200H600Z"/>
</svg>
