<?xml version="1.0" encoding="UTF-8"?>
<svg xmlns="http://www.w3.org/2000/svg" viewBox="0 0 1200 1200" width="1200" height="1200">
  <title>emoji_u1f1ec_1f1ee</title>
  <path fill="#f7f1f1" d="M300 500H800V300H300Z"/>
  <path fill="#c9240b" d="M400 1000H700V800H400Z"/>
  <path fill="#e4b6b9" d="M400 500H700V400H600V300H500V400H400Z"/>
  <path fill="#da000c" d="M0 1000H500V900H600V1000H1100V700H0Z"/>
  <path fill="#ffffff" d="M0 800H500V400H400V300H0ZM600 800H1100V300H700V400H600Z"/>
  <path fill="#f3afb2" d="M0 800H400V700H0ZM700 800H1100V700H700Z"/>
  <path fill="#ca656a" d="M300 600H800V500H700V400H400V500H300Z"/>
  <path fill="#ac3c42" d="M400 600H700V500H600V400H500V500H400Z"/>
  <path fill="#ca1b0b" d="M400 800H500V900H600V800H700V700H400Z"/>
  <path fill="#a82f35" d="M300 600H400V700H700V600H800V500H300Z"/>
  <path fill="#b5252d" d="M300 800H800V700H700V600H400V700H300Z"/>
  <path fill="#f0a9ad" d="M400 700H500V600H400ZM600 700H700V600H600ZM300 800H400V700H300ZM700 800H800V700H700Z"/>
  <path fill="#fcf7f7" d="M300 600H400V500H300ZM700 600H800V500H700ZM400 700H500V600H400ZM600 700H700V600H600Z"/>
  <path fill="#972216" d="M400 700H500V800H600V700H700V600H400Z"/>
  <path fill="#a6151d" d="M400 700H700V600H600V500H500V600H400Z"/>
  <path fill="#a9171f" d="M400 700H700V600H400Z"/>
  <path fill="#880007" d="M500 700H600V600H500Z"/>
</svg>
