<?xml version="1.0" encoding="UTF-8"?>
<svg xmlns="http://www.w3.org/2000/svg" viewBox="0 0 1200 1200" width="1200" height="1200">
  <title>emoji_u1f9cf_1f3fd</title>
  <path fill="#b0bec5" d="M0 500H100V600H200V500H300V400H200V100H100V400H0Z"/>
  <path fill="#543930" d="M400 600H500V700H600V500H700V400H800V500H900V700H1000V600H1100V200H1000V100H500V200H400ZM300 700H400V600H300Z"/>
  <path fill="#ad6721" d="M200 1200H600V800H500V900H400V800H300V1000H200Z"/>
  <path fill="#ed6d23" d="M500 1200H1100V900H1000V800H900V700H600V800H500ZM0 1200H200V1000H0Z"/>
  <path fill="#99674f" d="M500 700H600V800H900V700H1000V600H500Z"/>
  <path fill="#ba8d68" d="M500 700H1000V400H900V300H600V400H500ZM0 1100H100V1200H300V1100H400V600H300V700H200V800H100V900H0Z"/>
  <path fill="#91674d" d="M200 900H300V800H200ZM100 1000H200V900H100ZM300 1000H400V900H300ZM200 1100H300V1000H200Z"/>
  <path fill="#49362e" d="M600 600H700V400H600ZM800 600H900V400H800Z"/>
</svg>
