<?xml version="1.0" encoding="UTF-8"?>
<svg xmlns="http://www.w3.org/2000/svg" viewBox="0 0 1200 1200" width="1200" height="1200">
  <title>emoji_u1f6bd</title>
  <path fill="#2f7889" d="M100 800H1100V500H800V700H700V600H200V700H100Z"/>
  <path fill="#69a1ba" d="M800 300H900V600H1100V100H800ZM200 1200H900V1000H1000V900H1100V700H900V800H800V700H500V800H400V1000H200Z"/>
  <path fill="#b7d5e5" d="M800 600H1000V200H900V100H800ZM100 800H200V900H300V1000H200V1100H900V900H1000V700H100ZM500 1000V900H600V800H700V900H600V1000Z"/>
  <path fill="#eeeeee" d="M900 600H1000V200H900ZM700 800H800V700H700ZM300 1100H600V1000H500V900H600V800H300V900H400V1000H300Z"/>
</svg>
