<?xml version="1.0" encoding="UTF-8"?>
<svg xmlns="http://www.w3.org/2000/svg" viewBox="0 0 1200 1200" width="1200" height="1200">
  <title>emoji_u1f42c</title>
  <path fill="#36b4e1" d="M100 600H400V700H500V900H400V1000H500V1100H600V1200H700V1100H800V900H900V800H1000V400H1100V200H800V100H300V200H200V400H100ZM500 700V600H600V500H800V600H700V800H600V700Z"/>
  <path fill="#006da6" d="M400 400H500V300H400ZM400 700H500V800H600V600H900V400H800V300H700V400H600V500H400ZM300 500H400V400H300ZM100 600H300V500H100Z"/>
  <path fill="#ddecf5" d="M400 400H500V300H400ZM400 600H700V900H800V700H900V500H800V400H500V500H400Z"/>
  <path fill="#2d2b30" d="M400 400H500V300H400Z"/>
</svg>
