<?xml version="1.0" encoding="UTF-8"?>
<svg xmlns="http://www.w3.org/2000/svg" viewBox="0 0 1200 1200" width="1200" height="1200">
  <title>emoji_u2692</title>
  <path fill="#2f7889" d="M0 600H100V700H200V600H500V200H300V300H200V400H0ZM600 500H700V600H900V700H1000V400H800V200H600Z"/>
  <path fill="#7d5133" d="M300 400H400V300H300ZM200 500H300V400H200ZM100 1100H200V1200H300V1100H400V1000H500V900H600V1000H700V1100H800V1200H900V1100H1000V900H800V700H700V600H800V400H600V500H500V400H400V500H300V600H400V800H300V900H100Z"/>
  <path fill="#82aec0" d="M0 500H100V600H200V500H300V400H400V300H500V200H400V100H300V200H100V400H0ZM600 500H700V600H800V500H900V600H1000V300H900V200H800V100H700V200H600V300H700V400H600ZM500 600H600V500H500ZM600 700H700V600H600Z"/>
  <path fill="#a06841" d="M100 300H200V200H100ZM100 1000H200V1100H300V1000H400V900H500V800H600V700H700V600H600V500H400V700H300V800H200V900H100ZM600 900H700V1000H800V1100H900V1000H1000V900H900V800H800V700H700V800H600Z"/>
</svg>
