<?xml version="1.0" encoding="UTF-8"?>
<svg xmlns="http://www.w3.org/2000/svg" viewBox="0 0 1200 1200" width="1200" height="1200">
  <title>emoji_u1f494</title>
  <path fill="#cc3333" d="M100 400H300V500H500V300H400V200H200V300H100ZM500 1000H600V1100H700V1000H800V900H900V800H1000V700H1100V400H1000V300H900V200H700V300H600V400H800V500H900V600H800V700H700V800H600V900H500ZM400 1100H500V1000H400ZM500 1200H600V1100H500Z"/>
  <path fill="#f44336" d="M0 700H100V800H200V900H300V1000H400V900H500V800H600V700H500V600H400V500H500V400H400V300H100V400H0ZM500 1000H700V900H800V800H900V700H1000V400H900V300H600V500H500V600H600V700H700V800H600V900H500ZM400 1100H500V1000H400Z"/>
  <path fill="#ff8a80" d="M200 400H300V300H200ZM100 500H200V400H100ZM700 500H800V400H700Z"/>
</svg>
