<?xml version="1.0" encoding="UTF-8"?>
<svg xmlns="http://www.w3.org/2000/svg" viewBox="0 0 1200 1200" width="1200" height="1200">
  <title>emoji_u1f911</title>
  <path fill="#eb8f00" d="M0 1000H100V1100H200V1200H900V1100H1000V1000H1100V300H1000V200H900V100H200V200H100V300H0Z"/>
  <path fill="#05e005" d="M300 1100H500V1200H600V1100H800V700H300Z"/>
  <path fill="#404040" d="M500 1100H600V900H500Z"/>
  <path fill="#fde030" d="M100 1000H200V1100H400V800H700V1100H900V1000H1000V300H900V200H200V300H100Z"/>
  <path fill="#422b0d" d="M200 600H400V400H500V300H300V500H200ZM600 600H800V400H900V300H700V500H600ZM200 800H300V1000H400V800H700V1000H800V800H900V700H200Z"/>
</svg>
