<?xml version="1.0" encoding="UTF-8"?>
<svg xmlns="http://www.w3.org/2000/svg" viewBox="0 0 1200 1200" width="1200" height="1200">
  <title>emoji_u1f397</title>
  <path fill="#ffa828" d="M400 400H500V300H600V400H700V100H400Z"/>
  <path fill="#ffb803" d="M500 600H600V700H800V600H900V300H800V200H700V100H600V400H500ZM0 1000H100V1100H200V1200H300V1100H400V1000H500V900H600V700H500V600H300V700H200V800H100V900H0Z"/>
  <path fill="#ffd54f" d="M200 600H300V700H400V800H500V900H600V1000H700V1100H800V1200H900V1100H1000V1000H1100V900H1000V800H900V700H800V600H700V500H600V400H500V100H400V200H300V300H200Z"/>
</svg>
