<?xml version="1.0" encoding="UTF-8"?>
<svg xmlns="http://www.w3.org/2000/svg" viewBox="0 0 1200 1200" width="1200" height="1200">
  <title>emoji_u1f49d</title>
  <path fill="#da2e75" d="M100 300H300V400H400V500H700V300H800V400H900V600H200V900H400V1000H500V1100H600V1000H700V900H800V800H900V700H1000V600H1100V300H1000V200H900V100H700V200H600V300H500V200H400V100H200V200H100Z"/>
  <path fill="#ffa000" d="M0 700H200V800H300V700H600V400H200V500H0ZM800 700H1000V600H1100V500H1000V400H900V500H800Z"/>
  <path fill="#ef5592" d="M0 500H100V600H300V500H500V700H600V800H500V900H400V1000H600V900H700V800H800V700H900V600H1000V300H900V200H600V400H500V300H400V200H100V300H0Z"/>
  <path fill="#ffc107" d="M400 500H500V400H400ZM100 600H200V900H300V700H400V800H500V700H700V500H500V600H300V500H100Z"/>
  <path fill="#ffe02e" d="M200 300H300V200H200ZM0 600H300V500H200V300H100V400H0ZM300 500H500V300H300ZM500 700H900V600H1000V500H600V600H500ZM300 700H400V600H300ZM400 800H500V700H400ZM200 900H300V800H200ZM500 900H600V800H500Z"/>
  <path fill="#f386ab" d="M200 300H300V200H200ZM100 400H200V300H100ZM700 400H800V300H700Z"/>
  <path fill="#fff685" d="M200 600H300V500H200Z"/>
</svg>
