<?xml version="1.0" encoding="UTF-8"?>
<svg xmlns="http://www.w3.org/2000/svg" viewBox="0 0 1200 1200" width="1200" height="1200">
  <title>emoji_u1f459</title>
  <path fill="#d52b2b" d="M200 200H500V100H200ZM700 200H900V100H700ZM0 600H100V700H1000V600H1100V300H1000V200H900V300H800V400H700V500H600V600H500V500H400V400H300V300H200V200H100V300H0ZM600 300H700V200H600ZM200 1000H300V1100H400V1200H700V1100H800V1000H900V800H200Z"/>
  <path fill="#ff5252" d="M100 600H400V500H300V400H200V300H100ZM700 600H1000V300H900V400H800V500H700ZM200 1000H400V1100H500V1200H600V1100H700V1000H900V900H200Z"/>
  <path fill="#ffada6" d="M900 400H1000V300H900ZM100 500H200V400H100ZM300 600H400V500H300ZM800 600H900V500H800ZM300 1000H400V900H300ZM600 1000H700V900H600ZM800 1000H900V900H800ZM500 1100H600V1000H500Z"/>
</svg>
