<?xml version="1.0" encoding="UTF-8"?>
<svg xmlns="http://www.w3.org/2000/svg" viewBox="0 0 1200 1200" width="1200" height="1200">
  <title>emoji_u1f99a</title>
  <path fill="#b0b1b0" d="M400 1100H500V1200H600V1100H700V1200H800V1000H400Z"/>
  <path fill="#79cf84" d="M0 900H100V1000H200V1100H300V1000H400V1100H500V400H600V500H700V1100H800V1000H1000V800H1100V300H1000V200H900V100H300V200H200V300H100V500H0Z"/>
  <path fill="#0847b0" d="M400 400H600V300H500V100H400ZM200 400H300V200H200ZM800 500H1000V300H900V400H800ZM300 500H400V400H300ZM0 600H200V700H300V500H0ZM800 700H1100V600H800ZM0 800H200V700H0ZM300 900H400V800H300ZM800 900H900V1000H1000V800H800ZM100 1000H300V900H100Z"/>
  <path fill="#06ac48" d="M400 200H500V100H400ZM200 300H300V200H200ZM200 700H300V600H500V500H600V300H400V400H300V500H200ZM700 1000H800V900H1000V800H800V700H900V600H800V500H1000V400H700ZM0 600H100V500H0ZM1000 700H1100V600H1000ZM0 800H100V700H0ZM300 900H400V1000H500V700H400V800H300ZM100 1000H200V900H100Z"/>
  <path fill="#004daf" d="M400 1100H800V400H700V300H500V400H400Z"/>
  <path fill="#010100" d="M700 300H800V200H700ZM500 400H700V300H500ZM400 700H500V600H600V500H500V400H400ZM700 600H800V400H700Z"/>
  <path fill="#b6d115" d="M500 400H600V300H500ZM300 600H400V800H500V400H400V500H300ZM600 800H700V900H800V500H700V700H600Z"/>
  <path fill="#e9dca7" d="M700 600H800V500H700ZM700 800H800V700H700Z"/>
  <path fill="#e3edfc" d="M300 600H500V500H300Z"/>
</svg>
