<?xml version="1.0" encoding="UTF-8"?>
<svg xmlns="http://www.w3.org/2000/svg" viewBox="0 0 1200 1200" width="1200" height="1200">
  <title>emoji_u1f573</title>
  <path fill="#868686" d="M0 700H100V800H300V900H800V800H1000V700H1100V500H1000V400H800V600H700V700H400V600H300V400H100V500H0Z"/>
  <path fill="#b1b1b1" d="M100 700H400V600H700V700H1000V500H900V400H800V300H300V400H200V500H100Z"/>
  <path fill="#757575" d="M100 700H300V600H200V500H100ZM800 700H1000V500H900V600H800Z"/>
  <path fill="#262626" d="M200 700H300V800H800V700H900V600H800V500H300V600H200Z"/>
</svg>
