<?xml version="1.0" encoding="UTF-8"?>
<svg xmlns="http://www.w3.org/2000/svg" viewBox="0 0 1200 1200" width="1200" height="1200">
  <title>emoji_u1f984</title>
  <path fill="#afafaf" d="M0 1000H300V900H400V800H300V500H200V600H100V700H0Z"/>
  <path fill="#fcd817" d="M200 400H300V200H200ZM200 600H500V300H400V400H300V500H200Z"/>
  <path fill="#38b2e8" d="M100 200H200V100H100ZM200 300H300V200H200Z"/>
  <path fill="#bbd047" d="M200 300H300V200H200Z"/>
  <path fill="#e74b8c" d="M500 400H700V500H800V800H900V1200H1100V500H1000V300H900V200H800V100H600V200H500Z"/>
  <path fill="#f081af" d="M700 200H800V100H700ZM600 500H700V600H800V900H900V1000H1000V900H1100V800H1000V700H900V400H800V300H600ZM1000 600H1100V500H1000Z"/>
  <path fill="#dfdfdf" d="M100 800H200V900H500V1000H400V1200H1100V1100H1000V800H900V500H800V400H700V300H600V200H400V500H200V700H100Z"/>
  <path fill="#ffffff" d="M100 900H300V700H100Z"/>
  <path fill="#90909b" d="M200 900H300V700H200Z"/>
  <path fill="#b0b0b0" d="M700 800H800V700H700ZM500 900H700V800H500Z"/>
  <path fill="#303030" d="M500 600H600V500H500Z"/>
</svg>
