<?xml version="1.0" encoding="UTF-8"?>
<svg xmlns="http://www.w3.org/2000/svg" viewBox="0 0 1200 1200" width="1200" height="1200">
  <title>emoji_u1f415_200d_1f9ba</title>
  <path fill="#a67352" d="M800 500H900V400H800ZM800 800H1000V600H1100V400H1000V500H900V600H800Z"/>
  <path fill="#464c52" d="M0 500H100V600H200V200H100V300H0Z"/>
  <path fill="#02bff1" d="M800 200H900V300H1000V100H800ZM500 600H600V700H900V600H800V500H700V300H600V200H500ZM700 300H800V200H700ZM800 500H900V300H800Z"/>
  <path fill="#865a52" d="M300 700H600V300H300ZM100 1200H300V1000H400V800H200V1100H100ZM600 1100H700V1200H800V1100H900V1200H1000V800H600Z"/>
  <path fill="#f1a058" d="M100 600H200V900H300V1000H400V1200H600V1100H700V900H900V1200H1100V800H1000V700H900V600H700V500H600V200H500V100H300V200H100ZM400 600V400H500V600Z"/>
  <path fill="#484c51" d="M200 900H600V1100H700V600H600V500H500V600H200V700H500V800H200Z"/>
  <path fill="#07000d" d="M200 400H300V300H200Z"/>
  <path fill="#ff5f5c" d="M500 800H600V700H700V500H500Z"/>
</svg>
