<?xml version="1.0" encoding="UTF-8"?>
<svg xmlns="http://www.w3.org/2000/svg" viewBox="0 0 1200 1200" width="1200" height="1200">
  <title>emoji_u1faf3_1f3fb</title>
  <path fill="#efb682" d="M0 800H200V900H300V1000H400V1100H600V900H500V800H400V700H300V600H200V500H500V600H900V800H1000V700H1100V600H1000V500H1100V400H1000V300H900V200H600V300H0Z"/>
  <path fill="#b26830" d="M300 900H400V1000H600V800H1000V400H800V500H600V400H500V600H300Z"/>
  <path fill="#f9ddbd" d="M600 400H800V300H600ZM0 600H100V700H200V800H300V900H400V1000H500V800H400V700H1000V600H600V400H0ZM800 500H1000V400H800Z"/>
</svg>
