<?xml version="1.0" encoding="UTF-8"?>
<svg xmlns="http://www.w3.org/2000/svg" viewBox="0 0 1200 1200" width="1200" height="1200">
  <title>emoji_u1f3df</title>
  <path fill="#2385f8" d="M400 500H700V400H600V300H800V200H700V100H500V400H400Z"/>
  <path fill="#2f2f2f" d="M0 1100H100V1200H1000V1100H1100V800H900V900H200V800H0Z"/>
  <path fill="#ee3e23" d="M0 900H200V800H400V700H700V800H900V900H1100V600H1000V500H800V400H300V500H100V600H0Z"/>
  <path fill="#ff7879" d="M400 500H500V600H600V500H700V400H400ZM200 600H300V700H500V600H400V500H200ZM600 700H800V600H900V500H700V600H600ZM0 700H100V800H300V700H200V600H0ZM800 800H1000V700H1100V600H900V700H800Z"/>
  <path fill="#ae111f" d="M0 900H300V800H500V700H600V800H800V900H1100V800H1000V700H800V600H600V400H500V600H300V700H100V800H0ZM200 600H300V500H200ZM800 600H900V500H800ZM0 700H100V600H0ZM1000 700H1100V600H1000Z"/>
  <path fill="#b0b0b0" d="M0 900H100V1200H200V1000H300V1200H400V1000H700V1200H800V1000H900V1200H1000V900H1100V800H900V700H800V800H300V700H200V800H0Z"/>
  <path fill="#858585" d="M200 900H300V800H200ZM800 900H900V800H800ZM100 1000H200V900H100ZM900 1000H1000V900H900ZM300 1100H400V1000H300ZM700 1100H800V1000H700Z"/>
  <path fill="#b7d016" d="M200 900H900V700H700V600H400V700H200Z"/>
  <path fill="#ffffff" d="M300 900H400V800H500V900H600V800H700V900H800V700H300Z"/>
</svg>
