<?xml version="1.0" encoding="UTF-8"?>
<svg xmlns="http://www.w3.org/2000/svg" viewBox="0 0 1200 1200" width="1200" height="1200">
  <title>emoji_u1f62e_200d_1f4a8</title>
  <path fill="#ea8d04" d="M0 1000H100V1100H200V1200H900V1000H300V900H200V400H300V300H800V400H900V900H1100V300H1000V200H900V100H200V200H100V300H0Z"/>
  <path fill="#96cbe9" d="M600 1100H800V1200H1000V1100H1100V800H1000V700H800V800H600Z"/>
  <path fill="#ffffff" d="M800 900H900V800H800ZM900 1100H1000V900H900Z"/>
  <path fill="#fcdf31" d="M100 1000H200V1100H800V1000H700V900H900V800H1000V300H900V200H200V300H100Z"/>
  <path fill="#412c0c" d="M300 300H400V200H300ZM700 300H800V200H700ZM200 400H300V300H200ZM800 400H900V300H800ZM200 600H300V500H200ZM400 600H500V500H400ZM600 600H700V500H600ZM800 600H900V500H800ZM300 700H400V600H300ZM700 700H800V600H700ZM400 1000H700V900H600V800H500V900H400Z"/>
</svg>
