<?xml version="1.0" encoding="UTF-8"?>
<svg xmlns="http://www.w3.org/2000/svg" viewBox="0 0 1200 1200" width="1200" height="1200">
  <title>emoji_u1f448_1f3fd</title>
  <path fill="#9a6648" d="M0 600H200V700H300V1000H400V1100H600V600H800V500H1100V300H900V200H700V100H500V200H400V300H500V400H100V500H0Z"/>
  <path fill="#62392b" d="M400 300H500V400H700V200H400ZM0 600H100V700H500V800H300V900H500V1000H400V1100H1000V1000H1100V800H900V900H700V500H0Z"/>
  <path fill="#ba8d68" d="M100 600H600V700H500V800H600V900H500V1000H1000V900H1100V400H900V300H700V200H500V300H600V400H700V500H100Z"/>
</svg>
