<?xml version="1.0" encoding="UTF-8"?>
<svg xmlns="http://www.w3.org/2000/svg" viewBox="0 0 1200 1200" width="1200" height="1200">
  <title>emoji_u1f468_1f3fb_200d_1f3eb</title>
  <path fill="#444444" d="M0 700H400V800H500V500H200V300H800V500H1000V100H0Z"/>
  <path fill="#00b098" d="M400 1200H700V1000H600V900H500V1000H400ZM800 1200H1100V1000H1000V900H900V1000H800Z"/>
  <path fill="#97dcfb" d="M500 1100H600V1200H900V1100H1000V1000H500Z"/>
  <path fill="#edc391" d="M400 900H500V1000H600V1100H900V1000H1000V900H1100V700H900V900H600V700H400Z"/>
  <path fill="#f9ddbd" d="M400 800H500V1100H700V1000H800V1100H1000V800H1100V600H1000V500H500V600H400Z"/>
  <path fill="#312d2d" d="M300 600H400V800H500V700H600V600H900V700H1000V800H1100V500H1000V400H900V300H400V400H300ZM600 900H700V700H600ZM800 900H900V700H800Z"/>
  <path fill="#66c0e8" d="M500 1100H700V1000H500ZM800 1100H1000V1000H800Z"/>
  <path fill="#af5214" d="M500 1100H600V1000H500ZM900 1100H1000V1000H900Z"/>
  <path fill="#149184" d="M100 600H400V500H500V400H900V200H100Z"/>
  <path fill="#ffffff" d="M100 400H200V600H300V200H200V300H100ZM400 400H700V300H600V200H500V300H400ZM800 400H900V300H800Z"/>
</svg>
