<?xml version="1.0" encoding="UTF-8"?>
<svg xmlns="http://www.w3.org/2000/svg" viewBox="0 0 1200 1200" width="1200" height="1200">
  <title>emoji_u1fac0</title>
  <path fill="#d43330" d="M0 900H100V1100H200V1200H700V1100H800V1000H900V900H1000V600H900V500H1100V200H900V300H1000V400H900V300H800V200H700V100H600V200H500V300H600V500H300V700H200V300H100V400H0Z"/>
  <path fill="#f44236" d="M200 400H300V500H400V600H500V700H800V600H700V400H800V200H500V100H400V200H300V300H200Z"/>
  <path fill="#ff6a65" d="M100 800H200V900H300V800H400V500H300V300H200V200H100Z"/>
  <path fill="#ff8f8c" d="M200 600H300V700H400V600H500V500H400V300H200Z"/>
  <path fill="#a62714" d="M300 600H500V700H600V1000H800V900H900V600H600V500H500V400H400V300H300Z"/>
  <path fill="#fe5f5f" d="M400 600H500V500H400ZM500 900H600V1100H700V1000H800V900H700V700H800V600H500ZM800 900H900V700H800Z"/>
</svg>
