<?xml version="1.0" encoding="UTF-8"?>
<svg xmlns="http://www.w3.org/2000/svg" viewBox="0 0 1200 1200" width="1200" height="1200">
  <title>emoji_u1f4b6</title>
  <path fill="#1565c0" d="M0 1100H600V800H0ZM700 1100H1100V800H700Z"/>
  <path fill="#ffc06c" d="M400 900H500V1100H800V900H900V800H400Z"/>
  <path fill="#29b6f6" d="M0 900H600V200H0ZM700 900H1100V200H700V500H800V700H700Z"/>
  <path fill="#ffecb3" d="M500 900H800V800H900V400H800V200H500Z"/>
  <path fill="#1f8ddb" d="M800 800H900V700H1000V500H900V400H800Z"/>
  <path fill="#ffffff" d="M300 400H400V300H300ZM100 600H200V700H300V600H400V500H300V400H200V500H100ZM300 800H400V700H300Z"/>
</svg>
