<?xml version="1.0" encoding="UTF-8"?>
<svg xmlns="http://www.w3.org/2000/svg" viewBox="0 0 1200 1200" width="1200" height="1200">
  <title>emoji_u1f6f3</title>
  <path fill="#f44336" d="M800 300H1100V100H900V200H800Z"/>
  <path fill="#85e4ff" d="M0 1200H1100V900H200V800H0Z"/>
  <path fill="#0fcaff" d="M100 1000H200V1100H400V1000H500V1100H700V1000H800V1100H1000V1000H1100V900H100ZM0 1100H100V1000H0ZM100 1200H200V1100H100ZM400 1200H500V1100H400ZM700 1200H800V1100H700ZM1000 1200H1100V1100H1000Z"/>
  <path fill="#94d1e0" d="M100 600H1100V200H400V300H300V400H200V500H100Z"/>
  <path fill="#82aec0" d="M0 700H300V800H800V700H1100V300H300V400H400V500H100V600H0ZM500 500V400H600V500ZM700 500V400H800V500ZM900 500V400H1000V500Z"/>
  <path fill="#2f7889" d="M400 500H500V400H400ZM600 500H700V400H600ZM800 500H900V400H800ZM1000 500H1100V400H1000ZM0 900H500V700H400V600H0ZM600 900H1100V600H700V700H600Z"/>
  <path fill="#2167a1" d="M0 900H100V1000H1100V700H1000V800H900V700H800V800H700V700H400V800H300V700H200V800H100V700H0Z"/>
  <path fill="#dfecf5" d="M0 800H100V700H200V800H300V700H400V600H0ZM700 700H800V800H900V700H1000V800H1100V600H700ZM400 800H700V700H400Z"/>
</svg>
