<?xml version="1.0" encoding="UTF-8"?>
<svg xmlns="http://www.w3.org/2000/svg" viewBox="0 0 1200 1200" width="1200" height="1200">
  <title>emoji_u1f469_200d_1f9af_200d_27a1</title>
  <path fill="#4568ad" d="M100 1100H200V1200H300V900H200V1000H100ZM500 1100H600V1200H800V1100H700V1000H500Z"/>
  <path fill="#7c7c7c" d="M300 1000H400V900H500V1100H700V1000H600V800H500V600H300Z"/>
  <path fill="#cccccc" d="M700 700H800V600H700ZM800 900H900V700H800ZM900 1100H1000V900H900ZM1000 1200H1100V1100H1000Z"/>
  <path fill="#543930" d="M200 400H300V500H400V400H500V100H300V300H200Z"/>
  <path fill="#616161" d="M200 1100H300V1000H400V700H500V600H300V900H200Z"/>
  <path fill="#ff3d00" d="M900 1100H1000V900H900Z"/>
  <path fill="#636262" d="M600 700H800V600H600Z"/>
  <path fill="#583ee2" d="M300 700H500V600H600V500H500V200H400V300H300Z"/>
  <path fill="#ffca28" d="M400 300H500V200H400ZM400 600H600V500H500V400H400ZM600 700H700V600H600Z"/>
</svg>
