<?xml version="1.0" encoding="UTF-8"?>
<svg xmlns="http://www.w3.org/2000/svg" viewBox="0 0 1200 1200" width="1200" height="1200">
  <title>emoji_u1f4f2</title>
  <path fill="#757575" d="M300 700H400V1100H500V1200H1000V1100H1100V200H1000V100H500V200H400V600H300Z"/>
  <path fill="#b0bec5" d="M100 500H200V400H100ZM0 700H200V800H300V700H400V600H300V500H200V600H0ZM100 900H200V800H100Z"/>
  <path fill="#212121" d="M500 400H1000V200H500Z"/>
  <path fill="#424242" d="M500 400H700V300H600V200H500ZM800 400H1000V200H900V300H800Z"/>
  <path fill="#000000" d="M500 1100H1000V300H500Z"/>
  <path fill="#0288d1" d="M800 1000H900V900H800Z"/>
  <path fill="#81d4fa" d="M600 1000H700V900H600Z"/>
  <path fill="#eab56e" d="M600 500H700V400H600Z"/>
  <path fill="#ff80ab" d="M800 500H900V400H800Z"/>
  <path fill="#00bfa5" d="M600 700H700V600H600Z"/>
</svg>
