<?xml version="1.0" encoding="UTF-8"?>
<svg xmlns="http://www.w3.org/2000/svg" viewBox="0 0 1200 1200" width="1200" height="1200">
  <title>emoji_u1f404</title>
  <path fill="#ffd3af" d="M0 700H100V800H200V500H0Z"/>
  <path fill="#fea8a7" d="M600 1200H700V1100H800V1200H900V900H600Z"/>
  <path fill="#adadb8" d="M300 1200H400V1100H500V900H300ZM700 1000H800V1200H1000V900H700Z"/>
  <path fill="#ffbd16" d="M200 500H700V300H600V200H500V300H400V200H300V300H200Z"/>
  <path fill="#4d4d4d" d="M0 600H100V800H300V1000H400V1100H500V1200H600V1100H700V1000H900V1100H1000V1000H1100V500H800V300H600V400H500V300H400V400H300V300H200V400H100V500H0Z"/>
  <path fill="#dfdfdf" d="M0 600H100V700H200V800H400V900H500V800H600V1000H500V1200H700V1000H800V800H700V700H600V500H500V300H400V400H300V500H0ZM600 500H700V400H600ZM1000 600H1100V500H1000ZM800 800H1000V600H900V700H800ZM900 1200H1100V800H1000V900H900Z"/>
  <path fill="#fca4a7" d="M100 700H200V600H100Z"/>
  <path fill="#ffd1b3" d="M600 500H700V400H600Z"/>
  <path fill="#1b1b1b" d="M300 600H400V500H300Z"/>
</svg>
