<?xml version="1.0" encoding="UTF-8"?>
<svg xmlns="http://www.w3.org/2000/svg" viewBox="0 0 1200 1200" width="1200" height="1200">
  <title>emoji_u1faae</title>
  <path fill="#2f7889" d="M400 300H500V400H700V200H600V100H500V200H400ZM700 600H800V700H1100V600H1000V500H900V400H700Z"/>
  <path fill="#000000" d="M400 400H700V300H600V200H400ZM0 900H100V800H200V900H300V800H400V900H500V800H600V900H700V800H800V900H900V800H1000V900H1100V600H0Z"/>
  <path fill="#4c4c4c" d="M0 1100H100V700H200V1100H300V700H400V1100H500V700H600V1100H700V700H800V1100H900V700H1000V1100H1100V600H900V500H800V400H700V300H500V200H400V400H200V500H100V600H0Z"/>
</svg>
