<?xml version="1.0" encoding="UTF-8"?>
<svg xmlns="http://www.w3.org/2000/svg" viewBox="0 0 1200 1200" width="1200" height="1200">
  <title>emoji_u1f9d6_1f3fb</title>
  <path fill="#a7e1fc" d="M0 900H200V800H300V300H400V100H0ZM700 300H800V500H900V700H800V1000H900V1200H1100V100H700Z"/>
  <path fill="#eceff1" d="M0 1200H1000V900H900V800H1000V700H700V800H600V1000H500V700H100V800H0Z"/>
  <path fill="#312d2d" d="M200 500H300V600H800V500H1000V400H900V200H800V100H300V200H200Z"/>
  <path fill="#c6ecfd" d="M600 900H800V800H1000V400H800V500H700V600H600ZM0 1200H100V900H200V800H400V900H500V600H400V500H200V700H100V800H0Z"/>
  <path fill="#f3f5f6" d="M300 700H400V1100H500V1200H600V1100H700V900H800V800H700V700H800V600H300Z"/>
  <path fill="#797676" d="M200 600H300V700H400V400H200ZM700 700H800V600H900V400H700Z"/>
  <path fill="#fce8d1" d="M500 1000H600V700H500Z"/>
  <path fill="#f9ddbd" d="M300 700H500V800H600V700H800V400H700V500H600V400H700V300H400V400H500V500H400V400H300Z"/>
  <path fill="#fcecdb" d="M300 700H500V600H400V500H300ZM700 700H800V600H700ZM500 800H600V700H500Z"/>
  <path fill="#fbdab4" d="M500 800H600V700H500Z"/>
</svg>
