<?xml version="1.0" encoding="UTF-8"?>
<svg xmlns="http://www.w3.org/2000/svg" viewBox="0 0 1200 1200" width="1200" height="1200">
  <title>emoji_u26f8</title>
  <path fill="#b0b0b0" d="M0 1100H1100V1000H1000V900H800V800H900V700H600V800H700V900H400V800H500V700H200V800H300V900H100V1000H0Z"/>
  <path fill="#f2edec" d="M200 600H700V400H800V100H600V400H200Z"/>
  <path fill="#feffff" d="M800 700H1000V200H800Z"/>
  <path fill="#b1b0b0" d="M100 700H600V600H800V400H900V300H1000V100H600V200H700V300H600V500H500V400H400V500H300V400H200V500H100Z"/>
  <path fill="#c8c8c8" d="M100 1000H1000V900H100Z"/>
  <path fill="#d8cdc9" d="M100 700H200V800H800V700H1000V600H900V300H1000V200H800V300H600V400H700V500H500V600H400V500H300V600H200V500H100ZM200 500H300V400H200ZM400 500H500V400H400Z"/>
  <path fill="#474c4f" d="M200 800H900V700H1000V600H700V700H200Z"/>
  <path fill="#464c4e" d="M700 400H800V300H700ZM300 600H400V500H300ZM500 600H600V500H500Z"/>
</svg>
