<?xml version="1.0" encoding="UTF-8"?>
<svg xmlns="http://www.w3.org/2000/svg" viewBox="0 0 1200 1200" width="1200" height="1200">
  <title>emoji_u1facf</title>
  <path fill="#706c66" d="M800 800H900V900H1100V600H1000V500H900V400H800Z"/>
  <path fill="#f2eded" d="M0 1100H100V1200H500V1100H600V1000H400V800H300V700H100V900H0Z"/>
  <path fill="#aca39b" d="M300 1100H500V900H300ZM100 1100H200V1000H100ZM200 1200H300V1100H200Z"/>
  <path fill="#88847d" d="M500 1100H600V1200H800V1100H1100V800H1000V700H700V800H600V900H500ZM100 1100H200V1000H100Z"/>
  <path fill="#c8beb3" d="M100 800H200V900H300V1000H400V1100H600V1000H700V900H800V800H1000V700H900V200H800V100H700V200H600V400H500V300H400V200H300V100H100V300H200V400H300V500H200V700H100ZM1000 900H1100V800H1000ZM700 1200H1100V1000H1000V900H800V1000H700Z"/>
  <path fill="#141414" d="M500 800H600V600H500Z"/>
</svg>
