<?xml version="1.0" encoding="UTF-8"?>
<svg xmlns="http://www.w3.org/2000/svg" viewBox="0 0 1200 1200" width="1200" height="1200">
  <title>emoji_u1f43a</title>
  <path fill="#e0e0e0" d="M0 400H100V600H400V300H300V200H200V100H0ZM700 600H1000V400H1100V100H900V200H800V300H700ZM100 1000H300V1100H400V1200H700V1100H800V1000H1000V700H100Z"/>
  <path fill="#b0b0b0" d="M0 400H100V200H200V100H0ZM900 200H1000V400H1100V100H900ZM200 300H300V200H200ZM0 800H100V1000H300V900H200V800H500V1000H600V800H900V900H800V1000H1000V800H1100V600H1000V400H900V500H800V300H700V200H400V300H300V500H200V400H100V600H0ZM800 300H900V200H800Z"/>
  <path fill="#2a2a2a" d="M400 1100H700V1000H600V900H500V1000H400Z"/>
  <path fill="#2f2f2f" d="M300 700H400V600H300ZM700 700H800V600H700Z"/>
</svg>
