<?xml version="1.0" encoding="UTF-8"?>
<svg xmlns="http://www.w3.org/2000/svg" viewBox="0 0 1200 1200" width="1200" height="1200">
  <title>emoji_u1f38d</title>
  <path fill="#fda72c" d="M100 1200H1000V1100H900V1000H200V1100H100Z"/>
  <path fill="#2f7f32" d="M100 900H400V500H300V600H200V700H100ZM700 900H1000V700H900V600H800V500H700Z"/>
  <path fill="#ffcb80" d="M100 900H200V1100H900V900H1000V800H700V900H400V800H100Z"/>
  <path fill="#f9dfaf" d="M300 800H600V700H700V600H800V300H700V200H600V100H500V200H400V500H300Z"/>
  <path fill="#1f6721" d="M100 900H300V1000H500V1100H600V1000H800V900H1000V800H800V700H700V800H400V700H300V800H100Z"/>
  <path fill="#7fb240" d="M500 300H600V200H500ZM400 400H500V300H400ZM600 400H700V300H600ZM500 500H600V400H500ZM300 900H800V400H700V500H600V600H500V700H400V600H300ZM400 600H500V500H400Z"/>
  <path fill="#b69b5a" d="M500 300H600V200H500ZM600 400H700V300H600ZM500 500H600V400H500ZM400 600H500V500H400ZM500 700H600V600H500Z"/>
  <path fill="#eb961b" d="M500 1100H600V1000H500Z"/>
  <path fill="#737f35" d="M500 500H600V400H500ZM500 900H700V600H500Z"/>
  <path fill="#e3de9e" d="M600 900H700V600H600ZM300 900H400V700H300Z"/>
</svg>
