<?xml version="1.0" encoding="UTF-8"?>
<svg xmlns="http://www.w3.org/2000/svg" viewBox="0 0 1200 1200" width="1200" height="1200">
  <title>emoji_u1faad</title>
  <path fill="#ff0303" d="M0 600H100V700H200V800H300V900H400V700H700V900H800V800H900V700H1000V600H1100V500H1000V400H900V300H700V200H400V300H200V400H100V500H0Z"/>
  <path fill="#f29657" d="M300 900H400V1000H500V1100H600V1000H700V900H800V600H700V500H600V600H500V500H400V600H300Z"/>
  <path fill="#db0000" d="M300 400H400V300H300ZM700 400H800V300H700ZM100 500H200V400H100ZM300 800H400V700H500V400H400V600H300ZM600 700H700V800H800V600H700V400H600ZM900 500H1000V400H900ZM200 600H300V500H200ZM800 600H900V500H800Z"/>
  <path fill="#ffcc80" d="M400 700H500V600H400ZM600 700H700V600H600ZM300 800H400V700H300ZM500 800H600V700H500ZM700 800H800V700H700ZM400 900H500V800H400ZM600 900H700V800H600ZM500 1000H600V900H500Z"/>
</svg>
