<?xml version="1.0" encoding="UTF-8"?>
<svg xmlns="http://www.w3.org/2000/svg" viewBox="0 0 1200 1200" width="1200" height="1200">
  <title>emoji_u1f1e7_1f1f2</title>
  <path fill="#9c789c" d="M0 500H200V300H0Z"/>
  <path fill="#575c97" d="M200 500H500V300H200Z"/>
  <path fill="#6b6da2" d="M0 500H300V300H100V400H0Z"/>
  <path fill="#8781ac" d="M0 700H200V400H0Z"/>
  <path fill="#9e466b" d="M100 500H400V400H300V300H200V400H100Z"/>
  <path fill="#a27c9e" d="M300 500H600V300H400V400H300Z"/>
  <path fill="#aa4667" d="M400 500H700V300H500V400H400Z"/>
  <path fill="#b74e6b" d="M0 500H100V600H200V400H0Z"/>
  <path fill="#cf5065" d="M0 800H200V500H100V600H0Z"/>
  <path fill="#cf142b" d="M0 1000H1100V300H600V400H500V600H100V700H0Z"/>
  <path fill="#742558" d="M100 700H300V500H100Z"/>
  <path fill="#8a4327" d="M700 900H1000V700H700Z"/>
  <path fill="#a75b4c" d="M800 800H900V900H1000V600H800Z"/>
  <path fill="#af2829" d="M700 900H800V800H900V700H700Z"/>
  <path fill="#c3314b" d="M400 600H600V400H400Z"/>
  <path fill="#c8172a" d="M800 800H900V700H800ZM900 900H1000V800H900Z"/>
  <path fill="#c95d74" d="M300 600H600V500H500V400H300Z"/>
  <path fill="#ce93a6" d="M100 600H200V700H300V400H100Z"/>
  <path fill="#d64e5f" d="M800 600H1000V400H800Z"/>
  <path fill="#d6636e" d="M700 600H1000V500H900V400H700Z"/>
  <path fill="#d74053" d="M100 500H200V600H400V400H100Z"/>
  <path fill="#d76a71" d="M800 800H900V700H1000V500H800Z"/>
  <path fill="#db5f70" d="M100 500H200V400H100ZM200 600H300V500H200Z"/>
  <path fill="#dd828d" d="M700 600H900V500H800V400H700Z"/>
  <path fill="#de5f6f" d="M200 600H500V500H400V400H300V500H200Z"/>
  <path fill="#df8792" d="M800 700H900V600H1000V500H800Z"/>
  <path fill="#8a8f82" d="M700 800H900V500H700Z"/>
  <path fill="#983b62" d="M400 700H600V500H400Z"/>
  <path fill="#a39875" d="M700 800H900V700H800V600H700Z"/>
  <path fill="#b1ab89" d="M700 700H800V600H700ZM800 800H900V700H800Z"/>
  <path fill="#b52c4b" d="M200 700H400V500H200Z"/>
  <path fill="#b9a3bc" d="M200 600H300V700H500V500H200Z"/>
  <path fill="#c05670" d="M200 600H300V500H200ZM300 700H400V600H300Z"/>
  <path fill="#c36b5f" d="M700 700H800V600H900V500H700Z"/>
  <path fill="#c58ca2" d="M300 700H600V600H500V500H400V600H300Z"/>
  <path fill="#e1cfcd" d="M700 700H800V500H700Z"/>
  <path fill="#82305f" d="M300 700H500V600H300Z"/>
  <path fill="#a74d6f" d="M400 700H600V600H400Z"/>
  <path fill="#cba784" d="M700 700H800V600H700Z"/>
  <path fill="#d22f44" d="M500 700H600V600H500Z"/>
</svg>
