<?xml version="1.0" encoding="UTF-8"?>
<svg xmlns="http://www.w3.org/2000/svg" viewBox="0 0 1200 1200" width="1200" height="1200">
  <title>emoji_u1f9a2</title>
  <path fill="#fea6a4" d="M0 400H200V500H300V200H100V300H0Z"/>
  <path fill="#464b4e" d="M100 300H200V500H400V400H500V100H200V200H100Z"/>
  <path fill="#dcedf5" d="M0 1000H100V1100H200V1200H900V1100H1000V1000H1100V800H1000V700H1100V600H500V500H600V200H500V100H200V300H300V400H200V600H100V700H0ZM300 300V200H400V300Z"/>
  <path fill="#68a4af" d="M300 800H400V700H300ZM700 800H900V700H700ZM400 900H700V800H400ZM900 900H1000V800H900ZM200 1000H300V900H200ZM800 1000H900V900H800ZM300 1100H800V1000H300Z"/>
</svg>
