<?xml version="1.0" encoding="UTF-8"?>
<svg xmlns="http://www.w3.org/2000/svg" viewBox="0 0 1200 1200" width="1200" height="1200">
  <title>emoji_u1f9bc</title>
  <path fill="#616161" d="M300 1100H500V900H400V1000H300ZM100 1200H300V1100H200V1000H100Z"/>
  <path fill="#757575" d="M900 500H1100V100H900Z"/>
  <path fill="#424242" d="M300 800H400V900H1000V700H1100V100H1000V400H900V500H500V600H800V700H300Z"/>
  <path fill="#78909c" d="M500 1100H600V1200H900V1100H1000V900H700V1000H500ZM0 1200H200V1000H0Z"/>
  <path fill="#8ec4d2" d="M500 1100H800V900H500ZM0 1100H100V1000H0Z"/>
  <path fill="#212121" d="M900 600H1000V500H900ZM800 700H900V600H800Z"/>
  <path fill="#f44336" d="M400 1100H600V1000H900V1100H1000V800H400Z"/>
  <path fill="#c62828" d="M600 1000H700V1100H800V1000H900V900H600ZM400 1100H600V1000H400ZM900 1100H1000V1000H900Z"/>
  <path fill="#141111" d="M700 1100H800V1000H700Z"/>
</svg>
