<?xml version="1.0" encoding="UTF-8"?>
<svg xmlns="http://www.w3.org/2000/svg" viewBox="0 0 1200 1200" width="1200" height="1200">
  <title>emoji_u1f314</title>
  <path fill="#22404c" d="M0 800H100V1000H200V1100H400V1200H600V1000H500V700H400V500H500V300H600V100H400V200H200V300H100V500H0Z"/>
  <path fill="#1b2e35" d="M100 600H200V700H300V800H400V1000H300V1100H500V200H300V300H400V400H300V500H200V400H100ZM200 400H300V300H200ZM200 1000H300V900H200Z"/>
  <path fill="#fce5ac" d="M400 1100H500V1200H700V1100H900V1000H1000V800H1100V500H1000V300H900V200H700V100H500V200H400Z"/>
  <path fill="#f1c688" d="M500 200H600V100H500ZM600 400H700V700H800V600H900V700H1000V400H800V300H700V200H600ZM400 500H500V300H400ZM400 800H500V600H400ZM800 1000H900V900H800ZM700 1100H800V1000H700Z"/>
</svg>
