<?xml version="1.0" encoding="UTF-8"?>
<svg xmlns="http://www.w3.org/2000/svg" viewBox="0 0 1200 1200" width="1200" height="1200">
  <title>emoji_u1f4dc</title>
  <path fill="#ba793e" d="M0 300H100V400H200V100H100V200H0ZM100 1100H200V1200H300V900H200V1000H100Z"/>
  <path fill="#d68b52" d="M100 400H200V500H300V200H100ZM200 1200H400V1000H200Z"/>
  <path fill="#ffd8a1" d="M100 300H200V1100H300V1200H1000V1100H1100V1000H1000V900H800V800H1000V200H900V100H100Z"/>
  <path fill="#f2bd72" d="M100 300H300V200H200V100H100ZM300 400H400V300H300ZM800 600H900V500H800ZM200 1100H400V1000H1000V600H900V700H700V800H600V700H300V800H200ZM300 1000V900H400V1000Z"/>
  <path fill="#fcebcd" d="M400 1000H1000V900H400Z"/>
  <path fill="#784d30" d="M100 300H200V200H100ZM200 1100H300V1000H200Z"/>
  <path fill="#cb9559" d="M700 800H900V700H700Z"/>
  <path fill="#d2a372" d="M300 400H500V300H300ZM600 400H900V300H600ZM300 600H900V500H300ZM300 800H600V700H300Z"/>
</svg>
