<?xml version="1.0" encoding="UTF-8"?>
<svg xmlns="http://www.w3.org/2000/svg" viewBox="0 0 1200 1200" width="1200" height="1200">
  <title>emoji_u1f98c</title>
  <path fill="#8a5b51" d="M500 1000H600V1100H700V1200H800V1000H900V900H500Z"/>
  <path fill="#2c2a32" d="M0 700H200V500H0Z"/>
  <path fill="#bd9178" d="M0 400H100V500H600V400H700V100H600V200H500V100H400V300H200V200H100V100H0ZM200 200H300V100H200Z"/>
  <path fill="#ffeac3" d="M400 500H700V200H600V300H500V400H400ZM0 600H100V700H200V800H300V400H100V500H0ZM800 900H1000V700H1100V500H900V600H800Z"/>
  <path fill="#d17856" d="M100 1000H200V1200H300V1000H400V1200H500V1000H900V1200H1000V800H900V700H1000V600H1100V500H900V600H600V700H500V500H700V200H600V400H400V300H200V400H100V500H200V800H100ZM0 400H100V300H0Z"/>
  <path fill="#0a070b" d="M300 600H400V500H300Z"/>
</svg>
