<?xml version="1.0" encoding="UTF-8"?>
<svg xmlns="http://www.w3.org/2000/svg" viewBox="0 0 1200 1200" width="1200" height="1200">
  <title>emoji_u1f4e1</title>
  <path fill="#e0e0e0" d="M800 200H1000V100H800ZM1000 400H1100V200H1000Z"/>
  <path fill="#94d1e0" d="M200 500H300V600H400V700H500V800H600V900H900V600H800V700H700V500H500V400H600V300H300V400H200ZM0 1200H600V1100H500V1000H400V900H300V800H200V900H100V1100H0Z"/>
  <path fill="#82aec0" d="M200 700H300V800H400V900H500V1000H800V900H900V300H400V400H700V500H800V800H700V700H600V600H500V500H400V400H200ZM600 600H700V500H600ZM200 900H300V800H200Z"/>
  <path fill="#2f7889" d="M800 400H900V300H800ZM700 500H800V400H700ZM600 600H700V500H600ZM200 900H300V800H200ZM400 900H500V800H400ZM300 1100H500V1000H400V900H300ZM500 1000H800V900H500Z"/>
</svg>
