<?xml version="1.0" encoding="UTF-8"?>
<svg xmlns="http://www.w3.org/2000/svg" viewBox="0 0 1200 1200" width="1200" height="1200">
  <title>emoji_u1f9ee</title>
  <path fill="#cb8251" d="M0 1100H100V1200H1000V1100H1100V200H1000V100H100V200H0ZM400 400V300H500V200H700V300H600V400ZM800 300V200H900V300ZM200 400V300H300V400ZM400 1000V900H500V800H400V600H500V500H700V600H600V700H700V800H600V900H700V1000H600V1100H500V1000ZM800 600V500H900V600ZM200 800V600H300V800ZM800 800V700H900V800ZM200 1000V900H300V1000ZM800 1000V900H900V1000Z"/>
  <path fill="#774439" d="M100 1100H300V1000H200V900H300V800H200V600H500V500H900V600H800V700H900V800H800V900H900V1000H800V1100H1000V200H900V300H600V400H200V300H300V200H100Z"/>
  <path fill="#a42714" d="M300 300H500V200H300ZM700 400H900V300H700ZM300 600H500V500H300ZM700 700H900V600H700ZM300 900H500V800H300ZM700 900H900V800H700ZM300 1100H500V1000H300ZM700 1100H900V1000H700Z"/>
  <path fill="#e9462d" d="M200 300H400V200H200ZM600 400H800V300H600ZM200 600H400V500H200ZM600 700H800V600H600ZM200 900H400V800H200ZM600 900H800V800H600ZM200 1100H400V1000H200ZM600 1100H800V1000H600Z"/>
</svg>
