<?xml version="1.0" encoding="UTF-8"?>
<svg xmlns="http://www.w3.org/2000/svg" viewBox="0 0 1200 1200" width="1200" height="1200">
  <title>emoji_u1f1ef_1f1f2</title>
  <path fill="#e6bd00" d="M0 500H200V300H0ZM900 500H1100V300H900ZM0 1000H200V800H0ZM900 1000H1100V800H900Z"/>
  <path fill="#110e00" d="M0 600H200V300H100V400H0ZM900 600H1100V400H1000V300H900ZM0 900H100V1000H200V700H0ZM900 1000H1000V900H1100V700H900Z"/>
  <path fill="#1da133" d="M100 500H400V300H100ZM700 500H1000V300H700ZM100 1000H400V800H100ZM700 1000H1000V800H700Z"/>
  <path fill="#b1c111" d="M100 500H300V400H200V300H100ZM800 500H1000V300H900V400H800ZM100 1000H200V900H300V800H100ZM800 900H900V1000H1000V800H800Z"/>
  <path fill="#009b3a" d="M200 500H400V600H700V500H900V400H800V300H300V400H200ZM200 900H300V1000H800V900H900V800H700V700H400V800H200Z"/>
  <path fill="#000000" d="M0 800H100V900H300V800H400V500H300V400H100V500H0ZM700 800H800V900H1000V800H1100V500H1000V400H800V500H700Z"/>
  <path fill="#029b3a" d="M300 600H800V400H600V500H500V400H300ZM300 900H500V800H600V900H800V700H300Z"/>
  <path fill="#6cb221" d="M200 600H500V500H400V400H200ZM600 600H900V400H700V500H600ZM200 900H400V800H500V700H200ZM600 800H700V900H900V700H600Z"/>
  <path fill="#9b7f00" d="M100 500H200V600H300V400H100ZM800 600H900V500H1000V400H800ZM100 900H300V700H200V800H100ZM800 900H1000V800H900V700H800Z"/>
  <path fill="#f0cd03" d="M200 600H400V500H300V400H200ZM700 600H900V400H800V500H700ZM200 900H300V800H400V700H200ZM700 800H800V900H900V700H700Z"/>
  <path fill="#403400" d="M200 800H400V500H200V600H300V700H200ZM700 800H900V700H800V600H900V500H700Z"/>
  <path fill="#c6c50d" d="M300 800H800V500H300Z"/>
  <path fill="#d8b200" d="M300 800H400V700H500V600H400V500H300ZM600 700H700V800H800V500H700V600H600Z"/>
  <path fill="#4eac28" d="M400 700H500V800H600V700H700V600H600V500H500V600H400Z"/>
  <path fill="#100d00" d="M300 700H500V600H300ZM600 700H800V600H600Z"/>
  <path fill="#d9b300" d="M400 700H700V600H400Z"/>
  <path fill="#fed100" d="M500 700H600V600H500Z"/>
</svg>
