<?xml version="1.0" encoding="UTF-8"?>
<svg xmlns="http://www.w3.org/2000/svg" viewBox="0 0 1200 1200" width="1200" height="1200">
  <title>emoji_u1faac</title>
  <path fill="#0b96f7" d="M100 600H400V400H600V100H500V200H300V300H200V500H100Z"/>
  <path fill="#0630a6" d="M0 800H100V1100H200V1200H900V1100H1000V800H1100V600H1000V500H900V300H800V200H500V300H400V200H300V300H200V400H300V500H100V600H0Z"/>
  <path fill="#1851ed" d="M500 600H600V300H700V200H600V100H500ZM200 600H300V700H400V300H200V400H300V500H200ZM700 700H800V600H900V300H700ZM0 700H100V800H200V1100H500V900H600V1100H900V800H1000V700H1100V600H900V700H800V800H700V700H400V800H300V700H200V600H0Z"/>
  <path fill="#f5f5f5" d="M300 1000H400V1100H700V1000H800V900H700V800H400V900H300Z"/>
  <path fill="#5ac7f0" d="M400 1000H700V900H400Z"/>
  <path fill="#212121" d="M500 1000H600V900H500Z"/>
</svg>
