<?xml version="1.0" encoding="UTF-8"?>
<svg xmlns="http://www.w3.org/2000/svg" viewBox="0 0 1200 1200" width="1200" height="1200">
  <title>emoji_u1f1f0_1f1f5</title>
  <path fill="#024fa2" d="M0 500H1100V300H0ZM0 1000H1100V800H0Z"/>
  <path fill="#c95166" d="M0 600H1100V400H0ZM0 900H1100V700H0Z"/>
  <path fill="#ed1c27" d="M0 800H300V500H0ZM400 800H1100V500H400Z"/>
  <path fill="#c9566b" d="M200 600H500V500H400V400H300V500H200ZM200 800H300V900H400V800H500V700H200Z"/>
  <path fill="#f1525a" d="M200 800H400V500H200Z"/>
  <path fill="#f47a80" d="M300 800H500V600H300Z"/>
  <path fill="#f57f85" d="M200 700H300V800H400V500H300V600H200Z"/>
  <path fill="#f7989d" d="M300 700H500V500H300Z"/>
  <path fill="#f9b8bc" d="M300 800H400V700H500V600H300Z"/>
  <path fill="#fabec1" d="M300 700H500V600H400V500H300Z"/>
  <path fill="#ef353f" d="M300 700H500V600H300Z"/>
  <path fill="#f7979c" d="M400 700H500V600H400Z"/>
</svg>
