<?xml version="1.0" encoding="UTF-8"?>
<svg xmlns="http://www.w3.org/2000/svg" viewBox="0 0 1200 1200" width="1200" height="1200">
  <title>emoji_u1f5f3</title>
  <path fill="#1976d2" d="M0 900H100V1000H200V1100H400V1200H600V800H500V700H400V600H300V500H200V400H100V500H0Z"/>
  <path fill="#0d47a1" d="M400 1100H500V1200H700V1100H900V1000H1000V900H1100V500H1000V400H900V500H800V600H700V700H600V800H500V1000H400Z"/>
  <path fill="#0a3160" d="M900 600H1000V500H900ZM800 700H900V600H800ZM1000 700H1100V600H1000ZM700 800H800V700H700ZM900 800H1000V700H900ZM600 900H700V800H600ZM800 900H900V800H800ZM500 1000H600V900H500ZM700 1000H800V900H700ZM400 1100H500V1000H400ZM600 1100H700V1000H600ZM500 1200H600V1100H500Z"/>
  <path fill="#1155b0" d="M100 600H200V500H100ZM0 700H100V600H0ZM200 700H300V600H200ZM100 800H200V700H100ZM300 800H400V700H300ZM200 900H300V800H200ZM400 900H500V800H400ZM300 1000H400V900H300ZM500 1000H600V900H500ZM400 1100H500V1000H400Z"/>
  <path fill="#039be5" d="M100 600H200V700H300V800H400V900H500V1000H600V900H700V800H800V700H900V600H1000V400H900V300H800V200H700V600H400V200H300V300H200V400H100Z"/>
  <path fill="#dfecf5" d="M200 700H900V500H800V100H400V200H300V500H200Z"/>
  <path fill="#d91d1d" d="M400 300H500V200H400ZM600 300H700V200H600ZM500 500H600V300H500ZM400 600H500V500H400ZM600 600H700V500H600Z"/>
  <path fill="#212121" d="M200 700H300V500H200ZM800 700H900V500H800Z"/>
</svg>
