<?xml version="1.0" encoding="UTF-8"?>
<svg xmlns="http://www.w3.org/2000/svg" viewBox="0 0 1200 1200" width="1200" height="1200">
  <title>emoji_u1f482_1f3ff_200d_2642</title>
  <path fill="#474c4f" d="M100 1200H500V900H300V1100H100ZM700 1200H1100V1100H900V900H700Z"/>
  <path fill="#da342e" d="M300 1200H900V1100H800V1000H400V1100H300Z"/>
  <path fill="#232020" d="M200 900H400V600H200ZM800 900H1000V600H800Z"/>
  <path fill="#573d36" d="M200 900H300V1000H400V1100H500V1200H700V1100H800V1000H900V900H1000V800H900V700H800V900H400V700H300V800H200Z"/>
  <path fill="#fefefe" d="M300 1000H400V1100H500V1000H700V1100H800V1000H900V900H300ZM500 1200H700V1100H500Z"/>
  <path fill="#464b4e" d="M200 700H1000V200H900V100H300V200H200Z"/>
  <path fill="#3f4447" d="M700 300H800V200H700ZM800 500H900V400H800ZM200 700H300V800H900V700H1000V600H800V500H700V600H400V500H300V600H200Z"/>
  <path fill="#70534a" d="M300 1000H900V700H300Z"/>
  <path fill="#50565c" d="M300 300H400V200H300ZM400 500H500V400H400ZM300 600H400V500H300Z"/>
  <path fill="#1a1717" d="M400 900H500V700H400ZM700 900H800V700H700Z"/>
</svg>
