<?xml version="1.0" encoding="UTF-8"?>
<svg xmlns="http://www.w3.org/2000/svg" viewBox="0 0 1200 1200" width="1200" height="1200">
  <title>emoji_u1f9a6</title>
  <path fill="#52322a" d="M200 1100H300V1200H700V1000H200Z"/>
  <path fill="#875b4e" d="M0 400H200V300H300V100H100V200H0ZM400 300H500V400H700V200H600V100H400ZM800 800H900V1100H1000V1000H1100V300H1000V200H900V500H800ZM200 1100H400V1200H500V1100H600V1200H800V1000H400V900H200Z"/>
  <path fill="#e2e2e4" d="M0 600H100V700H200V600H300V300H200V200H100V300H0ZM400 600H500V700H800V500H700V300H600V200H500V300H400Z"/>
  <path fill="#50362d" d="M600 500H700V400H600ZM600 1100H700V1200H900V1100H1000V800H900V500H700V600H600Z"/>
  <path fill="#986d5c" d="M100 400H300V300H400V400H600V200H500V100H200V200H100ZM0 500H100V400H0ZM600 500H700V400H600ZM100 900H200V1000H300V1100H900V1000H700V900H400V800H300V500H100ZM500 600H600V500H500ZM700 900H900V1000H1000V700H900V600H800V700H700Z"/>
  <path fill="#6a493b" d="M100 800H200V900H300V1000H500V900H900V800H800V700H700V600H600V500H500V400H400V600H200V700H100Z"/>
  <path fill="#b69381" d="M100 600H200V700H300V800H400V1000H700V900H900V800H600V700H500V400H600V300H500V200H200V300H100V400H200V500H100ZM600 700H700V600H600ZM200 900H300V800H200Z"/>
  <path fill="#27282d" d="M200 400H300V300H200ZM400 400H500V300H400ZM200 600H400V700H500V500H400V400H300V500H200Z"/>
  <path fill="#fefcfe" d="M300 800H400V900H500V800H600V700H500V600H400V700H300Z"/>
  <path fill="#e0dfe2" d="M400 800H500V700H400Z"/>
</svg>
