<?xml version="1.0" encoding="UTF-8"?>
<svg xmlns="http://www.w3.org/2000/svg" viewBox="0 0 1200 1200" width="1200" height="1200">
  <title>emoji_u1f31a</title>
  <path fill="#447187" d="M0 800H100V1000H200V1100H400V1200H700V1100H900V1000H1000V800H1100V500H1000V300H900V200H700V100H400V200H200V300H100V500H0Z"/>
  <path fill="#7ba3b3" d="M100 800H200V900H400V600H100ZM700 900H900V800H1000V600H700Z"/>
  <path fill="#6092ab" d="M100 700H300V800H200V1000H400V1100H700V1000H900V800H800V700H1000V500H900V300H700V200H400V300H200V500H100Z"/>
  <path fill="#212121" d="M300 600H500V500H300ZM600 600H800V500H600ZM400 800H500V700H400ZM600 800H700V700H600ZM500 900H600V800H500Z"/>
</svg>
