<?xml version="1.0" encoding="UTF-8"?>
<svg xmlns="http://www.w3.org/2000/svg" viewBox="0 0 1200 1200" width="1200" height="1200">
  <title>emoji_u23f1</title>
  <path fill="#d6dde1" d="M100 700H300V600H400V500H500V200H400V300H300V400H200V500H100Z"/>
  <path fill="#607d8b" d="M400 400H800V300H700V200H600V300H500V200H400Z"/>
  <path fill="#b0bec5" d="M100 900H200V1000H300V1100H800V1000H900V900H1000V500H900V400H800V300H400V400H300V500H700V600H800V800H700V900H400V800H300V500H200V600H100Z"/>
  <path fill="#b2947c" d="M200 900H300V1000H800V900H900V500H800V400H300V500H200Z"/>
  <path fill="#fafafa" d="M200 900H300V1000H500V900H600V1000H800V900H900V500H800V600H700V500H800V400H600V500H500V400H300V500H400V600H300V500H200ZM300 900V800H400V900ZM700 900V800H800V900Z"/>
  <path fill="#c8dae2" d="M500 600H600V700H700V500H500Z"/>
  <path fill="#563428" d="M600 700H700V500H600ZM500 800H600V700H500Z"/>
</svg>
