<?xml version="1.0" encoding="UTF-8"?>
<svg xmlns="http://www.w3.org/2000/svg" viewBox="0 0 1200 1200" width="1200" height="1200">
  <title>emoji_u1f6b4_1f3ff</title>
  <path fill="#dfdfdf" d="M600 300H900V100H600Z"/>
  <path fill="#e0e0e0" d="M400 1100H700V1000H800V900H500V1000H400ZM700 1200H800V1100H700Z"/>
  <path fill="#5f6366" d="M100 1200H400V1100H300V1000H400V900H300V800H400V700H300V600H500V500H100V600H200V900H100V1000H200V1100H100ZM500 1000H800V1100H700V1200H1000V1100H900V1000H1000V900H900V800H800V900H700V800H600V900H500ZM0 1100H100V1000H0ZM400 1100H500V1000H400ZM1000 1100H1100V1000H1000Z"/>
  <path fill="#838383" d="M600 900H700V800H800V900H900V300H700V700H600Z"/>
  <path fill="#232020" d="M600 400H700V500H800V400H900V200H600Z"/>
  <path fill="#70534a" d="M400 600H700V700H800V300H700V200H600V400H700V500H400ZM400 800H500V1000H700V700H400Z"/>
  <path fill="#ababab" d="M700 700H800V600H700ZM200 1100H300V800H600V900H700V700H200ZM800 1100H900V700H800Z"/>
  <path fill="#f77300" d="M700 700H800V400H700ZM600 900H700V700H600Z"/>
  <path fill="#9a9a9a" d="M200 1100H300V1000H200ZM800 1100H900V1000H800Z"/>
  <path fill="#573d36" d="M600 1000H700V800H600Z"/>
</svg>
