<?xml version="1.0" encoding="UTF-8"?>
<svg xmlns="http://www.w3.org/2000/svg" viewBox="0 0 1200 1200" width="1200" height="1200">
  <title>emoji_u1fa85</title>
  <path fill="#02a945" d="M200 300H500V200H400V100H300V200H200Z"/>
  <path fill="#2086fd" d="M800 800H900V700H1000V900H1100V600H1000V500H800ZM200 1200H500V1000H600V1200H900V900H200Z"/>
  <path fill="#b1de7d" d="M100 400H600V100H500V200H200V300H100Z"/>
  <path fill="#ff8e00" d="M0 600H200V700H900V600H1000V500H600V400H0ZM1000 700H1100V600H1000Z"/>
  <path fill="#be66cc" d="M200 1000H900V700H200Z"/>
  <path fill="#ffb803" d="M0 500H600V300H0Z"/>
  <path fill="#e63934" d="M200 800H900V600H200Z"/>
  <path fill="#000000" d="M200 400H300V300H200Z"/>
</svg>
