<?xml version="1.0" encoding="UTF-8"?>
<svg xmlns="http://www.w3.org/2000/svg" viewBox="0 0 1200 1200" width="1200" height="1200">
  <title>emoji_u1f9d1_1f3fc_200d_1f9bc_200d_27a1</title>
  <path fill="#616161" d="M600 1100H800V1000H700V900H600ZM800 1200H1000V1000H900V1100H800Z"/>
  <path fill="#d6af87" d="M200 600H600V500H500V400H300V300H200Z"/>
  <path fill="#4568ad" d="M600 1000H700V900H800V800H600Z"/>
  <path fill="#e0bb95" d="M200 400H300V300H400V100H200Z"/>
  <path fill="#ffffff" d="M100 1200H300V1000H100Z"/>
  <path fill="#78909c" d="M100 1100H200V1200H500V1100H600V1000H400V900H100ZM900 1200H1100V1000H900Z"/>
  <path fill="#7c7c7c" d="M200 800H400V900H500V1000H700V800H600V700H500V600H600V500H200Z"/>
  <path fill="#ab872f" d="M100 400H300V200H400V100H100Z"/>
  <path fill="#8ec4d2" d="M300 1100H600V900H300ZM1000 1100H1100V1000H1000Z"/>
  <path fill="#424242" d="M0 700H100V900H600V800H500V700H300V600H600V500H300V300H200V100H0Z"/>
  <path fill="#757575" d="M100 400H200V500H300V300H200V100H100Z"/>
  <path fill="#c62828" d="M100 1100H200V1000H300V1100H400V1000H500V1100H700V900H600V800H100Z"/>
  <path fill="#f44336" d="M100 1000H200V900H500V1000H700V900H600V800H100Z"/>
  <path fill="#ec6e24" d="M200 500H300V300H200ZM100 600H200V500H100ZM200 700H300V600H200Z"/>
  <path fill="#141111" d="M300 1100H400V1000H300Z"/>
  <path fill="#212121" d="M100 600H200V500H100Z"/>
</svg>
