<?xml version="1.0" encoding="UTF-8"?>
<svg xmlns="http://www.w3.org/2000/svg" viewBox="0 0 1200 1200" width="1200" height="1200">
  <title>emoji_u1f1f0_1f1ec</title>
  <path fill="#e8112d" d="M0 1000H1100V300H0Z"/>
  <path fill="#ea212a" d="M300 600H600V400H400V500H300ZM500 900H700V800H800V700H500Z"/>
  <path fill="#ea222a" d="M500 600H800V500H700V400H500ZM300 800H400V900H600V700H300Z"/>
  <path fill="#ed3f24" d="M400 600H700V500H600V400H500V500H400Z"/>
  <path fill="#eb3027" d="M300 800H500V900H600V800H800V500H600V700H500V500H300Z"/>
  <path fill="#e91c2b" d="M300 600H400V700H500V500H300ZM600 700H700V600H800V500H600Z"/>
  <path fill="#e91d2b" d="M300 800H500V600H400V700H300ZM600 800H800V700H700V600H600Z"/>
  <path fill="#f37718" d="M500 800H700V500H500Z"/>
  <path fill="#f27618" d="M400 800H600V600H400Z"/>
  <path fill="#f37818" d="M400 700H600V500H400Z"/>
  <path fill="#f48515" d="M400 700H500V800H600V700H700V600H400Z"/>
  <path fill="#f48715" d="M400 700H700V600H600V500H500V600H400Z"/>
  <path fill="#f48915" d="M400 700H700V600H400Z"/>
  <path fill="#f48416" d="M500 700H600V600H500Z"/>
</svg>
