<?xml version="1.0" encoding="UTF-8"?>
<svg xmlns="http://www.w3.org/2000/svg" viewBox="0 0 1200 1200" width="1200" height="1200">
  <title>emoji_u1f324</title>
  <path fill="#fcc11a" d="M0 800H100V900H200V1000H600V900H700V800H400V600H500V500H700V300H600V200H200V300H100V400H0Z"/>
  <path fill="#bacdd2" d="M200 800H300V900H1000V800H1100V700H1000V600H200Z"/>
  <path fill="#e2ebee" d="M200 700H300V800H400V700H600V800H700V700H900V800H1000V500H900V400H800V300H600V400H400V500H300V600H200Z"/>
  <path fill="#fee269" d="M200 400H300V300H200ZM100 500H200V400H100Z"/>
</svg>
