<?xml version="1.0" encoding="UTF-8"?>
<svg xmlns="http://www.w3.org/2000/svg" viewBox="0 0 1200 1200" width="1200" height="1200">
  <title>emoji_u1f994</title>
  <path fill="#f47dad" d="M200 1200H400V1100H500V1200H700V1100H800V1200H1000V1000H300V1100H200Z"/>
  <path fill="#6f4b3b" d="M400 400H700V100H600V200H500V100H400ZM900 500H1100V300H1000V200H900Z"/>
  <path fill="#4b4c4d" d="M0 800H100V900H300V600H100V700H0Z"/>
  <path fill="#f7bb86" d="M200 1000H300V1200H400V1100H600V1200H700V1100H900V1200H1000V900H700V600H400V800H300V900H200Z"/>
  <path fill="#865b52" d="M100 400H200V500H300V600H600V800H700V900H900V1100H1100V400H1000V200H800V100H600V300H500V100H300V200H200V300H100Z"/>
  <path fill="#6d4a37" d="M300 200H400V100H300ZM700 200H800V100H700ZM200 300H300V200H200ZM100 700H600V900H700V1000H900V1200H1100V1000H1000V800H800V700H700V500H600V400H500V500H400V300H300V400H200V600H100ZM800 700H900V600H800Z"/>
  <path fill="#9d6c5b" d="M300 500H400V300H300ZM600 400H700V300H600ZM800 400H900V300H800ZM700 500H800V400H700ZM600 600H700V500H600ZM900 600H1000V500H900ZM1000 700H1100V600H1000Z"/>
  <path fill="#fed3b4" d="M500 500H600V400H500ZM600 600H700V500H600ZM100 900H200V1000H400V900H500V700H600V600H100V700H200V800H100ZM500 1100H700V1000H900V900H800V800H600V900H500ZM900 900H1000V800H900ZM900 1200H1000V1000H900Z"/>
  <path fill="#c5886f" d="M600 400H700V300H600ZM500 500H600V400H500ZM900 600H1000V500H900ZM800 700H900V600H800ZM900 900H1000V800H900Z"/>
  <path fill="#000304" d="M300 800H400V600H300Z"/>
  <path fill="#f27cb6" d="M500 700H600V600H500Z"/>
</svg>
