<?xml version="1.0" encoding="UTF-8"?>
<svg xmlns="http://www.w3.org/2000/svg" viewBox="0 0 1200 1200" width="1200" height="1200">
  <title>emoji_u1f993</title>
  <path fill="#464c4f" d="M200 300H300V400H700V500H800V1000H900V1200H1100V400H1000V300H800V200H600V100H200ZM0 1100H200V1000H400V600H300V500H200V600H100V700H0Z"/>
  <path fill="#2f2f2f" d="M200 700H300V1000H400V900H500V1200H1100V1100H1000V1000H1100V900H900V800H1000V700H900V600H1000V500H900V400H800V200H700V300H600V200H500V300H400V200H300V500H200Z"/>
  <path fill="#dfdfe0" d="M300 300H400V100H300ZM500 300H600V100H500ZM700 400H800V200H700ZM900 400H1000V300H900ZM300 600H400V700H500V800H600V700H700V600H800V500H700V400H400V500H300ZM800 500H900V400H800ZM900 600H1100V500H900ZM200 700H300V600H200ZM800 700H900V600H800ZM300 800H400V700H300ZM700 800H800V700H700ZM900 800H1100V700H900ZM600 1000H700V800H600ZM800 900H900V800H800ZM900 1000H1100V900H900ZM700 1100H900V1000H700ZM1000 1200H1100V1100H1000Z"/>
  <path fill="#0b0b0b" d="M500 600H600V500H500ZM100 1000H200V900H100Z"/>
</svg>
