<?xml version="1.0" encoding="UTF-8"?>
<svg xmlns="http://www.w3.org/2000/svg" viewBox="0 0 1200 1200" width="1200" height="1200">
  <title>emoji_u1f915</title>
  <path fill="#eb8f00" d="M100 300H900V100H200V200H100ZM0 1000H100V1100H200V1200H900V1100H1000V1000H1100V400H900V900H800V1000H300V900H200V600H0Z"/>
  <path fill="#808080" d="M0 700H100V800H400V700H600V600H1000V500H1100V300H1000V200H900V100H800V200H700V300H400V400H300V200H100V300H0Z"/>
  <path fill="#ffffff" d="M100 600H300V500H500V400H1000V300H900V200H200V300H100ZM500 600H600V500H500ZM300 700H400V600H300Z"/>
  <path fill="#fde030" d="M200 300H700V200H200ZM100 500H300V400H100ZM100 1000H200V1100H900V1000H1000V500H500V600H300V700H100Z"/>
  <path fill="#422b0d" d="M300 800H400V600H300ZM700 800H800V600H700ZM400 1000H700V900H400ZM700 1100H800V1000H700Z"/>
</svg>
