<?xml version="1.0" encoding="UTF-8"?>
<svg xmlns="http://www.w3.org/2000/svg" viewBox="0 0 1200 1200" width="1200" height="1200">
  <title>emoji_u1fabe</title>
  <path fill="#6c4a41" d="M400 400H600V600H700V500H800V400H700V200H600V100H500V200H400ZM900 300H1000V200H900ZM800 400H900V300H800ZM300 600H400V500H300ZM0 700H100V600H0ZM100 800H200V900H300V600H200V700H100ZM300 1000H400V1100H500V800H400V900H300Z"/>
  <path fill="#875c51" d="M300 600H400V1200H700V1000H800V900H700V700H800V600H700V200H500V300H400V500H300ZM100 400H200V300H100ZM200 500H300V400H200ZM900 800H1000V700H1100V600H1000V500H900ZM800 900H900V800H800Z"/>
</svg>
