<?xml version="1.0" encoding="UTF-8"?>
<svg xmlns="http://www.w3.org/2000/svg" viewBox="0 0 1200 1200" width="1200" height="1200">
  <title>emoji_u1f9f3</title>
  <path fill="#616161" d="M500 200H700V100H500ZM400 300H500V200H400ZM700 300H800V200H700ZM300 1100H400V1200H500V1100H700V1200H800V1100H900V1000H300Z"/>
  <path fill="#0277bd" d="M700 600H800V1100H900V1000H1000V500H900V400H800V300H700Z"/>
  <path fill="#bdbdbd" d="M300 500H800V200H700V400H500V200H400V400H300Z"/>
  <path fill="#757575" d="M200 1000H300V1100H900V900H200Z"/>
  <path fill="#03a9f4" d="M200 1000H500V1100H700V1000H900V500H800V400H300V500H200Z"/>
  <path fill="#ffe0b2" d="M300 900H500V800H300Z"/>
  <path fill="#ffe36c" d="M300 600H400V700H500V500H300Z"/>
  <path fill="#7cb342" d="M600 700H900V600H800V500H600Z"/>
  <path fill="#784d30" d="M400 900H500V800H400Z"/>
</svg>
