<?xml version="1.0" encoding="UTF-8"?>
<svg xmlns="http://www.w3.org/2000/svg" viewBox="0 0 1200 1200" width="1200" height="1200">
  <title>emoji_u262e</title>
  <path fill="#8e24aa" d="M0 1100H100V1200H1000V1100H1100V200H1000V100H900V1000H0Z"/>
  <path fill="#ab47bc" d="M0 1100H1000V100H100V200H0Z"/>
  <path fill="#c37dcf" d="M200 300H300V200H200ZM100 400H200V300H100Z"/>
  <path fill="#fafafa" d="M400 400H500V700H600V400H700V300H400ZM300 500H400V400H300ZM700 500H800V400H700ZM200 800H300V500H200ZM800 800H900V500H800ZM400 800H500V700H400ZM600 800H700V700H600ZM300 900H400V800H300ZM700 900H800V800H700ZM400 1000H700V900H400Z"/>
</svg>
