<?xml version="1.0" encoding="UTF-8"?>
<svg xmlns="http://www.w3.org/2000/svg" viewBox="0 0 1200 1200" width="1200" height="1200">
  <title>emoji_u1f1f2_1f1f5</title>
  <path fill="#0071bb" d="M200 500H500V300H200Z"/>
  <path fill="#2078b2" d="M500 1000H800V800H500Z"/>
  <path fill="#2b7bb0" d="M300 1000H600V800H300Z"/>
  <path fill="#4f7f9b" d="M300 500H600V300H400V400H300Z"/>
  <path fill="#58869a" d="M500 500H800V300H500Z"/>
  <path fill="#5e7f96" d="M400 900H500V1000H600V900H700V800H400Z"/>
  <path fill="#708792" d="M400 500H700V400H600V300H500V400H400Z"/>
  <path fill="#0071bc" d="M0 1000H400V900H500V800H400V400H300V300H0ZM600 900H700V1000H1100V300H700V400H600V500H700V800H600Z"/>
  <path fill="#3b87b8" d="M300 900H500V700H300Z"/>
  <path fill="#3b89bb" d="M600 900H800V700H600Z"/>
  <path fill="#638da4" d="M600 600H800V400H600Z"/>
  <path fill="#6c86a3" d="M200 600H500V400H300V500H200Z"/>
  <path fill="#798e9a" d="M400 600H700V400H400Z"/>
  <path fill="#879c9c" d="M500 600H800V500H700V400H600V500H500Z"/>
  <path fill="#8b898b" d="M400 900H700V700H400Z"/>
  <path fill="#8d9a93" d="M300 600H600V500H500V400H400V500H300Z"/>
  <path fill="#9aa4a7" d="M300 800H400V900H500V800H600V700H300Z"/>
  <path fill="#9da9ae" d="M500 800H600V900H700V800H800V700H500Z"/>
  <path fill="#0372bc" d="M200 700H400V500H200Z"/>
  <path fill="#0671ba" d="M200 700H300V800H400V500H300V600H200Z"/>
  <path fill="#0772ba" d="M700 800H800V700H900V600H800V500H700Z"/>
  <path fill="#1278bb" d="M500 700H800V500H500Z"/>
  <path fill="#1378ba" d="M300 700H600V500H300Z"/>
  <path fill="#3286be" d="M500 800H800V600H500Z"/>
  <path fill="#3988bd" d="M300 800H600V600H300Z"/>
  <path fill="#84949c" d="M600 700H800V500H700V600H600Z"/>
  <path fill="#88a2a9" d="M300 800H400V700H500V600H300Z"/>
  <path fill="#8d918b" d="M300 700H500V600H400V500H300Z"/>
  <path fill="#93a9b6" d="M600 700H700V800H800V600H600Z"/>
  <path fill="#a3afb8" d="M400 700H700V600H600V500H500V600H400Z"/>
  <path fill="#b4b3b4" d="M400 700H500V800H600V700H700V600H400Z"/>
  <path fill="#4392c7" d="M500 700H800V600H500Z"/>
  <path fill="#4d98ca" d="M300 700H600V600H300Z"/>
  <path fill="#8194a7" d="M700 700H800V600H700Z"/>
  <path fill="#8196b3" d="M300 700H400V600H300Z"/>
  <path fill="#ffffff" d="M500 700H600V600H500Z"/>
</svg>
