<?xml version="1.0" encoding="UTF-8"?>
<svg xmlns="http://www.w3.org/2000/svg" viewBox="0 0 1200 1200" width="1200" height="1200">
  <title>emoji_u1faba</title>
  <path fill="#6e9921" d="M0 1000H100V1100H300V1000H400V900H200V700H100V800H0Z"/>
  <path fill="#d29b64" d="M0 700H100V1000H500V1100H700V1000H900V900H1000V800H1100V300H1000V200H800V100H200V200H100V300H0Z"/>
  <path fill="#2f7c31" d="M100 1000H200V900H100Z"/>
  <path fill="#b7885a" d="M100 700H200V600H300V700H400V800H300V900H500V1000H700V900H900V800H1000V300H800V200H600V400H700V600H500V500H400V400H500V200H200V300H100ZM800 800V700H900V800ZM500 900V800H600V900ZM200 800H300V700H200Z"/>
  <path fill="#8c6238" d="M200 500H300V600H400V700H600V800H700V600H800V500H900V400H800V300H700V200H400V300H300V400H200Z"/>
  <path fill="#50c1f6" d="M300 600H400V700H500V600H600V800H700V700H800V600H900V400H700V500H600V400H500V300H300Z"/>
  <path fill="#afe3ff" d="M300 400H400V300H300ZM500 600H700V500H600V400H500ZM700 500H800V400H700ZM800 600H900V500H800ZM700 700H800V600H700Z"/>
  <path fill="#08a5eb" d="M400 700H500V600H600V400H500V500H400ZM800 600H900V500H800ZM700 700H800V600H700ZM600 800H700V700H600Z"/>
</svg>
