<?xml version="1.0" encoding="UTF-8"?>
<svg xmlns="http://www.w3.org/2000/svg" viewBox="0 0 1200 1200" width="1200" height="1200">
  <title>emoji_u1fab4</title>
  <path fill="#73b03e" d="M200 200H300V300H500V400H700V300H600V100H500V200H400V100H200ZM700 300H900V200H1000V100H700Z"/>
  <path fill="#a1d65c" d="M600 400H700V300H600ZM100 500H200V600H500V500H400V400H100ZM700 600H900V500H1000V400H700ZM600 700H700V600H600Z"/>
  <path fill="#d44a28" d="M200 1200H900V1000H200Z"/>
  <path fill="#d77759" d="M100 900H1000V700H700V600H500V700H100Z"/>
  <path fill="#27712b" d="M400 600H500V800H700V600H600V400H700V300H600V100H500V500H400Z"/>
  <path fill="#c85535" d="M100 900H200V1000H500V800H100ZM700 1000H900V900H1000V800H700Z"/>
  <path fill="#ed603a" d="M200 1100H900V900H800V800H700V700H500V800H400V900H200Z"/>
  <path fill="#ff8a65" d="M500 800H700V700H500Z"/>
</svg>
