<?xml version="1.0" encoding="UTF-8"?>
<svg xmlns="http://www.w3.org/2000/svg" viewBox="0 0 1200 1200" width="1200" height="1200">
  <title>emoji_u1f238</title>
  <path fill="#f77e00" d="M0 1100H100V1200H1000V1100H1100V200H1000V100H900V1000H0Z"/>
  <path fill="#ff9800" d="M0 1100H1000V100H100V200H0Z"/>
  <path fill="#ffb43d" d="M200 300H300V200H200ZM100 400H200V300H100ZM200 500H300V400H200Z"/>
  <path fill="#fafafa" d="M200 900H500V1100H600V900H900V400H600V300H500V400H200ZM300 600V500H500V600ZM600 600V500H800V600ZM300 800V700H500V800ZM600 800V700H800V800Z"/>
</svg>
