<?xml version="1.0" encoding="UTF-8"?>
<svg xmlns="http://www.w3.org/2000/svg" viewBox="0 0 1200 1200" width="1200" height="1200">
  <title>emoji_u1f4e8</title>
  <path fill="#b0bec5" d="M0 300H200V200H0ZM0 500H200V400H0ZM200 600H300V500H200Z"/>
  <path fill="#6fbff0" d="M100 1000H900V700H1000V500H1100V200H300V500H200V700H100Z"/>
  <path fill="#ffffff" d="M500 400H600V600H700V500H800V400H900V300H500ZM200 900H800V700H900V500H800V600H700V700H600V600H500V400H400V500H300V700H200ZM900 500H1000V400H900Z"/>
</svg>
