<?xml version="1.0" encoding="UTF-8"?>
<svg xmlns="http://www.w3.org/2000/svg" viewBox="0 0 1200 1200" width="1200" height="1200">
  <title>emoji_u1f3e0</title>
  <path fill="#5f4e47" d="M0 700H100V1100H300V600H0ZM800 1100H1000V700H1100V600H800Z"/>
  <path fill="#b0b0b0" d="M200 1200H700V1000H200Z"/>
  <path fill="#ed6c31" d="M0 700H300V600H400V500H500V400H600V500H700V600H800V700H1100V600H1000V500H900V400H800V300H700V200H600V100H500V200H400V300H300V200H200V300H100V600H0Z"/>
  <path fill="#728037" d="M0 1200H300V1100H400V900H200V1000H100V1100H0ZM500 1100H600V1200H1100V1100H1000V1000H900V900H700V1000H500Z"/>
  <path fill="#ab5832" d="M100 500H200V400H300V200H100ZM100 700H200V800H300V700H400V600H500V500H600V600H700V700H800V800H900V700H1000V600H900V500H800V400H700V300H600V200H500V300H400V400H300V500H200V600H100Z"/>
  <path fill="#ab5932" d="M200 1000H300V1100H600V600H200Z"/>
  <path fill="#fff3e1" d="M200 1000H300V700H500V900H400V1000H500V1100H800V1000H900V600H800V500H700V400H600V300H500V400H400V500H300V600H200Z"/>
  <path fill="#bcaa93" d="M500 400H600V300H500ZM400 500H500V400H400ZM600 500H700V400H600ZM300 600H400V500H300ZM700 600H800V500H700ZM200 700H300V600H200ZM800 700H900V600H800ZM700 800H800V700H700Z"/>
  <path fill="#ffba02" d="M400 1000H500V900H400Z"/>
  <path fill="#a6cfd5" d="M600 900H800V700H600Z"/>
</svg>
