<?xml version="1.0" encoding="UTF-8"?>
<svg xmlns="http://www.w3.org/2000/svg" viewBox="0 0 1200 1200" width="1200" height="1200">
  <title>emoji_u1f69c</title>
  <path fill="#1a1a19" d="M0 800H200V500H0Z"/>
  <path fill="#76de88" d="M0 600H100V700H600V400H400V500H300V400H200V500H0Z"/>
  <path fill="#2c7e33" d="M0 900H100V1000H200V900H300V600H100V700H0Z"/>
  <path fill="#302f2f" d="M100 1000H200V1100H400V1000H600V1100H900V1000H1000V800H900V600H600V700H500V600H200V800H100ZM1000 800H1100V700H1000Z"/>
  <path fill="#5e6268" d="M100 200H200V100H100ZM400 800H700V700H1100V600H1000V100H400V200H500V300H400V500H500V600H400ZM200 500H300V200H200Z"/>
  <path fill="#8e736e" d="M100 1000H300V1100H400V900H500V1000H700V1100H800V1000H1000V900H900V700H1000V600H600V700H400V800H300V700H400V600H200V900H100ZM700 800V700H800V800ZM500 900V800H600V900Z"/>
  <path fill="#02ab47" d="M400 200H600V300H700V200H800V300H900V200H1000V100H400ZM600 700H1000V800H1100V600H700V500H600ZM200 700H400V800H600V700H500V600H200ZM300 900H400V800H300ZM600 900H700V800H600Z"/>
  <path fill="#afe2fb" d="M600 600H700V200H600ZM400 500H500V300H400Z"/>
  <path fill="#94c7ea" d="M800 500H900V200H800Z"/>
  <path fill="#f3790e" d="M200 1000H400V800H200ZM600 1000H900V800H600Z"/>
  <path fill="#fcb900" d="M200 900H300V800H200ZM600 900H700V800H600ZM800 900H900V800H800ZM300 1000H400V900H300ZM700 1000H800V900H700Z"/>
</svg>
