<?xml version="1.0" encoding="UTF-8"?>
<svg xmlns="http://www.w3.org/2000/svg" viewBox="0 0 1200 1200" width="1200" height="1200">
  <title>emoji_u1f4d4</title>
  <path fill="#f5f5f5" d="M900 1200H1100V200H1000V100H900Z"/>
  <path fill="#94c6d6" d="M100 1200H1000V1000H100Z"/>
  <path fill="#6d4c41" d="M100 1200H200V1100H500V900H300V100H100Z"/>
  <path fill="#ba793e" d="M200 1000H400V100H200Z"/>
  <path fill="#d68b52" d="M300 1000H400V1100H1000V100H800V300H300V600H400V700H800V900H300Z"/>
  <path fill="#ecb354" d="M300 1000H900V100H300ZM400 500V400H500V500H700V600H500V500ZM700 500V400H800V500Z"/>
  <path fill="#ffecb3" d="M400 400H500V500H700V400H800V300H700V200H500V300H400Z"/>
  <path fill="#ffffff" d="M500 500H700V300H500Z"/>
</svg>
