<?xml version="1.0" encoding="UTF-8"?>
<svg xmlns="http://www.w3.org/2000/svg" viewBox="0 0 1200 1200" width="1200" height="1200">
  <title>emoji_u1f1ee_1f1f3</title>
  <path fill="#128807" d="M0 1000H1100V700H0Z"/>
  <path fill="#ff9933" d="M0 600H1100V300H0Z"/>
  <path fill="#afd6ab" d="M0 800H500V600H0ZM600 800H1100V600H600Z"/>
  <path fill="#ffddba" d="M0 700H500V500H0ZM600 700H1100V500H600Z"/>
  <path fill="#ffffff" d="M0 700H400V800H500V500H400V600H0ZM600 800H700V700H1100V600H700V500H600Z"/>
  <path fill="#a4cca6" d="M400 800H700V600H400Z"/>
  <path fill="#f4d2b5" d="M400 700H700V500H400Z"/>
  <path fill="#86ae98" d="M400 700H500V800H600V700H700V600H400Z"/>
  <path fill="#d6b4a7" d="M400 700H700V600H600V500H500V600H400Z"/>
  <path fill="#d3d3ea" d="M400 700H700V600H400Z"/>
  <path fill="#8787c7" d="M500 700H600V600H500Z"/>
</svg>
