<?xml version="1.0" encoding="UTF-8"?>
<svg xmlns="http://www.w3.org/2000/svg" viewBox="0 0 1200 1200" width="1200" height="1200">
  <title>emoji_u1fad3</title>
  <path fill="#d69640" d="M0 900H100V1000H300V1100H800V1000H1000V900H1100V700H900V800H700V900H400V800H200V700H0Z"/>
  <path fill="#ffeacd" d="M0 800H100V900H300V1000H800V900H1000V800H1100V400H1000V300H800V200H300V300H100V400H0Z"/>
  <path fill="#84634f" d="M300 500H400V400H300ZM600 500H700V400H600ZM200 600H300V500H200ZM500 600H600V500H500ZM800 600H900V500H800ZM400 700H500V600H400ZM700 700H800V600H700ZM600 800H700V700H600Z"/>
</svg>
