<?xml version="1.0" encoding="UTF-8"?>
<svg xmlns="http://www.w3.org/2000/svg" viewBox="0 0 1200 1200" width="1200" height="1200">
  <title>emoji_u1f320</title>
  <path fill="#2b268c" d="M0 300H1100V100H0Z"/>
  <path fill="#344cba" d="M0 1200H1100V1000H0Z"/>
  <path fill="#7986cb" d="M900 900H1100V600H900Z"/>
  <path fill="#7baaf7" d="M400 1100H500V1200H600V1100H700V1000H400Z"/>
  <path fill="#fff176" d="M700 1100H900V1200H1000V1100H1100V800H800V900H700Z"/>
  <path fill="#fff9c4" d="M0 500H300V400H400V200H200V100H100V200H0Z"/>
  <path fill="#2e278d" d="M200 400H1100V200H1000V100H900V200H300V300H200Z"/>
  <path fill="#3445b1" d="M0 1100H800V1000H900V900H0Z"/>
  <path fill="#343eaa" d="M0 1000H100V1100H200V800H0ZM300 1100H400V1000H900V900H1000V1000H1100V800H300Z"/>
  <path fill="#312790" d="M0 500H1100V300H900V200H800V300H600V200H500V300H200V400H100V300H0Z"/>
  <path fill="#fdd835" d="M0 900H100V1100H200V1000H300V1100H400V900H500V700H400V600H100V700H0Z"/>
  <path fill="#343ba7" d="M400 900H500V1000H600V900H1100V800H1000V700H400Z"/>
  <path fill="#332891" d="M0 600H1100V400H800V300H700V400H500V300H400V400H0Z"/>
  <path fill="#b7b1a3" d="M500 300H600V200H500ZM400 400H500V300H400ZM200 600H500V500H400V400H300V500H200ZM500 800H600V900H700V800H1000V700H1100V400H1000V500H700V600H600V700H500ZM400 900H500V800H400ZM500 1000H600V900H500Z"/>
  <path fill="#352e9a" d="M0 700H800V600H900V500H700V400H600V500H0ZM900 700H1100V500H1000V600H900Z"/>
  <path fill="#35349f" d="M0 800H200V700H300V800H700V700H800V600H600V500H500V600H0ZM800 800H1000V700H1100V600H900V700H800Z"/>
  <path fill="#e2dfd0" d="M900 200H1000V100H900ZM800 300H900V200H800ZM700 400H800V300H700ZM600 500H700V400H600ZM500 600H600V500H500ZM300 800H600V700H500V600H400V700H300Z"/>
  <path fill="#3538a4" d="M200 700H300V600H200ZM0 800H200V700H0ZM300 800H400V900H500V800H700V700H300ZM800 800H1000V700H800Z"/>
  <path fill="#ffff8d" d="M200 700H300V600H200Z"/>
  <path fill="#f4b400" d="M400 900H500V800H400ZM300 1000H400V900H300Z"/>
</svg>
