<?xml version="1.0" encoding="UTF-8"?>
<svg xmlns="http://www.w3.org/2000/svg" viewBox="0 0 1200 1200" width="1200" height="1200">
  <title>emoji_u1f3a0</title>
  <path fill="#ffd51d" d="M500 700H800V600H700V100H600V600H500ZM600 1200H700V1000H600Z"/>
  <path fill="#fda726" d="M600 300H700V200H600ZM600 500H700V400H600ZM500 1000H600V1100H700V1000H800V900H500Z"/>
  <path fill="#a47fcc" d="M100 400H200V500H300V700H400V800H800V900H900V800H1000V900H1100V700H900V600H500V400H400V300H300V200H200V300H100Z"/>
  <path fill="#f1edec" d="M0 600H200V800H300V900H100V1200H300V1100H400V1000H600V700H500V600H400V400H300V300H100V400H0ZM700 1000H800V1100H900V1200H1100V1100H1000V1000H900V700H700Z"/>
  <path fill="#ffa6a3" d="M400 700H500V600H400ZM200 800H400V700H200ZM500 800H600V700H500Z"/>
  <path fill="#34b6e2" d="M500 1000H800V700H500Z"/>
  <path fill="#5e6367" d="M100 500H200V400H100Z"/>
  <path fill="#b0e4fe" d="M600 1000H700V900H600Z"/>
</svg>
