<?xml version="1.0" encoding="UTF-8"?>
<svg xmlns="http://www.w3.org/2000/svg" viewBox="0 0 1200 1200" width="1200" height="1200">
  <title>emoji_u1f4f1</title>
  <path fill="#757575" d="M100 1100H200V1200H900V1100H1000V200H900V100H200V200H100Z"/>
  <path fill="#424242" d="M200 400H500V200H200ZM600 400H900V200H600Z"/>
  <path fill="#212121" d="M300 400H800V300H700V200H400V300H300Z"/>
  <path fill="#0288d1" d="M400 1100H700V900H400Z"/>
  <path fill="#00bfa5" d="M200 700H500V400H200ZM600 1100H900V900H600Z"/>
  <path fill="#000000" d="M200 1100H500V1000H600V1100H700V1000H800V1100H900V300H200ZM300 600V500H400V600Z"/>
  <path fill="#81d4fa" d="M500 600H600V500H500ZM300 1100H400V1000H300Z"/>
  <path fill="#fb8c00" d="M500 400H600V300H500ZM700 600H800V500H700ZM300 800H400V700H300Z"/>
  <path fill="#eab56e" d="M300 400H400V300H300Z"/>
  <path fill="#ff80ab" d="M700 400H800V300H700ZM500 800H600V700H500Z"/>
</svg>
