<?xml version="1.0" encoding="UTF-8"?>
<svg xmlns="http://www.w3.org/2000/svg" viewBox="0 0 1200 1200" width="1200" height="1200">
  <title>emoji_u1f38a</title>
  <path fill="#03a9f4" d="M300 500H400V400H300ZM400 600H500V500H400ZM500 800H600V600H500ZM400 900H500V800H400ZM500 1000H600V900H500Z"/>
  <path fill="#f44336" d="M800 600H900V500H800ZM700 700H800V600H700ZM800 800H900V700H800ZM900 1000H1000V800H900ZM400 1200H500V1100H400Z"/>
  <path fill="#af5700" d="M100 600H300V500H400V400H500V200H300V300H200V400H100ZM600 400H700V500H800V600H1000V400H900V300H800V200H600Z"/>
  <path fill="#fb8c00" d="M100 800H200V700H100ZM200 900H300V800H200ZM900 1200H1000V1100H900Z"/>
  <path fill="#f48fb1" d="M200 1100H300V1000H200ZM100 1200H200V1100H100Z"/>
  <path fill="#ffc107" d="M0 500H100V600H200V500H300V400H400V300H500V200H400V100H100V200H0ZM600 300H700V400H800V500H900V600H1000V500H1100V200H1000V100H700V200H600ZM700 1100H800V900H700Z"/>
  <path fill="#ffee58" d="M200 300H300V200H200ZM800 300H900V200H800Z"/>
</svg>
