<?xml version="1.0" encoding="UTF-8"?>
<svg xmlns="http://www.w3.org/2000/svg" viewBox="0 0 1200 1200" width="1200" height="1200">
  <title>emoji_u1f1ea_1f1fa</title>
  <path fill="#043696" d="M400 500H700V300H400Z"/>
  <path fill="#063795" d="M400 1000H700V800H400Z"/>
  <path fill="#003399" d="M0 1000H500V900H600V1000H1100V300H600V400H500V300H0Z"/>
  <path fill="#013498" d="M300 600H400V500H500V400H300ZM600 500H700V600H800V400H600ZM300 900H500V800H400V700H300ZM600 900H800V700H700V800H600Z"/>
  <path fill="#2c4e7e" d="M400 500H700V400H400ZM300 600H400V500H300ZM700 600H800V500H700ZM300 800H400V700H300ZM700 800H800V700H700ZM400 900H700V800H400Z"/>
  <path fill="#274b81" d="M500 900H600V800H500Z"/>
  <path fill="#294c80" d="M500 500H600V400H500Z"/>
  <path fill="#2d4e7e" d="M200 700H300V800H400V500H300V600H200ZM700 800H800V700H900V600H800V500H700Z"/>
  <path fill="#0f3c90" d="M200 700H400V600H200ZM700 700H900V600H700Z"/>
  <path fill="#1e4587" d="M300 700H400V600H300ZM700 700H800V600H700Z"/>
</svg>
