<?xml version="1.0" encoding="UTF-8"?>
<svg xmlns="http://www.w3.org/2000/svg" viewBox="0 0 1200 1200" width="1200" height="1200">
  <title>emoji_u1f935_200d_2640</title>
  <path fill="#464646" d="M100 1200H500V1000H400V700H200V900H100ZM600 1200H1000V900H900V700H700V1000H600Z"/>
  <path fill="#543930" d="M200 800H300V900H500V600H400V500H500V400H600V500H700V600H600V900H800V800H900V200H800V100H300V200H200Z"/>
  <path fill="#9e9e9e" d="M300 1100H400V1200H700V1100H800V800H700V700H600V1000H500V700H400V800H300Z"/>
  <path fill="#ffffff" d="M400 1100H500V1200H600V1100H700V700H400Z"/>
  <path fill="#212121" d="M500 900H600V800H500ZM400 1100H700V900H600V1000H500V900H400Z"/>
  <path fill="#ffca28" d="M300 700H400V800H700V700H800V400H700V300H400V400H300Z"/>
  <path fill="#404040" d="M400 600H500V400H400ZM600 600H700V400H600Z"/>
  <path fill="#e59600" d="M400 800H500V900H600V800H700V700H400Z"/>
</svg>
