<?xml version="1.0" encoding="UTF-8"?>
<svg xmlns="http://www.w3.org/2000/svg" viewBox="0 0 1200 1200" width="1200" height="1200">
  <title>emoji_u1f356</title>
  <path fill="#ffebca" d="M0 300H200V100H100V200H0ZM200 400H300V300H200ZM600 1000H700V1100H900V1200H1000V1100H1100V1000H1000V800H900V700H600Z"/>
  <path fill="#cf701e" d="M100 700H200V800H300V900H400V1000H500V1100H600V1200H800V1100H900V1000H1000V900H1100V700H1000V600H900V500H800V400H700V300H600V200H300V300H200V400H100ZM700 900V800H800V900H900V1000H800V900Z"/>
  <path fill="#ab5931" d="M400 400H500V300H400ZM200 500H300V400H200ZM300 700H400V600H300Z"/>
  <path fill="#fbd5b2" d="M500 1000H600V1100H800V900H1000V700H900V600H700V700H600V800H500ZM700 900V800H800V900Z"/>
  <path fill="#ff605e" d="M700 800H800V900H900V700H700ZM600 1000H800V900H700V800H600Z"/>
</svg>
