<?xml version="1.0" encoding="UTF-8"?>
<svg xmlns="http://www.w3.org/2000/svg" viewBox="0 0 1200 1200" width="1200" height="1200">
  <title>emoji_u1f444</title>
  <path fill="#ef4d8f" d="M0 700H100V800H200V900H400V1000H700V900H900V800H1000V700H1100V500H1000V400H900V300H800V200H600V300H500V200H300V300H200V400H100V500H0Z"/>
  <path fill="#ffffff" d="M300 600H800V500H700V400H400V500H300Z"/>
  <path fill="#ff80ab" d="M300 700H400V800H700V700H800V600H300Z"/>
  <path fill="#3e2723" d="M200 700H900V600H800V500H300V600H200Z"/>
</svg>
