<?xml version="1.0" encoding="UTF-8"?>
<svg xmlns="http://www.w3.org/2000/svg" viewBox="0 0 1200 1200" width="1200" height="1200">
  <title>emoji_u23f0</title>
  <path fill="#2f7889" d="M300 1100H400V1000H300ZM700 1100H800V1000H700ZM200 1200H300V1100H200ZM800 1200H900V1100H800Z"/>
  <path fill="#94d1e0" d="M400 200H500V300H600V200H700V100H400Z"/>
  <path fill="#82aec0" d="M400 400H700V300H600V200H500V300H400Z"/>
  <path fill="#cc2929" d="M100 900H200V1000H300V1100H800V1000H900V900H1000V500H900V400H800V300H300V400H200V500H100Z"/>
  <path fill="#ff4638" d="M200 900H300V1000H800V900H900V500H800V400H300V500H200Z"/>
  <path fill="#fafafa" d="M300 900H800V500H300Z"/>
  <path fill="#563428" d="M600 700H700V600H600ZM500 900H600V700H500Z"/>
</svg>
