<?xml version="1.0" encoding="UTF-8"?>
<svg xmlns="http://www.w3.org/2000/svg" viewBox="0 0 1200 1200" width="1200" height="1200">
  <title>emoji_u1f6cc_1f3ff</title>
  <path fill="#70534a" d="M200 500H500V400H400V300H200Z"/>
  <path fill="#c87d5e" d="M0 1100H300V1000H800V1100H1100V800H200V200H0Z"/>
  <path fill="#784d30" d="M100 800H300V300H200V200H100ZM200 1100H300V1000H200ZM800 1100H900V1000H800Z"/>
  <path fill="#232020" d="M200 600H500V400H300V300H200Z"/>
  <path fill="#188ad6" d="M500 900H1100V500H900V400H500Z"/>
  <path fill="#7dbbe3" d="M300 800H400V900H700V800H600V400H400V500H300Z"/>
  <path fill="#e0f7fa" d="M100 900H1100V800H500V700H400V500H200V700H100Z"/>
  <path fill="#94d1e0" d="M200 700H400V600H200Z"/>
</svg>
