<?xml version="1.0" encoding="UTF-8"?>
<svg xmlns="http://www.w3.org/2000/svg" viewBox="0 0 1200 1200" width="1200" height="1200">
  <title>emoji_u1f3e4</title>
  <path fill="#f7b03c" d="M0 1200H400V500H0ZM700 1200H1100V500H700Z"/>
  <path fill="#6ba4ae" d="M300 1200H800V800H300Z"/>
  <path fill="#866054" d="M0 600H100V700H200V600H300V900H800V600H900V700H1000V600H1100V400H900V300H800V200H700V100H400V200H300V300H200V400H0ZM300 1200H400V1000H300ZM600 1100H700V1200H800V1000H600Z"/>
  <path fill="#9e730a" d="M300 700H800V200H500V400H300Z"/>
  <path fill="#e0a614" d="M600 1100H800V900H700V1000H600Z"/>
  <path fill="#f9dfb1" d="M300 700H800V300H600V200H400V300H300ZM600 600V400H700V600ZM400 600V500H500V600ZM100 1100H200V600H100ZM900 1100H1000V600H900ZM300 1100H400V900H700V1100H800V800H300Z"/>
  <path fill="#e2a613" d="M400 500H500V400H700V300H400ZM300 600H400V500H300ZM500 600H600V500H500Z"/>
  <path fill="#f83c30" d="M500 600H600V500H500Z"/>
</svg>
