<?xml version="1.0" encoding="UTF-8"?>
<svg xmlns="http://www.w3.org/2000/svg" viewBox="0 0 1200 1200" width="1200" height="1200">
  <title>emoji_u1f92e</title>
  <path fill="#eb8f00" d="M0 1100H200V1200H300V900H200V400H300V300H800V400H900V900H800V1200H1000V1000H1100V300H1000V200H900V100H200V200H100V300H0Z"/>
  <path fill="#85c13f" d="M200 1200H1000V1100H900V1000H200Z"/>
  <path fill="#368231" d="M300 1100H500V1200H600V1100H900V1000H800V900H600V800H300ZM100 1000H200V900H100ZM0 1100H100V1000H0ZM900 1200H1000V1100H900Z"/>
  <path fill="#6fb241" d="M300 1100H600V1000H700V900H500V1000H400V900H300Z"/>
  <path fill="#fde030" d="M100 1000H200V1100H400V900H600V1000H700V1100H900V1000H1000V300H900V200H200V300H100Z"/>
  <path fill="#56a142" d="M400 900H500V1000H700V800H400Z"/>
  <path fill="#422b0d" d="M200 400H400V300H200ZM700 400H900V300H700ZM300 600H400V500H300ZM700 600H800V500H700ZM400 700H500V600H400ZM600 700H700V600H600ZM300 800H400V700H300ZM700 800H800V700H700ZM400 900H500V800H400ZM600 900H700V800H600Z"/>
  <path fill="#4d9b43" d="M400 900H700V800H400Z"/>
</svg>
