<?xml version="1.0" encoding="UTF-8"?>
<svg xmlns="http://www.w3.org/2000/svg" viewBox="0 0 1200 1200" width="1200" height="1200">
  <title>emoji_u1f989</title>
  <path fill="#6e4f44" d="M100 1200H1000V1100H900V900H1000V700H900V600H1000V300H900V100H800V200H700V100H400V200H300V100H200V300H100V600H200V700H100V900H200V1100H100Z"/>
  <path fill="#875d54" d="M200 1100H900V600H700V900H400V600H200Z"/>
  <path fill="#f2a35b" d="M200 700H300V800H400V900H700V800H800V700H900V500H200Z"/>
  <path fill="#fffeff" d="M200 600H900V300H600V400H500V300H200Z"/>
  <path fill="#d0805f" d="M200 400H300V300H200ZM400 400H500V300H400ZM600 400H700V300H600ZM800 400H900V300H800ZM300 500H400V400H300ZM400 600H500V700H600V600H700V500H600V400H500V500H400ZM700 500H800V400H700ZM200 600H300V500H200ZM800 600H900V500H800ZM300 1000H800V700H600V800H500V700H300Z"/>
  <path fill="#ebc09d" d="M500 700H600V600H500ZM300 800H400V900H500V700H300ZM600 900H700V800H800V700H600ZM300 1000H400V900H300ZM500 1000H600V900H500ZM700 1000H800V900H700Z"/>
  <path fill="#303232" d="M300 500H400V400H300ZM700 500H800V400H700Z"/>
  <path fill="#feb903" d="M500 600H600V400H500Z"/>
  <path fill="#2f2f2f" d="M500 700H600V500H500Z"/>
</svg>
