<?xml version="1.0" encoding="UTF-8"?>
<svg xmlns="http://www.w3.org/2000/svg" viewBox="0 0 1200 1200" width="1200" height="1200">
  <title>emoji_u1f469_1f3fd_200d_1f430_200d_1f469_1f3fb</title>
  <path fill="#ff4081" d="M100 400H400V100H300V300H200V100H100ZM700 400H1000V100H900V300H800V100H700Z"/>
  <path fill="#373737" d="M100 500H400V300H100ZM700 500H1000V300H700Z"/>
  <path fill="#312d2d" d="M700 800H1100V700H1000V400H700Z"/>
  <path fill="#543930" d="M100 800H500V700H400V400H100Z"/>
  <path fill="#ba8d68" d="M100 600H200V700H300V600H400V500H300V400H200V500H100ZM100 800H200V700H100ZM300 800H500V700H300ZM0 900H100V800H0ZM200 1000H400V900H300V800H200ZM100 1200H200V1000H100ZM400 1200H500V1000H400Z"/>
  <path fill="#f9ddbd" d="M700 600H800V700H900V600H1000V500H900V400H800V500H700ZM700 800H800V700H700ZM900 800H1100V700H900ZM600 900H700V800H600ZM800 1000H1000V900H900V800H800ZM700 1200H800V1000H700ZM1000 1200H1100V1000H1000Z"/>
  <path fill="#5d4037" d="M100 800H200V1000H300V800H400V700H300V600H200V700H100ZM700 800H800V1000H900V800H1000V700H900V600H800V700H700Z"/>
  <path fill="#99674f" d="M200 700H300V600H200Z"/>
  <path fill="#edc391" d="M800 700H900V600H800Z"/>
</svg>
