<?xml version="1.0" encoding="UTF-8"?>
<svg xmlns="http://www.w3.org/2000/svg" viewBox="0 0 1200 1200" width="1200" height="1200">
  <title>emoji_u1f3d7</title>
  <path fill="#858585" d="M200 200H300V300H400V200H600V100H200ZM100 300H200V200H100ZM600 300H800V200H600ZM0 500H200V400H100V300H0ZM200 400H300V300H200ZM700 500H1000V400H900V300H800V400H700ZM0 800H200V900H300V600H0ZM700 700H800V900H900V700H1000V600H700ZM700 1000H800V900H700ZM700 1200H1000V1100H900V1000H800V1100H700Z"/>
  <path fill="#dc0d2a" d="M700 1200H1000V1100H700Z"/>
  <path fill="#f1901b" d="M800 900H900V800H800Z"/>
  <path fill="#a7d0d6" d="M400 900H500V800H600V700H700V600H400Z"/>
  <path fill="#f3911c" d="M300 300H400V100H300ZM0 700H200V1100H100V1200H600V1100H500V700H1100V500H1000V600H900V500H1000V400H500V300H400V400H300V300H200V400H0ZM100 600V500H200V600ZM300 600V500H400V600ZM500 600V500H600V600ZM700 600V500H800V600ZM300 1000V900H400V1000Z"/>
  <path fill="#d15116" d="M200 800H500V700H200Z"/>
</svg>
