<?xml version="1.0" encoding="UTF-8"?>
<svg xmlns="http://www.w3.org/2000/svg" viewBox="0 0 1200 1200" width="1200" height="1200">
  <title>emoji_u26c5</title>
  <path fill="#b9ced3" d="M200 1000H300V1100H400V1200H1000V1100H1100V900H200Z"/>
  <path fill="#fcc11a" d="M0 700H100V800H200V900H400V800H500V700H700V400H600V300H500V200H200V300H100V400H0Z"/>
  <path fill="#e2ebee" d="M200 1000H400V1100H500V1000H700V1100H800V1000H1100V800H1000V700H900V600H800V700H700V600H400V700H300V800H200Z"/>
  <path fill="#fee269" d="M200 400H300V300H200ZM100 500H200V400H100Z"/>
</svg>
