<?xml version="1.0" encoding="UTF-8"?>
<svg xmlns="http://www.w3.org/2000/svg" viewBox="0 0 1200 1200" width="1200" height="1200">
  <title>emoji_u26f4</title>
  <path fill="#94d1e0" d="M100 800H1100V300H800V200H700V300H600V200H500V300H400V400H300V500H200V700H100Z"/>
  <path fill="#2167a1" d="M700 300H800V100H700ZM500 300H600V200H500ZM0 1000H100V1100H200V1200H1100V700H0Z"/>
  <path fill="#82aec0" d="M0 800H1100V700H1000V600H900V700H800V600H700V700H600V600H500V700H0Z"/>
  <path fill="#2f7889" d="M500 500H600V400H500ZM700 500H800V400H700ZM900 500H1000V400H900ZM500 700H600V600H500ZM700 700H800V600H700ZM900 700H1000V600H900Z"/>
</svg>
