<?xml version="1.0" encoding="UTF-8"?>
<svg xmlns="http://www.w3.org/2000/svg" viewBox="0 0 1200 1200" width="1200" height="1200">
  <title>emoji_u1f391</title>
  <path fill="#ba793e" d="M400 1200H700V900H400ZM800 1200H1100V900H800Z"/>
  <path fill="#3441ad" d="M0 1200H500V1000H600V1200H900V1000H1000V1200H1100V100H0Z"/>
  <path fill="#97a53b" d="M300 500H500V400H300ZM100 1100H200V1200H300V900H400V800H300V700H400V600H300V500H200V1000H100ZM0 1000H100V800H0Z"/>
  <path fill="#7d5856" d="M500 1000H600V1100H900V1000H1000V900H500Z"/>
  <path fill="#ffe558" d="M600 500H700V600H900V500H1000V300H900V200H700V300H600Z"/>
  <path fill="#fff7eb" d="M500 1000H1000V900H900V800H800V700H700V800H600V900H500Z"/>
  <path fill="#a8a6c2" d="M600 1000H900V900H800V800H700V900H600Z"/>
  <path fill="#a28297" d="M700 900H800V800H700ZM600 1000H700V900H600ZM800 1000H900V900H800Z"/>
</svg>
