<?xml version="1.0" encoding="UTF-8"?>
<svg xmlns="http://www.w3.org/2000/svg" viewBox="0 0 1200 1200" width="1200" height="1200">
  <title>emoji_u1f49e</title>
  <path fill="#da2e75" d="M600 400H700V500H800V600H900V500H1000V400H1100V200H1000V100H900V200H800V100H700V200H600ZM0 1000H100V1100H200V1200H300V1100H400V1000H500V800H400V700H300V800H200V700H100V800H0Z"/>
  <path fill="#ffbfd6" d="M0 600H100V500H200V400H500V100H200V200H100V300H0ZM600 1100H900V1000H1000V900H1100V600H1000V700H900V800H600Z"/>
  <path fill="#ffcadd" d="M200 300H500V200H200ZM100 400H200V300H100ZM900 900H1000V800H900ZM600 1000H900V900H600Z"/>
  <path fill="#ef5592" d="M700 400H800V500H900V400H1000V200H900V300H800V200H700ZM100 1000H200V1100H300V1000H400V800H300V900H200V800H100Z"/>
</svg>
