<?xml version="1.0" encoding="UTF-8"?>
<svg xmlns="http://www.w3.org/2000/svg" viewBox="0 0 1200 1200" width="1200" height="1200">
  <title>emoji_u1f3e9</title>
  <path fill="#2f7c31" d="M0 1200H200V900H0ZM900 1200H1100V900H900Z"/>
  <path fill="#8a418c" d="M0 1000H300V1200H800V1000H1100V400H900V500H800V900H300V500H200V400H0Z"/>
  <path fill="#ffa828" d="M400 1000H500V1200H600V1000H700V900H400Z"/>
  <path fill="#ffcce1" d="M0 500H100V600H300V500H400V400H500V300H600V400H700V500H800V600H1000V500H1100V400H900V300H800V200H700V100H400V200H300V300H200V400H0ZM100 1200H400V1000H700V1200H1000V900H900V800H1000V700H100V800H200V900H100Z"/>
  <path fill="#e94b8b" d="M100 800H400V500H500V400H600V500H700V800H1000V700H900V600H1000V500H900V400H800V300H700V200H400V300H300V400H200V500H100V600H200V700H100ZM0 1200H200V1000H300V1200H400V1000H500V900H0V1000H100V1100H0ZM600 1000H700V1200H800V1000H900V1200H1100V1100H1000V1000H1100V900H600Z"/>
  <path fill="#ff8fc7" d="M300 800H800V500H700V300H400V500H300ZM100 600H200V500H100ZM900 600H1000V500H900ZM0 700H100V600H0ZM1000 700H1100V600H1000ZM100 800H200V700H100ZM900 800H1000V700H900ZM0 1000H300V900H100V800H0ZM800 1000H1100V800H1000V900H800ZM0 1200H100V1100H0ZM1000 1200H1100V1100H1000Z"/>
  <path fill="#be0576" d="M200 1000H900V900H200Z"/>
  <path fill="#76167b" d="M300 600H400V700H500V800H600V700H700V600H800V400H700V300H600V400H500V300H400V400H300Z"/>
  <path fill="#fe05a2" d="M400 600H500V700H600V600H700V400H600V500H500V400H400Z"/>
</svg>
