<?xml version="1.0" encoding="UTF-8"?>
<svg xmlns="http://www.w3.org/2000/svg" viewBox="0 0 1200 1200" width="1200" height="1200">
  <title>emoji_u1f1f8_1f1f3</title>
  <path fill="#00853f" d="M0 1000H400V300H0Z"/>
  <path fill="#e31b23" d="M700 1000H1100V300H700Z"/>
  <path fill="#fdef42" d="M300 1000H800V300H300Z"/>
  <path fill="#53a840" d="M300 1000H400V800H500V600H400V300H300Z"/>
  <path fill="#ec612d" d="M600 800H700V1000H800V300H700V600H600Z"/>
  <path fill="#f1ea42" d="M400 800H700V600H400Z"/>
  <path fill="#d7df42" d="M400 700H700V600H600V500H500V600H400Z"/>
  <path fill="#dfe242" d="M400 700H500V800H600V700H700V600H400Z"/>
  <path fill="#d5de42" d="M400 700H700V600H400Z"/>
  <path fill="#178e3f" d="M500 700H600V600H500Z"/>
</svg>
