<?xml version="1.0" encoding="UTF-8"?>
<svg xmlns="http://www.w3.org/2000/svg" viewBox="0 0 1200 1200" width="1200" height="1200">
  <title>emoji_u26d3</title>
  <path fill="#2f7889" d="M200 300H300V100H200ZM400 300H500V100H400ZM200 800H300V600H400V800H500V500H400V300H300V500H200ZM700 500H800V300H700ZM900 500H1000V300H900ZM700 1000H800V800H900V1000H1000V700H900V500H800V700H700ZM200 1200H300V1100H400V1200H500V1000H400V800H300V1000H200ZM800 1100H900V1000H800Z"/>
  <path fill="#a8e3f0" d="M300 500H400V300H300ZM800 700H900V500H800ZM300 1000H400V800H300ZM800 1200H900V1000H800Z"/>
  <path fill="#84b0c1" d="M200 200H300V100H200ZM400 200H500V100H400ZM700 400H800V300H900V400H1000V200H900V100H800V200H700ZM300 600H400V400H300ZM200 700H300V600H200ZM400 700H500V600H400ZM800 800H900V600H800ZM700 900H800V800H700ZM900 900H1000V800H900ZM300 1100H400V900H300ZM200 1200H300V1100H200ZM400 1200H500V1100H400ZM800 1200H900V1100H800Z"/>
</svg>
