<?xml version="1.0" encoding="UTF-8"?>
<svg xmlns="http://www.w3.org/2000/svg" viewBox="0 0 1200 1200" width="1200" height="1200">
  <title>emoji_u1f426</title>
  <path fill="#f97d23" d="M0 400H100V500H300V200H100V300H0ZM300 900H400V1100H500V1000H600V1100H700V1000H800V800H300ZM300 1200H400V1100H300ZM500 1200H600V1100H500Z"/>
  <path fill="#026aa8" d="M400 900H500V1000H600V900H700V1000H1000V800H1100V700H700V600H400Z"/>
  <path fill="#36b4e1" d="M100 500H200V800H300V900H500V1000H600V800H700V900H900V800H1100V300H1000V400H900V500H700V400H600V200H500V100H200V200H100V300H200V400H100ZM500 800V700H600V800Z"/>
  <path fill="#2a2d2f" d="M300 400H400V300H300Z"/>
</svg>
