<?xml version="1.0" encoding="UTF-8"?>
<svg xmlns="http://www.w3.org/2000/svg" viewBox="0 0 1200 1200" width="1200" height="1200">
  <title>emoji_u1f6bf</title>
  <path fill="#4fc3f7" d="M100 800H200V700H100ZM0 900H100V800H0ZM400 900H500V800H400ZM300 1000H400V900H300ZM100 1100H200V1000H100ZM500 1100H600V1000H500ZM0 1200H100V1100H0ZM400 1200H500V1100H400Z"/>
  <path fill="#78909c" d="M600 500H700V600H1000V500H900V400H1000V200H800V300H700V200H600Z"/>
  <path fill="#bdbdbd" d="M800 300H900V400H1000V300H1100V100H900V200H800ZM200 400H300V500H400V600H500V700H600V800H700V900H800V1000H900V900H1000V500H800V400H700V200H300V300H200Z"/>
  <path fill="#dfecf5" d="M300 500H400V400H500V500H600V300H300Z"/>
  <path fill="#9e9e9e" d="M300 400H500V300H300ZM500 500H600V400H500ZM600 600H700V500H600ZM700 700H800V600H700ZM800 800H900V700H800ZM900 900H1000V800H900Z"/>
</svg>
