<?xml version="1.0" encoding="UTF-8"?>
<svg xmlns="http://www.w3.org/2000/svg" viewBox="0 0 1200 1200" width="1200" height="1200">
  <title>emoji_u1f9e7</title>
  <path fill="#ae0d1a" d="M100 1200H1000V100H700V200H600V300H500V200H400V100H100V400H200V500H300V600H800V1000H100Z"/>
  <path fill="#ff180a" d="M200 200H300V300H400V400H700V300H800V200H900V100H200ZM100 1100H900V300H800V400H700V500H400V400H300V300H200V200H100Z"/>
  <path fill="#fbbc01" d="M300 900H400V1000H800V700H700V600H800V500H400V600H300V700H400V800H300ZM500 700V600H600V700ZM600 900V800H700V900Z"/>
</svg>
