<?xml version="1.0" encoding="UTF-8"?>
<svg xmlns="http://www.w3.org/2000/svg" viewBox="0 0 1200 1200" width="1200" height="1200">
  <title>emoji_u1f1e7_1f1f3</title>
  <path fill="#998b0e" d="M900 1000H1100V800H900Z"/>
  <path fill="#faec6f" d="M0 500H200V300H0Z"/>
  <path fill="#010101" d="M900 1000H1000V900H1100V700H900Z"/>
  <path fill="#433d06" d="M0 800H200V500H0Z"/>
  <path fill="#464646" d="M0 600H100V700H200V400H0Z"/>
  <path fill="#dbc614" d="M800 1000H1000V800H800Z"/>
  <path fill="#e9e9e9" d="M900 900H1000V800H1100V600H900Z"/>
  <path fill="#f8e432" d="M0 500H300V300H100V400H0Z"/>
  <path fill="#fdf7c0" d="M900 800H1000V700H1100V500H900Z"/>
  <path fill="#f7e017" d="M100 500H500V600H900V700H1000V600H1100V300H200V400H100ZM0 1000H900V900H1000V800H500V700H200V600H100V700H0Z"/>
  <path fill="#ffffff" d="M0 500H100V600H300V400H0ZM700 800H1000V500H700Z"/>
  <path fill="#0a0901" d="M100 800H300V500H100Z"/>
  <path fill="#252203" d="M700 900H1000V700H700Z"/>
  <path fill="#675d0a" d="M600 900H800V800H900V700H600Z"/>
  <path fill="#8a8a8a" d="M100 600H200V700H300V400H200V500H100Z"/>
  <path fill="#a7a7a7" d="M800 800H900V900H1000V600H900V700H800Z"/>
  <path fill="#cd9118" d="M500 900H700V800H800V700H500Z"/>
  <path fill="#e48c1d" d="M400 900H600V800H700V700H400Z"/>
  <path fill="#edad1b" d="M300 800H400V900H500V800H600V700H300Z"/>
  <path fill="#f0da16" d="M100 800H300V600H200V700H100Z"/>
  <path fill="#f4d124" d="M400 600H700V500H600V400H400Z"/>
  <path fill="#f7e11d" d="M800 600H900V700H1000V500H800Z"/>
  <path fill="#faea61" d="M300 600H600V500H500V400H300Z"/>
  <path fill="#fcf29e" d="M200 600H500V500H400V400H200Z"/>
  <path fill="#fefadc" d="M200 600H400V500H300V400H200Z"/>
  <path fill="#fffef6" d="M800 600H900V500H800ZM900 700H1000V600H900ZM800 800H900V700H800Z"/>
  <path fill="#000000" d="M200 800H400V500H200ZM800 800H900V700H800ZM900 900H1000V800H900Z"/>
  <path fill="#262021" d="M600 800H900V700H800V600H600Z"/>
  <path fill="#636363" d="M700 700H800V600H700ZM800 800H900V700H800Z"/>
  <path fill="#6e1713" d="M500 800H700V700H800V600H500Z"/>
  <path fill="#7d6c0c" d="M200 800H500V600H300V700H200Z"/>
  <path fill="#801b16" d="M400 800H600V700H700V600H400Z"/>
  <path fill="#903416" d="M300 700H400V800H500V700H600V600H300Z"/>
  <path fill="#b8a711" d="M300 700H400V600H300ZM200 800H300V700H200Z"/>
  <path fill="#cecece" d="M200 600H300V700H400V500H200Z"/>
  <path fill="#de5d69" d="M400 700H700V500H400Z"/>
  <path fill="#f8dcb4" d="M500 700H800V500H600V600H500Z"/>
  <path fill="#f9e852" d="M700 700H800V600H900V500H700Z"/>
  <path fill="#fae5e7" d="M300 700H600V600H500V500H300Z"/>
  <path fill="#fbef8f" d="M600 700H800V500H700V600H600Z"/>
  <path fill="#fdfcfd" d="M300 700H500V600H400V500H300Z"/>
  <path fill="#2b0f12" d="M300 700H500V600H300Z"/>
  <path fill="#865459" d="M400 700H600V600H400Z"/>
  <path fill="#a27b7f" d="M500 700H700V600H500Z"/>
  <path fill="#d9a4aa" d="M600 700H800V600H600Z"/>
  <path fill="#f8dbde" d="M700 700H800V600H700Z"/>
</svg>
