<?xml version="1.0" encoding="UTF-8"?>
<svg xmlns="http://www.w3.org/2000/svg" viewBox="0 0 1200 1200" width="1200" height="1200">
  <title>emoji_u1f51d</title>
  <path fill="#427687" d="M0 1100H100V1200H1000V1100H1100V200H1000V100H900V1000H0Z"/>
  <path fill="#8cafbf" d="M0 1100H1000V100H100V200H0Z"/>
  <path fill="#a0c8d6" d="M200 300H300V200H200ZM100 400H200V300H100Z"/>
  <path fill="#fafafa" d="M300 500H500V700H600V500H800V400H700V300H600V200H500V300H400V400H300ZM100 900H200V1100H300V900H400V800H100ZM500 900H600V800H500ZM800 1100H900V1000H1000V800H800ZM400 1000H500V900H400ZM600 1000H700V900H600ZM500 1100H600V1000H500Z"/>
</svg>
