<?xml version="1.0" encoding="UTF-8"?>
<svg xmlns="http://www.w3.org/2000/svg" viewBox="0 0 1200 1200" width="1200" height="1200">
  <title>emoji_u1f646</title>
  <path fill="#ffbf15" d="M100 500H400V400H500V300H600V400H700V500H1000V300H900V200H800V100H600V200H500V100H300V200H200V300H100Z"/>
  <path fill="#f6881b" d="M0 900H100V1100H200V1200H900V1100H1000V900H1100V500H1000V300H900V400H800V300H700V800H800V900H700V800H400V900H300V800H400V300H300V400H200V300H100V500H0ZM200 700V600H300V700ZM800 700V600H900V700Z"/>
  <path fill="#543930" d="M300 600H500V500H600V600H800V300H700V200H400V300H300Z"/>
  <path fill="#ffca28" d="M300 800H400V900H700V800H800V500H700V400H400V500H300Z"/>
  <path fill="#e59600" d="M400 900H700V800H400Z"/>
  <path fill="#404040" d="M400 700H500V500H400ZM600 700H700V500H600Z"/>
</svg>
