<?xml version="1.0" encoding="UTF-8"?>
<svg xmlns="http://www.w3.org/2000/svg" viewBox="0 0 1200 1200" width="1200" height="1200">
  <title>emoji_u1f1f8_1f1ff</title>
  <path fill="#3e5eb9" d="M0 500H1100V300H0ZM0 1000H1100V800H0Z"/>
  <path fill="#b10c0c" d="M0 900H400V600H300V400H0ZM700 900H1100V400H900V600H700Z"/>
  <path fill="#af803d" d="M0 500H200V600H1000V500H1100V400H0ZM0 900H1100V800H1000V700H900V800H800V700H300V800H200V700H100V800H0Z"/>
  <path fill="#873a3e" d="M800 700H900V800H1000V500H800Z"/>
  <path fill="#8a3539" d="M100 800H200V700H300V500H200V600H100Z"/>
  <path fill="#9b1823" d="M800 700H900V600H800ZM900 800H1000V700H900Z"/>
  <path fill="#9c1620" d="M200 700H300V600H200ZM100 800H200V700H100Z"/>
  <path fill="#b31d1d" d="M800 700H900V600H1000V500H800Z"/>
  <path fill="#e6c3c3" d="M500 800H800V500H500Z"/>
  <path fill="#2e0606" d="M300 800H600V600H300Z"/>
  <path fill="#4b253e" d="M300 700H600V500H300Z"/>
  <path fill="#4f4c4c" d="M400 700H500V800H600V700H700V600H400Z"/>
  <path fill="#960b0b" d="M200 700H300V800H400V700H500V600H200Z"/>
  <path fill="#97140a" d="M200 700H500V600H400V500H200Z"/>
  <path fill="#98979c" d="M400 700H700V600H600V500H500V600H400Z"/>
  <path fill="#ae340a" d="M200 700H400V600H300V500H200Z"/>
  <path fill="#b1180b" d="M200 600H300V500H200ZM300 700H400V600H300Z"/>
  <path fill="#b12114" d="M700 700H900V500H700Z"/>
  <path fill="#b54426" d="M700 800H800V700H900V600H800V500H700Z"/>
  <path fill="#ba3333" d="M600 700H700V800H800V600H600Z"/>
  <path fill="#bb3c33" d="M600 700H800V500H700V600H600Z"/>
  <path fill="#321e19" d="M300 700H500V600H300Z"/>
  <path fill="#414142" d="M400 700H700V600H400Z"/>
  <path fill="#58575b" d="M400 700H500V600H400Z"/>
  <path fill="#a0a0a0" d="M600 700H800V600H600Z"/>
  <path fill="#d8c4c0" d="M700 700H800V600H700Z"/>
</svg>
