<?xml version="1.0" encoding="UTF-8"?>
<svg xmlns="http://www.w3.org/2000/svg" viewBox="0 0 1200 1200" width="1200" height="1200">
  <title>emoji_u2602</title>
  <path fill="#3f7377" d="M500 1100H600V800H500ZM300 1100H400V1000H300ZM400 1200H500V1100H400Z"/>
  <path fill="#004dae" d="M0 700H100V600H300V700H400V600H500V700H600V600H700V700H800V600H1000V700H1100V500H1000V400H100V500H0Z"/>
  <path fill="#6ca4ab" d="M400 400H700V200H600V100H500V200H400ZM500 900H600V600H500Z"/>
  <path fill="#5547f4" d="M600 500H700V600H800V500H1000V400H900V300H800V200H600ZM1000 600H1100V500H1000Z"/>
  <path fill="#937ef3" d="M100 500H300V600H400V500H500V200H300V300H200V400H100ZM0 600H100V500H0Z"/>
  <path fill="#6e62ed" d="M300 600H400V500H700V600H800V400H700V200H600V300H500V200H400V400H300Z"/>
</svg>
