<?xml version="1.0" encoding="UTF-8"?>
<svg xmlns="http://www.w3.org/2000/svg" viewBox="0 0 1200 1200" width="1200" height="1200">
  <title>emoji_u2744</title>
  <path fill="#95c7ec" d="M400 1000H500V1200H600V1000H700V900H600V700H700V600H600V400H700V300H600V100H500V300H400V400H500V600H400V700H500V900H400ZM300 300H400V200H300ZM700 300H800V200H700ZM100 400H200V300H100ZM900 400H1000V300H900ZM200 500H300V400H200ZM800 500H900V400H800ZM100 600H200V500H100ZM300 600H400V500H300ZM700 600H800V500H700ZM900 600H1000V500H900ZM100 800H200V700H100ZM300 800H400V700H300ZM700 800H800V700H700ZM900 800H1000V700H900ZM200 900H300V800H200ZM800 900H900V800H800ZM100 1000H200V900H100ZM900 1000H1000V900H900ZM300 1100H400V1000H300ZM700 1100H800V1000H700Z"/>
</svg>
